<svg width="175" height="249" viewBox="0 0 175 249" fill="none" xmlns="http://www.w3.org/2000/svg">
<g filter="url(#filter0_d)">
<path d="M50 58C50 53.5817 53.5817 50 58 50H150.997C155.416 50 158.997 53.5817 158.997 58V191C158.997 195.418 155.416 199 150.997 199H58C53.5817 199 50 195.418 50 191V58Z" fill="white"/>
<path d="M79.5137 121V112.469H82.0332C82.7871 112.469 83.4551 112.637 84.0371 112.973C84.623 113.309 85.0762 113.785 85.3965 114.402C85.7168 115.02 85.877 115.727 85.877 116.523V116.951C85.877 117.76 85.7148 118.471 85.3906 119.084C85.0703 119.697 84.6113 120.17 84.0137 120.502C83.4199 120.834 82.7383 121 81.9688 121H79.5137ZM80.9961 113.664V119.816H81.9629C82.7402 119.816 83.3359 119.574 83.75 119.09C84.168 118.602 84.3809 117.902 84.3887 116.992V116.518C84.3887 115.592 84.1875 114.885 83.7852 114.396C83.3828 113.908 82.7988 113.664 82.0332 113.664H80.9961ZM86.9492 117.771C86.9492 117.15 87.0723 116.592 87.3184 116.096C87.5645 115.596 87.9102 115.213 88.3555 114.947C88.8008 114.678 89.3125 114.543 89.8906 114.543C90.7461 114.543 91.4395 114.818 91.9707 115.369C92.5059 115.92 92.7949 116.65 92.8379 117.561L92.8438 117.895C92.8438 118.52 92.7227 119.078 92.4805 119.57C92.2422 120.062 91.8984 120.443 91.4492 120.713C91.0039 120.982 90.4883 121.117 89.9023 121.117C89.0078 121.117 88.291 120.82 87.752 120.227C87.2168 119.629 86.9492 118.834 86.9492 117.842V117.771ZM88.373 117.895C88.373 118.547 88.5078 119.059 88.7773 119.43C89.0469 119.797 89.4219 119.98 89.9023 119.98C90.3828 119.98 90.7559 119.793 91.0215 119.418C91.291 119.043 91.4258 118.494 91.4258 117.771C91.4258 117.131 91.2871 116.623 91.0098 116.248C90.7363 115.873 90.3633 115.686 89.8906 115.686C89.4258 115.686 89.0566 115.871 88.7832 116.242C88.5098 116.609 88.373 117.16 88.373 117.895ZM95.3691 114.66L95.4102 115.393C95.8789 114.826 96.4941 114.543 97.2559 114.543C98.5762 114.543 99.248 115.299 99.2715 116.811V121H97.8477V116.893C97.8477 116.49 97.7598 116.193 97.584 116.002C97.4121 115.807 97.1289 115.709 96.7344 115.709C96.1602 115.709 95.7324 115.969 95.4512 116.488V121H94.0273V114.66H95.3691ZM104.516 121C104.453 120.879 104.398 120.682 104.352 120.408C103.898 120.881 103.344 121.117 102.688 121.117C102.051 121.117 101.531 120.936 101.129 120.572C100.727 120.209 100.525 119.76 100.525 119.225C100.525 118.549 100.775 118.031 101.275 117.672C101.779 117.309 102.498 117.127 103.432 117.127H104.305V116.711C104.305 116.383 104.213 116.121 104.029 115.926C103.846 115.727 103.566 115.627 103.191 115.627C102.867 115.627 102.602 115.709 102.395 115.873C102.188 116.033 102.084 116.238 102.084 116.488H100.66C100.66 116.141 100.775 115.816 101.006 115.516C101.236 115.211 101.549 114.973 101.943 114.801C102.342 114.629 102.785 114.543 103.273 114.543C104.016 114.543 104.607 114.73 105.049 115.105C105.49 115.477 105.717 116 105.729 116.676V119.535C105.729 120.105 105.809 120.561 105.969 120.9V121H104.516ZM102.951 119.975C103.232 119.975 103.496 119.906 103.742 119.77C103.992 119.633 104.18 119.449 104.305 119.219V118.023H103.537C103.01 118.023 102.613 118.115 102.348 118.299C102.082 118.482 101.949 118.742 101.949 119.078C101.949 119.352 102.039 119.57 102.219 119.734C102.402 119.895 102.646 119.975 102.951 119.975ZM109.824 119.98C110.18 119.98 110.475 119.877 110.709 119.67C110.943 119.463 111.068 119.207 111.084 118.902H112.426C112.41 119.297 112.287 119.666 112.057 120.01C111.826 120.35 111.514 120.619 111.119 120.818C110.725 121.018 110.299 121.117 109.842 121.117C108.955 121.117 108.252 120.83 107.732 120.256C107.213 119.682 106.953 118.889 106.953 117.877V117.73C106.953 116.766 107.211 115.994 107.727 115.416C108.242 114.834 108.945 114.543 109.836 114.543C110.59 114.543 111.203 114.764 111.676 115.205C112.152 115.643 112.402 116.219 112.426 116.934H111.084C111.068 116.57 110.943 116.271 110.709 116.037C110.479 115.803 110.184 115.686 109.824 115.686C109.363 115.686 109.008 115.854 108.758 116.189C108.508 116.521 108.381 117.027 108.377 117.707V117.936C108.377 118.623 108.5 119.137 108.746 119.477C108.996 119.812 109.355 119.98 109.824 119.98ZM115.016 121H113.592V114.66H115.016V121ZM113.504 113.014C113.504 112.795 113.572 112.613 113.709 112.469C113.85 112.324 114.049 112.252 114.307 112.252C114.564 112.252 114.764 112.324 114.904 112.469C115.045 112.613 115.115 112.795 115.115 113.014C115.115 113.229 115.045 113.408 114.904 113.553C114.764 113.693 114.564 113.764 114.307 113.764C114.049 113.764 113.85 113.693 113.709 113.553C113.572 113.408 113.504 113.229 113.504 113.014ZM116.305 117.771C116.305 117.15 116.428 116.592 116.674 116.096C116.92 115.596 117.266 115.213 117.711 114.947C118.156 114.678 118.668 114.543 119.246 114.543C120.102 114.543 120.795 114.818 121.326 115.369C121.861 115.92 122.15 116.65 122.193 117.561L122.199 117.895C122.199 118.52 122.078 119.078 121.836 119.57C121.598 120.062 121.254 120.443 120.805 120.713C120.359 120.982 119.844 121.117 119.258 121.117C118.363 121.117 117.646 120.82 117.107 120.227C116.572 119.629 116.305 118.834 116.305 117.842V117.771ZM117.729 117.895C117.729 118.547 117.863 119.059 118.133 119.43C118.402 119.797 118.777 119.98 119.258 119.98C119.738 119.98 120.111 119.793 120.377 119.418C120.646 119.043 120.781 118.494 120.781 117.771C120.781 117.131 120.643 116.623 120.365 116.248C120.092 115.873 119.719 115.686 119.246 115.686C118.781 115.686 118.412 115.871 118.139 116.242C117.865 116.609 117.729 117.16 117.729 117.895ZM119.639 112H121.262L119.639 113.775H118.496L119.639 112ZM124.725 114.66L124.766 115.393C125.234 114.826 125.85 114.543 126.611 114.543C127.932 114.543 128.604 115.299 128.627 116.811V121H127.203V116.893C127.203 116.49 127.115 116.193 126.939 116.002C126.768 115.807 126.484 115.709 126.09 115.709C125.516 115.709 125.088 115.969 124.807 116.488V121H123.383V114.66H124.725ZM80.9609 131.83V135H79.4785V126.469H82.7422C83.6953 126.469 84.4512 126.717 85.0098 127.213C85.5723 127.709 85.8535 128.365 85.8535 129.182C85.8535 130.018 85.5781 130.668 85.0273 131.133C84.4805 131.598 83.7129 131.83 82.7246 131.83H80.9609ZM80.9609 130.641H82.7422C83.2695 130.641 83.6719 130.518 83.9492 130.271C84.2266 130.021 84.3652 129.662 84.3652 129.193C84.3652 128.732 84.2246 128.365 83.9434 128.092C83.6621 127.814 83.2754 127.672 82.7832 127.664H80.9609V130.641ZM89.7266 135.117C88.8242 135.117 88.0918 134.834 87.5293 134.268C86.9707 133.697 86.6914 132.939 86.6914 131.994V131.818C86.6914 131.186 86.8125 130.621 87.0547 130.125C87.3008 129.625 87.6445 129.236 88.0859 128.959C88.5273 128.682 89.0195 128.543 89.5625 128.543C90.4258 128.543 91.0918 128.818 91.5605 129.369C92.0332 129.92 92.2695 130.699 92.2695 131.707V132.281H88.127C88.1699 132.805 88.3438 133.219 88.6484 133.523C88.957 133.828 89.3438 133.98 89.8086 133.98C90.4609 133.98 90.9922 133.717 91.4023 133.189L92.1699 133.922C91.916 134.301 91.5762 134.596 91.1504 134.807C90.7285 135.014 90.2539 135.117 89.7266 135.117ZM89.5566 129.686C89.166 129.686 88.8496 129.822 88.6074 130.096C88.3691 130.369 88.2168 130.75 88.1504 131.238H90.8633V131.133C90.832 130.656 90.7051 130.297 90.4824 130.055C90.2598 129.809 89.9512 129.686 89.5566 129.686ZM96.6992 129.961C96.5117 129.93 96.3184 129.914 96.1191 129.914C95.4668 129.914 95.0273 130.164 94.8008 130.664V135H93.377V128.66H94.7363L94.7715 129.369C95.1152 128.818 95.5918 128.543 96.2012 128.543C96.4043 128.543 96.5723 128.57 96.7051 128.625L96.6992 129.961ZM99.1133 135H97.6895V128.66H99.1133V135ZM97.6016 127.014C97.6016 126.795 97.6699 126.613 97.8066 126.469C97.9473 126.324 98.1465 126.252 98.4043 126.252C98.6621 126.252 98.8613 126.324 99.002 126.469C99.1426 126.613 99.2129 126.795 99.2129 127.014C99.2129 127.229 99.1426 127.408 99.002 127.553C98.8613 127.693 98.6621 127.764 98.4043 127.764C98.1465 127.764 97.9473 127.693 97.8066 127.553C97.6699 127.408 97.6016 127.229 97.6016 127.014ZM100.402 131.771C100.402 131.15 100.525 130.592 100.771 130.096C101.018 129.596 101.363 129.213 101.809 128.947C102.254 128.678 102.766 128.543 103.344 128.543C104.199 128.543 104.893 128.818 105.424 129.369C105.959 129.92 106.248 130.65 106.291 131.561L106.297 131.895C106.297 132.52 106.176 133.078 105.934 133.57C105.695 134.062 105.352 134.443 104.902 134.713C104.457 134.982 103.941 135.117 103.355 135.117C102.461 135.117 101.744 134.82 101.205 134.227C100.67 133.629 100.402 132.834 100.402 131.842V131.771ZM101.826 131.895C101.826 132.547 101.961 133.059 102.23 133.43C102.5 133.797 102.875 133.98 103.355 133.98C103.836 133.98 104.209 133.793 104.475 133.418C104.744 133.043 104.879 132.494 104.879 131.771C104.879 131.131 104.74 130.623 104.463 130.248C104.189 129.873 103.816 129.686 103.344 129.686C102.879 129.686 102.51 129.871 102.236 130.242C101.963 130.609 101.826 131.16 101.826 131.895ZM103.736 126H105.359L103.736 127.775H102.594L103.736 126ZM107.234 131.783C107.234 130.807 107.461 130.023 107.914 129.434C108.367 128.84 108.975 128.543 109.736 128.543C110.408 128.543 110.951 128.777 111.365 129.246V126H112.789V135H111.5L111.43 134.344C111.004 134.859 110.436 135.117 109.725 135.117C108.982 135.117 108.381 134.818 107.92 134.221C107.463 133.623 107.234 132.811 107.234 131.783ZM108.658 131.906C108.658 132.551 108.781 133.055 109.027 133.418C109.277 133.777 109.631 133.957 110.088 133.957C110.67 133.957 111.096 133.697 111.365 133.178V130.471C111.104 129.963 110.682 129.709 110.1 129.709C109.639 129.709 109.283 129.893 109.033 130.26C108.783 130.623 108.658 131.172 108.658 131.906ZM115.789 135H114.365V128.66H115.789V135ZM114.277 127.014C114.277 126.795 114.346 126.613 114.482 126.469C114.623 126.324 114.822 126.252 115.08 126.252C115.338 126.252 115.537 126.324 115.678 126.469C115.818 126.613 115.889 126.795 115.889 127.014C115.889 127.229 115.818 127.408 115.678 127.553C115.537 127.693 115.338 127.764 115.08 127.764C114.822 127.764 114.623 127.693 114.482 127.553C114.346 127.408 114.277 127.229 114.277 127.014ZM119.949 133.98C120.305 133.98 120.6 133.877 120.834 133.67C121.068 133.463 121.193 133.207 121.209 132.902H122.551C122.535 133.297 122.412 133.666 122.182 134.01C121.951 134.35 121.639 134.619 121.244 134.818C120.85 135.018 120.424 135.117 119.967 135.117C119.08 135.117 118.377 134.83 117.857 134.256C117.338 133.682 117.078 132.889 117.078 131.877V131.73C117.078 130.766 117.336 129.994 117.852 129.416C118.367 128.834 119.07 128.543 119.961 128.543C120.715 128.543 121.328 128.764 121.801 129.205C122.277 129.643 122.527 130.219 122.551 130.934H121.209C121.193 130.57 121.068 130.271 120.834 130.037C120.604 129.803 120.309 129.686 119.949 129.686C119.488 129.686 119.133 129.854 118.883 130.189C118.633 130.521 118.506 131.027 118.502 131.707V131.936C118.502 132.623 118.625 133.137 118.871 133.477C119.121 133.812 119.48 133.98 119.949 133.98ZM127.414 135C127.352 134.879 127.297 134.682 127.25 134.408C126.797 134.881 126.242 135.117 125.586 135.117C124.949 135.117 124.43 134.936 124.027 134.572C123.625 134.209 123.424 133.76 123.424 133.225C123.424 132.549 123.674 132.031 124.174 131.672C124.678 131.309 125.396 131.127 126.33 131.127H127.203V130.711C127.203 130.383 127.111 130.121 126.928 129.926C126.744 129.727 126.465 129.627 126.09 129.627C125.766 129.627 125.5 129.709 125.293 129.873C125.086 130.033 124.982 130.238 124.982 130.488H123.559C123.559 130.141 123.674 129.816 123.904 129.516C124.135 129.211 124.447 128.973 124.842 128.801C125.24 128.629 125.684 128.543 126.172 128.543C126.914 128.543 127.506 128.73 127.947 129.105C128.389 129.477 128.615 130 128.627 130.676V133.535C128.627 134.105 128.707 134.561 128.867 134.9V135H127.414ZM125.85 133.975C126.131 133.975 126.395 133.906 126.641 133.77C126.891 133.633 127.078 133.449 127.203 133.219V132.023H126.436C125.908 132.023 125.512 132.115 125.246 132.299C124.98 132.482 124.848 132.742 124.848 133.078C124.848 133.352 124.938 133.57 125.117 133.734C125.301 133.895 125.545 133.975 125.85 133.975Z" fill="#33404F"/>
<path d="M96.8496 164.356L99.2666 156.336H101.713L97.9995 167H95.707L92.0083 156.336H94.4473L96.8496 164.356ZM105.91 167.146C104.748 167.146 103.8 166.79 103.068 166.077C102.34 165.364 101.977 164.415 101.977 163.228V163.023C101.977 162.227 102.13 161.517 102.438 160.892C102.746 160.262 103.18 159.778 103.742 159.441C104.308 159.1 104.953 158.929 105.675 158.929C106.759 158.929 107.611 159.271 108.231 159.954C108.856 160.638 109.169 161.607 109.169 162.862V163.726H104.123C104.191 164.244 104.396 164.659 104.738 164.971C105.084 165.284 105.521 165.44 106.049 165.44C106.864 165.44 107.501 165.145 107.96 164.554L109 165.718C108.683 166.167 108.253 166.519 107.711 166.773C107.169 167.022 106.569 167.146 105.91 167.146ZM105.668 160.643C105.248 160.643 104.906 160.784 104.643 161.067C104.384 161.351 104.218 161.756 104.145 162.283H107.089V162.115C107.079 161.646 106.952 161.285 106.708 161.031C106.464 160.772 106.117 160.643 105.668 160.643ZM114.831 161.06C114.542 161.021 114.289 161.001 114.069 161.001C113.268 161.001 112.743 161.272 112.494 161.814V167H110.377V159.075H112.377L112.436 160.02C112.86 159.292 113.449 158.929 114.201 158.929C114.435 158.929 114.655 158.96 114.86 159.024L114.831 161.06Z" fill="white"/>
<rect x="63.498" y="153" width="82" height="30" rx="5" fill="#979797"/>
<path d="M93.4292 167.874H89.6333V170.718H94.0703V172H88.0273V162.758H94.0259V164.053H89.6333V166.604H93.4292V167.874ZM94.813 168.515C94.813 167.457 95.0584 166.609 95.5493 165.97C96.0402 165.326 96.6982 165.005 97.5234 165.005C98.2513 165.005 98.8395 165.259 99.2881 165.767V162.25H100.831V172H99.4341L99.3579 171.289C98.8966 171.848 98.2809 172.127 97.5107 172.127C96.7067 172.127 96.055 171.803 95.5557 171.156C95.0605 170.508 94.813 169.628 94.813 168.515ZM96.3555 168.648C96.3555 169.347 96.4888 169.893 96.7554 170.286C97.0262 170.675 97.4092 170.87 97.9043 170.87C98.5348 170.87 98.9961 170.589 99.2881 170.026V167.093C99.0046 166.543 98.5475 166.268 97.917 166.268C97.4176 166.268 97.0326 166.467 96.7617 166.865C96.4909 167.258 96.3555 167.853 96.3555 168.648ZM104.081 172H102.538V165.132H104.081V172ZM102.443 163.348C102.443 163.111 102.517 162.914 102.665 162.758C102.817 162.601 103.033 162.523 103.312 162.523C103.592 162.523 103.808 162.601 103.96 162.758C104.112 162.914 104.188 163.111 104.188 163.348C104.188 163.581 104.112 163.776 103.96 163.932C103.808 164.084 103.592 164.161 103.312 164.161C103.033 164.161 102.817 164.084 102.665 163.932C102.517 163.776 102.443 163.581 102.443 163.348ZM107.699 163.462V165.132H108.911V166.274H107.699V170.108C107.699 170.371 107.75 170.561 107.851 170.68C107.957 170.794 108.143 170.851 108.41 170.851C108.587 170.851 108.767 170.83 108.949 170.788V171.981C108.598 172.078 108.259 172.127 107.934 172.127C106.749 172.127 106.156 171.473 106.156 170.166V166.274H105.026V165.132H106.156V163.462H107.699ZM114.199 172C114.131 171.869 114.072 171.655 114.021 171.359C113.53 171.871 112.929 172.127 112.218 172.127C111.528 172.127 110.966 171.93 110.53 171.537C110.094 171.143 109.876 170.656 109.876 170.077C109.876 169.345 110.147 168.784 110.688 168.395C111.234 168.001 112.013 167.804 113.024 167.804H113.97V167.354C113.97 166.998 113.871 166.715 113.672 166.503C113.473 166.287 113.17 166.179 112.764 166.179C112.413 166.179 112.125 166.268 111.901 166.446C111.677 166.619 111.564 166.841 111.564 167.112H110.022C110.022 166.736 110.147 166.384 110.396 166.059C110.646 165.729 110.985 165.47 111.412 165.284C111.844 165.098 112.324 165.005 112.853 165.005C113.657 165.005 114.298 165.208 114.776 165.614C115.255 166.016 115.5 166.583 115.513 167.315V170.413C115.513 171.031 115.599 171.524 115.773 171.892V172H114.199ZM112.504 170.889C112.809 170.889 113.094 170.815 113.361 170.667C113.632 170.519 113.835 170.32 113.97 170.07V168.775H113.139C112.567 168.775 112.138 168.875 111.85 169.074C111.562 169.273 111.418 169.554 111.418 169.918C111.418 170.214 111.516 170.451 111.71 170.629C111.909 170.802 112.174 170.889 112.504 170.889ZM120.724 166.541C120.521 166.507 120.312 166.49 120.096 166.49C119.389 166.49 118.913 166.761 118.667 167.303V172H117.125V165.132H118.598L118.636 165.9C119.008 165.303 119.524 165.005 120.185 165.005C120.405 165.005 120.587 165.035 120.73 165.094L120.724 166.541Z" fill="#1F3044"/>
<path d="M113.054 69.222H111.832V67.9998C111.832 67.2665 111.343 66.7776 110.61 66.7776C109.876 66.7776 109.387 67.2665 109.387 67.9998V69.222H99.6097V67.9998C99.6097 67.2665 99.1208 66.7776 98.3875 66.7776C97.6541 66.7776 97.1653 67.2665 97.1653 67.9998V69.222H95.943C93.8653 69.222 92.2764 70.8109 92.2764 72.8887V74.1109H116.721V72.8887C116.721 70.8109 115.132 69.222 113.054 69.222ZM92.2764 87.5554C92.2764 89.6331 93.8653 91.222 95.943 91.222H113.054C115.132 91.222 116.721 89.6331 116.721 87.5554V76.5554H92.2764V87.5554ZM110.61 78.9998C111.343 78.9998 111.832 79.4887 111.832 80.222C111.832 80.9554 111.343 81.4443 110.61 81.4443C109.876 81.4443 109.387 80.9554 109.387 80.222C109.387 79.4887 109.876 78.9998 110.61 78.9998ZM110.61 83.8887C111.343 83.8887 111.832 84.3776 111.832 85.1109C111.832 85.8443 111.343 86.3331 110.61 86.3331C109.876 86.3331 109.387 85.8443 109.387 85.1109C109.387 84.3776 109.876 83.8887 110.61 83.8887ZM104.499 78.9998C105.232 78.9998 105.721 79.4887 105.721 80.222C105.721 80.9554 105.232 81.4443 104.499 81.4443C103.765 81.4443 103.276 80.9554 103.276 80.222C103.276 79.4887 103.765 78.9998 104.499 78.9998ZM104.499 83.8887C105.232 83.8887 105.721 84.3776 105.721 85.1109C105.721 85.8443 105.232 86.3331 104.499 86.3331C103.765 86.3331 103.276 85.8443 103.276 85.1109C103.276 84.3776 103.765 83.8887 104.499 83.8887ZM98.3875 78.9998C99.1208 78.9998 99.6097 79.4887 99.6097 80.222C99.6097 80.9554 99.1208 81.4443 98.3875 81.4443C97.6541 81.4443 97.1653 80.9554 97.1653 80.222C97.1653 79.4887 97.6541 78.9998 98.3875 78.9998ZM98.3875 83.8887C99.1208 83.8887 99.6097 84.3776 99.6097 85.1109C99.6097 85.8443 99.1208 86.3331 98.3875 86.3331C97.6541 86.3331 97.1653 85.8443 97.1653 85.1109C97.1653 84.3776 97.6541 83.8887 98.3875 83.8887Z" fill="#34414F"/>
<circle cx="110.61" cy="80.2222" r="1.22222" fill="#F19174"/>
</g>
<defs>
<filter id="filter0_d" x="0" y="0" width="208.997" height="249" filterUnits="userSpaceOnUse" color-interpolation-filters="sRGB">
<feFlood flood-opacity="0" result="BackgroundImageFix"/>
<feColorMatrix in="SourceAlpha" type="matrix" values="0 0 0 0 0 0 0 0 0 0 0 0 0 0 0 0 0 0 127 0"/>
<feOffset/>
<feGaussianBlur stdDeviation="25"/>
<feColorMatrix type="matrix" values="0 0 0 0 0.2 0 0 0 0 0.25098 0 0 0 0 0.309804 0 0 0 0.15 0"/>
<feBlend mode="normal" in2="BackgroundImageFix" result="effect1_dropShadow"/>
<feBlend mode="normal" in="SourceGraphic" in2="effect1_dropShadow" result="shape"/>
</filter>
</defs>
</svg>
