<svg width="209" height="249" viewBox="0 0 209 249" fill="none" xmlns="http://www.w3.org/2000/svg">
<g filter="url(#filter0_d)">
<path d="M50 58C50 53.5817 53.5817 50 58 50H150.997C155.416 50 158.997 53.5817 158.997 58V191C158.997 195.418 155.416 199 150.997 199H58C53.5817 199 50 195.418 50 191V58Z" fill="white"/>
<path d="M68.7734 117.83V121H67.291V112.469H70.5547C71.5078 112.469 72.2637 112.717 72.8223 113.213C73.3848 113.709 73.666 114.365 73.666 115.182C73.666 116.018 73.3906 116.668 72.8398 117.133C72.293 117.598 71.5254 117.83 70.5371 117.83H68.7734ZM68.7734 116.641H70.5547C71.082 116.641 71.4844 116.518 71.7617 116.271C72.0391 116.021 72.1777 115.662 72.1777 115.193C72.1777 114.732 72.0371 114.365 71.7559 114.092C71.4746 113.814 71.0879 113.672 70.5957 113.664H68.7734V116.641ZM74.4805 117.771C74.4805 117.15 74.6035 116.592 74.8496 116.096C75.0957 115.596 75.4414 115.213 75.8867 114.947C76.332 114.678 76.8438 114.543 77.4219 114.543C78.2773 114.543 78.9707 114.818 79.502 115.369C80.0371 115.92 80.3262 116.65 80.3691 117.561L80.375 117.895C80.375 118.52 80.2539 119.078 80.0117 119.57C79.7734 120.062 79.4297 120.443 78.9805 120.713C78.5352 120.982 78.0195 121.117 77.4336 121.117C76.5391 121.117 75.8223 120.82 75.2832 120.227C74.748 119.629 74.4805 118.834 74.4805 117.842V117.771ZM75.9043 117.895C75.9043 118.547 76.0391 119.059 76.3086 119.43C76.5781 119.797 76.9531 119.98 77.4336 119.98C77.9141 119.98 78.2871 119.793 78.5527 119.418C78.8223 119.043 78.957 118.494 78.957 117.771C78.957 117.131 78.8184 116.623 78.541 116.248C78.2676 115.873 77.8945 115.686 77.4219 115.686C76.957 115.686 76.5879 115.871 76.3145 116.242C76.041 116.609 75.9043 117.16 75.9043 117.895ZM84.8984 115.961C84.7109 115.93 84.5176 115.914 84.3184 115.914C83.666 115.914 83.2266 116.164 83 116.664V121H81.5762V114.66H82.9355L82.9707 115.369C83.3145 114.818 83.791 114.543 84.4004 114.543C84.6035 114.543 84.7715 114.57 84.9043 114.625L84.8984 115.961ZM88.2852 119.98C88.6406 119.98 88.9355 119.877 89.1699 119.67C89.4043 119.463 89.5293 119.207 89.5449 118.902H90.8867C90.8711 119.297 90.748 119.666 90.5176 120.01C90.2871 120.35 89.9746 120.619 89.5801 120.818C89.1855 121.018 88.7598 121.117 88.3027 121.117C87.416 121.117 86.7129 120.83 86.1934 120.256C85.6738 119.682 85.4141 118.889 85.4141 117.877V117.73C85.4141 116.766 85.6719 115.994 86.1875 115.416C86.7031 114.834 87.4062 114.543 88.2969 114.543C89.0508 114.543 89.6641 114.764 90.1367 115.205C90.6133 115.643 90.8633 116.219 90.8867 116.934H89.5449C89.5293 116.57 89.4043 116.271 89.1699 116.037C88.9395 115.803 88.6445 115.686 88.2852 115.686C87.8242 115.686 87.4688 115.854 87.2188 116.189C86.9688 116.521 86.8418 117.027 86.8379 117.707V117.936C86.8379 118.623 86.9609 119.137 87.207 119.477C87.457 119.812 87.8164 119.98 88.2852 119.98ZM94.7539 121.117C93.8516 121.117 93.1191 120.834 92.5566 120.268C91.998 119.697 91.7188 118.939 91.7188 117.994V117.818C91.7188 117.186 91.8398 116.621 92.082 116.125C92.3281 115.625 92.6719 115.236 93.1133 114.959C93.5547 114.682 94.0469 114.543 94.5898 114.543C95.4531 114.543 96.1191 114.818 96.5879 115.369C97.0605 115.92 97.2969 116.699 97.2969 117.707V118.281H93.1543C93.1973 118.805 93.3711 119.219 93.6758 119.523C93.9844 119.828 94.3711 119.98 94.8359 119.98C95.4883 119.98 96.0195 119.717 96.4297 119.189L97.1973 119.922C96.9434 120.301 96.6035 120.596 96.1777 120.807C95.7559 121.014 95.2812 121.117 94.7539 121.117ZM94.584 115.686C94.1934 115.686 93.877 115.822 93.6348 116.096C93.3965 116.369 93.2441 116.75 93.1777 117.238H95.8906V117.133C95.8594 116.656 95.7324 116.297 95.5098 116.055C95.2871 115.809 94.9785 115.686 94.584 115.686ZM99.7285 114.66L99.7695 115.393C100.238 114.826 100.854 114.543 101.615 114.543C102.936 114.543 103.607 115.299 103.631 116.811V121H102.207V116.893C102.207 116.49 102.119 116.193 101.943 116.002C101.771 115.807 101.488 115.709 101.094 115.709C100.52 115.709 100.092 115.969 99.8105 116.488V121H98.3867V114.66H99.7285ZM106.871 113.119V114.66H107.99V115.715H106.871V119.254C106.871 119.496 106.918 119.672 107.012 119.781C107.109 119.887 107.281 119.939 107.527 119.939C107.691 119.939 107.857 119.92 108.025 119.881V120.982C107.701 121.072 107.389 121.117 107.088 121.117C105.994 121.117 105.447 120.514 105.447 119.307V115.715H104.404V114.66H105.447V113.119H106.871ZM112.871 121C112.809 120.879 112.754 120.682 112.707 120.408C112.254 120.881 111.699 121.117 111.043 121.117C110.406 121.117 109.887 120.936 109.484 120.572C109.082 120.209 108.881 119.76 108.881 119.225C108.881 118.549 109.131 118.031 109.631 117.672C110.135 117.309 110.854 117.127 111.787 117.127H112.66V116.711C112.66 116.383 112.568 116.121 112.385 115.926C112.201 115.727 111.922 115.627 111.547 115.627C111.223 115.627 110.957 115.709 110.75 115.873C110.543 116.033 110.439 116.238 110.439 116.488H109.016C109.016 116.141 109.131 115.816 109.361 115.516C109.592 115.211 109.904 114.973 110.299 114.801C110.697 114.629 111.141 114.543 111.629 114.543C112.371 114.543 112.963 114.73 113.404 115.105C113.846 115.477 114.072 116 114.084 116.676V119.535C114.084 120.105 114.164 120.561 114.324 120.9V121H112.871ZM111.307 119.975C111.588 119.975 111.852 119.906 112.098 119.77C112.348 119.633 112.535 119.449 112.66 119.219V118.023H111.893C111.365 118.023 110.969 118.115 110.703 118.299C110.438 118.482 110.305 118.742 110.305 119.078C110.305 119.352 110.395 119.57 110.574 119.734C110.758 119.895 111.002 119.975 111.307 119.975ZM117.061 114.66V121.562C117.061 122.211 116.898 122.705 116.574 123.045C116.254 123.389 115.783 123.561 115.162 123.561C114.9 123.561 114.648 123.527 114.406 123.461V122.336C114.555 122.371 114.723 122.389 114.91 122.389C115.383 122.389 115.625 122.131 115.637 121.615V114.66H117.061ZM115.514 113.014C115.514 112.795 115.582 112.613 115.719 112.469C115.859 112.324 116.059 112.252 116.316 112.252C116.574 112.252 116.773 112.324 116.914 112.469C117.055 112.613 117.125 112.795 117.125 113.014C117.125 113.229 117.055 113.408 116.914 113.553C116.773 113.693 116.574 113.764 116.316 113.764C116.059 113.764 115.859 113.693 115.719 113.553C115.582 113.408 115.514 113.229 115.514 113.014ZM121.379 121.117C120.477 121.117 119.744 120.834 119.182 120.268C118.623 119.697 118.344 118.939 118.344 117.994V117.818C118.344 117.186 118.465 116.621 118.707 116.125C118.953 115.625 119.297 115.236 119.738 114.959C120.18 114.682 120.672 114.543 121.215 114.543C122.078 114.543 122.744 114.818 123.213 115.369C123.686 115.92 123.922 116.699 123.922 117.707V118.281H119.779C119.822 118.805 119.996 119.219 120.301 119.523C120.609 119.828 120.996 119.98 121.461 119.98C122.113 119.98 122.645 119.717 123.055 119.189L123.822 119.922C123.568 120.301 123.229 120.596 122.803 120.807C122.381 121.014 121.906 121.117 121.379 121.117ZM121.209 115.686C120.818 115.686 120.502 115.822 120.26 116.096C120.021 116.369 119.869 116.75 119.803 117.238H122.516V117.133C122.484 116.656 122.357 116.297 122.135 116.055C121.912 115.809 121.604 115.686 121.209 115.686ZM128.158 121V112.469H130.678C131.432 112.469 132.1 112.637 132.682 112.973C133.268 113.309 133.721 113.785 134.041 114.402C134.361 115.02 134.521 115.727 134.521 116.523V116.951C134.521 117.76 134.359 118.471 134.035 119.084C133.715 119.697 133.256 120.17 132.658 120.502C132.064 120.834 131.383 121 130.613 121H128.158ZM129.641 113.664V119.816H130.607C131.385 119.816 131.98 119.574 132.395 119.09C132.812 118.602 133.025 117.902 133.033 116.992V116.518C133.033 115.592 132.832 114.885 132.43 114.396C132.027 113.908 131.443 113.664 130.678 113.664H129.641ZM138.652 121.117C137.75 121.117 137.018 120.834 136.455 120.268C135.896 119.697 135.617 118.939 135.617 117.994V117.818C135.617 117.186 135.738 116.621 135.98 116.125C136.227 115.625 136.57 115.236 137.012 114.959C137.453 114.682 137.945 114.543 138.488 114.543C139.352 114.543 140.018 114.818 140.486 115.369C140.959 115.92 141.195 116.699 141.195 117.707V118.281H137.053C137.096 118.805 137.27 119.219 137.574 119.523C137.883 119.828 138.27 119.98 138.734 119.98C139.387 119.98 139.918 119.717 140.328 119.189L141.096 119.922C140.842 120.301 140.502 120.596 140.076 120.807C139.654 121.014 139.18 121.117 138.652 121.117ZM138.482 115.686C138.092 115.686 137.775 115.822 137.533 116.096C137.295 116.369 137.143 116.75 137.076 117.238H139.789V117.133C139.758 116.656 139.631 116.297 139.408 116.055C139.186 115.809 138.877 115.686 138.482 115.686ZM72.0781 126.469L74.5391 133.008L76.9941 126.469H78.9102V135H77.4336V132.188L77.5801 128.426L75.0605 135H74L71.4863 128.432L71.6328 132.188V135H70.1562V126.469H72.0781ZM82.0449 135H80.6211V128.66H82.0449V135ZM80.5332 127.014C80.5332 126.795 80.6016 126.613 80.7383 126.469C80.8789 126.324 81.0781 126.252 81.3359 126.252C81.5938 126.252 81.793 126.324 81.9336 126.469C82.0742 126.613 82.1445 126.795 82.1445 127.014C82.1445 127.229 82.0742 127.408 81.9336 127.553C81.793 127.693 81.5938 127.764 81.3359 127.764C81.0781 127.764 80.8789 127.693 80.7383 127.553C80.6016 127.408 80.5332 127.229 80.5332 127.014ZM87.1543 133.277C87.1543 133.023 87.0488 132.83 86.8379 132.697C86.6309 132.564 86.2852 132.447 85.8008 132.346C85.3164 132.244 84.9121 132.115 84.5879 131.959C83.877 131.615 83.5215 131.117 83.5215 130.465C83.5215 129.918 83.752 129.461 84.2129 129.094C84.6738 128.727 85.2598 128.543 85.9707 128.543C86.7285 128.543 87.3398 128.73 87.8047 129.105C88.2734 129.48 88.5078 129.967 88.5078 130.564H87.084C87.084 130.291 86.9824 130.064 86.7793 129.885C86.5762 129.701 86.3066 129.609 85.9707 129.609C85.6582 129.609 85.4023 129.682 85.2031 129.826C85.0078 129.971 84.9102 130.164 84.9102 130.406C84.9102 130.625 85.002 130.795 85.1855 130.916C85.3691 131.037 85.7402 131.16 86.2988 131.285C86.8574 131.406 87.2949 131.553 87.6113 131.725C87.9316 131.893 88.168 132.096 88.3203 132.334C88.4766 132.572 88.5547 132.861 88.5547 133.201C88.5547 133.771 88.3184 134.234 87.8457 134.59C87.373 134.941 86.7539 135.117 85.9883 135.117C85.4688 135.117 85.0059 135.023 84.5996 134.836C84.1934 134.648 83.877 134.391 83.6504 134.062C83.4238 133.734 83.3105 133.381 83.3105 133.002H84.6934C84.7129 133.338 84.8398 133.598 85.0742 133.781C85.3086 133.961 85.6191 134.051 86.0059 134.051C86.3809 134.051 86.666 133.98 86.8613 133.84C87.0566 133.695 87.1543 133.508 87.1543 133.277ZM94.4902 135H93.0137V126.469H94.4902V135ZM97.4961 128.66L97.5371 129.393C98.0059 128.826 98.6211 128.543 99.3828 128.543C100.703 128.543 101.375 129.299 101.398 130.811V135H99.9746V130.893C99.9746 130.49 99.8867 130.193 99.7109 130.002C99.5391 129.807 99.2559 129.709 98.8613 129.709C98.2871 129.709 97.8594 129.969 97.5781 130.488V135H96.1543V128.66H97.4961ZM102.605 131.783C102.605 130.799 102.836 130.014 103.297 129.428C103.762 128.838 104.377 128.543 105.143 128.543C105.865 128.543 106.434 128.795 106.848 129.299L106.912 128.66H108.195V134.807C108.195 135.639 107.936 136.295 107.416 136.775C106.9 137.256 106.203 137.496 105.324 137.496C104.859 137.496 104.404 137.398 103.959 137.203C103.518 137.012 103.182 136.76 102.951 136.447L103.625 135.592C104.062 136.111 104.602 136.371 105.242 136.371C105.715 136.371 106.088 136.242 106.361 135.984C106.635 135.73 106.771 135.355 106.771 134.859V134.432C106.361 134.889 105.814 135.117 105.131 135.117C104.389 135.117 103.781 134.822 103.309 134.232C102.84 133.643 102.605 132.826 102.605 131.783ZM104.023 131.906C104.023 132.543 104.152 133.045 104.41 133.412C104.672 133.775 105.033 133.957 105.494 133.957C106.068 133.957 106.494 133.711 106.771 133.219V130.43C106.502 129.949 106.08 129.709 105.506 129.709C105.037 129.709 104.672 129.895 104.41 130.266C104.152 130.637 104.023 131.184 104.023 131.906ZM112.982 129.961C112.795 129.93 112.602 129.914 112.402 129.914C111.75 129.914 111.311 130.164 111.084 130.664V135H109.66V128.66H111.02L111.055 129.369C111.398 128.818 111.875 128.543 112.484 128.543C112.688 128.543 112.855 128.57 112.988 128.625L112.982 129.961ZM116.557 135.117C115.654 135.117 114.922 134.834 114.359 134.268C113.801 133.697 113.521 132.939 113.521 131.994V131.818C113.521 131.186 113.643 130.621 113.885 130.125C114.131 129.625 114.475 129.236 114.916 128.959C115.357 128.682 115.85 128.543 116.393 128.543C117.256 128.543 117.922 128.818 118.391 129.369C118.863 129.92 119.1 130.699 119.1 131.707V132.281H114.957C115 132.805 115.174 133.219 115.479 133.523C115.787 133.828 116.174 133.98 116.639 133.98C117.291 133.98 117.822 133.717 118.232 133.189L119 133.922C118.746 134.301 118.406 134.596 117.98 134.807C117.559 135.014 117.084 135.117 116.557 135.117ZM116.387 129.686C115.996 129.686 115.68 129.822 115.438 130.096C115.199 130.369 115.047 130.75 114.98 131.238H117.693V131.133C117.662 130.656 117.535 130.297 117.312 130.055C117.09 129.809 116.781 129.686 116.387 129.686ZM123.764 133.277C123.764 133.023 123.658 132.83 123.447 132.697C123.24 132.564 122.895 132.447 122.41 132.346C121.926 132.244 121.521 132.115 121.197 131.959C120.486 131.615 120.131 131.117 120.131 130.465C120.131 129.918 120.361 129.461 120.822 129.094C121.283 128.727 121.869 128.543 122.58 128.543C123.338 128.543 123.949 128.73 124.414 129.105C124.883 129.48 125.117 129.967 125.117 130.564H123.693C123.693 130.291 123.592 130.064 123.389 129.885C123.186 129.701 122.916 129.609 122.58 129.609C122.268 129.609 122.012 129.682 121.812 129.826C121.617 129.971 121.52 130.164 121.52 130.406C121.52 130.625 121.611 130.795 121.795 130.916C121.979 131.037 122.35 131.16 122.908 131.285C123.467 131.406 123.904 131.553 124.221 131.725C124.541 131.893 124.777 132.096 124.93 132.334C125.086 132.572 125.164 132.861 125.164 133.201C125.164 133.771 124.928 134.234 124.455 134.59C123.982 134.941 123.363 135.117 122.598 135.117C122.078 135.117 121.615 135.023 121.209 134.836C120.803 134.648 120.486 134.391 120.26 134.062C120.033 133.734 119.92 133.381 119.92 133.002H121.303C121.322 133.338 121.449 133.598 121.684 133.781C121.918 133.961 122.229 134.051 122.615 134.051C122.99 134.051 123.275 133.98 123.471 133.84C123.666 133.695 123.764 133.508 123.764 133.277ZM126.143 131.771C126.143 131.15 126.266 130.592 126.512 130.096C126.758 129.596 127.104 129.213 127.549 128.947C127.994 128.678 128.506 128.543 129.084 128.543C129.939 128.543 130.633 128.818 131.164 129.369C131.699 129.92 131.988 130.65 132.031 131.561L132.037 131.895C132.037 132.52 131.916 133.078 131.674 133.57C131.436 134.062 131.092 134.443 130.643 134.713C130.197 134.982 129.682 135.117 129.096 135.117C128.201 135.117 127.484 134.82 126.945 134.227C126.41 133.629 126.143 132.834 126.143 131.842V131.771ZM127.566 131.895C127.566 132.547 127.701 133.059 127.971 133.43C128.24 133.797 128.615 133.98 129.096 133.98C129.576 133.98 129.949 133.793 130.215 133.418C130.484 133.043 130.619 132.494 130.619 131.771C130.619 131.131 130.48 130.623 130.203 130.248C129.93 129.873 129.557 129.686 129.084 129.686C128.619 129.686 128.25 129.871 127.977 130.242C127.703 130.609 127.566 131.16 127.566 131.895ZM136.795 133.277C136.795 133.023 136.689 132.83 136.479 132.697C136.271 132.564 135.926 132.447 135.441 132.346C134.957 132.244 134.553 132.115 134.229 131.959C133.518 131.615 133.162 131.117 133.162 130.465C133.162 129.918 133.393 129.461 133.854 129.094C134.314 128.727 134.9 128.543 135.611 128.543C136.369 128.543 136.98 128.73 137.445 129.105C137.914 129.48 138.148 129.967 138.148 130.564H136.725C136.725 130.291 136.623 130.064 136.42 129.885C136.217 129.701 135.947 129.609 135.611 129.609C135.299 129.609 135.043 129.682 134.844 129.826C134.648 129.971 134.551 130.164 134.551 130.406C134.551 130.625 134.643 130.795 134.826 130.916C135.01 131.037 135.381 131.16 135.939 131.285C136.498 131.406 136.936 131.553 137.252 131.725C137.572 131.893 137.809 132.096 137.961 132.334C138.117 132.572 138.195 132.861 138.195 133.201C138.195 133.771 137.959 134.234 137.486 134.59C137.014 134.941 136.395 135.117 135.629 135.117C135.109 135.117 134.646 135.023 134.24 134.836C133.834 134.648 133.518 134.391 133.291 134.062C133.064 133.734 132.951 133.381 132.951 133.002H134.334C134.354 133.338 134.48 133.598 134.715 133.781C134.949 133.961 135.26 134.051 135.646 134.051C136.021 134.051 136.307 133.98 136.502 133.84C136.697 133.695 136.795 133.508 136.795 133.277Z" fill="#33404F"/>
<path d="M96.8496 164.356L99.2666 156.336H101.713L97.9995 167H95.707L92.0083 156.336H94.4473L96.8496 164.356ZM105.91 167.146C104.748 167.146 103.8 166.79 103.068 166.077C102.34 165.364 101.977 164.415 101.977 163.228V163.023C101.977 162.227 102.13 161.517 102.438 160.892C102.746 160.262 103.18 159.778 103.742 159.441C104.308 159.1 104.953 158.929 105.675 158.929C106.759 158.929 107.611 159.271 108.231 159.954C108.856 160.638 109.169 161.607 109.169 162.862V163.726H104.123C104.191 164.244 104.396 164.659 104.738 164.971C105.084 165.284 105.521 165.44 106.049 165.44C106.864 165.44 107.501 165.145 107.96 164.554L109 165.718C108.683 166.167 108.253 166.519 107.711 166.773C107.169 167.022 106.569 167.146 105.91 167.146ZM105.668 160.643C105.248 160.643 104.906 160.784 104.643 161.067C104.384 161.351 104.218 161.756 104.145 162.283H107.089V162.115C107.079 161.646 106.952 161.285 106.708 161.031C106.464 160.772 106.117 160.643 105.668 160.643ZM114.831 161.06C114.542 161.021 114.289 161.001 114.069 161.001C113.268 161.001 112.743 161.272 112.494 161.814V167H110.377V159.075H112.377L112.436 160.02C112.86 159.292 113.449 158.929 114.201 158.929C114.435 158.929 114.655 158.96 114.86 159.024L114.831 161.06Z" fill="white"/>
<rect x="63.498" y="153" width="82" height="30" rx="5" fill="#979797"/>
<path d="M93.4292 167.874H89.6333V170.718H94.0703V172H88.0273V162.758H94.0259V164.053H89.6333V166.604H93.4292V167.874ZM94.813 168.515C94.813 167.457 95.0584 166.609 95.5493 165.97C96.0402 165.326 96.6982 165.005 97.5234 165.005C98.2513 165.005 98.8395 165.259 99.2881 165.767V162.25H100.831V172H99.4341L99.3579 171.289C98.8966 171.848 98.2809 172.127 97.5107 172.127C96.7067 172.127 96.055 171.803 95.5557 171.156C95.0605 170.508 94.813 169.628 94.813 168.515ZM96.3555 168.648C96.3555 169.347 96.4888 169.893 96.7554 170.286C97.0262 170.675 97.4092 170.87 97.9043 170.87C98.5348 170.87 98.9961 170.589 99.2881 170.026V167.093C99.0046 166.543 98.5475 166.268 97.917 166.268C97.4176 166.268 97.0326 166.467 96.7617 166.865C96.4909 167.258 96.3555 167.853 96.3555 168.648ZM104.081 172H102.538V165.132H104.081V172ZM102.443 163.348C102.443 163.111 102.517 162.914 102.665 162.758C102.817 162.601 103.033 162.523 103.312 162.523C103.592 162.523 103.808 162.601 103.96 162.758C104.112 162.914 104.188 163.111 104.188 163.348C104.188 163.581 104.112 163.776 103.96 163.932C103.808 164.084 103.592 164.161 103.312 164.161C103.033 164.161 102.817 164.084 102.665 163.932C102.517 163.776 102.443 163.581 102.443 163.348ZM107.699 163.462V165.132H108.911V166.274H107.699V170.108C107.699 170.371 107.75 170.561 107.851 170.68C107.957 170.794 108.143 170.851 108.41 170.851C108.587 170.851 108.767 170.83 108.949 170.788V171.981C108.598 172.078 108.259 172.127 107.934 172.127C106.749 172.127 106.156 171.473 106.156 170.166V166.274H105.026V165.132H106.156V163.462H107.699ZM114.199 172C114.131 171.869 114.072 171.655 114.021 171.359C113.53 171.871 112.929 172.127 112.218 172.127C111.528 172.127 110.966 171.93 110.53 171.537C110.094 171.143 109.876 170.656 109.876 170.077C109.876 169.345 110.147 168.784 110.688 168.395C111.234 168.001 112.013 167.804 113.024 167.804H113.97V167.354C113.97 166.998 113.871 166.715 113.672 166.503C113.473 166.287 113.17 166.179 112.764 166.179C112.413 166.179 112.125 166.268 111.901 166.446C111.677 166.619 111.564 166.841 111.564 167.112H110.022C110.022 166.736 110.147 166.384 110.396 166.059C110.646 165.729 110.985 165.47 111.412 165.284C111.844 165.098 112.324 165.005 112.853 165.005C113.657 165.005 114.298 165.208 114.776 165.614C115.255 166.016 115.5 166.583 115.513 167.315V170.413C115.513 171.031 115.599 171.524 115.773 171.892V172H114.199ZM112.504 170.889C112.809 170.889 113.094 170.815 113.361 170.667C113.632 170.519 113.835 170.32 113.97 170.07V168.775H113.139C112.567 168.775 112.138 168.875 111.85 169.074C111.562 169.273 111.418 169.554 111.418 169.918C111.418 170.214 111.516 170.451 111.71 170.629C111.909 170.802 112.174 170.889 112.504 170.889ZM120.724 166.541C120.521 166.507 120.312 166.49 120.096 166.49C119.389 166.49 118.913 166.761 118.667 167.303V172H117.125V165.132H118.598L118.636 165.9C119.008 165.303 119.524 165.005 120.185 165.005C120.405 165.005 120.587 165.035 120.73 165.094L120.724 166.541Z" fill="#1F3044"/>
<circle cx="104.499" cy="79" r="12" fill="#34404F"/>
<path d="M101.315 78.067C101.76 78.067 102.195 77.935 102.565 77.6879C102.935 77.4407 103.223 77.0894 103.393 76.6784C103.563 76.2674 103.608 75.8151 103.521 75.3787C103.434 74.9424 103.22 74.5416 102.906 74.227C102.591 73.9124 102.19 73.6982 101.754 73.6114C101.318 73.5246 100.865 73.5692 100.454 73.7394C100.043 73.9097 99.6919 74.198 99.4447 74.5679C99.1975 74.9378 99.0656 75.3727 99.0656 75.8176C99.0663 76.414 99.3035 76.9857 99.7252 77.4074C100.147 77.8291 100.719 78.0663 101.315 78.067ZM101.315 75.0678C101.463 75.0678 101.608 75.1118 101.732 75.1941C101.855 75.2765 101.951 75.3936 102.008 75.5306C102.064 75.6677 102.079 75.8184 102.05 75.9639C102.021 76.1093 101.95 76.2429 101.845 76.3478C101.74 76.4526 101.607 76.524 101.461 76.553C101.316 76.5819 101.165 76.5671 101.028 76.5103C100.891 76.4536 100.774 76.3574 100.692 76.2341C100.609 76.1108 100.565 75.9659 100.565 75.8176C100.565 75.6188 100.644 75.4281 100.785 75.2875C100.926 75.147 101.116 75.0679 101.315 75.0678ZM107.677 79.9298C107.232 79.9298 106.797 80.0617 106.427 80.3088C106.057 80.556 105.769 80.9073 105.598 81.3183C105.428 81.7294 105.384 82.1816 105.47 82.618C105.557 83.0543 105.771 83.4551 106.086 83.7697C106.401 84.0843 106.801 84.2985 107.238 84.3853C107.674 84.4721 108.126 84.4276 108.537 84.2573C108.948 84.0871 109.3 83.7988 109.547 83.4288C109.794 83.0589 109.926 82.624 109.926 82.1791C109.925 81.5828 109.688 81.011 109.266 80.5893C108.845 80.1676 108.273 79.9304 107.677 79.9298ZM107.677 82.9289C107.528 82.9289 107.383 82.885 107.26 82.8026C107.137 82.7202 107.041 82.6031 106.984 82.4661C106.927 82.3291 106.912 82.1783 106.941 82.0329C106.97 81.8874 107.042 81.7538 107.146 81.649C107.251 81.5441 107.385 81.4727 107.53 81.4438C107.676 81.4148 107.827 81.4297 107.964 81.4864C108.101 81.5432 108.218 81.6393 108.3 81.7626C108.382 81.8859 108.426 82.0309 108.426 82.1791C108.426 82.378 108.347 82.5686 108.207 82.7092C108.066 82.8498 107.875 82.9288 107.677 82.9289ZM110.274 73.2197C110.205 73.15 110.122 73.0948 110.031 73.0571C109.94 73.0194 109.843 73 109.744 73C109.646 73 109.548 73.0194 109.457 73.0571C109.366 73.0948 109.284 73.15 109.214 73.2197L98.7171 83.7168C98.6467 83.7863 98.5908 83.869 98.5526 83.9601C98.5143 84.0513 98.4945 84.1491 98.4941 84.2479C98.4938 84.3468 98.5131 84.4447 98.5508 84.5361C98.5885 84.6275 98.6438 84.7105 98.7137 84.7804C98.7836 84.8503 98.8667 84.9057 98.9581 84.9434C99.0494 84.9811 99.1474 85.0003 99.2462 85C99.3451 84.9997 99.4429 84.9798 99.534 84.9416C99.6252 84.9033 99.7079 84.8474 99.7773 84.7771L110.274 74.2799C110.344 74.2103 110.399 74.1276 110.437 74.0367C110.475 73.9457 110.494 73.8482 110.494 73.7498C110.494 73.6513 110.475 73.5538 110.437 73.4629C110.399 73.3719 110.344 73.2893 110.274 73.2197Z" fill="#FF9878"/>
</g>
<defs>
<filter id="filter0_d" x="0" y="0" width="208.997" height="249" filterUnits="userSpaceOnUse" color-interpolation-filters="sRGB">
<feFlood flood-opacity="0" result="BackgroundImageFix"/>
<feColorMatrix in="SourceAlpha" type="matrix" values="0 0 0 0 0 0 0 0 0 0 0 0 0 0 0 0 0 0 127 0"/>
<feOffset/>
<feGaussianBlur stdDeviation="25"/>
<feColorMatrix type="matrix" values="0 0 0 0 0.2 0 0 0 0 0.25098 0 0 0 0 0.309804 0 0 0 0.15 0"/>
<feBlend mode="normal" in2="BackgroundImageFix" result="effect1_dropShadow"/>
<feBlend mode="normal" in="SourceGraphic" in2="effect1_dropShadow" result="shape"/>
</filter>
</defs>
</svg>
