<svg width="177" height="249" viewBox="0 0 177 249" fill="none" xmlns="http://www.w3.org/2000/svg">
<g filter="url(#filter0_d)">
<path d="M18 58C18 53.5817 21.5817 50 26 50H119C123.418 50 127 53.5817 127 58V191C127 195.418 123.418 199 119 199H26C21.5817 199 18 195.418 18 191V58Z" fill="white"/>
<path d="M39.2305 118.713H37.5781V122H36.0957V113.469H39.0957C40.0801 113.469 40.8398 113.689 41.375 114.131C41.9102 114.572 42.1777 115.211 42.1777 116.047C42.1777 116.617 42.0391 117.096 41.7617 117.482C41.4883 117.865 41.1055 118.16 40.6133 118.367L42.5293 121.924V122H40.9414L39.2305 118.713ZM37.5781 117.523H39.1016C39.6016 117.523 39.9922 117.398 40.2734 117.148C40.5547 116.895 40.6953 116.549 40.6953 116.111C40.6953 115.654 40.5645 115.301 40.3027 115.051C40.0449 114.801 39.6582 114.672 39.1426 114.664H37.5781V117.523ZM46.2383 122.117C45.3359 122.117 44.6035 121.834 44.041 121.268C43.4824 120.697 43.2031 119.939 43.2031 118.994V118.818C43.2031 118.186 43.3242 117.621 43.5664 117.125C43.8125 116.625 44.1562 116.236 44.5977 115.959C45.0391 115.682 45.5312 115.543 46.0742 115.543C46.9375 115.543 47.6035 115.818 48.0723 116.369C48.5449 116.92 48.7812 117.699 48.7812 118.707V119.281H44.6387C44.6816 119.805 44.8555 120.219 45.1602 120.523C45.4688 120.828 45.8555 120.98 46.3203 120.98C46.9727 120.98 47.5039 120.717 47.9141 120.189L48.6816 120.922C48.4277 121.301 48.0879 121.596 47.6621 121.807C47.2402 122.014 46.7656 122.117 46.2383 122.117ZM46.0684 116.686C45.6777 116.686 45.3613 116.822 45.1191 117.096C44.8809 117.369 44.7285 117.75 44.6621 118.238H47.375V118.133C47.3438 117.656 47.2168 117.297 46.9941 117.055C46.7715 116.809 46.4629 116.686 46.0684 116.686ZM49.625 118.783C49.625 117.807 49.8516 117.023 50.3047 116.434C50.7578 115.84 51.3652 115.543 52.127 115.543C52.7988 115.543 53.3418 115.777 53.7559 116.246V113H55.1797V122H53.8906L53.8203 121.344C53.3945 121.859 52.8262 122.117 52.1152 122.117C51.373 122.117 50.7715 121.818 50.3105 121.221C49.8535 120.623 49.625 119.811 49.625 118.783ZM51.0488 118.906C51.0488 119.551 51.1719 120.055 51.418 120.418C51.668 120.777 52.0215 120.957 52.4785 120.957C53.0605 120.957 53.4863 120.697 53.7559 120.178V117.471C53.4941 116.963 53.0723 116.709 52.4902 116.709C52.0293 116.709 51.6738 116.893 51.4238 117.26C51.1738 117.623 51.0488 118.172 51.0488 118.906ZM56.3984 118.771C56.3984 118.15 56.5215 117.592 56.7676 117.096C57.0137 116.596 57.3594 116.213 57.8047 115.947C58.25 115.678 58.7617 115.543 59.3398 115.543C60.1953 115.543 60.8887 115.818 61.4199 116.369C61.9551 116.92 62.2441 117.65 62.2871 118.561L62.293 118.895C62.293 119.52 62.1719 120.078 61.9297 120.57C61.6914 121.062 61.3477 121.443 60.8984 121.713C60.4531 121.982 59.9375 122.117 59.3516 122.117C58.457 122.117 57.7402 121.82 57.2012 121.227C56.666 120.629 56.3984 119.834 56.3984 118.842V118.771ZM57.8223 118.895C57.8223 119.547 57.957 120.059 58.2266 120.43C58.4961 120.797 58.8711 120.98 59.3516 120.98C59.832 120.98 60.2051 120.793 60.4707 120.418C60.7402 120.043 60.875 119.494 60.875 118.771C60.875 118.131 60.7363 117.623 60.459 117.248C60.1855 116.873 59.8125 116.686 59.3398 116.686C58.875 116.686 58.5059 116.871 58.2324 117.242C57.959 117.609 57.8223 118.16 57.8223 118.895ZM64.8184 115.66L64.8594 116.393C65.3281 115.826 65.9434 115.543 66.7051 115.543C68.0254 115.543 68.6973 116.299 68.7207 117.811V122H67.2969V117.893C67.2969 117.49 67.209 117.193 67.0332 117.002C66.8613 116.807 66.5781 116.709 66.1836 116.709C65.6094 116.709 65.1816 116.969 64.9004 117.488V122H63.4766V115.66H64.8184ZM69.9102 118.783C69.9102 117.807 70.1367 117.023 70.5898 116.434C71.043 115.84 71.6504 115.543 72.4121 115.543C73.084 115.543 73.627 115.777 74.041 116.246V113H75.4648V122H74.1758L74.1055 121.344C73.6797 121.859 73.1113 122.117 72.4004 122.117C71.6582 122.117 71.0566 121.818 70.5957 121.221C70.1387 120.623 69.9102 119.811 69.9102 118.783ZM71.334 118.906C71.334 119.551 71.457 120.055 71.7031 120.418C71.9531 120.777 72.3066 120.957 72.7637 120.957C73.3457 120.957 73.7715 120.697 74.041 120.178V117.471C73.7793 116.963 73.3574 116.709 72.7754 116.709C72.3145 116.709 71.959 116.893 71.709 117.26C71.459 117.623 71.334 118.172 71.334 118.906ZM79.7422 122.117C78.8398 122.117 78.1074 121.834 77.5449 121.268C76.9863 120.697 76.707 119.939 76.707 118.994V118.818C76.707 118.186 76.8281 117.621 77.0703 117.125C77.3164 116.625 77.6602 116.236 78.1016 115.959C78.543 115.682 79.0352 115.543 79.5781 115.543C80.4414 115.543 81.1074 115.818 81.5762 116.369C82.0488 116.92 82.2852 117.699 82.2852 118.707V119.281H78.1426C78.1855 119.805 78.3594 120.219 78.6641 120.523C78.9727 120.828 79.3594 120.98 79.8242 120.98C80.4766 120.98 81.0078 120.717 81.418 120.189L82.1855 120.922C81.9316 121.301 81.5918 121.596 81.166 121.807C80.7441 122.014 80.2695 122.117 79.7422 122.117ZM79.5723 116.686C79.1816 116.686 78.8652 116.822 78.623 117.096C78.3848 117.369 78.2324 117.75 78.166 118.238H80.8789V118.133C80.8477 117.656 80.7207 117.297 80.498 117.055C80.2754 116.809 79.9668 116.686 79.5723 116.686ZM83.1289 118.771C83.1289 118.15 83.252 117.592 83.498 117.096C83.7441 116.596 84.0898 116.213 84.5352 115.947C84.9805 115.678 85.4922 115.543 86.0703 115.543C86.9258 115.543 87.6191 115.818 88.1504 116.369C88.6855 116.92 88.9746 117.65 89.0176 118.561L89.0234 118.895C89.0234 119.52 88.9023 120.078 88.6602 120.57C88.4219 121.062 88.0781 121.443 87.6289 121.713C87.1836 121.982 86.668 122.117 86.082 122.117C85.1875 122.117 84.4707 121.82 83.9316 121.227C83.3965 120.629 83.1289 119.834 83.1289 118.842V118.771ZM84.5527 118.895C84.5527 119.547 84.6875 120.059 84.957 120.43C85.2266 120.797 85.6016 120.98 86.082 120.98C86.5625 120.98 86.9355 120.793 87.2012 120.418C87.4707 120.043 87.6055 119.494 87.6055 118.771C87.6055 118.131 87.4668 117.623 87.1895 117.248C86.916 116.873 86.543 116.686 86.0703 116.686C85.6055 116.686 85.2363 116.871 84.9629 117.242C84.6895 117.609 84.5527 118.16 84.5527 118.895ZM93.3535 122V113.469H95.873C96.627 113.469 97.2949 113.637 97.877 113.973C98.4629 114.309 98.916 114.785 99.2363 115.402C99.5566 116.02 99.7168 116.727 99.7168 117.523V117.951C99.7168 118.76 99.5547 119.471 99.2305 120.084C98.9102 120.697 98.4512 121.17 97.8535 121.502C97.2598 121.834 96.5781 122 95.8086 122H93.3535ZM94.8359 114.664V120.816H95.8027C96.5801 120.816 97.1758 120.574 97.5898 120.09C98.0078 119.602 98.2207 118.902 98.2285 117.992V117.518C98.2285 116.592 98.0273 115.885 97.625 115.396C97.2227 114.908 96.6387 114.664 95.873 114.664H94.8359ZM103.848 122.117C102.945 122.117 102.213 121.834 101.65 121.268C101.092 120.697 100.812 119.939 100.812 118.994V118.818C100.812 118.186 100.934 117.621 101.176 117.125C101.422 116.625 101.766 116.236 102.207 115.959C102.648 115.682 103.141 115.543 103.684 115.543C104.547 115.543 105.213 115.818 105.682 116.369C106.154 116.92 106.391 117.699 106.391 118.707V119.281H102.248C102.291 119.805 102.465 120.219 102.77 120.523C103.078 120.828 103.465 120.98 103.93 120.98C104.582 120.98 105.113 120.717 105.523 120.189L106.291 120.922C106.037 121.301 105.697 121.596 105.271 121.807C104.85 122.014 104.375 122.117 103.848 122.117ZM103.678 116.686C103.287 116.686 102.971 116.822 102.729 117.096C102.49 117.369 102.338 117.75 102.271 118.238H104.984V118.133C104.953 117.656 104.826 117.297 104.604 117.055C104.381 116.809 104.072 116.686 103.678 116.686ZM38.0996 127.469L40.5605 134.008L43.0156 127.469H44.9316V136H43.4551V133.188L43.6016 129.426L41.082 136H40.0215L37.5078 129.432L37.6543 133.188V136H36.1777V127.469H38.0996ZM48.0664 136H46.6426V129.66H48.0664V136ZM46.5547 128.014C46.5547 127.795 46.623 127.613 46.7598 127.469C46.9004 127.324 47.0996 127.252 47.3574 127.252C47.6152 127.252 47.8145 127.324 47.9551 127.469C48.0957 127.613 48.166 127.795 48.166 128.014C48.166 128.229 48.0957 128.408 47.9551 128.553C47.8145 128.693 47.6152 128.764 47.3574 128.764C47.0996 128.764 46.9004 128.693 46.7598 128.553C46.623 128.408 46.5547 128.229 46.5547 128.014ZM53.1758 134.277C53.1758 134.023 53.0703 133.83 52.8594 133.697C52.6523 133.564 52.3066 133.447 51.8223 133.346C51.3379 133.244 50.9336 133.115 50.6094 132.959C49.8984 132.615 49.543 132.117 49.543 131.465C49.543 130.918 49.7734 130.461 50.2344 130.094C50.6953 129.727 51.2812 129.543 51.9922 129.543C52.75 129.543 53.3613 129.73 53.8262 130.105C54.2949 130.48 54.5293 130.967 54.5293 131.564H53.1055C53.1055 131.291 53.0039 131.064 52.8008 130.885C52.5977 130.701 52.3281 130.609 51.9922 130.609C51.6797 130.609 51.4238 130.682 51.2246 130.826C51.0293 130.971 50.9316 131.164 50.9316 131.406C50.9316 131.625 51.0234 131.795 51.207 131.916C51.3906 132.037 51.7617 132.16 52.3203 132.285C52.8789 132.406 53.3164 132.553 53.6328 132.725C53.9531 132.893 54.1895 133.096 54.3418 133.334C54.498 133.572 54.5762 133.861 54.5762 134.201C54.5762 134.771 54.3398 135.234 53.8672 135.59C53.3945 135.941 52.7754 136.117 52.0098 136.117C51.4902 136.117 51.0273 136.023 50.6211 135.836C50.2148 135.648 49.8984 135.391 49.6719 135.062C49.4453 134.734 49.332 134.381 49.332 134.002H50.7148C50.7344 134.338 50.8613 134.598 51.0957 134.781C51.3301 134.961 51.6406 135.051 52.0273 135.051C52.4023 135.051 52.6875 134.98 52.8828 134.84C53.0781 134.695 53.1758 134.508 53.1758 134.277ZM65.457 133.223C65.3711 134.133 65.0352 134.844 64.4492 135.355C63.8633 135.863 63.084 136.117 62.1113 136.117C61.4316 136.117 60.832 135.957 60.3125 135.637C59.7969 135.312 59.3984 134.854 59.1172 134.26C58.8359 133.666 58.6895 132.977 58.6777 132.191V131.395C58.6777 130.59 58.8203 129.881 59.1055 129.268C59.3906 128.654 59.7988 128.182 60.3301 127.85C60.8652 127.518 61.4824 127.352 62.1816 127.352C63.123 127.352 63.8809 127.607 64.4551 128.119C65.0293 128.631 65.3633 129.354 65.457 130.287H63.9805C63.9102 129.674 63.7305 129.232 63.4414 128.963C63.1562 128.689 62.7363 128.553 62.1816 128.553C61.5371 128.553 61.041 128.789 60.6934 129.262C60.3496 129.73 60.1738 130.42 60.166 131.33V132.086C60.166 133.008 60.3301 133.711 60.6582 134.195C60.9902 134.68 61.4746 134.922 62.1113 134.922C62.6934 134.922 63.1309 134.791 63.4238 134.529C63.7168 134.268 63.9023 133.832 63.9805 133.223H65.457ZM66.3828 132.771C66.3828 132.15 66.5059 131.592 66.752 131.096C66.998 130.596 67.3438 130.213 67.7891 129.947C68.2344 129.678 68.7461 129.543 69.3242 129.543C70.1797 129.543 70.873 129.818 71.4043 130.369C71.9395 130.92 72.2285 131.65 72.2715 132.561L72.2773 132.895C72.2773 133.52 72.1562 134.078 71.9141 134.57C71.6758 135.062 71.332 135.443 70.8828 135.713C70.4375 135.982 69.9219 136.117 69.3359 136.117C68.4414 136.117 67.7246 135.82 67.1855 135.227C66.6504 134.629 66.3828 133.834 66.3828 132.842V132.771ZM67.8066 132.895C67.8066 133.547 67.9414 134.059 68.2109 134.43C68.4805 134.797 68.8555 134.98 69.3359 134.98C69.8164 134.98 70.1895 134.793 70.4551 134.418C70.7246 134.043 70.8594 133.494 70.8594 132.771C70.8594 132.131 70.7207 131.623 70.4434 131.248C70.1699 130.873 69.7969 130.686 69.3242 130.686C68.8594 130.686 68.4902 130.871 68.2168 131.242C67.9434 131.609 67.8066 132.16 67.8066 132.895ZM74.8203 129.66L74.8613 130.322C75.3066 129.803 75.916 129.543 76.6895 129.543C77.5371 129.543 78.1172 129.867 78.4297 130.516C78.8906 129.867 79.5391 129.543 80.375 129.543C81.0742 129.543 81.5938 129.736 81.9336 130.123C82.2773 130.51 82.4531 131.08 82.4609 131.834V136H81.0371V131.875C81.0371 131.473 80.9492 131.178 80.7734 130.99C80.5977 130.803 80.3066 130.709 79.9004 130.709C79.5762 130.709 79.3105 130.797 79.1035 130.973C78.9004 131.145 78.7578 131.371 78.6758 131.652L78.6816 136H77.2578V131.828C77.2383 131.082 76.8574 130.709 76.1152 130.709C75.5449 130.709 75.1406 130.941 74.9023 131.406V136H73.4785V129.66H74.8203ZM89.4746 132.895C89.4746 133.875 89.252 134.658 88.8066 135.244C88.3613 135.826 87.7637 136.117 87.0137 136.117C86.3184 136.117 85.7617 135.889 85.3438 135.432V138.438H83.9199V129.66H85.2324L85.291 130.305C85.709 129.797 86.2773 129.543 86.9961 129.543C87.7695 129.543 88.375 129.832 88.8125 130.41C89.2539 130.984 89.4746 131.783 89.4746 132.807V132.895ZM88.0566 132.771C88.0566 132.139 87.9297 131.637 87.6758 131.266C87.4258 130.895 87.0664 130.709 86.5977 130.709C86.0156 130.709 85.5977 130.949 85.3438 131.43V134.242C85.6016 134.734 86.0234 134.98 86.6094 134.98C87.0625 134.98 87.416 134.799 87.6699 134.436C87.9277 134.068 88.0566 133.514 88.0566 132.771ZM94.0039 130.961C93.8164 130.93 93.623 130.914 93.4238 130.914C92.7715 130.914 92.332 131.164 92.1055 131.664V136H90.6816V129.66H92.041L92.0762 130.369C92.4199 129.818 92.8965 129.543 93.5059 129.543C93.709 129.543 93.877 129.57 94.0098 129.625L94.0039 130.961ZM98.5156 136C98.4531 135.879 98.3984 135.682 98.3516 135.408C97.8984 135.881 97.3438 136.117 96.6875 136.117C96.0508 136.117 95.5312 135.936 95.1289 135.572C94.7266 135.209 94.5254 134.76 94.5254 134.225C94.5254 133.549 94.7754 133.031 95.2754 132.672C95.7793 132.309 96.498 132.127 97.4316 132.127H98.3047V131.711C98.3047 131.383 98.2129 131.121 98.0293 130.926C97.8457 130.727 97.5664 130.627 97.1914 130.627C96.8672 130.627 96.6016 130.709 96.3945 130.873C96.1875 131.033 96.084 131.238 96.084 131.488H94.6602C94.6602 131.141 94.7754 130.816 95.0059 130.516C95.2363 130.211 95.5488 129.973 95.9434 129.801C96.3418 129.629 96.7852 129.543 97.2734 129.543C98.0156 129.543 98.6074 129.73 99.0488 130.105C99.4902 130.477 99.7168 131 99.7285 131.676V134.535C99.7285 135.105 99.8086 135.561 99.9688 135.9V136H98.5156ZM96.9512 134.975C97.2324 134.975 97.4961 134.906 97.7422 134.77C97.9922 134.633 98.1797 134.449 98.3047 134.219V133.023H97.5371C97.0098 133.023 96.6133 133.115 96.3477 133.299C96.082 133.482 95.9492 133.742 95.9492 134.078C95.9492 134.352 96.0391 134.57 96.2188 134.734C96.4023 134.895 96.6465 134.975 96.9512 134.975ZM104.773 134.277C104.773 134.023 104.668 133.83 104.457 133.697C104.25 133.564 103.904 133.447 103.42 133.346C102.936 133.244 102.531 133.115 102.207 132.959C101.496 132.615 101.141 132.117 101.141 131.465C101.141 130.918 101.371 130.461 101.832 130.094C102.293 129.727 102.879 129.543 103.59 129.543C104.348 129.543 104.959 129.73 105.424 130.105C105.893 130.48 106.127 130.967 106.127 131.564H104.703C104.703 131.291 104.602 131.064 104.398 130.885C104.195 130.701 103.926 130.609 103.59 130.609C103.277 130.609 103.021 130.682 102.822 130.826C102.627 130.971 102.529 131.164 102.529 131.406C102.529 131.625 102.621 131.795 102.805 131.916C102.988 132.037 103.359 132.16 103.918 132.285C104.477 132.406 104.914 132.553 105.23 132.725C105.551 132.893 105.787 133.096 105.939 133.334C106.096 133.572 106.174 133.861 106.174 134.201C106.174 134.771 105.938 135.234 105.465 135.59C104.992 135.941 104.373 136.117 103.607 136.117C103.088 136.117 102.625 136.023 102.219 135.836C101.812 135.648 101.496 135.391 101.27 135.062C101.043 134.734 100.93 134.381 100.93 134.002H102.312C102.332 134.338 102.459 134.598 102.693 134.781C102.928 134.961 103.238 135.051 103.625 135.051C104 135.051 104.285 134.98 104.48 134.84C104.676 134.695 104.773 134.508 104.773 134.277Z" fill="#33404F"/>
<rect x="31" y="154" width="82" height="30" rx="5" fill="#F19174"/>
<path d="M65.8506 169.988L68.1992 162.758H69.9639L66.6377 172H65.0825L61.769 162.758H63.5273L65.8506 169.988ZM73.6074 172.127C72.6299 172.127 71.8364 171.82 71.2271 171.207C70.6219 170.589 70.3193 169.768 70.3193 168.744V168.553C70.3193 167.868 70.4505 167.256 70.7129 166.719C70.9795 166.177 71.3519 165.756 71.8301 165.456C72.3083 165.155 72.8415 165.005 73.4297 165.005C74.3649 165.005 75.0864 165.303 75.5942 165.9C76.1063 166.497 76.3623 167.341 76.3623 168.433V169.055H71.8745C71.9211 169.622 72.1094 170.07 72.4395 170.4C72.7738 170.73 73.1927 170.896 73.6963 170.896C74.403 170.896 74.9785 170.61 75.4229 170.039L76.2544 170.832C75.9793 171.243 75.6112 171.562 75.1499 171.791C74.6929 172.015 74.1787 172.127 73.6074 172.127ZM73.4233 166.243C73.0002 166.243 72.6574 166.391 72.395 166.687C72.1369 166.983 71.9718 167.396 71.8999 167.925H74.8389V167.811C74.805 167.294 74.6675 166.905 74.4263 166.643C74.1851 166.376 73.8507 166.243 73.4233 166.243ZM81.1611 166.541C80.958 166.507 80.7485 166.49 80.5327 166.49C79.826 166.49 79.3499 166.761 79.1045 167.303V172H77.562V165.132H79.0347L79.0728 165.9C79.4451 165.303 79.9614 165.005 80.6216 165.005C80.8416 165.005 81.0236 165.035 81.1675 165.094L81.1611 166.541Z" fill="#1F3044"/>
<path d="M80.3244 79.1558H71.9555V70.8648C71.9555 70.1541 71.4773 69.6804 70.76 69.6804C64.7822 69.6804 60 74.4181 60 80.3402C60 86.2623 64.7822 91 70.76 91C76.7378 91 81.52 86.2623 81.52 80.3402C81.52 79.6295 81.0417 79.1558 80.3244 79.1558ZM71.9555 88.5127C67.4124 89.2234 63.1084 86.0254 62.5107 81.5246C61.7933 77.0238 65.0213 72.7599 69.5644 72.1677V80.3402C69.5644 81.0509 70.0427 81.5246 70.76 81.5246H79.0093C78.5311 85.1963 75.6618 88.039 71.9555 88.5127ZM75.5422 67.3115C74.8249 67.3115 74.3466 67.7853 74.3466 68.4959V75.6025C74.3466 76.3132 74.8249 76.7869 75.5422 76.7869H82.7155C83.4328 76.7869 83.9111 76.3132 83.9111 75.6025C83.9111 70.9832 80.2049 67.3115 75.5422 67.3115ZM76.7378 74.4181V69.7988C79.1289 70.2726 80.9222 72.0492 81.4004 74.4181H76.7378Z" fill="#33404F"/>
<path d="M80.3244 79.1558H71.9555V70.8648C71.9555 70.1541 71.4773 69.6804 70.76 69.6804C64.7822 69.6804 60 74.4181 60 80.3402C60 86.2623 64.7822 91 70.76 91C76.7378 91 81.52 86.2623 81.52 80.3402C81.52 79.6295 81.0417 79.1558 80.3244 79.1558ZM71.9555 88.5127C67.4124 89.2234 63.1084 86.0254 62.5107 81.5246C61.7933 77.0238 65.0213 72.7599 69.5644 72.1677V80.3402C69.5644 81.0509 70.0427 81.5246 70.76 81.5246H79.0093C78.5311 85.1963 75.6618 88.039 71.9555 88.5127ZM75.5422 67.3115C74.8249 67.3115 74.3466 67.7853 74.3466 68.4959V75.6025C74.3466 76.3132 74.8249 76.7869 75.5422 76.7869H82.7155C83.4328 76.7869 83.9111 76.3132 83.9111 75.6025C83.9111 70.9832 80.2049 67.3115 75.5422 67.3115ZM76.7378 74.4181V69.7988C79.1289 70.2726 80.9222 72.0492 81.4004 74.4181H76.7378Z" fill="#33404F"/>
<path d="M71.9555 88.5127C67.4124 89.2234 63.1084 86.0254 62.5107 81.5246C61.7933 77.0238 65.0213 72.7599 69.5644 72.1677V80.3402C69.5644 81.0509 70.0427 81.5246 70.76 81.5246H79.0093C78.5311 85.1963 75.6618 88.039 71.9555 88.5127Z" fill="#33404F"/>
<path d="M75.3467 76.7869C74.7944 76.7869 74.3467 76.3392 74.3467 75.7869V68.0258C74.3467 67.5985 74.6183 67.209 75.0363 67.1207C80.7536 65.9127 85.4932 74.1145 83.5614 76.5377C83.4193 76.7158 83.1891 76.7869 82.9613 76.7869H75.3467Z" fill="#F19174"/>
</g>
<defs>
<filter id="filter0_d" x="-32" y="0" width="209" height="249" filterUnits="userSpaceOnUse" color-interpolation-filters="sRGB">
<feFlood flood-opacity="0" result="BackgroundImageFix"/>
<feColorMatrix in="SourceAlpha" type="matrix" values="0 0 0 0 0 0 0 0 0 0 0 0 0 0 0 0 0 0 127 0"/>
<feOffset/>
<feGaussianBlur stdDeviation="25"/>
<feColorMatrix type="matrix" values="0 0 0 0 0.2 0 0 0 0 0.25098 0 0 0 0 0.309804 0 0 0 0.15 0"/>
<feBlend mode="normal" in2="BackgroundImageFix" result="effect1_dropShadow"/>
<feBlend mode="normal" in="SourceGraphic" in2="effect1_dropShadow" result="shape"/>
</filter>
</defs>
</svg>
