<svg width="414" height="887" viewBox="0 0 414 887" fill="none" xmlns="http://www.w3.org/2000/svg">
<g opacity="0.15">
<path d="M54.8635 -547.385C137.804 -547.385 220.744 -547.385 303.694 -547.385C305.548 -542.863 306.976 -536.814 309.336 -534.08C318.329 -523.75 327.272 -512.636 336.88 -505.26C352.1 -493.563 367.716 -483.373 384.324 -483.152C389.936 -483.072 393.605 -490.227 393.833 -501.602C393.942 -506.888 393.595 -512.254 393.357 -517.56C392.91 -527.508 392.405 -537.457 391.919 -547.385C407.119 -547.385 422.319 -547.385 437.519 -547.385C438.51 -543.707 439.175 -539.386 440.543 -536.452C448.148 -520.152 457.27 -507.973 467.581 -500.276C478.389 -492.217 489.434 -485.886 501.323 -488.559C515.779 -491.794 528.579 -503.873 541.241 -516.977C549.56 -525.579 558.206 -525.74 566.733 -520.474C578.462 -513.239 587.961 -497.985 597.272 -482.308C610.637 -459.799 621.762 -433.491 629.466 -401.917C644.25 -341.282 646.024 -276.688 642.257 -210.928C640.759 -184.76 637.854 -158.934 636.079 -132.807C634.443 -108.891 638.37 -86.3814 651.815 -75.8903C667.203 -63.8718 683.414 -63.6708 699.477 -61.1787C706.209 -60.1336 712.961 -59.7317 719.664 -58.2444C732.296 -55.4508 744.561 -58.5861 754.139 -75.8903C763.42 -92.6519 772.135 -111.343 779.581 -131.501C800.403 -187.875 824.537 -238.1 848.561 -288.626C854.956 -302.071 861.441 -315.597 866.964 -330.489C886.229 -382.442 908.31 -429.25 930.242 -476.42C939.87 -497.14 948.119 -520.193 953.027 -547.385C956.002 -547.385 958.976 -547.385 961.951 -547.385C961.951 -518.585 961.951 -489.785 961.951 -460.985C960.701 -459.457 959.333 -458.251 958.233 -456.362C952.958 -447.298 947.881 -437.731 942.507 -428.908C924.343 -399.083 909.212 -363.41 894.141 -327.515C885.287 -306.412 876.115 -285.651 866.22 -266.598C851.734 -238.703 837.05 -211.329 825.201 -178.51C814.403 -148.624 806.551 -115.965 805.47 -78.3422C804.389 -40.8598 810.764 -7.21607 820.214 24.0963C837.734 82.1388 858.595 135.257 880.597 186.426C899.783 231.043 916.609 278.575 929.508 331.734C934.248 351.249 939.265 370.502 943.875 390.158C947.554 405.814 950.885 421.792 954.237 437.75C956.874 450.331 955.426 462.289 951.748 472.84C948.149 483.191 944.322 493.36 940.008 502.465C928.041 527.748 917.878 555.543 910.154 586.895C899.852 628.679 892.475 672.552 887.101 717.973C882.858 753.788 881.678 789.763 887.26 824.894C896.461 882.816 906.575 940.155 916.361 997.695C919.901 1018.54 923.619 1039.24 927.258 1060C919.653 1060 912.058 1060 904.453 1060C898.811 1031.16 894.002 1001.47 887.319 973.658C877.275 931.794 862.571 896.502 846.122 864.064C841.442 854.839 837.377 843.967 833.817 832.812C827.323 812.493 823.605 790.145 824.358 765.464C825.211 737.408 832.479 715.722 841.611 696.248C855.224 667.206 867.529 635.974 875.6 599.396C885.019 556.708 893.635 513.177 901.458 469.182C908.944 427.057 907.388 384.41 899.505 342.687C890.661 295.939 875.322 259.482 855.71 230.059C836.782 201.66 820.323 168.077 804.429 133.067C795.426 113.23 786.363 93.0318 776.042 76.2099C755.983 43.5309 741.725 44.7166 722.034 65.8193C703.909 85.2539 692.288 117.109 684.465 154.732C677.435 188.577 673.559 223.969 672.101 260.688C670.505 300.803 676.266 332.437 695.471 345.239C706.913 352.856 718.365 360.494 729.649 369.075C744.918 380.692 756.876 399.885 760.891 433.69C765.908 475.895 765.204 517.98 758.224 559.201C755.21 577.007 749.538 590.614 740.486 597.286C734.467 601.728 728.419 601.909 722.034 600.2C704.732 595.578 689.909 580.685 676.979 557.613C668.323 542.158 663.009 521.839 659.4 500.193C655.92 479.332 653.044 457.888 650.932 436.282C647.125 397.433 637.448 369.839 618.49 355.951C606.255 346.988 594.277 336.235 582.587 324.659C565.662 307.898 552.177 283.197 544.503 247.524C534.608 201.459 532.803 153.185 536.224 103.965C537.81 81.154 540.289 58.5842 542.292 35.8937C544.543 10.2489 537.563 -8.80382 524.931 -12.9842C510.95 -17.6268 498.328 -9.9896 486.747 4.66171C475.414 19.0115 464.815 35.6928 453.551 50.2838C434.019 75.5668 413.197 92.9916 389.291 89.6353C382.281 88.6505 376.818 80.2094 376.243 67.0252C375.906 59.4282 375.827 51.4494 376.6 44.0534C378.781 23.1316 381.31 2.35045 383.977 -18.3302C389.49 -61.0581 395.409 -103.485 404.263 -144.102C410.787 -174.068 416.528 -204.637 416.945 -238.341C417.381 -273.673 413.068 -305.809 403.153 -334.73C388.875 -376.373 368.995 -402.219 345.219 -415.523C329.067 -424.567 312.875 -425.11 297.804 -406.62C287.691 -394.22 281.444 -374.604 275.664 -354.788C263.577 -313.346 252.334 -270.899 240.098 -229.639C229.311 -193.221 214.755 -163.115 198.831 -135.722C186.527 -114.538 173.706 -94.4406 162.066 -71.8507C147.838 -44.2363 135.731 -12.8234 127.204 23.5939C120.621 51.6906 114.265 80.0085 107.781 108.206C102.625 130.635 93.5226 143.598 81.9021 147.537C71.0648 151.215 59.9797 152.441 48.9838 153.747C35.6975 155.315 30.7598 168.117 34.3094 193.983C36.7882 212.091 41.5475 227.808 47.9626 241.133C66.4543 279.58 98.6389 282.614 120.928 247.805C132.826 229.215 146.003 217.437 160.757 211.93C178.793 205.198 196.63 196.917 213.635 182.346C227.456 170.489 241.417 159.214 255.308 147.698C277.33 129.449 300.134 123.42 323.703 129.831C334.738 132.825 342.403 150.954 343.454 173.503C344.564 197.42 345.318 221.718 348.153 244.891C353.795 290.955 360.974 336.235 367.111 382.079C372.108 419.42 377.671 456.742 375.103 496.355C373.913 514.744 371.028 531.285 364.276 544.65C355.104 562.778 343.771 572.425 331.813 579.62C319.945 586.775 307.888 592.623 296.099 600.24C283.17 608.601 273.492 625.986 266.334 649.058C256.845 679.627 248.08 711.16 238.026 740.905C218.087 799.892 191.078 841.354 158.645 869.31C141.978 883.68 125.449 899.115 109.555 916.68C88.6741 939.733 79.8397 979.466 83.3993 1026.27C84.252 1037.49 84.8865 1048.76 85.6302 1060.02C74.0691 1060.02 62.4982 1060.02 50.9371 1060.02C50.6892 1055.4 50.4314 1050.75 50.1835 1046.11C48.7756 1018.94 46.3563 991.786 46.267 964.594C46.1778 937.683 49.8861 911.053 61.229 894.211C70.4402 880.524 80.6528 868.888 91.1133 859.462C116.437 836.671 142.424 816.895 167.628 793.601C188.629 774.187 205.673 743.658 217.373 703.081C229.975 659.388 233.296 613.887 216.946 570.636C203.729 535.706 191.891 499.369 182.68 459.475C181.034 452.361 178.267 446.191 175.749 440.061C166.27 416.968 153.271 407.08 139.37 400.508C123.645 393.092 107.81 390.319 91.7677 394.981C81.327 398.016 73.1966 407.442 68.5662 427.781C63.4897 450.09 64.8282 474.328 62.8353 497.541C60.0194 530.38 58.0363 563.723 53.8422 595.839C46.6934 650.525 32.8023 699.664 20.3191 749.828C13.1406 778.689 3.43363 803.49 -10.6955 819.668C-20.0355 830.34 -29.7623 839.605 -39.1717 850.036C-53.7668 866.195 -66.7259 886.473 -76.9782 913.425C-93.4274 956.675 -99.2278 1006.62 -99.7235 1060C-137.391 1060 -175.069 1060 -212.736 1060C-218.834 1030.49 -223.147 999.885 -224.476 968.071C-226.548 918.308 -232.299 870.636 -241.5 824.351C-248.58 788.778 -254.122 751.959 -252.209 713.049C-250.721 682.903 -248.5 652.676 -245.169 623.152C-239.309 571.199 -237.415 519.809 -243.662 467.293C-245.615 450.833 -245.437 432.665 -244.534 415.642C-243.007 386.761 -236.017 361.639 -228.224 337.803C-219.637 311.515 -210.327 286.292 -196.535 270.013C-184.171 255.442 -171.192 251.342 -159.621 271.199C-153.404 281.851 -148.437 296.562 -144.371 311.133C-133.772 349.138 -119.623 378.139 -97.7703 385.174C-86.2191 388.892 -74.1028 388.309 -62.3831 386.379C-46.965 383.827 -32.36 373.738 -18.9944 357.439C-4.0622 339.23 -1.27608 318.59 -6.68975 285.629C-10.3385 263.381 -15.9405 242.037 -24.884 226.582C-36.3955 206.705 -48.4821 187.994 -60.876 170.408C-73.2303 152.883 -83.9485 132.504 -91.9501 106.718C-101.528 75.8683 -110.71 44.4956 -119.98 13.2636C-134.902 -37.0413 -153.285 -80.7138 -178.42 -111.182C-192.44 -128.165 -206.976 -143.439 -220.758 -161.185C-231.159 -174.571 -241.619 -188.699 -250.444 -205.883C-264.543 -233.337 -270.611 -268.95 -270.145 -308.583C-269.897 -329.585 -269.372 -350.648 -268.222 -371.509C-264.444 -440.203 -252 -499.512 -222.711 -540.069C-221.452 -541.818 -220.668 -544.953 -219.657 -547.445C-199.172 -547.445 -178.678 -547.445 -158.193 -547.445C-159.611 -544.39 -160.801 -540.592 -162.486 -538.421C-175.297 -521.941 -188.464 -506.526 -201.017 -489.262C-212.707 -473.204 -222.285 -452.644 -229.503 -427.582C-236.969 -401.676 -241.024 -373.941 -242.799 -344.317C-245.367 -301.187 -240.072 -263.483 -225.081 -231.97C-213.153 -206.908 -198.548 -189.101 -184.111 -170.953C-165.996 -148.182 -147.663 -125.813 -133.663 -92.471C-125.453 -72.9359 -118.205 -51.7126 -110.64 -31.0923C-101.885 -7.23615 -93.943 18.0268 -84.4245 40.5363C-64.842 86.8819 -39.3106 111.1 -9.4858 117.431C1.054 119.661 8.7878 106.236 7.94501 85.4348C6.60647 52.8563 4.64329 20.3983 3.25517 -12.1803C1.78773 -46.7284 0.469001 -81.3368 -0.472938 -115.965C-0.97861 -134.656 -0.244893 -153.468 -0.631584 -172.179C-1.35539 -207.069 4.98037 -236.05 16.363 -261.353C26.4467 -283.802 34.0417 -309.005 35.7372 -339.875C36.7981 -359.089 37.0658 -378.503 38.1664 -397.696C39.6735 -423.844 40.784 -450.272 43.6395 -475.857C46.2571 -500.155 51.0065 -523.569 54.8635 -547.385ZM236.36 -366.525C237.471 -401.535 229.568 -427.863 216.123 -446.816C206.298 -460.683 195.569 -472.3 184.732 -482.771C163.96 -502.848 142.256 -518.062 119.56 -526.423C109.714 -530.041 99.6899 -527.91 91.8172 -514.284C75.4077 -485.886 69.7759 -448.263 72.4827 -405.957C74.198 -379.186 77.3907 -352.758 80.1868 -326.289C83.7661 -292.384 80.5933 -261.695 69.6965 -234.944C63.7276 -220.273 57.4216 -206.064 50.7586 -192.699C26.0401 -143.097 22.5401 -76.031 35.1819 -14.6724C38.2754 0.360786 43.1239 13.3239 49.7076 22.8301C67.7036 48.7965 84.837 32.6982 97.9844 4.23967C109.347 -20.3601 119.312 -47.7333 131.131 -71.3281C144.249 -97.5156 158.536 -121.412 172.764 -145.208C189.888 -173.887 206.436 -203.431 217.512 -243.265C228.17 -281.612 235.488 -322.109 236.36 -366.525ZM-232.606 721.671C-233.727 759.897 -226.3 794.546 -218.14 828.752C-211.388 857.05 -204.239 884.966 -197.814 913.565C-191.201 943.009 -186.63 974.502 -176.08 999.845C-169.824 1014.88 -156.686 1030.19 -145.641 1010.46C-140.772 1001.77 -136.757 990.922 -132.8 980.391C-122.429 952.756 -113.119 923.293 -101.875 897.226C-85.9712 860.346 -66.7755 830.481 -46.8064 803.047C-25.6574 773.986 -7.12599 739.88 5.79344 694.62C12.3969 671.467 19.2582 648.495 24.8602 624.338C33.0799 588.865 37.7896 551.764 35.1422 511.629C32.4156 470.187 19.3871 439.659 -0.284547 431.801C-12.4901 426.937 -24.537 431.439 -36.6235 434.252C-52.6464 437.971 -68.6891 444.683 -84.6922 444.382C-104.364 444 -124.006 437.669 -143.667 434.011C-152.175 432.424 -160.781 428.826 -169.179 430.132C-184.786 432.584 -192.628 456.501 -197.705 482.447C-207.551 532.792 -216.484 583.901 -225.239 635.09C-229.959 662.604 -233.231 691.002 -232.606 721.671ZM500.034 -88.1701C514.48 -89.7578 531.118 -90.7426 547.686 -93.6568C560.179 -95.8475 571.859 -104.51 582.022 -119.824C592.235 -135.219 600.078 -154.915 606.265 -177.364C621.157 -231.407 626.829 -287.962 616.1 -347.733C608.714 -388.914 594.971 -417.613 572.603 -422.658C563.312 -424.748 553.457 -423.04 544.255 -419.141C521.421 -409.494 498.755 -404.63 475.642 -414.9C463.576 -420.266 451.35 -424.165 439.155 -428.326C429.517 -431.622 423.856 -420.508 425.977 -402.359C427.375 -390.341 428.992 -378.302 431.143 -366.766C439.74 -320.641 444.152 -273.01 444.469 -223.73C444.658 -195.332 444.975 -166.933 445.49 -138.555C446.006 -110.619 454.355 -93.2548 468.176 -91.2852C478.052 -89.8985 487.937 -89.3357 500.034 -88.1701ZM302.336 527.064C308.83 525.175 315.473 524.452 321.789 521.155C335.492 514.001 345.486 496.455 347.836 468.037C349.512 447.778 349.284 425.771 347.301 405.593C341.51 346.566 327.49 294.613 310.664 245.655C304.676 228.25 297.021 214.362 286.769 208.574C277.895 203.57 268.842 204.936 259.899 209.659C242.349 218.924 227.248 237.173 214.735 263.18C198.455 297.025 197.295 355.63 213.258 394.8C226.247 426.676 240.971 455.637 254.902 485.944C267.702 513.8 283.457 527.024 302.336 527.064ZM656.604 121.45C656.604 118.777 656.604 116.104 656.604 113.411C656.564 66.2414 640.313 33.9242 617.042 33.08C598.104 32.3967 584.868 51.9318 574.139 80.4506C566.088 101.855 561.716 126.716 560.001 153.426C556.798 203.369 566.663 259.06 593.206 282.434C603.538 291.518 614.326 294.05 625.083 287.659C635.078 281.71 640.323 264.808 644.021 246.479C652.102 206.484 655.483 164.399 656.604 121.45ZM726.932 481.543C728.023 464.46 723.224 452.722 717.116 442.774C711.454 433.549 701.549 432.404 696.086 439.438C691.317 445.568 688.461 461.264 689.671 474.167C690.861 486.848 694.083 496.897 698.733 505.58C704.385 516.131 711.861 520.412 717.76 514.483C724.235 507.951 727.666 497.199 726.932 481.543Z" stroke="black" stroke-width="2" stroke-miterlimit="10"/>
<path d="M85.5907 1060C84.857 1048.74 84.2125 1037.47 83.3598 1026.25C79.8102 979.446 88.6347 939.712 109.516 916.66C125.41 899.115 141.939 883.68 158.606 869.29C191.028 841.314 218.047 799.872 237.987 740.885C248.04 711.12 256.805 679.586 266.294 649.038C273.453 625.965 283.14 608.561 296.06 600.22C307.849 592.603 319.905 586.735 331.774 579.6C343.722 572.405 355.065 562.758 364.236 544.63C370.998 531.265 373.874 514.724 375.063 496.335C377.631 456.722 372.069 419.4 367.072 382.058C360.944 336.215 353.756 290.935 348.114 244.871C345.278 221.698 344.515 197.4 343.414 173.483C342.373 150.934 334.709 132.805 323.663 129.811C300.095 123.42 277.28 129.429 255.269 147.678C241.368 159.194 227.417 170.469 213.595 182.326C196.601 196.917 178.753 205.198 160.718 211.91C145.964 217.417 132.787 229.195 120.889 247.785C98.5994 282.594 66.4148 279.56 47.9231 241.113C41.5179 227.788 36.7587 212.071 34.27 193.963C30.7203 168.097 35.6581 155.295 48.9444 153.727C59.9502 152.441 71.0254 151.215 81.8627 147.517C93.4832 143.558 102.575 130.615 107.741 108.186C114.226 79.9884 120.581 51.6706 127.165 23.5738C135.692 -12.8233 147.798 -44.2563 162.027 -71.8707C173.667 -94.4606 186.487 -114.558 198.792 -135.742C214.716 -163.135 229.271 -193.241 240.059 -229.659C252.284 -270.919 263.538 -313.366 275.624 -354.808C281.405 -374.644 287.651 -394.24 297.765 -406.64C312.836 -425.13 329.027 -424.587 345.179 -415.543C368.956 -402.218 388.836 -376.393 403.113 -334.75C413.028 -305.829 417.342 -273.693 416.905 -238.361C416.489 -204.657 410.758 -174.088 404.224 -144.122C395.37 -103.505 389.45 -61.0781 383.937 -18.3502C381.27 2.33047 378.742 23.1116 376.561 44.0334C375.787 51.4294 375.867 59.4083 376.204 67.0052C376.779 80.1894 382.252 88.6305 389.252 89.6153C413.157 92.9716 433.969 75.5468 453.512 50.2637C464.776 35.6928 475.375 18.9916 486.708 4.64172C498.289 -10.0096 510.911 -17.6467 524.891 -13.0042C537.523 -8.80371 544.503 10.2289 542.253 35.8737C540.26 58.5842 537.771 81.1339 536.185 103.945C532.764 153.164 534.568 201.439 544.464 247.504C552.128 283.177 565.613 307.878 582.548 324.639C594.248 336.215 606.215 346.988 618.45 355.931C637.408 369.819 647.085 397.393 650.893 436.262C653.005 457.867 655.88 479.312 659.36 500.173C662.969 521.819 668.284 542.138 676.94 557.593C689.859 580.665 704.683 595.558 721.994 600.18C728.38 601.888 734.428 601.707 740.446 597.266C749.499 590.573 755.161 576.987 758.185 559.181C765.165 517.98 765.879 475.895 760.852 433.67C756.836 399.885 744.878 380.672 729.609 369.055C718.336 360.473 706.884 352.856 695.432 345.219C676.236 332.417 670.465 300.783 672.062 260.668C673.529 223.969 677.396 188.557 684.426 154.712C692.239 117.089 703.87 85.2339 721.994 65.7993C741.686 44.6765 755.954 43.5108 776.002 76.1899C786.324 92.9917 795.376 113.21 804.389 133.047C820.283 168.057 836.742 201.64 855.67 230.039C875.292 259.462 890.631 295.919 899.466 342.667C907.358 384.39 908.915 427.037 901.419 469.162C893.596 513.156 884.98 556.688 875.56 599.376C867.499 635.934 855.194 667.186 841.571 696.227C832.439 715.702 825.171 737.388 824.319 765.444C823.565 790.124 827.283 812.473 833.778 832.792C837.347 843.946 841.403 854.799 846.082 864.044C862.532 896.482 877.226 931.774 887.28 973.638C893.963 1001.47 898.772 1031.14 904.413 1059.98C897.473 1059.98 890.532 1059.98 883.591 1059.98C877.652 1025.77 869.492 993.796 856.027 969.618C844.476 948.877 831.725 930.849 819.252 912.299C807.374 894.633 796.834 874.817 790.865 846.8C786.611 826.843 781.842 807.228 778.471 786.668C770.152 735.921 754.08 700.77 730.006 679.004C712.069 662.785 694.728 643.873 676.999 626.709C655.315 605.707 641.642 572.385 636.476 524.331C634.275 503.811 631.102 483.593 627.612 463.796C623.745 441.93 618.55 420.707 608.674 407.563C596.032 390.741 583.083 374.542 569.658 360.494C545.485 335.19 527.211 299.798 517.921 247.001C513.32 220.854 508.749 194.666 503.821 168.781C498.2 139.237 486.698 126.535 471.439 133.268C447.682 143.719 425.512 162.771 404.65 187.693C386.674 209.177 379.099 243.022 380.229 284.142C380.844 306.35 382.767 328.739 385.564 350.284C390.402 387.465 396.54 423.942 401.824 460.882C405.503 486.647 408.041 512.835 405.473 539.887C401.795 578.615 389.53 602.27 372.069 615.334C357.226 626.448 341.947 635.17 326.955 645.521C309.475 657.579 294.701 677.758 284.072 708.748C271.173 746.371 258.67 784.557 245.958 822.422C235.547 853.433 222.519 878.414 205.524 894.231C188.728 909.867 171.684 924.518 155.235 941.561C140.54 956.775 127.829 977.557 123.833 1012.35C122.059 1027.8 122.059 1044.08 121.246 1059.98C109.387 1060 97.4889 1060 85.5907 1060ZM190.949 133.81C203.918 134.333 215.737 126.856 227.288 117.612C250.311 99.1617 272.937 78.5414 296.258 61.8602C325.577 40.8982 346.032 2.97359 357.167 -55.7924C365.981 -102.319 375.093 -148.644 383.64 -195.372C388.27 -220.655 390.918 -246.46 387.081 -273.894C379.654 -327.032 348.887 -360.978 323.078 -343.955C310.337 -335.554 301.305 -317.285 293.323 -297.288C279.739 -263.262 267.177 -227.568 253.831 -193.161C241.982 -162.592 228.111 -135.922 213.328 -111.202C198.078 -85.698 182.194 -61.5002 169.78 -29.806C158.348 -0.603836 149.94 31.1708 151.051 70.04C151.566 88.1883 155.334 103.483 162.175 115.381C170.554 129.931 180.548 134.273 190.949 133.81ZM795.416 500.274C797.062 517.699 798.391 540.349 801.444 561.974C805.034 587.358 816.496 597.748 828.86 589.649C836.405 584.705 842.067 574.515 846.727 562.155C857.743 532.913 862.631 498.686 865.794 463.113C868.342 434.474 869.026 406.156 864.197 377.959C858.843 346.666 848.343 327.332 832.4 321.504C820.442 317.122 807.602 323.232 804.022 355.811C802.773 367.206 801.613 378.702 800.969 390.278C799.065 425.108 797.429 459.998 795.416 500.274ZM739.326 169.846C724.364 169.584 715.877 182.065 710.304 202.866C700.796 238.419 707.449 278.876 725.931 288.624C731.642 291.638 737.492 294.894 743.322 295.256C751.165 295.758 759.166 294.613 766.275 286.172C773.335 277.791 776.23 264.165 774.822 248.046C773.236 229.838 769.538 213.679 763.995 199.189C757.064 181.04 747.952 171.052 739.326 169.846Z" stroke="black" stroke-width="2" stroke-miterlimit="10"/>
<path d="M121.275 1060C122.079 1044.1 122.088 1027.8 123.863 1012.37C127.859 977.556 140.57 956.795 155.265 941.581C171.714 924.538 188.758 909.887 205.554 894.251C222.549 878.434 235.587 853.452 245.988 822.441C258.709 784.557 271.202 746.391 284.102 708.768C294.731 677.777 309.514 657.599 326.985 645.54C341.977 635.19 357.256 626.468 372.099 615.354C389.559 602.29 401.824 578.635 405.503 539.906C408.071 512.835 405.533 486.667 401.854 460.902C396.569 423.942 390.432 387.485 385.593 350.304C382.797 328.779 380.864 306.37 380.259 284.162C379.129 243.062 386.704 209.197 404.68 187.712C425.551 162.791 447.712 143.738 471.468 133.287C486.728 126.575 498.229 139.277 503.851 168.8C508.779 194.706 513.36 220.874 517.951 247.021C527.231 299.818 545.515 335.21 569.688 360.513C583.113 374.562 596.062 390.761 608.704 407.582C618.579 420.726 623.775 441.95 627.642 463.816C631.142 483.612 634.305 503.831 636.506 524.351C641.672 572.405 655.345 605.727 677.029 626.729C694.758 643.913 712.099 662.804 730.036 679.023C754.11 700.789 770.172 735.961 778.501 786.687C781.872 807.247 786.641 826.883 790.895 846.82C796.864 874.836 807.394 894.653 819.282 912.319C831.755 930.869 844.506 948.897 856.057 969.638C869.522 993.816 877.682 1025.79 883.621 1060C875.362 1060 867.103 1060 858.833 1060C855.71 1050.65 853.043 1040.5 849.374 1032.12C836.693 1003.1 820.194 988.55 801.454 986.118C788.029 984.37 774.872 989.233 768.139 1017.07C764.927 1030.33 763.767 1045.63 761.685 1060C709.144 1060 656.604 1060 604.064 1060C602.279 1022.8 593.504 993.213 574.239 985.033C563.838 980.611 553.586 979.104 542.907 981.114C528.828 983.787 515.095 988.49 502.176 1000.07C488.404 1012.41 476.961 1030.29 471.23 1059.98C460.661 1059.98 450.081 1059.98 439.512 1059.98C441.624 1044.2 443.141 1027.96 445.967 1012.71C451.43 983.224 461.385 961.739 476.743 953.72C490.615 946.485 504.773 941.561 518.774 935.371C536.155 927.694 553.685 921.142 570.798 911.495C584.184 903.958 595.17 887.257 601.843 861.733C615.069 811.066 616.924 756.862 611.629 701.774C609.576 680.47 602.775 663.428 591.828 656.574C580.138 649.259 567.992 647.852 556.193 653.66C541.648 660.815 527.162 669.135 513.122 679.566C495.83 692.388 479.738 710.517 466.57 737.207C455.941 758.751 449.288 785.843 442.437 812.614C438.957 826.2 435.199 839.846 430.499 851.744C420.039 878.193 405.116 879.519 390.204 876.424C373.834 873.028 357.603 867.099 341.263 862.939C319.806 857.472 298.796 861.733 278.47 877.188C264.321 887.94 252.096 904.923 244.501 931.412C233.198 970.844 229.083 1014.94 227.367 1060.02C216.461 1060.02 205.554 1060.02 194.657 1060.02C193.706 1055.11 193.061 1049.81 191.732 1045.35C187.281 1030.39 181.123 1027.56 174.53 1038.77C171.317 1044.24 169.403 1052.84 166.895 1060.02C151.675 1060 136.475 1060 121.275 1060ZM468.89 638.345C471.984 639.431 475.147 639.431 478.25 638.345C487.253 635.17 496.326 632.457 505.14 627.834C530.711 614.489 556.273 600.923 581.546 585.488C594.882 577.349 604.103 559.06 605.144 528.652C605.442 520.11 605.511 511.347 604.926 502.906C603.171 477.864 597.559 456.722 588.209 439.799C576.024 417.732 561.419 404.266 546.318 393.333C519.894 374.18 497.912 344.857 485.151 291.98C483.148 283.659 480.293 275.902 477.229 268.988C471.399 255.784 464.131 247.624 455.069 248.327C430.618 250.257 413.703 294.371 418.175 343.249C420.941 373.537 427.653 400.066 435.437 425.871C443.964 454.129 448.991 484.336 448.485 518.04C448.108 542.8 448.317 567.601 448.445 592.362C448.574 618.047 454.95 633.904 466.541 637.521L468.89 638.345ZM705.188 906.732C729.649 909.324 737.293 883.499 735.588 853.874C734.22 830.179 730.621 807.469 724.087 787.19C712.406 750.953 697.841 721.972 676.385 710.838C665.736 705.311 656.812 712.989 652.499 733.689C646.233 763.796 644.21 795.249 647.254 827.828C648.979 846.318 651.587 863.763 659.202 875.841C674.243 899.718 692.457 902.994 705.188 906.732ZM380.606 698.84C363.413 700.327 347.777 709.492 335.502 730.815C323.366 751.898 323.168 779.633 339.071 792.958C346.29 799.007 354.172 802.585 361.926 805.017C384.909 812.232 402.102 790.687 406.851 746.411C408.874 727.58 405.027 711.019 395.974 705.03C391.047 701.754 385.742 700.83 380.606 698.84Z" stroke="black" stroke-width="2" stroke-miterlimit="10"/>
<path d="M-99.793 1060C-99.2972 1006.62 -93.4969 956.674 -77.0476 913.424C-66.7954 886.473 -53.8462 866.194 -39.2412 850.035C-29.8317 839.605 -20.095 830.36 -10.7649 819.668C3.37412 803.509 13.0711 778.708 20.2497 749.828C32.7229 699.664 46.624 650.525 53.7728 595.838C57.9669 563.722 59.9499 530.38 62.7658 497.54C64.7588 474.327 63.4202 450.089 68.4968 427.781C73.1371 407.421 81.2675 398.016 91.6982 394.981C107.751 390.298 123.575 393.092 139.301 400.508C153.212 407.06 166.201 416.968 175.68 440.06C178.198 446.21 180.974 452.36 182.61 459.475C191.821 499.369 203.66 535.706 216.877 570.636C233.227 613.886 229.905 659.388 217.303 703.08C205.603 743.658 188.559 774.186 167.559 793.601C142.355 816.894 116.367 836.65 91.0438 859.461C80.5833 868.887 70.3807 880.524 61.1596 894.21C49.8167 911.052 46.1084 937.682 46.1976 964.593C46.2869 991.785 48.7062 1018.94 50.1141 1046.11C50.3521 1050.75 50.6099 1055.37 50.8677 1060.02C38.3151 1060.02 25.7526 1060.02 13.2 1060.02C12.5357 1050.79 11.9904 1041.51 11.1773 1032.34C8.53 1002.48 6.53704 972.31 -0.760504 944.977C-7.1062 921.222 -21.8401 910.409 -33.9068 922.026C-51.4963 938.968 -60.3604 968.11 -61.0446 1007.08C-61.352 1024.69 -60.4893 1042.37 -60.1621 1060.02C-73.3493 1060 -86.5761 1060 -99.793 1060ZM65.3636 726.092C65.8296 726.313 66.2956 726.534 66.7517 726.776C64.7687 759.213 76.4091 772.398 89.5566 768.157C97.6374 765.544 105.907 762.168 113.402 755.777C130.556 741.166 147.679 726.313 161.352 698.88C173.012 675.506 174.688 648.736 169.185 619.795C164.386 594.572 158.477 570.133 152.458 545.976C147.253 525.054 140.035 507.287 129.078 497.319C119.53 488.637 109.02 491.471 102.288 507.308C97.6473 518.221 93.1458 530.762 90.8852 544.187C84.1825 584.041 78.4318 624.578 72.681 665.055C69.8353 685.173 67.7829 705.733 65.3636 726.092Z" stroke="black" stroke-width="2" stroke-miterlimit="10"/>
<path d="M54.8628 -547.385C51.0058 -523.569 46.2663 -500.155 43.5496 -475.817C40.694 -450.232 39.5736 -423.804 38.0764 -397.656C36.9758 -378.443 36.7081 -359.048 35.6472 -339.835C33.9517 -308.965 26.3567 -283.762 16.273 -261.313C4.90034 -235.99 -1.44534 -207.029 -0.721535 -172.139C-0.334844 -153.428 -1.06856 -134.616 -0.562889 -115.925C0.37905 -81.2968 1.69774 -46.7084 3.16518 -12.1402C4.54339 20.4384 6.51651 52.8964 7.85506 85.4749C8.70776 106.276 0.973963 119.701 -9.57575 117.471C-39.4005 111.14 -64.9221 86.9018 -84.5144 40.5764C-94.033 18.0467 -101.975 -7.19611 -110.73 -31.0522C-118.295 -51.6726 -125.543 -72.8758 -133.753 -92.4309C-147.743 -125.773 -166.076 -148.122 -184.201 -170.913C-198.638 -189.061 -213.243 -206.868 -225.171 -231.93C-240.162 -263.443 -245.467 -301.147 -242.889 -344.277C-241.124 -373.901 -237.069 -401.656 -229.593 -427.542C-222.365 -452.584 -212.797 -473.144 -201.107 -489.222C-188.554 -506.466 -175.387 -521.881 -162.576 -538.381C-160.881 -540.552 -159.701 -544.35 -158.283 -547.405C-146.058 -547.405 -133.832 -547.405 -121.607 -547.405C-122.708 -544.169 -123.63 -540.592 -124.938 -537.758C-135.577 -514.746 -148.884 -499.13 -162.091 -483.273C-177.171 -465.185 -192.114 -446.775 -202.901 -417.654C-223.396 -362.324 -221.918 -294.715 -196.932 -248.169C-182.843 -221.921 -166.285 -200.899 -150.331 -179.032C-134.11 -156.784 -118.345 -134.254 -107.696 -99.6661C-100.537 -76.4331 -93.0216 -53.5618 -84.9209 -31.6552C-78.2778 -13.6877 -70.197 1.88809 -59.8356 11.3341C-46.3213 23.654 -33.7588 14.188 -29.178 -12.8436C-27.1256 -25.0028 -25.8862 -38.1869 -25.5788 -51.0294C-24.8153 -84.1707 -27.6412 -116.347 -34.1058 -146.956C-37.1597 -161.407 -40.4119 -175.676 -43.8028 -189.805C-51.9928 -223.931 -50.4559 -256.57 -38.7957 -285.591C-30.5959 -306.01 -20.9584 -324.078 -11.7968 -342.87C-4.24142 -358.345 1.85639 -375.991 5.24737 -396.39C9.82817 -423.924 13.5464 -452.061 17.2447 -480.158C20.1796 -502.426 22.5295 -524.996 25.1371 -547.445C35.0325 -547.385 44.9476 -547.385 54.8628 -547.385Z" stroke="black" stroke-width="2" stroke-miterlimit="10"/>
<path d="M227.347 1060C229.072 1014.94 233.177 970.844 244.48 931.392C252.075 904.903 264.3 887.92 278.449 877.168C298.775 861.733 319.786 857.452 341.242 862.918C357.582 867.079 373.813 873.008 390.183 876.404C405.095 879.499 420.018 878.173 430.478 851.724C435.178 839.846 438.936 826.2 442.416 812.594C449.267 785.823 455.921 758.711 466.55 737.187C479.717 710.497 495.819 692.368 513.101 679.546C527.141 669.135 541.637 660.795 556.173 653.64C567.972 647.852 580.118 649.239 591.808 656.554C602.754 663.407 609.566 680.43 611.608 701.754C616.903 756.842 615.059 811.046 601.822 861.713C595.149 887.257 584.173 903.938 570.778 911.475C553.664 921.122 536.124 927.674 518.753 935.351C504.753 941.541 490.584 946.465 476.722 953.7C461.364 961.719 451.399 983.204 445.946 1012.69C443.12 1027.94 441.603 1044.16 439.491 1059.96C430.895 1059.96 422.308 1059.96 413.712 1059.96C413.375 1043.28 413.385 1026.53 412.601 1009.95C411.55 987.465 408.387 966.06 399.186 951.55C392.483 940.978 385.394 930.648 377.73 923.493C357.82 904.863 336.711 897.768 315.006 906.31C294.353 914.449 277.2 935.552 264.548 970.12C254.762 996.87 248.674 1026.98 246.166 1059.96C239.909 1060 233.633 1060 227.347 1060ZM516.79 878.273C523.443 877.007 528.202 876.344 532.931 875.138C556.381 869.129 583.003 837.133 584.52 775.372C585.462 736.945 575.943 709.833 556.43 708.447C542.212 707.442 529.511 718.033 517.543 732.001C503.315 748.642 492.329 771.554 486.469 803.529C480.877 833.998 486.241 862.476 500.172 871.802C506.022 875.741 512.367 876.625 516.79 878.273Z" stroke="black" stroke-width="2" stroke-miterlimit="10"/>
<path d="M25.1172 -547.386C22.5095 -524.957 20.1596 -502.367 17.2247 -480.098C13.5264 -452.002 9.80821 -423.865 5.22742 -396.331C1.83644 -375.932 -4.26138 -358.286 -11.8167 -342.81C-20.9882 -324.039 -30.6158 -305.951 -38.8157 -285.532C-50.4759 -256.53 -52.0028 -223.871 -43.8228 -189.745C-40.4318 -175.617 -37.1797 -161.327 -34.1258 -146.897C-27.6512 -116.288 -24.8254 -84.1112 -25.5988 -50.9699C-25.8962 -38.1274 -27.1356 -24.9433 -29.198 -12.7841C-33.7688 14.2475 -46.3412 23.7136 -59.8556 11.3936C-70.2169 1.94762 -78.2978 -13.6282 -84.9409 -31.5956C-93.0416 -53.5022 -100.557 -76.3736 -107.716 -99.6066C-118.365 -134.195 -134.13 -156.725 -150.351 -178.973C-166.305 -200.839 -182.853 -221.862 -196.952 -248.109C-221.938 -294.656 -223.416 -362.245 -202.921 -417.594C-192.134 -446.716 -177.182 -465.126 -162.11 -483.214C-148.894 -499.071 -135.597 -514.687 -124.958 -537.699C-123.65 -540.533 -122.728 -544.11 -121.627 -547.346C-110.393 -547.346 -99.1592 -547.346 -87.9254 -547.346C-88.6789 -544.813 -89.2441 -541.96 -90.2058 -539.829C-106.08 -504.899 -124.294 -476.039 -144.412 -451.62C-158.66 -434.336 -173.186 -417.072 -181.871 -386.322C-190.309 -356.457 -190.934 -325.908 -181.822 -296.947C-166.781 -249.175 -144.452 -222.505 -117.254 -212.436C-109.491 -209.562 -101.588 -212.838 -96.5119 -226.042C-89.3531 -244.673 -83.0075 -264.65 -76.523 -284.306C-68.3231 -309.146 -58.8244 -331.535 -47.7393 -351.352C-36.1882 -371.992 -25.5095 -394.401 -18.5789 -422.78C-9.00083 -461.99 -6.46254 -504.336 -5.6495 -547.346C4.63251 -547.386 14.8748 -547.386 25.1172 -547.386Z" stroke="black" stroke-width="2" stroke-miterlimit="10"/>
<path d="M236.36 -366.525C235.488 -322.109 228.17 -281.612 217.512 -243.285C206.426 -203.451 189.888 -173.907 172.765 -145.228C158.546 -121.412 144.258 -97.5358 131.131 -71.3483C119.312 -47.7535 109.347 -20.3803 97.9845 4.21942C84.837 32.6779 67.7036 48.7562 49.7076 22.8099C43.124 13.3036 38.2854 0.340531 35.1819 -14.6926C22.5401 -76.0312 26.0402 -143.098 50.7586 -192.719C57.4216 -206.084 63.7276 -220.313 69.6966 -234.965C80.5933 -261.715 83.7662 -292.404 80.1868 -326.309C77.3907 -352.778 74.198 -379.187 72.4827 -405.977C69.7759 -448.283 75.4077 -485.906 91.8173 -514.304C99.6899 -527.93 109.714 -530.061 119.56 -526.443C142.256 -518.082 163.96 -502.868 184.732 -482.791C195.569 -472.32 206.288 -460.683 216.123 -446.836C229.568 -427.843 237.461 -401.515 236.36 -366.525ZM123.486 -384.492C124.835 -372.856 126.054 -361.139 127.561 -349.603C130.556 -326.691 134.016 -304.021 136.683 -280.948C138.399 -266.056 138.676 -250.5 140.273 -235.527C141.859 -220.615 148.175 -213.138 155.264 -217.701C175.719 -230.865 190.007 -273.532 189.432 -318.109C188.758 -370.464 167.212 -410.68 144.834 -420.166C132.737 -425.311 124.26 -410.017 123.486 -384.492Z" stroke="black" stroke-width="2" stroke-miterlimit="10"/>
<path d="M-232.606 721.671C-233.231 691.002 -229.959 662.603 -225.249 635.09C-216.494 583.9 -207.561 532.792 -197.715 482.447C-192.638 456.5 -184.795 432.584 -169.189 430.132C-160.781 428.806 -152.175 432.423 -143.677 434.011C-124.016 437.669 -104.374 444 -84.7021 444.381C-68.699 444.683 -52.6464 437.97 -36.6334 434.252C-24.5469 431.438 -12.5099 426.937 -0.294443 431.8C19.3772 439.638 32.4057 470.167 35.1324 511.629C37.7698 551.784 33.07 588.865 24.8504 624.337C19.2483 648.495 12.387 671.467 5.78355 694.619C-7.12597 739.88 -25.6574 773.986 -46.8163 803.047C-66.7953 830.481 -85.991 860.346 -101.885 897.225C-113.129 923.292 -122.439 952.756 -132.81 980.39C-136.766 990.941 -140.782 1001.77 -145.65 1010.46C-156.696 1030.17 -169.834 1014.88 -176.09 999.845C-186.64 974.501 -191.211 943.028 -197.824 913.565C-204.239 884.966 -211.398 857.05 -218.15 828.752C-226.3 794.546 -233.727 759.897 -232.606 721.671ZM-98.1569 499.449C-110.66 499.449 -123.222 498.284 -135.706 499.731C-153.305 501.781 -168.247 516.834 -179.58 544.388C-193.293 577.71 -202.782 615.916 -208.8 657.418C-214.789 698.639 -215.463 739.699 -205.865 779.593C-199.41 806.444 -190.169 828.873 -179.521 849.252C-164.083 878.776 -146.781 887.297 -127.089 866.677C-99.6938 837.997 -76.7303 797.158 -53.7767 756.46C-36.6335 726.072 -23.02 689.434 -11.0226 650.344C-2.3568 622.127 5.83312 593.427 6.58667 558.959C7.02294 538.962 4.35576 521.215 -3.6061 508.192C-14.017 491.169 -26.4506 490.305 -38.9139 491.652C-58.6451 493.802 -78.3465 496.797 -98.1569 499.449Z" stroke="black" stroke-width="2" stroke-miterlimit="10"/>
<path d="M302.336 527.064C283.457 527.024 267.702 513.799 254.901 485.944C240.981 455.636 226.247 426.675 213.258 394.8C197.294 355.63 198.454 297.024 214.735 263.18C227.248 237.173 242.349 218.924 259.899 209.659C268.842 204.936 277.895 203.57 286.769 208.574C297.031 214.362 304.685 228.25 310.664 245.654C327.49 294.613 341.51 346.565 347.301 405.593C349.284 425.771 349.512 447.778 347.836 468.037C345.486 496.455 335.502 513.98 321.789 521.155C315.473 524.451 308.83 525.175 302.336 527.064ZM276.963 368.954C278.856 388.912 284.181 407.924 294.711 419.963C298.161 423.902 301.592 424.384 304.884 419.279C308.423 413.813 310.515 406.778 309.385 397.574C306.698 375.607 301.344 357.559 290.725 347.631C283.328 340.717 276.814 348.997 276.963 368.954Z" stroke="black" stroke-width="2" stroke-miterlimit="10"/>
<path d="M190.948 133.81C180.547 134.272 170.553 129.931 162.185 115.38C155.343 103.502 151.575 88.208 151.06 70.0396C149.959 31.1905 158.357 -0.604239 169.79 -29.8064C182.203 -61.5006 198.077 -85.6984 213.337 -111.202C228.12 -135.923 241.992 -162.593 253.84 -193.161C267.186 -227.589 279.749 -263.283 293.332 -297.288C301.314 -317.265 310.347 -335.554 323.088 -343.955C348.907 -360.978 379.663 -327.033 387.09 -273.894C390.927 -246.461 388.27 -220.655 383.649 -195.372C375.102 -148.645 365.99 -102.339 357.176 -55.7928C346.041 2.97319 325.586 40.8978 296.267 61.8598C272.947 78.541 250.31 99.1613 227.297 117.611C215.746 126.876 203.927 134.332 190.948 133.81ZM345.297 -208.797C345.297 -212.154 345.367 -215.49 345.288 -218.846C344.792 -239.346 336.88 -252.028 327.351 -245.556C321.214 -241.396 314.838 -235.528 310.049 -226.986C296.436 -202.748 283.645 -176.601 270.399 -151.519C259.204 -130.336 247.921 -109.293 236.459 -88.693C224.521 -67.2486 212.068 -46.9699 200.348 -25.0834C193.982 -13.1855 189.798 2.18934 188.083 19.9156C186.05 40.958 190.334 56.0917 200.239 62.9049C208.637 68.6729 216.896 65.1759 224.402 58.6441C246.523 39.4306 268.495 19.4333 290.159 -1.81012C302.553 -13.9492 313.946 -30.5299 321.323 -54.6071C326.925 -72.876 331.515 -92.8331 335.105 -113.112C340.578 -143.902 344.058 -175.958 345.297 -208.797Z" stroke="black" stroke-width="2" stroke-miterlimit="10"/>
<path d="M380.606 698.84C385.742 700.83 391.046 701.755 395.974 705.01C405.027 711.02 408.874 727.56 406.851 746.392C402.102 790.647 384.909 812.192 361.926 804.997C354.172 802.565 346.289 798.988 339.071 792.938C323.167 779.613 323.366 751.878 335.502 730.796C347.777 709.492 363.413 700.348 380.606 698.84Z" stroke="black" stroke-width="2" stroke-miterlimit="10"/>
<path d="M65.3633 726.093C67.7826 705.734 69.835 685.174 72.6906 665.076C78.4414 624.599 84.1921 584.062 90.8948 544.208C93.1554 530.803 97.6569 518.242 102.297 507.328C109.03 491.491 119.54 488.638 129.088 497.34C140.044 507.308 147.252 525.075 152.468 545.997C158.486 570.174 164.396 594.593 169.195 619.816C174.708 648.737 173.022 675.527 161.362 698.901C147.679 726.314 130.565 741.186 113.412 755.798C105.916 762.189 97.6569 765.565 89.5662 768.178C76.4187 772.419 64.7684 759.254 66.7613 726.796C66.2953 726.535 65.8293 726.314 65.3633 726.093Z" stroke="black" stroke-width="2" stroke-miterlimit="10"/>
<path d="M-98.1573 499.449C-78.3567 496.817 -58.6454 493.802 -38.9242 491.692C-26.4609 490.345 -14.0174 491.209 -3.61637 508.232C4.34549 521.256 7.02258 539.002 6.5764 558.999C5.81293 593.467 -2.36704 622.147 -11.0329 650.384C-23.0302 689.474 -36.6437 726.113 -53.787 756.501C-76.7406 797.199 -99.6941 838.037 -127.1 866.717C-146.801 887.337 -164.103 878.816 -179.531 849.292C-190.18 828.913 -199.421 806.484 -205.875 779.633C-215.473 739.739 -214.789 698.679 -208.81 657.458C-202.782 615.956 -193.303 577.751 -179.59 544.428C-168.257 516.894 -153.315 501.821 -135.716 499.771C-123.223 498.264 -110.66 499.449 -98.1573 499.449ZM-141.437 808.835C-141.318 809.74 -141.189 810.644 -141.07 811.568C-133.832 807.569 -126.346 804.856 -119.415 799.289C-103.898 786.848 -91.5934 765.002 -80.4488 740.422C-67.2617 711.341 -57.5845 678.421 -53.9952 638.908C-51.3082 609.324 -56.7417 588.724 -70.6824 577.73C-88.8073 563.421 -107.388 554.497 -127.08 557.552C-138.74 559.361 -149.538 565.833 -158.828 580.223C-176.546 607.656 -186.7 643.973 -190.438 688.791C-195.911 754.43 -167.226 812.111 -141.437 808.835Z" stroke="black" stroke-width="2" stroke-miterlimit="10"/>
<path d="M276.962 368.954C276.814 348.997 283.328 340.697 290.725 347.63C301.344 357.559 306.698 375.607 309.385 397.574C310.515 406.778 308.423 413.813 304.883 419.279C301.592 424.364 298.161 423.902 294.711 419.963C284.181 407.924 278.856 388.932 276.962 368.954Z" stroke="black" stroke-width="2" stroke-miterlimit="10"/>
<path d="M345.298 -208.797C344.058 -175.958 340.568 -143.902 335.115 -113.092C331.526 -92.833 326.935 -72.8558 321.333 -54.5869C313.956 -30.5097 302.564 -13.929 290.17 -1.78994C268.505 19.4534 246.533 39.4507 224.412 58.6642C216.907 65.1759 208.647 68.6931 200.249 62.925C190.344 56.1119 186.061 40.9782 188.093 19.9358C189.808 2.20952 193.993 -13.1854 200.358 -25.0632C212.078 -46.9698 224.531 -67.2284 236.469 -88.6728C247.931 -109.273 259.214 -130.295 270.409 -151.499C283.665 -176.581 296.446 -202.728 310.059 -226.966C314.848 -235.487 321.224 -241.376 327.361 -245.536C336.89 -252.008 344.802 -239.326 345.298 -218.826C345.377 -215.49 345.298 -212.134 345.298 -208.797Z" stroke="black" stroke-width="2" stroke-miterlimit="10"/>
</g>
</svg>
