<svg width="128" height="128" viewBox="0 0 128 128" fill="none" xmlns="http://www.w3.org/2000/svg">
<g filter="url(#filter0_d)">
<rect x="25" y="21" width="78" height="78" rx="39" fill="#F19174"/>
</g>
<g filter="url(#filter1_i)">
<path d="M51.4493 44.3445C52.6626 50.5741 60.5863 56.8614 64.3965 59.2264C68.565 56.711 76.9483 49.0937 77.037 43.9213C77.2294 32.7142 66.4758 34.2544 63.9267 38.5223C59.0807 32.4028 49.9326 36.5574 51.4493 44.3445Z" fill="white"/>
</g>
<path d="M44.8691 76V65.3359H48.1504C49.0879 65.3359 49.9253 65.5483 50.6626 65.9731C51.4048 66.3931 51.9834 66.9937 52.3984 67.7749C52.8135 68.5513 53.021 69.4351 53.021 70.4263V70.917C53.021 71.9082 52.8159 72.7896 52.4058 73.561C52.0005 74.3325 51.4268 74.9307 50.6846 75.3555C49.9424 75.7803 49.105 75.9951 48.1724 76H44.8691ZM47.0664 67.1157V74.2349H48.1284C48.9878 74.2349 49.6445 73.9541 50.0986 73.3926C50.5527 72.8311 50.7847 72.0278 50.7944 70.9829V70.4189C50.7944 69.335 50.5698 68.5146 50.1206 67.958C49.6714 67.3965 49.0146 67.1157 48.1504 67.1157H47.0664ZM54.1562 71.9644C54.1562 71.1782 54.3076 70.4775 54.6104 69.8623C54.9131 69.2471 55.3477 68.771 55.9141 68.4341C56.4854 68.0972 57.147 67.9287 57.8989 67.9287C58.9683 67.9287 59.8398 68.2559 60.5137 68.9102C61.1924 69.5645 61.5708 70.4531 61.6489 71.5762L61.6636 72.1182C61.6636 73.334 61.3242 74.3105 60.6455 75.0479C59.9668 75.7803 59.0562 76.1465 57.9136 76.1465C56.771 76.1465 55.8579 75.7803 55.1743 75.0479C54.4956 74.3154 54.1562 73.3193 54.1562 72.0596V71.9644ZM56.2729 72.1182C56.2729 72.8701 56.4146 73.4463 56.6978 73.8467C56.981 74.2422 57.3862 74.4399 57.9136 74.4399C58.4263 74.4399 58.8267 74.2446 59.1147 73.854C59.4028 73.4585 59.5469 72.8286 59.5469 71.9644C59.5469 71.2271 59.4028 70.6558 59.1147 70.2505C58.8267 69.8452 58.4214 69.6426 57.8989 69.6426C57.3813 69.6426 56.981 69.8452 56.6978 70.2505C56.4146 70.6509 56.2729 71.2734 56.2729 72.1182ZM64.9155 68.0752L64.9814 68.9907C65.5479 68.2827 66.3071 67.9287 67.2593 67.9287C68.0991 67.9287 68.7241 68.1753 69.1343 68.6685C69.5444 69.1616 69.7544 69.8989 69.7642 70.8804V76H67.6475V70.9316C67.6475 70.4824 67.5498 70.1577 67.3545 69.9575C67.1592 69.7524 66.8345 69.6499 66.3804 69.6499C65.7847 69.6499 65.3379 69.9038 65.04 70.4116V76H62.9233V68.0752H64.9155ZM75.9678 76C75.8701 75.8096 75.7993 75.5728 75.7554 75.2896C75.2427 75.8608 74.5762 76.1465 73.7559 76.1465C72.9795 76.1465 72.335 75.9219 71.8223 75.4727C71.3145 75.0234 71.0605 74.457 71.0605 73.7734C71.0605 72.9336 71.3706 72.2891 71.9907 71.8398C72.6157 71.3906 73.5166 71.1636 74.6934 71.1587H75.6675V70.7046C75.6675 70.3384 75.5723 70.0454 75.3818 69.8257C75.1963 69.606 74.9009 69.4961 74.4956 69.4961C74.1392 69.4961 73.8584 69.5815 73.6533 69.7524C73.4531 69.9233 73.353 70.1577 73.353 70.4556H71.2363C71.2363 69.9966 71.3779 69.5718 71.6611 69.1812C71.9443 68.7905 72.3447 68.4854 72.8623 68.2656C73.3799 68.041 73.9609 67.9287 74.6055 67.9287C75.582 67.9287 76.356 68.1753 76.9272 68.6685C77.5034 69.1567 77.7915 69.8452 77.7915 70.7339V74.1689C77.7964 74.9209 77.9014 75.4897 78.1064 75.8755V76H75.9678ZM74.2173 74.5278C74.5298 74.5278 74.8179 74.4595 75.0815 74.3228C75.3452 74.1812 75.5405 73.9932 75.6675 73.7588V72.3965H74.8765C73.8169 72.3965 73.2529 72.7627 73.1846 73.4951L73.1772 73.6196C73.1772 73.8833 73.27 74.1006 73.4556 74.2715C73.6411 74.4424 73.895 74.5278 74.2173 74.5278ZM83.8706 70.0601C83.5825 70.021 83.3286 70.0015 83.1089 70.0015C82.3081 70.0015 81.7832 70.2725 81.5342 70.8145V76H79.4175V68.0752H81.417L81.4756 69.02C81.9004 68.2925 82.4888 67.9287 83.2407 67.9287C83.4751 67.9287 83.6948 67.9604 83.8999 68.0239L83.8706 70.0601Z" fill="#33404F"/>
<defs>
<filter id="filter0_d" x="0" y="0" width="128" height="128" filterUnits="userSpaceOnUse" color-interpolation-filters="sRGB">
<feFlood flood-opacity="0" result="BackgroundImageFix"/>
<feColorMatrix in="SourceAlpha" type="matrix" values="0 0 0 0 0 0 0 0 0 0 0 0 0 0 0 0 0 0 127 0"/>
<feOffset dy="4"/>
<feGaussianBlur stdDeviation="12.5"/>
<feColorMatrix type="matrix" values="0 0 0 0 0 0 0 0 0 0 0 0 0 0 0 0 0 0 0.25 0"/>
<feBlend mode="normal" in2="BackgroundImageFix" result="effect1_dropShadow"/>
<feBlend mode="normal" in="SourceGraphic" in2="effect1_dropShadow" result="shape"/>
</filter>
<filter id="filter1_i" x="51" y="35" width="26.1825" height="28.4387" filterUnits="userSpaceOnUse" color-interpolation-filters="sRGB">
<feFlood flood-opacity="0" result="BackgroundImageFix"/>
<feBlend mode="normal" in="SourceGraphic" in2="BackgroundImageFix" result="shape"/>
<feColorMatrix in="SourceAlpha" type="matrix" values="0 0 0 0 0 0 0 0 0 0 0 0 0 0 0 0 0 0 127 0" result="hardAlpha"/>
<feOffset dy="4"/>
<feGaussianBlur stdDeviation="10"/>
<feComposite in2="hardAlpha" operator="arithmetic" k2="-1" k3="1"/>
<feColorMatrix type="matrix" values="0 0 0 0 1 0 0 0 0 1 0 0 0 0 1 0 0 0 0.25 0"/>
<feBlend mode="normal" in2="shape" result="effect1_innerShadow"/>
</filter>
</defs>
</svg>
