<svg width="24" height="24" viewBox="0 0 24 24" fill="none" xmlns="http://www.w3.org/2000/svg">
<path d="M18.4166 4.66668H17.5V3.75001C17.5 3.20001 17.1333 2.83334 16.5833 2.83334C16.0333 2.83334 15.6666 3.20001 15.6666 3.75001V4.66668H8.33331V3.75001C8.33331 3.20001 7.96665 2.83334 7.41665 2.83334C6.86665 2.83334 6.49998 3.20001 6.49998 3.75001V4.66668H5.58331C4.02498 4.66668 2.83331 5.85834 2.83331 7.41668V8.33334H21.1666V7.41668C21.1666 5.85834 19.975 4.66668 18.4166 4.66668ZM2.83331 18.4167C2.83331 19.975 4.02498 21.1667 5.58331 21.1667H18.4166C19.975 21.1667 21.1666 19.975 21.1666 18.4167V10.1667H2.83331V18.4167ZM16.5833 12C17.1333 12 17.5 12.3667 17.5 12.9167C17.5 13.4667 17.1333 13.8333 16.5833 13.8333C16.0333 13.8333 15.6666 13.4667 15.6666 12.9167C15.6666 12.3667 16.0333 12 16.5833 12ZM16.5833 15.6667C17.1333 15.6667 17.5 16.0333 17.5 16.5833C17.5 17.1333 17.1333 17.5 16.5833 17.5C16.0333 17.5 15.6666 17.1333 15.6666 16.5833C15.6666 16.0333 16.0333 15.6667 16.5833 15.6667ZM12 12C12.55 12 12.9166 12.3667 12.9166 12.9167C12.9166 13.4667 12.55 13.8333 12 13.8333C11.45 13.8333 11.0833 13.4667 11.0833 12.9167C11.0833 12.3667 11.45 12 12 12ZM12 15.6667C12.55 15.6667 12.9166 16.0333 12.9166 16.5833C12.9166 17.1333 12.55 17.5 12 17.5C11.45 17.5 11.0833 17.1333 11.0833 16.5833C11.0833 16.0333 11.45 15.6667 12 15.6667ZM7.41665 12C7.96665 12 8.33331 12.3667 8.33331 12.9167C8.33331 13.4667 7.96665 13.8333 7.41665 13.8333C6.86665 13.8333 6.49998 13.4667 6.49998 12.9167C6.49998 12.3667 6.86665 12 7.41665 12ZM7.41665 15.6667C7.96665 15.6667 8.33331 16.0333 8.33331 16.5833C8.33331 17.1333 7.96665 17.5 7.41665 17.5C6.86665 17.5 6.49998 17.1333 6.49998 16.5833C6.49998 16.0333 6.86665 15.6667 7.41665 15.6667Z" fill="white"/>
<circle cx="16.5834" cy="12.9167" r="0.916667" fill="#F19174"/>
</svg>
