<svg width="402" height="237" viewBox="0 0 402 237" fill="none" xmlns="http://www.w3.org/2000/svg">
<g filter="url(#filter0_d)">
<path d="M17 8.00001C17 3.58173 20.5817 0 25 0H390C394.418 0 398 3.58172 398 8V221C398 225.418 394.418 229 390 229H25C20.5817 229 17 225.418 17 221V8.00001Z" fill="#44505E"/>
<path d="M37.8779 27.2905C37.8779 27.9399 37.8022 28.4648 37.6509 28.8652C37.4995 29.2656 37.2285 29.6465 36.8379 30.0078C36.4521 30.3691 36.1885 30.6377 36.0469 30.8135C35.9102 30.9893 35.8052 31.1675 35.7319 31.3481C35.6636 31.5288 35.6294 31.7266 35.6294 31.9414C35.6294 32.708 36.0054 33.0913 36.7573 33.0913C37.1333 33.0913 37.4312 32.9814 37.6509 32.7617C37.8755 32.542 37.9927 32.2344 38.0024 31.8389H40.1191C40.1094 32.7764 39.8091 33.5063 39.2183 34.0288C38.6274 34.5562 37.8193 34.8198 36.7939 34.8198C35.7539 34.8198 34.9458 34.5708 34.3696 34.0728C33.7935 33.5796 33.5054 32.874 33.5054 31.9561C33.5054 31.1797 33.8789 30.418 34.626 29.6709L35.3364 28.9897C35.5806 28.77 35.749 28.5405 35.8418 28.3013C35.9395 28.062 35.9932 27.7251 36.0029 27.2905H37.8779ZM38.1416 25.0493C38.1416 25.3765 38.0293 25.645 37.8047 25.855C37.5801 26.0649 37.2969 26.1699 36.9551 26.1699C36.6133 26.1699 36.3301 26.0649 36.1055 25.855C35.8809 25.645 35.7686 25.3765 35.7686 25.0493C35.7686 24.7222 35.876 24.4536 36.0908 24.2437C36.3105 24.0337 36.5986 23.9287 36.9551 23.9287C37.3115 23.9287 37.5972 24.0337 37.812 24.2437C38.0317 24.4536 38.1416 24.7222 38.1416 25.0493ZM49.7944 28.4478C49.7114 29.5952 49.2866 30.4985 48.52 31.1577C47.7583 31.8169 46.7524 32.1465 45.5024 32.1465C44.1353 32.1465 43.0586 31.6875 42.2725 30.7695C41.4912 29.8467 41.1006 28.582 41.1006 26.9756V26.3237C41.1006 25.2983 41.2812 24.395 41.6426 23.6138C42.0039 22.8325 42.519 22.2344 43.188 21.8193C43.8618 21.3994 44.6431 21.1895 45.5317 21.1895C46.7622 21.1895 47.7534 21.519 48.5054 22.1782C49.2573 22.8374 49.6919 23.7627 49.8091 24.9541H47.6118C47.5581 24.2656 47.3652 23.7676 47.0332 23.46C46.7061 23.1475 46.2056 22.9912 45.5317 22.9912C44.7993 22.9912 44.25 23.2549 43.8838 23.7822C43.5225 24.3047 43.3369 25.1177 43.3271 26.2212V27.0269C43.3271 28.1792 43.5005 29.0215 43.8472 29.5537C44.1987 30.0859 44.7505 30.3521 45.5024 30.3521C46.1812 30.3521 46.6865 30.1982 47.0186 29.8906C47.3555 29.5781 47.5483 29.0972 47.5972 28.4478H49.7944ZM50.7686 27.9644C50.7686 27.1782 50.9199 26.4775 51.2227 25.8623C51.5254 25.2471 51.96 24.771 52.5264 24.4341C53.0977 24.0972 53.7593 23.9287 54.5112 23.9287C55.5806 23.9287 56.4521 24.2559 57.126 24.9102C57.8047 25.5645 58.1831 26.4531 58.2612 27.5762L58.2759 28.1182C58.2759 29.334 57.9365 30.3105 57.2578 31.0479C56.5791 31.7803 55.6685 32.1465 54.5259 32.1465C53.3833 32.1465 52.4702 31.7803 51.7866 31.0479C51.1079 30.3154 50.7686 29.3193 50.7686 28.0596V27.9644ZM52.8853 28.1182C52.8853 28.8701 53.0269 29.4463 53.3101 29.8467C53.5933 30.2422 53.9985 30.4399 54.5259 30.4399C55.0386 30.4399 55.439 30.2446 55.7271 29.854C56.0151 29.4585 56.1592 28.8286 56.1592 27.9644C56.1592 27.2271 56.0151 26.6558 55.7271 26.2505C55.439 25.8452 55.0337 25.6426 54.5112 25.6426C53.9937 25.6426 53.5933 25.8452 53.3101 26.2505C53.0269 26.6509 52.8853 27.2734 52.8853 28.1182ZM54.9287 20.75H57.2358L55.207 23.0205H53.4858L54.9287 20.75ZM61.5645 24.0752L61.6304 24.9614C62.1919 24.2729 62.9512 23.9287 63.9082 23.9287C64.9287 23.9287 65.6294 24.3315 66.0103 25.1372C66.5669 24.3315 67.3604 23.9287 68.3906 23.9287C69.25 23.9287 69.8896 24.1802 70.3096 24.6831C70.7295 25.1812 70.9395 25.9331 70.9395 26.939V32H68.8154V26.9463C68.8154 26.4971 68.7275 26.1699 68.5518 25.9648C68.376 25.7549 68.0659 25.6499 67.6216 25.6499C66.9868 25.6499 66.5474 25.9526 66.3032 26.5581L66.3105 32H64.1938V26.9536C64.1938 26.4946 64.1035 26.1626 63.9229 25.9575C63.7422 25.7524 63.4346 25.6499 63 25.6499C62.3994 25.6499 61.9648 25.8989 61.6963 26.397V32H59.5796V24.0752H61.5645ZM72.2432 27.9644C72.2432 27.1782 72.3945 26.4775 72.6973 25.8623C73 25.2471 73.4346 24.771 74.001 24.4341C74.5723 24.0972 75.2339 23.9287 75.9858 23.9287C77.0552 23.9287 77.9268 24.2559 78.6006 24.9102C79.2793 25.5645 79.6577 26.4531 79.7358 27.5762L79.7505 28.1182C79.7505 29.334 79.4111 30.3105 78.7324 31.0479C78.0537 31.7803 77.1431 32.1465 76.0005 32.1465C74.8579 32.1465 73.9448 31.7803 73.2612 31.0479C72.5825 30.3154 72.2432 29.3193 72.2432 28.0596V27.9644ZM74.3599 28.1182C74.3599 28.8701 74.5015 29.4463 74.7847 29.8467C75.0679 30.2422 75.4731 30.4399 76.0005 30.4399C76.5132 30.4399 76.9136 30.2446 77.2017 29.854C77.4897 29.4585 77.6338 28.8286 77.6338 27.9644C77.6338 27.2271 77.4897 26.6558 77.2017 26.2505C76.9136 25.8452 76.5083 25.6426 75.9858 25.6426C75.4683 25.6426 75.0679 25.8452 74.7847 26.2505C74.5015 26.6509 74.3599 27.2734 74.3599 28.1182ZM86.7378 24.0752L86.8037 24.9907C87.3701 24.2827 88.1294 23.9287 89.0815 23.9287C89.9214 23.9287 90.5464 24.1753 90.9565 24.6685C91.3667 25.1616 91.5767 25.8989 91.5864 26.8804V32H89.4697V26.9316C89.4697 26.4824 89.3721 26.1577 89.1768 25.9575C88.9814 25.7524 88.6567 25.6499 88.2026 25.6499C87.6069 25.6499 87.1602 25.9038 86.8623 26.4116V32H84.7456V24.0752H86.7378ZM92.8682 27.9644C92.8682 27.1782 93.0195 26.4775 93.3223 25.8623C93.625 25.2471 94.0596 24.771 94.626 24.4341C95.1973 24.0972 95.8589 23.9287 96.6108 23.9287C97.6802 23.9287 98.5518 24.2559 99.2256 24.9102C99.9043 25.5645 100.283 26.4531 100.361 27.5762L100.375 28.1182C100.375 29.334 100.036 30.3105 99.3574 31.0479C98.6787 31.7803 97.7681 32.1465 96.6255 32.1465C95.4829 32.1465 94.5698 31.7803 93.8862 31.0479C93.2075 30.3154 92.8682 29.3193 92.8682 28.0596V27.9644ZM94.9849 28.1182C94.9849 28.8701 95.1265 29.4463 95.4097 29.8467C95.6929 30.2422 96.0981 30.4399 96.6255 30.4399C97.1382 30.4399 97.5386 30.2446 97.8267 29.854C98.1147 29.4585 98.2588 28.8286 98.2588 27.9644C98.2588 27.2271 98.1147 26.6558 97.8267 26.2505C97.5386 25.8452 97.1333 25.6426 96.6108 25.6426C96.0933 25.6426 95.6929 25.8452 95.4097 26.2505C95.1265 26.6509 94.9849 27.2734 94.9849 28.1182ZM105.971 29.8101C105.971 29.5513 105.842 29.3486 105.583 29.2021C105.329 29.0508 104.919 28.9165 104.353 28.7993C102.468 28.4038 101.525 27.603 101.525 26.397C101.525 25.6938 101.816 25.1079 102.397 24.6392C102.983 24.1655 103.747 23.9287 104.689 23.9287C105.695 23.9287 106.499 24.1655 107.099 24.6392C107.705 25.1128 108.007 25.728 108.007 26.4849H105.891C105.891 26.1821 105.793 25.9331 105.598 25.7378C105.402 25.5376 105.097 25.4375 104.682 25.4375C104.326 25.4375 104.05 25.5181 103.854 25.6792C103.659 25.8403 103.562 26.0454 103.562 26.2944C103.562 26.5288 103.671 26.7192 103.891 26.8657C104.116 27.0073 104.492 27.1318 105.019 27.2393C105.546 27.3418 105.991 27.459 106.352 27.5908C107.47 28.001 108.029 28.7114 108.029 29.7222C108.029 30.4448 107.719 31.0308 107.099 31.48C106.479 31.9243 105.678 32.1465 104.697 32.1465C104.033 32.1465 103.442 32.0293 102.924 31.7949C102.412 31.5557 102.009 31.231 101.716 30.8208C101.423 30.4058 101.276 29.959 101.276 29.4805H103.283C103.303 29.8564 103.442 30.1445 103.701 30.3447C103.959 30.5449 104.306 30.645 104.741 30.645C105.146 30.645 105.451 30.5693 105.656 30.418C105.866 30.2617 105.971 30.0591 105.971 29.8101ZM113.647 32V25.6279H112.468V24.0752H113.647V23.709C113.657 22.7129 113.962 21.9463 114.562 21.4092C115.168 20.8672 116.02 20.5962 117.119 20.5962C117.778 20.5962 118.579 20.7402 119.521 21.0283L119.213 22.7788C118.735 22.6372 118.364 22.5469 118.1 22.5078C117.836 22.4639 117.553 22.4419 117.25 22.4419C116.264 22.4419 115.771 22.8789 115.771 23.7529V24.0752H117.331V25.6279H115.771V32H113.647ZM120.51 32H118.386V24.0752H120.51V32ZM124.208 24.0752L124.274 24.9907C124.841 24.2827 125.6 23.9287 126.552 23.9287C127.392 23.9287 128.017 24.1753 128.427 24.6685C128.837 25.1616 129.047 25.8989 129.057 26.8804V32H126.94V26.9316C126.94 26.4824 126.843 26.1577 126.647 25.9575C126.452 25.7524 126.127 25.6499 125.673 25.6499C125.078 25.6499 124.631 25.9038 124.333 26.4116V32H122.216V24.0752H124.208ZM135.261 32C135.163 31.8096 135.092 31.5728 135.048 31.2896C134.536 31.8608 133.869 32.1465 133.049 32.1465C132.272 32.1465 131.628 31.9219 131.115 31.4727C130.607 31.0234 130.354 30.457 130.354 29.7734C130.354 28.9336 130.664 28.2891 131.284 27.8398C131.909 27.3906 132.81 27.1636 133.986 27.1587H134.96V26.7046C134.96 26.3384 134.865 26.0454 134.675 25.8257C134.489 25.606 134.194 25.4961 133.789 25.4961C133.432 25.4961 133.151 25.5815 132.946 25.7524C132.746 25.9233 132.646 26.1577 132.646 26.4556H130.529C130.529 25.9966 130.671 25.5718 130.954 25.1812C131.237 24.7905 131.638 24.4854 132.155 24.2656C132.673 24.041 133.254 23.9287 133.898 23.9287C134.875 23.9287 135.649 24.1753 136.22 24.6685C136.796 25.1567 137.084 25.8452 137.084 26.7339V30.1689C137.089 30.9209 137.194 31.4897 137.399 31.8755V32H135.261ZM133.51 30.5278C133.823 30.5278 134.111 30.4595 134.375 30.3228C134.638 30.1812 134.833 29.9932 134.96 29.7588V28.3965H134.169C133.11 28.3965 132.546 28.7627 132.478 29.4951L132.47 29.6196C132.47 29.8833 132.563 30.1006 132.749 30.2715C132.934 30.4424 133.188 30.5278 133.51 30.5278ZM140.659 24.0752L140.725 24.9907C141.291 24.2827 142.05 23.9287 143.002 23.9287C143.842 23.9287 144.467 24.1753 144.877 24.6685C145.288 25.1616 145.498 25.8989 145.507 26.8804V32H143.391V26.9316C143.391 26.4824 143.293 26.1577 143.098 25.9575C142.902 25.7524 142.578 25.6499 142.124 25.6499C141.528 25.6499 141.081 25.9038 140.783 26.4116V32H138.667V24.0752H140.659ZM150.415 30.4399C150.805 30.4399 151.123 30.3325 151.367 30.1177C151.611 29.9028 151.738 29.6172 151.748 29.2607H153.732C153.728 29.7979 153.581 30.291 153.293 30.7402C153.005 31.1846 152.609 31.5312 152.106 31.7803C151.608 32.0244 151.057 32.1465 150.451 32.1465C149.318 32.1465 148.425 31.7876 147.771 31.0698C147.116 30.3472 146.789 29.3511 146.789 28.0815V27.9424C146.789 26.7217 147.114 25.7476 147.763 25.02C148.413 24.2925 149.304 23.9287 150.437 23.9287C151.428 23.9287 152.221 24.2119 152.817 24.7783C153.417 25.3398 153.723 26.0894 153.732 27.0269H151.748C151.738 26.6167 151.611 26.2847 151.367 26.0308C151.123 25.772 150.8 25.6426 150.4 25.6426C149.907 25.6426 149.533 25.8232 149.279 26.1846C149.03 26.541 148.906 27.1221 148.906 27.9277V28.1475C148.906 28.9629 149.03 29.5488 149.279 29.9053C149.528 30.2617 149.907 30.4399 150.415 30.4399ZM157.175 32H155.051V24.0752H157.175V32ZM154.926 22.0244C154.926 21.707 155.031 21.4458 155.241 21.2407C155.456 21.0356 155.747 20.9331 156.113 20.9331C156.474 20.9331 156.762 21.0356 156.977 21.2407C157.192 21.4458 157.299 21.707 157.299 22.0244C157.299 22.3467 157.189 22.6104 156.97 22.8154C156.755 23.0205 156.469 23.123 156.113 23.123C155.756 23.123 155.468 23.0205 155.249 22.8154C155.034 22.6104 154.926 22.3467 154.926 22.0244ZM163.518 32C163.42 31.8096 163.349 31.5728 163.305 31.2896C162.792 31.8608 162.126 32.1465 161.306 32.1465C160.529 32.1465 159.885 31.9219 159.372 31.4727C158.864 31.0234 158.61 30.457 158.61 29.7734C158.61 28.9336 158.92 28.2891 159.541 27.8398C160.166 27.3906 161.066 27.1636 162.243 27.1587H163.217V26.7046C163.217 26.3384 163.122 26.0454 162.932 25.8257C162.746 25.606 162.451 25.4961 162.045 25.4961C161.689 25.4961 161.408 25.5815 161.203 25.7524C161.003 25.9233 160.903 26.1577 160.903 26.4556H158.786C158.786 25.9966 158.928 25.5718 159.211 25.1812C159.494 24.7905 159.895 24.4854 160.412 24.2656C160.93 24.041 161.511 23.9287 162.155 23.9287C163.132 23.9287 163.906 24.1753 164.477 24.6685C165.053 25.1567 165.341 25.8452 165.341 26.7339V30.1689C165.346 30.9209 165.451 31.4897 165.656 31.8755V32H163.518ZM161.767 30.5278C162.08 30.5278 162.368 30.4595 162.631 30.3228C162.895 30.1812 163.09 29.9932 163.217 29.7588V28.3965H162.426C161.367 28.3965 160.803 28.7627 160.734 29.4951L160.727 29.6196C160.727 29.8833 160.82 30.1006 161.005 30.2715C161.191 30.4424 161.445 30.5278 161.767 30.5278ZM168.952 24.0752L169.018 24.9614C169.58 24.2729 170.339 23.9287 171.296 23.9287C172.316 23.9287 173.017 24.3315 173.398 25.1372C173.955 24.3315 174.748 23.9287 175.778 23.9287C176.638 23.9287 177.277 24.1802 177.697 24.6831C178.117 25.1812 178.327 25.9331 178.327 26.939V32H176.203V26.9463C176.203 26.4971 176.115 26.1699 175.939 25.9648C175.764 25.7549 175.454 25.6499 175.009 25.6499C174.375 25.6499 173.935 25.9526 173.691 26.5581L173.698 32H171.582V26.9536C171.582 26.4946 171.491 26.1626 171.311 25.9575C171.13 25.7524 170.822 25.6499 170.388 25.6499C169.787 25.6499 169.353 25.8989 169.084 26.397V32H166.967V24.0752H168.952ZM179.631 27.9644C179.631 27.1782 179.782 26.4775 180.085 25.8623C180.388 25.2471 180.822 24.771 181.389 24.4341C181.96 24.0972 182.622 23.9287 183.374 23.9287C184.443 23.9287 185.314 24.2559 185.988 24.9102C186.667 25.5645 187.045 26.4531 187.124 27.5762L187.138 28.1182C187.138 29.334 186.799 30.3105 186.12 31.0479C185.441 31.7803 184.531 32.1465 183.388 32.1465C182.246 32.1465 181.333 31.7803 180.649 31.0479C179.97 30.3154 179.631 29.3193 179.631 28.0596V27.9644ZM181.748 28.1182C181.748 28.8701 181.889 29.4463 182.172 29.8467C182.456 30.2422 182.861 30.4399 183.388 30.4399C183.901 30.4399 184.301 30.2446 184.589 29.854C184.877 29.4585 185.021 28.8286 185.021 27.9644C185.021 27.2271 184.877 26.6558 184.589 26.2505C184.301 25.8452 183.896 25.6426 183.374 25.6426C182.856 25.6426 182.456 25.8452 182.172 26.2505C181.889 26.6509 181.748 27.2734 181.748 28.1182ZM192.734 29.8101C192.734 29.5513 192.604 29.3486 192.346 29.2021C192.092 29.0508 191.682 28.9165 191.115 28.7993C189.23 28.4038 188.288 27.603 188.288 26.397C188.288 25.6938 188.579 25.1079 189.16 24.6392C189.746 24.1655 190.51 23.9287 191.452 23.9287C192.458 23.9287 193.261 24.1655 193.862 24.6392C194.467 25.1128 194.77 25.728 194.77 26.4849H192.653C192.653 26.1821 192.556 25.9331 192.36 25.7378C192.165 25.5376 191.86 25.4375 191.445 25.4375C191.088 25.4375 190.812 25.5181 190.617 25.6792C190.422 25.8403 190.324 26.0454 190.324 26.2944C190.324 26.5288 190.434 26.7192 190.654 26.8657C190.878 27.0073 191.254 27.1318 191.782 27.2393C192.309 27.3418 192.753 27.459 193.115 27.5908C194.233 28.001 194.792 28.7114 194.792 29.7222C194.792 30.4448 194.482 31.0308 193.862 31.48C193.242 31.9243 192.441 32.1465 191.459 32.1465C190.795 32.1465 190.205 32.0293 189.687 31.7949C189.174 31.5557 188.771 31.231 188.479 30.8208C188.186 30.4058 188.039 29.959 188.039 29.4805H190.046C190.065 29.8564 190.205 30.1445 190.463 30.3447C190.722 30.5449 191.069 30.645 191.503 30.645C191.909 30.645 192.214 30.5693 192.419 30.418C192.629 30.2617 192.734 30.0591 192.734 29.8101ZM197.89 28.7261C197.89 28.0425 197.973 27.498 198.139 27.0928C198.305 26.6875 198.608 26.2896 199.047 25.8989C199.492 25.5034 199.787 25.1836 199.934 24.9395C200.08 24.6904 200.153 24.4292 200.153 24.1558C200.153 23.3306 199.772 22.918 199.011 22.918C198.649 22.918 198.359 23.0303 198.139 23.2549C197.924 23.4746 197.812 23.7798 197.802 24.1704H195.678C195.688 23.2378 195.988 22.5078 196.579 21.9805C197.175 21.4531 197.985 21.1895 199.011 21.1895C200.046 21.1895 200.849 21.4409 201.42 21.9438C201.992 22.4419 202.277 23.1475 202.277 24.0605C202.277 24.4756 202.185 24.8687 201.999 25.2397C201.813 25.606 201.489 26.0137 201.025 26.4629L200.432 27.0269C200.061 27.3833 199.848 27.8008 199.794 28.2793L199.765 28.7261H197.89ZM197.678 30.9746C197.678 30.6475 197.788 30.3789 198.007 30.1689C198.232 29.9541 198.518 29.8467 198.864 29.8467C199.211 29.8467 199.494 29.9541 199.714 30.1689C199.938 30.3789 200.051 30.6475 200.051 30.9746C200.051 31.2969 199.941 31.563 199.721 31.7729C199.506 31.9829 199.221 32.0879 198.864 32.0879C198.508 32.0879 198.22 31.9829 198 31.7729C197.785 31.563 197.678 31.2969 197.678 30.9746Z" fill="white"/>
<path d="M60.209 81.9507C60.209 82.8133 59.9933 83.5783 59.562 84.2456C59.1307 84.9129 58.5366 85.446 57.7798 85.8447C58.6424 86.2598 59.326 86.8335 59.8306 87.5659C60.3351 88.2902 60.5874 89.1447 60.5874 90.1294C60.5874 91.7082 60.0503 92.9574 58.9761 93.877C57.9019 94.7884 56.4411 95.2441 54.5938 95.2441C52.7464 95.2441 51.2816 94.7843 50.1992 93.8647C49.1169 92.9451 48.5757 91.7 48.5757 90.1294C48.5757 89.1447 48.828 88.2861 49.3325 87.5537C49.8371 86.8213 50.5166 86.2516 51.3711 85.8447C50.6143 85.446 50.0202 84.9129 49.5889 84.2456C49.1657 83.5783 48.9541 82.8133 48.9541 81.9507C48.9541 80.437 49.4587 79.2326 50.4678 78.3374C51.4769 77.4341 52.8481 76.9824 54.5815 76.9824C56.3068 76.9824 57.674 77.43 58.6831 78.3252C59.7004 79.2122 60.209 80.4207 60.209 81.9507ZM57.0474 89.873C57.0474 89.0999 56.8236 88.4814 56.376 88.0176C55.9284 87.5537 55.3262 87.3218 54.5693 87.3218C53.8206 87.3218 53.2225 87.5537 52.7749 88.0176C52.3273 88.4733 52.1035 89.0918 52.1035 89.873C52.1035 90.6299 52.3232 91.2402 52.7627 91.7041C53.2021 92.168 53.8125 92.3999 54.5938 92.3999C55.3587 92.3999 55.9569 92.1761 56.3882 91.7285C56.8276 91.2809 57.0474 90.6624 57.0474 89.873ZM56.6812 82.1216C56.6812 81.4299 56.498 80.8765 56.1318 80.4614C55.7656 80.0382 55.2489 79.8267 54.5815 79.8267C53.9224 79.8267 53.4097 80.0301 53.0435 80.437C52.6772 80.8439 52.4941 81.4054 52.4941 82.1216C52.4941 82.8296 52.6772 83.3993 53.0435 83.8306C53.4097 84.2619 53.9264 84.4775 54.5938 84.4775C55.2611 84.4775 55.7738 84.2619 56.1318 83.8306C56.498 83.3993 56.6812 82.8296 56.6812 82.1216ZM72.5503 77.0435V79.9487H72.2085C70.6134 79.9731 69.3276 80.3882 68.3511 81.1938C67.3826 81.9995 66.8008 83.1185 66.6055 84.5508C67.5495 83.5905 68.7417 83.1104 70.1821 83.1104C71.7284 83.1104 72.9572 83.6637 73.8687 84.7705C74.7801 85.8773 75.2358 87.334 75.2358 89.1406C75.2358 90.2962 74.9836 91.342 74.479 92.2778C73.9826 93.2137 73.2746 93.9421 72.355 94.4629C71.4435 94.9837 70.41 95.2441 69.2544 95.2441C67.3826 95.2441 65.869 94.5931 64.7134 93.291C63.5659 91.9889 62.9922 90.2515 62.9922 88.0786V86.8091C62.9922 84.8804 63.3543 83.1795 64.0786 81.7065C64.811 80.2254 65.8568 79.082 67.2158 78.2764C68.583 77.4626 70.1659 77.0516 71.9644 77.0435H72.5503ZM69.1079 85.9424C68.5382 85.9424 68.0215 86.0929 67.5576 86.394C67.0938 86.687 66.752 87.0776 66.5322 87.5659V88.6401C66.5322 89.8201 66.7642 90.7438 67.228 91.4111C67.6919 92.0703 68.3429 92.3999 69.1812 92.3999C69.938 92.3999 70.5483 92.1029 71.0122 91.5088C71.4842 90.9066 71.7202 90.1294 71.7202 89.1772C71.7202 88.2088 71.4842 87.4276 71.0122 86.8335C70.5402 86.2394 69.9054 85.9424 69.1079 85.9424ZM77.2866 80.6445C77.2866 79.554 77.6406 78.6711 78.3486 77.9956C79.0566 77.312 79.9844 76.9702 81.1318 76.9702C82.2956 76.9702 83.2314 77.3079 83.9395 77.9834C84.6475 78.6507 85.0015 79.5581 85.0015 80.7056V81.5845C85.0015 82.6831 84.6475 83.5661 83.9395 84.2334C83.2314 84.9007 82.3037 85.2344 81.1562 85.2344C80.0007 85.2344 79.0648 84.9007 78.3486 84.2334C77.6406 83.5579 77.2866 82.6506 77.2866 81.5112V80.6445ZM79.6304 81.5845C79.6304 82.0728 79.7687 82.4674 80.0454 82.7686C80.3302 83.0615 80.7005 83.208 81.1562 83.208C81.612 83.208 81.9741 83.0575 82.2427 82.7563C82.5112 82.4552 82.6455 82.0524 82.6455 81.5479V80.6445C82.6455 80.1562 82.5112 79.7616 82.2427 79.4604C81.9741 79.1593 81.6038 79.0088 81.1318 79.0088C80.6842 79.0088 80.3221 79.1593 80.0454 79.4604C79.7687 79.7534 79.6304 80.1644 79.6304 80.6934V81.5845ZM85.7827 90.6421C85.7827 89.5435 86.1408 88.6605 86.8569 87.9932C87.5731 87.3177 88.5008 86.98 89.6401 86.98C90.7957 86.98 91.7275 87.3136 92.4355 87.981C93.1517 88.6401 93.5098 89.5516 93.5098 90.7153V91.5942C93.5098 92.6847 93.1598 93.5677 92.46 94.2432C91.7601 94.9105 90.8283 95.2441 89.6646 95.2441C88.4927 95.2441 87.5527 94.9064 86.8447 94.231C86.1367 93.5555 85.7827 92.6603 85.7827 91.5454V90.6421ZM88.1265 91.5942C88.1265 92.0418 88.2729 92.4243 88.5659 92.7417C88.8589 93.0591 89.2251 93.2178 89.6646 93.2178C90.6574 93.2178 91.1538 92.6685 91.1538 91.5698V90.6421C91.1538 90.1538 91.0155 89.7632 90.7388 89.4702C90.4621 89.1691 90.0959 89.0186 89.6401 89.0186C89.1844 89.0186 88.8182 89.1691 88.5415 89.4702C88.2648 89.7632 88.1265 90.166 88.1265 90.6787V91.5942ZM81.8521 93.6694L80.1309 92.7417L88.8101 78.8501L90.5312 79.7778L81.8521 93.6694Z" fill="#00DDA3"/>
<path d="M57.1938 157H53.666V143.401L49.4546 144.708V141.839L56.8154 139.202H57.1938V157ZM73.417 150.311H75.4312V153.155H73.417V157H69.8892V153.155H62.6016L62.4429 150.933L69.8525 139.227H73.417V150.311ZM65.9585 150.311H69.8892V144.036L69.6572 144.439L65.9585 150.311ZM77.2866 142.645C77.2866 141.554 77.6406 140.671 78.3486 139.996C79.0566 139.312 79.9844 138.97 81.1318 138.97C82.2956 138.97 83.2314 139.308 83.9395 139.983C84.6475 140.651 85.0015 141.558 85.0015 142.706V143.584C85.0015 144.683 84.6475 145.566 83.9395 146.233C83.2314 146.901 82.3037 147.234 81.1562 147.234C80.0007 147.234 79.0648 146.901 78.3486 146.233C77.6406 145.558 77.2866 144.651 77.2866 143.511V142.645ZM79.6304 143.584C79.6304 144.073 79.7687 144.467 80.0454 144.769C80.3302 145.062 80.7005 145.208 81.1562 145.208C81.612 145.208 81.9741 145.057 82.2427 144.756C82.5112 144.455 82.6455 144.052 82.6455 143.548V142.645C82.6455 142.156 82.5112 141.762 82.2427 141.46C81.9741 141.159 81.6038 141.009 81.1318 141.009C80.6842 141.009 80.3221 141.159 80.0454 141.46C79.7687 141.753 79.6304 142.164 79.6304 142.693V143.584ZM85.7827 152.642C85.7827 151.543 86.1408 150.66 86.8569 149.993C87.5731 149.318 88.5008 148.98 89.6401 148.98C90.7957 148.98 91.7275 149.314 92.4355 149.981C93.1517 150.64 93.5098 151.552 93.5098 152.715V153.594C93.5098 154.685 93.1598 155.568 92.46 156.243C91.7601 156.91 90.8283 157.244 89.6646 157.244C88.4927 157.244 87.5527 156.906 86.8447 156.231C86.1367 155.556 85.7827 154.66 85.7827 153.545V152.642ZM88.1265 153.594C88.1265 154.042 88.2729 154.424 88.5659 154.742C88.8589 155.059 89.2251 155.218 89.6646 155.218C90.6574 155.218 91.1538 154.668 91.1538 153.57V152.642C91.1538 152.154 91.0155 151.763 90.7388 151.47C90.4621 151.169 90.0959 151.019 89.6401 151.019C89.1844 151.019 88.8182 151.169 88.5415 151.47C88.2648 151.763 88.1265 152.166 88.1265 152.679V153.594ZM81.8521 155.669L80.1309 154.742L88.8101 140.85L90.5312 141.778L81.8521 155.669Z" fill="white"/>
<path d="M111.504 141.197C110.539 140.92 109.836 140.58 109.395 140.178C108.957 139.771 108.738 139.271 108.738 138.678C108.738 138.006 109.006 137.451 109.541 137.014C110.08 136.572 110.779 136.352 111.639 136.352C112.225 136.352 112.746 136.465 113.203 136.691C113.664 136.918 114.02 137.23 114.27 137.629C114.523 138.027 114.65 138.463 114.65 138.936H113.52C113.52 138.42 113.355 138.016 113.027 137.723C112.699 137.426 112.236 137.277 111.639 137.277C111.084 137.277 110.65 137.4 110.338 137.646C110.029 137.889 109.875 138.227 109.875 138.66C109.875 139.008 110.021 139.303 110.314 139.545C110.611 139.783 111.113 140.002 111.82 140.201C112.531 140.4 113.086 140.621 113.484 140.863C113.887 141.102 114.184 141.381 114.375 141.701C114.57 142.021 114.668 142.398 114.668 142.832C114.668 143.523 114.398 144.078 113.859 144.496C113.32 144.91 112.6 145.117 111.697 145.117C111.111 145.117 110.564 145.006 110.057 144.783C109.549 144.557 109.156 144.248 108.879 143.857C108.605 143.467 108.469 143.023 108.469 142.527H109.6C109.6 143.043 109.789 143.451 110.168 143.752C110.551 144.049 111.061 144.197 111.697 144.197C112.291 144.197 112.746 144.076 113.062 143.834C113.379 143.592 113.537 143.262 113.537 142.844C113.537 142.426 113.391 142.104 113.098 141.877C112.805 141.646 112.273 141.42 111.504 141.197ZM115.658 141.771C115.658 141.15 115.779 140.592 116.021 140.096C116.268 139.6 116.607 139.217 117.041 138.947C117.479 138.678 117.977 138.543 118.535 138.543C119.398 138.543 120.096 138.842 120.627 139.439C121.162 140.037 121.43 140.832 121.43 141.824V141.9C121.43 142.518 121.311 143.072 121.072 143.564C120.838 144.053 120.5 144.434 120.059 144.707C119.621 144.98 119.117 145.117 118.547 145.117C117.688 145.117 116.99 144.818 116.455 144.221C115.924 143.623 115.658 142.832 115.658 141.848V141.771ZM116.748 141.9C116.748 142.604 116.91 143.168 117.234 143.594C117.562 144.02 118 144.232 118.547 144.232C119.098 144.232 119.535 144.018 119.859 143.588C120.184 143.154 120.346 142.549 120.346 141.771C120.346 141.076 120.18 140.514 119.848 140.084C119.52 139.65 119.082 139.434 118.535 139.434C118 139.434 117.568 139.646 117.24 140.072C116.912 140.498 116.748 141.107 116.748 141.9ZM125.332 144.232C125.719 144.232 126.057 144.115 126.346 143.881C126.635 143.646 126.795 143.354 126.826 143.002H127.852C127.832 143.365 127.707 143.711 127.477 144.039C127.246 144.367 126.938 144.629 126.551 144.824C126.168 145.02 125.762 145.117 125.332 145.117C124.469 145.117 123.781 144.83 123.27 144.256C122.762 143.678 122.508 142.889 122.508 141.889V141.707C122.508 141.09 122.621 140.541 122.848 140.061C123.074 139.58 123.398 139.207 123.82 138.941C124.246 138.676 124.748 138.543 125.326 138.543C126.037 138.543 126.627 138.756 127.096 139.182C127.568 139.607 127.82 140.16 127.852 140.84H126.826C126.795 140.43 126.639 140.094 126.357 139.832C126.08 139.566 125.736 139.434 125.326 139.434C124.775 139.434 124.348 139.633 124.043 140.031C123.742 140.426 123.592 140.998 123.592 141.748V141.953C123.592 142.684 123.742 143.246 124.043 143.641C124.344 144.035 124.773 144.232 125.332 144.232ZM130.248 145H129.164V138.66H130.248V145ZM129.076 136.979C129.076 136.803 129.129 136.654 129.234 136.533C129.344 136.412 129.504 136.352 129.715 136.352C129.926 136.352 130.086 136.412 130.195 136.533C130.305 136.654 130.359 136.803 130.359 136.979C130.359 137.154 130.305 137.301 130.195 137.418C130.086 137.535 129.926 137.594 129.715 137.594C129.504 137.594 129.344 137.535 129.234 137.418C129.129 137.301 129.076 137.154 129.076 136.979ZM131.701 141.771C131.701 141.15 131.822 140.592 132.064 140.096C132.311 139.6 132.65 139.217 133.084 138.947C133.521 138.678 134.02 138.543 134.578 138.543C135.441 138.543 136.139 138.842 136.67 139.439C137.205 140.037 137.473 140.832 137.473 141.824V141.9C137.473 142.518 137.354 143.072 137.115 143.564C136.881 144.053 136.543 144.434 136.102 144.707C135.664 144.98 135.16 145.117 134.59 145.117C133.73 145.117 133.033 144.818 132.498 144.221C131.967 143.623 131.701 142.832 131.701 141.848V141.771ZM132.791 141.9C132.791 142.604 132.953 143.168 133.277 143.594C133.605 144.02 134.043 144.232 134.59 144.232C135.141 144.232 135.578 144.018 135.902 143.588C136.227 143.154 136.389 142.549 136.389 141.771C136.389 141.076 136.223 140.514 135.891 140.084C135.562 139.65 135.125 139.434 134.578 139.434C134.043 139.434 133.611 139.646 133.283 140.072C132.955 140.498 132.791 141.107 132.791 141.9ZM142.523 143.318C142.523 143.025 142.412 142.799 142.189 142.639C141.971 142.475 141.586 142.334 141.035 142.217C140.488 142.1 140.053 141.959 139.729 141.795C139.408 141.631 139.17 141.436 139.014 141.209C138.861 140.982 138.785 140.713 138.785 140.4C138.785 139.881 139.004 139.441 139.441 139.082C139.883 138.723 140.445 138.543 141.129 138.543C141.848 138.543 142.43 138.729 142.875 139.1C143.324 139.471 143.549 139.945 143.549 140.523H142.459C142.459 140.227 142.332 139.971 142.078 139.756C141.828 139.541 141.512 139.434 141.129 139.434C140.734 139.434 140.426 139.52 140.203 139.691C139.98 139.863 139.869 140.088 139.869 140.365C139.869 140.627 139.973 140.824 140.18 140.957C140.387 141.09 140.76 141.217 141.299 141.338C141.842 141.459 142.281 141.604 142.617 141.771C142.953 141.939 143.201 142.143 143.361 142.381C143.525 142.615 143.607 142.902 143.607 143.242C143.607 143.809 143.381 144.264 142.928 144.607C142.475 144.947 141.887 145.117 141.164 145.117C140.656 145.117 140.207 145.027 139.816 144.848C139.426 144.668 139.119 144.418 138.896 144.098C138.678 143.773 138.568 143.424 138.568 143.049H139.652C139.672 143.412 139.816 143.701 140.086 143.916C140.359 144.127 140.719 144.232 141.164 144.232C141.574 144.232 141.902 144.15 142.148 143.986C142.398 143.818 142.523 143.596 142.523 143.318ZM151.102 140.424H153.48V141.449H151.102V144.145H150.012V141.449H147.633V140.424H150.012V137.934H151.102V140.424ZM108.99 159V150.469H111.398C112.141 150.469 112.797 150.633 113.367 150.961C113.938 151.289 114.377 151.756 114.686 152.361C114.998 152.967 115.156 153.662 115.16 154.447V154.992C115.16 155.797 115.004 156.502 114.691 157.107C114.383 157.713 113.939 158.178 113.361 158.502C112.787 158.826 112.117 158.992 111.352 159H108.99ZM110.115 151.395V158.08H111.299C112.166 158.08 112.84 157.811 113.32 157.271C113.805 156.732 114.047 155.965 114.047 154.969V154.471C114.047 153.502 113.818 152.75 113.361 152.215C112.908 151.676 112.264 151.402 111.428 151.395H110.115ZM116.408 155.771C116.408 155.15 116.529 154.592 116.771 154.096C117.018 153.6 117.357 153.217 117.791 152.947C118.229 152.678 118.727 152.543 119.285 152.543C120.148 152.543 120.846 152.842 121.377 153.439C121.912 154.037 122.18 154.832 122.18 155.824V155.9C122.18 156.518 122.061 157.072 121.822 157.564C121.588 158.053 121.25 158.434 120.809 158.707C120.371 158.98 119.867 159.117 119.297 159.117C118.438 159.117 117.74 158.818 117.205 158.221C116.674 157.623 116.408 156.832 116.408 155.848V155.771ZM117.498 155.9C117.498 156.604 117.66 157.168 117.984 157.594C118.312 158.02 118.75 158.232 119.297 158.232C119.848 158.232 120.285 158.018 120.609 157.588C120.934 157.154 121.096 156.549 121.096 155.771C121.096 155.076 120.93 154.514 120.598 154.084C120.27 153.65 119.832 153.434 119.285 153.434C118.75 153.434 118.318 153.646 117.99 154.072C117.662 154.498 117.498 155.107 117.498 155.9ZM124.564 152.66L124.6 153.457C125.084 152.848 125.717 152.543 126.498 152.543C127.838 152.543 128.514 153.299 128.525 154.811V159H127.441V154.805C127.438 154.348 127.332 154.01 127.125 153.791C126.922 153.572 126.604 153.463 126.17 153.463C125.818 153.463 125.51 153.557 125.244 153.744C124.979 153.932 124.771 154.178 124.623 154.482V159H123.539V152.66H124.564ZM134.074 159C134.012 158.875 133.961 158.652 133.922 158.332C133.418 158.855 132.816 159.117 132.117 159.117C131.492 159.117 130.979 158.941 130.576 158.59C130.178 158.234 129.979 157.785 129.979 157.242C129.979 156.582 130.229 156.07 130.729 155.707C131.232 155.34 131.939 155.156 132.85 155.156H133.904V154.658C133.904 154.279 133.791 153.979 133.564 153.756C133.338 153.529 133.004 153.416 132.562 153.416C132.176 153.416 131.852 153.514 131.59 153.709C131.328 153.904 131.197 154.141 131.197 154.418H130.107C130.107 154.102 130.219 153.797 130.441 153.504C130.668 153.207 130.973 152.973 131.355 152.801C131.742 152.629 132.166 152.543 132.627 152.543C133.357 152.543 133.93 152.727 134.344 153.094C134.758 153.457 134.973 153.959 134.988 154.6V157.518C134.988 158.1 135.062 158.562 135.211 158.906V159H134.074ZM132.275 158.174C132.615 158.174 132.938 158.086 133.242 157.91C133.547 157.734 133.768 157.506 133.904 157.225V155.924H133.055C131.727 155.924 131.062 156.312 131.062 157.09C131.062 157.43 131.176 157.695 131.402 157.887C131.629 158.078 131.92 158.174 132.275 158.174ZM138.158 151.125V152.66H139.342V153.498H138.158V157.43C138.158 157.684 138.211 157.875 138.316 158.004C138.422 158.129 138.602 158.191 138.855 158.191C138.98 158.191 139.152 158.168 139.371 158.121V159C139.086 159.078 138.809 159.117 138.539 159.117C138.055 159.117 137.689 158.971 137.443 158.678C137.197 158.385 137.074 157.969 137.074 157.43V153.498H135.92V152.66H137.074V151.125H138.158ZM141.791 159H140.707V152.66H141.791V159ZM140.619 150.979C140.619 150.803 140.672 150.654 140.777 150.533C140.887 150.412 141.047 150.352 141.258 150.352C141.469 150.352 141.629 150.412 141.738 150.533C141.848 150.654 141.902 150.803 141.902 150.979C141.902 151.154 141.848 151.301 141.738 151.418C141.629 151.535 141.469 151.594 141.258 151.594C141.047 151.594 140.887 151.535 140.777 151.418C140.672 151.301 140.619 151.154 140.619 150.979ZM145.623 157.529L147.193 152.66H148.301L146.027 159H145.201L142.904 152.66H144.012L145.623 157.529ZM148.963 155.771C148.963 155.15 149.084 154.592 149.326 154.096C149.572 153.6 149.912 153.217 150.346 152.947C150.783 152.678 151.281 152.543 151.84 152.543C152.703 152.543 153.4 152.842 153.932 153.439C154.467 154.037 154.734 154.832 154.734 155.824V155.9C154.734 156.518 154.615 157.072 154.377 157.564C154.143 158.053 153.805 158.434 153.363 158.707C152.926 158.98 152.422 159.117 151.852 159.117C150.992 159.117 150.295 158.818 149.76 158.221C149.229 157.623 148.963 156.832 148.963 155.848V155.771ZM150.053 155.9C150.053 156.604 150.215 157.168 150.539 157.594C150.867 158.02 151.305 158.232 151.852 158.232C152.402 158.232 152.84 158.018 153.164 157.588C153.488 157.154 153.65 156.549 153.65 155.771C153.65 155.076 153.484 154.514 153.152 154.084C152.824 153.65 152.387 153.434 151.84 153.434C151.305 153.434 150.873 153.646 150.545 154.072C150.217 154.498 150.053 155.107 150.053 155.9ZM159.785 157.318C159.785 157.025 159.674 156.799 159.451 156.639C159.232 156.475 158.848 156.334 158.297 156.217C157.75 156.1 157.314 155.959 156.99 155.795C156.67 155.631 156.432 155.436 156.275 155.209C156.123 154.982 156.047 154.713 156.047 154.4C156.047 153.881 156.266 153.441 156.703 153.082C157.145 152.723 157.707 152.543 158.391 152.543C159.109 152.543 159.691 152.729 160.137 153.1C160.586 153.471 160.811 153.945 160.811 154.523H159.721C159.721 154.227 159.594 153.971 159.34 153.756C159.09 153.541 158.773 153.434 158.391 153.434C157.996 153.434 157.688 153.52 157.465 153.691C157.242 153.863 157.131 154.088 157.131 154.365C157.131 154.627 157.234 154.824 157.441 154.957C157.648 155.09 158.021 155.217 158.561 155.338C159.104 155.459 159.543 155.604 159.879 155.771C160.215 155.939 160.463 156.143 160.623 156.381C160.787 156.615 160.869 156.902 160.869 157.242C160.869 157.809 160.643 158.264 160.189 158.607C159.736 158.947 159.148 159.117 158.426 159.117C157.918 159.117 157.469 159.027 157.078 158.848C156.688 158.668 156.381 158.418 156.158 158.098C155.939 157.773 155.83 157.424 155.83 157.049H156.914C156.934 157.412 157.078 157.701 157.348 157.916C157.621 158.127 157.98 158.232 158.426 158.232C158.836 158.232 159.164 158.15 159.41 157.986C159.66 157.818 159.785 157.596 159.785 157.318ZM170.613 155.9C170.613 156.865 170.393 157.643 169.951 158.232C169.51 158.822 168.912 159.117 168.158 159.117C167.389 159.117 166.783 158.873 166.342 158.385V161.438H165.258V152.66H166.248L166.301 153.363C166.742 152.816 167.355 152.543 168.141 152.543C168.902 152.543 169.504 152.83 169.945 153.404C170.391 153.979 170.613 154.777 170.613 155.801V155.9ZM169.529 155.777C169.529 155.062 169.377 154.498 169.072 154.084C168.768 153.67 168.35 153.463 167.818 153.463C167.162 153.463 166.67 153.754 166.342 154.336V157.365C166.666 157.943 167.162 158.232 167.83 158.232C168.35 158.232 168.762 158.027 169.066 157.617C169.375 157.203 169.529 156.59 169.529 155.777ZM175.061 153.633C174.896 153.605 174.719 153.592 174.527 153.592C173.816 153.592 173.334 153.895 173.08 154.5V159H171.996V152.66H173.051L173.068 153.393C173.424 152.826 173.928 152.543 174.58 152.543C174.791 152.543 174.951 152.57 175.061 152.625V153.633ZM177.24 159H176.156V152.66H177.24V159ZM176.068 150.979C176.068 150.803 176.121 150.654 176.227 150.533C176.336 150.412 176.496 150.352 176.707 150.352C176.918 150.352 177.078 150.412 177.188 150.533C177.297 150.654 177.352 150.803 177.352 150.979C177.352 151.154 177.297 151.301 177.188 151.418C177.078 151.535 176.918 151.594 176.707 151.594C176.496 151.594 176.336 151.535 176.227 151.418C176.121 151.301 176.068 151.154 176.068 150.979ZM181.072 157.529L182.643 152.66H183.75L181.477 159H180.65L178.354 152.66H179.461L181.072 157.529ZM188.613 159C188.551 158.875 188.5 158.652 188.461 158.332C187.957 158.855 187.355 159.117 186.656 159.117C186.031 159.117 185.518 158.941 185.115 158.59C184.717 158.234 184.518 157.785 184.518 157.242C184.518 156.582 184.768 156.07 185.268 155.707C185.771 155.34 186.479 155.156 187.389 155.156H188.443V154.658C188.443 154.279 188.33 153.979 188.104 153.756C187.877 153.529 187.543 153.416 187.102 153.416C186.715 153.416 186.391 153.514 186.129 153.709C185.867 153.904 185.736 154.141 185.736 154.418H184.646C184.646 154.102 184.758 153.797 184.98 153.504C185.207 153.207 185.512 152.973 185.895 152.801C186.281 152.629 186.705 152.543 187.166 152.543C187.896 152.543 188.469 152.727 188.883 153.094C189.297 153.457 189.512 153.959 189.527 154.6V157.518C189.527 158.1 189.602 158.562 189.75 158.906V159H188.613ZM186.814 158.174C187.154 158.174 187.477 158.086 187.781 157.91C188.086 157.734 188.307 157.506 188.443 157.225V155.924H187.594C186.266 155.924 185.602 156.312 185.602 157.09C185.602 157.43 185.715 157.695 185.941 157.887C186.168 158.078 186.459 158.174 186.814 158.174ZM190.963 155.777C190.963 154.805 191.193 154.023 191.654 153.434C192.115 152.84 192.719 152.543 193.465 152.543C194.207 152.543 194.795 152.797 195.229 153.305V150H196.312V159H195.316L195.264 158.32C194.83 158.852 194.227 159.117 193.453 159.117C192.719 159.117 192.119 158.816 191.654 158.215C191.193 157.613 190.963 156.828 190.963 155.859V155.777ZM192.047 155.9C192.047 156.619 192.195 157.182 192.492 157.588C192.789 157.994 193.199 158.197 193.723 158.197C194.41 158.197 194.912 157.889 195.229 157.271V154.359C194.904 153.762 194.406 153.463 193.734 153.463C193.203 153.463 192.789 153.668 192.492 154.078C192.195 154.488 192.047 155.096 192.047 155.9ZM197.713 155.771C197.713 155.15 197.834 154.592 198.076 154.096C198.322 153.6 198.662 153.217 199.096 152.947C199.533 152.678 200.031 152.543 200.59 152.543C201.453 152.543 202.15 152.842 202.682 153.439C203.217 154.037 203.484 154.832 203.484 155.824V155.9C203.484 156.518 203.365 157.072 203.127 157.564C202.893 158.053 202.555 158.434 202.113 158.707C201.676 158.98 201.172 159.117 200.602 159.117C199.742 159.117 199.045 158.818 198.51 158.221C197.979 157.623 197.713 156.832 197.713 155.848V155.771ZM198.803 155.9C198.803 156.604 198.965 157.168 199.289 157.594C199.617 158.02 200.055 158.232 200.602 158.232C201.152 158.232 201.59 158.018 201.914 157.588C202.238 157.154 202.4 156.549 202.4 155.771C202.4 155.076 202.234 154.514 201.902 154.084C201.574 153.65 201.137 153.434 200.59 153.434C200.055 153.434 199.623 153.646 199.295 154.072C198.967 154.498 198.803 155.107 198.803 155.9ZM208.535 157.318C208.535 157.025 208.424 156.799 208.201 156.639C207.982 156.475 207.598 156.334 207.047 156.217C206.5 156.1 206.064 155.959 205.74 155.795C205.42 155.631 205.182 155.436 205.025 155.209C204.873 154.982 204.797 154.713 204.797 154.4C204.797 153.881 205.016 153.441 205.453 153.082C205.895 152.723 206.457 152.543 207.141 152.543C207.859 152.543 208.441 152.729 208.887 153.1C209.336 153.471 209.561 153.945 209.561 154.523H208.471C208.471 154.227 208.344 153.971 208.09 153.756C207.84 153.541 207.523 153.434 207.141 153.434C206.746 153.434 206.438 153.52 206.215 153.691C205.992 153.863 205.881 154.088 205.881 154.365C205.881 154.627 205.984 154.824 206.191 154.957C206.398 155.09 206.771 155.217 207.311 155.338C207.854 155.459 208.293 155.604 208.629 155.771C208.965 155.939 209.213 156.143 209.373 156.381C209.537 156.615 209.619 156.902 209.619 157.242C209.619 157.809 209.393 158.264 208.939 158.607C208.486 158.947 207.898 159.117 207.176 159.117C206.668 159.117 206.219 159.027 205.828 158.848C205.438 158.668 205.131 158.418 204.908 158.098C204.689 157.773 204.58 157.424 204.58 157.049H205.664C205.684 157.412 205.828 157.701 206.098 157.916C206.371 158.127 206.73 158.232 207.176 158.232C207.586 158.232 207.914 158.15 208.16 157.986C208.41 157.818 208.535 157.596 208.535 157.318ZM217.113 154.424H219.492V155.449H217.113V158.145H216.023V155.449H213.645V154.424H216.023V151.934H217.113V154.424ZM108.99 173V164.469H111.398C112.141 164.469 112.797 164.633 113.367 164.961C113.938 165.289 114.377 165.756 114.686 166.361C114.998 166.967 115.156 167.662 115.16 168.447V168.992C115.16 169.797 115.004 170.502 114.691 171.107C114.383 171.713 113.939 172.178 113.361 172.502C112.787 172.826 112.117 172.992 111.352 173H108.99ZM110.115 165.395V172.08H111.299C112.166 172.08 112.84 171.811 113.32 171.271C113.805 170.732 114.047 169.965 114.047 168.969V168.471C114.047 167.502 113.818 166.75 113.361 166.215C112.908 165.676 112.264 165.402 111.428 165.395H110.115ZM116.408 169.771C116.408 169.15 116.529 168.592 116.771 168.096C117.018 167.6 117.357 167.217 117.791 166.947C118.229 166.678 118.727 166.543 119.285 166.543C120.148 166.543 120.846 166.842 121.377 167.439C121.912 168.037 122.18 168.832 122.18 169.824V169.9C122.18 170.518 122.061 171.072 121.822 171.564C121.588 172.053 121.25 172.434 120.809 172.707C120.371 172.98 119.867 173.117 119.297 173.117C118.438 173.117 117.74 172.818 117.205 172.221C116.674 171.623 116.408 170.832 116.408 169.848V169.771ZM117.498 169.9C117.498 170.604 117.66 171.168 117.984 171.594C118.312 172.02 118.75 172.232 119.297 172.232C119.848 172.232 120.285 172.018 120.609 171.588C120.934 171.154 121.096 170.549 121.096 169.771C121.096 169.076 120.93 168.514 120.598 168.084C120.27 167.65 119.832 167.434 119.285 167.434C118.75 167.434 118.318 167.646 117.99 168.072C117.662 168.498 117.498 169.107 117.498 169.9ZM124.564 166.66L124.6 167.457C125.084 166.848 125.717 166.543 126.498 166.543C127.838 166.543 128.514 167.299 128.525 168.811V173H127.441V168.805C127.438 168.348 127.332 168.01 127.125 167.791C126.922 167.572 126.604 167.463 126.17 167.463C125.818 167.463 125.51 167.557 125.244 167.744C124.979 167.932 124.771 168.178 124.623 168.482V173H123.539V166.66H124.564ZM134.074 173C134.012 172.875 133.961 172.652 133.922 172.332C133.418 172.855 132.816 173.117 132.117 173.117C131.492 173.117 130.979 172.941 130.576 172.59C130.178 172.234 129.979 171.785 129.979 171.242C129.979 170.582 130.229 170.07 130.729 169.707C131.232 169.34 131.939 169.156 132.85 169.156H133.904V168.658C133.904 168.279 133.791 167.979 133.564 167.756C133.338 167.529 133.004 167.416 132.562 167.416C132.176 167.416 131.852 167.514 131.59 167.709C131.328 167.904 131.197 168.141 131.197 168.418H130.107C130.107 168.102 130.219 167.797 130.441 167.504C130.668 167.207 130.973 166.973 131.355 166.801C131.742 166.629 132.166 166.543 132.627 166.543C133.357 166.543 133.93 166.727 134.344 167.094C134.758 167.457 134.973 167.959 134.988 168.6V171.518C134.988 172.1 135.062 172.562 135.211 172.906V173H134.074ZM132.275 172.174C132.615 172.174 132.938 172.086 133.242 171.91C133.547 171.734 133.768 171.506 133.904 171.225V169.924H133.055C131.727 169.924 131.062 170.312 131.062 171.09C131.062 171.43 131.176 171.695 131.402 171.887C131.629 172.078 131.92 172.174 132.275 172.174ZM138.158 165.125V166.66H139.342V167.498H138.158V171.43C138.158 171.684 138.211 171.875 138.316 172.004C138.422 172.129 138.602 172.191 138.855 172.191C138.98 172.191 139.152 172.168 139.371 172.121V173C139.086 173.078 138.809 173.117 138.539 173.117C138.055 173.117 137.689 172.971 137.443 172.678C137.197 172.385 137.074 171.969 137.074 171.43V167.498H135.92V166.66H137.074V165.125H138.158ZM141.791 173H140.707V166.66H141.791V173ZM140.619 164.979C140.619 164.803 140.672 164.654 140.777 164.533C140.887 164.412 141.047 164.352 141.258 164.352C141.469 164.352 141.629 164.412 141.738 164.533C141.848 164.654 141.902 164.803 141.902 164.979C141.902 165.154 141.848 165.301 141.738 165.418C141.629 165.535 141.469 165.594 141.258 165.594C141.047 165.594 140.887 165.535 140.777 165.418C140.672 165.301 140.619 165.154 140.619 164.979ZM145.623 171.529L147.193 166.66H148.301L146.027 173H145.201L142.904 166.66H144.012L145.623 171.529ZM148.963 169.771C148.963 169.15 149.084 168.592 149.326 168.096C149.572 167.6 149.912 167.217 150.346 166.947C150.783 166.678 151.281 166.543 151.84 166.543C152.703 166.543 153.4 166.842 153.932 167.439C154.467 168.037 154.734 168.832 154.734 169.824V169.9C154.734 170.518 154.615 171.072 154.377 171.564C154.143 172.053 153.805 172.434 153.363 172.707C152.926 172.98 152.422 173.117 151.852 173.117C150.992 173.117 150.295 172.818 149.76 172.221C149.229 171.623 148.963 170.832 148.963 169.848V169.771ZM150.053 169.9C150.053 170.604 150.215 171.168 150.539 171.594C150.867 172.02 151.305 172.232 151.852 172.232C152.402 172.232 152.84 172.018 153.164 171.588C153.488 171.154 153.65 170.549 153.65 169.771C153.65 169.076 153.484 168.514 153.152 168.084C152.824 167.65 152.387 167.434 151.84 167.434C151.305 167.434 150.873 167.646 150.545 168.072C150.217 168.498 150.053 169.107 150.053 169.9ZM159.785 171.318C159.785 171.025 159.674 170.799 159.451 170.639C159.232 170.475 158.848 170.334 158.297 170.217C157.75 170.1 157.314 169.959 156.99 169.795C156.67 169.631 156.432 169.436 156.275 169.209C156.123 168.982 156.047 168.713 156.047 168.4C156.047 167.881 156.266 167.441 156.703 167.082C157.145 166.723 157.707 166.543 158.391 166.543C159.109 166.543 159.691 166.729 160.137 167.1C160.586 167.471 160.811 167.945 160.811 168.523H159.721C159.721 168.227 159.594 167.971 159.34 167.756C159.09 167.541 158.773 167.434 158.391 167.434C157.996 167.434 157.688 167.52 157.465 167.691C157.242 167.863 157.131 168.088 157.131 168.365C157.131 168.627 157.234 168.824 157.441 168.957C157.648 169.09 158.021 169.217 158.561 169.338C159.104 169.459 159.543 169.604 159.879 169.771C160.215 169.939 160.463 170.143 160.623 170.381C160.787 170.615 160.869 170.902 160.869 171.242C160.869 171.809 160.643 172.264 160.189 172.607C159.736 172.947 159.148 173.117 158.426 173.117C157.918 173.117 157.469 173.027 157.078 172.848C156.688 172.668 156.381 172.418 156.158 172.098C155.939 171.773 155.83 171.424 155.83 171.049H156.914C156.934 171.412 157.078 171.701 157.348 171.916C157.621 172.127 157.98 172.232 158.426 172.232C158.836 172.232 159.164 172.15 159.41 171.986C159.66 171.818 159.785 171.596 159.785 171.318ZM170.613 169.9C170.613 170.865 170.393 171.643 169.951 172.232C169.51 172.822 168.912 173.117 168.158 173.117C167.389 173.117 166.783 172.873 166.342 172.385V175.438H165.258V166.66H166.248L166.301 167.363C166.742 166.816 167.355 166.543 168.141 166.543C168.902 166.543 169.504 166.83 169.945 167.404C170.391 167.979 170.613 168.777 170.613 169.801V169.9ZM169.529 169.777C169.529 169.062 169.377 168.498 169.072 168.084C168.768 167.67 168.35 167.463 167.818 167.463C167.162 167.463 166.67 167.754 166.342 168.336V171.365C166.666 171.943 167.162 172.232 167.83 172.232C168.35 172.232 168.762 172.027 169.066 171.617C169.375 171.203 169.529 170.59 169.529 169.777ZM177.363 169.9C177.363 170.869 177.141 171.648 176.695 172.238C176.25 172.824 175.652 173.117 174.902 173.117C174.102 173.117 173.482 172.834 173.045 172.268L172.992 173H171.996V164H173.08V167.357C173.518 166.814 174.121 166.543 174.891 166.543C175.66 166.543 176.264 166.834 176.701 167.416C177.143 167.998 177.363 168.795 177.363 169.807V169.9ZM176.279 169.777C176.279 169.039 176.137 168.469 175.852 168.066C175.566 167.664 175.156 167.463 174.621 167.463C173.906 167.463 173.393 167.795 173.08 168.459V171.201C173.412 171.865 173.93 172.197 174.633 172.197C175.152 172.197 175.557 171.996 175.846 171.594C176.135 171.191 176.279 170.586 176.279 169.777ZM179.912 173H178.828V164H179.912V173ZM182.83 173H181.746V166.66H182.83V173ZM181.658 164.979C181.658 164.803 181.711 164.654 181.816 164.533C181.926 164.412 182.086 164.352 182.297 164.352C182.508 164.352 182.668 164.412 182.777 164.533C182.887 164.654 182.941 164.803 182.941 164.979C182.941 165.154 182.887 165.301 182.777 165.418C182.668 165.535 182.508 165.594 182.297 165.594C182.086 165.594 181.926 165.535 181.816 165.418C181.711 165.301 181.658 165.154 181.658 164.979ZM187.113 172.232C187.5 172.232 187.838 172.115 188.127 171.881C188.416 171.646 188.576 171.354 188.607 171.002H189.633C189.613 171.365 189.488 171.711 189.258 172.039C189.027 172.367 188.719 172.629 188.332 172.824C187.949 173.02 187.543 173.117 187.113 173.117C186.25 173.117 185.562 172.83 185.051 172.256C184.543 171.678 184.289 170.889 184.289 169.889V169.707C184.289 169.09 184.402 168.541 184.629 168.061C184.855 167.58 185.18 167.207 185.602 166.941C186.027 166.676 186.529 166.543 187.107 166.543C187.818 166.543 188.408 166.756 188.877 167.182C189.35 167.607 189.602 168.16 189.633 168.84H188.607C188.576 168.43 188.42 168.094 188.139 167.832C187.861 167.566 187.518 167.434 187.107 167.434C186.557 167.434 186.129 167.633 185.824 168.031C185.523 168.426 185.373 168.998 185.373 169.748V169.953C185.373 170.684 185.523 171.246 185.824 171.641C186.125 172.035 186.555 172.232 187.113 172.232ZM190.564 169.771C190.564 169.15 190.686 168.592 190.928 168.096C191.174 167.6 191.514 167.217 191.947 166.947C192.385 166.678 192.883 166.543 193.441 166.543C194.305 166.543 195.002 166.842 195.533 167.439C196.068 168.037 196.336 168.832 196.336 169.824V169.9C196.336 170.518 196.217 171.072 195.979 171.564C195.744 172.053 195.406 172.434 194.965 172.707C194.527 172.98 194.023 173.117 193.453 173.117C192.594 173.117 191.896 172.818 191.361 172.221C190.83 171.623 190.564 170.832 190.564 169.848V169.771ZM191.654 169.9C191.654 170.604 191.816 171.168 192.141 171.594C192.469 172.02 192.906 172.232 193.453 172.232C194.004 172.232 194.441 172.018 194.766 171.588C195.09 171.154 195.252 170.549 195.252 169.771C195.252 169.076 195.086 168.514 194.754 168.084C194.426 167.65 193.988 167.434 193.441 167.434C192.906 167.434 192.475 167.646 192.146 168.072C191.818 168.498 191.654 169.107 191.654 169.9ZM201.387 171.318C201.387 171.025 201.275 170.799 201.053 170.639C200.834 170.475 200.449 170.334 199.898 170.217C199.352 170.1 198.916 169.959 198.592 169.795C198.271 169.631 198.033 169.436 197.877 169.209C197.725 168.982 197.648 168.713 197.648 168.4C197.648 167.881 197.867 167.441 198.305 167.082C198.746 166.723 199.309 166.543 199.992 166.543C200.711 166.543 201.293 166.729 201.738 167.1C202.188 167.471 202.412 167.945 202.412 168.523H201.322C201.322 168.227 201.195 167.971 200.941 167.756C200.691 167.541 200.375 167.434 199.992 167.434C199.598 167.434 199.289 167.52 199.066 167.691C198.844 167.863 198.732 168.088 198.732 168.365C198.732 168.627 198.836 168.824 199.043 168.957C199.25 169.09 199.623 169.217 200.162 169.338C200.705 169.459 201.145 169.604 201.48 169.771C201.816 169.939 202.064 170.143 202.225 170.381C202.389 170.615 202.471 170.902 202.471 171.242C202.471 171.809 202.244 172.264 201.791 172.607C201.338 172.947 200.75 173.117 200.027 173.117C199.52 173.117 199.07 173.027 198.68 172.848C198.289 172.668 197.982 172.418 197.76 172.098C197.541 171.773 197.432 171.424 197.432 171.049H198.516C198.535 171.412 198.68 171.701 198.949 171.916C199.223 172.127 199.582 172.232 200.027 172.232C200.438 172.232 200.766 172.15 201.012 171.986C201.262 171.818 201.387 171.596 201.387 171.318Z" fill="white"/>
<path d="M113.695 83.2324H110.115V87H108.99V78.4688H114.275V79.3945H110.115V82.3125H113.695V83.2324ZM115.037 83.7715C115.037 83.1504 115.158 82.5918 115.4 82.0957C115.646 81.5996 115.986 81.2168 116.42 80.9473C116.857 80.6777 117.355 80.543 117.914 80.543C118.777 80.543 119.475 80.8418 120.006 81.4395C120.541 82.0371 120.809 82.832 120.809 83.8242V83.9004C120.809 84.5176 120.689 85.0723 120.451 85.5645C120.217 86.0527 119.879 86.4336 119.438 86.707C119 86.9805 118.496 87.1172 117.926 87.1172C117.066 87.1172 116.369 86.8184 115.834 86.2207C115.303 85.623 115.037 84.832 115.037 83.8477V83.7715ZM116.127 83.9004C116.127 84.6035 116.289 85.168 116.613 85.5938C116.941 86.0195 117.379 86.2324 117.926 86.2324C118.477 86.2324 118.914 86.0176 119.238 85.5879C119.562 85.1543 119.725 84.5488 119.725 83.7715C119.725 83.0762 119.559 82.5137 119.227 82.084C118.898 81.6504 118.461 81.4336 117.914 81.4336C117.379 81.4336 116.947 81.6465 116.619 82.0723C116.291 82.498 116.127 83.1074 116.127 83.9004ZM123.193 80.6602L123.229 81.457C123.713 80.8477 124.346 80.543 125.127 80.543C126.467 80.543 127.143 81.2988 127.154 82.8105V87H126.07V82.8047C126.066 82.3477 125.961 82.0098 125.754 81.791C125.551 81.5723 125.232 81.4629 124.799 81.4629C124.447 81.4629 124.139 81.5566 123.873 81.7441C123.607 81.9316 123.4 82.1777 123.252 82.4824V87H122.168V80.6602H123.193ZM128.525 83.7773C128.525 82.8047 128.756 82.0234 129.217 81.4336C129.678 80.8398 130.281 80.543 131.027 80.543C131.77 80.543 132.357 80.7969 132.791 81.3047V78H133.875V87H132.879L132.826 86.3203C132.393 86.8516 131.789 87.1172 131.016 87.1172C130.281 87.1172 129.682 86.8164 129.217 86.2148C128.756 85.6133 128.525 84.8281 128.525 83.8594V83.7773ZM129.609 83.9004C129.609 84.6191 129.758 85.1816 130.055 85.5879C130.352 85.9941 130.762 86.1973 131.285 86.1973C131.973 86.1973 132.475 85.8887 132.791 85.2715V82.3594C132.467 81.7617 131.969 81.4629 131.297 81.4629C130.766 81.4629 130.352 81.668 130.055 82.0781C129.758 82.4883 129.609 83.0957 129.609 83.9004ZM135.275 83.7715C135.275 83.1504 135.396 82.5918 135.639 82.0957C135.885 81.5996 136.225 81.2168 136.658 80.9473C137.096 80.6777 137.594 80.543 138.152 80.543C139.016 80.543 139.713 80.8418 140.244 81.4395C140.779 82.0371 141.047 82.832 141.047 83.8242V83.9004C141.047 84.5176 140.928 85.0723 140.689 85.5645C140.455 86.0527 140.117 86.4336 139.676 86.707C139.238 86.9805 138.734 87.1172 138.164 87.1172C137.305 87.1172 136.607 86.8184 136.072 86.2207C135.541 85.623 135.275 84.832 135.275 83.8477V83.7715ZM136.365 83.9004C136.365 84.6035 136.527 85.168 136.852 85.5938C137.18 86.0195 137.617 86.2324 138.164 86.2324C138.715 86.2324 139.152 86.0176 139.477 85.5879C139.801 85.1543 139.963 84.5488 139.963 83.7715C139.963 83.0762 139.797 82.5137 139.465 82.084C139.137 81.6504 138.699 81.4336 138.152 81.4336C137.617 81.4336 137.186 81.6465 136.857 82.0723C136.529 82.498 136.365 83.1074 136.365 83.9004ZM146.098 85.3184C146.098 85.0254 145.986 84.7988 145.764 84.6387C145.545 84.4746 145.16 84.334 144.609 84.2168C144.062 84.0996 143.627 83.959 143.303 83.7949C142.982 83.6309 142.744 83.4355 142.588 83.209C142.436 82.9824 142.359 82.7129 142.359 82.4004C142.359 81.8809 142.578 81.4414 143.016 81.082C143.457 80.7227 144.02 80.543 144.703 80.543C145.422 80.543 146.004 80.7285 146.449 81.0996C146.898 81.4707 147.123 81.9453 147.123 82.5234H146.033C146.033 82.2266 145.906 81.9707 145.652 81.7559C145.402 81.541 145.086 81.4336 144.703 81.4336C144.309 81.4336 144 81.5195 143.777 81.6914C143.555 81.8633 143.443 82.0879 143.443 82.3652C143.443 82.627 143.547 82.8242 143.754 82.957C143.961 83.0898 144.334 83.2168 144.873 83.3379C145.416 83.459 145.855 83.6035 146.191 83.7715C146.527 83.9395 146.775 84.1426 146.936 84.3809C147.1 84.6152 147.182 84.9023 147.182 85.2422C147.182 85.8086 146.955 86.2637 146.502 86.6074C146.049 86.9473 145.461 87.1172 144.738 87.1172C144.23 87.1172 143.781 87.0273 143.391 86.8477C143 86.668 142.693 86.418 142.471 86.0977C142.252 85.7734 142.143 85.4238 142.143 85.0488H143.227C143.246 85.4121 143.391 85.7012 143.66 85.916C143.934 86.127 144.293 86.2324 144.738 86.2324C145.148 86.2324 145.477 86.1504 145.723 85.9863C145.973 85.8184 146.098 85.5957 146.098 85.3184ZM156.445 83.2324H152.865V87H151.74V78.4688H157.025V79.3945H152.865V82.3125H156.445V83.2324ZM161.988 86.373C161.566 86.8691 160.947 87.1172 160.131 87.1172C159.455 87.1172 158.939 86.9219 158.584 86.5312C158.232 86.1367 158.055 85.5547 158.051 84.7852V80.6602H159.135V84.7559C159.135 85.7168 159.525 86.1973 160.307 86.1973C161.135 86.1973 161.686 85.8887 161.959 85.2715V80.6602H163.043V87H162.012L161.988 86.373ZM165.721 80.6602L165.756 81.457C166.24 80.8477 166.873 80.543 167.654 80.543C168.994 80.543 169.67 81.2988 169.682 82.8105V87H168.598V82.8047C168.594 82.3477 168.488 82.0098 168.281 81.791C168.078 81.5723 167.76 81.4629 167.326 81.4629C166.975 81.4629 166.666 81.5566 166.4 81.7441C166.135 81.9316 165.928 82.1777 165.779 82.4824V87H164.695V80.6602H165.721ZM171.053 83.7773C171.053 82.8047 171.283 82.0234 171.744 81.4336C172.205 80.8398 172.809 80.543 173.555 80.543C174.297 80.543 174.885 80.7969 175.318 81.3047V78H176.402V87H175.406L175.354 86.3203C174.92 86.8516 174.316 87.1172 173.543 87.1172C172.809 87.1172 172.209 86.8164 171.744 86.2148C171.283 85.6133 171.053 84.8281 171.053 83.8594V83.7773ZM172.137 83.9004C172.137 84.6191 172.285 85.1816 172.582 85.5879C172.879 85.9941 173.289 86.1973 173.812 86.1973C174.5 86.1973 175.002 85.8887 175.318 85.2715V82.3594C174.994 81.7617 174.496 81.4629 173.824 81.4629C173.293 81.4629 172.879 81.668 172.582 82.0781C172.285 82.4883 172.137 83.0957 172.137 83.9004ZM182.004 87C181.941 86.875 181.891 86.6523 181.852 86.332C181.348 86.8555 180.746 87.1172 180.047 87.1172C179.422 87.1172 178.908 86.9414 178.506 86.5898C178.107 86.2344 177.908 85.7852 177.908 85.2422C177.908 84.582 178.158 84.0703 178.658 83.707C179.162 83.3398 179.869 83.1562 180.779 83.1562H181.834V82.6582C181.834 82.2793 181.721 81.9785 181.494 81.7559C181.268 81.5293 180.934 81.416 180.492 81.416C180.105 81.416 179.781 81.5137 179.52 81.709C179.258 81.9043 179.127 82.1406 179.127 82.418H178.037C178.037 82.1016 178.148 81.7969 178.371 81.5039C178.598 81.207 178.902 80.9727 179.285 80.8008C179.672 80.6289 180.096 80.543 180.557 80.543C181.287 80.543 181.859 80.7266 182.273 81.0938C182.688 81.457 182.902 81.959 182.918 82.5996V85.5176C182.918 86.0996 182.992 86.5625 183.141 86.9062V87H182.004ZM180.205 86.1738C180.545 86.1738 180.867 86.0859 181.172 85.9102C181.477 85.7344 181.697 85.5059 181.834 85.2246V83.9238H180.984C179.656 83.9238 178.992 84.3125 178.992 85.0898C178.992 85.4297 179.105 85.6953 179.332 85.8867C179.559 86.0781 179.85 86.1738 180.205 86.1738ZM187.16 86.2324C187.547 86.2324 187.885 86.1152 188.174 85.8809C188.463 85.6465 188.623 85.3535 188.654 85.002H189.68C189.66 85.3652 189.535 85.7109 189.305 86.0391C189.074 86.3672 188.766 86.6289 188.379 86.8242C187.996 87.0195 187.59 87.1172 187.16 87.1172C186.297 87.1172 185.609 86.8301 185.098 86.2559C184.59 85.6777 184.336 84.8887 184.336 83.8887V83.707C184.336 83.0898 184.449 82.541 184.676 82.0605C184.902 81.5801 185.227 81.207 185.648 80.9414C186.074 80.6758 186.576 80.543 187.154 80.543C187.865 80.543 188.455 80.7559 188.924 81.1816C189.396 81.6074 189.648 82.1602 189.68 82.8398H188.654C188.623 82.4297 188.467 82.0938 188.186 81.832C187.908 81.5664 187.564 81.4336 187.154 81.4336C186.604 81.4336 186.176 81.6328 185.871 82.0312C185.57 82.4258 185.42 82.998 185.42 83.748V83.9531C185.42 84.6836 185.57 85.2461 185.871 85.6406C186.172 86.0352 186.602 86.2324 187.16 86.2324ZM192.076 87H190.992V80.6602H192.076V87ZM190.904 78.9785C190.904 78.8027 190.957 78.6543 191.062 78.5332C191.172 78.4121 191.332 78.3516 191.543 78.3516C191.754 78.3516 191.914 78.4121 192.023 78.5332C192.133 78.6543 192.188 78.8027 192.188 78.9785C192.188 79.1543 192.133 79.3008 192.023 79.418C191.914 79.5352 191.754 79.5938 191.543 79.5938C191.332 79.5938 191.172 79.5352 191.062 79.418C190.957 79.3008 190.904 79.1543 190.904 78.9785ZM193.529 83.7715C193.529 83.1504 193.65 82.5918 193.893 82.0957C194.139 81.5996 194.479 81.2168 194.912 80.9473C195.35 80.6777 195.848 80.543 196.406 80.543C197.27 80.543 197.967 80.8418 198.498 81.4395C199.033 82.0371 199.301 82.832 199.301 83.8242V83.9004C199.301 84.5176 199.182 85.0723 198.943 85.5645C198.709 86.0527 198.371 86.4336 197.93 86.707C197.492 86.9805 196.988 87.1172 196.418 87.1172C195.559 87.1172 194.861 86.8184 194.326 86.2207C193.795 85.623 193.529 84.832 193.529 83.8477V83.7715ZM194.619 83.9004C194.619 84.6035 194.781 85.168 195.105 85.5938C195.434 86.0195 195.871 86.2324 196.418 86.2324C196.969 86.2324 197.406 86.0176 197.73 85.5879C198.055 85.1543 198.217 84.5488 198.217 83.7715C198.217 83.0762 198.051 82.5137 197.719 82.084C197.391 81.6504 196.953 81.4336 196.406 81.4336C195.871 81.4336 195.439 81.6465 195.111 82.0723C194.783 82.498 194.619 83.1074 194.619 83.9004ZM196.898 78H198.211L196.641 79.7227H195.768L196.898 78ZM201.686 80.6602L201.721 81.457C202.205 80.8477 202.838 80.543 203.619 80.543C204.959 80.543 205.635 81.2988 205.646 82.8105V87H204.562V82.8047C204.559 82.3477 204.453 82.0098 204.246 81.791C204.043 81.5723 203.725 81.4629 203.291 81.4629C202.939 81.4629 202.631 81.5566 202.365 81.7441C202.1 81.9316 201.893 82.1777 201.744 82.4824V87H200.66V80.6602H201.686ZM110.121 100.08H114.164V101H108.99V92.4688H110.121V100.08ZM118.934 100.373C118.512 100.869 117.893 101.117 117.076 101.117C116.4 101.117 115.885 100.922 115.529 100.531C115.178 100.137 115 99.5547 114.996 98.7852V94.6602H116.08V98.7559C116.08 99.7168 116.471 100.197 117.252 100.197C118.08 100.197 118.631 99.8887 118.904 99.2715V94.6602H119.988V101H118.957L118.934 100.373ZM122.66 100.115H126.369V101H121.336V100.203L124.834 95.5566H121.389V94.6602H126.193V95.4277L122.66 100.115ZM127.213 97.7715C127.213 97.1504 127.334 96.5918 127.576 96.0957C127.822 95.5996 128.162 95.2168 128.596 94.9473C129.033 94.6777 129.531 94.543 130.09 94.543C130.953 94.543 131.65 94.8418 132.182 95.4395C132.717 96.0371 132.984 96.832 132.984 97.8242V97.9004C132.984 98.5176 132.865 99.0723 132.627 99.5645C132.393 100.053 132.055 100.434 131.613 100.707C131.176 100.98 130.672 101.117 130.102 101.117C129.242 101.117 128.545 100.818 128.01 100.221C127.479 99.623 127.213 98.832 127.213 97.8477V97.7715ZM128.303 97.9004C128.303 98.6035 128.465 99.168 128.789 99.5938C129.117 100.02 129.555 100.232 130.102 100.232C130.652 100.232 131.09 100.018 131.414 99.5879C131.738 99.1543 131.9 98.5488 131.9 97.7715C131.9 97.0762 131.734 96.5137 131.402 96.084C131.074 95.6504 130.637 95.4336 130.09 95.4336C129.555 95.4336 129.123 95.6465 128.795 96.0723C128.467 96.498 128.303 97.1074 128.303 97.9004ZM130.582 92H131.895L130.324 93.7227H129.451L130.582 92ZM135.369 94.6602L135.404 95.457C135.889 94.8477 136.521 94.543 137.303 94.543C138.643 94.543 139.318 95.2988 139.33 96.8105V101H138.246V96.8047C138.242 96.3477 138.137 96.0098 137.93 95.791C137.727 95.5723 137.408 95.4629 136.975 95.4629C136.623 95.4629 136.314 95.5566 136.049 95.7441C135.783 95.9316 135.576 96.1777 135.428 96.4824V101H134.344V94.6602H135.369Z" fill="white"/>
<path d="M367 124.5C367 158.466 339.466 186 305.5 186C271.534 186 244 158.466 244 124.5C244 90.5345 271.534 63 305.5 63C339.466 63 367 90.5345 367 124.5Z" stroke="white" stroke-width="20"/>
<path d="M307.647 63.0376C319.803 63.4622 331.56 67.4821 341.432 74.5887C351.303 81.6954 358.846 91.5697 363.106 102.963C367.365 114.356 368.151 126.757 365.363 138.597C362.575 150.436 356.338 161.183 347.442 169.479C338.546 177.774 327.39 183.245 315.385 185.201C303.38 187.156 291.064 185.507 279.996 180.462C268.927 175.418 259.603 167.205 253.203 156.862C246.802 146.518 243.613 134.509 244.038 122.353" stroke="#00DDA3" stroke-width="20" stroke-linecap="round"/>
</g>
<defs>
<filter id="filter0_d" x="13" y="0" width="389" height="237" filterUnits="userSpaceOnUse" color-interpolation-filters="sRGB">
<feFlood flood-opacity="0" result="BackgroundImageFix"/>
<feColorMatrix in="SourceAlpha" type="matrix" values="0 0 0 0 0 0 0 0 0 0 0 0 0 0 0 0 0 0 127 0"/>
<feOffset dy="4"/>
<feGaussianBlur stdDeviation="2"/>
<feColorMatrix type="matrix" values="0 0 0 0 0 0 0 0 0 0 0 0 0 0 0 0 0 0 0.25 0"/>
<feBlend mode="normal" in2="BackgroundImageFix" result="effect1_dropShadow"/>
<feBlend mode="normal" in="SourceGraphic" in2="effect1_dropShadow" result="shape"/>
</filter>
</defs>
</svg>
