<svg width="402" height="267" viewBox="0 0 402 267" fill="none" xmlns="http://www.w3.org/2000/svg">
<g filter="url(#filter0_d)">
<path d="M17 8C17 3.58172 20.5817 0 25 0H390C394.418 0 398 3.58172 398 8V251C398 255.418 394.418 259 390 259H25C20.5817 259 17 255.418 17 251V8Z" fill="#44505E"/>
<path d="M37.8779 27.2905C37.8779 27.9399 37.8022 28.4648 37.6509 28.8652C37.4995 29.2656 37.2285 29.6465 36.8379 30.0078C36.4521 30.3691 36.1885 30.6377 36.0469 30.8135C35.9102 30.9893 35.8052 31.1675 35.7319 31.3481C35.6636 31.5288 35.6294 31.7266 35.6294 31.9414C35.6294 32.708 36.0054 33.0913 36.7573 33.0913C37.1333 33.0913 37.4312 32.9814 37.6509 32.7617C37.8755 32.542 37.9927 32.2344 38.0024 31.8389H40.1191C40.1094 32.7764 39.8091 33.5063 39.2183 34.0288C38.6274 34.5562 37.8193 34.8198 36.7939 34.8198C35.7539 34.8198 34.9458 34.5708 34.3696 34.0728C33.7935 33.5796 33.5054 32.874 33.5054 31.9561C33.5054 31.1797 33.8789 30.418 34.626 29.6709L35.3364 28.9897C35.5806 28.77 35.749 28.5405 35.8418 28.3013C35.9395 28.062 35.9932 27.7251 36.0029 27.2905H37.8779ZM38.1416 25.0493C38.1416 25.3765 38.0293 25.645 37.8047 25.855C37.5801 26.0649 37.2969 26.1699 36.9551 26.1699C36.6133 26.1699 36.3301 26.0649 36.1055 25.855C35.8809 25.645 35.7686 25.3765 35.7686 25.0493C35.7686 24.7222 35.876 24.4536 36.0908 24.2437C36.3105 24.0337 36.5986 23.9287 36.9551 23.9287C37.3115 23.9287 37.5972 24.0337 37.812 24.2437C38.0317 24.4536 38.1416 24.7222 38.1416 25.0493ZM49.7944 28.4478C49.7114 29.5952 49.2866 30.4985 48.52 31.1577C47.7583 31.8169 46.7524 32.1465 45.5024 32.1465C44.1353 32.1465 43.0586 31.6875 42.2725 30.7695C41.4912 29.8467 41.1006 28.582 41.1006 26.9756V26.3237C41.1006 25.2983 41.2812 24.395 41.6426 23.6138C42.0039 22.8325 42.519 22.2344 43.188 21.8193C43.8618 21.3994 44.6431 21.1895 45.5317 21.1895C46.7622 21.1895 47.7534 21.519 48.5054 22.1782C49.2573 22.8374 49.6919 23.7627 49.8091 24.9541H47.6118C47.5581 24.2656 47.3652 23.7676 47.0332 23.46C46.7061 23.1475 46.2056 22.9912 45.5317 22.9912C44.7993 22.9912 44.25 23.2549 43.8838 23.7822C43.5225 24.3047 43.3369 25.1177 43.3271 26.2212V27.0269C43.3271 28.1792 43.5005 29.0215 43.8472 29.5537C44.1987 30.0859 44.7505 30.3521 45.5024 30.3521C46.1812 30.3521 46.6865 30.1982 47.0186 29.8906C47.3555 29.5781 47.5483 29.0972 47.5972 28.4478H49.7944ZM50.7686 27.9644C50.7686 27.1782 50.9199 26.4775 51.2227 25.8623C51.5254 25.2471 51.96 24.771 52.5264 24.4341C53.0977 24.0972 53.7593 23.9287 54.5112 23.9287C55.5806 23.9287 56.4521 24.2559 57.126 24.9102C57.8047 25.5645 58.1831 26.4531 58.2612 27.5762L58.2759 28.1182C58.2759 29.334 57.9365 30.3105 57.2578 31.0479C56.5791 31.7803 55.6685 32.1465 54.5259 32.1465C53.3833 32.1465 52.4702 31.7803 51.7866 31.0479C51.1079 30.3154 50.7686 29.3193 50.7686 28.0596V27.9644ZM52.8853 28.1182C52.8853 28.8701 53.0269 29.4463 53.3101 29.8467C53.5933 30.2422 53.9985 30.4399 54.5259 30.4399C55.0386 30.4399 55.439 30.2446 55.7271 29.854C56.0151 29.4585 56.1592 28.8286 56.1592 27.9644C56.1592 27.2271 56.0151 26.6558 55.7271 26.2505C55.439 25.8452 55.0337 25.6426 54.5112 25.6426C53.9937 25.6426 53.5933 25.8452 53.3101 26.2505C53.0269 26.6509 52.8853 27.2734 52.8853 28.1182ZM54.9287 20.75H57.2358L55.207 23.0205H53.4858L54.9287 20.75ZM61.5645 24.0752L61.6304 24.9614C62.1919 24.2729 62.9512 23.9287 63.9082 23.9287C64.9287 23.9287 65.6294 24.3315 66.0103 25.1372C66.5669 24.3315 67.3604 23.9287 68.3906 23.9287C69.25 23.9287 69.8896 24.1802 70.3096 24.6831C70.7295 25.1812 70.9395 25.9331 70.9395 26.939V32H68.8154V26.9463C68.8154 26.4971 68.7275 26.1699 68.5518 25.9648C68.376 25.7549 68.0659 25.6499 67.6216 25.6499C66.9868 25.6499 66.5474 25.9526 66.3032 26.5581L66.3105 32H64.1938V26.9536C64.1938 26.4946 64.1035 26.1626 63.9229 25.9575C63.7422 25.7524 63.4346 25.6499 63 25.6499C62.3994 25.6499 61.9648 25.8989 61.6963 26.397V32H59.5796V24.0752H61.5645ZM72.2432 27.9644C72.2432 27.1782 72.3945 26.4775 72.6973 25.8623C73 25.2471 73.4346 24.771 74.001 24.4341C74.5723 24.0972 75.2339 23.9287 75.9858 23.9287C77.0552 23.9287 77.9268 24.2559 78.6006 24.9102C79.2793 25.5645 79.6577 26.4531 79.7358 27.5762L79.7505 28.1182C79.7505 29.334 79.4111 30.3105 78.7324 31.0479C78.0537 31.7803 77.1431 32.1465 76.0005 32.1465C74.8579 32.1465 73.9448 31.7803 73.2612 31.0479C72.5825 30.3154 72.2432 29.3193 72.2432 28.0596V27.9644ZM74.3599 28.1182C74.3599 28.8701 74.5015 29.4463 74.7847 29.8467C75.0679 30.2422 75.4731 30.4399 76.0005 30.4399C76.5132 30.4399 76.9136 30.2446 77.2017 29.854C77.4897 29.4585 77.6338 28.8286 77.6338 27.9644C77.6338 27.2271 77.4897 26.6558 77.2017 26.2505C76.9136 25.8452 76.5083 25.6426 75.9858 25.6426C75.4683 25.6426 75.0679 25.8452 74.7847 26.2505C74.5015 26.6509 74.3599 27.2734 74.3599 28.1182ZM89.0815 29.8101C89.0815 29.5513 88.9521 29.3486 88.6934 29.2021C88.4395 29.0508 88.0293 28.9165 87.4629 28.7993C85.5781 28.4038 84.6357 27.603 84.6357 26.397C84.6357 25.6938 84.9263 25.1079 85.5073 24.6392C86.0933 24.1655 86.8574 23.9287 87.7998 23.9287C88.8057 23.9287 89.6089 24.1655 90.2095 24.6392C90.8149 25.1128 91.1177 25.728 91.1177 26.4849H89.001C89.001 26.1821 88.9033 25.9331 88.708 25.7378C88.5127 25.5376 88.2075 25.4375 87.7925 25.4375C87.436 25.4375 87.1602 25.5181 86.9648 25.6792C86.7695 25.8403 86.6719 26.0454 86.6719 26.2944C86.6719 26.5288 86.7817 26.7192 87.0015 26.8657C87.2261 27.0073 87.6021 27.1318 88.1294 27.2393C88.6567 27.3418 89.1011 27.459 89.4624 27.5908C90.5806 28.001 91.1396 28.7114 91.1396 29.7222C91.1396 30.4448 90.8296 31.0308 90.2095 31.48C89.5894 31.9243 88.7886 32.1465 87.8071 32.1465C87.1431 32.1465 86.5522 32.0293 86.0347 31.7949C85.522 31.5557 85.1191 31.231 84.8262 30.8208C84.5332 30.4058 84.3867 29.959 84.3867 29.4805H86.3936C86.4131 29.8564 86.5522 30.1445 86.811 30.3447C87.0698 30.5449 87.4165 30.645 87.8511 30.645C88.2563 30.645 88.5615 30.5693 88.7666 30.418C88.9766 30.2617 89.0815 30.0591 89.0815 29.8101ZM96.1567 32.1465C94.9946 32.1465 94.0474 31.79 93.3149 31.0771C92.5874 30.3643 92.2236 29.4146 92.2236 28.228V28.0229C92.2236 27.2271 92.3774 26.5166 92.6851 25.8916C92.9927 25.2617 93.4272 24.7783 93.9888 24.4414C94.5552 24.0996 95.1997 23.9287 95.9224 23.9287C97.0063 23.9287 97.8584 24.2705 98.4785 24.9541C99.1035 25.6377 99.416 26.6069 99.416 27.8618V28.7261H94.3696C94.438 29.2437 94.6431 29.6587 94.9849 29.9712C95.3315 30.2837 95.7686 30.4399 96.2959 30.4399C97.1113 30.4399 97.7485 30.1445 98.2075 29.5537L99.2476 30.7183C98.9302 31.1675 98.5005 31.519 97.9585 31.7729C97.4165 32.022 96.8159 32.1465 96.1567 32.1465ZM95.915 25.6426C95.4951 25.6426 95.1533 25.7842 94.8896 26.0674C94.6309 26.3506 94.4648 26.7559 94.3916 27.2832H97.3359V27.1147C97.3262 26.646 97.1992 26.2847 96.9551 26.0308C96.7109 25.772 96.3643 25.6426 95.915 25.6426ZM104.03 27.979C104.03 26.7437 104.306 25.7598 104.858 25.0273C105.415 24.2949 106.174 23.9287 107.136 23.9287C107.907 23.9287 108.544 24.2168 109.047 24.793V20.75H111.171V32H109.26L109.157 31.1577C108.63 31.8169 107.951 32.1465 107.121 32.1465C106.188 32.1465 105.439 31.7803 104.873 31.0479C104.311 30.3105 104.03 29.2876 104.03 27.979ZM106.147 28.1328C106.147 28.875 106.276 29.4438 106.535 29.8394C106.794 30.2349 107.17 30.4326 107.663 30.4326C108.317 30.4326 108.779 30.1567 109.047 29.605V26.4775C108.784 25.9258 108.327 25.6499 107.678 25.6499C106.657 25.6499 106.147 26.4775 106.147 28.1328ZM115.046 32H112.922V24.0752H115.046V32ZM112.797 22.0244C112.797 21.707 112.902 21.4458 113.112 21.2407C113.327 21.0356 113.618 20.9331 113.984 20.9331C114.345 20.9331 114.633 21.0356 114.848 21.2407C115.063 21.4458 115.17 21.707 115.17 22.0244C115.17 22.3467 115.061 22.6104 114.841 22.8154C114.626 23.0205 114.34 23.123 113.984 23.123C113.627 23.123 113.339 23.0205 113.12 22.8154C112.905 22.6104 112.797 22.3467 112.797 22.0244ZM121.088 29.8101C121.088 29.5513 120.959 29.3486 120.7 29.2021C120.446 29.0508 120.036 28.9165 119.47 28.7993C117.585 28.4038 116.643 27.603 116.643 26.397C116.643 25.6938 116.933 25.1079 117.514 24.6392C118.1 24.1655 118.864 23.9287 119.807 23.9287C120.812 23.9287 121.616 24.1655 122.216 24.6392C122.822 25.1128 123.125 25.728 123.125 26.4849H121.008C121.008 26.1821 120.91 25.9331 120.715 25.7378C120.52 25.5376 120.214 25.4375 119.799 25.4375C119.443 25.4375 119.167 25.5181 118.972 25.6792C118.776 25.8403 118.679 26.0454 118.679 26.2944C118.679 26.5288 118.789 26.7192 119.008 26.8657C119.233 27.0073 119.609 27.1318 120.136 27.2393C120.664 27.3418 121.108 27.459 121.469 27.5908C122.587 28.001 123.146 28.7114 123.146 29.7222C123.146 30.4448 122.836 31.0308 122.216 31.48C121.596 31.9243 120.795 32.1465 119.814 32.1465C119.15 32.1465 118.559 32.0293 118.042 31.7949C117.529 31.5557 117.126 31.231 116.833 30.8208C116.54 30.4058 116.394 29.959 116.394 29.4805H118.4C118.42 29.8564 118.559 30.1445 118.818 30.3447C119.077 30.5449 119.423 30.645 119.858 30.645C120.263 30.645 120.568 30.5693 120.773 30.418C120.983 30.2617 121.088 30.0591 121.088 29.8101ZM127.05 22.127V24.0752H128.405V25.6279H127.05V29.583C127.05 29.876 127.106 30.0859 127.219 30.2129C127.331 30.3398 127.546 30.4033 127.863 30.4033C128.098 30.4033 128.305 30.3862 128.486 30.3521V31.9561C128.071 32.083 127.644 32.1465 127.204 32.1465C125.72 32.1465 124.963 31.397 124.934 29.8979V25.6279H123.776V24.0752H124.934V22.127H127.05ZM134.038 26.0601C133.75 26.021 133.496 26.0015 133.276 26.0015C132.475 26.0015 131.95 26.2725 131.701 26.8145V32H129.584V24.0752H131.584L131.643 25.02C132.067 24.2925 132.656 23.9287 133.408 23.9287C133.642 23.9287 133.862 23.9604 134.067 24.0239L134.038 26.0601ZM137.297 32H135.173V24.0752H137.297V32ZM135.048 22.0244C135.048 21.707 135.153 21.4458 135.363 21.2407C135.578 21.0356 135.869 20.9331 136.235 20.9331C136.596 20.9331 136.884 21.0356 137.099 21.2407C137.314 21.4458 137.421 21.707 137.421 22.0244C137.421 22.3467 137.312 22.6104 137.092 22.8154C136.877 23.0205 136.591 23.123 136.235 23.123C135.878 23.123 135.59 23.0205 135.371 22.8154C135.156 22.6104 135.048 22.3467 135.048 22.0244ZM146.188 28.1108C146.188 29.3804 145.917 30.3716 145.375 31.0845C144.833 31.7925 144.077 32.1465 143.105 32.1465C142.246 32.1465 141.56 31.8169 141.047 31.1577L140.952 32H139.047V20.75H141.164V24.7856C141.652 24.2144 142.294 23.9287 143.09 23.9287C144.057 23.9287 144.814 24.2852 145.361 24.998C145.913 25.7061 146.188 26.7046 146.188 27.9937V28.1108ZM144.072 27.957C144.072 27.1562 143.945 26.5728 143.691 26.2065C143.437 25.8354 143.059 25.6499 142.556 25.6499C141.882 25.6499 141.418 25.9258 141.164 26.4775V29.605C141.423 30.1616 141.892 30.4399 142.57 30.4399C143.254 30.4399 143.703 30.103 143.918 29.4292C144.021 29.1069 144.072 28.6162 144.072 27.957ZM152.246 31.1943C151.723 31.8291 151 32.1465 150.078 32.1465C149.228 32.1465 148.579 31.9023 148.129 31.4141C147.685 30.9258 147.458 30.2104 147.448 29.2681V24.0752H149.565V29.1948C149.565 30.02 149.941 30.4326 150.693 30.4326C151.411 30.4326 151.904 30.1836 152.172 29.6855V24.0752H154.296V32H152.304L152.246 31.1943ZM158.852 29.0044L160.317 24.0752H162.587L159.401 33.2305L159.226 33.6479C158.752 34.6831 157.971 35.2007 156.882 35.2007C156.574 35.2007 156.262 35.1543 155.944 35.0615V33.4575L156.267 33.4648C156.667 33.4648 156.965 33.4038 157.16 33.2817C157.36 33.1597 157.517 32.957 157.629 32.6738L157.878 32.022L155.102 24.0752H157.38L158.852 29.0044ZM166.967 32.1465C165.805 32.1465 164.858 31.79 164.125 31.0771C163.398 30.3643 163.034 29.4146 163.034 28.228V28.0229C163.034 27.2271 163.188 26.5166 163.496 25.8916C163.803 25.2617 164.238 24.7783 164.799 24.4414C165.366 24.0996 166.01 23.9287 166.733 23.9287C167.817 23.9287 168.669 24.2705 169.289 24.9541C169.914 25.6377 170.227 26.6069 170.227 27.8618V28.7261H165.18C165.249 29.2437 165.454 29.6587 165.795 29.9712C166.142 30.2837 166.579 30.4399 167.106 30.4399C167.922 30.4399 168.559 30.1445 169.018 29.5537L170.058 30.7183C169.741 31.1675 169.311 31.519 168.769 31.7729C168.227 32.022 167.626 32.1465 166.967 32.1465ZM166.726 25.6426C166.306 25.6426 165.964 25.7842 165.7 26.0674C165.441 26.3506 165.275 26.7559 165.202 27.2832H168.146V27.1147C168.137 26.646 168.01 26.2847 167.766 26.0308C167.521 25.772 167.175 25.6426 166.726 25.6426ZM173.383 24.0752L173.449 24.9907C174.016 24.2827 174.775 23.9287 175.727 23.9287C176.567 23.9287 177.192 24.1753 177.602 24.6685C178.012 25.1616 178.222 25.8989 178.232 26.8804V32H176.115V26.9316C176.115 26.4824 176.018 26.1577 175.822 25.9575C175.627 25.7524 175.302 25.6499 174.848 25.6499C174.252 25.6499 173.806 25.9038 173.508 26.4116V32H171.391V24.0752H173.383ZM185.527 24.0752L185.593 24.9907C186.159 24.2827 186.918 23.9287 187.871 23.9287C188.71 23.9287 189.335 24.1753 189.746 24.6685C190.156 25.1616 190.366 25.8989 190.375 26.8804V32H188.259V26.9316C188.259 26.4824 188.161 26.1577 187.966 25.9575C187.771 25.7524 187.446 25.6499 186.992 25.6499C186.396 25.6499 185.949 25.9038 185.651 26.4116V32H183.535V24.0752H185.527ZM196.733 31.1943C196.21 31.8291 195.488 32.1465 194.565 32.1465C193.715 32.1465 193.066 31.9023 192.617 31.4141C192.172 30.9258 191.945 30.2104 191.936 29.2681V24.0752H194.052V29.1948C194.052 30.02 194.428 30.4326 195.18 30.4326C195.898 30.4326 196.391 30.1836 196.66 29.6855V24.0752H198.784V32H196.792L196.733 31.1943ZM204.028 32.1465C202.866 32.1465 201.918 31.79 201.186 31.0771C200.458 30.3643 200.095 29.4146 200.095 28.228V28.0229C200.095 27.2271 200.249 26.5166 200.556 25.8916C200.864 25.2617 201.298 24.7783 201.86 24.4414C202.426 24.0996 203.071 23.9287 203.793 23.9287C204.877 23.9287 205.729 24.2705 206.35 24.9541C206.975 25.6377 207.287 26.6069 207.287 27.8618V28.7261H202.241C202.309 29.2437 202.514 29.6587 202.856 29.9712C203.203 30.2837 203.64 30.4399 204.167 30.4399C204.982 30.4399 205.62 30.1445 206.079 29.5537L207.119 30.7183C206.801 31.1675 206.372 31.519 205.83 31.7729C205.288 32.022 204.687 32.1465 204.028 32.1465ZM203.786 25.6426C203.366 25.6426 203.024 25.7842 202.761 26.0674C202.502 26.3506 202.336 26.7559 202.263 27.2832H205.207V27.1147C205.197 26.646 205.07 26.2847 204.826 26.0308C204.582 25.772 204.235 25.6426 203.786 25.6426ZM212.788 29.8101C212.788 29.5513 212.658 29.3486 212.399 29.2021C212.146 29.0508 211.735 28.9165 211.169 28.7993C209.284 28.4038 208.342 27.603 208.342 26.397C208.342 25.6938 208.632 25.1079 209.213 24.6392C209.799 24.1655 210.563 23.9287 211.506 23.9287C212.512 23.9287 213.315 24.1655 213.916 24.6392C214.521 25.1128 214.824 25.728 214.824 26.4849H212.707C212.707 26.1821 212.609 25.9331 212.414 25.7378C212.219 25.5376 211.914 25.4375 211.499 25.4375C211.142 25.4375 210.866 25.5181 210.671 25.6792C210.476 25.8403 210.378 26.0454 210.378 26.2944C210.378 26.5288 210.488 26.7192 210.708 26.8657C210.932 27.0073 211.308 27.1318 211.835 27.2393C212.363 27.3418 212.807 27.459 213.168 27.5908C214.287 28.001 214.846 28.7114 214.846 29.7222C214.846 30.4448 214.536 31.0308 213.916 31.48C213.295 31.9243 212.495 32.1465 211.513 32.1465C210.849 32.1465 210.258 32.0293 209.741 31.7949C209.228 31.5557 208.825 31.231 208.532 30.8208C208.239 30.4058 208.093 29.959 208.093 29.4805H210.1C210.119 29.8564 210.258 30.1445 210.517 30.3447C210.776 30.5449 211.123 30.645 211.557 30.645C211.962 30.645 212.268 30.5693 212.473 30.418C212.683 30.2617 212.788 30.0591 212.788 29.8101ZM218.75 22.127V24.0752H220.104V25.6279H218.75V29.583C218.75 29.876 218.806 30.0859 218.918 30.2129C219.03 30.3398 219.245 30.4033 219.562 30.4033C219.797 30.4033 220.004 30.3862 220.185 30.3521V31.9561C219.77 32.083 219.343 32.1465 218.903 32.1465C217.419 32.1465 216.662 31.397 216.633 29.8979V25.6279H215.476V24.0752H216.633V22.127H218.75ZM225.737 26.0601C225.449 26.021 225.195 26.0015 224.975 26.0015C224.174 26.0015 223.649 26.2725 223.4 26.8145V32H221.284V24.0752H223.283L223.342 25.02C223.767 24.2925 224.355 23.9287 225.107 23.9287C225.341 23.9287 225.561 23.9604 225.766 24.0239L225.737 26.0601ZM226.169 27.9644C226.169 27.1782 226.32 26.4775 226.623 25.8623C226.926 25.2471 227.36 24.771 227.927 24.4341C228.498 24.0972 229.16 23.9287 229.912 23.9287C230.981 23.9287 231.853 24.2559 232.526 24.9102C233.205 25.5645 233.583 26.4531 233.662 27.5762L233.676 28.1182C233.676 29.334 233.337 30.3105 232.658 31.0479C231.979 31.7803 231.069 32.1465 229.926 32.1465C228.784 32.1465 227.871 31.7803 227.187 31.0479C226.508 30.3154 226.169 29.3193 226.169 28.0596V27.9644ZM228.286 28.1182C228.286 28.8701 228.427 29.4463 228.71 29.8467C228.994 30.2422 229.399 30.4399 229.926 30.4399C230.439 30.4399 230.839 30.2446 231.127 29.854C231.416 29.4585 231.56 28.8286 231.56 27.9644C231.56 27.2271 231.416 26.6558 231.127 26.2505C230.839 25.8452 230.434 25.6426 229.912 25.6426C229.394 25.6426 228.994 25.8452 228.71 26.2505C228.427 26.6509 228.286 27.2734 228.286 28.1182ZM239.272 29.8101C239.272 29.5513 239.143 29.3486 238.884 29.2021C238.63 29.0508 238.22 28.9165 237.653 28.7993C235.769 28.4038 234.826 27.603 234.826 26.397C234.826 25.6938 235.117 25.1079 235.698 24.6392C236.284 24.1655 237.048 23.9287 237.99 23.9287C238.996 23.9287 239.799 24.1655 240.4 24.6392C241.005 25.1128 241.308 25.728 241.308 26.4849H239.191C239.191 26.1821 239.094 25.9331 238.898 25.7378C238.703 25.5376 238.398 25.4375 237.983 25.4375C237.626 25.4375 237.351 25.5181 237.155 25.6792C236.96 25.8403 236.862 26.0454 236.862 26.2944C236.862 26.5288 236.972 26.7192 237.192 26.8657C237.417 27.0073 237.792 27.1318 238.32 27.2393C238.847 27.3418 239.292 27.459 239.653 27.5908C240.771 28.001 241.33 28.7114 241.33 29.7222C241.33 30.4448 241.02 31.0308 240.4 31.48C239.78 31.9243 238.979 32.1465 237.998 32.1465C237.333 32.1465 236.743 32.0293 236.225 31.7949C235.712 31.5557 235.31 31.231 235.017 30.8208C234.724 30.4058 234.577 29.959 234.577 29.4805H236.584C236.604 29.8564 236.743 30.1445 237.001 30.3447C237.26 30.5449 237.607 30.645 238.042 30.645C238.447 30.645 238.752 30.5693 238.957 30.418C239.167 30.2617 239.272 30.0591 239.272 29.8101ZM246.127 27.979C246.127 26.7632 246.416 25.7842 246.992 25.042C247.573 24.2998 248.354 23.9287 249.335 23.9287C250.205 23.9287 250.881 24.2266 251.364 24.8223L251.452 24.0752H253.371V31.7363C253.371 32.4297 253.212 33.0327 252.895 33.5454C252.583 34.0581 252.141 34.4487 251.569 34.7173C250.998 34.9858 250.329 35.1201 249.562 35.1201C248.981 35.1201 248.415 35.0029 247.863 34.7686C247.312 34.5391 246.894 34.2412 246.611 33.875L247.548 32.5859C248.076 33.1768 248.715 33.4722 249.467 33.4722C250.029 33.4722 250.466 33.3208 250.778 33.0181C251.091 32.7202 251.247 32.2954 251.247 31.7437V31.3188C250.759 31.8706 250.117 32.1465 249.321 32.1465C248.369 32.1465 247.597 31.7754 247.006 31.0332C246.42 30.2861 246.127 29.2974 246.127 28.0669V27.979ZM248.244 28.1328C248.244 28.8506 248.388 29.4146 248.676 29.8247C248.964 30.23 249.36 30.4326 249.863 30.4326C250.507 30.4326 250.969 30.1909 251.247 29.7075V26.375C250.964 25.8916 250.507 25.6499 249.877 25.6499C249.37 25.6499 248.969 25.8574 248.676 26.2725C248.388 26.6875 248.244 27.3076 248.244 28.1328ZM259.597 32C259.499 31.8096 259.428 31.5728 259.384 31.2896C258.872 31.8608 258.205 32.1465 257.385 32.1465C256.608 32.1465 255.964 31.9219 255.451 31.4727C254.943 31.0234 254.689 30.457 254.689 29.7734C254.689 28.9336 255 28.2891 255.62 27.8398C256.245 27.3906 257.146 27.1636 258.322 27.1587H259.296V26.7046C259.296 26.3384 259.201 26.0454 259.011 25.8257C258.825 25.606 258.53 25.4961 258.125 25.4961C257.768 25.4961 257.487 25.5815 257.282 25.7524C257.082 25.9233 256.982 26.1577 256.982 26.4556H254.865C254.865 25.9966 255.007 25.5718 255.29 25.1812C255.573 24.7905 255.974 24.4854 256.491 24.2656C257.009 24.041 257.59 23.9287 258.234 23.9287C259.211 23.9287 259.985 24.1753 260.556 24.6685C261.132 25.1567 261.42 25.8452 261.42 26.7339V30.1689C261.425 30.9209 261.53 31.4897 261.735 31.8755V32H259.597ZM257.846 30.5278C258.159 30.5278 258.447 30.4595 258.71 30.3228C258.974 30.1812 259.169 29.9932 259.296 29.7588V28.3965H258.505C257.446 28.3965 256.882 28.7627 256.813 29.4951L256.806 29.6196C256.806 29.8833 256.899 30.1006 257.084 30.2715C257.27 30.4424 257.524 30.5278 257.846 30.5278ZM267.338 29.8101C267.338 29.5513 267.209 29.3486 266.95 29.2021C266.696 29.0508 266.286 28.9165 265.72 28.7993C263.835 28.4038 262.893 27.603 262.893 26.397C262.893 25.6938 263.183 25.1079 263.764 24.6392C264.35 24.1655 265.114 23.9287 266.057 23.9287C267.062 23.9287 267.866 24.1655 268.466 24.6392C269.072 25.1128 269.375 25.728 269.375 26.4849H267.258C267.258 26.1821 267.16 25.9331 266.965 25.7378C266.77 25.5376 266.464 25.4375 266.049 25.4375C265.693 25.4375 265.417 25.5181 265.222 25.6792C265.026 25.8403 264.929 26.0454 264.929 26.2944C264.929 26.5288 265.039 26.7192 265.258 26.8657C265.483 27.0073 265.859 27.1318 266.386 27.2393C266.914 27.3418 267.358 27.459 267.719 27.5908C268.837 28.001 269.396 28.7114 269.396 29.7222C269.396 30.4448 269.086 31.0308 268.466 31.48C267.846 31.9243 267.045 32.1465 266.064 32.1465C265.4 32.1465 264.809 32.0293 264.292 31.7949C263.779 31.5557 263.376 31.231 263.083 30.8208C262.79 30.4058 262.644 29.959 262.644 29.4805H264.65C264.67 29.8564 264.809 30.1445 265.068 30.3447C265.327 30.5449 265.673 30.645 266.108 30.645C266.513 30.645 266.818 30.5693 267.023 30.418C267.233 30.2617 267.338 30.0591 267.338 29.8101ZM273.3 22.127V24.0752H274.655V25.6279H273.3V29.583C273.3 29.876 273.356 30.0859 273.469 30.2129C273.581 30.3398 273.796 30.4033 274.113 30.4033C274.348 30.4033 274.555 30.3862 274.736 30.3521V31.9561C274.321 32.083 273.894 32.1465 273.454 32.1465C271.97 32.1465 271.213 31.397 271.184 29.8979V25.6279H270.026V24.0752H271.184V22.127H273.3ZM275.285 27.9644C275.285 27.1782 275.437 26.4775 275.739 25.8623C276.042 25.2471 276.477 24.771 277.043 24.4341C277.614 24.0972 278.276 23.9287 279.028 23.9287C280.097 23.9287 280.969 24.2559 281.643 24.9102C282.321 25.5645 282.7 26.4531 282.778 27.5762L282.792 28.1182C282.792 29.334 282.453 30.3105 281.774 31.0479C281.096 31.7803 280.185 32.1465 279.042 32.1465C277.9 32.1465 276.987 31.7803 276.303 31.0479C275.625 30.3154 275.285 29.3193 275.285 28.0596V27.9644ZM277.402 28.1182C277.402 28.8701 277.543 29.4463 277.827 29.8467C278.11 30.2422 278.515 30.4399 279.042 30.4399C279.555 30.4399 279.956 30.2446 280.244 29.854C280.532 29.4585 280.676 28.8286 280.676 27.9644C280.676 27.2271 280.532 26.6558 280.244 26.2505C279.956 25.8452 279.55 25.6426 279.028 25.6426C278.51 25.6426 278.11 25.8452 277.827 26.2505C277.543 26.6509 277.402 27.2734 277.402 28.1182ZM288.388 29.8101C288.388 29.5513 288.259 29.3486 288 29.2021C287.746 29.0508 287.336 28.9165 286.77 28.7993C284.885 28.4038 283.942 27.603 283.942 26.397C283.942 25.6938 284.233 25.1079 284.814 24.6392C285.4 24.1655 286.164 23.9287 287.106 23.9287C288.112 23.9287 288.916 24.1655 289.516 24.6392C290.122 25.1128 290.424 25.728 290.424 26.4849H288.308C288.308 26.1821 288.21 25.9331 288.015 25.7378C287.819 25.5376 287.514 25.4375 287.099 25.4375C286.743 25.4375 286.467 25.5181 286.271 25.6792C286.076 25.8403 285.979 26.0454 285.979 26.2944C285.979 26.5288 286.088 26.7192 286.308 26.8657C286.533 27.0073 286.909 27.1318 287.436 27.2393C287.963 27.3418 288.408 27.459 288.769 27.5908C289.887 28.001 290.446 28.7114 290.446 29.7222C290.446 30.4448 290.136 31.0308 289.516 31.48C288.896 31.9243 288.095 32.1465 287.114 32.1465C286.45 32.1465 285.859 32.0293 285.341 31.7949C284.829 31.5557 284.426 31.231 284.133 30.8208C283.84 30.4058 283.693 29.959 283.693 29.4805H285.7C285.72 29.8564 285.859 30.1445 286.118 30.3447C286.376 30.5449 286.723 30.645 287.158 30.645C287.563 30.645 287.868 30.5693 288.073 30.418C288.283 30.2617 288.388 30.0591 288.388 29.8101ZM293.544 28.7261C293.544 28.0425 293.627 27.498 293.793 27.0928C293.959 26.6875 294.262 26.2896 294.702 25.8989C295.146 25.5034 295.441 25.1836 295.588 24.9395C295.734 24.6904 295.808 24.4292 295.808 24.1558C295.808 23.3306 295.427 22.918 294.665 22.918C294.304 22.918 294.013 23.0303 293.793 23.2549C293.579 23.4746 293.466 23.7798 293.457 24.1704H291.333C291.342 23.2378 291.643 22.5078 292.233 21.9805C292.829 21.4531 293.64 21.1895 294.665 21.1895C295.7 21.1895 296.503 21.4409 297.075 21.9438C297.646 22.4419 297.932 23.1475 297.932 24.0605C297.932 24.4756 297.839 24.8687 297.653 25.2397C297.468 25.606 297.143 26.0137 296.679 26.4629L296.086 27.0269C295.715 27.3833 295.502 27.8008 295.449 28.2793L295.419 28.7261H293.544ZM293.332 30.9746C293.332 30.6475 293.442 30.3789 293.662 30.1689C293.886 29.9541 294.172 29.8467 294.519 29.8467C294.865 29.8467 295.148 29.9541 295.368 30.1689C295.593 30.3789 295.705 30.6475 295.705 30.9746C295.705 31.2969 295.595 31.563 295.375 31.7729C295.161 31.9829 294.875 32.0879 294.519 32.0879C294.162 32.0879 293.874 31.9829 293.654 31.7729C293.439 31.563 293.332 31.2969 293.332 30.9746Z" fill="white"/>
<path d="M367 148.5C367 182.466 339.466 210 305.5 210C271.534 210 244 182.466 244 148.5C244 114.534 271.534 87 305.5 87C339.466 87 367 114.534 367 148.5Z" stroke="white" stroke-width="20"/>
<path d="M244.414 141.376C244.655 139.307 245.001 137.252 245.451 135.219" stroke="#A4DD00" stroke-width="20" stroke-linecap="round"/>
<path d="M60.209 81.9507C60.209 82.8133 59.9933 83.5783 59.562 84.2456C59.1307 84.9129 58.5366 85.446 57.7798 85.8447C58.6424 86.2598 59.326 86.8335 59.8306 87.5659C60.3351 88.2902 60.5874 89.1447 60.5874 90.1294C60.5874 91.7082 60.0503 92.9574 58.9761 93.877C57.9019 94.7884 56.4411 95.2441 54.5938 95.2441C52.7464 95.2441 51.2816 94.7843 50.1992 93.8647C49.1169 92.9451 48.5757 91.7 48.5757 90.1294C48.5757 89.1447 48.828 88.2861 49.3325 87.5537C49.8371 86.8213 50.5166 86.2516 51.3711 85.8447C50.6143 85.446 50.0202 84.9129 49.5889 84.2456C49.1657 83.5783 48.9541 82.8133 48.9541 81.9507C48.9541 80.437 49.4587 79.2326 50.4678 78.3374C51.4769 77.4341 52.8481 76.9824 54.5815 76.9824C56.3068 76.9824 57.674 77.43 58.6831 78.3252C59.7004 79.2122 60.209 80.4207 60.209 81.9507ZM57.0474 89.873C57.0474 89.0999 56.8236 88.4814 56.376 88.0176C55.9284 87.5537 55.3262 87.3218 54.5693 87.3218C53.8206 87.3218 53.2225 87.5537 52.7749 88.0176C52.3273 88.4733 52.1035 89.0918 52.1035 89.873C52.1035 90.6299 52.3232 91.2402 52.7627 91.7041C53.2021 92.168 53.8125 92.3999 54.5938 92.3999C55.3587 92.3999 55.9569 92.1761 56.3882 91.7285C56.8276 91.2809 57.0474 90.6624 57.0474 89.873ZM56.6812 82.1216C56.6812 81.4299 56.498 80.8765 56.1318 80.4614C55.7656 80.0382 55.2489 79.8267 54.5815 79.8267C53.9224 79.8267 53.4097 80.0301 53.0435 80.437C52.6772 80.8439 52.4941 81.4054 52.4941 82.1216C52.4941 82.8296 52.6772 83.3993 53.0435 83.8306C53.4097 84.2619 53.9264 84.4775 54.5938 84.4775C55.2611 84.4775 55.7738 84.2619 56.1318 83.8306C56.498 83.3993 56.6812 82.8296 56.6812 82.1216ZM74.9429 87.6514C74.9429 90.109 74.4342 91.9889 73.417 93.291C72.3997 94.5931 70.9105 95.2441 68.9492 95.2441C67.0124 95.2441 65.5312 94.6053 64.5059 93.3276C63.4805 92.05 62.9556 90.2189 62.9312 87.8345V84.563C62.9312 82.0809 63.4438 80.1969 64.4692 78.9111C65.5028 77.6253 66.988 76.9824 68.9248 76.9824C70.8617 76.9824 72.3428 77.6213 73.3682 78.8989C74.3936 80.1685 74.9185 81.9954 74.9429 84.3799V87.6514ZM71.415 84.0625C71.415 82.5895 71.2116 81.5194 70.8047 80.8521C70.4059 80.1766 69.7793 79.8389 68.9248 79.8389C68.0947 79.8389 67.4803 80.1603 67.0815 80.8032C66.6909 81.438 66.4834 82.4349 66.459 83.7939V88.1152C66.459 89.5638 66.6543 90.6421 67.0449 91.3501C67.4437 92.05 68.0785 92.3999 68.9492 92.3999C69.8118 92.3999 70.4344 92.0622 70.8169 91.3867C71.1994 90.7113 71.3988 89.6777 71.415 88.2861V84.0625ZM77.2866 80.6445C77.2866 79.554 77.6406 78.6711 78.3486 77.9956C79.0566 77.312 79.9844 76.9702 81.1318 76.9702C82.2956 76.9702 83.2314 77.3079 83.9395 77.9834C84.6475 78.6507 85.0015 79.5581 85.0015 80.7056V81.5845C85.0015 82.6831 84.6475 83.5661 83.9395 84.2334C83.2314 84.9007 82.3037 85.2344 81.1562 85.2344C80.0007 85.2344 79.0648 84.9007 78.3486 84.2334C77.6406 83.5579 77.2866 82.6506 77.2866 81.5112V80.6445ZM79.6304 81.5845C79.6304 82.0728 79.7687 82.4674 80.0454 82.7686C80.3302 83.0615 80.7005 83.208 81.1562 83.208C81.612 83.208 81.9741 83.0575 82.2427 82.7563C82.5112 82.4552 82.6455 82.0524 82.6455 81.5479V80.6445C82.6455 80.1562 82.5112 79.7616 82.2427 79.4604C81.9741 79.1593 81.6038 79.0088 81.1318 79.0088C80.6842 79.0088 80.3221 79.1593 80.0454 79.4604C79.7687 79.7534 79.6304 80.1644 79.6304 80.6934V81.5845ZM85.7827 90.6421C85.7827 89.5435 86.1408 88.6605 86.8569 87.9932C87.5731 87.3177 88.5008 86.98 89.6401 86.98C90.7957 86.98 91.7275 87.3136 92.4355 87.981C93.1517 88.6401 93.5098 89.5516 93.5098 90.7153V91.5942C93.5098 92.6847 93.1598 93.5677 92.46 94.2432C91.7601 94.9105 90.8283 95.2441 89.6646 95.2441C88.4927 95.2441 87.5527 94.9064 86.8447 94.231C86.1367 93.5555 85.7827 92.6603 85.7827 91.5454V90.6421ZM88.1265 91.5942C88.1265 92.0418 88.2729 92.4243 88.5659 92.7417C88.8589 93.0591 89.2251 93.2178 89.6646 93.2178C90.6574 93.2178 91.1538 92.6685 91.1538 91.5698V90.6421C91.1538 90.1538 91.0155 89.7632 90.7388 89.4702C90.4621 89.1691 90.0959 89.0186 89.6401 89.0186C89.1844 89.0186 88.8182 89.1691 88.5415 89.4702C88.2648 89.7632 88.1265 90.166 88.1265 90.6787V91.5942ZM81.8521 93.6694L80.1309 92.7417L88.8101 78.8501L90.5312 79.7778L81.8521 93.6694Z" fill="#00DDA3"/>
<path d="M57.1938 157H53.666V143.401L49.4546 144.708V141.839L56.8154 139.202H57.1938V157ZM74.5645 143.951C74.5645 144.813 74.3488 145.578 73.9175 146.246C73.4862 146.913 72.8921 147.446 72.1353 147.845C72.9979 148.26 73.6815 148.833 74.186 149.566C74.6906 150.29 74.9429 151.145 74.9429 152.129C74.9429 153.708 74.4058 154.957 73.3315 155.877C72.2573 156.788 70.7965 157.244 68.9492 157.244C67.1019 157.244 65.637 156.784 64.5547 155.865C63.4723 154.945 62.9312 153.7 62.9312 152.129C62.9312 151.145 63.1834 150.286 63.688 149.554C64.1925 148.821 64.8721 148.252 65.7266 147.845C64.9697 147.446 64.3757 146.913 63.9443 146.246C63.5212 145.578 63.3096 144.813 63.3096 143.951C63.3096 142.437 63.8141 141.233 64.8232 140.337C65.8324 139.434 67.2036 138.982 68.937 138.982C70.6623 138.982 72.0295 139.43 73.0386 140.325C74.0558 141.212 74.5645 142.421 74.5645 143.951ZM71.4028 151.873C71.4028 151.1 71.179 150.481 70.7314 150.018C70.2839 149.554 69.6816 149.322 68.9248 149.322C68.1761 149.322 67.578 149.554 67.1304 150.018C66.6828 150.473 66.459 151.092 66.459 151.873C66.459 152.63 66.6787 153.24 67.1182 153.704C67.5576 154.168 68.168 154.4 68.9492 154.4C69.7142 154.4 70.3123 154.176 70.7437 153.729C71.1831 153.281 71.4028 152.662 71.4028 151.873ZM71.0366 144.122C71.0366 143.43 70.8535 142.876 70.4873 142.461C70.1211 142.038 69.6043 141.827 68.937 141.827C68.2778 141.827 67.7651 142.03 67.3989 142.437C67.0327 142.844 66.8496 143.405 66.8496 144.122C66.8496 144.83 67.0327 145.399 67.3989 145.831C67.7651 146.262 68.2819 146.478 68.9492 146.478C69.6165 146.478 70.1292 146.262 70.4873 145.831C70.8535 145.399 71.0366 144.83 71.0366 144.122ZM77.2866 142.645C77.2866 141.554 77.6406 140.671 78.3486 139.996C79.0566 139.312 79.9844 138.97 81.1318 138.97C82.2956 138.97 83.2314 139.308 83.9395 139.983C84.6475 140.651 85.0015 141.558 85.0015 142.706V143.584C85.0015 144.683 84.6475 145.566 83.9395 146.233C83.2314 146.901 82.3037 147.234 81.1562 147.234C80.0007 147.234 79.0648 146.901 78.3486 146.233C77.6406 145.558 77.2866 144.651 77.2866 143.511V142.645ZM79.6304 143.584C79.6304 144.073 79.7687 144.467 80.0454 144.769C80.3302 145.062 80.7005 145.208 81.1562 145.208C81.612 145.208 81.9741 145.057 82.2427 144.756C82.5112 144.455 82.6455 144.052 82.6455 143.548V142.645C82.6455 142.156 82.5112 141.762 82.2427 141.46C81.9741 141.159 81.6038 141.009 81.1318 141.009C80.6842 141.009 80.3221 141.159 80.0454 141.46C79.7687 141.753 79.6304 142.164 79.6304 142.693V143.584ZM85.7827 152.642C85.7827 151.543 86.1408 150.66 86.8569 149.993C87.5731 149.318 88.5008 148.98 89.6401 148.98C90.7957 148.98 91.7275 149.314 92.4355 149.981C93.1517 150.64 93.5098 151.552 93.5098 152.715V153.594C93.5098 154.685 93.1598 155.568 92.46 156.243C91.7601 156.91 90.8283 157.244 89.6646 157.244C88.4927 157.244 87.5527 156.906 86.8447 156.231C86.1367 155.556 85.7827 154.66 85.7827 153.545V152.642ZM88.1265 153.594C88.1265 154.042 88.2729 154.424 88.5659 154.742C88.8589 155.059 89.2251 155.218 89.6646 155.218C90.6574 155.218 91.1538 154.668 91.1538 153.57V152.642C91.1538 152.154 91.0155 151.763 90.7388 151.47C90.4621 151.169 90.0959 151.019 89.6401 151.019C89.1844 151.019 88.8182 151.169 88.5415 151.47C88.2648 151.763 88.1265 152.166 88.1265 152.679V153.594ZM81.8521 155.669L80.1309 154.742L88.8101 140.85L90.5312 141.778L81.8521 155.669Z" fill="white"/>
<path d="M115.266 142.293C115.16 143.195 114.826 143.893 114.264 144.385C113.705 144.873 112.961 145.117 112.031 145.117C111.023 145.117 110.215 144.756 109.605 144.033C109 143.311 108.697 142.344 108.697 141.133V140.312C108.697 139.52 108.838 138.822 109.119 138.221C109.404 137.619 109.807 137.158 110.326 136.838C110.846 136.514 111.447 136.352 112.131 136.352C113.037 136.352 113.764 136.605 114.311 137.113C114.857 137.617 115.176 138.316 115.266 139.211H114.135C114.037 138.531 113.824 138.039 113.496 137.734C113.172 137.43 112.717 137.277 112.131 137.277C111.412 137.277 110.848 137.543 110.438 138.074C110.031 138.605 109.828 139.361 109.828 140.342V141.168C109.828 142.094 110.021 142.83 110.408 143.377C110.795 143.924 111.336 144.197 112.031 144.197C112.656 144.197 113.135 144.057 113.467 143.775C113.803 143.49 114.025 142.996 114.135 142.293H115.266ZM120.551 145C120.488 144.875 120.438 144.652 120.398 144.332C119.895 144.855 119.293 145.117 118.594 145.117C117.969 145.117 117.455 144.941 117.053 144.59C116.654 144.234 116.455 143.785 116.455 143.242C116.455 142.582 116.705 142.07 117.205 141.707C117.709 141.34 118.416 141.156 119.326 141.156H120.381V140.658C120.381 140.279 120.268 139.979 120.041 139.756C119.814 139.529 119.48 139.416 119.039 139.416C118.652 139.416 118.328 139.514 118.066 139.709C117.805 139.904 117.674 140.141 117.674 140.418H116.584C116.584 140.102 116.695 139.797 116.918 139.504C117.145 139.207 117.449 138.973 117.832 138.801C118.219 138.629 118.643 138.543 119.104 138.543C119.834 138.543 120.406 138.727 120.82 139.094C121.234 139.457 121.449 139.959 121.465 140.6V143.518C121.465 144.1 121.539 144.562 121.688 144.906V145H120.551ZM118.752 144.174C119.092 144.174 119.414 144.086 119.719 143.91C120.023 143.734 120.244 143.506 120.381 143.225V141.924H119.531C118.203 141.924 117.539 142.312 117.539 143.09C117.539 143.43 117.652 143.695 117.879 143.887C118.105 144.078 118.396 144.174 118.752 144.174ZM128.52 141.9C128.52 142.865 128.299 143.643 127.857 144.232C127.416 144.822 126.818 145.117 126.064 145.117C125.295 145.117 124.689 144.873 124.248 144.385V147.438H123.164V138.66H124.154L124.207 139.363C124.648 138.816 125.262 138.543 126.047 138.543C126.809 138.543 127.41 138.83 127.852 139.404C128.297 139.979 128.52 140.777 128.52 141.801V141.9ZM127.436 141.777C127.436 141.062 127.283 140.498 126.979 140.084C126.674 139.67 126.256 139.463 125.725 139.463C125.068 139.463 124.576 139.754 124.248 140.336V143.365C124.572 143.943 125.068 144.232 125.736 144.232C126.256 144.232 126.668 144.027 126.973 143.617C127.281 143.203 127.436 142.59 127.436 141.777ZM131.373 137.125V138.66H132.557V139.498H131.373V143.43C131.373 143.684 131.426 143.875 131.531 144.004C131.637 144.129 131.816 144.191 132.07 144.191C132.195 144.191 132.367 144.168 132.586 144.121V145C132.301 145.078 132.023 145.117 131.754 145.117C131.27 145.117 130.904 144.971 130.658 144.678C130.412 144.385 130.289 143.969 130.289 143.43V139.498H129.135V138.66H130.289V137.125H131.373ZM137.742 145C137.68 144.875 137.629 144.652 137.59 144.332C137.086 144.855 136.484 145.117 135.785 145.117C135.16 145.117 134.646 144.941 134.244 144.59C133.846 144.234 133.646 143.785 133.646 143.242C133.646 142.582 133.896 142.07 134.396 141.707C134.9 141.34 135.607 141.156 136.518 141.156H137.572V140.658C137.572 140.279 137.459 139.979 137.232 139.756C137.006 139.529 136.672 139.416 136.23 139.416C135.844 139.416 135.52 139.514 135.258 139.709C134.996 139.904 134.865 140.141 134.865 140.418H133.775C133.775 140.102 133.887 139.797 134.109 139.504C134.336 139.207 134.641 138.973 135.023 138.801C135.41 138.629 135.834 138.543 136.295 138.543C137.025 138.543 137.598 138.727 138.012 139.094C138.426 139.457 138.641 139.959 138.656 140.6V143.518C138.656 144.1 138.73 144.562 138.879 144.906V145H137.742ZM135.943 144.174C136.283 144.174 136.605 144.086 136.91 143.91C137.215 143.734 137.436 143.506 137.572 143.225V141.924H136.723C135.395 141.924 134.73 142.312 134.73 143.09C134.73 143.43 134.844 143.695 135.07 143.887C135.297 144.078 135.588 144.174 135.943 144.174ZM142.898 144.232C143.285 144.232 143.623 144.115 143.912 143.881C144.201 143.646 144.361 143.354 144.393 143.002H145.418C145.398 143.365 145.273 143.711 145.043 144.039C144.812 144.367 144.504 144.629 144.117 144.824C143.734 145.02 143.328 145.117 142.898 145.117C142.035 145.117 141.348 144.83 140.836 144.256C140.328 143.678 140.074 142.889 140.074 141.889V141.707C140.074 141.09 140.188 140.541 140.414 140.061C140.641 139.58 140.965 139.207 141.387 138.941C141.812 138.676 142.314 138.543 142.893 138.543C143.604 138.543 144.193 138.756 144.662 139.182C145.135 139.607 145.387 140.16 145.418 140.84H144.393C144.361 140.43 144.205 140.094 143.924 139.832C143.646 139.566 143.303 139.434 142.893 139.434C142.342 139.434 141.914 139.633 141.609 140.031C141.309 140.426 141.158 140.998 141.158 141.748V141.953C141.158 142.684 141.309 143.246 141.609 143.641C141.91 144.035 142.34 144.232 142.898 144.232ZM147.814 145H146.73V138.66H147.814V145ZM146.643 136.979C146.643 136.803 146.695 136.654 146.801 136.533C146.91 136.412 147.07 136.352 147.281 136.352C147.492 136.352 147.652 136.412 147.762 136.533C147.871 136.654 147.926 136.803 147.926 136.979C147.926 137.154 147.871 137.301 147.762 137.418C147.652 137.535 147.492 137.594 147.281 137.594C147.07 137.594 146.91 137.535 146.801 137.418C146.695 137.301 146.643 137.154 146.643 136.979ZM149.268 141.771C149.268 141.15 149.389 140.592 149.631 140.096C149.877 139.6 150.217 139.217 150.65 138.947C151.088 138.678 151.586 138.543 152.145 138.543C153.008 138.543 153.705 138.842 154.236 139.439C154.771 140.037 155.039 140.832 155.039 141.824V141.9C155.039 142.518 154.92 143.072 154.682 143.564C154.447 144.053 154.109 144.434 153.668 144.707C153.23 144.98 152.727 145.117 152.156 145.117C151.297 145.117 150.6 144.818 150.064 144.221C149.533 143.623 149.268 142.832 149.268 141.848V141.771ZM150.357 141.9C150.357 142.604 150.52 143.168 150.844 143.594C151.172 144.02 151.609 144.232 152.156 144.232C152.707 144.232 153.145 144.018 153.469 143.588C153.793 143.154 153.955 142.549 153.955 141.771C153.955 141.076 153.789 140.514 153.457 140.084C153.129 139.65 152.691 139.434 152.145 139.434C151.609 139.434 151.178 139.646 150.85 140.072C150.521 140.498 150.357 141.107 150.357 141.9ZM152.637 136H153.949L152.379 137.723H151.506L152.637 136ZM157.424 138.66L157.459 139.457C157.943 138.848 158.576 138.543 159.357 138.543C160.697 138.543 161.373 139.299 161.385 140.811V145H160.301V140.805C160.297 140.348 160.191 140.01 159.984 139.791C159.781 139.572 159.463 139.463 159.029 139.463C158.678 139.463 158.369 139.557 158.104 139.744C157.838 139.932 157.631 140.178 157.482 140.482V145H156.398V138.66H157.424ZM165.732 141.777C165.732 140.805 165.963 140.023 166.424 139.434C166.885 138.84 167.488 138.543 168.234 138.543C168.977 138.543 169.564 138.797 169.998 139.305V136H171.082V145H170.086L170.033 144.32C169.6 144.852 168.996 145.117 168.223 145.117C167.488 145.117 166.889 144.816 166.424 144.215C165.963 143.613 165.732 142.828 165.732 141.859V141.777ZM166.816 141.9C166.816 142.619 166.965 143.182 167.262 143.588C167.559 143.994 167.969 144.197 168.492 144.197C169.18 144.197 169.682 143.889 169.998 143.271V140.359C169.674 139.762 169.176 139.463 168.504 139.463C167.973 139.463 167.559 139.668 167.262 140.078C166.965 140.488 166.816 141.096 166.816 141.9ZM175.4 145.117C174.541 145.117 173.842 144.836 173.303 144.273C172.764 143.707 172.494 142.951 172.494 142.006V141.807C172.494 141.178 172.613 140.617 172.852 140.125C173.094 139.629 173.43 139.242 173.859 138.965C174.293 138.684 174.762 138.543 175.266 138.543C176.09 138.543 176.73 138.814 177.188 139.357C177.645 139.9 177.873 140.678 177.873 141.689V142.141H173.578C173.594 142.766 173.775 143.271 174.123 143.658C174.475 144.041 174.92 144.232 175.459 144.232C175.842 144.232 176.166 144.154 176.432 143.998C176.697 143.842 176.93 143.635 177.129 143.377L177.791 143.893C177.26 144.709 176.463 145.117 175.4 145.117ZM175.266 139.434C174.828 139.434 174.461 139.594 174.164 139.914C173.867 140.23 173.684 140.676 173.613 141.25H176.789V141.168C176.758 140.617 176.609 140.191 176.344 139.891C176.078 139.586 175.719 139.434 175.266 139.434ZM109.354 159V153.498H108.352V152.66H109.354V152.01C109.354 151.33 109.535 150.805 109.898 150.434C110.262 150.062 110.775 149.877 111.439 149.877C111.689 149.877 111.938 149.91 112.184 149.977L112.125 150.855C111.941 150.82 111.746 150.803 111.539 150.803C111.188 150.803 110.916 150.906 110.725 151.113C110.533 151.316 110.438 151.609 110.438 151.992V152.66H111.791V153.498H110.438V159H109.354ZM112.705 155.771C112.705 155.15 112.826 154.592 113.068 154.096C113.314 153.6 113.654 153.217 114.088 152.947C114.525 152.678 115.023 152.543 115.582 152.543C116.445 152.543 117.143 152.842 117.674 153.439C118.209 154.037 118.477 154.832 118.477 155.824V155.9C118.477 156.518 118.357 157.072 118.119 157.564C117.885 158.053 117.547 158.434 117.105 158.707C116.668 158.98 116.164 159.117 115.594 159.117C114.734 159.117 114.037 158.818 113.502 158.221C112.971 157.623 112.705 156.832 112.705 155.848V155.771ZM113.795 155.9C113.795 156.604 113.957 157.168 114.281 157.594C114.609 158.02 115.047 158.232 115.594 158.232C116.145 158.232 116.582 158.018 116.906 157.588C117.23 157.154 117.393 156.549 117.393 155.771C117.393 155.076 117.227 154.514 116.895 154.084C116.566 153.65 116.129 153.434 115.582 153.434C115.047 153.434 114.615 153.646 114.287 154.072C113.959 154.498 113.795 155.107 113.795 155.9ZM120.861 152.66L120.896 153.457C121.381 152.848 122.014 152.543 122.795 152.543C124.135 152.543 124.811 153.299 124.822 154.811V159H123.738V154.805C123.734 154.348 123.629 154.01 123.422 153.791C123.219 153.572 122.9 153.463 122.467 153.463C122.115 153.463 121.807 153.557 121.541 153.744C121.275 153.932 121.068 154.178 120.92 154.482V159H119.836V152.66H120.861ZM126.193 155.777C126.193 154.805 126.424 154.023 126.885 153.434C127.346 152.84 127.949 152.543 128.695 152.543C129.438 152.543 130.025 152.797 130.459 153.305V150H131.543V159H130.547L130.494 158.32C130.061 158.852 129.457 159.117 128.684 159.117C127.949 159.117 127.35 158.816 126.885 158.215C126.424 157.613 126.193 156.828 126.193 155.859V155.777ZM127.277 155.9C127.277 156.619 127.426 157.182 127.723 157.588C128.02 157.994 128.43 158.197 128.953 158.197C129.641 158.197 130.143 157.889 130.459 157.271V154.359C130.135 153.762 129.637 153.463 128.965 153.463C128.434 153.463 128.02 153.668 127.723 154.078C127.426 154.488 127.277 155.096 127.277 155.9ZM132.943 155.771C132.943 155.15 133.064 154.592 133.307 154.096C133.553 153.6 133.893 153.217 134.326 152.947C134.764 152.678 135.262 152.543 135.82 152.543C136.684 152.543 137.381 152.842 137.912 153.439C138.447 154.037 138.715 154.832 138.715 155.824V155.9C138.715 156.518 138.596 157.072 138.357 157.564C138.123 158.053 137.785 158.434 137.344 158.707C136.906 158.98 136.402 159.117 135.832 159.117C134.973 159.117 134.275 158.818 133.74 158.221C133.209 157.623 132.943 156.832 132.943 155.848V155.771ZM134.033 155.9C134.033 156.604 134.195 157.168 134.52 157.594C134.848 158.02 135.285 158.232 135.832 158.232C136.383 158.232 136.82 158.018 137.145 157.588C137.469 157.154 137.631 156.549 137.631 155.771C137.631 155.076 137.465 154.514 137.133 154.084C136.805 153.65 136.367 153.434 135.82 153.434C135.285 153.434 134.854 153.646 134.525 154.072C134.197 154.498 134.033 155.107 134.033 155.9ZM143.766 157.318C143.766 157.025 143.654 156.799 143.432 156.639C143.213 156.475 142.828 156.334 142.277 156.217C141.73 156.1 141.295 155.959 140.971 155.795C140.65 155.631 140.412 155.436 140.256 155.209C140.104 154.982 140.027 154.713 140.027 154.4C140.027 153.881 140.246 153.441 140.684 153.082C141.125 152.723 141.688 152.543 142.371 152.543C143.09 152.543 143.672 152.729 144.117 153.1C144.566 153.471 144.791 153.945 144.791 154.523H143.701C143.701 154.227 143.574 153.971 143.32 153.756C143.07 153.541 142.754 153.434 142.371 153.434C141.977 153.434 141.668 153.52 141.445 153.691C141.223 153.863 141.111 154.088 141.111 154.365C141.111 154.627 141.215 154.824 141.422 154.957C141.629 155.09 142.002 155.217 142.541 155.338C143.084 155.459 143.523 155.604 143.859 155.771C144.195 155.939 144.443 156.143 144.604 156.381C144.768 156.615 144.85 156.902 144.85 157.242C144.85 157.809 144.623 158.264 144.17 158.607C143.717 158.947 143.129 159.117 142.406 159.117C141.898 159.117 141.449 159.027 141.059 158.848C140.668 158.668 140.361 158.418 140.139 158.098C139.92 157.773 139.811 157.424 139.811 157.049H140.895C140.914 157.412 141.059 157.701 141.328 157.916C141.602 158.127 141.961 158.232 142.406 158.232C142.816 158.232 143.145 158.15 143.391 157.986C143.641 157.818 143.766 157.596 143.766 157.318ZM151.312 157.412L152.789 152.66H153.949L151.4 159.979C151.006 161.033 150.379 161.561 149.52 161.561L149.314 161.543L148.91 161.467V160.588L149.203 160.611C149.57 160.611 149.855 160.537 150.059 160.389C150.266 160.24 150.436 159.969 150.568 159.574L150.809 158.93L148.547 152.66H149.73L151.312 157.412ZM112.512 171.318C112.512 171.025 112.4 170.799 112.178 170.639C111.959 170.475 111.574 170.334 111.023 170.217C110.477 170.1 110.041 169.959 109.717 169.795C109.396 169.631 109.158 169.436 109.002 169.209C108.85 168.982 108.773 168.713 108.773 168.4C108.773 167.881 108.992 167.441 109.43 167.082C109.871 166.723 110.434 166.543 111.117 166.543C111.836 166.543 112.418 166.729 112.863 167.1C113.312 167.471 113.537 167.945 113.537 168.523H112.447C112.447 168.227 112.32 167.971 112.066 167.756C111.816 167.541 111.5 167.434 111.117 167.434C110.723 167.434 110.414 167.52 110.191 167.691C109.969 167.863 109.857 168.088 109.857 168.365C109.857 168.627 109.961 168.824 110.168 168.957C110.375 169.09 110.748 169.217 111.287 169.338C111.83 169.459 112.27 169.604 112.605 169.771C112.941 169.939 113.189 170.143 113.35 170.381C113.514 170.615 113.596 170.902 113.596 171.242C113.596 171.809 113.369 172.264 112.916 172.607C112.463 172.947 111.875 173.117 111.152 173.117C110.645 173.117 110.195 173.027 109.805 172.848C109.414 172.668 109.107 172.418 108.885 172.098C108.666 171.773 108.557 171.424 108.557 171.049H109.641C109.66 171.412 109.805 171.701 110.074 171.916C110.348 172.127 110.707 172.232 111.152 172.232C111.562 172.232 111.891 172.15 112.137 171.986C112.387 171.818 112.512 171.596 112.512 171.318ZM117.639 173.117C116.779 173.117 116.08 172.836 115.541 172.273C115.002 171.707 114.732 170.951 114.732 170.006V169.807C114.732 169.178 114.852 168.617 115.09 168.125C115.332 167.629 115.668 167.242 116.098 166.965C116.531 166.684 117 166.543 117.504 166.543C118.328 166.543 118.969 166.814 119.426 167.357C119.883 167.9 120.111 168.678 120.111 169.689V170.141H115.816C115.832 170.766 116.014 171.271 116.361 171.658C116.713 172.041 117.158 172.232 117.697 172.232C118.08 172.232 118.404 172.154 118.67 171.998C118.936 171.842 119.168 171.635 119.367 171.377L120.029 171.893C119.498 172.709 118.701 173.117 117.639 173.117ZM117.504 167.434C117.066 167.434 116.699 167.594 116.402 167.914C116.105 168.23 115.922 168.676 115.852 169.25H119.027V169.168C118.996 168.617 118.848 168.191 118.582 167.891C118.316 167.586 117.957 167.434 117.504 167.434ZM122.396 166.66L122.432 167.457C122.916 166.848 123.549 166.543 124.33 166.543C125.67 166.543 126.346 167.299 126.357 168.811V173H125.273V168.805C125.27 168.348 125.164 168.01 124.957 167.791C124.754 167.572 124.436 167.463 124.002 167.463C123.65 167.463 123.342 167.557 123.076 167.744C122.811 167.932 122.604 168.178 122.455 168.482V173H121.371V166.66H122.396ZM131.684 171.318C131.684 171.025 131.572 170.799 131.35 170.639C131.131 170.475 130.746 170.334 130.195 170.217C129.648 170.1 129.213 169.959 128.889 169.795C128.568 169.631 128.33 169.436 128.174 169.209C128.021 168.982 127.945 168.713 127.945 168.4C127.945 167.881 128.164 167.441 128.602 167.082C129.043 166.723 129.605 166.543 130.289 166.543C131.008 166.543 131.59 166.729 132.035 167.1C132.484 167.471 132.709 167.945 132.709 168.523H131.619C131.619 168.227 131.492 167.971 131.238 167.756C130.988 167.541 130.672 167.434 130.289 167.434C129.895 167.434 129.586 167.52 129.363 167.691C129.141 167.863 129.029 168.088 129.029 168.365C129.029 168.627 129.133 168.824 129.34 168.957C129.547 169.09 129.92 169.217 130.459 169.338C131.002 169.459 131.441 169.604 131.777 169.771C132.113 169.939 132.361 170.143 132.521 170.381C132.686 170.615 132.768 170.902 132.768 171.242C132.768 171.809 132.541 172.264 132.088 172.607C131.635 172.947 131.047 173.117 130.324 173.117C129.816 173.117 129.367 173.027 128.977 172.848C128.586 172.668 128.279 172.418 128.057 172.098C127.838 171.773 127.729 171.424 127.729 171.049H128.812C128.832 171.412 128.977 171.701 129.246 171.916C129.52 172.127 129.879 172.232 130.324 172.232C130.734 172.232 131.062 172.15 131.309 171.986C131.559 171.818 131.684 171.596 131.684 171.318ZM135.357 173H134.273V166.66H135.357V173ZM134.186 164.979C134.186 164.803 134.238 164.654 134.344 164.533C134.453 164.412 134.613 164.352 134.824 164.352C135.035 164.352 135.195 164.412 135.305 164.533C135.414 164.654 135.469 164.803 135.469 164.979C135.469 165.154 135.414 165.301 135.305 165.418C135.195 165.535 135.035 165.594 134.824 165.594C134.613 165.594 134.453 165.535 134.344 165.418C134.238 165.301 134.186 165.154 134.186 164.979ZM142.465 169.9C142.465 170.869 142.242 171.648 141.797 172.238C141.352 172.824 140.754 173.117 140.004 173.117C139.203 173.117 138.584 172.834 138.146 172.268L138.094 173H137.098V164H138.182V167.357C138.619 166.814 139.223 166.543 139.992 166.543C140.762 166.543 141.365 166.834 141.803 167.416C142.244 167.998 142.465 168.795 142.465 169.807V169.9ZM141.381 169.777C141.381 169.039 141.238 168.469 140.953 168.066C140.668 167.664 140.258 167.463 139.723 167.463C139.008 167.463 138.494 167.795 138.182 168.459V171.201C138.514 171.865 139.031 172.197 139.734 172.197C140.254 172.197 140.658 171.996 140.947 171.594C141.236 171.191 141.381 170.586 141.381 169.777ZM145.014 173H143.93V166.66H145.014V173ZM143.842 164.979C143.842 164.803 143.895 164.654 144 164.533C144.109 164.412 144.27 164.352 144.48 164.352C144.691 164.352 144.852 164.412 144.961 164.533C145.07 164.654 145.125 164.803 145.125 164.979C145.125 165.154 145.07 165.301 144.961 165.418C144.852 165.535 144.691 165.594 144.48 165.594C144.27 165.594 144.109 165.535 144 165.418C143.895 165.301 143.842 165.154 143.842 164.979ZM147.932 173H146.848V164H147.932V173ZM153.586 173C153.523 172.875 153.473 172.652 153.434 172.332C152.93 172.855 152.328 173.117 151.629 173.117C151.004 173.117 150.49 172.941 150.088 172.59C149.689 172.234 149.49 171.785 149.49 171.242C149.49 170.582 149.74 170.07 150.24 169.707C150.744 169.34 151.451 169.156 152.361 169.156H153.416V168.658C153.416 168.279 153.303 167.979 153.076 167.756C152.85 167.529 152.516 167.416 152.074 167.416C151.688 167.416 151.363 167.514 151.102 167.709C150.84 167.904 150.709 168.141 150.709 168.418H149.619C149.619 168.102 149.73 167.797 149.953 167.504C150.18 167.207 150.484 166.973 150.867 166.801C151.254 166.629 151.678 166.543 152.139 166.543C152.869 166.543 153.441 166.727 153.855 167.094C154.27 167.457 154.484 167.959 154.5 168.6V171.518C154.5 172.1 154.574 172.562 154.723 172.906V173H153.586ZM151.787 172.174C152.127 172.174 152.449 172.086 152.754 171.91C153.059 171.734 153.279 171.506 153.416 171.225V169.924H152.566C151.238 169.924 150.574 170.312 150.574 171.09C150.574 171.43 150.688 171.695 150.914 171.887C151.141 172.078 151.432 172.174 151.787 172.174ZM158.742 172.232C159.129 172.232 159.467 172.115 159.756 171.881C160.045 171.646 160.205 171.354 160.236 171.002H161.262C161.242 171.365 161.117 171.711 160.887 172.039C160.656 172.367 160.348 172.629 159.961 172.824C159.578 173.02 159.172 173.117 158.742 173.117C157.879 173.117 157.191 172.83 156.68 172.256C156.172 171.678 155.918 170.889 155.918 169.889V169.707C155.918 169.09 156.031 168.541 156.258 168.061C156.484 167.58 156.809 167.207 157.23 166.941C157.656 166.676 158.158 166.543 158.736 166.543C159.447 166.543 160.037 166.756 160.506 167.182C160.979 167.607 161.23 168.16 161.262 168.84H160.236C160.205 168.43 160.049 168.094 159.768 167.832C159.49 167.566 159.146 167.434 158.736 167.434C158.186 167.434 157.758 167.633 157.453 168.031C157.152 168.426 157.002 168.998 157.002 169.748V169.953C157.002 170.684 157.152 171.246 157.453 171.641C157.754 172.035 158.184 172.232 158.742 172.232ZM163.658 173H162.574V166.66H163.658V173ZM162.486 164.979C162.486 164.803 162.539 164.654 162.645 164.533C162.754 164.412 162.914 164.352 163.125 164.352C163.336 164.352 163.496 164.412 163.605 164.533C163.715 164.654 163.77 164.803 163.77 164.979C163.77 165.154 163.715 165.301 163.605 165.418C163.496 165.535 163.336 165.594 163.125 165.594C162.914 165.594 162.754 165.535 162.645 165.418C162.539 165.301 162.486 165.154 162.486 164.979ZM165.111 169.771C165.111 169.15 165.232 168.592 165.475 168.096C165.721 167.6 166.061 167.217 166.494 166.947C166.932 166.678 167.43 166.543 167.988 166.543C168.852 166.543 169.549 166.842 170.08 167.439C170.615 168.037 170.883 168.832 170.883 169.824V169.9C170.883 170.518 170.764 171.072 170.525 171.564C170.291 172.053 169.953 172.434 169.512 172.707C169.074 172.98 168.57 173.117 168 173.117C167.141 173.117 166.443 172.818 165.908 172.221C165.377 171.623 165.111 170.832 165.111 169.848V169.771ZM166.201 169.9C166.201 170.604 166.363 171.168 166.688 171.594C167.016 172.02 167.453 172.232 168 172.232C168.551 172.232 168.988 172.018 169.312 171.588C169.637 171.154 169.799 170.549 169.799 169.771C169.799 169.076 169.633 168.514 169.301 168.084C168.973 167.65 168.535 167.434 167.988 167.434C167.453 167.434 167.021 167.646 166.693 168.072C166.365 168.498 166.201 169.107 166.201 169.9ZM168.48 164H169.793L168.223 165.723H167.35L168.48 164ZM173.268 166.66L173.303 167.457C173.787 166.848 174.42 166.543 175.201 166.543C176.541 166.543 177.217 167.299 177.229 168.811V173H176.145V168.805C176.141 168.348 176.035 168.01 175.828 167.791C175.625 167.572 175.307 167.463 174.873 167.463C174.521 167.463 174.213 167.557 173.947 167.744C173.682 167.932 173.475 168.178 173.326 168.482V173H172.242V166.66H173.268Z" fill="white"/>
<path d="M68.9849 221H56.8022V218.583L62.5518 212.455C63.3411 211.592 63.923 210.84 64.2974 210.197C64.6799 209.554 64.8711 208.944 64.8711 208.366C64.8711 207.576 64.6717 206.958 64.2729 206.51C63.8742 206.055 63.3045 205.827 62.564 205.827C61.7664 205.827 61.1357 206.103 60.6719 206.657C60.2161 207.202 59.9883 207.922 59.9883 208.817H56.4482C56.4482 207.735 56.7046 206.746 57.2173 205.851C57.7381 204.956 58.4705 204.256 59.4146 203.751C60.3586 203.239 61.4287 202.982 62.625 202.982C64.4561 202.982 65.8761 203.422 66.8853 204.301C67.9025 205.18 68.4111 206.421 68.4111 208.024C68.4111 208.903 68.1833 209.798 67.7275 210.709C67.2718 211.621 66.4906 212.683 65.3838 213.896L61.3433 218.156H68.9849V221ZM71.1089 206.645C71.1089 205.554 71.4629 204.671 72.1709 203.996C72.8789 203.312 73.8066 202.97 74.9541 202.97C76.1178 202.97 77.0537 203.308 77.7617 203.983C78.4697 204.651 78.8237 205.558 78.8237 206.706V207.584C78.8237 208.683 78.4697 209.566 77.7617 210.233C77.0537 210.901 76.126 211.234 74.9785 211.234C73.8229 211.234 72.887 210.901 72.1709 210.233C71.4629 209.558 71.1089 208.651 71.1089 207.511V206.645ZM73.4526 207.584C73.4526 208.073 73.591 208.467 73.8677 208.769C74.1525 209.062 74.5228 209.208 74.9785 209.208C75.4342 209.208 75.7964 209.057 76.0649 208.756C76.3335 208.455 76.4678 208.052 76.4678 207.548V206.645C76.4678 206.156 76.3335 205.762 76.0649 205.46C75.7964 205.159 75.4261 205.009 74.9541 205.009C74.5065 205.009 74.1444 205.159 73.8677 205.46C73.591 205.753 73.4526 206.164 73.4526 206.693V207.584ZM79.605 216.642C79.605 215.543 79.9631 214.66 80.6792 213.993C81.3953 213.318 82.3231 212.98 83.4624 212.98C84.618 212.98 85.5498 213.314 86.2578 213.981C86.974 214.64 87.332 215.552 87.332 216.715V217.594C87.332 218.685 86.9821 219.568 86.2822 220.243C85.5824 220.91 84.6506 221.244 83.4868 221.244C82.3149 221.244 81.375 220.906 80.667 220.231C79.959 219.556 79.605 218.66 79.605 217.545V216.642ZM81.9487 217.594C81.9487 218.042 82.0952 218.424 82.3882 218.742C82.6812 219.059 83.0474 219.218 83.4868 219.218C84.4797 219.218 84.9761 218.668 84.9761 217.57V216.642C84.9761 216.154 84.8377 215.763 84.561 215.47C84.2843 215.169 83.9181 215.019 83.4624 215.019C83.0067 215.019 82.6405 215.169 82.3638 215.47C82.0871 215.763 81.9487 216.166 81.9487 216.679V217.594ZM75.6743 219.669L73.9531 218.742L82.6323 204.85L84.3535 205.778L75.6743 219.669Z" fill="#A4DD00"/>
<path d="M113.701 209.773H110.127L109.324 212H108.164L111.422 203.469H112.406L115.67 212H114.516L113.701 209.773ZM110.467 208.848H113.367L111.914 204.857L110.467 208.848ZM116.385 208.777C116.385 207.805 116.615 207.023 117.076 206.434C117.537 205.84 118.141 205.543 118.887 205.543C119.629 205.543 120.217 205.797 120.65 206.305V203H121.734V212H120.738L120.686 211.32C120.252 211.852 119.648 212.117 118.875 212.117C118.141 212.117 117.541 211.816 117.076 211.215C116.615 210.613 116.385 209.828 116.385 208.859V208.777ZM117.469 208.9C117.469 209.619 117.617 210.182 117.914 210.588C118.211 210.994 118.621 211.197 119.145 211.197C119.832 211.197 120.334 210.889 120.65 210.271V207.359C120.326 206.762 119.828 206.463 119.156 206.463C118.625 206.463 118.211 206.668 117.914 207.078C117.617 207.488 117.469 208.096 117.469 208.9ZM124.441 205.66L124.471 206.363C124.936 205.816 125.562 205.543 126.352 205.543C127.238 205.543 127.842 205.883 128.162 206.562C128.373 206.258 128.646 206.012 128.982 205.824C129.322 205.637 129.723 205.543 130.184 205.543C131.574 205.543 132.281 206.279 132.305 207.752V212H131.221V207.816C131.221 207.363 131.117 207.025 130.91 206.803C130.703 206.576 130.355 206.463 129.867 206.463C129.465 206.463 129.131 206.584 128.865 206.826C128.6 207.064 128.445 207.387 128.402 207.793V212H127.312V207.846C127.312 206.924 126.861 206.463 125.959 206.463C125.248 206.463 124.762 206.766 124.5 207.371V212H123.416V205.66H124.441ZM135.123 212H134.039V205.66H135.123V212ZM133.951 203.979C133.951 203.803 134.004 203.654 134.109 203.533C134.219 203.412 134.379 203.352 134.59 203.352C134.801 203.352 134.961 203.412 135.07 203.533C135.18 203.654 135.234 203.803 135.234 203.979C135.234 204.154 135.18 204.301 135.07 204.418C134.961 204.535 134.801 204.594 134.59 204.594C134.379 204.594 134.219 204.535 134.109 204.418C134.004 204.301 133.951 204.154 133.951 203.979ZM137.889 205.66L137.924 206.457C138.408 205.848 139.041 205.543 139.822 205.543C141.162 205.543 141.838 206.299 141.85 207.811V212H140.766V207.805C140.762 207.348 140.656 207.01 140.449 206.791C140.246 206.572 139.928 206.463 139.494 206.463C139.143 206.463 138.834 206.557 138.568 206.744C138.303 206.932 138.096 207.178 137.947 207.482V212H136.863V205.66H137.889ZM144.662 212H143.578V205.66H144.662V212ZM143.49 203.979C143.49 203.803 143.543 203.654 143.648 203.533C143.758 203.412 143.918 203.352 144.129 203.352C144.34 203.352 144.5 203.412 144.609 203.533C144.719 203.654 144.773 203.803 144.773 203.979C144.773 204.154 144.719 204.301 144.609 204.418C144.5 204.535 144.34 204.594 144.129 204.594C143.918 204.594 143.758 204.535 143.648 204.418C143.543 204.301 143.49 204.154 143.49 203.979ZM150.094 210.318C150.094 210.025 149.982 209.799 149.76 209.639C149.541 209.475 149.156 209.334 148.605 209.217C148.059 209.1 147.623 208.959 147.299 208.795C146.979 208.631 146.74 208.436 146.584 208.209C146.432 207.982 146.355 207.713 146.355 207.4C146.355 206.881 146.574 206.441 147.012 206.082C147.453 205.723 148.016 205.543 148.699 205.543C149.418 205.543 150 205.729 150.445 206.1C150.895 206.471 151.119 206.945 151.119 207.523H150.029C150.029 207.227 149.902 206.971 149.648 206.756C149.398 206.541 149.082 206.434 148.699 206.434C148.305 206.434 147.996 206.52 147.773 206.691C147.551 206.863 147.439 207.088 147.439 207.365C147.439 207.627 147.543 207.824 147.75 207.957C147.957 208.09 148.33 208.217 148.869 208.338C149.412 208.459 149.852 208.604 150.188 208.771C150.523 208.939 150.771 209.143 150.932 209.381C151.096 209.615 151.178 209.902 151.178 210.242C151.178 210.809 150.951 211.264 150.498 211.607C150.045 211.947 149.457 212.117 148.734 212.117C148.227 212.117 147.777 212.027 147.387 211.848C146.996 211.668 146.689 211.418 146.467 211.098C146.248 210.773 146.139 210.424 146.139 210.049H147.223C147.242 210.412 147.387 210.701 147.656 210.916C147.93 211.127 148.289 211.232 148.734 211.232C149.145 211.232 149.473 211.15 149.719 210.986C149.969 210.818 150.094 210.596 150.094 210.318ZM154.061 204.125V205.66H155.244V206.498H154.061V210.43C154.061 210.684 154.113 210.875 154.219 211.004C154.324 211.129 154.504 211.191 154.758 211.191C154.883 211.191 155.055 211.168 155.273 211.121V212C154.988 212.078 154.711 212.117 154.441 212.117C153.957 212.117 153.592 211.971 153.346 211.678C153.1 211.385 152.977 210.969 152.977 210.43V206.498H151.822V205.66H152.977V204.125H154.061ZM159.58 206.633C159.416 206.605 159.238 206.592 159.047 206.592C158.336 206.592 157.854 206.895 157.6 207.5V212H156.516V205.66H157.57L157.588 206.393C157.943 205.826 158.447 205.543 159.1 205.543C159.311 205.543 159.471 205.57 159.58 205.625V206.633ZM164.262 212C164.199 211.875 164.148 211.652 164.109 211.332C163.605 211.855 163.004 212.117 162.305 212.117C161.68 212.117 161.166 211.941 160.764 211.59C160.365 211.234 160.166 210.785 160.166 210.242C160.166 209.582 160.416 209.07 160.916 208.707C161.42 208.34 162.127 208.156 163.037 208.156H164.092V207.658C164.092 207.279 163.979 206.979 163.752 206.756C163.525 206.529 163.191 206.416 162.75 206.416C162.363 206.416 162.039 206.514 161.777 206.709C161.516 206.904 161.385 207.141 161.385 207.418H160.295C160.295 207.102 160.406 206.797 160.629 206.504C160.855 206.207 161.16 205.973 161.543 205.801C161.93 205.629 162.354 205.543 162.814 205.543C163.545 205.543 164.117 205.727 164.531 206.094C164.945 206.457 165.16 206.959 165.176 207.6V210.518C165.176 211.1 165.25 211.562 165.398 211.906V212H164.262ZM162.463 211.174C162.803 211.174 163.125 211.086 163.43 210.91C163.734 210.734 163.955 210.506 164.092 210.225V208.924H163.242C161.914 208.924 161.25 209.312 161.25 210.09C161.25 210.43 161.363 210.695 161.59 210.887C161.816 211.078 162.107 211.174 162.463 211.174ZM169.418 211.232C169.805 211.232 170.143 211.115 170.432 210.881C170.721 210.646 170.881 210.354 170.912 210.002H171.938C171.918 210.365 171.793 210.711 171.562 211.039C171.332 211.367 171.023 211.629 170.637 211.824C170.254 212.02 169.848 212.117 169.418 212.117C168.555 212.117 167.867 211.83 167.355 211.256C166.848 210.678 166.594 209.889 166.594 208.889V208.707C166.594 208.09 166.707 207.541 166.934 207.061C167.16 206.58 167.484 206.207 167.906 205.941C168.332 205.676 168.834 205.543 169.412 205.543C170.123 205.543 170.713 205.756 171.182 206.182C171.654 206.607 171.906 207.16 171.938 207.84H170.912C170.881 207.43 170.725 207.094 170.443 206.832C170.166 206.566 169.822 206.434 169.412 206.434C168.861 206.434 168.434 206.633 168.129 207.031C167.828 207.426 167.678 207.998 167.678 208.748V208.953C167.678 209.684 167.828 210.246 168.129 210.641C168.43 211.035 168.859 211.232 169.418 211.232ZM174.334 212H173.25V205.66H174.334V212ZM173.162 203.979C173.162 203.803 173.215 203.654 173.32 203.533C173.43 203.412 173.59 203.352 173.801 203.352C174.012 203.352 174.172 203.412 174.281 203.533C174.391 203.654 174.445 203.803 174.445 203.979C174.445 204.154 174.391 204.301 174.281 204.418C174.172 204.535 174.012 204.594 173.801 204.594C173.59 204.594 173.43 204.535 173.32 204.418C173.215 204.301 173.162 204.154 173.162 203.979ZM175.787 208.771C175.787 208.15 175.908 207.592 176.15 207.096C176.396 206.6 176.736 206.217 177.17 205.947C177.607 205.678 178.105 205.543 178.664 205.543C179.527 205.543 180.225 205.842 180.756 206.439C181.291 207.037 181.559 207.832 181.559 208.824V208.9C181.559 209.518 181.439 210.072 181.201 210.564C180.967 211.053 180.629 211.434 180.188 211.707C179.75 211.98 179.246 212.117 178.676 212.117C177.816 212.117 177.119 211.818 176.584 211.221C176.053 210.623 175.787 209.832 175.787 208.848V208.771ZM176.877 208.9C176.877 209.604 177.039 210.168 177.363 210.594C177.691 211.02 178.129 211.232 178.676 211.232C179.227 211.232 179.664 211.018 179.988 210.588C180.312 210.154 180.475 209.549 180.475 208.771C180.475 208.076 180.309 207.514 179.977 207.084C179.648 206.65 179.211 206.434 178.664 206.434C178.129 206.434 177.697 206.646 177.369 207.072C177.041 207.498 176.877 208.107 176.877 208.9ZM179.156 203H180.469L178.898 204.723H178.025L179.156 203ZM183.943 205.66L183.979 206.457C184.463 205.848 185.096 205.543 185.877 205.543C187.217 205.543 187.893 206.299 187.904 207.811V212H186.82V207.805C186.816 207.348 186.711 207.01 186.504 206.791C186.301 206.572 185.982 206.463 185.549 206.463C185.197 206.463 184.889 206.557 184.623 206.744C184.357 206.932 184.15 207.178 184.002 207.482V212H182.918V205.66H183.943ZM194.59 210.412L196.066 205.66H197.227L194.678 212.979C194.283 214.033 193.656 214.561 192.797 214.561L192.592 214.543L192.188 214.467V213.588L192.48 213.611C192.848 213.611 193.133 213.537 193.336 213.389C193.543 213.24 193.713 212.969 193.846 212.574L194.086 211.93L191.824 205.66H193.008L194.59 210.412ZM111.451 226.117C110.592 226.117 109.893 225.836 109.354 225.273C108.814 224.707 108.545 223.951 108.545 223.006V222.807C108.545 222.178 108.664 221.617 108.902 221.125C109.145 220.629 109.48 220.242 109.91 219.965C110.344 219.684 110.812 219.543 111.316 219.543C112.141 219.543 112.781 219.814 113.238 220.357C113.695 220.9 113.924 221.678 113.924 222.689V223.141H109.629C109.645 223.766 109.826 224.271 110.174 224.658C110.525 225.041 110.971 225.232 111.51 225.232C111.893 225.232 112.217 225.154 112.482 224.998C112.748 224.842 112.98 224.635 113.18 224.377L113.842 224.893C113.311 225.709 112.514 226.117 111.451 226.117ZM111.316 220.434C110.879 220.434 110.512 220.594 110.215 220.914C109.918 221.23 109.734 221.676 109.664 222.25H112.84V222.168C112.809 221.617 112.66 221.191 112.395 220.891C112.129 220.586 111.77 220.434 111.316 220.434ZM118.875 224.318C118.875 224.025 118.764 223.799 118.541 223.639C118.322 223.475 117.938 223.334 117.387 223.217C116.84 223.1 116.404 222.959 116.08 222.795C115.76 222.631 115.521 222.436 115.365 222.209C115.213 221.982 115.137 221.713 115.137 221.4C115.137 220.881 115.355 220.441 115.793 220.082C116.234 219.723 116.797 219.543 117.48 219.543C118.199 219.543 118.781 219.729 119.227 220.1C119.676 220.471 119.9 220.945 119.9 221.523H118.811C118.811 221.227 118.684 220.971 118.43 220.756C118.18 220.541 117.863 220.434 117.48 220.434C117.086 220.434 116.777 220.52 116.555 220.691C116.332 220.863 116.221 221.088 116.221 221.365C116.221 221.627 116.324 221.824 116.531 221.957C116.738 222.09 117.111 222.217 117.65 222.338C118.193 222.459 118.633 222.604 118.969 222.771C119.305 222.939 119.553 223.143 119.713 223.381C119.877 223.615 119.959 223.902 119.959 224.242C119.959 224.809 119.732 225.264 119.279 225.607C118.826 225.947 118.238 226.117 117.516 226.117C117.008 226.117 116.559 226.027 116.168 225.848C115.777 225.668 115.471 225.418 115.248 225.098C115.029 224.773 114.92 224.424 114.92 224.049H116.004C116.023 224.412 116.168 224.701 116.438 224.916C116.711 225.127 117.07 225.232 117.516 225.232C117.926 225.232 118.254 225.15 118.5 224.986C118.75 224.818 118.875 224.596 118.875 224.318ZM122.842 218.125V219.66H124.025V220.498H122.842V224.43C122.842 224.684 122.895 224.875 123 225.004C123.105 225.129 123.285 225.191 123.539 225.191C123.664 225.191 123.836 225.168 124.055 225.121V226C123.77 226.078 123.492 226.117 123.223 226.117C122.738 226.117 122.373 225.971 122.127 225.678C121.881 225.385 121.758 224.969 121.758 224.43V220.498H120.604V219.66H121.758V218.125H122.842ZM128.361 220.633C128.197 220.605 128.02 220.592 127.828 220.592C127.117 220.592 126.635 220.895 126.381 221.5V226H125.297V219.66H126.352L126.369 220.393C126.725 219.826 127.229 219.543 127.881 219.543C128.092 219.543 128.252 219.57 128.361 219.625V220.633ZM133.277 225.373C132.855 225.869 132.236 226.117 131.42 226.117C130.744 226.117 130.229 225.922 129.873 225.531C129.521 225.137 129.344 224.555 129.34 223.785V219.66H130.424V223.756C130.424 224.717 130.814 225.197 131.596 225.197C132.424 225.197 132.975 224.889 133.248 224.271V219.66H134.332V226H133.301L133.277 225.373ZM138.527 225.232C138.914 225.232 139.252 225.115 139.541 224.881C139.83 224.646 139.99 224.354 140.021 224.002H141.047C141.027 224.365 140.902 224.711 140.672 225.039C140.441 225.367 140.133 225.629 139.746 225.824C139.363 226.02 138.957 226.117 138.527 226.117C137.664 226.117 136.977 225.83 136.465 225.256C135.957 224.678 135.703 223.889 135.703 222.889V222.707C135.703 222.09 135.816 221.541 136.043 221.061C136.27 220.58 136.594 220.207 137.016 219.941C137.441 219.676 137.943 219.543 138.521 219.543C139.232 219.543 139.822 219.756 140.291 220.182C140.764 220.607 141.016 221.16 141.047 221.84H140.021C139.99 221.43 139.834 221.094 139.553 220.832C139.275 220.566 138.932 220.434 138.521 220.434C137.971 220.434 137.543 220.633 137.238 221.031C136.938 221.426 136.787 221.998 136.787 222.748V222.953C136.787 223.684 136.938 224.246 137.238 224.641C137.539 225.035 137.969 225.232 138.527 225.232ZM143.736 218.125V219.66H144.92V220.498H143.736V224.43C143.736 224.684 143.789 224.875 143.895 225.004C144 225.129 144.18 225.191 144.434 225.191C144.559 225.191 144.73 225.168 144.949 225.121V226C144.664 226.078 144.387 226.117 144.117 226.117C143.633 226.117 143.268 225.971 143.021 225.678C142.775 225.385 142.652 224.969 142.652 224.43V220.498H141.498V219.66H142.652V218.125H143.736ZM150.105 225.373C149.684 225.869 149.064 226.117 148.248 226.117C147.572 226.117 147.057 225.922 146.701 225.531C146.35 225.137 146.172 224.555 146.168 223.785V219.66H147.252V223.756C147.252 224.717 147.643 225.197 148.424 225.197C149.252 225.197 149.803 224.889 150.076 224.271V219.66H151.16V226H150.129L150.105 225.373ZM155.877 220.633C155.713 220.605 155.535 220.592 155.344 220.592C154.633 220.592 154.15 220.895 153.896 221.5V226H152.812V219.66H153.867L153.885 220.393C154.24 219.826 154.744 219.543 155.396 219.543C155.607 219.543 155.768 219.57 155.877 219.625V220.633ZM160.559 226C160.496 225.875 160.445 225.652 160.406 225.332C159.902 225.855 159.301 226.117 158.602 226.117C157.977 226.117 157.463 225.941 157.061 225.59C156.662 225.234 156.463 224.785 156.463 224.242C156.463 223.582 156.713 223.07 157.213 222.707C157.717 222.34 158.424 222.156 159.334 222.156H160.389V221.658C160.389 221.279 160.275 220.979 160.049 220.756C159.822 220.529 159.488 220.416 159.047 220.416C158.66 220.416 158.336 220.514 158.074 220.709C157.812 220.904 157.682 221.141 157.682 221.418H156.592C156.592 221.102 156.703 220.797 156.926 220.504C157.152 220.207 157.457 219.973 157.84 219.801C158.227 219.629 158.65 219.543 159.111 219.543C159.842 219.543 160.414 219.727 160.828 220.094C161.242 220.457 161.457 220.959 161.473 221.6V224.518C161.473 225.1 161.547 225.562 161.695 225.906V226H160.559ZM158.76 225.174C159.1 225.174 159.422 225.086 159.727 224.91C160.031 224.734 160.252 224.506 160.389 224.225V222.924H159.539C158.211 222.924 157.547 223.312 157.547 224.09C157.547 224.43 157.66 224.695 157.887 224.887C158.113 225.078 158.404 225.174 158.76 225.174Z" fill="white"/>
<path d="M110.115 83.6602V87H108.99V78.4688H112.137C113.07 78.4688 113.801 78.707 114.328 79.1836C114.859 79.6602 115.125 80.291 115.125 81.0762C115.125 81.9043 114.865 82.543 114.346 82.9922C113.83 83.4375 113.09 83.6602 112.125 83.6602H110.115ZM110.115 82.7402H112.137C112.738 82.7402 113.199 82.5996 113.52 82.3184C113.84 82.0332 114 81.623 114 81.0879C114 80.5801 113.84 80.1738 113.52 79.8691C113.199 79.5645 112.76 79.4062 112.201 79.3945H110.115V82.7402ZM119.455 81.6328C119.291 81.6055 119.113 81.5918 118.922 81.5918C118.211 81.5918 117.729 81.8945 117.475 82.5V87H116.391V80.6602H117.445L117.463 81.3926C117.818 80.8262 118.322 80.543 118.975 80.543C119.186 80.543 119.346 80.5703 119.455 80.625V81.6328ZM120.053 83.7715C120.053 83.1504 120.174 82.5918 120.416 82.0957C120.662 81.5996 121.002 81.2168 121.436 80.9473C121.873 80.6777 122.371 80.543 122.93 80.543C123.793 80.543 124.49 80.8418 125.021 81.4395C125.557 82.0371 125.824 82.832 125.824 83.8242V83.9004C125.824 84.5176 125.705 85.0723 125.467 85.5645C125.232 86.0527 124.895 86.4336 124.453 86.707C124.016 86.9805 123.512 87.1172 122.941 87.1172C122.082 87.1172 121.385 86.8184 120.85 86.2207C120.318 85.623 120.053 84.832 120.053 83.8477V83.7715ZM121.143 83.9004C121.143 84.6035 121.305 85.168 121.629 85.5938C121.957 86.0195 122.395 86.2324 122.941 86.2324C123.492 86.2324 123.93 86.0176 124.254 85.5879C124.578 85.1543 124.74 84.5488 124.74 83.7715C124.74 83.0762 124.574 82.5137 124.242 82.084C123.914 81.6504 123.477 81.4336 122.93 81.4336C122.395 81.4336 121.963 81.6465 121.635 82.0723C121.307 82.498 121.143 83.1074 121.143 83.9004ZM129.164 85.4121L130.641 80.6602H131.801L129.252 87.9785C128.857 89.0332 128.23 89.5605 127.371 89.5605L127.166 89.543L126.762 89.4668V88.5879L127.055 88.6113C127.422 88.6113 127.707 88.5371 127.91 88.3887C128.117 88.2402 128.287 87.9688 128.42 87.5742L128.66 86.9297L126.398 80.6602H127.582L129.164 85.4121ZM135.322 87.1172C134.463 87.1172 133.764 86.8359 133.225 86.2734C132.686 85.707 132.416 84.9512 132.416 84.0059V83.8066C132.416 83.1777 132.535 82.6172 132.773 82.125C133.016 81.6289 133.352 81.2422 133.781 80.9648C134.215 80.6836 134.684 80.543 135.188 80.543C136.012 80.543 136.652 80.8145 137.109 81.3574C137.566 81.9004 137.795 82.6777 137.795 83.6895V84.1406H133.5C133.516 84.7656 133.697 85.2715 134.045 85.6582C134.396 86.041 134.842 86.2324 135.381 86.2324C135.764 86.2324 136.088 86.1543 136.354 85.998C136.619 85.8418 136.852 85.6348 137.051 85.377L137.713 85.8926C137.182 86.709 136.385 87.1172 135.322 87.1172ZM135.188 81.4336C134.75 81.4336 134.383 81.5938 134.086 81.9141C133.789 82.2305 133.605 82.6758 133.535 83.25H136.711V83.168C136.68 82.6172 136.531 82.1914 136.266 81.8906C136 81.5859 135.641 81.4336 135.188 81.4336ZM141.598 86.2324C141.984 86.2324 142.322 86.1152 142.611 85.8809C142.9 85.6465 143.061 85.3535 143.092 85.002H144.117C144.098 85.3652 143.973 85.7109 143.742 86.0391C143.512 86.3672 143.203 86.6289 142.816 86.8242C142.434 87.0195 142.027 87.1172 141.598 87.1172C140.734 87.1172 140.047 86.8301 139.535 86.2559C139.027 85.6777 138.773 84.8887 138.773 83.8887V83.707C138.773 83.0898 138.887 82.541 139.113 82.0605C139.34 81.5801 139.664 81.207 140.086 80.9414C140.512 80.6758 141.014 80.543 141.592 80.543C142.303 80.543 142.893 80.7559 143.361 81.1816C143.834 81.6074 144.086 82.1602 144.117 82.8398H143.092C143.061 82.4297 142.904 82.0938 142.623 81.832C142.346 81.5664 142.002 81.4336 141.592 81.4336C141.041 81.4336 140.613 81.6328 140.309 82.0312C140.008 82.4258 139.857 82.998 139.857 83.748V83.9531C139.857 84.6836 140.008 85.2461 140.309 85.6406C140.609 86.0352 141.039 86.2324 141.598 86.2324ZM146.807 79.125V80.6602H147.99V81.498H146.807V85.4297C146.807 85.6836 146.859 85.875 146.965 86.0039C147.07 86.1289 147.25 86.1914 147.504 86.1914C147.629 86.1914 147.801 86.168 148.02 86.1211V87C147.734 87.0781 147.457 87.1172 147.188 87.1172C146.703 87.1172 146.338 86.9707 146.092 86.6777C145.846 86.3848 145.723 85.9688 145.723 85.4297V81.498H144.568V80.6602H145.723V79.125H146.807ZM148.857 83.7715C148.857 83.1504 148.979 82.5918 149.221 82.0957C149.467 81.5996 149.807 81.2168 150.24 80.9473C150.678 80.6777 151.176 80.543 151.734 80.543C152.598 80.543 153.295 80.8418 153.826 81.4395C154.361 82.0371 154.629 82.832 154.629 83.8242V83.9004C154.629 84.5176 154.51 85.0723 154.271 85.5645C154.037 86.0527 153.699 86.4336 153.258 86.707C152.82 86.9805 152.316 87.1172 151.746 87.1172C150.887 87.1172 150.189 86.8184 149.654 86.2207C149.123 85.623 148.857 84.832 148.857 83.8477V83.7715ZM149.947 83.9004C149.947 84.6035 150.109 85.168 150.434 85.5938C150.762 86.0195 151.199 86.2324 151.746 86.2324C152.297 86.2324 152.734 86.0176 153.059 85.5879C153.383 85.1543 153.545 84.5488 153.545 83.7715C153.545 83.0762 153.379 82.5137 153.047 82.084C152.719 81.6504 152.281 81.4336 151.734 81.4336C151.199 81.4336 150.768 81.6465 150.439 82.0723C150.111 82.498 149.947 83.1074 149.947 83.9004ZM159.68 85.3184C159.68 85.0254 159.568 84.7988 159.346 84.6387C159.127 84.4746 158.742 84.334 158.191 84.2168C157.645 84.0996 157.209 83.959 156.885 83.7949C156.564 83.6309 156.326 83.4355 156.17 83.209C156.018 82.9824 155.941 82.7129 155.941 82.4004C155.941 81.8809 156.16 81.4414 156.598 81.082C157.039 80.7227 157.602 80.543 158.285 80.543C159.004 80.543 159.586 80.7285 160.031 81.0996C160.48 81.4707 160.705 81.9453 160.705 82.5234H159.615C159.615 82.2266 159.488 81.9707 159.234 81.7559C158.984 81.541 158.668 81.4336 158.285 81.4336C157.891 81.4336 157.582 81.5195 157.359 81.6914C157.137 81.8633 157.025 82.0879 157.025 82.3652C157.025 82.627 157.129 82.8242 157.336 82.957C157.543 83.0898 157.916 83.2168 158.455 83.3379C158.998 83.459 159.438 83.6035 159.773 83.7715C160.109 83.9395 160.357 84.1426 160.518 84.3809C160.682 84.6152 160.764 84.9023 160.764 85.2422C160.764 85.8086 160.537 86.2637 160.084 86.6074C159.631 86.9473 159.043 87.1172 158.32 87.1172C157.812 87.1172 157.363 87.0273 156.973 86.8477C156.582 86.668 156.275 86.418 156.053 86.0977C155.834 85.7734 155.725 85.4238 155.725 85.0488H156.809C156.828 85.4121 156.973 85.7012 157.242 85.916C157.516 86.127 157.875 86.2324 158.32 86.2324C158.73 86.2324 159.059 86.1504 159.305 85.9863C159.555 85.8184 159.68 85.5957 159.68 85.3184ZM170.027 83.2324H166.447V87H165.322V78.4688H170.607V79.3945H166.447V82.3125H170.027V83.2324ZM175.57 86.373C175.148 86.8691 174.529 87.1172 173.713 87.1172C173.037 87.1172 172.521 86.9219 172.166 86.5312C171.814 86.1367 171.637 85.5547 171.633 84.7852V80.6602H172.717V84.7559C172.717 85.7168 173.107 86.1973 173.889 86.1973C174.717 86.1973 175.268 85.8887 175.541 85.2715V80.6602H176.625V87H175.594L175.57 86.373ZM179.303 80.6602L179.338 81.457C179.822 80.8477 180.455 80.543 181.236 80.543C182.576 80.543 183.252 81.2988 183.264 82.8105V87H182.18V82.8047C182.176 82.3477 182.07 82.0098 181.863 81.791C181.66 81.5723 181.342 81.4629 180.908 81.4629C180.557 81.4629 180.248 81.5566 179.982 81.7441C179.717 81.9316 179.51 82.1777 179.361 82.4824V87H178.277V80.6602H179.303ZM184.635 83.7773C184.635 82.8047 184.865 82.0234 185.326 81.4336C185.787 80.8398 186.391 80.543 187.137 80.543C187.879 80.543 188.467 80.7969 188.9 81.3047V78H189.984V87H188.988L188.936 86.3203C188.502 86.8516 187.898 87.1172 187.125 87.1172C186.391 87.1172 185.791 86.8164 185.326 86.2148C184.865 85.6133 184.635 84.8281 184.635 83.8594V83.7773ZM185.719 83.9004C185.719 84.6191 185.867 85.1816 186.164 85.5879C186.461 85.9941 186.871 86.1973 187.395 86.1973C188.082 86.1973 188.584 85.8887 188.9 85.2715V82.3594C188.576 81.7617 188.078 81.4629 187.406 81.4629C186.875 81.4629 186.461 81.668 186.164 82.0781C185.867 82.4883 185.719 83.0957 185.719 83.9004ZM195.586 87C195.523 86.875 195.473 86.6523 195.434 86.332C194.93 86.8555 194.328 87.1172 193.629 87.1172C193.004 87.1172 192.49 86.9414 192.088 86.5898C191.689 86.2344 191.49 85.7852 191.49 85.2422C191.49 84.582 191.74 84.0703 192.24 83.707C192.744 83.3398 193.451 83.1562 194.361 83.1562H195.416V82.6582C195.416 82.2793 195.303 81.9785 195.076 81.7559C194.85 81.5293 194.516 81.416 194.074 81.416C193.688 81.416 193.363 81.5137 193.102 81.709C192.84 81.9043 192.709 82.1406 192.709 82.418H191.619C191.619 82.1016 191.73 81.7969 191.953 81.5039C192.18 81.207 192.484 80.9727 192.867 80.8008C193.254 80.6289 193.678 80.543 194.139 80.543C194.869 80.543 195.441 80.7266 195.855 81.0938C196.27 81.457 196.484 81.959 196.5 82.5996V85.5176C196.5 86.0996 196.574 86.5625 196.723 86.9062V87H195.586ZM193.787 86.1738C194.127 86.1738 194.449 86.0859 194.754 85.9102C195.059 85.7344 195.279 85.5059 195.416 85.2246V83.9238H194.566C193.238 83.9238 192.574 84.3125 192.574 85.0898C192.574 85.4297 192.688 85.6953 192.914 85.8867C193.141 86.0781 193.432 86.1738 193.787 86.1738ZM200.742 86.2324C201.129 86.2324 201.467 86.1152 201.756 85.8809C202.045 85.6465 202.205 85.3535 202.236 85.002H203.262C203.242 85.3652 203.117 85.7109 202.887 86.0391C202.656 86.3672 202.348 86.6289 201.961 86.8242C201.578 87.0195 201.172 87.1172 200.742 87.1172C199.879 87.1172 199.191 86.8301 198.68 86.2559C198.172 85.6777 197.918 84.8887 197.918 83.8887V83.707C197.918 83.0898 198.031 82.541 198.258 82.0605C198.484 81.5801 198.809 81.207 199.23 80.9414C199.656 80.6758 200.158 80.543 200.736 80.543C201.447 80.543 202.037 80.7559 202.506 81.1816C202.979 81.6074 203.23 82.1602 203.262 82.8398H202.236C202.205 82.4297 202.049 82.0938 201.768 81.832C201.49 81.5664 201.146 81.4336 200.736 81.4336C200.186 81.4336 199.758 81.6328 199.453 82.0312C199.152 82.4258 199.002 82.998 199.002 83.748V83.9531C199.002 84.6836 199.152 85.2461 199.453 85.6406C199.754 86.0352 200.184 86.2324 200.742 86.2324ZM205.658 87H204.574V80.6602H205.658V87ZM204.486 78.9785C204.486 78.8027 204.539 78.6543 204.645 78.5332C204.754 78.4121 204.914 78.3516 205.125 78.3516C205.336 78.3516 205.496 78.4121 205.605 78.5332C205.715 78.6543 205.77 78.8027 205.77 78.9785C205.77 79.1543 205.715 79.3008 205.605 79.418C205.496 79.5352 205.336 79.5938 205.125 79.5938C204.914 79.5938 204.754 79.5352 204.645 79.418C204.539 79.3008 204.486 79.1543 204.486 78.9785ZM207.111 83.7715C207.111 83.1504 207.232 82.5918 207.475 82.0957C207.721 81.5996 208.061 81.2168 208.494 80.9473C208.932 80.6777 209.43 80.543 209.988 80.543C210.852 80.543 211.549 80.8418 212.08 81.4395C212.615 82.0371 212.883 82.832 212.883 83.8242V83.9004C212.883 84.5176 212.764 85.0723 212.525 85.5645C212.291 86.0527 211.953 86.4336 211.512 86.707C211.074 86.9805 210.57 87.1172 210 87.1172C209.141 87.1172 208.443 86.8184 207.908 86.2207C207.377 85.623 207.111 84.832 207.111 83.8477V83.7715ZM208.201 83.9004C208.201 84.6035 208.363 85.168 208.688 85.5938C209.016 86.0195 209.453 86.2324 210 86.2324C210.551 86.2324 210.988 86.0176 211.312 85.5879C211.637 85.1543 211.799 84.5488 211.799 83.7715C211.799 83.0762 211.633 82.5137 211.301 82.084C210.973 81.6504 210.535 81.4336 209.988 81.4336C209.453 81.4336 209.021 81.6465 208.693 82.0723C208.365 82.498 208.201 83.1074 208.201 83.9004ZM210.48 78H211.793L210.223 79.7227H209.35L210.48 78ZM215.268 80.6602L215.303 81.457C215.787 80.8477 216.42 80.543 217.201 80.543C218.541 80.543 219.217 81.2988 219.229 82.8105V87H218.145V82.8047C218.141 82.3477 218.035 82.0098 217.828 81.791C217.625 81.5723 217.307 81.4629 216.873 81.4629C216.521 81.4629 216.213 81.5566 215.947 81.7441C215.682 81.9316 215.475 82.1777 215.326 82.4824V87H214.242V80.6602H215.268ZM110.121 100.08H114.164V101H108.99V92.4688H110.121V100.08ZM118.934 100.373C118.512 100.869 117.893 101.117 117.076 101.117C116.4 101.117 115.885 100.922 115.529 100.531C115.178 100.137 115 99.5547 114.996 98.7852V94.6602H116.08V98.7559C116.08 99.7168 116.471 100.197 117.252 100.197C118.08 100.197 118.631 99.8887 118.904 99.2715V94.6602H119.988V101H118.957L118.934 100.373ZM122.66 100.115H126.369V101H121.336V100.203L124.834 95.5566H121.389V94.6602H126.193V95.4277L122.66 100.115ZM127.213 97.7715C127.213 97.1504 127.334 96.5918 127.576 96.0957C127.822 95.5996 128.162 95.2168 128.596 94.9473C129.033 94.6777 129.531 94.543 130.09 94.543C130.953 94.543 131.65 94.8418 132.182 95.4395C132.717 96.0371 132.984 96.832 132.984 97.8242V97.9004C132.984 98.5176 132.865 99.0723 132.627 99.5645C132.393 100.053 132.055 100.434 131.613 100.707C131.176 100.98 130.672 101.117 130.102 101.117C129.242 101.117 128.545 100.818 128.01 100.221C127.479 99.623 127.213 98.832 127.213 97.8477V97.7715ZM128.303 97.9004C128.303 98.6035 128.465 99.168 128.789 99.5938C129.117 100.02 129.555 100.232 130.102 100.232C130.652 100.232 131.09 100.018 131.414 99.5879C131.738 99.1543 131.9 98.5488 131.9 97.7715C131.9 97.0762 131.734 96.5137 131.402 96.084C131.074 95.6504 130.637 95.4336 130.09 95.4336C129.555 95.4336 129.123 95.6465 128.795 96.0723C128.467 96.498 128.303 97.1074 128.303 97.9004ZM130.582 92H131.895L130.324 93.7227H129.451L130.582 92ZM135.369 94.6602L135.404 95.457C135.889 94.8477 136.521 94.543 137.303 94.543C138.643 94.543 139.318 95.2988 139.33 96.8105V101H138.246V96.8047C138.242 96.3477 138.137 96.0098 137.93 95.791C137.727 95.5723 137.408 95.4629 136.975 95.4629C136.623 95.4629 136.314 95.5566 136.049 95.7441C135.783 95.9316 135.576 96.1777 135.428 96.4824V101H134.344V94.6602H135.369Z" fill="white"/>
</g>
<defs>
<filter id="filter0_d" x="13" y="0" width="389" height="267" filterUnits="userSpaceOnUse" color-interpolation-filters="sRGB">
<feFlood flood-opacity="0" result="BackgroundImageFix"/>
<feColorMatrix in="SourceAlpha" type="matrix" values="0 0 0 0 0 0 0 0 0 0 0 0 0 0 0 0 0 0 127 0"/>
<feOffset dy="4"/>
<feGaussianBlur stdDeviation="2"/>
<feColorMatrix type="matrix" values="0 0 0 0 0 0 0 0 0 0 0 0 0 0 0 0 0 0 0.25 0"/>
<feBlend mode="normal" in2="BackgroundImageFix" result="effect1_dropShadow"/>
<feBlend mode="normal" in="SourceGraphic" in2="effect1_dropShadow" result="shape"/>
</filter>
</defs>
</svg>
