<svg width="24" height="24" viewBox="0 0 24 24" fill="none" xmlns="http://www.w3.org/2000/svg">
<path d="M20.904 15.712C20.904 16.192 20.736 16.576 20.4 16.888C19.896 17.368 18.864 17.656 17.712 17.752C17.736 17.584 17.76 17.344 17.76 17.104C17.76 15.352 17.184 13.408 16.2 11.92C15.768 11.272 15.288 10.72 14.76 10.312C15.384 9.90403 16.008 9.66404 16.584 9.66404C18.384 9.61604 20.904 11.944 20.904 15.712Z" fill="#33404F"/>
<path d="M18.888 6.28C18.888 6.784 18.72 7.216 18.456 7.6C18.36 7.696 18.312 7.768 18.24 7.84C17.832 8.272 17.232 8.536 16.608 8.536C16.104 8.536 15.648 8.392 15.264 8.104C15.432 7.624 15.552 7.168 15.552 6.64C15.552 5.944 15.336 5.248 15 4.672C15.408 4.264 15.96 4 16.608 4C17.856 4 18.888 5.008 18.888 6.28Z" fill="#33404F"/>
<path d="M16.6563 17.104C16.6563 17.368 16.6083 17.608 16.5123 17.8C16.4163 17.992 16.2723 18.208 16.1523 18.376C15.9603 18.544 15.7203 18.712 15.3842 18.856C13.6322 19.6 10.2242 19.6 8.44825 18.856C8.13625 18.736 7.87225 18.568 7.65625 18.376C7.48825 18.208 7.32025 18.016 7.24825 17.8C7.15225 17.584 7.10425 17.368 7.10425 17.104C7.10425 14.176 8.47225 12.016 9.98425 11.032C10.2962 10.792 10.6322 10.648 10.9442 10.528C11.2322 10.408 11.5682 10.36 11.8562 10.36C12.2162 10.36 12.5522 10.456 12.9362 10.6C13.2483 10.72 13.5843 10.888 13.8723 11.128C15.3603 12.184 16.6563 14.272 16.6563 17.104ZM14.4723 15.232C14.7363 14.704 14.7363 14.224 14.4483 13.768C14.1603 13.312 13.6803 13.024 13.0802 13.024C12.6482 13.024 12.2162 13.408 11.9282 13.696C11.6402 13.408 11.2322 13.048 10.8002 13.048C10.2242 13.048 9.74425 13.336 9.45625 13.768C9.33625 14.008 9.26425 14.248 9.26425 14.488C9.26425 14.728 9.33625 14.992 9.45625 15.256C9.69625 15.712 10.0802 16.12 10.3442 16.336C10.7042 16.696 11.6642 17.464 11.8323 17.632L11.9523 17.728L12.0722 17.632C12.2882 17.44 13.2482 16.648 13.5602 16.312C13.8962 16.024 14.2563 15.64 14.4723 15.232Z" fill="#33404F"/>
<path d="M14.4723 15.232C14.7363 14.704 14.7363 14.224 14.4483 13.768C14.1603 13.312 13.6803 13.024 13.0802 13.024C12.6482 13.024 12.2162 13.408 11.9282 13.696C11.6402 13.408 11.2322 13.048 10.8002 13.048C10.2242 13.048 9.74425 13.336 9.45625 13.768C9.33625 14.008 9.26425 14.248 9.26425 14.488C9.26425 14.728 9.33625 14.992 9.45625 15.256C9.69625 15.712 10.0802 16.12 10.3442 16.336C10.7042 16.696 11.6642 17.464 11.8323 17.632L11.9523 17.728L12.0722 17.632C12.2882 17.44 13.2482 16.648 13.5602 16.312C13.8962 16.024 14.2563 15.64 14.4723 15.232Z" fill="#33404F"/>
<path d="M11.8317 4.07196C13.1997 4.07196 14.3277 5.17596 14.3277 6.56796C14.3277 7.93596 13.1997 9.06396 11.8317 9.06396C10.4397 9.06396 9.33569 7.93596 9.33569 6.56796C9.33569 5.22396 10.4637 4.09596 11.8317 4.07196Z" fill="#33404F"/>
<path d="M8.7839 4.57599C8.3759 5.15199 8.1359 5.87199 8.1359 6.66399C8.1359 7.21599 8.2559 7.74399 8.4479 8.24799C8.1359 8.48799 7.7039 8.60799 7.2719 8.60799C6.6239 8.60799 6.0479 8.34399 5.6159 7.91199C5.5679 7.81599 5.4959 7.74399 5.3999 7.64799C5.1119 7.26399 4.9679 6.83199 4.9679 6.32799C4.9679 5.05599 5.9999 4.04799 7.2479 4.04799C7.8719 4.02399 8.3759 4.21599 8.7839 4.57599Z" fill="#33404F"/>
<path d="M7.296 9.59196C7.824 9.59196 8.448 9.80796 9 10.192C8.424 10.624 7.92 11.2 7.44 11.896C6.48 13.384 5.88 15.328 5.88 17.08C5.88 17.32 5.904 17.512 5.976 17.728C4.92 17.608 3.984 17.32 3.504 16.864C3.144 16.552 3 16.168 3 15.688C3 11.944 5.496 9.61596 7.296 9.59196Z" fill="#33404F"/>
</svg>
