<svg width="36" height="36" viewBox="0 0 36 36" fill="none" xmlns="http://www.w3.org/2000/svg">
<g filter="url(#filter0_i)">
<path d="M31.356 23.568C31.356 24.288 31.104 24.864 30.6 25.3321C29.844 26.052 28.296 26.484 26.568 26.628C26.604 26.376 26.64 26.016 26.64 25.656C26.64 23.028 25.776 20.1121 24.3 17.8801C23.652 16.9081 22.932 16.0801 22.14 15.4681C23.076 14.8561 24.012 14.4961 24.876 14.4961C27.576 14.4241 31.356 17.9161 31.356 23.568Z" fill="white"/>
<path d="M28.332 9.42C28.332 10.176 28.08 10.824 27.684 11.4C27.54 11.544 27.468 11.652 27.36 11.76C26.748 12.408 25.848 12.804 24.912 12.804C24.156 12.804 23.472 12.588 22.896 12.156C23.148 11.436 23.328 10.752 23.328 9.96C23.328 8.916 23.004 7.872 22.5 7.008C23.112 6.396 23.94 6 24.912 6C26.784 6 28.332 7.512 28.332 9.42Z" fill="white"/>
<path d="M24.9845 25.656C24.9845 26.052 24.9125 26.412 24.7685 26.7C24.6245 26.988 24.4085 27.312 24.2285 27.564C23.9405 27.816 23.5805 28.068 23.0764 28.284C20.4484 29.4 15.3364 29.4 12.6724 28.284C12.2044 28.104 11.8084 27.852 11.4844 27.564C11.2324 27.312 10.9804 27.024 10.8724 26.7C10.7284 26.376 10.6564 26.052 10.6564 25.656C10.6564 21.264 12.7084 18.024 14.9764 16.548C15.4444 16.188 15.9484 15.972 16.4164 15.792C16.8484 15.612 17.3524 15.54 17.7844 15.54C18.3244 15.54 18.8284 15.684 19.4044 15.9C19.8724 16.08 20.3764 16.332 20.8085 16.692C23.0405 18.276 24.9845 21.408 24.9845 25.656ZM21.7085 22.848C22.1045 22.056 22.1045 21.336 21.6724 20.652C21.2404 19.968 20.5205 19.536 19.6204 19.536C18.9724 19.536 18.3244 20.112 17.8924 20.544C17.4604 20.112 16.8484 19.572 16.2004 19.572C15.3364 19.572 14.6164 20.004 14.1844 20.652C14.0044 21.012 13.8964 21.372 13.8964 21.732C13.8964 22.092 14.0044 22.488 14.1844 22.884C14.5444 23.568 15.1204 24.18 15.5164 24.504C16.0564 25.044 17.4965 26.196 17.7485 26.448L17.9284 26.592L18.1084 26.448C18.4325 26.16 19.8724 24.972 20.3404 24.468C20.8444 24.036 21.3845 23.46 21.7085 22.848Z" fill="white"/>
<path d="M21.7085 22.848C22.1045 22.056 22.1045 21.336 21.6724 20.652C21.2404 19.968 20.5205 19.536 19.6204 19.536C18.9724 19.536 18.3244 20.112 17.8924 20.544C17.4604 20.112 16.8484 19.572 16.2004 19.572C15.3364 19.572 14.6164 20.004 14.1844 20.652C14.0044 21.012 13.8964 21.372 13.8964 21.732C13.8964 22.092 14.0044 22.488 14.1844 22.884C14.5444 23.568 15.1204 24.18 15.5164 24.504C16.0564 25.044 17.4965 26.196 17.7485 26.448L17.9284 26.592L18.1084 26.448C18.4325 26.16 19.8724 24.972 20.3404 24.468C20.8444 24.036 21.3845 23.46 21.7085 22.848Z" fill="white"/>
<path d="M17.7476 6.10795C19.7996 6.10795 21.4916 7.76395 21.4916 9.85195C21.4916 11.9039 19.7996 13.5959 17.7476 13.5959C15.6596 13.5959 14.0036 11.9039 14.0036 9.85195C14.0036 7.83595 15.6956 6.14395 17.7476 6.10795Z" fill="white"/>
<path d="M13.1758 6.86398C12.5638 7.72798 12.2038 8.80798 12.2038 9.99598C12.2038 10.824 12.3838 11.616 12.6718 12.372C12.2038 12.732 11.5558 12.912 10.9078 12.912C9.93578 12.912 9.07178 12.516 8.42378 11.868C8.35178 11.724 8.24378 11.616 8.09978 11.472C7.66778 10.896 7.45178 10.248 7.45178 9.49198C7.45178 7.58398 8.99978 6.07198 10.8718 6.07198C11.8078 6.03598 12.5638 6.32398 13.1758 6.86398Z" fill="white"/>
<path d="M10.944 14.3879C11.736 14.3879 12.672 14.7119 13.5 15.2879C12.636 15.9359 11.88 16.7999 11.16 17.8439C9.72 20.0759 8.82 22.9919 8.82 25.6199C8.82 25.9799 8.856 26.2679 8.964 26.5919C7.38 26.4119 5.976 25.9799 5.256 25.2959C4.716 24.8279 4.5 24.2519 4.5 23.5319C4.5 17.9159 8.244 14.4239 10.944 14.3879Z" fill="white"/>
</g>
<defs>
<filter id="filter0_i" x="0" y="0" width="36" height="40" filterUnits="userSpaceOnUse" color-interpolation-filters="sRGB">
<feFlood flood-opacity="0" result="BackgroundImageFix"/>
<feBlend mode="normal" in="SourceGraphic" in2="BackgroundImageFix" result="shape"/>
<feColorMatrix in="SourceAlpha" type="matrix" values="0 0 0 0 0 0 0 0 0 0 0 0 0 0 0 0 0 0 127 0" result="hardAlpha"/>
<feOffset dy="4"/>
<feGaussianBlur stdDeviation="5.5"/>
<feComposite in2="hardAlpha" operator="arithmetic" k2="-1" k3="1"/>
<feColorMatrix type="matrix" values="0 0 0 0 0 0 0 0 0 0 0 0 0 0 0 0 0 0 0.25 0"/>
<feBlend mode="normal" in2="shape" result="effect1_innerShadow"/>
</filter>
</defs>
</svg>
