<svg width="28" height="24" viewBox="0 0 28 24" fill="none" xmlns="http://www.w3.org/2000/svg">
<path d="M27.356 17.568C27.356 18.288 27.104 18.864 26.6 19.332C25.844 20.052 24.296 20.484 22.568 20.628C22.604 20.376 22.64 20.016 22.64 19.656C22.64 17.028 21.776 14.112 20.3 11.88C19.652 10.908 18.932 10.08 18.14 9.46802C19.076 8.85603 20.012 8.49603 20.876 8.49603C23.576 8.42403 27.356 11.916 27.356 17.568Z" fill="#33404F"/>
<path d="M24.332 3.42C24.332 4.176 24.08 4.824 23.684 5.4C23.54 5.544 23.468 5.652 23.36 5.76C22.748 6.408 21.848 6.804 20.912 6.804C20.156 6.804 19.472 6.588 18.896 6.156C19.148 5.436 19.328 4.752 19.328 3.96C19.328 2.916 19.004 1.872 18.5 1.008C19.112 0.396 19.94 0 20.912 0C22.784 0 24.332 1.512 24.332 3.42Z" fill="#33404F"/>
<path d="M20.9844 19.656C20.9844 20.052 20.9124 20.412 20.7684 20.7C20.6244 20.988 20.4084 21.312 20.2284 21.564C19.9404 21.816 19.5804 22.068 19.0764 22.284C16.4484 23.4 11.3364 23.4 8.67243 22.284C8.20443 22.104 7.80843 21.852 7.48443 21.564C7.23243 21.312 6.98043 21.024 6.87243 20.7C6.72843 20.376 6.65643 20.052 6.65643 19.656C6.65643 15.264 8.70843 12.024 10.9764 10.548C11.4444 10.188 11.9484 9.97198 12.4164 9.79198C12.8484 9.61198 13.3524 9.53998 13.7844 9.53998C14.3244 9.53998 14.8284 9.68398 15.4044 9.89998C15.8724 10.08 16.3764 10.332 16.8084 10.692C19.0404 12.276 20.9844 15.408 20.9844 19.656ZM17.7084 16.848C18.1044 16.056 18.1044 15.336 17.6724 14.652C17.2404 13.968 16.5204 13.536 15.6204 13.536C14.9724 13.536 14.3244 14.112 13.8924 14.544C13.4604 14.112 12.8484 13.572 12.2004 13.572C11.3364 13.572 10.6164 14.004 10.1844 14.652C10.0044 15.012 9.89643 15.372 9.89643 15.732C9.89643 16.092 10.0044 16.488 10.1844 16.884C10.5444 17.568 11.1204 18.18 11.5164 18.504C12.0564 19.044 13.4964 20.196 13.7484 20.448L13.9284 20.592L14.1084 20.448C14.4324 20.16 15.8724 18.972 16.3404 18.468C16.8444 18.036 17.3844 17.46 17.7084 16.848Z" fill="#33404F"/>
<path d="M17.7084 16.848C18.1044 16.056 18.1044 15.336 17.6724 14.652C17.2404 13.968 16.5204 13.536 15.6204 13.536C14.9724 13.536 14.3244 14.112 13.8924 14.544C13.4604 14.112 12.8484 13.572 12.2004 13.572C11.3364 13.572 10.6164 14.004 10.1844 14.652C10.0044 15.012 9.89643 15.372 9.89643 15.732C9.89643 16.092 10.0044 16.488 10.1844 16.884C10.5444 17.568 11.1204 18.18 11.5164 18.504C12.0564 19.044 13.4964 20.196 13.7484 20.448L13.9284 20.592L14.1084 20.448C14.4324 20.16 15.8724 18.972 16.3404 18.468C16.8444 18.036 17.3844 17.46 17.7084 16.848Z" fill="#33404F"/>
<path d="M13.7475 0.107971C15.7995 0.107971 17.4915 1.76397 17.4915 3.85197C17.4915 5.90397 15.7995 7.59597 13.7475 7.59597C11.6595 7.59597 10.0035 5.90397 10.0035 3.85197C10.0035 1.83597 11.6955 0.143971 13.7475 0.107971Z" fill="#33404F"/>
<path d="M9.17581 0.863983C8.56381 1.72798 8.20381 2.80798 8.20381 3.99598C8.20381 4.82398 8.38381 5.61598 8.67181 6.37198C8.20381 6.73199 7.55581 6.91198 6.90781 6.91198C5.93581 6.91198 5.07181 6.51598 4.42381 5.86798C4.35181 5.72398 4.24381 5.61598 4.09981 5.47198C3.66781 4.89598 3.45181 4.24798 3.45181 3.49198C3.45181 1.58398 4.99981 0.0719822 6.87181 0.0719822C7.80781 0.0359822 8.56381 0.323983 9.17581 0.863983Z" fill="#33404F"/>
<path d="M6.944 8.38794C7.736 8.38794 8.672 8.71194 9.5 9.28794C8.636 9.93594 7.88 10.7999 7.16 11.8439C5.72 14.0759 4.82 16.9919 4.82 19.6199C4.82 19.9799 4.856 20.2679 4.964 20.5919C3.38 20.4119 1.976 19.9799 1.256 19.2959C0.716 18.8279 0.5 18.2519 0.5 17.5319C0.5 11.9159 4.244 8.42394 6.944 8.38794Z" fill="#33404F"/>
</svg>
