<svg width="176" height="69" viewBox="0 0 176 69" fill="none" xmlns="http://www.w3.org/2000/svg">
<rect x="0.5" y="21.5" width="175" height="47" rx="7.5" fill="white" stroke="white"/>
<path d="M20.4873 47.9409H22.1641V49.1943H20.4873V52H18.9434V49.1943H13.4399V48.2896L18.8521 39.9141H20.4873V47.9409ZM15.1831 47.9409H18.9434V42.0142L18.7607 42.3462L15.1831 47.9409ZM30.943 40.7773L25.9377 52H24.3273L29.3161 41.1758H22.7751V39.9141H30.943V40.7773ZM38.7591 47.9409H40.4359V49.1943H38.7591V52H37.2152V49.1943H31.7117V48.2896L37.1238 39.9141H38.7591V47.9409ZM33.4549 47.9409H37.2152V42.0142L37.0325 42.3462L33.4549 47.9409Z" fill="#1F3044"/>
<path d="M22.6064 12.7598C22.5062 13.8216 22.1143 14.651 21.4307 15.248C20.7471 15.8405 19.8379 16.1367 18.7031 16.1367C17.9102 16.1367 17.2106 15.9499 16.6045 15.5762C16.0029 15.1979 15.5381 14.6624 15.21 13.9697C14.8818 13.277 14.7109 12.4727 14.6973 11.5566V10.627C14.6973 9.68815 14.8636 8.861 15.1963 8.14551C15.529 7.43001 16.0052 6.87858 16.625 6.49121C17.2493 6.10384 17.9694 5.91016 18.7852 5.91016C19.8835 5.91016 20.7676 6.20866 21.4375 6.80566C22.1074 7.40267 22.4971 8.24577 22.6064 9.33496H20.8838C20.8018 8.61947 20.5921 8.10449 20.2549 7.79004C19.9222 7.47103 19.4323 7.31152 18.7852 7.31152C18.0332 7.31152 17.4544 7.58724 17.0488 8.13867C16.6478 8.68555 16.4427 9.48991 16.4336 10.5518V11.4336C16.4336 12.5091 16.625 13.3294 17.0078 13.8945C17.3952 14.4596 17.9603 14.7422 18.7031 14.7422C19.3822 14.7422 19.8926 14.5895 20.2344 14.2842C20.5762 13.9788 20.7926 13.4707 20.8838 12.7598H22.6064ZM27.255 13.833L29.7843 6.04688H31.6847L28.1027 16H26.4279L22.8595 6.04688H24.7531L27.255 13.833ZM39.9017 12.7598C39.8014 13.8216 39.4095 14.651 38.7259 15.248C38.0423 15.8405 37.1331 16.1367 35.9984 16.1367C35.2054 16.1367 34.5058 15.9499 33.8997 15.5762C33.2982 15.1979 32.8333 14.6624 32.5052 13.9697C32.1771 13.277 32.0062 12.4727 31.9925 11.5566V10.627C31.9925 9.68815 32.1588 8.861 32.4915 8.14551C32.8242 7.43001 33.3004 6.87858 33.9202 6.49121C34.5446 6.10384 35.2646 5.91016 36.0804 5.91016C37.1787 5.91016 38.0628 6.20866 38.7327 6.80566C39.4027 7.40267 39.7923 8.24577 39.9017 9.33496H38.179C38.097 8.61947 37.8874 8.10449 37.5501 7.79004C37.2174 7.47103 36.7275 7.31152 36.0804 7.31152C35.3284 7.31152 34.7497 7.58724 34.3441 8.13867C33.943 8.68555 33.7379 9.48991 33.7288 10.5518V11.4336C33.7288 12.5091 33.9202 13.3294 34.303 13.8945C34.6904 14.4596 35.2555 14.7422 35.9984 14.7422C36.6774 14.7422 37.1878 14.5895 37.5296 14.2842C37.8714 13.9788 38.0879 13.4707 38.179 12.7598H39.9017Z" fill="white"/>
<path d="M155.394 33.6667H125.94C124.132 33.6667 122.667 35.1218 122.667 36.9167V56.4167C122.667 58.2117 124.132 59.6667 125.94 59.6667H155.394C157.202 59.6667 158.667 58.2117 158.667 56.4167V36.9167C158.667 35.1218 157.202 33.6667 155.394 33.6667Z" stroke="#00DDA3" stroke-width="2" stroke-linecap="round" stroke-linejoin="round"/>
<path d="M122.667 40.6665H158.667" stroke="#00DDA3" stroke-width="2" stroke-linecap="round" stroke-linejoin="round"/>
<rect x="138" y="45" width="14" height="6" rx="2" stroke="#F19174" stroke-width="2"/>
</svg>
