<svg width="20" height="17" viewBox="0 0 20 17" fill="none" xmlns="http://www.w3.org/2000/svg">
<path d="M8.98115 0.00472686C8.45322 0.0350249 7.93249 0.211715 7.48331 0.534418C7.3646 0.617621 7.24512 0.715594 7.13735 0.820443C6.03817 1.91609 6.55854 3.74274 7.13735 4.79318C7.16477 4.84198 7.19354 4.89972 7.23008 4.94855V4.95207C7.25383 4.99006 7.2741 5.03067 7.29784 5.06863H7.30855C7.35239 5.14458 7.41573 5.23929 7.48331 5.34053C7.51067 5.37849 7.53609 5.42256 7.56534 5.46411H7.55463C7.66237 5.62145 7.77447 5.79019 7.9041 5.96557C7.9169 5.98185 7.93063 6.00065 7.93978 6.01148C8.09501 6.21401 8.25998 6.43006 8.44624 6.65068C8.79495 7.07194 9.19881 7.50946 9.65161 7.93255C10.3418 8.57618 11.1447 9.18969 12.0339 9.64168C13.5147 8.88775 14.7503 7.70135 15.6358 6.64005C15.8696 6.35799 16.0773 6.08277 16.26 5.82786C16.26 5.82786 16.4005 5.64473 16.5667 5.39704C16.5867 5.36989 16.6019 5.34297 16.6202 5.31582C16.7753 5.08259 16.9406 4.81264 17.0374 4.58485C17.2711 4.11119 17.4798 3.52885 17.5474 2.93221C17.5712 2.76587 17.5779 2.59873 17.5688 2.4378C17.5615 1.85384 17.392 1.28651 16.9482 0.838126C16.9447 0.830901 16.9395 0.829503 16.9304 0.820443C15.9627 -0.12873 14.4738 -0.253739 13.382 0.453254C13.2194 0.556296 13.0679 0.67944 12.9255 0.820443L12.0339 1.69973L11.1423 0.820443C10.9524 0.63242 10.7411 0.47557 10.5147 0.350794C10.0427 0.0895321 9.50909 -0.025542 8.98115 0.00472686ZM4.3628 9.30619C3.17047 9.40381 1.35373 10.3703 0.404213 10.92C0.0426537 11.1297 -0.0990985 11.575 0.0725751 11.9547L1.64526 15.4153C1.84612 15.8547 2.38612 16.0231 2.80791 15.7791L3.43552 15.4189C3.92124 15.1368 4.51293 15.1011 5.02966 15.3235L8.03964 16.6266C9.46387 17.2431 11.1088 17.0883 12.3869 16.2205L19.5231 11.3826C20.049 11.0228 20.1603 10.2907 19.7549 9.79349C19.5249 9.51868 19.1904 9.3801 18.8527 9.39093C18.6427 9.39997 18.4325 9.4603 18.2535 9.58866L13.9525 12.1736C13.9818 12.2803 13.9953 12.3915 13.9989 12.5091C14.0153 12.9286 13.8594 13.3528 13.5746 13.6638C13.2897 13.9749 12.8893 14.1594 12.4547 14.1829L12.0909 14.197C10.3179 14.2657 8.11855 14.2601 6.95905 13.904L6.46689 13.6956C6.3683 13.6793 6.29584 13.5867 6.29216 13.4873C6.28669 13.3607 6.38545 13.2507 6.51326 13.2471C6.53336 13.2451 6.6005 13.2612 6.60603 13.2612C6.79403 13.3137 6.96108 13.3714 7.10175 13.4166C8.31782 13.7963 10.8665 13.7501 12.3656 13.6815C12.9426 13.6562 13.4488 13.2252 13.4889 12.6539C13.5328 11.9994 13.01 11.4637 12.3691 11.4674C11.0617 11.4709 8.9537 11.3708 8.29999 10.6693C7.32676 9.63693 6.03534 9.16513 4.3628 9.30619Z" fill="#00DDA3"/>
</svg>
