<svg width="36" height="36" viewBox="0 0 36 36" fill="none" xmlns="http://www.w3.org/2000/svg">
<path d="M16.4717 6.00709C15.6798 6.05254 14.8987 6.31757 14.225 6.80163C14.0469 6.92643 13.8677 7.07339 13.706 7.23066C12.0572 8.87414 12.8378 11.6141 13.706 13.1898C13.7472 13.263 13.7903 13.3496 13.8451 13.4228V13.4281C13.8807 13.4851 13.9111 13.546 13.9468 13.6029H13.9628C14.0286 13.7169 14.1236 13.8589 14.225 14.0108C14.266 14.0677 14.3041 14.1338 14.348 14.1962H14.3319C14.4936 14.4322 14.6617 14.6853 14.8561 14.9484C14.8753 14.9728 14.896 15.001 14.9097 15.0172C15.1425 15.321 15.39 15.6451 15.6694 15.976C16.1924 16.6079 16.7982 17.2642 17.4774 17.8988C18.5127 18.8643 19.717 19.7845 21.0508 20.4625C23.272 19.3316 25.1254 17.552 26.4538 15.9601C26.8044 15.537 27.116 15.1242 27.3899 14.7418C27.3899 14.7418 27.6007 14.4671 27.85 14.0956C27.8801 14.0548 27.9029 14.0145 27.9303 13.9737C28.163 13.6239 28.4109 13.219 28.5561 12.8773C28.9066 12.1668 29.2197 11.2933 29.3211 10.3983C29.3567 10.1488 29.3668 9.8981 29.3532 9.6567C29.3423 8.78076 29.0879 7.92976 28.4224 7.25719C28.417 7.24635 28.4093 7.24425 28.3956 7.23066C26.944 5.8069 24.7107 5.61939 23.073 6.67988C22.8291 6.83444 22.6018 7.01916 22.3882 7.23066L21.0508 8.54959L19.7135 7.23066C19.4286 6.94863 19.1116 6.71335 18.772 6.52619C18.064 6.1343 17.2636 5.96169 16.4717 6.00709ZM9.54419 19.9593C7.7557 20.1057 5.03059 21.5555 3.60632 22.38C3.06398 22.6945 2.85135 23.3624 3.10886 23.932L5.4679 29.123C5.76919 29.782 6.57918 30.0347 7.21186 29.6686L8.15329 29.1283C8.88186 28.7053 9.7694 28.6517 10.5445 28.9853L15.0595 30.9399C17.1958 31.8647 19.6632 31.6325 21.5804 30.3307L32.2847 23.0739C33.0734 22.5342 33.2404 21.436 32.6323 20.6902C32.2873 20.278 31.7856 20.0701 31.279 20.0864C30.964 20.0999 30.6487 20.1904 30.3802 20.383L23.9288 24.2604C23.9727 24.4204 23.9929 24.5873 23.9983 24.7636C24.023 25.3929 23.7891 26.0293 23.3618 26.4957C22.9345 26.9623 22.334 27.2391 21.682 27.2743L21.1364 27.2956C18.4769 27.3986 15.1778 27.3902 13.4386 26.856L12.7003 26.5434C12.5525 26.5189 12.4438 26.38 12.4382 26.2309C12.43 26.0411 12.5782 25.8761 12.7699 25.8707C12.8 25.8677 12.9007 25.8919 12.909 25.8919C13.191 25.9705 13.4416 26.0571 13.6526 26.125C15.4767 26.6945 19.2997 26.6252 21.5483 26.5222C22.4138 26.4842 23.1732 25.8378 23.2334 24.9808C23.2992 23.9991 22.515 23.1956 21.5537 23.2011C19.5926 23.2064 16.4306 23.0561 15.45 22.0039C13.9901 20.4554 12.053 19.7477 9.54419 19.9593Z" fill="#33404F"/>
</svg>
