<svg width="30" height="26" viewBox="0 0 30 26" fill="none" xmlns="http://www.w3.org/2000/svg">
<g filter="url(#filter0_i)">
<path d="M13.4717 0.00709028C12.6798 0.0525373 11.8987 0.317572 11.225 0.801627C11.0469 0.926431 10.8677 1.07339 10.706 1.23066C9.05725 2.87414 9.83781 5.61412 10.706 7.18977C10.7472 7.26297 10.7903 7.34958 10.8451 7.42282V7.42811C10.8807 7.48509 10.9111 7.54601 10.9468 7.60295H10.9628C11.0286 7.71687 11.1236 7.85894 11.225 8.01079C11.266 8.06773 11.3041 8.13385 11.348 8.19616H11.3319C11.4936 8.43218 11.6617 8.68529 11.8561 8.94835C11.8753 8.97278 11.896 9.00097 11.9097 9.01722C12.1425 9.32102 12.39 9.64509 12.6694 9.97603C13.1924 10.6079 13.7982 11.2642 14.4774 11.8988C15.5127 12.8643 16.717 13.7845 18.0508 14.4625C20.272 13.3316 22.1254 11.552 23.4538 9.96008C23.8044 9.53698 24.116 9.12416 24.3899 8.74179C24.3899 8.74179 24.6007 8.4671 24.85 8.09557C24.8801 8.05484 24.9029 8.01446 24.9303 7.97373C25.163 7.62388 25.4109 7.21896 25.5561 6.87728C25.9066 6.16678 26.2197 5.29328 26.3211 4.39832C26.3567 4.1488 26.3668 3.8981 26.3532 3.6567C26.3423 2.78076 26.0879 1.92976 25.4224 1.25719C25.417 1.24635 25.4093 1.24425 25.3956 1.23066C23.944 -0.193095 21.7107 -0.380608 20.073 0.679881C19.8291 0.834444 19.6018 1.01916 19.3882 1.23066L18.0508 2.54959L16.7135 1.23066C16.4286 0.94863 16.1116 0.713354 15.772 0.526191C15.064 0.134298 14.2636 -0.038313 13.4717 0.00709028ZM6.54419 13.9593C4.7557 14.1057 2.03059 15.5555 0.606319 16.38C0.0639805 16.6945 -0.148648 17.3624 0.108863 17.932L2.4679 23.123C2.76919 23.782 3.57918 24.0347 4.21186 23.6686L5.15329 23.1283C5.88186 22.7053 6.7694 22.6517 7.54449 22.9853L12.0595 24.9399C14.1958 25.8647 16.6632 25.6325 18.5804 24.3307L29.2847 17.0739C30.0734 16.5342 30.2404 15.436 29.6323 14.6902C29.2873 14.278 28.7856 14.0701 28.279 14.0864C27.964 14.0999 27.6487 14.1904 27.3802 14.383L20.9288 18.2604C20.9727 18.4204 20.9929 18.5873 20.9983 18.7636C21.023 19.3929 20.7891 20.0293 20.3618 20.4957C19.9345 20.9623 19.334 21.2391 18.682 21.2743L18.1364 21.2956C15.4769 21.3986 12.1778 21.3902 10.4386 20.856L9.70034 20.5434C9.55245 20.5189 9.44376 20.38 9.43824 20.2309C9.43003 20.0411 9.57818 19.8761 9.76989 19.8707C9.80003 19.8677 9.90074 19.8919 9.90904 19.8919C10.191 19.9705 10.4416 20.0571 10.6526 20.125C12.4767 20.6945 16.2997 20.6252 18.5483 20.5222C19.4138 20.4842 20.1732 19.8378 20.2334 18.9808C20.2992 17.9991 19.515 17.1956 18.5537 17.2011C16.5926 17.2064 13.4306 17.0561 12.45 16.0039C10.9901 14.4554 9.05301 13.7477 6.54419 13.9593Z" fill="white"/>
</g>
<defs>
<filter id="filter0_i" x="0" y="0" width="30" height="29.5" filterUnits="userSpaceOnUse" color-interpolation-filters="sRGB">
<feFlood flood-opacity="0" result="BackgroundImageFix"/>
<feBlend mode="normal" in="SourceGraphic" in2="BackgroundImageFix" result="shape"/>
<feColorMatrix in="SourceAlpha" type="matrix" values="0 0 0 0 0 0 0 0 0 0 0 0 0 0 0 0 0 0 127 0" result="hardAlpha"/>
<feOffset dy="4"/>
<feGaussianBlur stdDeviation="2"/>
<feComposite in2="hardAlpha" operator="arithmetic" k2="-1" k3="1"/>
<feColorMatrix type="matrix" values="0 0 0 0 0 0 0 0 0 0 0 0 0 0 0 0 0 0 0.25 0"/>
<feBlend mode="normal" in2="shape" result="effect1_innerShadow"/>
</filter>
</defs>
</svg>
