<svg width="24" height="24" viewBox="0 0 24 24" fill="none" xmlns="http://www.w3.org/2000/svg">
<path d="M10.9812 4.00473C10.4532 4.03502 9.93249 4.21171 9.48331 4.53442C9.3646 4.61762 9.24512 4.71559 9.13735 4.82044C8.03817 5.91609 8.55854 7.74274 9.13735 8.79318C9.16477 8.84198 9.19354 8.89972 9.23008 8.94855V8.95207C9.25383 8.99006 9.2741 9.03067 9.29784 9.06863H9.30855C9.35239 9.14458 9.41573 9.23929 9.48331 9.34053C9.51067 9.37849 9.53609 9.42256 9.56534 9.46411H9.55463C9.66237 9.62145 9.77447 9.79019 9.9041 9.96557C9.9169 9.98185 9.93063 10.0006 9.93978 10.0115C10.095 10.214 10.26 10.4301 10.4462 10.6507C10.7949 11.0719 11.1988 11.5095 11.6516 11.9326C12.3418 12.5762 13.1447 13.1897 14.0339 13.6417C15.5147 12.8878 16.7503 11.7014 17.6358 10.6401C17.8696 10.358 18.0773 10.0828 18.26 9.82786C18.26 9.82786 18.4005 9.64473 18.5667 9.39704C18.5867 9.36989 18.6019 9.34297 18.6202 9.31582C18.7753 9.08259 18.9406 8.81264 19.0374 8.58485C19.2711 8.11119 19.4798 7.52885 19.5474 6.93221C19.5712 6.76587 19.5779 6.59873 19.5688 6.4378C19.5615 5.85384 19.392 5.28651 18.9482 4.83813C18.9447 4.8309 18.9395 4.8295 18.9304 4.82044C17.9627 3.87127 16.4738 3.74626 15.382 4.45325C15.2194 4.5563 15.0679 4.67944 14.9255 4.82044L14.0339 5.69973L13.1423 4.82044C12.9524 4.63242 12.7411 4.47557 12.5147 4.35079C12.0427 4.08953 11.5091 3.97446 10.9812 4.00473ZM6.3628 13.3062C5.17047 13.4038 3.35373 14.3703 2.40421 14.92C2.04265 15.1297 1.9009 15.575 2.07258 15.9547L3.64526 19.4153C3.84612 19.8547 4.38612 20.0231 4.80791 19.7791L5.43552 19.4189C5.92124 19.1368 6.51293 19.1011 7.02966 19.3235L10.0396 20.6266C11.4639 21.2431 13.1088 21.0883 14.3869 20.2205L21.5231 15.3826C22.049 15.0228 22.1603 14.2907 21.7549 13.7935C21.5249 13.5187 21.1904 13.3801 20.8527 13.3909C20.6427 13.4 20.4325 13.4603 20.2535 13.5887L15.9525 16.1736C15.9818 16.2803 15.9953 16.3915 15.9989 16.5091C16.0153 16.9286 15.8594 17.3528 15.5746 17.6638C15.2897 17.9749 14.8893 18.1594 14.4547 18.1829L14.0909 18.197C12.3179 18.2657 10.1185 18.2601 8.95905 17.904L8.46689 17.6956C8.3683 17.6793 8.29584 17.5867 8.29216 17.4873C8.28669 17.3607 8.38545 17.2507 8.51326 17.2471C8.53336 17.2451 8.6005 17.2612 8.60603 17.2612C8.79403 17.3137 8.96108 17.3714 9.10175 17.4166C10.3178 17.7963 12.8665 17.7501 14.3656 17.6815C14.9426 17.6562 15.4488 17.2252 15.4889 16.6539C15.5328 15.9994 15.01 15.4637 14.3691 15.4674C13.0617 15.4709 10.9537 15.3708 10.3 14.6693C9.32676 13.6369 8.03534 13.1651 6.3628 13.3062Z" fill="#33404F"/>
</svg>
