<svg width="22" height="23" viewBox="0 0 22 23" fill="none" xmlns="http://www.w3.org/2000/svg">
<g filter="url(#filter0_i)">
<path d="M3.26525 13.7581C3.10733 13.6032 3.10733 13.371 3.22577 13.2161C3.38369 13.0613 3.66004 13.0226 3.81796 13.1774C5.1208 14.4162 6.30519 15.7323 7.4501 17.0872C7.76594 15.6162 7.68698 14.029 6.66051 12.829C5.3182 11.3193 2.79149 10.9322 0.896459 10.8548C0.659581 13.1 0.77802 14.8807 1.64658 16.0807C2.51513 17.2033 4.17328 17.8227 6.97635 17.7453C5.79195 16.313 4.60756 14.9968 3.26525 13.7581ZM21.0312 7.71922C18.1886 7.83535 14.438 8.3773 12.464 10.6225C11.5165 11.6677 11.0033 13.1 11.0428 14.9581C11.0822 15.6549 11.1612 16.4291 11.3586 17.242C13.0168 15.2291 14.7933 13.2548 16.8068 11.358C16.9647 11.2419 17.2016 11.2419 17.3595 11.3967C17.5175 11.5516 17.5175 11.7838 17.3595 11.9387C15.2671 13.8355 13.4905 15.8484 11.7929 17.9388C16.0962 18.1324 18.5834 17.242 19.8862 15.5C21.2286 13.7581 21.3865 11.0483 21.0312 7.71922ZM21.7418 6.94501C22.0971 9.77088 22.3735 13.5258 20.5179 15.9646C19.0177 17.9775 16.1357 18.984 11.2007 18.6743C10.1347 20.0292 9.06878 21.4228 8.0423 22.8551C7.92386 23.0099 7.6475 23.0486 7.48958 22.9325C7.33167 22.7776 7.29219 22.5454 7.41062 22.3905C7.92386 21.6937 8.4371 20.9969 8.95034 20.3002C8.51606 19.6808 8.0423 19.1001 7.56854 18.4808C4.1338 18.6743 2.12033 17.9775 1.0149 16.5452C-0.287935 14.7645 -0.0510558 12.1322 0.185823 10.0806C2.59409 10.1193 5.55508 10.429 7.25271 12.3258C8.6345 13.8742 8.55554 16.0033 8.08178 17.8614C8.55554 18.4808 8.98982 19.0614 9.46357 19.6808C9.85837 19.1001 10.2927 18.5582 10.7269 18.0162C10.4506 16.9323 10.2926 15.8872 10.2532 14.9968C10.2137 12.9064 10.8059 11.3193 11.8718 10.1193C14.2011 7.48696 18.4255 7.02243 21.7418 6.94501Z" fill="#039E77"/>
<path d="M3.26525 13.7581C3.10733 13.6032 3.10733 13.371 3.22577 13.2161C3.38369 13.0613 3.66004 13.0226 3.81796 13.1774C5.1208 14.4162 6.30519 15.7323 7.4501 17.0872C7.76594 15.6162 7.68698 14.029 6.66051 12.829C5.3182 11.3193 2.79149 10.9322 0.896459 10.8548C0.659581 13.1 0.77802 14.8807 1.64658 16.0807C2.51513 17.2033 4.17328 17.8227 6.97635 17.7453C5.79195 16.313 4.60756 14.9968 3.26525 13.7581Z" fill="#039E77"/>
<path d="M21.0312 7.71922C18.1886 7.83535 14.438 8.3773 12.464 10.6225C11.5165 11.6677 11.0033 13.1 11.0428 14.9581C11.0822 15.6549 11.1612 16.4291 11.3586 17.242C13.0168 15.2291 14.7933 13.2548 16.8068 11.358C16.9647 11.2419 17.2016 11.2419 17.3595 11.3967C17.5175 11.5516 17.5175 11.7838 17.3595 11.9387C15.2671 13.8355 13.4905 15.8484 11.7929 17.9388C16.0962 18.1324 18.5834 17.242 19.8862 15.5C21.2286 13.7581 21.3865 11.0483 21.0312 7.71922Z" fill="#039E77"/>
<path d="M9.3421 14.3948C16.0411 8.83622 15.5196 6.45811 9.25428 0C5.43627 3.01122 0.870731 10.3984 9.3421 14.3948Z" fill="#039E77"/>
</g>
<defs>
<filter id="filter0_i" x="0" y="0" width="22" height="27" filterUnits="userSpaceOnUse" color-interpolation-filters="sRGB">
<feFlood flood-opacity="0" result="BackgroundImageFix"/>
<feBlend mode="normal" in="SourceGraphic" in2="BackgroundImageFix" result="shape"/>
<feColorMatrix in="SourceAlpha" type="matrix" values="0 0 0 0 0 0 0 0 0 0 0 0 0 0 0 0 0 0 127 0" result="hardAlpha"/>
<feOffset dy="4"/>
<feGaussianBlur stdDeviation="2"/>
<feComposite in2="hardAlpha" operator="arithmetic" k2="-1" k3="1"/>
<feColorMatrix type="matrix" values="0 0 0 0 0 0 0 0 0 0 0 0 0 0 0 0 0 0 0.25 0"/>
<feBlend mode="normal" in2="shape" result="effect1_innerShadow"/>
</filter>
</defs>
</svg>
