<svg width="24" height="24" viewBox="0 0 24 24" fill="none" xmlns="http://www.w3.org/2000/svg">
<path d="M21.0103 8.77872V20.3568C21.0103 20.5274 20.9425 20.691 20.8219 20.8116C20.7013 20.9322 20.5377 21 20.3671 21H13.9348C13.7642 21 13.6006 20.9322 13.48 20.8116C13.3594 20.691 13.2916 20.5274 13.2916 20.3568V15.211C13.2916 14.8698 13.1561 14.5426 12.9148 14.3013C12.6736 14.0601 12.3463 13.9245 12.0052 13.9245C11.664 13.9245 11.3368 14.0601 11.0955 14.3013C10.8542 14.5426 10.7187 14.8698 10.7187 15.211V20.3568C10.7187 20.5274 10.6509 20.691 10.5303 20.8116C10.4097 20.9322 10.2461 21 10.0755 21H3.64323C3.47263 21 3.30902 20.9322 3.1884 20.8116C3.06777 20.691 3 20.5274 3 20.3568V8.77872C3.00046 8.6688 3.02908 8.56083 3.08313 8.46512C3.13718 8.3694 3.21486 8.28914 3.30875 8.23198L11.6707 3.08618C11.7685 3.02972 11.8794 3 11.9923 3C12.1052 3 12.2161 3.02972 12.3139 3.08618L20.6758 8.23198C20.7745 8.28592 20.8573 8.36479 20.916 8.46072C20.9747 8.55666 21.0072 8.6663 21.0103 8.77872Z" fill="#1F3044"/>
</svg>
