<svg width="36" height="32" viewBox="0 0 36 32" fill="none" xmlns="http://www.w3.org/2000/svg">
<g filter="url(#filter0_i)">
<path d="M15 21.9999V27.3332H6.75V12.6666L18 5.33325L28.5 12.6666V27.3332H20.25V21.9999C20.25 19.3332 15 18.6666 15 21.9999Z" fill="#00DDA3"/>
<path d="M29.04 12.8116V12.754L29.0184 12.6932L28.9932 12.6356L28.9572 12.5812C28.9465 12.5635 28.9345 12.5464 28.9212 12.53L28.878 12.4852C28.8619 12.4677 28.8438 12.4516 28.824 12.4372L28.8024 12.4148L18.0024 4.41484C17.873 4.31905 17.71 4.2666 17.5416 4.2666C17.3732 4.2666 17.2102 4.31905 17.0808 4.41484L6.2808 12.4148L6.2592 12.4372C6.23944 12.4516 6.22135 12.4677 6.2052 12.4852L6.162 12.53C6.14872 12.5464 6.13669 12.5635 6.126 12.5812L6.09 12.6356L6.0648 12.6932L6.0432 12.754V12.8116C6.04142 12.834 6.04142 12.8565 6.0432 12.8788L6 12.9076V27.3076C6 27.4774 6.07586 27.6402 6.21088 27.7602C6.34591 27.8802 6.52904 27.9476 6.72 27.9476H14.8308C15.0218 27.9476 15.2049 27.8802 15.3399 27.7602C15.4749 27.6402 15.5508 27.4774 15.5508 27.3076V22.1876C15.5508 21.7234 15.7583 21.2782 16.1276 20.9499C16.4969 20.6217 16.9977 20.4372 17.52 20.4372C18.0423 20.4372 18.5431 20.6217 18.9124 20.9499C19.2817 21.2782 19.4892 21.7234 19.4892 22.1876V27.3076C19.4892 27.4774 19.5651 27.6402 19.7001 27.7602C19.8351 27.8802 20.0182 27.9476 20.2092 27.9476H28.32C28.511 27.9476 28.6941 27.8802 28.8291 27.7602C28.9641 27.6402 29.04 27.4774 29.04 27.3076V12.9076C29.04 12.9076 29.04 12.8884 29.04 12.8788C29.0418 12.8565 29.0418 12.834 29.04 12.8116ZM27.6 26.6676H20.9292V22.1876C20.9292 21.3839 20.57 20.6131 19.9307 20.0448C19.2913 19.4765 18.4242 19.1572 17.52 19.1572C16.6158 19.1572 15.7487 19.4765 15.1093 20.0448C14.47 20.6131 14.1108 21.3839 14.1108 22.1876V26.6676H7.44V13.2084L17.52 5.73964L27.6 13.2084V26.6676Z" fill="#00DDA3"/>
</g>
<defs>
<filter id="filter0_i" x="0" y="0" width="36" height="36" filterUnits="userSpaceOnUse" color-interpolation-filters="sRGB">
<feFlood flood-opacity="0" result="BackgroundImageFix"/>
<feBlend mode="normal" in="SourceGraphic" in2="BackgroundImageFix" result="shape"/>
<feColorMatrix in="SourceAlpha" type="matrix" values="0 0 0 0 0 0 0 0 0 0 0 0 0 0 0 0 0 0 127 0" result="hardAlpha"/>
<feOffset dy="4"/>
<feGaussianBlur stdDeviation="5.5"/>
<feComposite in2="hardAlpha" operator="arithmetic" k2="-1" k3="1"/>
<feColorMatrix type="matrix" values="0 0 0 0 0 0 0 0 0 0 0 0 0 0 0 0 0 0 0.25 0"/>
<feBlend mode="normal" in2="shape" result="effect1_innerShadow"/>
</filter>
</defs>
</svg>
