
<svg width="29" height="29" viewBox="0 0 29 29" fill="none" xmlns="http://www.w3.org/2000/svg">
<g clip-path="url(#clip0)">
<path d="M6.02034 16.1096C5.9492 10.586 10.3682 6.05276 15.8907 5.98163C21.4133 5.91051 25.9475 10.3285 26.0187 15.852C26.0898 21.3736 21.6708 25.9089 16.1483 25.98C10.6257 26.0511 6.09145 21.6311 6.02034 16.1096Z" fill="#00DDA3"/>
<path fill-rule="evenodd" clip-rule="evenodd" d="M15.1409 15.3612C15.1347 14.8792 15.5226 14.4812 16.0046 14.475C16.4866 14.4688 16.8846 14.8567 16.8908 15.3386L16.9477 19.7583C16.9539 20.2402 16.566 20.6382 16.0841 20.6444C15.6021 20.6507 15.2041 20.2627 15.1979 19.7808L15.1409 15.3612ZM16.8449 12.1661C16.8511 12.6481 16.4652 13.0461 15.9863 13.0523C15.4933 13.0586 15.0963 12.6707 15.0901 12.1887C15.0839 11.7068 15.4708 11.3088 15.9537 11.3026C16.4387 11.2963 16.8387 11.6842 16.8449 12.1661Z" fill="white"/>
</g>
<defs>
<clipPath id="clip0">
<rect width="27" height="27" fill="white" transform="translate(28.1729 27.8251) rotate(179.262)"/>
</clipPath>
</defs>
</svg>
