<svg width="383" height="106" viewBox="0 0 383 106" fill="none" xmlns="http://www.w3.org/2000/svg">
<path d="M4.58789 4.20312L7.875 13.4844L11.1445 4.20312H14.6074V17H11.9619V13.502L12.2256 7.46387L8.77148 17H6.96094L3.51562 7.47266L3.7793 13.502V17H1.14258V4.20312H4.58789ZM19.4238 17H16.875V7.49023H19.4238V17ZM16.7256 5.0293C16.7256 4.64844 16.8516 4.33496 17.1035 4.08887C17.3613 3.84277 17.71 3.71973 18.1494 3.71973C18.583 3.71973 18.9287 3.84277 19.1865 4.08887C19.4443 4.33496 19.5732 4.64844 19.5732 5.0293C19.5732 5.41602 19.4414 5.73242 19.1777 5.97852C18.9199 6.22461 18.5771 6.34766 18.1494 6.34766C17.7217 6.34766 17.376 6.22461 17.1123 5.97852C16.8545 5.73242 16.7256 5.41602 16.7256 5.0293ZM26.6748 14.3721C26.6748 14.0615 26.5195 13.8184 26.209 13.6426C25.9043 13.4609 25.4121 13.2998 24.7324 13.1592C22.4707 12.6846 21.3398 11.7236 21.3398 10.2764C21.3398 9.43262 21.6885 8.72949 22.3857 8.16699C23.0889 7.59863 24.0059 7.31445 25.1367 7.31445C26.3438 7.31445 27.3076 7.59863 28.0283 8.16699C28.7549 8.73535 29.1182 9.47363 29.1182 10.3818H26.5781C26.5781 10.0186 26.4609 9.71973 26.2266 9.48535C25.9922 9.24512 25.626 9.125 25.1279 9.125C24.7002 9.125 24.3691 9.22168 24.1348 9.41504C23.9004 9.6084 23.7832 9.85449 23.7832 10.1533C23.7832 10.4346 23.915 10.6631 24.1787 10.8389C24.4482 11.0088 24.8994 11.1582 25.5322 11.2871C26.165 11.4102 26.6982 11.5508 27.1318 11.709C28.4736 12.2012 29.1445 13.0537 29.1445 14.2666C29.1445 15.1338 28.7725 15.8369 28.0283 16.376C27.2842 16.9092 26.3232 17.1758 25.1455 17.1758C24.3486 17.1758 23.6396 17.0352 23.0186 16.7539C22.4033 16.4668 21.9199 16.0771 21.5684 15.585C21.2168 15.0869 21.041 14.5508 21.041 13.9766H23.4492C23.4727 14.4277 23.6396 14.7734 23.9502 15.0137C24.2607 15.2539 24.6768 15.374 25.1982 15.374C25.6846 15.374 26.0508 15.2832 26.2969 15.1016C26.5488 14.9141 26.6748 14.6709 26.6748 14.3721ZM37.9512 17H35.4023V7.49023H37.9512V17ZM35.2529 5.0293C35.2529 4.64844 35.3789 4.33496 35.6309 4.08887C35.8887 3.84277 36.2373 3.71973 36.6768 3.71973C37.1104 3.71973 37.4561 3.84277 37.7139 4.08887C37.9717 4.33496 38.1006 4.64844 38.1006 5.0293C38.1006 5.41602 37.9688 5.73242 37.7051 5.97852C37.4473 6.22461 37.1045 6.34766 36.6768 6.34766C36.249 6.34766 35.9033 6.22461 35.6396 5.97852C35.3818 5.73242 35.2529 5.41602 35.2529 5.0293ZM42.3896 7.49023L42.4688 8.58887C43.1484 7.73926 44.0596 7.31445 45.2021 7.31445C46.21 7.31445 46.96 7.61035 47.4521 8.20215C47.9443 8.79395 48.1963 9.67871 48.208 10.8564V17H45.668V10.918C45.668 10.3789 45.5508 9.98926 45.3164 9.74902C45.082 9.50293 44.6924 9.37988 44.1475 9.37988C43.4326 9.37988 42.8965 9.68457 42.5391 10.2939V17H39.999V7.49023H42.3896ZM55.292 14.3721C55.292 14.0615 55.1367 13.8184 54.8262 13.6426C54.5215 13.4609 54.0293 13.2998 53.3496 13.1592C51.0879 12.6846 49.957 11.7236 49.957 10.2764C49.957 9.43262 50.3057 8.72949 51.0029 8.16699C51.7061 7.59863 52.623 7.31445 53.7539 7.31445C54.9609 7.31445 55.9248 7.59863 56.6455 8.16699C57.3721 8.73535 57.7354 9.47363 57.7354 10.3818H55.1953C55.1953 10.0186 55.0781 9.71973 54.8438 9.48535C54.6094 9.24512 54.2432 9.125 53.7451 9.125C53.3174 9.125 52.9863 9.22168 52.752 9.41504C52.5176 9.6084 52.4004 9.85449 52.4004 10.1533C52.4004 10.4346 52.5322 10.6631 52.7959 10.8389C53.0654 11.0088 53.5166 11.1582 54.1494 11.2871C54.7822 11.4102 55.3154 11.5508 55.749 11.709C57.0908 12.2012 57.7617 13.0537 57.7617 14.2666C57.7617 15.1338 57.3896 15.8369 56.6455 16.376C55.9014 16.9092 54.9404 17.1758 53.7627 17.1758C52.9658 17.1758 52.2568 17.0352 51.6357 16.7539C51.0205 16.4668 50.5371 16.0771 50.1855 15.585C49.834 15.0869 49.6582 14.5508 49.6582 13.9766H52.0664C52.0898 14.4277 52.2568 14.7734 52.5674 15.0137C52.8779 15.2539 53.2939 15.374 53.8154 15.374C54.3018 15.374 54.668 15.2832 54.9141 15.1016C55.166 14.9141 55.292 14.6709 55.292 14.3721ZM62.0859 17H59.5371V7.49023H62.0859V17ZM59.3877 5.0293C59.3877 4.64844 59.5137 4.33496 59.7656 4.08887C60.0234 3.84277 60.3721 3.71973 60.8115 3.71973C61.2451 3.71973 61.5908 3.84277 61.8486 4.08887C62.1064 4.33496 62.2354 4.64844 62.2354 5.0293C62.2354 5.41602 62.1035 5.73242 61.8398 5.97852C61.582 6.22461 61.2393 6.34766 60.8115 6.34766C60.3838 6.34766 60.0381 6.22461 59.7744 5.97852C59.5166 5.73242 59.3877 5.41602 59.3877 5.0293ZM63.8174 12.1748C63.8174 10.7158 64.1631 9.54102 64.8545 8.65039C65.5518 7.75977 66.4893 7.31445 67.667 7.31445C68.71 7.31445 69.5215 7.67188 70.1016 8.38672L70.207 7.49023H72.5098V16.6836C72.5098 17.5156 72.3193 18.2393 71.9385 18.8545C71.5635 19.4697 71.0332 19.9385 70.3477 20.2607C69.6621 20.583 68.8594 20.7441 67.9395 20.7441C67.2422 20.7441 66.5625 20.6035 65.9004 20.3223C65.2383 20.0469 64.7373 19.6895 64.3975 19.25L65.5225 17.7031C66.1553 18.4121 66.9229 18.7666 67.8252 18.7666C68.499 18.7666 69.0234 18.585 69.3984 18.2217C69.7734 17.8643 69.9609 17.3545 69.9609 16.6924V16.1826C69.375 16.8447 68.6045 17.1758 67.6494 17.1758C66.5068 17.1758 65.5811 16.7305 64.8721 15.8398C64.1689 14.9434 63.8174 13.7568 63.8174 12.2803V12.1748ZM66.3574 12.3594C66.3574 13.2207 66.5303 13.8975 66.876 14.3896C67.2217 14.876 67.6963 15.1191 68.2998 15.1191C69.0732 15.1191 69.627 14.8291 69.9609 14.249V10.25C69.6211 9.66992 69.0732 9.37988 68.3174 9.37988C67.708 9.37988 67.2275 9.62891 66.876 10.127C66.5303 10.625 66.3574 11.3691 66.3574 12.3594ZM76.8076 7.49023L76.8867 8.58887C77.5664 7.73926 78.4775 7.31445 79.6201 7.31445C80.6279 7.31445 81.3779 7.61035 81.8701 8.20215C82.3623 8.79395 82.6143 9.67871 82.626 10.8564V17H80.0859V10.918C80.0859 10.3789 79.9688 9.98926 79.7344 9.74902C79.5 9.50293 79.1104 9.37988 78.5654 9.37988C77.8506 9.37988 77.3145 9.68457 76.957 10.2939V17H74.417V7.49023H76.8076ZM87.2402 17H84.6914V7.49023H87.2402V17ZM84.542 5.0293C84.542 4.64844 84.668 4.33496 84.9199 4.08887C85.1777 3.84277 85.5264 3.71973 85.9658 3.71973C86.3994 3.71973 86.7451 3.84277 87.0029 4.08887C87.2607 4.33496 87.3896 4.64844 87.3896 5.0293C87.3896 5.41602 87.2578 5.73242 86.9941 5.97852C86.7363 6.22461 86.3936 6.34766 85.9658 6.34766C85.5381 6.34766 85.1924 6.22461 84.9287 5.97852C84.6709 5.73242 84.542 5.41602 84.542 5.0293ZM94.8516 17C94.7344 16.7715 94.6494 16.4873 94.5967 16.1475C93.9814 16.833 93.1816 17.1758 92.1973 17.1758C91.2656 17.1758 90.4922 16.9062 89.877 16.3672C89.2676 15.8281 88.9629 15.1484 88.9629 14.3281C88.9629 13.3203 89.335 12.5469 90.0791 12.0078C90.8291 11.4688 91.9102 11.1963 93.3223 11.1904H94.4912V10.6455C94.4912 10.2061 94.377 9.85449 94.1484 9.59082C93.9258 9.32715 93.5713 9.19531 93.085 9.19531C92.6572 9.19531 92.3203 9.29785 92.0742 9.50293C91.834 9.70801 91.7139 9.98926 91.7139 10.3467H89.1738C89.1738 9.7959 89.3438 9.28613 89.6836 8.81738C90.0234 8.34863 90.5039 7.98242 91.125 7.71875C91.7461 7.44922 92.4434 7.31445 93.2168 7.31445C94.3887 7.31445 95.3174 7.61035 96.0029 8.20215C96.6943 8.78809 97.04 9.61426 97.04 10.6807V14.8027C97.0459 15.7051 97.1719 16.3877 97.418 16.8506V17H94.8516ZM92.751 15.2334C93.126 15.2334 93.4717 15.1514 93.7881 14.9873C94.1045 14.8174 94.3389 14.5918 94.4912 14.3105V12.6758H93.542C92.2705 12.6758 91.5938 13.1152 91.5117 13.9941L91.5029 14.1436C91.5029 14.46 91.6143 14.7207 91.8369 14.9258C92.0596 15.1309 92.3643 15.2334 92.751 15.2334ZM104.142 14.3721C104.142 14.0615 103.986 13.8184 103.676 13.6426C103.371 13.4609 102.879 13.2998 102.199 13.1592C99.9375 12.6846 98.8066 11.7236 98.8066 10.2764C98.8066 9.43262 99.1553 8.72949 99.8525 8.16699C100.556 7.59863 101.473 7.31445 102.604 7.31445C103.811 7.31445 104.774 7.59863 105.495 8.16699C106.222 8.73535 106.585 9.47363 106.585 10.3818H104.045C104.045 10.0186 103.928 9.71973 103.693 9.48535C103.459 9.24512 103.093 9.125 102.595 9.125C102.167 9.125 101.836 9.22168 101.602 9.41504C101.367 9.6084 101.25 9.85449 101.25 10.1533C101.25 10.4346 101.382 10.6631 101.646 10.8389C101.915 11.0088 102.366 11.1582 102.999 11.2871C103.632 11.4102 104.165 11.5508 104.599 11.709C105.94 12.2012 106.611 13.0537 106.611 14.2666C106.611 15.1338 106.239 15.8369 105.495 16.376C104.751 16.9092 103.79 17.1758 102.612 17.1758C101.815 17.1758 101.106 17.0352 100.485 16.7539C99.8701 16.4668 99.3867 16.0771 99.0352 15.585C98.6836 15.0869 98.5078 14.5508 98.5078 13.9766H100.916C100.939 14.4277 101.106 14.7734 101.417 15.0137C101.728 15.2539 102.144 15.374 102.665 15.374C103.151 15.374 103.518 15.2832 103.764 15.1016C104.016 14.9141 104.142 14.6709 104.142 14.3721ZM117.888 14.3721C117.888 14.0615 117.732 13.8184 117.422 13.6426C117.117 13.4609 116.625 13.2998 115.945 13.1592C113.684 12.6846 112.553 11.7236 112.553 10.2764C112.553 9.43262 112.901 8.72949 113.599 8.16699C114.302 7.59863 115.219 7.31445 116.35 7.31445C117.557 7.31445 118.521 7.59863 119.241 8.16699C119.968 8.73535 120.331 9.47363 120.331 10.3818H117.791C117.791 10.0186 117.674 9.71973 117.439 9.48535C117.205 9.24512 116.839 9.125 116.341 9.125C115.913 9.125 115.582 9.22168 115.348 9.41504C115.113 9.6084 114.996 9.85449 114.996 10.1533C114.996 10.4346 115.128 10.6631 115.392 10.8389C115.661 11.0088 116.112 11.1582 116.745 11.2871C117.378 11.4102 117.911 11.5508 118.345 11.709C119.687 12.2012 120.357 13.0537 120.357 14.2666C120.357 15.1338 119.985 15.8369 119.241 16.376C118.497 16.9092 117.536 17.1758 116.358 17.1758C115.562 17.1758 114.853 17.0352 114.231 16.7539C113.616 16.4668 113.133 16.0771 112.781 15.585C112.43 15.0869 112.254 14.5508 112.254 13.9766H114.662C114.686 14.4277 114.853 14.7734 115.163 15.0137C115.474 15.2539 115.89 15.374 116.411 15.374C116.897 15.374 117.264 15.2832 117.51 15.1016C117.762 14.9141 117.888 14.6709 117.888 14.3721ZM121.605 12.1572C121.605 11.2139 121.787 10.373 122.15 9.63477C122.514 8.89648 123.035 8.3252 123.715 7.9209C124.4 7.5166 125.194 7.31445 126.097 7.31445C127.38 7.31445 128.426 7.70703 129.234 8.49219C130.049 9.27734 130.503 10.3438 130.597 11.6914L130.614 12.3418C130.614 13.8008 130.207 14.9727 129.393 15.8574C128.578 16.7363 127.485 17.1758 126.114 17.1758C124.743 17.1758 123.647 16.7363 122.827 15.8574C122.013 14.9785 121.605 13.7832 121.605 12.2715V12.1572ZM124.146 12.3418C124.146 13.2441 124.315 13.9355 124.655 14.416C124.995 14.8906 125.481 15.1279 126.114 15.1279C126.729 15.1279 127.21 14.8936 127.556 14.4248C127.901 13.9502 128.074 13.1943 128.074 12.1572C128.074 11.2725 127.901 10.5869 127.556 10.1006C127.21 9.61426 126.724 9.37109 126.097 9.37109C125.476 9.37109 124.995 9.61426 124.655 10.1006C124.315 10.5811 124.146 11.3281 124.146 12.3418ZM134.859 17H132.311V3.5H134.859V17ZM139.641 17H137.092V7.49023H139.641V17ZM136.942 5.0293C136.942 4.64844 137.068 4.33496 137.32 4.08887C137.578 3.84277 137.927 3.71973 138.366 3.71973C138.8 3.71973 139.146 3.84277 139.403 4.08887C139.661 4.33496 139.79 4.64844 139.79 5.0293C139.79 5.41602 139.658 5.73242 139.395 5.97852C139.137 6.22461 138.794 6.34766 138.366 6.34766C137.938 6.34766 137.593 6.22461 137.329 5.97852C137.071 5.73242 136.942 5.41602 136.942 5.0293ZM141.346 12.1748C141.346 10.6924 141.677 9.51172 142.339 8.63281C143.007 7.75391 143.918 7.31445 145.072 7.31445C145.998 7.31445 146.763 7.66016 147.366 8.35156V3.5H149.915V17H147.621L147.498 15.9893C146.865 16.7803 146.051 17.1758 145.055 17.1758C143.936 17.1758 143.036 16.7363 142.356 15.8574C141.683 14.9727 141.346 13.7451 141.346 12.1748ZM143.886 12.3594C143.886 13.25 144.041 13.9326 144.352 14.4072C144.662 14.8818 145.113 15.1191 145.705 15.1191C146.49 15.1191 147.044 14.7881 147.366 14.126V10.373C147.05 9.71094 146.502 9.37988 145.723 9.37988C144.498 9.37988 143.886 10.373 143.886 12.3594ZM157.395 17C157.277 16.7715 157.192 16.4873 157.14 16.1475C156.524 16.833 155.725 17.1758 154.74 17.1758C153.809 17.1758 153.035 16.9062 152.42 16.3672C151.811 15.8281 151.506 15.1484 151.506 14.3281C151.506 13.3203 151.878 12.5469 152.622 12.0078C153.372 11.4688 154.453 11.1963 155.865 11.1904H157.034V10.6455C157.034 10.2061 156.92 9.85449 156.691 9.59082C156.469 9.32715 156.114 9.19531 155.628 9.19531C155.2 9.19531 154.863 9.29785 154.617 9.50293C154.377 9.70801 154.257 9.98926 154.257 10.3467H151.717C151.717 9.7959 151.887 9.28613 152.227 8.81738C152.566 8.34863 153.047 7.98242 153.668 7.71875C154.289 7.44922 154.986 7.31445 155.76 7.31445C156.932 7.31445 157.86 7.61035 158.546 8.20215C159.237 8.78809 159.583 9.61426 159.583 10.6807V14.8027C159.589 15.7051 159.715 16.3877 159.961 16.8506V17H157.395ZM155.294 15.2334C155.669 15.2334 156.015 15.1514 156.331 14.9873C156.647 14.8174 156.882 14.5918 157.034 14.3105V12.6758H156.085C154.813 12.6758 154.137 13.1152 154.055 13.9941L154.046 14.1436C154.046 14.46 154.157 14.7207 154.38 14.9258C154.603 15.1309 154.907 15.2334 155.294 15.2334ZM166.878 9.87207C166.532 9.8252 166.228 9.80176 165.964 9.80176C165.003 9.80176 164.373 10.127 164.074 10.7773V17H161.534V7.49023H163.934L164.004 8.62402C164.514 7.75098 165.22 7.31445 166.122 7.31445C166.403 7.31445 166.667 7.35254 166.913 7.42871L166.878 9.87207ZM170.789 17H168.24V7.49023H170.789V17ZM168.091 5.0293C168.091 4.64844 168.217 4.33496 168.469 4.08887C168.727 3.84277 169.075 3.71973 169.515 3.71973C169.948 3.71973 170.294 3.84277 170.552 4.08887C170.81 4.33496 170.938 4.64844 170.938 5.0293C170.938 5.41602 170.807 5.73242 170.543 5.97852C170.285 6.22461 169.942 6.34766 169.515 6.34766C169.087 6.34766 168.741 6.22461 168.478 5.97852C168.22 5.73242 168.091 5.41602 168.091 5.0293ZM178.4 17C178.283 16.7715 178.198 16.4873 178.146 16.1475C177.53 16.833 176.73 17.1758 175.746 17.1758C174.814 17.1758 174.041 16.9062 173.426 16.3672C172.816 15.8281 172.512 15.1484 172.512 14.3281C172.512 13.3203 172.884 12.5469 173.628 12.0078C174.378 11.4688 175.459 11.1963 176.871 11.1904H178.04V10.6455C178.04 10.2061 177.926 9.85449 177.697 9.59082C177.475 9.32715 177.12 9.19531 176.634 9.19531C176.206 9.19531 175.869 9.29785 175.623 9.50293C175.383 9.70801 175.263 9.98926 175.263 10.3467H172.723C172.723 9.7959 172.893 9.28613 173.232 8.81738C173.572 8.34863 174.053 7.98242 174.674 7.71875C175.295 7.44922 175.992 7.31445 176.766 7.31445C177.938 7.31445 178.866 7.61035 179.552 8.20215C180.243 8.78809 180.589 9.61426 180.589 10.6807V14.8027C180.595 15.7051 180.721 16.3877 180.967 16.8506V17H178.4ZM176.3 15.2334C176.675 15.2334 177.021 15.1514 177.337 14.9873C177.653 14.8174 177.888 14.5918 178.04 14.3105V12.6758H177.091C175.819 12.6758 175.143 13.1152 175.061 13.9941L175.052 14.1436C175.052 14.46 175.163 14.7207 175.386 14.9258C175.608 15.1309 175.913 15.2334 176.3 15.2334ZM187.69 14.3721C187.69 14.0615 187.535 13.8184 187.225 13.6426C186.92 13.4609 186.428 13.2998 185.748 13.1592C183.486 12.6846 182.355 11.7236 182.355 10.2764C182.355 9.43262 182.704 8.72949 183.401 8.16699C184.104 7.59863 185.021 7.31445 186.152 7.31445C187.359 7.31445 188.323 7.59863 189.044 8.16699C189.771 8.73535 190.134 9.47363 190.134 10.3818H187.594C187.594 10.0186 187.477 9.71973 187.242 9.48535C187.008 9.24512 186.642 9.125 186.144 9.125C185.716 9.125 185.385 9.22168 185.15 9.41504C184.916 9.6084 184.799 9.85449 184.799 10.1533C184.799 10.4346 184.931 10.6631 185.194 10.8389C185.464 11.0088 185.915 11.1582 186.548 11.2871C187.181 11.4102 187.714 11.5508 188.147 11.709C189.489 12.2012 190.16 13.0537 190.16 14.2666C190.16 15.1338 189.788 15.8369 189.044 16.376C188.3 16.9092 187.339 17.1758 186.161 17.1758C185.364 17.1758 184.655 17.0352 184.034 16.7539C183.419 16.4668 182.936 16.0771 182.584 15.585C182.232 15.0869 182.057 14.5508 182.057 13.9766H184.465C184.488 14.4277 184.655 14.7734 184.966 15.0137C185.276 15.2539 185.692 15.374 186.214 15.374C186.7 15.374 187.066 15.2832 187.312 15.1016C187.564 14.9141 187.69 14.6709 187.69 14.3721Z" fill="white"/>
<path d="M339.436 10.3813L342.077 2.75781H343.41L339.982 12H338.903L335.481 2.75781H336.808L339.436 10.3813ZM347.041 12.127C346.11 12.127 345.352 11.8223 344.768 11.2129C344.184 10.5993 343.892 9.78044 343.892 8.75635V8.54053C343.892 7.85921 344.021 7.25195 344.279 6.71875C344.542 6.18132 344.906 5.76237 345.371 5.46191C345.841 5.15723 346.349 5.00488 346.895 5.00488C347.787 5.00488 348.481 5.29899 348.977 5.88721C349.472 6.47542 349.719 7.31755 349.719 8.41357V8.90234H345.066C345.083 9.57943 345.28 10.1274 345.657 10.5464C346.038 10.9611 346.52 11.1685 347.104 11.1685C347.519 11.1685 347.87 11.0838 348.158 10.9146C348.445 10.7453 348.697 10.521 348.913 10.2417L349.63 10.8003C349.055 11.6847 348.192 12.127 347.041 12.127ZM346.895 5.96973C346.421 5.96973 346.023 6.14323 345.701 6.49023C345.38 6.83301 345.181 7.31543 345.104 7.9375H348.545V7.84863C348.511 7.25195 348.35 6.79069 348.062 6.46484C347.775 6.13477 347.385 5.96973 346.895 5.96973ZM354.404 6.18555C354.226 6.15592 354.034 6.14111 353.826 6.14111C353.056 6.14111 352.533 6.46908 352.258 7.125V12H351.084V5.13184H352.227L352.246 5.92529C352.631 5.31169 353.177 5.00488 353.883 5.00488C354.112 5.00488 354.285 5.03451 354.404 5.09375V6.18555ZM359.818 5.13184L359.85 5.89355C360.354 5.30111 361.033 5.00488 361.888 5.00488C362.848 5.00488 363.502 5.37305 363.849 6.10938C364.078 5.7793 364.374 5.5127 364.738 5.30957C365.106 5.10645 365.54 5.00488 366.039 5.00488C367.546 5.00488 368.312 5.80257 368.337 7.39795V12H367.163V7.46777C367.163 6.97689 367.05 6.61084 366.826 6.36963C366.602 6.12419 366.225 6.00146 365.696 6.00146C365.26 6.00146 364.899 6.13265 364.611 6.39502C364.323 6.65316 364.156 7.00228 364.109 7.44238V12H362.929V7.49951C362.929 6.50081 362.44 6.00146 361.462 6.00146C360.692 6.00146 360.165 6.32943 359.882 6.98535V12H358.708V5.13184H359.818ZM374.354 12C374.287 11.8646 374.232 11.6234 374.189 11.2764C373.644 11.8434 372.992 12.127 372.234 12.127C371.557 12.127 371.001 11.9365 370.565 11.5557C370.133 11.1706 369.917 10.6839 369.917 10.0957C369.917 9.38053 370.188 8.82617 370.73 8.43262C371.276 8.03483 372.042 7.83594 373.028 7.83594H374.17V7.29639C374.17 6.8859 374.048 6.56006 373.802 6.31885C373.557 6.0734 373.195 5.95068 372.717 5.95068C372.298 5.95068 371.947 6.05648 371.663 6.26807C371.38 6.47965 371.238 6.73568 371.238 7.03613H370.057C370.057 6.69336 370.178 6.36328 370.419 6.0459C370.664 5.72428 370.994 5.47038 371.409 5.28418C371.828 5.09798 372.287 5.00488 372.787 5.00488C373.578 5.00488 374.198 5.20378 374.646 5.60156C375.095 5.99512 375.328 6.5389 375.345 7.23291V10.394C375.345 11.0246 375.425 11.526 375.586 11.8984V12H374.354ZM372.406 11.105C372.774 11.105 373.123 11.0098 373.453 10.8193C373.783 10.6289 374.022 10.3813 374.17 10.0767V8.66748H373.25C371.811 8.66748 371.092 9.08854 371.092 9.93066C371.092 10.2988 371.215 10.5866 371.46 10.7939C371.705 11.0013 372.021 11.105 372.406 11.105ZM373.491 2.25H374.913L373.212 4.11621H372.266L373.491 2.25ZM381.185 10.1782C381.185 9.86084 381.064 9.6154 380.823 9.44189C380.586 9.26416 380.169 9.11182 379.572 8.98486C378.98 8.85791 378.508 8.70557 378.157 8.52783C377.81 8.3501 377.552 8.13851 377.382 7.89307C377.217 7.64762 377.135 7.35563 377.135 7.01709C377.135 6.45426 377.372 5.97819 377.846 5.58887C378.324 5.19954 378.933 5.00488 379.674 5.00488C380.452 5.00488 381.083 5.20589 381.565 5.60791C382.052 6.00993 382.295 6.52409 382.295 7.15039H381.115C381.115 6.82878 380.977 6.5516 380.702 6.31885C380.431 6.0861 380.089 5.96973 379.674 5.96973C379.246 5.96973 378.912 6.06283 378.671 6.24902C378.43 6.43522 378.309 6.67855 378.309 6.979C378.309 7.26253 378.421 7.47624 378.646 7.62012C378.87 7.764 379.274 7.90153 379.858 8.03271C380.446 8.1639 380.922 8.32048 381.286 8.50244C381.65 8.68441 381.919 8.90446 382.092 9.1626C382.27 9.4165 382.359 9.72754 382.359 10.0957C382.359 10.7093 382.113 11.2023 381.623 11.5747C381.132 11.9429 380.495 12.127 379.712 12.127C379.162 12.127 378.675 12.0296 378.252 11.835C377.829 11.6403 377.497 11.3695 377.255 11.0225C377.018 10.6712 376.9 10.2925 376.9 9.88623H378.074C378.095 10.2798 378.252 10.5929 378.544 10.8257C378.84 11.0542 379.229 11.1685 379.712 11.1685C380.156 11.1685 380.512 11.0796 380.778 10.9019C381.049 10.7199 381.185 10.4787 381.185 10.1782Z" fill="white"/>
<path d="M335.304 13.2695H383V13.9043H335.304V13.2695Z" fill="white"/>
<path d="M4.37695 86H3.28711V78.7754L1.10156 79.5781V78.5938L4.20703 77.4277H4.37695V86ZM7.6875 85.4316C7.6875 85.2441 7.74219 85.0879 7.85156 84.9629C7.96484 84.8379 8.13281 84.7754 8.35547 84.7754C8.57812 84.7754 8.74609 84.8379 8.85938 84.9629C8.97656 85.0879 9.03516 85.2441 9.03516 85.4316C9.03516 85.6113 8.97656 85.7617 8.85938 85.8828C8.74609 86.0039 8.57812 86.0645 8.35547 86.0645C8.13281 86.0645 7.96484 86.0039 7.85156 85.8828C7.74219 85.7617 7.6875 85.6113 7.6875 85.4316ZM16.0664 82.3613C16.0664 83.6309 15.8496 84.5742 15.416 85.1914C14.9824 85.8086 14.3047 86.1172 13.3828 86.1172C12.4727 86.1172 11.7988 85.8164 11.3613 85.2148C10.9238 84.6094 10.6973 83.707 10.6816 82.5078V81.0605C10.6816 79.8066 10.8984 78.875 11.332 78.2656C11.7656 77.6562 12.4453 77.3516 13.3711 77.3516C14.2891 77.3516 14.9648 77.6465 15.3984 78.2363C15.832 78.8223 16.0547 79.7285 16.0664 80.9551V82.3613ZM14.9824 80.8789C14.9824 79.9609 14.8535 79.293 14.5957 78.875C14.3379 78.4531 13.9297 78.2422 13.3711 78.2422C12.8164 78.2422 12.4121 78.4512 12.1582 78.8691C11.9043 79.2871 11.7734 79.9297 11.7656 80.7969V82.5312C11.7656 83.4531 11.8984 84.1348 12.1641 84.5762C12.4336 85.0137 12.8398 85.2324 13.3828 85.2324C13.918 85.2324 14.3145 85.0254 14.5723 84.6113C14.834 84.1973 14.9707 83.5449 14.9824 82.6543V80.8789ZM22.8047 82.3613C22.8047 83.6309 22.5879 84.5742 22.1543 85.1914C21.7207 85.8086 21.043 86.1172 20.1211 86.1172C19.2109 86.1172 18.5371 85.8164 18.0996 85.2148C17.6621 84.6094 17.4355 83.707 17.4199 82.5078V81.0605C17.4199 79.8066 17.6367 78.875 18.0703 78.2656C18.5039 77.6562 19.1836 77.3516 20.1094 77.3516C21.0273 77.3516 21.7031 77.6465 22.1367 78.2363C22.5703 78.8223 22.793 79.7285 22.8047 80.9551V82.3613ZM21.7207 80.8789C21.7207 79.9609 21.5918 79.293 21.334 78.875C21.0762 78.4531 20.668 78.2422 20.1094 78.2422C19.5547 78.2422 19.1504 78.4512 18.8965 78.8691C18.6426 79.2871 18.5117 79.9297 18.5039 80.7969V82.5312C18.5039 83.4531 18.6367 84.1348 18.9023 84.5762C19.1719 85.0137 19.5781 85.2324 20.1211 85.2324C20.6562 85.2324 21.0527 85.0254 21.3105 84.6113C21.5723 84.1973 21.709 83.5449 21.7207 82.6543V80.8789ZM29.543 82.3613C29.543 83.6309 29.3262 84.5742 28.8926 85.1914C28.459 85.8086 27.7812 86.1172 26.8594 86.1172C25.9492 86.1172 25.2754 85.8164 24.8379 85.2148C24.4004 84.6094 24.1738 83.707 24.1582 82.5078V81.0605C24.1582 79.8066 24.375 78.875 24.8086 78.2656C25.2422 77.6562 25.9219 77.3516 26.8477 77.3516C27.7656 77.3516 28.4414 77.6465 28.875 78.2363C29.3086 78.8223 29.5312 79.7285 29.543 80.9551V82.3613ZM28.459 80.8789C28.459 79.9609 28.3301 79.293 28.0723 78.875C27.8145 78.4531 27.4062 78.2422 26.8477 78.2422C26.293 78.2422 25.8887 78.4512 25.6348 78.8691C25.3809 79.2871 25.25 79.9297 25.2422 80.7969V82.5312C25.2422 83.4531 25.375 84.1348 25.6406 84.5762C25.9102 85.0137 26.3164 85.2324 26.8594 85.2324C27.3945 85.2324 27.791 85.0254 28.0488 84.6113C28.3105 84.1973 28.4473 83.5449 28.459 82.6543V80.8789ZM35.3203 85.0801H39.3633V86H34.1895V77.4688H35.3203V85.0801ZM44.1328 85.373C43.7109 85.8691 43.0918 86.1172 42.2754 86.1172C41.5996 86.1172 41.084 85.9219 40.7285 85.5312C40.377 85.1367 40.1992 84.5547 40.1953 83.7852V79.6602H41.2793V83.7559C41.2793 84.7168 41.6699 85.1973 42.4512 85.1973C43.2793 85.1973 43.8301 84.8887 44.1035 84.2715V79.6602H45.1875V86H44.1562L44.1328 85.373ZM47.8594 85.1152H51.5684V86H46.5352V85.2031L50.0332 80.5566H46.5879V79.6602H51.3926V80.4277L47.8594 85.1152ZM52.4121 82.7715C52.4121 82.1504 52.5332 81.5918 52.7754 81.0957C53.0215 80.5996 53.3613 80.2168 53.7949 79.9473C54.2324 79.6777 54.7305 79.543 55.2891 79.543C56.1523 79.543 56.8496 79.8418 57.3809 80.4395C57.916 81.0371 58.1836 81.832 58.1836 82.8242V82.9004C58.1836 83.5176 58.0645 84.0723 57.8262 84.5645C57.5918 85.0527 57.2539 85.4336 56.8125 85.707C56.375 85.9805 55.8711 86.1172 55.3008 86.1172C54.4414 86.1172 53.7441 85.8184 53.209 85.2207C52.6777 84.623 52.4121 83.832 52.4121 82.8477V82.7715ZM53.502 82.9004C53.502 83.6035 53.6641 84.168 53.9883 84.5938C54.3164 85.0195 54.7539 85.2324 55.3008 85.2324C55.8516 85.2324 56.2891 85.0176 56.6133 84.5879C56.9375 84.1543 57.0996 83.5488 57.0996 82.7715C57.0996 82.0762 56.9336 81.5137 56.6016 81.084C56.2734 80.6504 55.8359 80.4336 55.2891 80.4336C54.7539 80.4336 54.3223 80.6465 53.9941 81.0723C53.666 81.498 53.502 82.1074 53.502 82.9004ZM60.5684 79.6602L60.6035 80.457C61.0879 79.8477 61.7207 79.543 62.502 79.543C63.8418 79.543 64.5176 80.2988 64.5293 81.8105V86H63.4453V81.8047C63.4414 81.3477 63.3359 81.0098 63.1289 80.791C62.9258 80.5723 62.6074 80.4629 62.1738 80.4629C61.8223 80.4629 61.5137 80.5566 61.248 80.7441C60.9824 80.9316 60.7754 81.1777 60.627 81.4824V86H59.543V79.6602H60.5684ZM68.7949 86.1172C67.9355 86.1172 67.2363 85.8359 66.6973 85.2734C66.1582 84.707 65.8887 83.9512 65.8887 83.0059V82.8066C65.8887 82.1777 66.0078 81.6172 66.2461 81.125C66.4883 80.6289 66.8242 80.2422 67.2539 79.9648C67.6875 79.6836 68.1562 79.543 68.6602 79.543C69.4844 79.543 70.125 79.8145 70.582 80.3574C71.0391 80.9004 71.2676 81.6777 71.2676 82.6895V83.1406H66.9727C66.9883 83.7656 67.1699 84.2715 67.5176 84.6582C67.8691 85.041 68.3145 85.2324 68.8535 85.2324C69.2363 85.2324 69.5605 85.1543 69.8262 84.998C70.0918 84.8418 70.3242 84.6348 70.5234 84.377L71.1855 84.8926C70.6543 85.709 69.8574 86.1172 68.7949 86.1172ZM68.6602 80.4336C68.2227 80.4336 67.8555 80.5938 67.5586 80.9141C67.2617 81.2305 67.0781 81.6758 67.0078 82.25H70.1836V82.168C70.1523 81.6172 70.0039 81.1914 69.7383 80.8906C69.4727 80.5859 69.1133 80.4336 68.6602 80.4336ZM76.2188 84.3184C76.2188 84.0254 76.1074 83.7988 75.8848 83.6387C75.666 83.4746 75.2812 83.334 74.7305 83.2168C74.1836 83.0996 73.748 82.959 73.4238 82.7949C73.1035 82.6309 72.8652 82.4355 72.709 82.209C72.5566 81.9824 72.4805 81.7129 72.4805 81.4004C72.4805 80.8809 72.6992 80.4414 73.1367 80.082C73.5781 79.7227 74.1406 79.543 74.8242 79.543C75.543 79.543 76.125 79.7285 76.5703 80.0996C77.0195 80.4707 77.2441 80.9453 77.2441 81.5234H76.1543C76.1543 81.2266 76.0273 80.9707 75.7734 80.7559C75.5234 80.541 75.207 80.4336 74.8242 80.4336C74.4297 80.4336 74.1211 80.5195 73.8984 80.6914C73.6758 80.8633 73.5645 81.0879 73.5645 81.3652C73.5645 81.627 73.668 81.8242 73.875 81.957C74.082 82.0898 74.4551 82.2168 74.9941 82.3379C75.5371 82.459 75.9766 82.6035 76.3125 82.7715C76.6484 82.9395 76.8965 83.1426 77.0566 83.3809C77.2207 83.6152 77.3027 83.9023 77.3027 84.2422C77.3027 84.8086 77.0762 85.2637 76.623 85.6074C76.1699 85.9473 75.582 86.1172 74.8594 86.1172C74.3516 86.1172 73.9023 86.0273 73.5117 85.8477C73.1211 85.668 72.8145 85.418 72.5918 85.0977C72.373 84.7734 72.2637 84.4238 72.2637 84.0488H73.3477C73.3672 84.4121 73.5117 84.7012 73.7812 84.916C74.0547 85.127 74.4141 85.2324 74.8594 85.2324C75.2695 85.2324 75.5977 85.1504 75.8438 84.9863C76.0938 84.8184 76.2188 84.5957 76.2188 84.3184Z" fill="white"/>
<rect x="1" y="100" width="77" height="6" rx="3" fill="white"/>
<rect x="1" y="100" width="77" height="6" rx="3" fill="#00DDA3"/>
<path d="M51.537 45.2483H47.9632V43.8326C47.9636 43.2345 47.7295 43 47.1338 43H30.7563C30.1606 43 29.9265 43.2345 29.9265 43.8326V45.2483H26.4636C25.8916 45.2483 25.667 45.4737 25.667 46.0476V46.1139C25.8502 50.7522 28.9041 54.6812 33.5303 56.3425C34.5279 57.8216 35.7481 59.1223 37.2299 60.1901C37.0451 62.9851 36.0621 64.9327 34.508 66.7493C34.3886 66.8884 34.3829 67 34.6214 67H43.2694C43.5075 67 43.5018 66.8888 43.3824 66.7493C41.828 64.9327 40.845 62.9857 40.6602 60.1901C42.1256 59.1347 43.3347 57.8505 44.326 56.3923C49.0325 54.7614 52.1482 50.8 52.3337 46.1139V46.0476C52.334 45.4737 52.1091 45.2483 51.537 45.2483ZM27.4239 47.0783C27.41 46.9873 27.4353 46.9135 27.5663 46.9135H30.1079C30.4983 49.3957 31.1468 51.7457 32.1285 53.8524C29.5706 52.3324 27.8535 49.898 27.4239 47.0783ZM50.5765 47.0783C50.1383 49.9529 48.3622 52.4265 45.7218 53.9399C46.7263 51.8113 47.3868 49.4302 47.7819 46.9138H50.434C50.5654 46.9138 50.5907 46.9876 50.5765 47.0783Z" fill="white"/>
<path d="M123.305 81.207H124.119C124.631 81.1992 125.033 81.0645 125.326 80.8027C125.619 80.541 125.766 80.1875 125.766 79.7422C125.766 78.7422 125.268 78.2422 124.271 78.2422C123.803 78.2422 123.428 78.377 123.146 78.6465C122.869 78.9121 122.73 79.2656 122.73 79.707H121.646C121.646 79.0312 121.893 78.4707 122.385 78.0254C122.881 77.5762 123.51 77.3516 124.271 77.3516C125.076 77.3516 125.707 77.5645 126.164 77.9902C126.621 78.416 126.85 79.0078 126.85 79.7656C126.85 80.1367 126.729 80.4961 126.486 80.8438C126.248 81.1914 125.922 81.4512 125.508 81.623C125.977 81.7715 126.338 82.0176 126.592 82.3613C126.85 82.7051 126.979 83.125 126.979 83.6211C126.979 84.3867 126.729 84.9941 126.229 85.4434C125.729 85.8926 125.078 86.1172 124.277 86.1172C123.477 86.1172 122.824 85.9004 122.32 85.4668C121.82 85.0332 121.57 84.4609 121.57 83.75H122.66C122.66 84.1992 122.807 84.5586 123.1 84.8281C123.393 85.0977 123.785 85.2324 124.277 85.2324C124.801 85.2324 125.201 85.0957 125.479 84.8223C125.756 84.5488 125.895 84.1562 125.895 83.6445C125.895 83.1484 125.742 82.7676 125.438 82.502C125.133 82.2363 124.693 82.0996 124.119 82.0918H123.305V81.207ZM133.816 82.3613C133.816 83.6309 133.6 84.5742 133.166 85.1914C132.732 85.8086 132.055 86.1172 131.133 86.1172C130.223 86.1172 129.549 85.8164 129.111 85.2148C128.674 84.6094 128.447 83.707 128.432 82.5078V81.0605C128.432 79.8066 128.648 78.875 129.082 78.2656C129.516 77.6562 130.195 77.3516 131.121 77.3516C132.039 77.3516 132.715 77.6465 133.148 78.2363C133.582 78.8223 133.805 79.7285 133.816 80.9551V82.3613ZM132.732 80.8789C132.732 79.9609 132.604 79.293 132.346 78.875C132.088 78.4531 131.68 78.2422 131.121 78.2422C130.566 78.2422 130.162 78.4512 129.908 78.8691C129.654 79.2871 129.523 79.9297 129.516 80.7969V82.5312C129.516 83.4531 129.648 84.1348 129.914 84.5762C130.184 85.0137 130.59 85.2324 131.133 85.2324C131.668 85.2324 132.064 85.0254 132.322 84.6113C132.584 84.1973 132.721 83.5449 132.732 82.6543V80.8789ZM138.463 86V77.4688H140.871C141.613 77.4688 142.27 77.6328 142.84 77.9609C143.41 78.2891 143.85 78.7559 144.158 79.3613C144.471 79.9668 144.629 80.6621 144.633 81.4473V81.9922C144.633 82.7969 144.477 83.502 144.164 84.1074C143.855 84.7129 143.412 85.1777 142.834 85.502C142.26 85.8262 141.59 85.9922 140.824 86H138.463ZM139.588 78.3945V85.0801H140.771C141.639 85.0801 142.312 84.8105 142.793 84.2715C143.277 83.7324 143.52 82.9648 143.52 81.9688V81.4707C143.52 80.502 143.291 79.75 142.834 79.2148C142.381 78.6758 141.736 78.4023 140.9 78.3945H139.588ZM147.346 86H146.256V79.6602H147.346V86ZM147.357 77.0059H148.67L147.1 78.7285H146.227L147.357 77.0059ZM153.047 86C152.984 85.875 152.934 85.6523 152.895 85.332C152.391 85.8555 151.789 86.1172 151.09 86.1172C150.465 86.1172 149.951 85.9414 149.549 85.5898C149.15 85.2344 148.951 84.7852 148.951 84.2422C148.951 83.582 149.201 83.0703 149.701 82.707C150.205 82.3398 150.912 82.1562 151.822 82.1562H152.877V81.6582C152.877 81.2793 152.764 80.9785 152.537 80.7559C152.311 80.5293 151.977 80.416 151.535 80.416C151.148 80.416 150.824 80.5137 150.562 80.709C150.301 80.9043 150.17 81.1406 150.17 81.418H149.08C149.08 81.1016 149.191 80.7969 149.414 80.5039C149.641 80.207 149.945 79.9727 150.328 79.8008C150.715 79.6289 151.139 79.543 151.6 79.543C152.33 79.543 152.902 79.7266 153.316 80.0938C153.73 80.457 153.945 80.959 153.961 81.5996V84.5176C153.961 85.0996 154.035 85.5625 154.184 85.9062V86H153.047ZM151.248 85.1738C151.588 85.1738 151.91 85.0859 152.215 84.9102C152.52 84.7344 152.74 84.5059 152.877 84.2246V82.9238H152.027C150.699 82.9238 150.035 83.3125 150.035 84.0898C150.035 84.4297 150.148 84.6953 150.375 84.8867C150.602 85.0781 150.893 85.1738 151.248 85.1738ZM159.352 84.3184C159.352 84.0254 159.24 83.7988 159.018 83.6387C158.799 83.4746 158.414 83.334 157.863 83.2168C157.316 83.0996 156.881 82.959 156.557 82.7949C156.236 82.6309 155.998 82.4355 155.842 82.209C155.689 81.9824 155.613 81.7129 155.613 81.4004C155.613 80.8809 155.832 80.4414 156.27 80.082C156.711 79.7227 157.273 79.543 157.957 79.543C158.676 79.543 159.258 79.7285 159.703 80.0996C160.152 80.4707 160.377 80.9453 160.377 81.5234H159.287C159.287 81.2266 159.16 80.9707 158.906 80.7559C158.656 80.541 158.34 80.4336 157.957 80.4336C157.562 80.4336 157.254 80.5195 157.031 80.6914C156.809 80.8633 156.697 81.0879 156.697 81.3652C156.697 81.627 156.801 81.8242 157.008 81.957C157.215 82.0898 157.588 82.2168 158.127 82.3379C158.67 82.459 159.109 82.6035 159.445 82.7715C159.781 82.9395 160.029 83.1426 160.189 83.3809C160.354 83.6152 160.436 83.9023 160.436 84.2422C160.436 84.8086 160.209 85.2637 159.756 85.6074C159.303 85.9473 158.715 86.1172 157.992 86.1172C157.484 86.1172 157.035 86.0273 156.645 85.8477C156.254 85.668 155.947 85.418 155.725 85.0977C155.506 84.7734 155.396 84.4238 155.396 84.0488H156.48C156.5 84.4121 156.645 84.7012 156.914 84.916C157.188 85.127 157.547 85.2324 157.992 85.2324C158.402 85.2324 158.73 85.1504 158.977 84.9863C159.227 84.8184 159.352 84.5957 159.352 84.3184Z" fill="white"/>
<rect x="102.523" y="100" width="77" height="6" rx="3" fill="white"/>
<rect x="102.523" y="100" width="77" height="6" rx="3" fill="#00DDA3"/>
<path d="M153.06 45.2483H149.487V43.8326C149.487 43.2345 149.253 43 148.657 43H132.28C131.684 43 131.45 43.2345 131.45 43.8326V45.2483H127.987C127.415 45.2483 127.19 45.4737 127.19 46.0476V46.1139C127.374 50.7522 130.428 54.6812 135.054 56.3425C136.051 57.8216 137.272 59.1223 138.753 60.1901C138.569 62.9851 137.586 64.9327 136.031 66.7493C135.912 66.8884 135.906 67 136.145 67H144.793C145.031 67 145.025 66.8888 144.906 66.7493C143.351 64.9327 142.368 62.9857 142.184 60.1901C143.649 59.1347 144.858 57.8505 145.849 56.3923C150.556 54.7614 153.672 50.8 153.857 46.1139V46.0476C153.857 45.4737 153.633 45.2483 153.06 45.2483ZM128.947 47.0783C128.933 46.9873 128.959 46.9135 129.09 46.9135H131.631C132.022 49.3957 132.67 51.7457 133.652 53.8524C131.094 52.3324 129.377 49.898 128.947 47.0783ZM152.1 47.0783C151.662 49.9529 149.886 52.4265 147.245 53.9399C148.25 51.8113 148.91 49.4302 149.305 46.9138H151.957C152.089 46.9138 152.114 46.9876 152.1 47.0783Z" fill="white"/>
<path d="M217.725 81.207H218.539C219.051 81.1992 219.453 81.0645 219.746 80.8027C220.039 80.541 220.186 80.1875 220.186 79.7422C220.186 78.7422 219.688 78.2422 218.691 78.2422C218.223 78.2422 217.848 78.377 217.566 78.6465C217.289 78.9121 217.15 79.2656 217.15 79.707H216.066C216.066 79.0312 216.312 78.4707 216.805 78.0254C217.301 77.5762 217.93 77.3516 218.691 77.3516C219.496 77.3516 220.127 77.5645 220.584 77.9902C221.041 78.416 221.27 79.0078 221.27 79.7656C221.27 80.1367 221.148 80.4961 220.906 80.8438C220.668 81.1914 220.342 81.4512 219.928 81.623C220.396 81.7715 220.758 82.0176 221.012 82.3613C221.27 82.7051 221.398 83.125 221.398 83.6211C221.398 84.3867 221.148 84.9941 220.648 85.4434C220.148 85.8926 219.498 86.1172 218.697 86.1172C217.896 86.1172 217.244 85.9004 216.74 85.4668C216.24 85.0332 215.99 84.4609 215.99 83.75H217.08C217.08 84.1992 217.227 84.5586 217.52 84.8281C217.812 85.0977 218.205 85.2324 218.697 85.2324C219.221 85.2324 219.621 85.0957 219.898 84.8223C220.176 84.5488 220.314 84.1562 220.314 83.6445C220.314 83.1484 220.162 82.7676 219.857 82.502C219.553 82.2363 219.113 82.0996 218.539 82.0918H217.725V81.207ZM228.236 82.3613C228.236 83.6309 228.02 84.5742 227.586 85.1914C227.152 85.8086 226.475 86.1172 225.553 86.1172C224.643 86.1172 223.969 85.8164 223.531 85.2148C223.094 84.6094 222.867 83.707 222.852 82.5078V81.0605C222.852 79.8066 223.068 78.875 223.502 78.2656C223.936 77.6562 224.615 77.3516 225.541 77.3516C226.459 77.3516 227.135 77.6465 227.568 78.2363C228.002 78.8223 228.225 79.7285 228.236 80.9551V82.3613ZM227.152 80.8789C227.152 79.9609 227.023 79.293 226.766 78.875C226.508 78.4531 226.1 78.2422 225.541 78.2422C224.986 78.2422 224.582 78.4512 224.328 78.8691C224.074 79.2871 223.943 79.9297 223.936 80.7969V82.5312C223.936 83.4531 224.068 84.1348 224.334 84.5762C224.604 85.0137 225.01 85.2324 225.553 85.2324C226.088 85.2324 226.484 85.0254 226.742 84.6113C227.004 84.1973 227.141 83.5449 227.152 82.6543V80.8789ZM235.396 82.1973C234.432 81.9199 233.729 81.5801 233.287 81.1777C232.85 80.7715 232.631 80.2715 232.631 79.6777C232.631 79.0059 232.898 78.4512 233.434 78.0137C233.973 77.5723 234.672 77.3516 235.531 77.3516C236.117 77.3516 236.639 77.4648 237.096 77.6914C237.557 77.918 237.912 78.2305 238.162 78.6289C238.416 79.0273 238.543 79.4629 238.543 79.9355H237.412C237.412 79.4199 237.248 79.0156 236.92 78.7227C236.592 78.4258 236.129 78.2773 235.531 78.2773C234.977 78.2773 234.543 78.4004 234.23 78.6465C233.922 78.8887 233.768 79.2266 233.768 79.6602C233.768 80.0078 233.914 80.3027 234.207 80.5449C234.504 80.7832 235.006 81.002 235.713 81.2012C236.424 81.4004 236.979 81.6211 237.377 81.8633C237.779 82.1016 238.076 82.3809 238.268 82.7012C238.463 83.0215 238.561 83.3984 238.561 83.832C238.561 84.5234 238.291 85.0781 237.752 85.4961C237.213 85.9102 236.492 86.1172 235.59 86.1172C235.004 86.1172 234.457 86.0059 233.949 85.7832C233.441 85.5566 233.049 85.248 232.771 84.8574C232.498 84.4668 232.361 84.0234 232.361 83.5273H233.492C233.492 84.043 233.682 84.4512 234.061 84.752C234.443 85.0488 234.953 85.1973 235.59 85.1973C236.184 85.1973 236.639 85.0762 236.955 84.834C237.271 84.5918 237.43 84.2617 237.43 83.8438C237.43 83.4258 237.283 83.1035 236.99 82.877C236.697 82.6465 236.166 82.4199 235.396 82.1973ZM240.922 80.4277C241.402 79.8379 242.027 79.543 242.797 79.543C244.137 79.543 244.812 80.2988 244.824 81.8105V86H243.74V81.8047C243.736 81.3477 243.631 81.0098 243.424 80.791C243.221 80.5723 242.902 80.4629 242.469 80.4629C242.117 80.4629 241.809 80.5566 241.543 80.7441C241.277 80.9316 241.07 81.1777 240.922 81.4824V86H239.838V77H240.922V80.4277ZM250.361 86C250.299 85.875 250.248 85.6523 250.209 85.332C249.705 85.8555 249.104 86.1172 248.404 86.1172C247.779 86.1172 247.266 85.9414 246.863 85.5898C246.465 85.2344 246.266 84.7852 246.266 84.2422C246.266 83.582 246.516 83.0703 247.016 82.707C247.52 82.3398 248.227 82.1562 249.137 82.1562H250.191V81.6582C250.191 81.2793 250.078 80.9785 249.852 80.7559C249.625 80.5293 249.291 80.416 248.85 80.416C248.463 80.416 248.139 80.5137 247.877 80.709C247.615 80.9043 247.484 81.1406 247.484 81.418H246.395C246.395 81.1016 246.506 80.7969 246.729 80.5039C246.955 80.207 247.26 79.9727 247.643 79.8008C248.029 79.6289 248.453 79.543 248.914 79.543C249.645 79.543 250.217 79.7266 250.631 80.0938C251.045 80.457 251.26 80.959 251.275 81.5996V84.5176C251.275 85.0996 251.35 85.5625 251.498 85.9062V86H250.361ZM248.562 85.1738C248.902 85.1738 249.225 85.0859 249.529 84.9102C249.834 84.7344 250.055 84.5059 250.191 84.2246V82.9238H249.342C248.014 82.9238 247.35 83.3125 247.35 84.0898C247.35 84.4297 247.463 84.6953 247.689 84.8867C247.916 85.0781 248.207 85.1738 248.562 85.1738ZM256.039 80.6328C255.875 80.6055 255.697 80.5918 255.506 80.5918C254.795 80.5918 254.312 80.8945 254.059 81.5V86H252.975V79.6602H254.029L254.047 80.3926C254.402 79.8262 254.906 79.543 255.559 79.543C255.77 79.543 255.93 79.5703 256.039 79.625V80.6328ZM259.555 86.1172C258.695 86.1172 257.996 85.8359 257.457 85.2734C256.918 84.707 256.648 83.9512 256.648 83.0059V82.8066C256.648 82.1777 256.768 81.6172 257.006 81.125C257.248 80.6289 257.584 80.2422 258.014 79.9648C258.447 79.6836 258.916 79.543 259.42 79.543C260.244 79.543 260.885 79.8145 261.342 80.3574C261.799 80.9004 262.027 81.6777 262.027 82.6895V83.1406H257.732C257.748 83.7656 257.93 84.2715 258.277 84.6582C258.629 85.041 259.074 85.2324 259.613 85.2324C259.996 85.2324 260.32 85.1543 260.586 84.998C260.852 84.8418 261.084 84.6348 261.283 84.377L261.945 84.8926C261.414 85.709 260.617 86.1172 259.555 86.1172ZM259.42 80.4336C258.982 80.4336 258.615 80.5938 258.318 80.9141C258.021 81.2305 257.838 81.6758 257.768 82.25H260.943V82.168C260.912 81.6172 260.764 81.1914 260.498 80.8906C260.232 80.5859 259.873 80.4336 259.42 80.4336ZM266.979 84.3184C266.979 84.0254 266.867 83.7988 266.645 83.6387C266.426 83.4746 266.041 83.334 265.49 83.2168C264.943 83.0996 264.508 82.959 264.184 82.7949C263.863 82.6309 263.625 82.4355 263.469 82.209C263.316 81.9824 263.24 81.7129 263.24 81.4004C263.24 80.8809 263.459 80.4414 263.896 80.082C264.338 79.7227 264.9 79.543 265.584 79.543C266.303 79.543 266.885 79.7285 267.33 80.0996C267.779 80.4707 268.004 80.9453 268.004 81.5234H266.914C266.914 81.2266 266.787 80.9707 266.533 80.7559C266.283 80.541 265.967 80.4336 265.584 80.4336C265.189 80.4336 264.881 80.5195 264.658 80.6914C264.436 80.8633 264.324 81.0879 264.324 81.3652C264.324 81.627 264.428 81.8242 264.635 81.957C264.842 82.0898 265.215 82.2168 265.754 82.3379C266.297 82.459 266.736 82.6035 267.072 82.7715C267.408 82.9395 267.656 83.1426 267.816 83.3809C267.98 83.6152 268.062 83.9023 268.062 84.2422C268.062 84.8086 267.836 85.2637 267.383 85.6074C266.93 85.9473 266.342 86.1172 265.619 86.1172C265.111 86.1172 264.662 86.0273 264.271 85.8477C263.881 85.668 263.574 85.418 263.352 85.0977C263.133 84.7734 263.023 84.4238 263.023 84.0488H264.107C264.127 84.4121 264.271 84.7012 264.541 84.916C264.814 85.127 265.174 85.2324 265.619 85.2324C266.029 85.2324 266.357 85.1504 266.604 84.9863C266.854 84.8184 266.979 84.5957 266.979 84.3184Z" fill="white"/>
<rect x="204.047" y="100" width="77" height="6" rx="3" fill="white"/>
<rect x="204.047" y="100" width="77" height="6" rx="3" fill="#00DDA3"/>
<path d="M254.584 45.2483H251.01V43.8326C251.01 43.2345 250.776 43 250.181 43H233.803C233.207 43 232.973 43.2345 232.973 43.8326V45.2483H229.51C228.938 45.2483 228.714 45.4737 228.714 46.0476V46.1139C228.897 50.7522 231.951 54.6812 236.577 56.3425C237.575 57.8216 238.795 59.1223 240.277 60.1901C240.092 62.9851 239.109 64.9327 237.555 66.7493C237.435 66.8884 237.43 67 237.668 67H246.316C246.554 67 246.549 66.8888 246.429 66.7493C244.875 64.9327 243.892 62.9857 243.707 60.1901C245.172 59.1347 246.382 57.8505 247.373 56.3923C252.079 54.7614 255.195 50.8 255.381 46.1139V46.0476C255.381 45.4737 255.156 45.2483 254.584 45.2483ZM230.471 47.0783C230.457 46.9873 230.482 46.9135 230.613 46.9135H233.155C233.545 49.3957 234.194 51.7457 235.175 53.8524C232.617 52.3324 230.9 49.898 230.471 47.0783ZM253.623 47.0783C253.185 49.9529 251.409 52.4265 248.769 53.9399C249.773 51.8113 250.434 49.4302 250.829 46.9138H253.481C253.612 46.9138 253.638 46.9876 253.623 47.0783Z" fill="white"/>
<path d="M332.338 86H331.248V78.7754L329.062 79.5781V78.5938L332.168 77.4277H332.338V86ZM343.482 83.7734H339.908L339.105 86H337.945L341.203 77.4688H342.188L345.451 86H344.297L343.482 83.7734ZM340.248 82.8477H343.148L341.695 78.8574L340.248 82.8477ZM347.455 79.6602L347.49 80.457C347.975 79.8477 348.607 79.543 349.389 79.543C350.729 79.543 351.404 80.2988 351.416 81.8105V86H350.332V81.8047C350.328 81.3477 350.223 81.0098 350.016 80.791C349.812 80.5723 349.494 80.4629 349.061 80.4629C348.709 80.4629 348.4 80.5566 348.135 80.7441C347.869 80.9316 347.662 81.1777 347.514 81.4824V86H346.43V79.6602H347.455ZM351.041 77.1875C351.041 77.6094 350.92 77.9512 350.678 78.2129C350.439 78.4746 350.141 78.6055 349.781 78.6055C349.621 78.6055 349.482 78.5859 349.365 78.5469C349.248 78.5078 349.094 78.4277 348.902 78.3066C348.715 78.1855 348.578 78.1133 348.492 78.0898C348.41 78.0625 348.314 78.0488 348.205 78.0488C348.045 78.0488 347.908 78.1113 347.795 78.2363C347.682 78.3574 347.625 78.5137 347.625 78.7051L346.898 78.6641C346.898 78.2461 347.016 77.9004 347.25 77.627C347.488 77.3535 347.789 77.2168 348.152 77.2168C348.289 77.2168 348.412 77.2363 348.521 77.2754C348.631 77.3145 348.779 77.3906 348.967 77.5039C349.154 77.6172 349.297 77.6914 349.395 77.7266C349.496 77.7617 349.607 77.7793 349.729 77.7793C349.896 77.7793 350.035 77.7129 350.145 77.5801C350.258 77.4473 350.314 77.293 350.314 77.1172L351.041 77.1875ZM352.764 82.7715C352.764 82.1504 352.885 81.5918 353.127 81.0957C353.373 80.5996 353.713 80.2168 354.146 79.9473C354.584 79.6777 355.082 79.543 355.641 79.543C356.504 79.543 357.201 79.8418 357.732 80.4395C358.268 81.0371 358.535 81.832 358.535 82.8242V82.9004C358.535 83.5176 358.416 84.0723 358.178 84.5645C357.943 85.0527 357.605 85.4336 357.164 85.707C356.727 85.9805 356.223 86.1172 355.652 86.1172C354.793 86.1172 354.096 85.8184 353.561 85.2207C353.029 84.623 352.764 83.832 352.764 82.8477V82.7715ZM353.854 82.9004C353.854 83.6035 354.016 84.168 354.34 84.5938C354.668 85.0195 355.105 85.2324 355.652 85.2324C356.203 85.2324 356.641 85.0176 356.965 84.5879C357.289 84.1543 357.451 83.5488 357.451 82.7715C357.451 82.0762 357.285 81.5137 356.953 81.084C356.625 80.6504 356.188 80.4336 355.641 80.4336C355.105 80.4336 354.674 80.6465 354.346 81.0723C354.018 81.498 353.854 82.1074 353.854 82.9004Z" fill="white"/>
<rect x="305.57" y="100" width="77" height="6" rx="3" fill="white"/>
<rect x="305.57" y="100" width="77" height="6" rx="3" fill="#00DDA3"/>
<path d="M356.107 45.2483H352.534V43.8326C352.534 43.2345 352.3 43 351.704 43H335.327C334.731 43 334.497 43.2345 334.497 43.8326V45.2483H331.034C330.462 45.2483 330.237 45.4737 330.237 46.0476V46.1139C330.421 50.7522 333.474 54.6812 338.101 56.3425C339.098 57.8216 340.318 59.1223 341.8 60.1901C341.615 62.9851 340.632 64.9327 339.078 66.7493C338.959 66.8884 338.953 67 339.192 67H347.84C348.078 67 348.072 66.8888 347.953 66.7493C346.398 64.9327 345.415 62.9857 345.231 60.1901C346.696 59.1347 347.905 57.8505 348.896 56.3923C353.603 54.7614 356.719 50.8 356.904 46.1139V46.0476C356.904 45.4737 356.679 45.2483 356.107 45.2483ZM331.994 47.0783C331.98 46.9873 332.006 46.9135 332.137 46.9135H334.678C335.069 49.3957 335.717 51.7457 336.699 53.8524C334.141 52.3324 332.424 49.898 331.994 47.0783ZM355.147 47.0783C354.709 49.9529 352.932 52.4265 350.292 53.9399C351.297 51.8113 351.957 49.4302 352.352 46.9138H355.004C355.136 46.9138 355.161 46.9876 355.147 47.0783Z" fill="white"/>
</svg>
