
<svg width="386" height="106" viewBox="0 0 386 106" fill="none" xmlns="http://www.w3.org/2000/svg">
<path d="M4.58789 4.20312L7.875 13.4844L11.1445 4.20312H14.6074V17H11.9619V13.502L12.2256 7.46387L8.77148 17H6.96094L3.51562 7.47266L3.7793 13.502V17H1.14258V4.20312H4.58789ZM19.4238 17H16.875V7.49023H19.4238V17ZM16.7256 5.0293C16.7256 4.64844 16.8516 4.33496 17.1035 4.08887C17.3613 3.84277 17.71 3.71973 18.1494 3.71973C18.583 3.71973 18.9287 3.84277 19.1865 4.08887C19.4443 4.33496 19.5732 4.64844 19.5732 5.0293C19.5732 5.41602 19.4414 5.73242 19.1777 5.97852C18.9199 6.22461 18.5771 6.34766 18.1494 6.34766C17.7217 6.34766 17.376 6.22461 17.1123 5.97852C16.8545 5.73242 16.7256 5.41602 16.7256 5.0293ZM26.6748 14.3721C26.6748 14.0615 26.5195 13.8184 26.209 13.6426C25.9043 13.4609 25.4121 13.2998 24.7324 13.1592C22.4707 12.6846 21.3398 11.7236 21.3398 10.2764C21.3398 9.43262 21.6885 8.72949 22.3857 8.16699C23.0889 7.59863 24.0059 7.31445 25.1367 7.31445C26.3438 7.31445 27.3076 7.59863 28.0283 8.16699C28.7549 8.73535 29.1182 9.47363 29.1182 10.3818H26.5781C26.5781 10.0186 26.4609 9.71973 26.2266 9.48535C25.9922 9.24512 25.626 9.125 25.1279 9.125C24.7002 9.125 24.3691 9.22168 24.1348 9.41504C23.9004 9.6084 23.7832 9.85449 23.7832 10.1533C23.7832 10.4346 23.915 10.6631 24.1787 10.8389C24.4482 11.0088 24.8994 11.1582 25.5322 11.2871C26.165 11.4102 26.6982 11.5508 27.1318 11.709C28.4736 12.2012 29.1445 13.0537 29.1445 14.2666C29.1445 15.1338 28.7725 15.8369 28.0283 16.376C27.2842 16.9092 26.3232 17.1758 25.1455 17.1758C24.3486 17.1758 23.6396 17.0352 23.0186 16.7539C22.4033 16.4668 21.9199 16.0771 21.5684 15.585C21.2168 15.0869 21.041 14.5508 21.041 13.9766H23.4492C23.4727 14.4277 23.6396 14.7734 23.9502 15.0137C24.2607 15.2539 24.6768 15.374 25.1982 15.374C25.6846 15.374 26.0508 15.2832 26.2969 15.1016C26.5488 14.9141 26.6748 14.6709 26.6748 14.3721ZM37.9512 17H35.4023V7.49023H37.9512V17ZM35.2529 5.0293C35.2529 4.64844 35.3789 4.33496 35.6309 4.08887C35.8887 3.84277 36.2373 3.71973 36.6768 3.71973C37.1104 3.71973 37.4561 3.84277 37.7139 4.08887C37.9717 4.33496 38.1006 4.64844 38.1006 5.0293C38.1006 5.41602 37.9688 5.73242 37.7051 5.97852C37.4473 6.22461 37.1045 6.34766 36.6768 6.34766C36.249 6.34766 35.9033 6.22461 35.6396 5.97852C35.3818 5.73242 35.2529 5.41602 35.2529 5.0293ZM42.3896 7.49023L42.4688 8.58887C43.1484 7.73926 44.0596 7.31445 45.2021 7.31445C46.21 7.31445 46.96 7.61035 47.4521 8.20215C47.9443 8.79395 48.1963 9.67871 48.208 10.8564V17H45.668V10.918C45.668 10.3789 45.5508 9.98926 45.3164 9.74902C45.082 9.50293 44.6924 9.37988 44.1475 9.37988C43.4326 9.37988 42.8965 9.68457 42.5391 10.2939V17H39.999V7.49023H42.3896ZM55.292 14.3721C55.292 14.0615 55.1367 13.8184 54.8262 13.6426C54.5215 13.4609 54.0293 13.2998 53.3496 13.1592C51.0879 12.6846 49.957 11.7236 49.957 10.2764C49.957 9.43262 50.3057 8.72949 51.0029 8.16699C51.7061 7.59863 52.623 7.31445 53.7539 7.31445C54.9609 7.31445 55.9248 7.59863 56.6455 8.16699C57.3721 8.73535 57.7354 9.47363 57.7354 10.3818H55.1953C55.1953 10.0186 55.0781 9.71973 54.8438 9.48535C54.6094 9.24512 54.2432 9.125 53.7451 9.125C53.3174 9.125 52.9863 9.22168 52.752 9.41504C52.5176 9.6084 52.4004 9.85449 52.4004 10.1533C52.4004 10.4346 52.5322 10.6631 52.7959 10.8389C53.0654 11.0088 53.5166 11.1582 54.1494 11.2871C54.7822 11.4102 55.3154 11.5508 55.749 11.709C57.0908 12.2012 57.7617 13.0537 57.7617 14.2666C57.7617 15.1338 57.3896 15.8369 56.6455 16.376C55.9014 16.9092 54.9404 17.1758 53.7627 17.1758C52.9658 17.1758 52.2568 17.0352 51.6357 16.7539C51.0205 16.4668 50.5371 16.0771 50.1855 15.585C49.834 15.0869 49.6582 14.5508 49.6582 13.9766H52.0664C52.0898 14.4277 52.2568 14.7734 52.5674 15.0137C52.8779 15.2539 53.2939 15.374 53.8154 15.374C54.3018 15.374 54.668 15.2832 54.9141 15.1016C55.166 14.9141 55.292 14.6709 55.292 14.3721ZM62.0859 17H59.5371V7.49023H62.0859V17ZM59.3877 5.0293C59.3877 4.64844 59.5137 4.33496 59.7656 4.08887C60.0234 3.84277 60.3721 3.71973 60.8115 3.71973C61.2451 3.71973 61.5908 3.84277 61.8486 4.08887C62.1064 4.33496 62.2354 4.64844 62.2354 5.0293C62.2354 5.41602 62.1035 5.73242 61.8398 5.97852C61.582 6.22461 61.2393 6.34766 60.8115 6.34766C60.3838 6.34766 60.0381 6.22461 59.7744 5.97852C59.5166 5.73242 59.3877 5.41602 59.3877 5.0293ZM63.8174 12.1748C63.8174 10.7158 64.1631 9.54102 64.8545 8.65039C65.5518 7.75977 66.4893 7.31445 67.667 7.31445C68.71 7.31445 69.5215 7.67188 70.1016 8.38672L70.207 7.49023H72.5098V16.6836C72.5098 17.5156 72.3193 18.2393 71.9385 18.8545C71.5635 19.4697 71.0332 19.9385 70.3477 20.2607C69.6621 20.583 68.8594 20.7441 67.9395 20.7441C67.2422 20.7441 66.5625 20.6035 65.9004 20.3223C65.2383 20.0469 64.7373 19.6895 64.3975 19.25L65.5225 17.7031C66.1553 18.4121 66.9229 18.7666 67.8252 18.7666C68.499 18.7666 69.0234 18.585 69.3984 18.2217C69.7734 17.8643 69.9609 17.3545 69.9609 16.6924V16.1826C69.375 16.8447 68.6045 17.1758 67.6494 17.1758C66.5068 17.1758 65.5811 16.7305 64.8721 15.8398C64.1689 14.9434 63.8174 13.7568 63.8174 12.2803V12.1748ZM66.3574 12.3594C66.3574 13.2207 66.5303 13.8975 66.876 14.3896C67.2217 14.876 67.6963 15.1191 68.2998 15.1191C69.0732 15.1191 69.627 14.8291 69.9609 14.249V10.25C69.6211 9.66992 69.0732 9.37988 68.3174 9.37988C67.708 9.37988 67.2275 9.62891 66.876 10.127C66.5303 10.625 66.3574 11.3691 66.3574 12.3594ZM76.8076 7.49023L76.8867 8.58887C77.5664 7.73926 78.4775 7.31445 79.6201 7.31445C80.6279 7.31445 81.3779 7.61035 81.8701 8.20215C82.3623 8.79395 82.6143 9.67871 82.626 10.8564V17H80.0859V10.918C80.0859 10.3789 79.9688 9.98926 79.7344 9.74902C79.5 9.50293 79.1104 9.37988 78.5654 9.37988C77.8506 9.37988 77.3145 9.68457 76.957 10.2939V17H74.417V7.49023H76.8076ZM87.2402 17H84.6914V7.49023H87.2402V17ZM84.542 5.0293C84.542 4.64844 84.668 4.33496 84.9199 4.08887C85.1777 3.84277 85.5264 3.71973 85.9658 3.71973C86.3994 3.71973 86.7451 3.84277 87.0029 4.08887C87.2607 4.33496 87.3896 4.64844 87.3896 5.0293C87.3896 5.41602 87.2578 5.73242 86.9941 5.97852C86.7363 6.22461 86.3936 6.34766 85.9658 6.34766C85.5381 6.34766 85.1924 6.22461 84.9287 5.97852C84.6709 5.73242 84.542 5.41602 84.542 5.0293ZM94.8516 17C94.7344 16.7715 94.6494 16.4873 94.5967 16.1475C93.9814 16.833 93.1816 17.1758 92.1973 17.1758C91.2656 17.1758 90.4922 16.9062 89.877 16.3672C89.2676 15.8281 88.9629 15.1484 88.9629 14.3281C88.9629 13.3203 89.335 12.5469 90.0791 12.0078C90.8291 11.4688 91.9102 11.1963 93.3223 11.1904H94.4912V10.6455C94.4912 10.2061 94.377 9.85449 94.1484 9.59082C93.9258 9.32715 93.5713 9.19531 93.085 9.19531C92.6572 9.19531 92.3203 9.29785 92.0742 9.50293C91.834 9.70801 91.7139 9.98926 91.7139 10.3467H89.1738C89.1738 9.7959 89.3438 9.28613 89.6836 8.81738C90.0234 8.34863 90.5039 7.98242 91.125 7.71875C91.7461 7.44922 92.4434 7.31445 93.2168 7.31445C94.3887 7.31445 95.3174 7.61035 96.0029 8.20215C96.6943 8.78809 97.04 9.61426 97.04 10.6807V14.8027C97.0459 15.7051 97.1719 16.3877 97.418 16.8506V17H94.8516ZM92.751 15.2334C93.126 15.2334 93.4717 15.1514 93.7881 14.9873C94.1045 14.8174 94.3389 14.5918 94.4912 14.3105V12.6758H93.542C92.2705 12.6758 91.5938 13.1152 91.5117 13.9941L91.5029 14.1436C91.5029 14.46 91.6143 14.7207 91.8369 14.9258C92.0596 15.1309 92.3643 15.2334 92.751 15.2334ZM104.142 14.3721C104.142 14.0615 103.986 13.8184 103.676 13.6426C103.371 13.4609 102.879 13.2998 102.199 13.1592C99.9375 12.6846 98.8066 11.7236 98.8066 10.2764C98.8066 9.43262 99.1553 8.72949 99.8525 8.16699C100.556 7.59863 101.473 7.31445 102.604 7.31445C103.811 7.31445 104.774 7.59863 105.495 8.16699C106.222 8.73535 106.585 9.47363 106.585 10.3818H104.045C104.045 10.0186 103.928 9.71973 103.693 9.48535C103.459 9.24512 103.093 9.125 102.595 9.125C102.167 9.125 101.836 9.22168 101.602 9.41504C101.367 9.6084 101.25 9.85449 101.25 10.1533C101.25 10.4346 101.382 10.6631 101.646 10.8389C101.915 11.0088 102.366 11.1582 102.999 11.2871C103.632 11.4102 104.165 11.5508 104.599 11.709C105.94 12.2012 106.611 13.0537 106.611 14.2666C106.611 15.1338 106.239 15.8369 105.495 16.376C104.751 16.9092 103.79 17.1758 102.612 17.1758C101.815 17.1758 101.106 17.0352 100.485 16.7539C99.8701 16.4668 99.3867 16.0771 99.0352 15.585C98.6836 15.0869 98.5078 14.5508 98.5078 13.9766H100.916C100.939 14.4277 101.106 14.7734 101.417 15.0137C101.728 15.2539 102.144 15.374 102.665 15.374C103.151 15.374 103.518 15.2832 103.764 15.1016C104.016 14.9141 104.142 14.6709 104.142 14.3721ZM117.888 14.3721C117.888 14.0615 117.732 13.8184 117.422 13.6426C117.117 13.4609 116.625 13.2998 115.945 13.1592C113.684 12.6846 112.553 11.7236 112.553 10.2764C112.553 9.43262 112.901 8.72949 113.599 8.16699C114.302 7.59863 115.219 7.31445 116.35 7.31445C117.557 7.31445 118.521 7.59863 119.241 8.16699C119.968 8.73535 120.331 9.47363 120.331 10.3818H117.791C117.791 10.0186 117.674 9.71973 117.439 9.48535C117.205 9.24512 116.839 9.125 116.341 9.125C115.913 9.125 115.582 9.22168 115.348 9.41504C115.113 9.6084 114.996 9.85449 114.996 10.1533C114.996 10.4346 115.128 10.6631 115.392 10.8389C115.661 11.0088 116.112 11.1582 116.745 11.2871C117.378 11.4102 117.911 11.5508 118.345 11.709C119.687 12.2012 120.357 13.0537 120.357 14.2666C120.357 15.1338 119.985 15.8369 119.241 16.376C118.497 16.9092 117.536 17.1758 116.358 17.1758C115.562 17.1758 114.853 17.0352 114.231 16.7539C113.616 16.4668 113.133 16.0771 112.781 15.585C112.43 15.0869 112.254 14.5508 112.254 13.9766H114.662C114.686 14.4277 114.853 14.7734 115.163 15.0137C115.474 15.2539 115.89 15.374 116.411 15.374C116.897 15.374 117.264 15.2832 117.51 15.1016C117.762 14.9141 117.888 14.6709 117.888 14.3721ZM121.605 12.1572C121.605 11.2139 121.787 10.373 122.15 9.63477C122.514 8.89648 123.035 8.3252 123.715 7.9209C124.4 7.5166 125.194 7.31445 126.097 7.31445C127.38 7.31445 128.426 7.70703 129.234 8.49219C130.049 9.27734 130.503 10.3438 130.597 11.6914L130.614 12.3418C130.614 13.8008 130.207 14.9727 129.393 15.8574C128.578 16.7363 127.485 17.1758 126.114 17.1758C124.743 17.1758 123.647 16.7363 122.827 15.8574C122.013 14.9785 121.605 13.7832 121.605 12.2715V12.1572ZM124.146 12.3418C124.146 13.2441 124.315 13.9355 124.655 14.416C124.995 14.8906 125.481 15.1279 126.114 15.1279C126.729 15.1279 127.21 14.8936 127.556 14.4248C127.901 13.9502 128.074 13.1943 128.074 12.1572C128.074 11.2725 127.901 10.5869 127.556 10.1006C127.21 9.61426 126.724 9.37109 126.097 9.37109C125.476 9.37109 124.995 9.61426 124.655 10.1006C124.315 10.5811 124.146 11.3281 124.146 12.3418ZM134.859 17H132.311V3.5H134.859V17ZM139.641 17H137.092V7.49023H139.641V17ZM136.942 5.0293C136.942 4.64844 137.068 4.33496 137.32 4.08887C137.578 3.84277 137.927 3.71973 138.366 3.71973C138.8 3.71973 139.146 3.84277 139.403 4.08887C139.661 4.33496 139.79 4.64844 139.79 5.0293C139.79 5.41602 139.658 5.73242 139.395 5.97852C139.137 6.22461 138.794 6.34766 138.366 6.34766C137.938 6.34766 137.593 6.22461 137.329 5.97852C137.071 5.73242 136.942 5.41602 136.942 5.0293ZM141.346 12.1748C141.346 10.6924 141.677 9.51172 142.339 8.63281C143.007 7.75391 143.918 7.31445 145.072 7.31445C145.998 7.31445 146.763 7.66016 147.366 8.35156V3.5H149.915V17H147.621L147.498 15.9893C146.865 16.7803 146.051 17.1758 145.055 17.1758C143.936 17.1758 143.036 16.7363 142.356 15.8574C141.683 14.9727 141.346 13.7451 141.346 12.1748ZM143.886 12.3594C143.886 13.25 144.041 13.9326 144.352 14.4072C144.662 14.8818 145.113 15.1191 145.705 15.1191C146.49 15.1191 147.044 14.7881 147.366 14.126V10.373C147.05 9.71094 146.502 9.37988 145.723 9.37988C144.498 9.37988 143.886 10.373 143.886 12.3594ZM157.395 17C157.277 16.7715 157.192 16.4873 157.14 16.1475C156.524 16.833 155.725 17.1758 154.74 17.1758C153.809 17.1758 153.035 16.9062 152.42 16.3672C151.811 15.8281 151.506 15.1484 151.506 14.3281C151.506 13.3203 151.878 12.5469 152.622 12.0078C153.372 11.4688 154.453 11.1963 155.865 11.1904H157.034V10.6455C157.034 10.2061 156.92 9.85449 156.691 9.59082C156.469 9.32715 156.114 9.19531 155.628 9.19531C155.2 9.19531 154.863 9.29785 154.617 9.50293C154.377 9.70801 154.257 9.98926 154.257 10.3467H151.717C151.717 9.7959 151.887 9.28613 152.227 8.81738C152.566 8.34863 153.047 7.98242 153.668 7.71875C154.289 7.44922 154.986 7.31445 155.76 7.31445C156.932 7.31445 157.86 7.61035 158.546 8.20215C159.237 8.78809 159.583 9.61426 159.583 10.6807V14.8027C159.589 15.7051 159.715 16.3877 159.961 16.8506V17H157.395ZM155.294 15.2334C155.669 15.2334 156.015 15.1514 156.331 14.9873C156.647 14.8174 156.882 14.5918 157.034 14.3105V12.6758H156.085C154.813 12.6758 154.137 13.1152 154.055 13.9941L154.046 14.1436C154.046 14.46 154.157 14.7207 154.38 14.9258C154.603 15.1309 154.907 15.2334 155.294 15.2334ZM166.878 9.87207C166.532 9.8252 166.228 9.80176 165.964 9.80176C165.003 9.80176 164.373 10.127 164.074 10.7773V17H161.534V7.49023H163.934L164.004 8.62402C164.514 7.75098 165.22 7.31445 166.122 7.31445C166.403 7.31445 166.667 7.35254 166.913 7.42871L166.878 9.87207ZM170.789 17H168.24V7.49023H170.789V17ZM168.091 5.0293C168.091 4.64844 168.217 4.33496 168.469 4.08887C168.727 3.84277 169.075 3.71973 169.515 3.71973C169.948 3.71973 170.294 3.84277 170.552 4.08887C170.81 4.33496 170.938 4.64844 170.938 5.0293C170.938 5.41602 170.807 5.73242 170.543 5.97852C170.285 6.22461 169.942 6.34766 169.515 6.34766C169.087 6.34766 168.741 6.22461 168.478 5.97852C168.22 5.73242 168.091 5.41602 168.091 5.0293ZM178.4 17C178.283 16.7715 178.198 16.4873 178.146 16.1475C177.53 16.833 176.73 17.1758 175.746 17.1758C174.814 17.1758 174.041 16.9062 173.426 16.3672C172.816 15.8281 172.512 15.1484 172.512 14.3281C172.512 13.3203 172.884 12.5469 173.628 12.0078C174.378 11.4688 175.459 11.1963 176.871 11.1904H178.04V10.6455C178.04 10.2061 177.926 9.85449 177.697 9.59082C177.475 9.32715 177.12 9.19531 176.634 9.19531C176.206 9.19531 175.869 9.29785 175.623 9.50293C175.383 9.70801 175.263 9.98926 175.263 10.3467H172.723C172.723 9.7959 172.893 9.28613 173.232 8.81738C173.572 8.34863 174.053 7.98242 174.674 7.71875C175.295 7.44922 175.992 7.31445 176.766 7.31445C177.938 7.31445 178.866 7.61035 179.552 8.20215C180.243 8.78809 180.589 9.61426 180.589 10.6807V14.8027C180.595 15.7051 180.721 16.3877 180.967 16.8506V17H178.4ZM176.3 15.2334C176.675 15.2334 177.021 15.1514 177.337 14.9873C177.653 14.8174 177.888 14.5918 178.04 14.3105V12.6758H177.091C175.819 12.6758 175.143 13.1152 175.061 13.9941L175.052 14.1436C175.052 14.46 175.163 14.7207 175.386 14.9258C175.608 15.1309 175.913 15.2334 176.3 15.2334ZM187.69 14.3721C187.69 14.0615 187.535 13.8184 187.225 13.6426C186.92 13.4609 186.428 13.2998 185.748 13.1592C183.486 12.6846 182.355 11.7236 182.355 10.2764C182.355 9.43262 182.704 8.72949 183.401 8.16699C184.104 7.59863 185.021 7.31445 186.152 7.31445C187.359 7.31445 188.323 7.59863 189.044 8.16699C189.771 8.73535 190.134 9.47363 190.134 10.3818H187.594C187.594 10.0186 187.477 9.71973 187.242 9.48535C187.008 9.24512 186.642 9.125 186.144 9.125C185.716 9.125 185.385 9.22168 185.15 9.41504C184.916 9.6084 184.799 9.85449 184.799 10.1533C184.799 10.4346 184.931 10.6631 185.194 10.8389C185.464 11.0088 185.915 11.1582 186.548 11.2871C187.181 11.4102 187.714 11.5508 188.147 11.709C189.489 12.2012 190.16 13.0537 190.16 14.2666C190.16 15.1338 189.788 15.8369 189.044 16.376C188.3 16.9092 187.339 17.1758 186.161 17.1758C185.364 17.1758 184.655 17.0352 184.034 16.7539C183.419 16.4668 182.936 16.0771 182.584 15.585C182.232 15.0869 182.057 14.5508 182.057 13.9766H184.465C184.488 14.4277 184.655 14.7734 184.966 15.0137C185.276 15.2539 185.692 15.374 186.214 15.374C186.7 15.374 187.066 15.2832 187.312 15.1016C187.564 14.9141 187.69 14.6709 187.69 14.3721Z" fill="white"/>
<path d="M331.157 9.7085L333.252 2.75781H335.372L332.154 12H330.167L326.961 2.75781H329.075L331.157 9.7085ZM339.009 12.127C338.002 12.127 337.181 11.818 336.546 11.2002C335.916 10.5824 335.601 9.75928 335.601 8.73096V8.55322C335.601 7.86344 335.734 7.24772 336 6.70605C336.267 6.16016 336.644 5.74121 337.13 5.44922C337.621 5.15299 338.18 5.00488 338.806 5.00488C339.746 5.00488 340.484 5.30111 341.021 5.89355C341.563 6.486 341.834 7.32601 341.834 8.41357V9.1626H337.46C337.52 9.61117 337.697 9.97087 337.994 10.2417C338.294 10.5125 338.673 10.6479 339.13 10.6479C339.837 10.6479 340.389 10.3919 340.787 9.87988L341.688 10.8892C341.413 11.2785 341.041 11.5832 340.571 11.8032C340.101 12.019 339.581 12.127 339.009 12.127ZM338.8 6.49023C338.436 6.49023 338.14 6.61296 337.911 6.8584C337.687 7.10384 337.543 7.45508 337.479 7.91211H340.031V7.76611C340.023 7.35986 339.913 7.04671 339.701 6.82666C339.49 6.60238 339.189 6.49023 338.8 6.49023ZM346.741 6.85205C346.491 6.8182 346.271 6.80127 346.081 6.80127C345.387 6.80127 344.932 7.03613 344.716 7.50586V12H342.881V5.13184H344.614L344.665 5.95068C345.033 5.32015 345.543 5.00488 346.195 5.00488C346.398 5.00488 346.588 5.03239 346.766 5.0874L346.741 6.85205ZM352.587 5.13184L352.644 5.8999C353.131 5.30322 353.789 5.00488 354.618 5.00488C355.503 5.00488 356.11 5.354 356.44 6.05225C356.922 5.354 357.61 5.00488 358.503 5.00488C359.248 5.00488 359.802 5.22282 360.166 5.65869C360.53 6.09033 360.712 6.74202 360.712 7.61377V12H358.871V7.62012C358.871 7.23079 358.795 6.94727 358.643 6.76953C358.49 6.58757 358.222 6.49658 357.836 6.49658C357.286 6.49658 356.905 6.75895 356.694 7.28369L356.7 12H354.866V7.62646C354.866 7.22868 354.787 6.94092 354.631 6.76318C354.474 6.58545 354.208 6.49658 353.831 6.49658C353.311 6.49658 352.934 6.7124 352.701 7.14404V12H350.867V5.13184H352.587ZM366.107 12C366.023 11.835 365.961 11.6297 365.923 11.3843C365.479 11.8794 364.901 12.127 364.19 12.127C363.518 12.127 362.959 11.9323 362.515 11.543C362.075 11.1536 361.854 10.6628 361.854 10.0703C361.854 9.34245 362.123 8.78385 362.661 8.39453C363.202 8.00521 363.983 7.80843 365.003 7.8042H365.847V7.41064C365.847 7.09326 365.765 6.83936 365.6 6.64893C365.439 6.4585 365.183 6.36328 364.832 6.36328C364.523 6.36328 364.279 6.43734 364.102 6.58545C363.928 6.73356 363.841 6.93669 363.841 7.19482H362.007C362.007 6.79704 362.13 6.42887 362.375 6.09033C362.62 5.75179 362.967 5.4873 363.416 5.29688C363.865 5.10221 364.368 5.00488 364.927 5.00488C365.773 5.00488 366.444 5.21859 366.939 5.646C367.438 6.06917 367.688 6.66585 367.688 7.43604V10.4131C367.692 11.0648 367.783 11.5578 367.961 11.8921V12H366.107ZM364.59 10.7241C364.861 10.7241 365.111 10.6649 365.339 10.5464C365.568 10.4237 365.737 10.2607 365.847 10.0576V8.87695H365.162C364.243 8.87695 363.755 9.19434 363.695 9.8291L363.689 9.93701C363.689 10.1655 363.769 10.3538 363.93 10.502C364.091 10.6501 364.311 10.7241 364.59 10.7241ZM365.289 2.25H367.288L365.53 4.21777H364.038L365.289 2.25ZM372.817 10.1021C372.817 9.87777 372.705 9.70215 372.48 9.5752C372.26 9.44401 371.905 9.32764 371.414 9.22607C369.781 8.8833 368.964 8.18929 368.964 7.14404C368.964 6.53467 369.216 6.02686 369.719 5.62061C370.227 5.21012 370.889 5.00488 371.706 5.00488C372.578 5.00488 373.274 5.21012 373.794 5.62061C374.319 6.03109 374.582 6.56429 374.582 7.22021H372.747C372.747 6.95785 372.662 6.74202 372.493 6.57275C372.324 6.39925 372.059 6.3125 371.7 6.3125C371.391 6.3125 371.152 6.38232 370.982 6.52197C370.813 6.66162 370.729 6.83936 370.729 7.05518C370.729 7.2583 370.824 7.42334 371.014 7.55029C371.209 7.67301 371.535 7.78092 371.992 7.87402C372.449 7.96289 372.834 8.06445 373.147 8.17871C374.116 8.53418 374.601 9.1499 374.601 10.0259C374.601 10.6522 374.332 11.16 373.794 11.5493C373.257 11.9344 372.563 12.127 371.712 12.127C371.137 12.127 370.625 12.0254 370.176 11.8223C369.732 11.6149 369.383 11.3335 369.129 10.978C368.875 10.6183 368.748 10.2311 368.748 9.81641H370.487C370.504 10.1423 370.625 10.3919 370.849 10.5654C371.073 10.7389 371.374 10.8257 371.75 10.8257C372.102 10.8257 372.366 10.7601 372.544 10.6289C372.726 10.4935 372.817 10.3179 372.817 10.1021Z" fill="#00DDA3"/>
<path d="M326.917 13.2695H375.077V13.9043H326.917V13.2695Z" fill="#00DDA3"/>
<path d="M4.37695 86H3.28711V78.7754L1.10156 79.5781V78.5938L4.20703 77.4277H4.37695V86ZM7.6875 85.4316C7.6875 85.2441 7.74219 85.0879 7.85156 84.9629C7.96484 84.8379 8.13281 84.7754 8.35547 84.7754C8.57812 84.7754 8.74609 84.8379 8.85938 84.9629C8.97656 85.0879 9.03516 85.2441 9.03516 85.4316C9.03516 85.6113 8.97656 85.7617 8.85938 85.8828C8.74609 86.0039 8.57812 86.0645 8.35547 86.0645C8.13281 86.0645 7.96484 86.0039 7.85156 85.8828C7.74219 85.7617 7.6875 85.6113 7.6875 85.4316ZM16.0664 82.3613C16.0664 83.6309 15.8496 84.5742 15.416 85.1914C14.9824 85.8086 14.3047 86.1172 13.3828 86.1172C12.4727 86.1172 11.7988 85.8164 11.3613 85.2148C10.9238 84.6094 10.6973 83.707 10.6816 82.5078V81.0605C10.6816 79.8066 10.8984 78.875 11.332 78.2656C11.7656 77.6562 12.4453 77.3516 13.3711 77.3516C14.2891 77.3516 14.9648 77.6465 15.3984 78.2363C15.832 78.8223 16.0547 79.7285 16.0664 80.9551V82.3613ZM14.9824 80.8789C14.9824 79.9609 14.8535 79.293 14.5957 78.875C14.3379 78.4531 13.9297 78.2422 13.3711 78.2422C12.8164 78.2422 12.4121 78.4512 12.1582 78.8691C11.9043 79.2871 11.7734 79.9297 11.7656 80.7969V82.5312C11.7656 83.4531 11.8984 84.1348 12.1641 84.5762C12.4336 85.0137 12.8398 85.2324 13.3828 85.2324C13.918 85.2324 14.3145 85.0254 14.5723 84.6113C14.834 84.1973 14.9707 83.5449 14.9824 82.6543V80.8789ZM22.8047 82.3613C22.8047 83.6309 22.5879 84.5742 22.1543 85.1914C21.7207 85.8086 21.043 86.1172 20.1211 86.1172C19.2109 86.1172 18.5371 85.8164 18.0996 85.2148C17.6621 84.6094 17.4355 83.707 17.4199 82.5078V81.0605C17.4199 79.8066 17.6367 78.875 18.0703 78.2656C18.5039 77.6562 19.1836 77.3516 20.1094 77.3516C21.0273 77.3516 21.7031 77.6465 22.1367 78.2363C22.5703 78.8223 22.793 79.7285 22.8047 80.9551V82.3613ZM21.7207 80.8789C21.7207 79.9609 21.5918 79.293 21.334 78.875C21.0762 78.4531 20.668 78.2422 20.1094 78.2422C19.5547 78.2422 19.1504 78.4512 18.8965 78.8691C18.6426 79.2871 18.5117 79.9297 18.5039 80.7969V82.5312C18.5039 83.4531 18.6367 84.1348 18.9023 84.5762C19.1719 85.0137 19.5781 85.2324 20.1211 85.2324C20.6562 85.2324 21.0527 85.0254 21.3105 84.6113C21.5723 84.1973 21.709 83.5449 21.7207 82.6543V80.8789ZM29.543 82.3613C29.543 83.6309 29.3262 84.5742 28.8926 85.1914C28.459 85.8086 27.7812 86.1172 26.8594 86.1172C25.9492 86.1172 25.2754 85.8164 24.8379 85.2148C24.4004 84.6094 24.1738 83.707 24.1582 82.5078V81.0605C24.1582 79.8066 24.375 78.875 24.8086 78.2656C25.2422 77.6562 25.9219 77.3516 26.8477 77.3516C27.7656 77.3516 28.4414 77.6465 28.875 78.2363C29.3086 78.8223 29.5312 79.7285 29.543 80.9551V82.3613ZM28.459 80.8789C28.459 79.9609 28.3301 79.293 28.0723 78.875C27.8145 78.4531 27.4062 78.2422 26.8477 78.2422C26.293 78.2422 25.8887 78.4512 25.6348 78.8691C25.3809 79.2871 25.25 79.9297 25.2422 80.7969V82.5312C25.2422 83.4531 25.375 84.1348 25.6406 84.5762C25.9102 85.0137 26.3164 85.2324 26.8594 85.2324C27.3945 85.2324 27.791 85.0254 28.0488 84.6113C28.3105 84.1973 28.4473 83.5449 28.459 82.6543V80.8789ZM35.3203 85.0801H39.3633V86H34.1895V77.4688H35.3203V85.0801ZM44.1328 85.373C43.7109 85.8691 43.0918 86.1172 42.2754 86.1172C41.5996 86.1172 41.084 85.9219 40.7285 85.5312C40.377 85.1367 40.1992 84.5547 40.1953 83.7852V79.6602H41.2793V83.7559C41.2793 84.7168 41.6699 85.1973 42.4512 85.1973C43.2793 85.1973 43.8301 84.8887 44.1035 84.2715V79.6602H45.1875V86H44.1562L44.1328 85.373ZM47.8594 85.1152H51.5684V86H46.5352V85.2031L50.0332 80.5566H46.5879V79.6602H51.3926V80.4277L47.8594 85.1152ZM52.4121 82.7715C52.4121 82.1504 52.5332 81.5918 52.7754 81.0957C53.0215 80.5996 53.3613 80.2168 53.7949 79.9473C54.2324 79.6777 54.7305 79.543 55.2891 79.543C56.1523 79.543 56.8496 79.8418 57.3809 80.4395C57.916 81.0371 58.1836 81.832 58.1836 82.8242V82.9004C58.1836 83.5176 58.0645 84.0723 57.8262 84.5645C57.5918 85.0527 57.2539 85.4336 56.8125 85.707C56.375 85.9805 55.8711 86.1172 55.3008 86.1172C54.4414 86.1172 53.7441 85.8184 53.209 85.2207C52.6777 84.623 52.4121 83.832 52.4121 82.8477V82.7715ZM53.502 82.9004C53.502 83.6035 53.6641 84.168 53.9883 84.5938C54.3164 85.0195 54.7539 85.2324 55.3008 85.2324C55.8516 85.2324 56.2891 85.0176 56.6133 84.5879C56.9375 84.1543 57.0996 83.5488 57.0996 82.7715C57.0996 82.0762 56.9336 81.5137 56.6016 81.084C56.2734 80.6504 55.8359 80.4336 55.2891 80.4336C54.7539 80.4336 54.3223 80.6465 53.9941 81.0723C53.666 81.498 53.502 82.1074 53.502 82.9004ZM60.5684 79.6602L60.6035 80.457C61.0879 79.8477 61.7207 79.543 62.502 79.543C63.8418 79.543 64.5176 80.2988 64.5293 81.8105V86H63.4453V81.8047C63.4414 81.3477 63.3359 81.0098 63.1289 80.791C62.9258 80.5723 62.6074 80.4629 62.1738 80.4629C61.8223 80.4629 61.5137 80.5566 61.248 80.7441C60.9824 80.9316 60.7754 81.1777 60.627 81.4824V86H59.543V79.6602H60.5684ZM68.7949 86.1172C67.9355 86.1172 67.2363 85.8359 66.6973 85.2734C66.1582 84.707 65.8887 83.9512 65.8887 83.0059V82.8066C65.8887 82.1777 66.0078 81.6172 66.2461 81.125C66.4883 80.6289 66.8242 80.2422 67.2539 79.9648C67.6875 79.6836 68.1562 79.543 68.6602 79.543C69.4844 79.543 70.125 79.8145 70.582 80.3574C71.0391 80.9004 71.2676 81.6777 71.2676 82.6895V83.1406H66.9727C66.9883 83.7656 67.1699 84.2715 67.5176 84.6582C67.8691 85.041 68.3145 85.2324 68.8535 85.2324C69.2363 85.2324 69.5605 85.1543 69.8262 84.998C70.0918 84.8418 70.3242 84.6348 70.5234 84.377L71.1855 84.8926C70.6543 85.709 69.8574 86.1172 68.7949 86.1172ZM68.6602 80.4336C68.2227 80.4336 67.8555 80.5938 67.5586 80.9141C67.2617 81.2305 67.0781 81.6758 67.0078 82.25H70.1836V82.168C70.1523 81.6172 70.0039 81.1914 69.7383 80.8906C69.4727 80.5859 69.1133 80.4336 68.6602 80.4336ZM76.2188 84.3184C76.2188 84.0254 76.1074 83.7988 75.8848 83.6387C75.666 83.4746 75.2812 83.334 74.7305 83.2168C74.1836 83.0996 73.748 82.959 73.4238 82.7949C73.1035 82.6309 72.8652 82.4355 72.709 82.209C72.5566 81.9824 72.4805 81.7129 72.4805 81.4004C72.4805 80.8809 72.6992 80.4414 73.1367 80.082C73.5781 79.7227 74.1406 79.543 74.8242 79.543C75.543 79.543 76.125 79.7285 76.5703 80.0996C77.0195 80.4707 77.2441 80.9453 77.2441 81.5234H76.1543C76.1543 81.2266 76.0273 80.9707 75.7734 80.7559C75.5234 80.541 75.207 80.4336 74.8242 80.4336C74.4297 80.4336 74.1211 80.5195 73.8984 80.6914C73.6758 80.8633 73.5645 81.0879 73.5645 81.3652C73.5645 81.627 73.668 81.8242 73.875 81.957C74.082 82.0898 74.4551 82.2168 74.9941 82.3379C75.5371 82.459 75.9766 82.6035 76.3125 82.7715C76.6484 82.9395 76.8965 83.1426 77.0566 83.3809C77.2207 83.6152 77.3027 83.9023 77.3027 84.2422C77.3027 84.8086 77.0762 85.2637 76.623 85.6074C76.1699 85.9473 75.582 86.1172 74.8594 86.1172C74.3516 86.1172 73.9023 86.0273 73.5117 85.8477C73.1211 85.668 72.8145 85.418 72.5918 85.0977C72.373 84.7734 72.2637 84.4238 72.2637 84.0488H73.3477C73.3672 84.4121 73.5117 84.7012 73.7812 84.916C74.0547 85.127 74.4141 85.2324 74.8594 85.2324C75.2695 85.2324 75.5977 85.1504 75.8438 84.9863C76.0938 84.8184 76.2188 84.5957 76.2188 84.3184Z" fill="white"/>
<rect x="1" y="100" width="77" height="6" rx="3" fill="white"/>
<rect x="1" y="100" width="77" height="6" rx="3" fill="#00DDA3"/>
<path d="M51.537 45.2483H47.9632V43.8326C47.9636 43.2345 47.7295 43 47.1338 43H30.7563C30.1606 43 29.9265 43.2345 29.9265 43.8326V45.2483H26.4636C25.8916 45.2483 25.667 45.4737 25.667 46.0476V46.1139C25.8502 50.7522 28.9041 54.6812 33.5303 56.3425C34.5279 57.8216 35.7481 59.1223 37.2299 60.1901C37.0451 62.9851 36.0621 64.9327 34.508 66.7493C34.3886 66.8884 34.3829 67 34.6214 67H43.2694C43.5075 67 43.5018 66.8888 43.3824 66.7493C41.828 64.9327 40.845 62.9857 40.6602 60.1901C42.1256 59.1347 43.3347 57.8505 44.326 56.3923C49.0325 54.7614 52.1482 50.8 52.3337 46.1139V46.0476C52.334 45.4737 52.1091 45.2483 51.537 45.2483ZM27.4239 47.0783C27.41 46.9873 27.4353 46.9135 27.5663 46.9135H30.1079C30.4983 49.3957 31.1468 51.7457 32.1285 53.8524C29.5706 52.3324 27.8535 49.898 27.4239 47.0783ZM50.5765 47.0783C50.1383 49.9529 48.3622 52.4265 45.7218 53.9399C46.7263 51.8113 47.3868 49.4302 47.7819 46.9138H50.434C50.5654 46.9138 50.5907 46.9876 50.5765 47.0783Z" fill="white"/>
<path d="M122.781 81.207H123.596C124.107 81.1992 124.51 81.0645 124.803 80.8027C125.096 80.541 125.242 80.1875 125.242 79.7422C125.242 78.7422 124.744 78.2422 123.748 78.2422C123.279 78.2422 122.904 78.377 122.623 78.6465C122.346 78.9121 122.207 79.2656 122.207 79.707H121.123C121.123 79.0312 121.369 78.4707 121.861 78.0254C122.357 77.5762 122.986 77.3516 123.748 77.3516C124.553 77.3516 125.184 77.5645 125.641 77.9902C126.098 78.416 126.326 79.0078 126.326 79.7656C126.326 80.1367 126.205 80.4961 125.963 80.8438C125.725 81.1914 125.398 81.4512 124.984 81.623C125.453 81.7715 125.814 82.0176 126.068 82.3613C126.326 82.7051 126.455 83.125 126.455 83.6211C126.455 84.3867 126.205 84.9941 125.705 85.4434C125.205 85.8926 124.555 86.1172 123.754 86.1172C122.953 86.1172 122.301 85.9004 121.797 85.4668C121.297 85.0332 121.047 84.4609 121.047 83.75H122.137C122.137 84.1992 122.283 84.5586 122.576 84.8281C122.869 85.0977 123.262 85.2324 123.754 85.2324C124.277 85.2324 124.678 85.0957 124.955 84.8223C125.232 84.5488 125.371 84.1562 125.371 83.6445C125.371 83.1484 125.219 82.7676 124.914 82.502C124.609 82.2363 124.17 82.0996 123.596 82.0918H122.781V81.207ZM133.293 82.3613C133.293 83.6309 133.076 84.5742 132.643 85.1914C132.209 85.8086 131.531 86.1172 130.609 86.1172C129.699 86.1172 129.025 85.8164 128.588 85.2148C128.15 84.6094 127.924 83.707 127.908 82.5078V81.0605C127.908 79.8066 128.125 78.875 128.559 78.2656C128.992 77.6562 129.672 77.3516 130.598 77.3516C131.516 77.3516 132.191 77.6465 132.625 78.2363C133.059 78.8223 133.281 79.7285 133.293 80.9551V82.3613ZM132.209 80.8789C132.209 79.9609 132.08 79.293 131.822 78.875C131.564 78.4531 131.156 78.2422 130.598 78.2422C130.043 78.2422 129.639 78.4512 129.385 78.8691C129.131 79.2871 129 79.9297 128.992 80.7969V82.5312C128.992 83.4531 129.125 84.1348 129.391 84.5762C129.66 85.0137 130.066 85.2324 130.609 85.2324C131.145 85.2324 131.541 85.0254 131.799 84.6113C132.061 84.1973 132.197 83.5449 132.209 82.6543V80.8789ZM137.939 86V77.4688H140.348C141.09 77.4688 141.746 77.6328 142.316 77.9609C142.887 78.2891 143.326 78.7559 143.635 79.3613C143.947 79.9668 144.105 80.6621 144.109 81.4473V81.9922C144.109 82.7969 143.953 83.502 143.641 84.1074C143.332 84.7129 142.889 85.1777 142.311 85.502C141.736 85.8262 141.066 85.9922 140.301 86H137.939ZM139.064 78.3945V85.0801H140.248C141.115 85.0801 141.789 84.8105 142.27 84.2715C142.754 83.7324 142.996 82.9648 142.996 81.9688V81.4707C142.996 80.502 142.768 79.75 142.311 79.2148C141.857 78.6758 141.213 78.4023 140.377 78.3945H139.064ZM146.822 86H145.732V79.6602H146.822V86ZM146.834 77.0059H148.146L146.576 78.7285H145.703L146.834 77.0059ZM152.523 86C152.461 85.875 152.41 85.6523 152.371 85.332C151.867 85.8555 151.266 86.1172 150.566 86.1172C149.941 86.1172 149.428 85.9414 149.025 85.5898C148.627 85.2344 148.428 84.7852 148.428 84.2422C148.428 83.582 148.678 83.0703 149.178 82.707C149.682 82.3398 150.389 82.1562 151.299 82.1562H152.354V81.6582C152.354 81.2793 152.24 80.9785 152.014 80.7559C151.787 80.5293 151.453 80.416 151.012 80.416C150.625 80.416 150.301 80.5137 150.039 80.709C149.777 80.9043 149.646 81.1406 149.646 81.418H148.557C148.557 81.1016 148.668 80.7969 148.891 80.5039C149.117 80.207 149.422 79.9727 149.805 79.8008C150.191 79.6289 150.615 79.543 151.076 79.543C151.807 79.543 152.379 79.7266 152.793 80.0938C153.207 80.457 153.422 80.959 153.438 81.5996V84.5176C153.438 85.0996 153.512 85.5625 153.66 85.9062V86H152.523ZM150.725 85.1738C151.064 85.1738 151.387 85.0859 151.691 84.9102C151.996 84.7344 152.217 84.5059 152.354 84.2246V82.9238H151.504C150.176 82.9238 149.512 83.3125 149.512 84.0898C149.512 84.4297 149.625 84.6953 149.852 84.8867C150.078 85.0781 150.369 85.1738 150.725 85.1738ZM158.828 84.3184C158.828 84.0254 158.717 83.7988 158.494 83.6387C158.275 83.4746 157.891 83.334 157.34 83.2168C156.793 83.0996 156.357 82.959 156.033 82.7949C155.713 82.6309 155.475 82.4355 155.318 82.209C155.166 81.9824 155.09 81.7129 155.09 81.4004C155.09 80.8809 155.309 80.4414 155.746 80.082C156.188 79.7227 156.75 79.543 157.434 79.543C158.152 79.543 158.734 79.7285 159.18 80.0996C159.629 80.4707 159.854 80.9453 159.854 81.5234H158.764C158.764 81.2266 158.637 80.9707 158.383 80.7559C158.133 80.541 157.816 80.4336 157.434 80.4336C157.039 80.4336 156.73 80.5195 156.508 80.6914C156.285 80.8633 156.174 81.0879 156.174 81.3652C156.174 81.627 156.277 81.8242 156.484 81.957C156.691 82.0898 157.064 82.2168 157.604 82.3379C158.146 82.459 158.586 82.6035 158.922 82.7715C159.258 82.9395 159.506 83.1426 159.666 83.3809C159.83 83.6152 159.912 83.9023 159.912 84.2422C159.912 84.8086 159.686 85.2637 159.232 85.6074C158.779 85.9473 158.191 86.1172 157.469 86.1172C156.961 86.1172 156.512 86.0273 156.121 85.8477C155.73 85.668 155.424 85.418 155.201 85.0977C154.982 84.7734 154.873 84.4238 154.873 84.0488H155.957C155.977 84.4121 156.121 84.7012 156.391 84.916C156.664 85.127 157.023 85.2324 157.469 85.2324C157.879 85.2324 158.207 85.1504 158.453 84.9863C158.703 84.8184 158.828 84.5957 158.828 84.3184Z" fill="white"/>
<rect x="102" y="100" width="77" height="6" rx="3" fill="white"/>
<rect x="102" y="100" width="77" height="6" rx="3" fill="#00DDA3"/>
<path d="M152.537 45.2483H148.963V43.8326C148.964 43.2345 148.729 43 148.134 43H131.756C131.161 43 130.927 43.2345 130.927 43.8326V45.2483H127.464C126.892 45.2483 126.667 45.4737 126.667 46.0476V46.1139C126.85 50.7522 129.904 54.6812 134.53 56.3425C135.528 57.8216 136.748 59.1223 138.23 60.1901C138.045 62.9851 137.062 64.9327 135.508 66.7493C135.389 66.8884 135.383 67 135.621 67H144.269C144.508 67 144.502 66.8888 144.382 66.7493C142.828 64.9327 141.845 62.9857 141.66 60.1901C143.126 59.1347 144.335 57.8505 145.326 56.3923C150.032 54.7614 153.148 50.8 153.334 46.1139V46.0476C153.334 45.4737 153.109 45.2483 152.537 45.2483ZM128.424 47.0783C128.41 46.9873 128.435 46.9135 128.566 46.9135H131.108C131.498 49.3957 132.147 51.7457 133.128 53.8524C130.571 52.3324 128.853 49.898 128.424 47.0783ZM151.576 47.0783C151.138 49.9529 149.362 52.4265 146.722 53.9399C147.726 51.8113 148.387 49.4302 148.782 46.9138H151.434C151.565 46.9138 151.591 46.9876 151.576 47.0783Z" fill="white"/>
<path d="M216.678 81.207H217.492C218.004 81.1992 218.406 81.0645 218.699 80.8027C218.992 80.541 219.139 80.1875 219.139 79.7422C219.139 78.7422 218.641 78.2422 217.645 78.2422C217.176 78.2422 216.801 78.377 216.52 78.6465C216.242 78.9121 216.104 79.2656 216.104 79.707H215.02C215.02 79.0312 215.266 78.4707 215.758 78.0254C216.254 77.5762 216.883 77.3516 217.645 77.3516C218.449 77.3516 219.08 77.5645 219.537 77.9902C219.994 78.416 220.223 79.0078 220.223 79.7656C220.223 80.1367 220.102 80.4961 219.859 80.8438C219.621 81.1914 219.295 81.4512 218.881 81.623C219.35 81.7715 219.711 82.0176 219.965 82.3613C220.223 82.7051 220.352 83.125 220.352 83.6211C220.352 84.3867 220.102 84.9941 219.602 85.4434C219.102 85.8926 218.451 86.1172 217.65 86.1172C216.85 86.1172 216.197 85.9004 215.693 85.4668C215.193 85.0332 214.943 84.4609 214.943 83.75H216.033C216.033 84.1992 216.18 84.5586 216.473 84.8281C216.766 85.0977 217.158 85.2324 217.65 85.2324C218.174 85.2324 218.574 85.0957 218.852 84.8223C219.129 84.5488 219.268 84.1562 219.268 83.6445C219.268 83.1484 219.115 82.7676 218.811 82.502C218.506 82.2363 218.066 82.0996 217.492 82.0918H216.678V81.207ZM227.189 82.3613C227.189 83.6309 226.973 84.5742 226.539 85.1914C226.105 85.8086 225.428 86.1172 224.506 86.1172C223.596 86.1172 222.922 85.8164 222.484 85.2148C222.047 84.6094 221.82 83.707 221.805 82.5078V81.0605C221.805 79.8066 222.021 78.875 222.455 78.2656C222.889 77.6562 223.568 77.3516 224.494 77.3516C225.412 77.3516 226.088 77.6465 226.521 78.2363C226.955 78.8223 227.178 79.7285 227.189 80.9551V82.3613ZM226.105 80.8789C226.105 79.9609 225.977 79.293 225.719 78.875C225.461 78.4531 225.053 78.2422 224.494 78.2422C223.939 78.2422 223.535 78.4512 223.281 78.8691C223.027 79.2871 222.896 79.9297 222.889 80.7969V82.5312C222.889 83.4531 223.021 84.1348 223.287 84.5762C223.557 85.0137 223.963 85.2324 224.506 85.2324C225.041 85.2324 225.438 85.0254 225.695 84.6113C225.957 84.1973 226.094 83.5449 226.105 82.6543V80.8789ZM234.35 82.1973C233.385 81.9199 232.682 81.5801 232.24 81.1777C231.803 80.7715 231.584 80.2715 231.584 79.6777C231.584 79.0059 231.852 78.4512 232.387 78.0137C232.926 77.5723 233.625 77.3516 234.484 77.3516C235.07 77.3516 235.592 77.4648 236.049 77.6914C236.51 77.918 236.865 78.2305 237.115 78.6289C237.369 79.0273 237.496 79.4629 237.496 79.9355H236.365C236.365 79.4199 236.201 79.0156 235.873 78.7227C235.545 78.4258 235.082 78.2773 234.484 78.2773C233.93 78.2773 233.496 78.4004 233.184 78.6465C232.875 78.8887 232.721 79.2266 232.721 79.6602C232.721 80.0078 232.867 80.3027 233.16 80.5449C233.457 80.7832 233.959 81.002 234.666 81.2012C235.377 81.4004 235.932 81.6211 236.33 81.8633C236.732 82.1016 237.029 82.3809 237.221 82.7012C237.416 83.0215 237.514 83.3984 237.514 83.832C237.514 84.5234 237.244 85.0781 236.705 85.4961C236.166 85.9102 235.445 86.1172 234.543 86.1172C233.957 86.1172 233.41 86.0059 232.902 85.7832C232.395 85.5566 232.002 85.248 231.725 84.8574C231.451 84.4668 231.314 84.0234 231.314 83.5273H232.445C232.445 84.043 232.635 84.4512 233.014 84.752C233.396 85.0488 233.906 85.1973 234.543 85.1973C235.137 85.1973 235.592 85.0762 235.908 84.834C236.225 84.5918 236.383 84.2617 236.383 83.8438C236.383 83.4258 236.236 83.1035 235.943 82.877C235.65 82.6465 235.119 82.4199 234.35 82.1973ZM239.875 80.4277C240.355 79.8379 240.98 79.543 241.75 79.543C243.09 79.543 243.766 80.2988 243.777 81.8105V86H242.693V81.8047C242.689 81.3477 242.584 81.0098 242.377 80.791C242.174 80.5723 241.855 80.4629 241.422 80.4629C241.07 80.4629 240.762 80.5566 240.496 80.7441C240.23 80.9316 240.023 81.1777 239.875 81.4824V86H238.791V77H239.875V80.4277ZM249.314 86C249.252 85.875 249.201 85.6523 249.162 85.332C248.658 85.8555 248.057 86.1172 247.357 86.1172C246.732 86.1172 246.219 85.9414 245.816 85.5898C245.418 85.2344 245.219 84.7852 245.219 84.2422C245.219 83.582 245.469 83.0703 245.969 82.707C246.473 82.3398 247.18 82.1562 248.09 82.1562H249.145V81.6582C249.145 81.2793 249.031 80.9785 248.805 80.7559C248.578 80.5293 248.244 80.416 247.803 80.416C247.416 80.416 247.092 80.5137 246.83 80.709C246.568 80.9043 246.438 81.1406 246.438 81.418H245.348C245.348 81.1016 245.459 80.7969 245.682 80.5039C245.908 80.207 246.213 79.9727 246.596 79.8008C246.982 79.6289 247.406 79.543 247.867 79.543C248.598 79.543 249.17 79.7266 249.584 80.0938C249.998 80.457 250.213 80.959 250.229 81.5996V84.5176C250.229 85.0996 250.303 85.5625 250.451 85.9062V86H249.314ZM247.516 85.1738C247.855 85.1738 248.178 85.0859 248.482 84.9102C248.787 84.7344 249.008 84.5059 249.145 84.2246V82.9238H248.295C246.967 82.9238 246.303 83.3125 246.303 84.0898C246.303 84.4297 246.416 84.6953 246.643 84.8867C246.869 85.0781 247.16 85.1738 247.516 85.1738ZM254.992 80.6328C254.828 80.6055 254.65 80.5918 254.459 80.5918C253.748 80.5918 253.266 80.8945 253.012 81.5V86H251.928V79.6602H252.982L253 80.3926C253.355 79.8262 253.859 79.543 254.512 79.543C254.723 79.543 254.883 79.5703 254.992 79.625V80.6328ZM258.508 86.1172C257.648 86.1172 256.949 85.8359 256.41 85.2734C255.871 84.707 255.602 83.9512 255.602 83.0059V82.8066C255.602 82.1777 255.721 81.6172 255.959 81.125C256.201 80.6289 256.537 80.2422 256.967 79.9648C257.4 79.6836 257.869 79.543 258.373 79.543C259.197 79.543 259.838 79.8145 260.295 80.3574C260.752 80.9004 260.98 81.6777 260.98 82.6895V83.1406H256.686C256.701 83.7656 256.883 84.2715 257.23 84.6582C257.582 85.041 258.027 85.2324 258.566 85.2324C258.949 85.2324 259.273 85.1543 259.539 84.998C259.805 84.8418 260.037 84.6348 260.236 84.377L260.898 84.8926C260.367 85.709 259.57 86.1172 258.508 86.1172ZM258.373 80.4336C257.936 80.4336 257.568 80.5938 257.271 80.9141C256.975 81.2305 256.791 81.6758 256.721 82.25H259.896V82.168C259.865 81.6172 259.717 81.1914 259.451 80.8906C259.186 80.5859 258.826 80.4336 258.373 80.4336ZM265.932 84.3184C265.932 84.0254 265.82 83.7988 265.598 83.6387C265.379 83.4746 264.994 83.334 264.443 83.2168C263.896 83.0996 263.461 82.959 263.137 82.7949C262.816 82.6309 262.578 82.4355 262.422 82.209C262.27 81.9824 262.193 81.7129 262.193 81.4004C262.193 80.8809 262.412 80.4414 262.85 80.082C263.291 79.7227 263.854 79.543 264.537 79.543C265.256 79.543 265.838 79.7285 266.283 80.0996C266.732 80.4707 266.957 80.9453 266.957 81.5234H265.867C265.867 81.2266 265.74 80.9707 265.486 80.7559C265.236 80.541 264.92 80.4336 264.537 80.4336C264.143 80.4336 263.834 80.5195 263.611 80.6914C263.389 80.8633 263.277 81.0879 263.277 81.3652C263.277 81.627 263.381 81.8242 263.588 81.957C263.795 82.0898 264.168 82.2168 264.707 82.3379C265.25 82.459 265.689 82.6035 266.025 82.7715C266.361 82.9395 266.609 83.1426 266.77 83.3809C266.934 83.6152 267.016 83.9023 267.016 84.2422C267.016 84.8086 266.789 85.2637 266.336 85.6074C265.883 85.9473 265.295 86.1172 264.572 86.1172C264.064 86.1172 263.615 86.0273 263.225 85.8477C262.834 85.668 262.527 85.418 262.305 85.0977C262.086 84.7734 261.977 84.4238 261.977 84.0488H263.061C263.08 84.4121 263.225 84.7012 263.494 84.916C263.768 85.127 264.127 85.2324 264.572 85.2324C264.982 85.2324 265.311 85.1504 265.557 84.9863C265.807 84.8184 265.932 84.5957 265.932 84.3184Z" fill="white"/>
<rect x="203" y="100" width="77" height="6" rx="3" fill="white"/>
<rect x="203" y="100" width="77" height="6" rx="3" fill="#00DDA3"/>
<path d="M253.537 45.2483H249.963V43.8326C249.964 43.2345 249.729 43 249.134 43H232.756C232.161 43 231.927 43.2345 231.927 43.8326V45.2483H228.464C227.892 45.2483 227.667 45.4737 227.667 46.0476V46.1139C227.85 50.7522 230.904 54.6812 235.53 56.3425C236.528 57.8216 237.748 59.1223 239.23 60.1901C239.045 62.9851 238.062 64.9327 236.508 66.7493C236.389 66.8884 236.383 67 236.621 67H245.269C245.508 67 245.502 66.8888 245.382 66.7493C243.828 64.9327 242.845 62.9857 242.66 60.1901C244.126 59.1347 245.335 57.8505 246.326 56.3923C251.032 54.7614 254.148 50.8 254.334 46.1139V46.0476C254.334 45.4737 254.109 45.2483 253.537 45.2483ZM229.424 47.0783C229.41 46.9873 229.435 46.9135 229.566 46.9135H232.108C232.498 49.3957 233.147 51.7457 234.128 53.8524C231.571 52.3324 229.853 49.898 229.424 47.0783ZM252.576 47.0783C252.138 49.9529 250.362 52.4265 247.722 53.9399C248.726 51.8113 249.387 49.4302 249.782 46.9138H252.434C252.565 46.9138 252.591 46.9876 252.576 47.0783Z" fill="white"/>
<path d="M330.768 86H329.678V78.7754L327.492 79.5781V78.5938L330.598 77.4277H330.768V86ZM341.912 83.7734H338.338L337.535 86H336.375L339.633 77.4688H340.617L343.881 86H342.727L341.912 83.7734ZM338.678 82.8477H341.578L340.125 78.8574L338.678 82.8477ZM345.885 79.6602L345.92 80.457C346.404 79.8477 347.037 79.543 347.818 79.543C349.158 79.543 349.834 80.2988 349.846 81.8105V86H348.762V81.8047C348.758 81.3477 348.652 81.0098 348.445 80.791C348.242 80.5723 347.924 80.4629 347.49 80.4629C347.139 80.4629 346.83 80.5566 346.564 80.7441C346.299 80.9316 346.092 81.1777 345.943 81.4824V86H344.859V79.6602H345.885ZM349.471 77.1875C349.471 77.6094 349.35 77.9512 349.107 78.2129C348.869 78.4746 348.57 78.6055 348.211 78.6055C348.051 78.6055 347.912 78.5859 347.795 78.5469C347.678 78.5078 347.523 78.4277 347.332 78.3066C347.145 78.1855 347.008 78.1133 346.922 78.0898C346.84 78.0625 346.744 78.0488 346.635 78.0488C346.475 78.0488 346.338 78.1113 346.225 78.2363C346.111 78.3574 346.055 78.5137 346.055 78.7051L345.328 78.6641C345.328 78.2461 345.445 77.9004 345.68 77.627C345.918 77.3535 346.219 77.2168 346.582 77.2168C346.719 77.2168 346.842 77.2363 346.951 77.2754C347.061 77.3145 347.209 77.3906 347.396 77.5039C347.584 77.6172 347.727 77.6914 347.824 77.7266C347.926 77.7617 348.037 77.7793 348.158 77.7793C348.326 77.7793 348.465 77.7129 348.574 77.5801C348.688 77.4473 348.744 77.293 348.744 77.1172L349.471 77.1875ZM351.193 82.7715C351.193 82.1504 351.314 81.5918 351.557 81.0957C351.803 80.5996 352.143 80.2168 352.576 79.9473C353.014 79.6777 353.512 79.543 354.07 79.543C354.934 79.543 355.631 79.8418 356.162 80.4395C356.697 81.0371 356.965 81.832 356.965 82.8242V82.9004C356.965 83.5176 356.846 84.0723 356.607 84.5645C356.373 85.0527 356.035 85.4336 355.594 85.707C355.156 85.9805 354.652 86.1172 354.082 86.1172C353.223 86.1172 352.525 85.8184 351.99 85.2207C351.459 84.623 351.193 83.832 351.193 82.8477V82.7715ZM352.283 82.9004C352.283 83.6035 352.445 84.168 352.77 84.5938C353.098 85.0195 353.535 85.2324 354.082 85.2324C354.633 85.2324 355.07 85.0176 355.395 84.5879C355.719 84.1543 355.881 83.5488 355.881 82.7715C355.881 82.0762 355.715 81.5137 355.383 81.084C355.055 80.6504 354.617 80.4336 354.07 80.4336C353.535 80.4336 353.104 80.6465 352.775 81.0723C352.447 81.498 352.283 82.1074 352.283 82.9004Z" fill="white"/>
<rect x="304" y="100" width="77" height="6" rx="3" fill="white"/>
<rect x="304" y="100" width="77" height="6" rx="3" fill="#00DDA3"/>
<path d="M354.537 45.2483H350.963V43.8326C350.964 43.2345 350.729 43 350.134 43H333.756C333.161 43 332.927 43.2345 332.927 43.8326V45.2483H329.464C328.892 45.2483 328.667 45.4737 328.667 46.0476V46.1139C328.85 50.7522 331.904 54.6812 336.53 56.3425C337.528 57.8216 338.748 59.1223 340.23 60.1901C340.045 62.9851 339.062 64.9327 337.508 66.7493C337.389 66.8884 337.383 67 337.621 67H346.269C346.508 67 346.502 66.8888 346.382 66.7493C344.828 64.9327 343.845 62.9857 343.66 60.1901C345.126 59.1347 346.335 57.8505 347.326 56.3923C352.032 54.7614 355.148 50.8 355.334 46.1139V46.0476C355.334 45.4737 355.109 45.2483 354.537 45.2483ZM330.424 47.0783C330.41 46.9873 330.435 46.9135 330.566 46.9135H333.108C333.498 49.3957 334.147 51.7457 335.128 53.8524C332.571 52.3324 330.853 49.898 330.424 47.0783ZM353.576 47.0783C353.138 49.9529 351.362 52.4265 348.722 53.9399C349.726 51.8113 350.387 49.4302 350.782 46.9138H353.434C353.565 46.9138 353.591 46.9876 353.576 47.0783Z" fill="white"/>
</svg>
