<svg width="149" height="149" viewBox="0 0 149 149" fill="none" xmlns="http://www.w3.org/2000/svg">
<circle cx="74.25" cy="74.25" r="74.25" fill="#1F3044"/>
<g clip-path="url(#clip0)" filter="url(#filter0_i)">
<path d="M53.5847 51.6656C53.1139 51.1902 53.1139 50.4772 53.467 50.0018C53.9378 49.5265 54.7617 49.4077 55.2325 49.883C59.1167 53.6858 62.6477 57.7264 66.061 61.8857C67.0027 57.3698 66.7673 52.4975 63.707 48.8135C59.7052 44.1788 52.1723 42.9904 46.5226 42.7527C45.8164 49.6453 46.1695 55.1119 48.7589 58.7959C51.3484 62.2422 56.2918 64.1436 64.6486 63.906C61.1176 59.5089 57.5865 55.4684 53.5847 51.6656ZM106.55 33.1268C98.0758 33.4833 86.8942 35.147 81.0091 42.0397C78.1843 45.2483 76.6542 49.6453 76.7719 55.3496C76.8896 57.4887 77.125 59.8654 77.7135 62.3611C82.6569 56.1814 87.9535 50.1207 93.9563 44.2976C94.4271 43.9411 95.1333 43.9411 95.6041 44.4164C96.0749 44.8918 96.0749 45.6048 95.6041 46.0802C89.3659 51.9033 84.0693 58.0829 79.0082 64.5001C91.8376 65.0943 99.2528 62.3611 103.137 57.0133C107.139 51.6656 107.61 43.3469 106.55 33.1268ZM108.669 30.75C109.728 39.4252 110.552 50.9526 105.02 58.4394C100.548 64.619 91.9553 67.7088 77.2427 66.7581C74.0647 70.9174 70.8868 75.1956 67.8266 79.5926C67.4735 80.068 66.6495 80.1868 66.1787 79.8303C65.7079 79.355 65.5902 78.6419 65.9433 78.1666C67.4735 76.0275 69.0036 73.8884 70.5337 71.7493C69.239 69.8479 67.8266 68.0653 66.4141 66.1639C56.1741 66.7581 50.1714 64.619 46.8757 60.222C42.9916 54.7554 43.6978 46.6744 44.404 40.3759C51.5838 40.4948 60.4114 41.4455 65.4725 47.2686C69.5921 52.0221 69.3567 58.5582 67.9443 64.2625C69.3567 66.1639 70.6514 67.9465 72.0638 69.8479C73.2408 68.0653 74.5355 66.4016 75.8302 64.7378C75.0063 61.4103 74.5355 58.2017 74.4178 55.4684C74.3001 49.0511 76.0657 44.1788 79.2436 40.4948C86.188 32.4137 98.782 30.9877 108.669 30.75Z" fill="white"/>
<path d="M40.304 95.111V107.963H48.818V106.523H42.014V95.111H40.304ZM57.7579 107.963V98.657H56.2279V103.913C56.2279 104.333 56.1679 104.723 56.0479 105.083C55.9399 105.431 55.7719 105.737 55.5439 106.001C55.3159 106.265 55.0279 106.469 54.6799 106.613C54.3439 106.757 53.9419 106.829 53.4739 106.829C52.8859 106.829 52.4239 106.661 52.0879 106.325C51.7519 105.989 51.5839 105.533 51.5839 104.957V98.657H50.0539V104.777C50.0539 105.281 50.1019 105.743 50.1979 106.163C50.3059 106.571 50.4859 106.925 50.7379 107.225C50.9899 107.525 51.3199 107.759 51.7279 107.927C52.1359 108.083 52.6459 108.161 53.2579 108.161C53.9419 108.161 54.5359 108.029 55.0399 107.765C55.5439 107.489 55.9579 107.063 56.2819 106.487H56.3179V107.963H57.7579ZM59.2999 106.793V107.963H67.1479V106.613H61.2079L66.8959 99.701V98.657H59.6599V100.007H64.9159L59.2999 106.793ZM69.8203 103.319C69.8203 102.755 69.8923 102.257 70.0363 101.825C70.1923 101.381 70.4023 101.009 70.6663 100.709C70.9303 100.409 71.2363 100.181 71.5843 100.025C71.9443 99.869 72.3223 99.791 72.7183 99.791C73.1143 99.791 73.4863 99.869 73.8343 100.025C74.1943 100.181 74.5063 100.409 74.7703 100.709C75.0343 101.009 75.2383 101.381 75.3823 101.825C75.5383 102.257 75.6163 102.755 75.6163 103.319C75.6163 103.883 75.5383 104.387 75.3823 104.831C75.2383 105.263 75.0343 105.629 74.7703 105.929C74.5063 106.217 74.1943 106.439 73.8343 106.595C73.4863 106.751 73.1143 106.829 72.7183 106.829C72.3223 106.829 71.9443 106.751 71.5843 106.595C71.2363 106.439 70.9303 106.217 70.6663 105.929C70.4023 105.629 70.1923 105.263 70.0363 104.831C69.8923 104.387 69.8203 103.883 69.8203 103.319ZM68.2003 103.319C68.2003 104.003 68.2963 104.639 68.4883 105.227C68.6803 105.815 68.9683 106.331 69.3523 106.775C69.7363 107.207 70.2103 107.549 70.7743 107.801C71.3383 108.041 71.9863 108.161 72.7183 108.161C73.4623 108.161 74.1103 108.041 74.6623 107.801C75.2263 107.549 75.7003 107.207 76.0843 106.775C76.4683 106.331 76.7563 105.815 76.9483 105.227C77.1403 104.639 77.2363 104.003 77.2363 103.319C77.2363 102.635 77.1403 101.999 76.9483 101.411C76.7563 100.811 76.4683 100.295 76.0843 99.863C75.7003 99.419 75.2263 99.071 74.6623 98.819C74.1103 98.567 73.4623 98.441 72.7183 98.441C71.9863 98.441 71.3383 98.567 70.7743 98.819C70.2103 99.071 69.7363 99.419 69.3523 99.863C68.9683 100.295 68.6803 100.811 68.4883 101.411C68.2963 101.999 68.2003 102.635 68.2003 103.319ZM79.0403 98.657V107.963H80.5703V102.707C80.5703 102.287 80.6243 101.903 80.7323 101.555C80.8523 101.195 81.0263 100.883 81.2543 100.619C81.4823 100.355 81.7643 100.151 82.1003 100.007C82.4483 99.863 82.8563 99.791 83.3243 99.791C83.9123 99.791 84.3743 99.959 84.7103 100.295C85.0463 100.631 85.2143 101.087 85.2143 101.663V107.963H86.7443V101.843C86.7443 101.339 86.6903 100.883 86.5823 100.475C86.4863 100.055 86.3123 99.695 86.0603 99.395C85.8083 99.095 85.4783 98.861 85.0703 98.693C84.6623 98.525 84.1523 98.441 83.5403 98.441C82.1603 98.441 81.1523 99.005 80.5163 100.133H80.4803V98.657H79.0403Z" fill="#00DDA3"/>
<path d="M66.4615 63.7327C70.2094 52.4876 66.4615 44.2412 46.4702 41.2425C43.9713 51.2382 44.4711 69.7301 66.4615 63.7327Z" fill="#00DDA3"/>
<path d="M77.7056 64.9825C103.945 66.2319 107.813 59.8484 107.787 32.6093C93.1618 31.5465 67.7106 38.7438 77.7056 64.9825Z" fill="#00DDA3"/>
</g>
<path d="M47.218 101.38H49.108C48.888 99.6 48.198 98.27 47.038 97.39C45.898 96.51 44.498 96.07 42.838 96.07C41.658 96.07 40.608 96.29 39.688 96.73C38.788 97.17 38.028 97.76 37.408 98.5C36.788 99.24 36.318 100.11 35.998 101.11C35.678 102.09 35.518 103.14 35.518 104.26C35.518 105.38 35.678 106.44 35.998 107.44C36.318 108.42 36.788 109.28 37.408 110.02C38.028 110.76 38.788 111.35 39.688 111.79C40.608 112.21 41.658 112.42 42.838 112.42C44.598 112.42 46.038 111.9 47.158 110.86C48.278 109.8 48.968 108.33 49.228 106.45H47.338C47.278 107.09 47.118 107.68 46.858 108.22C46.598 108.76 46.268 109.23 45.868 109.63C45.468 110.01 45.008 110.31 44.488 110.53C43.968 110.75 43.418 110.86 42.838 110.86C41.938 110.86 41.148 110.67 40.468 110.29C39.788 109.91 39.218 109.41 38.758 108.79C38.318 108.17 37.978 107.47 37.738 106.69C37.518 105.89 37.408 105.08 37.408 104.26C37.408 103.44 37.518 102.64 37.738 101.86C37.978 101.06 38.318 100.35 38.758 99.73C39.218 99.11 39.788 98.61 40.468 98.23C41.148 97.85 41.938 97.66 42.838 97.66C44.098 97.66 45.078 97.99 45.778 98.65C46.478 99.31 46.958 100.22 47.218 101.38ZM58.3947 97.66C59.2947 97.66 60.0847 97.85 60.7647 98.23C61.4447 98.61 62.0047 99.11 62.4447 99.73C62.9047 100.35 63.2447 101.06 63.4647 101.86C63.7047 102.64 63.8247 103.44 63.8247 104.26C63.8247 105.08 63.7047 105.89 63.4647 106.69C63.2447 107.47 62.9047 108.17 62.4447 108.79C62.0047 109.41 61.4447 109.91 60.7647 110.29C60.0847 110.67 59.2947 110.86 58.3947 110.86C57.4947 110.86 56.7047 110.67 56.0247 110.29C55.3447 109.91 54.7747 109.41 54.3147 108.79C53.8747 108.17 53.5347 107.47 53.2947 106.69C53.0747 105.89 52.9647 105.08 52.9647 104.26C52.9647 103.44 53.0747 102.64 53.2947 101.86C53.5347 101.06 53.8747 100.35 54.3147 99.73C54.7747 99.11 55.3447 98.61 56.0247 98.23C56.7047 97.85 57.4947 97.66 58.3947 97.66ZM58.3947 96.07C57.2147 96.07 56.1647 96.29 55.2447 96.73C54.3447 97.17 53.5847 97.76 52.9647 98.5C52.3447 99.24 51.8747 100.11 51.5547 101.11C51.2347 102.09 51.0747 103.14 51.0747 104.26C51.0747 105.38 51.2347 106.44 51.5547 107.44C51.8747 108.42 52.3447 109.28 52.9647 110.02C53.5847 110.76 54.3447 111.35 55.2447 111.79C56.1647 112.21 57.2147 112.42 58.3947 112.42C59.5747 112.42 60.6147 112.21 61.5147 111.79C62.4347 111.35 63.2047 110.76 63.8247 110.02C64.4447 109.28 64.9147 108.42 65.2347 107.44C65.5547 106.44 65.7147 105.38 65.7147 104.26C65.7147 103.14 65.5547 102.09 65.2347 101.11C64.9147 100.11 64.4447 99.24 63.8247 98.5C63.2047 97.76 62.4347 97.17 61.5147 96.73C60.6147 96.29 59.5747 96.07 58.3947 96.07Z" fill="white"/>
<path d="M68.6246 94.15H81.4746V96.85H71.7496V101.525H80.7496V104.075H71.7496V109.3H81.6496V112H68.6246V94.15ZM84.3717 94.15H87.4967V109.3H96.5717V112H84.3717V94.15ZM103.502 94.15H106.827L113.702 112H110.352L108.677 107.275H101.552L99.8771 112H96.6521L103.502 94.15ZM102.402 104.9H107.852L105.177 97.225H105.102L102.402 104.9Z" fill="#F19174"/>
<defs>
<filter id="filter0_i" x="29" y="6" width="89.1" height="93.9609" filterUnits="userSpaceOnUse" color-interpolation-filters="sRGB">
<feFlood flood-opacity="0" result="BackgroundImageFix"/>
<feBlend mode="normal" in="SourceGraphic" in2="BackgroundImageFix" result="shape"/>
<feColorMatrix in="SourceAlpha" type="matrix" values="0 0 0 0 0 0 0 0 0 0 0 0 0 0 0 0 0 0 127 0" result="hardAlpha"/>
<feOffset dy="4"/>
<feGaussianBlur stdDeviation="5.5"/>
<feComposite in2="hardAlpha" operator="arithmetic" k2="-1" k3="1"/>
<feColorMatrix type="matrix" values="0 0 0 0 0 0 0 0 0 0 0 0 0 0 0 0 0 0 0.25 0"/>
<feBlend mode="normal" in2="shape" result="effect1_innerShadow"/>
</filter>
<clipPath id="clip0">
<rect width="89.1" height="89.9609" fill="white" transform="translate(29 6)"/>
</clipPath>
</defs>
</svg>
