<svg width="24" height="24" viewBox="0 0 24 24" fill="none" xmlns="http://www.w3.org/2000/svg">
<path d="M21.9641 5.03746C21.9641 5.03746 17.2159 4.52398 14.5878 7.29935C12.5217 9.48108 12.3877 13.0472 12.4157 14.4707L11.0937 15.8681L9.84364 14.5487C9.85964 13.3159 9.70164 10.5254 8.06358 8.79644C5.91351 6.51722 2.02938 6.95053 2.02938 6.95053C2.02938 6.95053 1.62936 11.0518 3.78144 13.3246C5.41949 15.0578 8.05958 15.2225 9.22762 15.2051L10.4777 16.5246L9.69164 17.35L10.3077 18L13.0317 15.1228C14.3818 15.1596 17.7559 15.0101 19.832 12.8284C22.4521 10.053 21.9641 5.03746 21.9641 5.03746Z" fill="#33404F"/>
</svg>
