<svg width="36" height="37" viewBox="0 0 36 37" fill="none" xmlns="http://www.w3.org/2000/svg">
<g clip-path="url(#clip0)" filter="url(#filter0_i)">
<path d="M8.93272 17.3369C8.7425 17.1448 8.7425 16.8568 8.88517 16.6647C9.07539 16.4726 9.40828 16.4246 9.59851 16.6167C11.1679 18.1532 12.5945 19.7857 13.9737 21.4662C14.3541 19.6417 14.259 17.673 13.0225 16.1845C11.4056 14.3119 8.36205 13.8318 6.07936 13.7357C5.79402 16.5206 5.93669 18.7294 6.98292 20.2178C8.02916 21.6103 10.0265 22.3785 13.403 22.2825C11.9763 20.5059 10.5496 18.8734 8.93272 17.3369ZM30.333 9.84648C26.9089 9.99053 22.3911 10.6627 20.0133 13.4476C18.8719 14.7441 18.2537 16.5206 18.3013 18.8254C18.3488 19.6897 18.4439 20.65 18.6817 21.6583C20.6791 19.1615 22.8191 16.7127 25.2445 14.3599C25.4347 14.2159 25.72 14.2159 25.9102 14.408C26.1005 14.6 26.1005 14.8881 25.9102 15.0802C23.3898 17.4329 21.2497 19.9298 19.2048 22.5226C24.3885 22.7627 27.3845 21.6583 28.9538 19.4976C30.5707 17.3369 30.761 13.9758 30.333 9.84648ZM31.189 8.88617C31.617 12.3913 31.9499 17.0488 29.7147 20.0738C27.9076 22.5706 24.436 23.819 18.4915 23.4349C17.2075 25.1154 15.9235 26.844 14.687 28.6206C14.5443 28.8126 14.2114 28.8606 14.0212 28.7166C13.831 28.5245 13.7834 28.2364 13.9261 28.0444C14.5443 27.1801 15.1626 26.3158 15.7808 25.4515C15.2577 24.6833 14.687 23.9631 14.1163 23.1948C9.97896 23.4349 7.5536 22.5706 6.22203 20.794C4.65268 18.5853 4.93801 15.3203 5.22335 12.7754C8.12427 12.8234 11.691 13.2076 13.7359 15.5603C15.4003 17.481 15.3052 20.1218 14.7346 22.4266C15.3052 23.1948 15.8284 23.915 16.399 24.6833C16.8746 23.9631 17.3977 23.2908 17.9208 22.6186C17.5879 21.2742 17.3977 19.9778 17.3501 18.8734C17.3026 16.2806 18.0159 14.3119 19.2999 12.8234C22.1058 9.55839 27.1943 8.9822 31.189 8.88617Z" fill="white"/>
<path d="M14.1353 22.2126C15.6496 17.6691 14.1353 14.3372 6.05799 13.1256C5.04832 17.1643 5.25026 24.6358 14.1353 22.2126Z" fill="white"/>
<path d="M18.6786 22.7175C29.2803 23.2223 30.8433 20.6431 30.8326 9.63744C24.9235 9.20802 14.6402 12.116 18.6786 22.7175Z" fill="white"/>
</g>
<defs>
<filter id="filter0_i" x="0" y="0" width="36" height="40.3478" filterUnits="userSpaceOnUse" color-interpolation-filters="sRGB">
<feFlood flood-opacity="0" result="BackgroundImageFix"/>
<feBlend mode="normal" in="SourceGraphic" in2="BackgroundImageFix" result="shape"/>
<feColorMatrix in="SourceAlpha" type="matrix" values="0 0 0 0 0 0 0 0 0 0 0 0 0 0 0 0 0 0 127 0" result="hardAlpha"/>
<feOffset dy="4"/>
<feGaussianBlur stdDeviation="5.5"/>
<feComposite in2="hardAlpha" operator="arithmetic" k2="-1" k3="1"/>
<feColorMatrix type="matrix" values="0 0 0 0 0 0 0 0 0 0 0 0 0 0 0 0 0 0 0.25 0"/>
<feBlend mode="normal" in2="shape" result="effect1_innerShadow"/>
</filter>
<clipPath id="clip0">
<rect width="36" height="36.3478" fill="white"/>
</clipPath>
</defs>
</svg>
