<svg width="33" height="20" viewBox="0 0 33 20" fill="none" xmlns="http://www.w3.org/2000/svg">
<path d="M20.9921 2.13818H11.3662V17.8601H20.9921V2.13818Z" fill="#FF5F00"/>
<path d="M12.3572 10.0006C12.356 8.48668 12.6992 6.99236 13.3608 5.63069C14.0224 4.26902 14.985 3.07569 16.1759 2.14099C14.7009 0.981835 12.9296 0.261025 11.0644 0.0609423C9.19916 -0.13914 7.31527 0.189577 5.62801 1.00953C3.94076 1.82947 2.51823 3.10757 1.523 4.69774C0.527775 6.28792 0 8.12601 0 10.0019C0 11.8779 0.527775 13.716 1.523 15.3061C2.51823 16.8963 3.94076 18.1744 5.62801 18.9944C7.31527 19.8143 9.19916 20.143 11.0644 19.9429C12.9296 19.7429 14.7009 19.0221 16.1759 17.8629C14.9847 16.9279 14.0218 15.7341 13.3602 14.3719C12.6986 13.0098 12.3556 11.5149 12.3572 10.0006Z" fill="#F24E1E"/>
<path d="M31.3977 16.1967V15.8745H31.5365V15.8079H31.2061V15.8745H31.3366V16.1967H31.3977ZM32.0392 16.1967V15.8079H31.9392L31.8226 16.0856L31.706 15.8079H31.606V16.1967H31.6782V15.9023L31.7865 16.155H31.8615L31.9698 15.9023V16.1967H32.0392Z" fill="#F79E1B"/>
<path d="M32.3532 10.0006C32.3531 11.8767 31.8252 13.7149 30.8298 15.3051C29.8344 16.8953 28.4117 18.1734 26.7242 18.9932C25.0367 19.8131 23.1526 20.1416 21.2873 19.9412C19.422 19.7408 17.6506 19.0197 16.1758 17.8601C17.3662 16.9246 18.3286 15.731 18.9903 14.3692C19.6521 13.0075 19.9959 11.5132 19.9959 9.99919C19.9959 8.48517 19.6521 6.99092 18.9903 5.62918C18.3286 4.26743 17.3662 3.07377 16.1758 2.13824C17.6506 0.978723 19.422 0.257562 21.2873 0.057192C23.1526 -0.143178 25.0367 0.185328 26.7242 1.00516C28.4117 1.82499 29.8344 3.10307 30.8298 4.69329C31.8252 6.28352 32.3531 8.12173 32.3532 9.9978V10.0006Z" fill="#FFD25F"/>
</svg>
