<svg width="402" height="267" viewBox="0 0 402 267" fill="none" xmlns="http://www.w3.org/2000/svg">
<g filter="url(#filter0_d)">
<path d="M17 8C17 3.58172 20.5817 0 25 0H390C394.418 0 398 3.58172 398 8V251C398 255.418 394.418 259 390 259H25C20.5817 259 17 255.418 17 251V8Z" fill="#44505E"/>
<path d="M37.8779 27.2905C37.8779 27.9399 37.8022 28.4648 37.6509 28.8652C37.4995 29.2656 37.2285 29.6465 36.8379 30.0078C36.4521 30.3691 36.1885 30.6377 36.0469 30.8135C35.9102 30.9893 35.8052 31.1675 35.7319 31.3481C35.6636 31.5288 35.6294 31.7266 35.6294 31.9414C35.6294 32.708 36.0054 33.0913 36.7573 33.0913C37.1333 33.0913 37.4312 32.9814 37.6509 32.7617C37.8755 32.542 37.9927 32.2344 38.0024 31.8389H40.1191C40.1094 32.7764 39.8091 33.5063 39.2183 34.0288C38.6274 34.5562 37.8193 34.8198 36.7939 34.8198C35.7539 34.8198 34.9458 34.5708 34.3696 34.0728C33.7935 33.5796 33.5054 32.874 33.5054 31.9561C33.5054 31.1797 33.8789 30.418 34.626 29.6709L35.3364 28.9897C35.5806 28.77 35.749 28.5405 35.8418 28.3013C35.9395 28.062 35.9932 27.7251 36.0029 27.2905H37.8779ZM38.1416 25.0493C38.1416 25.3765 38.0293 25.645 37.8047 25.855C37.5801 26.0649 37.2969 26.1699 36.9551 26.1699C36.6133 26.1699 36.3301 26.0649 36.1055 25.855C35.8809 25.645 35.7686 25.3765 35.7686 25.0493C35.7686 24.7222 35.876 24.4536 36.0908 24.2437C36.3105 24.0337 36.5986 23.9287 36.9551 23.9287C37.3115 23.9287 37.5972 24.0337 37.812 24.2437C38.0317 24.4536 38.1416 24.7222 38.1416 25.0493ZM49.7944 28.4478C49.7114 29.5952 49.2866 30.4985 48.52 31.1577C47.7583 31.8169 46.7524 32.1465 45.5024 32.1465C44.1353 32.1465 43.0586 31.6875 42.2725 30.7695C41.4912 29.8467 41.1006 28.582 41.1006 26.9756V26.3237C41.1006 25.2983 41.2812 24.395 41.6426 23.6138C42.0039 22.8325 42.519 22.2344 43.188 21.8193C43.8618 21.3994 44.6431 21.1895 45.5317 21.1895C46.7622 21.1895 47.7534 21.519 48.5054 22.1782C49.2573 22.8374 49.6919 23.7627 49.8091 24.9541H47.6118C47.5581 24.2656 47.3652 23.7676 47.0332 23.46C46.7061 23.1475 46.2056 22.9912 45.5317 22.9912C44.7993 22.9912 44.25 23.2549 43.8838 23.7822C43.5225 24.3047 43.3369 25.1177 43.3271 26.2212V27.0269C43.3271 28.1792 43.5005 29.0215 43.8472 29.5537C44.1987 30.0859 44.7505 30.3521 45.5024 30.3521C46.1812 30.3521 46.6865 30.1982 47.0186 29.8906C47.3555 29.5781 47.5483 29.0972 47.5972 28.4478H49.7944ZM55.8442 31.1943C55.3218 31.8291 54.5991 32.1465 53.6763 32.1465C52.8267 32.1465 52.1772 31.9023 51.728 31.4141C51.2837 30.9258 51.0566 30.2104 51.0469 29.2681V24.0752H53.1636V29.1948C53.1636 30.02 53.5396 30.4326 54.2915 30.4326C55.0093 30.4326 55.5024 30.1836 55.771 29.6855V24.0752H57.895V32H55.9028L55.8442 31.1943ZM64.084 32C63.9863 31.8096 63.9155 31.5728 63.8716 31.2896C63.3589 31.8608 62.6924 32.1465 61.8721 32.1465C61.0957 32.1465 60.4512 31.9219 59.9385 31.4727C59.4307 31.0234 59.1768 30.457 59.1768 29.7734C59.1768 28.9336 59.4868 28.2891 60.1069 27.8398C60.7319 27.3906 61.6328 27.1636 62.8096 27.1587H63.7837V26.7046C63.7837 26.3384 63.6885 26.0454 63.498 25.8257C63.3125 25.606 63.0171 25.4961 62.6118 25.4961C62.2554 25.4961 61.9746 25.5815 61.7695 25.7524C61.5693 25.9233 61.4692 26.1577 61.4692 26.4556H59.3525C59.3525 25.9966 59.4941 25.5718 59.7773 25.1812C60.0605 24.7905 60.4609 24.4854 60.9785 24.2656C61.4961 24.041 62.0771 23.9287 62.7217 23.9287C63.6982 23.9287 64.4722 24.1753 65.0435 24.6685C65.6196 25.1567 65.9077 25.8452 65.9077 26.7339V30.1689C65.9126 30.9209 66.0176 31.4897 66.2227 31.8755V32H64.084ZM62.3335 30.5278C62.646 30.5278 62.9341 30.4595 63.1978 30.3228C63.4614 30.1812 63.6567 29.9932 63.7837 29.7588V28.3965H62.9927C61.9331 28.3965 61.3691 28.7627 61.3008 29.4951L61.2935 29.6196C61.2935 29.8833 61.3862 30.1006 61.5718 30.2715C61.7573 30.4424 62.0112 30.5278 62.3335 30.5278ZM69.7676 32H67.6436V20.75H69.7676V32ZM78.9009 32.1465C77.7388 32.1465 76.7915 31.79 76.0591 31.0771C75.3315 30.3643 74.9678 29.4146 74.9678 28.228V28.0229C74.9678 27.2271 75.1216 26.5166 75.4292 25.8916C75.7368 25.2617 76.1714 24.7783 76.7329 24.4414C77.2993 24.0996 77.9438 23.9287 78.6665 23.9287C79.7505 23.9287 80.6025 24.2705 81.2227 24.9541C81.8477 25.6377 82.1602 26.6069 82.1602 27.8618V28.7261H77.1138C77.1821 29.2437 77.3872 29.6587 77.729 29.9712C78.0757 30.2837 78.5127 30.4399 79.04 30.4399C79.8555 30.4399 80.4927 30.1445 80.9517 29.5537L81.9917 30.7183C81.6743 31.1675 81.2446 31.519 80.7026 31.7729C80.1606 32.022 79.5601 32.1465 78.9009 32.1465ZM78.6592 25.6426C78.2393 25.6426 77.8975 25.7842 77.6338 26.0674C77.375 26.3506 77.209 26.7559 77.1357 27.2832H80.0801V27.1147C80.0703 26.646 79.9434 26.2847 79.6992 26.0308C79.4551 25.772 79.1084 25.6426 78.6592 25.6426ZM87.6606 29.8101C87.6606 29.5513 87.5312 29.3486 87.2725 29.2021C87.0186 29.0508 86.6084 28.9165 86.042 28.7993C84.1572 28.4038 83.2148 27.603 83.2148 26.397C83.2148 25.6938 83.5054 25.1079 84.0864 24.6392C84.6724 24.1655 85.4365 23.9287 86.3789 23.9287C87.3848 23.9287 88.188 24.1655 88.7886 24.6392C89.394 25.1128 89.6968 25.728 89.6968 26.4849H87.5801C87.5801 26.1821 87.4824 25.9331 87.2871 25.7378C87.0918 25.5376 86.7866 25.4375 86.3716 25.4375C86.0151 25.4375 85.7393 25.5181 85.5439 25.6792C85.3486 25.8403 85.251 26.0454 85.251 26.2944C85.251 26.5288 85.3608 26.7192 85.5806 26.8657C85.8052 27.0073 86.1812 27.1318 86.7085 27.2393C87.2358 27.3418 87.6802 27.459 88.0415 27.5908C89.1597 28.001 89.7188 28.7114 89.7188 29.7222C89.7188 30.4448 89.4087 31.0308 88.7886 31.48C88.1685 31.9243 87.3677 32.1465 86.3862 32.1465C85.7222 32.1465 85.1313 32.0293 84.6138 31.7949C84.1011 31.5557 83.6982 31.231 83.4053 30.8208C83.1123 30.4058 82.9658 29.959 82.9658 29.4805H84.9727C84.9922 29.8564 85.1313 30.1445 85.3901 30.3447C85.6489 30.5449 85.9956 30.645 86.4302 30.645C86.8354 30.645 87.1406 30.5693 87.3457 30.418C87.5557 30.2617 87.6606 30.0591 87.6606 29.8101ZM98.4712 32.1465C97.3091 32.1465 96.3618 31.79 95.6294 31.0771C94.9019 30.3643 94.5381 29.4146 94.5381 28.228V28.0229C94.5381 27.2271 94.6919 26.5166 94.9995 25.8916C95.3071 25.2617 95.7417 24.7783 96.3032 24.4414C96.8696 24.0996 97.5142 23.9287 98.2368 23.9287C99.3208 23.9287 100.173 24.2705 100.793 24.9541C101.418 25.6377 101.73 26.6069 101.73 27.8618V28.7261H96.6841C96.7524 29.2437 96.9575 29.6587 97.2993 29.9712C97.646 30.2837 98.083 30.4399 98.6104 30.4399C99.4258 30.4399 100.063 30.1445 100.522 29.5537L101.562 30.7183C101.245 31.1675 100.815 31.519 100.273 31.7729C99.731 32.022 99.1304 32.1465 98.4712 32.1465ZM98.2295 25.6426C97.8096 25.6426 97.4678 25.7842 97.2041 26.0674C96.9453 26.3506 96.7793 26.7559 96.7061 27.2832H99.6504V27.1147C99.6406 26.646 99.5137 26.2847 99.2695 26.0308C99.0254 25.772 98.6787 25.6426 98.2295 25.6426ZM105.173 32H103.049V20.75H105.173V32ZM112.644 24.0752L112.709 24.9614C113.271 24.2729 114.03 23.9287 114.987 23.9287C116.008 23.9287 116.708 24.3315 117.089 25.1372C117.646 24.3315 118.439 23.9287 119.47 23.9287C120.329 23.9287 120.969 24.1802 121.389 24.6831C121.809 25.1812 122.019 25.9331 122.019 26.939V32H119.895V26.9463C119.895 26.4971 119.807 26.1699 119.631 25.9648C119.455 25.7549 119.145 25.6499 118.701 25.6499C118.066 25.6499 117.626 25.9526 117.382 26.5581L117.39 32H115.273V26.9536C115.273 26.4946 115.183 26.1626 115.002 25.9575C114.821 25.7524 114.514 25.6499 114.079 25.6499C113.479 25.6499 113.044 25.8989 112.775 26.397V32H110.659V24.0752H112.644ZM127.299 32.1465C126.137 32.1465 125.19 31.79 124.458 31.0771C123.73 30.3643 123.366 29.4146 123.366 28.228V28.0229C123.366 27.2271 123.52 26.5166 123.828 25.8916C124.135 25.2617 124.57 24.7783 125.131 24.4414C125.698 24.0996 126.342 23.9287 127.065 23.9287C128.149 23.9287 129.001 24.2705 129.621 24.9541C130.246 25.6377 130.559 26.6069 130.559 27.8618V28.7261H125.512C125.581 29.2437 125.786 29.6587 126.127 29.9712C126.474 30.2837 126.911 30.4399 127.438 30.4399C128.254 30.4399 128.891 30.1445 129.35 29.5537L130.39 30.7183C130.073 31.1675 129.643 31.519 129.101 31.7729C128.559 32.022 127.958 32.1465 127.299 32.1465ZM127.058 25.6426C126.638 25.6426 126.296 25.7842 126.032 26.0674C125.773 26.3506 125.607 26.7559 125.534 27.2832H128.479V27.1147C128.469 26.646 128.342 26.2847 128.098 26.0308C127.854 25.772 127.507 25.6426 127.058 25.6426ZM127.248 20.75H129.555L127.526 23.0205H125.805L127.248 20.75ZM134.301 22.127V24.0752H135.656V25.6279H134.301V29.583C134.301 29.876 134.357 30.0859 134.47 30.2129C134.582 30.3398 134.797 30.4033 135.114 30.4033C135.349 30.4033 135.556 30.3862 135.737 30.3521V31.9561C135.322 32.083 134.895 32.1465 134.455 32.1465C132.971 32.1465 132.214 31.397 132.185 29.8979V25.6279H131.027V24.0752H132.185V22.127H134.301ZM136.286 27.9644C136.286 27.1782 136.438 26.4775 136.74 25.8623C137.043 25.2471 137.478 24.771 138.044 24.4341C138.615 24.0972 139.277 23.9287 140.029 23.9287C141.098 23.9287 141.97 24.2559 142.644 24.9102C143.322 25.5645 143.701 26.4531 143.779 27.5762L143.793 28.1182C143.793 29.334 143.454 30.3105 142.775 31.0479C142.097 31.7803 141.186 32.1465 140.043 32.1465C138.901 32.1465 137.988 31.7803 137.304 31.0479C136.625 30.3154 136.286 29.3193 136.286 28.0596V27.9644ZM138.403 28.1182C138.403 28.8701 138.544 29.4463 138.828 29.8467C139.111 30.2422 139.516 30.4399 140.043 30.4399C140.556 30.4399 140.957 30.2446 141.245 29.854C141.533 29.4585 141.677 28.8286 141.677 27.9644C141.677 27.2271 141.533 26.6558 141.245 26.2505C140.957 25.8452 140.551 25.6426 140.029 25.6426C139.511 25.6426 139.111 25.8452 138.828 26.2505C138.544 26.6509 138.403 27.2734 138.403 28.1182ZM144.768 27.979C144.768 26.7437 145.043 25.7598 145.595 25.0273C146.152 24.2949 146.911 23.9287 147.873 23.9287C148.645 23.9287 149.282 24.2168 149.785 24.793V20.75H151.909V32H149.997L149.895 31.1577C149.367 31.8169 148.688 32.1465 147.858 32.1465C146.926 32.1465 146.176 31.7803 145.61 31.0479C145.048 30.3105 144.768 29.2876 144.768 27.979ZM146.884 28.1328C146.884 28.875 147.014 29.4438 147.272 29.8394C147.531 30.2349 147.907 30.4326 148.4 30.4326C149.055 30.4326 149.516 30.1567 149.785 29.605V26.4775C149.521 25.9258 149.064 25.6499 148.415 25.6499C147.395 25.6499 146.884 26.4775 146.884 28.1328ZM153.22 27.9644C153.22 27.1782 153.371 26.4775 153.674 25.8623C153.977 25.2471 154.411 24.771 154.978 24.4341C155.549 24.0972 156.21 23.9287 156.962 23.9287C158.032 23.9287 158.903 24.2559 159.577 24.9102C160.256 25.5645 160.634 26.4531 160.712 27.5762L160.727 28.1182C160.727 29.334 160.388 30.3105 159.709 31.0479C159.03 31.7803 158.12 32.1465 156.977 32.1465C155.834 32.1465 154.921 31.7803 154.238 31.0479C153.559 30.3154 153.22 29.3193 153.22 28.0596V27.9644ZM155.336 28.1182C155.336 28.8701 155.478 29.4463 155.761 29.8467C156.044 30.2422 156.45 30.4399 156.977 30.4399C157.49 30.4399 157.89 30.2446 158.178 29.854C158.466 29.4585 158.61 28.8286 158.61 27.9644C158.61 27.2271 158.466 26.6558 158.178 26.2505C157.89 25.8452 157.485 25.6426 156.962 25.6426C156.445 25.6426 156.044 25.8452 155.761 26.2505C155.478 26.6509 155.336 27.2734 155.336 28.1182ZM165.437 27.979C165.437 26.7437 165.712 25.7598 166.264 25.0273C166.821 24.2949 167.58 23.9287 168.542 23.9287C169.313 23.9287 169.951 24.2168 170.454 24.793V20.75H172.578V32H170.666L170.563 31.1577C170.036 31.8169 169.357 32.1465 168.527 32.1465C167.595 32.1465 166.845 31.7803 166.279 31.0479C165.717 30.3105 165.437 29.2876 165.437 27.979ZM167.553 28.1328C167.553 28.875 167.683 29.4438 167.941 29.8394C168.2 30.2349 168.576 30.4326 169.069 30.4326C169.724 30.4326 170.185 30.1567 170.454 29.605V26.4775C170.19 25.9258 169.733 25.6499 169.084 25.6499C168.063 25.6499 167.553 26.4775 167.553 28.1328ZM177.866 32.1465C176.704 32.1465 175.756 31.79 175.024 31.0771C174.296 30.3643 173.933 29.4146 173.933 28.228V28.0229C173.933 27.2271 174.086 26.5166 174.394 25.8916C174.702 25.2617 175.136 24.7783 175.698 24.4414C176.264 24.0996 176.909 23.9287 177.631 23.9287C178.715 23.9287 179.567 24.2705 180.188 24.9541C180.812 25.6377 181.125 26.6069 181.125 27.8618V28.7261H176.079C176.147 29.2437 176.352 29.6587 176.694 29.9712C177.041 30.2837 177.478 30.4399 178.005 30.4399C178.82 30.4399 179.458 30.1445 179.917 29.5537L180.957 30.7183C180.639 31.1675 180.209 31.519 179.667 31.7729C179.125 32.022 178.525 32.1465 177.866 32.1465ZM177.624 25.6426C177.204 25.6426 176.862 25.7842 176.599 26.0674C176.34 26.3506 176.174 26.7559 176.101 27.2832H179.045V27.1147C179.035 26.646 178.908 26.2847 178.664 26.0308C178.42 25.772 178.073 25.6426 177.624 25.6426ZM185.739 27.979C185.739 26.7437 186.015 25.7598 186.567 25.0273C187.124 24.2949 187.883 23.9287 188.845 23.9287C189.616 23.9287 190.253 24.2168 190.756 24.793V20.75H192.88V32H190.969L190.866 31.1577C190.339 31.8169 189.66 32.1465 188.83 32.1465C187.897 32.1465 187.148 31.7803 186.582 31.0479C186.02 30.3105 185.739 29.2876 185.739 27.979ZM187.856 28.1328C187.856 28.875 187.985 29.4438 188.244 29.8394C188.503 30.2349 188.879 30.4326 189.372 30.4326C190.026 30.4326 190.488 30.1567 190.756 29.605V26.4775C190.493 25.9258 190.036 25.6499 189.387 25.6499C188.366 25.6499 187.856 26.4775 187.856 28.1328ZM194.191 27.9644C194.191 27.1782 194.343 26.4775 194.646 25.8623C194.948 25.2471 195.383 24.771 195.949 24.4341C196.521 24.0972 197.182 23.9287 197.934 23.9287C199.003 23.9287 199.875 24.2559 200.549 24.9102C201.228 25.5645 201.606 26.4531 201.684 27.5762L201.699 28.1182C201.699 29.334 201.359 30.3105 200.681 31.0479C200.002 31.7803 199.091 32.1465 197.949 32.1465C196.806 32.1465 195.893 31.7803 195.209 31.0479C194.531 30.3154 194.191 29.3193 194.191 28.0596V27.9644ZM196.308 28.1182C196.308 28.8701 196.45 29.4463 196.733 29.8467C197.016 30.2422 197.421 30.4399 197.949 30.4399C198.461 30.4399 198.862 30.2446 199.15 29.854C199.438 29.4585 199.582 28.8286 199.582 27.9644C199.582 27.2271 199.438 26.6558 199.15 26.2505C198.862 25.8452 198.457 25.6426 197.934 25.6426C197.417 25.6426 197.016 25.8452 196.733 26.2505C196.45 26.6509 196.308 27.2734 196.308 28.1182ZM204.951 24.0752L205.017 24.9907C205.583 24.2827 206.342 23.9287 207.294 23.9287C208.134 23.9287 208.759 24.1753 209.169 24.6685C209.58 25.1616 209.79 25.8989 209.799 26.8804V32H207.683V26.9316C207.683 26.4824 207.585 26.1577 207.39 25.9575C207.194 25.7524 206.87 25.6499 206.416 25.6499C205.82 25.6499 205.373 25.9038 205.075 26.4116V32H202.958V24.0752H204.951ZM216.003 32C215.905 31.8096 215.834 31.5728 215.791 31.2896C215.278 31.8608 214.611 32.1465 213.791 32.1465C213.015 32.1465 212.37 31.9219 211.857 31.4727C211.35 31.0234 211.096 30.457 211.096 29.7734C211.096 28.9336 211.406 28.2891 212.026 27.8398C212.651 27.3906 213.552 27.1636 214.729 27.1587H215.703V26.7046C215.703 26.3384 215.607 26.0454 215.417 25.8257C215.231 25.606 214.936 25.4961 214.531 25.4961C214.174 25.4961 213.894 25.5815 213.688 25.7524C213.488 25.9233 213.388 26.1577 213.388 26.4556H211.271C211.271 25.9966 211.413 25.5718 211.696 25.1812C211.979 24.7905 212.38 24.4854 212.897 24.2656C213.415 24.041 213.996 23.9287 214.641 23.9287C215.617 23.9287 216.391 24.1753 216.962 24.6685C217.539 25.1567 217.827 25.8452 217.827 26.7339V30.1689C217.832 30.9209 217.937 31.4897 218.142 31.8755V32H216.003ZM214.252 30.5278C214.565 30.5278 214.853 30.4595 215.117 30.3228C215.38 30.1812 215.576 29.9932 215.703 29.7588V28.3965H214.912C213.852 28.3965 213.288 28.7627 213.22 29.4951L213.212 29.6196C213.212 29.8833 213.305 30.1006 213.491 30.2715C213.676 30.4424 213.93 30.5278 214.252 30.5278ZM222.749 30.4399C223.139 30.4399 223.457 30.3325 223.701 30.1177C223.945 29.9028 224.072 29.6172 224.082 29.2607H226.066C226.062 29.7979 225.915 30.291 225.627 30.7402C225.339 31.1846 224.943 31.5312 224.44 31.7803C223.942 32.0244 223.391 32.1465 222.785 32.1465C221.652 32.1465 220.759 31.7876 220.104 31.0698C219.45 30.3472 219.123 29.3511 219.123 28.0815V27.9424C219.123 26.7217 219.448 25.7476 220.097 25.02C220.747 24.2925 221.638 23.9287 222.771 23.9287C223.762 23.9287 224.555 24.2119 225.151 24.7783C225.751 25.3398 226.057 26.0894 226.066 27.0269H224.082C224.072 26.6167 223.945 26.2847 223.701 26.0308C223.457 25.772 223.134 25.6426 222.734 25.6426C222.241 25.6426 221.867 25.8232 221.613 26.1846C221.364 26.541 221.24 27.1221 221.24 27.9277V28.1475C221.24 28.9629 221.364 29.5488 221.613 29.9053C221.862 30.2617 222.241 30.4399 222.749 30.4399ZM229.509 32H227.385V24.0752H229.509V32ZM227.26 22.0244C227.26 21.707 227.365 21.4458 227.575 21.2407C227.79 21.0356 228.081 20.9331 228.447 20.9331C228.808 20.9331 229.096 21.0356 229.311 21.2407C229.526 21.4458 229.633 21.707 229.633 22.0244C229.633 22.3467 229.523 22.6104 229.304 22.8154C229.089 23.0205 228.803 23.123 228.447 23.123C228.09 23.123 227.802 23.0205 227.583 22.8154C227.368 22.6104 227.26 22.3467 227.26 22.0244ZM230.93 27.9644C230.93 27.1782 231.081 26.4775 231.384 25.8623C231.687 25.2471 232.121 24.771 232.688 24.4341C233.259 24.0972 233.92 23.9287 234.672 23.9287C235.742 23.9287 236.613 24.2559 237.287 24.9102C237.966 25.5645 238.344 26.4531 238.422 27.5762L238.437 28.1182C238.437 29.334 238.098 30.3105 237.419 31.0479C236.74 31.7803 235.83 32.1465 234.687 32.1465C233.544 32.1465 232.631 31.7803 231.948 31.0479C231.269 30.3154 230.93 29.3193 230.93 28.0596V27.9644ZM233.046 28.1182C233.046 28.8701 233.188 29.4463 233.471 29.8467C233.754 30.2422 234.16 30.4399 234.687 30.4399C235.2 30.4399 235.6 30.2446 235.888 29.854C236.176 29.4585 236.32 28.8286 236.32 27.9644C236.32 27.2271 236.176 26.6558 235.888 26.2505C235.6 25.8452 235.195 25.6426 234.672 25.6426C234.155 25.6426 233.754 25.8452 233.471 26.2505C233.188 26.6509 233.046 27.2734 233.046 28.1182ZM235.09 20.75H237.397L235.368 23.0205H233.647L235.09 20.75ZM241.689 24.0752L241.755 24.9907C242.321 24.2827 243.081 23.9287 244.033 23.9287C244.873 23.9287 245.498 24.1753 245.908 24.6685C246.318 25.1616 246.528 25.8989 246.538 26.8804V32H244.421V26.9316C244.421 26.4824 244.323 26.1577 244.128 25.9575C243.933 25.7524 243.608 25.6499 243.154 25.6499C242.558 25.6499 242.111 25.9038 241.813 26.4116V32H239.697V24.0752H241.689ZM252.463 32V25.6279H251.284V24.0752H252.463V23.4014C252.463 22.5127 252.717 21.8242 253.225 21.3359C253.737 20.8428 254.453 20.5962 255.371 20.5962C255.664 20.5962 256.022 20.645 256.447 20.7427L256.425 22.3833C256.25 22.3394 256.035 22.3174 255.781 22.3174C254.985 22.3174 254.587 22.6909 254.587 23.438V24.0752H256.162V25.6279H254.587V32H252.463ZM261.853 32C261.755 31.8096 261.684 31.5728 261.64 31.2896C261.127 31.8608 260.461 32.1465 259.641 32.1465C258.864 32.1465 258.22 31.9219 257.707 31.4727C257.199 31.0234 256.945 30.457 256.945 29.7734C256.945 28.9336 257.255 28.2891 257.875 27.8398C258.5 27.3906 259.401 27.1636 260.578 27.1587H261.552V26.7046C261.552 26.3384 261.457 26.0454 261.267 25.8257C261.081 25.606 260.786 25.4961 260.38 25.4961C260.024 25.4961 259.743 25.5815 259.538 25.7524C259.338 25.9233 259.238 26.1577 259.238 26.4556H257.121C257.121 25.9966 257.263 25.5718 257.546 25.1812C257.829 24.7905 258.229 24.4854 258.747 24.2656C259.265 24.041 259.846 23.9287 260.49 23.9287C261.467 23.9287 262.241 24.1753 262.812 24.6685C263.388 25.1567 263.676 25.8452 263.676 26.7339V30.1689C263.681 30.9209 263.786 31.4897 263.991 31.8755V32H261.853ZM260.102 30.5278C260.415 30.5278 260.703 30.4595 260.966 30.3228C261.23 30.1812 261.425 29.9932 261.552 29.7588V28.3965H260.761C259.702 28.3965 259.138 28.7627 259.069 29.4951L259.062 29.6196C259.062 29.8833 259.155 30.1006 259.34 30.2715C259.526 30.4424 259.78 30.5278 260.102 30.5278ZM268.151 29.4146L269.624 24.0752H271.835L269.162 32H267.141L264.467 24.0752H266.679L268.151 29.4146ZM272.326 27.9644C272.326 27.1782 272.478 26.4775 272.78 25.8623C273.083 25.2471 273.518 24.771 274.084 24.4341C274.655 24.0972 275.317 23.9287 276.069 23.9287C277.138 23.9287 278.01 24.2559 278.684 24.9102C279.362 25.5645 279.741 26.4531 279.819 27.5762L279.833 28.1182C279.833 29.334 279.494 30.3105 278.815 31.0479C278.137 31.7803 277.226 32.1465 276.083 32.1465C274.941 32.1465 274.028 31.7803 273.344 31.0479C272.666 30.3154 272.326 29.3193 272.326 28.0596V27.9644ZM274.443 28.1182C274.443 28.8701 274.584 29.4463 274.868 29.8467C275.151 30.2422 275.556 30.4399 276.083 30.4399C276.596 30.4399 276.997 30.2446 277.285 29.854C277.573 29.4585 277.717 28.8286 277.717 27.9644C277.717 27.2271 277.573 26.6558 277.285 26.2505C276.997 25.8452 276.591 25.6426 276.069 25.6426C275.551 25.6426 275.151 25.8452 274.868 26.2505C274.584 26.6509 274.443 27.2734 274.443 28.1182ZM285.59 26.0601C285.302 26.021 285.048 26.0015 284.829 26.0015C284.028 26.0015 283.503 26.2725 283.254 26.8145V32H281.137V24.0752H283.137L283.195 25.02C283.62 24.2925 284.208 23.9287 284.96 23.9287C285.195 23.9287 285.415 23.9604 285.62 24.0239L285.59 26.0601ZM288.85 32H286.726V24.0752H288.85V32ZM286.601 22.0244C286.601 21.707 286.706 21.4458 286.916 21.2407C287.131 21.0356 287.421 20.9331 287.788 20.9331C288.149 20.9331 288.437 21.0356 288.652 21.2407C288.867 21.4458 288.974 21.707 288.974 22.0244C288.974 22.3467 288.864 22.6104 288.645 22.8154C288.43 23.0205 288.144 23.123 287.788 23.123C287.431 23.123 287.143 23.0205 286.923 22.8154C286.708 22.6104 286.601 22.3467 286.601 22.0244ZM293.134 22.127V24.0752H294.489V25.6279H293.134V29.583C293.134 29.876 293.19 30.0859 293.303 30.2129C293.415 30.3398 293.63 30.4033 293.947 30.4033C294.182 30.4033 294.389 30.3862 294.57 30.3521V31.9561C294.155 32.083 293.728 32.1465 293.288 32.1465C291.804 32.1465 291.047 31.397 291.018 29.8979V25.6279H289.86V24.0752H291.018V22.127H293.134ZM295.119 27.9644C295.119 27.1782 295.271 26.4775 295.573 25.8623C295.876 25.2471 296.311 24.771 296.877 24.4341C297.448 24.0972 298.11 23.9287 298.862 23.9287C299.931 23.9287 300.803 24.2559 301.477 24.9102C302.155 25.5645 302.534 26.4531 302.612 27.5762L302.626 28.1182C302.626 29.334 302.287 30.3105 301.608 31.0479C300.93 31.7803 300.019 32.1465 298.876 32.1465C297.734 32.1465 296.821 31.7803 296.137 31.0479C295.458 30.3154 295.119 29.3193 295.119 28.0596V27.9644ZM297.236 28.1182C297.236 28.8701 297.377 29.4463 297.661 29.8467C297.944 30.2422 298.349 30.4399 298.876 30.4399C299.389 30.4399 299.79 30.2446 300.078 29.854C300.366 29.4585 300.51 28.8286 300.51 27.9644C300.51 27.2271 300.366 26.6558 300.078 26.2505C299.79 25.8452 299.384 25.6426 298.862 25.6426C298.344 25.6426 297.944 25.8452 297.661 26.2505C297.377 26.6509 297.236 27.2734 297.236 28.1182ZM305.659 28.7261C305.659 28.0425 305.742 27.498 305.908 27.0928C306.074 26.6875 306.376 26.2896 306.816 25.8989C307.26 25.5034 307.556 25.1836 307.702 24.9395C307.849 24.6904 307.922 24.4292 307.922 24.1558C307.922 23.3306 307.541 22.918 306.779 22.918C306.418 22.918 306.127 23.0303 305.908 23.2549C305.693 23.4746 305.581 23.7798 305.571 24.1704H303.447C303.457 23.2378 303.757 22.5078 304.348 21.9805C304.943 21.4531 305.754 21.1895 306.779 21.1895C307.814 21.1895 308.618 21.4409 309.189 21.9438C309.76 22.4419 310.046 23.1475 310.046 24.0605C310.046 24.4756 309.953 24.8687 309.768 25.2397C309.582 25.606 309.257 26.0137 308.793 26.4629L308.2 27.0269C307.829 27.3833 307.617 27.8008 307.563 28.2793L307.534 28.7261H305.659ZM305.446 30.9746C305.446 30.6475 305.556 30.3789 305.776 30.1689C306 29.9541 306.286 29.8467 306.633 29.8467C306.979 29.8467 307.263 29.9541 307.482 30.1689C307.707 30.3789 307.819 30.6475 307.819 30.9746C307.819 31.2969 307.709 31.563 307.49 31.7729C307.275 31.9829 306.989 32.0879 306.633 32.0879C306.276 32.0879 305.988 31.9829 305.769 31.7729C305.554 31.563 305.446 31.2969 305.446 30.9746Z" fill="white"/>
<path d="M357 148.5C357 182.466 329.466 210 295.5 210C261.534 210 234 182.466 234 148.5C234 114.534 261.534 87 295.5 87C329.466 87 357 114.534 357 148.5Z" stroke="white" stroke-width="20"/>
<path d="M297.647 87.0376C312.961 87.5725 327.523 93.8048 338.482 104.514C349.442 115.223 356.009 129.637 356.897 144.934C357.785 160.232 352.931 175.309 343.285 187.215C333.64 199.121 319.897 206.997 304.748 209.301" stroke="#00DDA3" stroke-width="20" stroke-linecap="round"/>
<path d="M299.061 209.897C287.627 210.56 276.235 208.017 266.168 202.555C256.102 197.092 247.76 188.927 242.084 178.98" stroke="#A4DD00" stroke-width="20" stroke-linecap="round"/>
<path d="M49.1494 86.2598L50.1748 77.2266H60.1357V80.1685H53.0679L52.6284 83.9893C53.4666 83.5417 54.3577 83.3179 55.3018 83.3179C56.9945 83.3179 58.321 83.8428 59.2812 84.8926C60.2415 85.9424 60.7217 87.4113 60.7217 89.2993C60.7217 90.4468 60.4775 91.4762 59.9893 92.3877C59.5091 93.291 58.8174 93.995 57.9141 94.4995C57.0107 94.9959 55.9447 95.2441 54.7158 95.2441C53.6416 95.2441 52.6447 95.0285 51.7251 94.5972C50.8055 94.1577 50.0771 93.5433 49.54 92.7539C49.0111 91.9645 48.7303 91.0653 48.6978 90.0562H52.189C52.2622 90.7967 52.5186 91.3745 52.958 91.7896C53.4056 92.1965 53.9875 92.3999 54.7036 92.3999C55.5011 92.3999 56.1156 92.1151 56.5469 91.5454C56.9782 90.9676 57.1938 90.1538 57.1938 89.104C57.1938 88.0949 56.9456 87.3218 56.4492 86.7847C55.9528 86.2476 55.2489 85.979 54.3374 85.979C53.4992 85.979 52.8197 86.1987 52.2988 86.6382L51.957 86.9556L49.1494 86.2598ZM74.9429 87.6514C74.9429 90.109 74.4342 91.9889 73.417 93.291C72.3997 94.5931 70.9105 95.2441 68.9492 95.2441C67.0124 95.2441 65.5312 94.6053 64.5059 93.3276C63.4805 92.05 62.9556 90.2189 62.9312 87.8345V84.563C62.9312 82.0809 63.4438 80.1969 64.4692 78.9111C65.5028 77.6253 66.988 76.9824 68.9248 76.9824C70.8617 76.9824 72.3428 77.6213 73.3682 78.8989C74.3936 80.1685 74.9185 81.9954 74.9429 84.3799V87.6514ZM71.415 84.0625C71.415 82.5895 71.2116 81.5194 70.8047 80.8521C70.4059 80.1766 69.7793 79.8389 68.9248 79.8389C68.0947 79.8389 67.4803 80.1603 67.0815 80.8032C66.6909 81.438 66.4834 82.4349 66.459 83.7939V88.1152C66.459 89.5638 66.6543 90.6421 67.0449 91.3501C67.4437 92.05 68.0785 92.3999 68.9492 92.3999C69.8118 92.3999 70.4344 92.0622 70.8169 91.3867C71.1994 90.7113 71.3988 89.6777 71.415 88.2861V84.0625ZM77.2866 80.6445C77.2866 79.554 77.6406 78.6711 78.3486 77.9956C79.0566 77.312 79.9844 76.9702 81.1318 76.9702C82.2956 76.9702 83.2314 77.3079 83.9395 77.9834C84.6475 78.6507 85.0015 79.5581 85.0015 80.7056V81.5845C85.0015 82.6831 84.6475 83.5661 83.9395 84.2334C83.2314 84.9007 82.3037 85.2344 81.1562 85.2344C80.0007 85.2344 79.0648 84.9007 78.3486 84.2334C77.6406 83.5579 77.2866 82.6506 77.2866 81.5112V80.6445ZM79.6304 81.5845C79.6304 82.0728 79.7687 82.4674 80.0454 82.7686C80.3302 83.0615 80.7005 83.208 81.1562 83.208C81.612 83.208 81.9741 83.0575 82.2427 82.7563C82.5112 82.4552 82.6455 82.0524 82.6455 81.5479V80.6445C82.6455 80.1562 82.5112 79.7616 82.2427 79.4604C81.9741 79.1593 81.6038 79.0088 81.1318 79.0088C80.6842 79.0088 80.3221 79.1593 80.0454 79.4604C79.7687 79.7534 79.6304 80.1644 79.6304 80.6934V81.5845ZM85.7827 90.6421C85.7827 89.5435 86.1408 88.6605 86.8569 87.9932C87.5731 87.3177 88.5008 86.98 89.6401 86.98C90.7957 86.98 91.7275 87.3136 92.4355 87.981C93.1517 88.6401 93.5098 89.5516 93.5098 90.7153V91.5942C93.5098 92.6847 93.1598 93.5677 92.46 94.2432C91.7601 94.9105 90.8283 95.2441 89.6646 95.2441C88.4927 95.2441 87.5527 94.9064 86.8447 94.231C86.1367 93.5555 85.7827 92.6603 85.7827 91.5454V90.6421ZM88.1265 91.5942C88.1265 92.0418 88.2729 92.4243 88.5659 92.7417C88.8589 93.0591 89.2251 93.2178 89.6646 93.2178C90.6574 93.2178 91.1538 92.6685 91.1538 91.5698V90.6421C91.1538 90.1538 91.0155 89.7632 90.7388 89.4702C90.4621 89.1691 90.0959 89.0186 89.6401 89.0186C89.1844 89.0186 88.8182 89.1691 88.5415 89.4702C88.2648 89.7632 88.1265 90.166 88.1265 90.6787V91.5942ZM81.8521 93.6694L80.1309 92.7417L88.8101 78.8501L90.5312 79.7778L81.8521 93.6694Z" fill="#00DDA3"/>
<path d="M52.2134 146.551H54.0933C54.9884 146.551 55.6517 146.327 56.083 145.879C56.5143 145.432 56.73 144.838 56.73 144.097C56.73 143.381 56.5143 142.824 56.083 142.425C55.6598 142.026 55.0739 141.827 54.3252 141.827C53.6497 141.827 53.0841 142.014 52.6284 142.388C52.1727 142.754 51.9448 143.235 51.9448 143.829H48.417C48.417 142.901 48.6652 142.071 49.1616 141.338C49.6662 140.598 50.366 140.02 51.2612 139.605C52.1646 139.19 53.1574 138.982 54.2397 138.982C56.1196 138.982 57.5926 139.434 58.6587 140.337C59.7248 141.233 60.2578 142.47 60.2578 144.048C60.2578 144.862 60.0096 145.611 59.5132 146.294C59.0168 146.978 58.3657 147.503 57.5601 147.869C58.561 148.227 59.3057 148.764 59.7939 149.48C60.2904 150.197 60.5386 151.043 60.5386 152.02C60.5386 153.598 59.9608 154.864 58.8052 155.816C57.6577 156.768 56.1359 157.244 54.2397 157.244C52.4657 157.244 51.013 156.776 49.8818 155.84C48.7588 154.904 48.1973 153.667 48.1973 152.129H51.7251C51.7251 152.797 51.9733 153.342 52.4697 153.765C52.9743 154.188 53.5928 154.4 54.3252 154.4C55.1634 154.4 55.8185 154.18 56.2905 153.741C56.7707 153.293 57.0107 152.703 57.0107 151.971C57.0107 150.197 56.0342 149.31 54.0811 149.31H52.2134V146.551ZM74.9429 149.651C74.9429 152.109 74.4342 153.989 73.417 155.291C72.3997 156.593 70.9105 157.244 68.9492 157.244C67.0124 157.244 65.5312 156.605 64.5059 155.328C63.4805 154.05 62.9556 152.219 62.9312 149.834V146.563C62.9312 144.081 63.4438 142.197 64.4692 140.911C65.5028 139.625 66.988 138.982 68.9248 138.982C70.8617 138.982 72.3428 139.621 73.3682 140.899C74.3936 142.168 74.9185 143.995 74.9429 146.38V149.651ZM71.415 146.062C71.415 144.59 71.2116 143.519 70.8047 142.852C70.4059 142.177 69.7793 141.839 68.9248 141.839C68.0947 141.839 67.4803 142.16 67.0815 142.803C66.6909 143.438 66.4834 144.435 66.459 145.794V150.115C66.459 151.564 66.6543 152.642 67.0449 153.35C67.4437 154.05 68.0785 154.4 68.9492 154.4C69.8118 154.4 70.4344 154.062 70.8169 153.387C71.1994 152.711 71.3988 151.678 71.415 150.286V146.062ZM77.2866 142.645C77.2866 141.554 77.6406 140.671 78.3486 139.996C79.0566 139.312 79.9844 138.97 81.1318 138.97C82.2956 138.97 83.2314 139.308 83.9395 139.983C84.6475 140.651 85.0015 141.558 85.0015 142.706V143.584C85.0015 144.683 84.6475 145.566 83.9395 146.233C83.2314 146.901 82.3037 147.234 81.1562 147.234C80.0007 147.234 79.0648 146.901 78.3486 146.233C77.6406 145.558 77.2866 144.651 77.2866 143.511V142.645ZM79.6304 143.584C79.6304 144.073 79.7687 144.467 80.0454 144.769C80.3302 145.062 80.7005 145.208 81.1562 145.208C81.612 145.208 81.9741 145.057 82.2427 144.756C82.5112 144.455 82.6455 144.052 82.6455 143.548V142.645C82.6455 142.156 82.5112 141.762 82.2427 141.46C81.9741 141.159 81.6038 141.009 81.1318 141.009C80.6842 141.009 80.3221 141.159 80.0454 141.46C79.7687 141.753 79.6304 142.164 79.6304 142.693V143.584ZM85.7827 152.642C85.7827 151.543 86.1408 150.66 86.8569 149.993C87.5731 149.318 88.5008 148.98 89.6401 148.98C90.7957 148.98 91.7275 149.314 92.4355 149.981C93.1517 150.64 93.5098 151.552 93.5098 152.715V153.594C93.5098 154.685 93.1598 155.568 92.46 156.243C91.7601 156.91 90.8283 157.244 89.6646 157.244C88.4927 157.244 87.5527 156.906 86.8447 156.231C86.1367 155.556 85.7827 154.66 85.7827 153.545V152.642ZM88.1265 153.594C88.1265 154.042 88.2729 154.424 88.5659 154.742C88.8589 155.059 89.2251 155.218 89.6646 155.218C90.6574 155.218 91.1538 154.668 91.1538 153.57V152.642C91.1538 152.154 91.0155 151.763 90.7388 151.47C90.4621 151.169 90.0959 151.019 89.6401 151.019C89.1844 151.019 88.8182 151.169 88.5415 151.47C88.2648 151.763 88.1265 152.166 88.1265 152.679V153.594ZM81.8521 155.669L80.1309 154.742L88.8101 140.85L90.5312 141.778L81.8521 155.669Z" fill="white"/>
<path d="M108.99 145V136.469H111.398C112.141 136.469 112.797 136.633 113.367 136.961C113.938 137.289 114.377 137.756 114.686 138.361C114.998 138.967 115.156 139.662 115.16 140.447V140.992C115.16 141.797 115.004 142.502 114.691 143.107C114.383 143.713 113.939 144.178 113.361 144.502C112.787 144.826 112.117 144.992 111.352 145H108.99ZM110.115 137.395V144.08H111.299C112.166 144.08 112.84 143.811 113.32 143.271C113.805 142.732 114.047 141.965 114.047 140.969V140.471C114.047 139.502 113.818 138.75 113.361 138.215C112.908 137.676 112.264 137.402 111.428 137.395H110.115ZM116.408 141.771C116.408 141.15 116.529 140.592 116.771 140.096C117.018 139.6 117.357 139.217 117.791 138.947C118.229 138.678 118.727 138.543 119.285 138.543C120.148 138.543 120.846 138.842 121.377 139.439C121.912 140.037 122.18 140.832 122.18 141.824V141.9C122.18 142.518 122.061 143.072 121.822 143.564C121.588 144.053 121.25 144.434 120.809 144.707C120.371 144.98 119.867 145.117 119.297 145.117C118.438 145.117 117.74 144.818 117.205 144.221C116.674 143.623 116.408 142.832 116.408 141.848V141.771ZM117.498 141.9C117.498 142.604 117.66 143.168 117.984 143.594C118.312 144.02 118.75 144.232 119.297 144.232C119.848 144.232 120.285 144.018 120.609 143.588C120.934 143.154 121.096 142.549 121.096 141.771C121.096 141.076 120.93 140.514 120.598 140.084C120.27 139.65 119.832 139.434 119.285 139.434C118.75 139.434 118.318 139.646 117.99 140.072C117.662 140.498 117.498 141.107 117.498 141.9ZM124.564 138.66L124.6 139.457C125.084 138.848 125.717 138.543 126.498 138.543C127.838 138.543 128.514 139.299 128.525 140.811V145H127.441V140.805C127.438 140.348 127.332 140.01 127.125 139.791C126.922 139.572 126.604 139.463 126.17 139.463C125.818 139.463 125.51 139.557 125.244 139.744C124.979 139.932 124.771 140.178 124.623 140.482V145H123.539V138.66H124.564ZM134.074 145C134.012 144.875 133.961 144.652 133.922 144.332C133.418 144.855 132.816 145.117 132.117 145.117C131.492 145.117 130.979 144.941 130.576 144.59C130.178 144.234 129.979 143.785 129.979 143.242C129.979 142.582 130.229 142.07 130.729 141.707C131.232 141.34 131.939 141.156 132.85 141.156H133.904V140.658C133.904 140.279 133.791 139.979 133.564 139.756C133.338 139.529 133.004 139.416 132.562 139.416C132.176 139.416 131.852 139.514 131.59 139.709C131.328 139.904 131.197 140.141 131.197 140.418H130.107C130.107 140.102 130.219 139.797 130.441 139.504C130.668 139.207 130.973 138.973 131.355 138.801C131.742 138.629 132.166 138.543 132.627 138.543C133.357 138.543 133.93 138.727 134.344 139.094C134.758 139.457 134.973 139.959 134.988 140.6V143.518C134.988 144.1 135.062 144.562 135.211 144.906V145H134.074ZM132.275 144.174C132.615 144.174 132.938 144.086 133.242 143.91C133.547 143.734 133.768 143.506 133.904 143.225V141.924H133.055C131.727 141.924 131.062 142.312 131.062 143.09C131.062 143.43 131.176 143.695 131.402 143.887C131.629 144.078 131.92 144.174 132.275 144.174ZM139.23 144.232C139.617 144.232 139.955 144.115 140.244 143.881C140.533 143.646 140.693 143.354 140.725 143.002H141.75C141.73 143.365 141.605 143.711 141.375 144.039C141.145 144.367 140.836 144.629 140.449 144.824C140.066 145.02 139.66 145.117 139.23 145.117C138.367 145.117 137.68 144.83 137.168 144.256C136.66 143.678 136.406 142.889 136.406 141.889V141.707C136.406 141.09 136.52 140.541 136.746 140.061C136.973 139.58 137.297 139.207 137.719 138.941C138.145 138.676 138.646 138.543 139.225 138.543C139.936 138.543 140.525 138.756 140.994 139.182C141.467 139.607 141.719 140.16 141.75 140.84H140.725C140.693 140.43 140.537 140.094 140.256 139.832C139.979 139.566 139.635 139.434 139.225 139.434C138.674 139.434 138.246 139.633 137.941 140.031C137.641 140.426 137.49 140.998 137.49 141.748V141.953C137.49 142.684 137.641 143.246 137.941 143.641C138.242 144.035 138.672 144.232 139.23 144.232ZM144.146 145H143.062V138.66H144.146V145ZM142.975 136.979C142.975 136.803 143.027 136.654 143.133 136.533C143.242 136.412 143.402 136.352 143.613 136.352C143.824 136.352 143.984 136.412 144.094 136.533C144.203 136.654 144.258 136.803 144.258 136.979C144.258 137.154 144.203 137.301 144.094 137.418C143.984 137.535 143.824 137.594 143.613 137.594C143.402 137.594 143.242 137.535 143.133 137.418C143.027 137.301 142.975 137.154 142.975 136.979ZM145.6 141.771C145.6 141.15 145.721 140.592 145.963 140.096C146.209 139.6 146.549 139.217 146.982 138.947C147.42 138.678 147.918 138.543 148.477 138.543C149.34 138.543 150.037 138.842 150.568 139.439C151.104 140.037 151.371 140.832 151.371 141.824V141.9C151.371 142.518 151.252 143.072 151.014 143.564C150.779 144.053 150.441 144.434 150 144.707C149.562 144.98 149.059 145.117 148.488 145.117C147.629 145.117 146.932 144.818 146.396 144.221C145.865 143.623 145.6 142.832 145.6 141.848V141.771ZM146.689 141.9C146.689 142.604 146.852 143.168 147.176 143.594C147.504 144.02 147.941 144.232 148.488 144.232C149.039 144.232 149.477 144.018 149.801 143.588C150.125 143.154 150.287 142.549 150.287 141.771C150.287 141.076 150.121 140.514 149.789 140.084C149.461 139.65 149.023 139.434 148.477 139.434C147.941 139.434 147.51 139.646 147.182 140.072C146.854 140.498 146.689 141.107 146.689 141.9ZM153.756 138.66L153.791 139.457C154.275 138.848 154.908 138.543 155.689 138.543C157.029 138.543 157.705 139.299 157.717 140.811V145H156.633V140.805C156.629 140.348 156.523 140.01 156.316 139.791C156.113 139.572 155.795 139.463 155.361 139.463C155.01 139.463 154.701 139.557 154.436 139.744C154.17 139.932 153.963 140.178 153.814 140.482V145H152.73V138.66H153.756ZM161.982 145.117C161.123 145.117 160.424 144.836 159.885 144.273C159.346 143.707 159.076 142.951 159.076 142.006V141.807C159.076 141.178 159.195 140.617 159.434 140.125C159.676 139.629 160.012 139.242 160.441 138.965C160.875 138.684 161.344 138.543 161.848 138.543C162.672 138.543 163.312 138.814 163.77 139.357C164.227 139.9 164.455 140.678 164.455 141.689V142.141H160.16C160.176 142.766 160.357 143.271 160.705 143.658C161.057 144.041 161.502 144.232 162.041 144.232C162.424 144.232 162.748 144.154 163.014 143.998C163.279 143.842 163.512 143.635 163.711 143.377L164.373 143.893C163.842 144.709 163.045 145.117 161.982 145.117ZM161.848 139.434C161.41 139.434 161.043 139.594 160.746 139.914C160.449 140.23 160.266 140.676 160.195 141.25H163.371V141.168C163.34 140.617 163.191 140.191 162.926 139.891C162.66 139.586 162.301 139.434 161.848 139.434ZM169.406 143.318C169.406 143.025 169.295 142.799 169.072 142.639C168.854 142.475 168.469 142.334 167.918 142.217C167.371 142.1 166.936 141.959 166.611 141.795C166.291 141.631 166.053 141.436 165.896 141.209C165.744 140.982 165.668 140.713 165.668 140.4C165.668 139.881 165.887 139.441 166.324 139.082C166.766 138.723 167.328 138.543 168.012 138.543C168.73 138.543 169.312 138.729 169.758 139.1C170.207 139.471 170.432 139.945 170.432 140.523H169.342C169.342 140.227 169.215 139.971 168.961 139.756C168.711 139.541 168.395 139.434 168.012 139.434C167.617 139.434 167.309 139.52 167.086 139.691C166.863 139.863 166.752 140.088 166.752 140.365C166.752 140.627 166.855 140.824 167.062 140.957C167.27 141.09 167.643 141.217 168.182 141.338C168.725 141.459 169.164 141.604 169.5 141.771C169.836 141.939 170.084 142.143 170.244 142.381C170.408 142.615 170.49 142.902 170.49 143.242C170.49 143.809 170.264 144.264 169.811 144.607C169.357 144.947 168.77 145.117 168.047 145.117C167.539 145.117 167.09 145.027 166.699 144.848C166.309 144.668 166.002 144.418 165.779 144.098C165.561 143.773 165.451 143.424 165.451 143.049H166.535C166.555 143.412 166.699 143.701 166.969 143.916C167.242 144.127 167.602 144.232 168.047 144.232C168.457 144.232 168.785 144.15 169.031 143.986C169.281 143.818 169.406 143.596 169.406 143.318ZM114.176 155.9C114.176 156.865 113.955 157.643 113.514 158.232C113.072 158.822 112.475 159.117 111.721 159.117C110.951 159.117 110.346 158.873 109.904 158.385V161.438H108.82V152.66H109.811L109.863 153.363C110.305 152.816 110.918 152.543 111.703 152.543C112.465 152.543 113.066 152.83 113.508 153.404C113.953 153.979 114.176 154.777 114.176 155.801V155.9ZM113.092 155.777C113.092 155.062 112.939 154.498 112.635 154.084C112.33 153.67 111.912 153.463 111.381 153.463C110.725 153.463 110.232 153.754 109.904 154.336V157.365C110.229 157.943 110.725 158.232 111.393 158.232C111.912 158.232 112.324 158.027 112.629 157.617C112.938 157.203 113.092 156.59 113.092 155.777ZM118.189 159.117C117.33 159.117 116.631 158.836 116.092 158.273C115.553 157.707 115.283 156.951 115.283 156.006V155.807C115.283 155.178 115.402 154.617 115.641 154.125C115.883 153.629 116.219 153.242 116.648 152.965C117.082 152.684 117.551 152.543 118.055 152.543C118.879 152.543 119.52 152.814 119.977 153.357C120.434 153.9 120.662 154.678 120.662 155.689V156.141H116.367C116.383 156.766 116.564 157.271 116.912 157.658C117.264 158.041 117.709 158.232 118.248 158.232C118.631 158.232 118.955 158.154 119.221 157.998C119.486 157.842 119.719 157.635 119.918 157.377L120.58 157.893C120.049 158.709 119.252 159.117 118.189 159.117ZM118.055 153.434C117.617 153.434 117.25 153.594 116.953 153.914C116.656 154.23 116.473 154.676 116.402 155.25H119.578V155.168C119.547 154.617 119.398 154.191 119.133 153.891C118.867 153.586 118.508 153.434 118.055 153.434ZM124.986 153.633C124.822 153.605 124.645 153.592 124.453 153.592C123.742 153.592 123.26 153.895 123.006 154.5V159H121.922V152.66H122.977L122.994 153.393C123.35 152.826 123.854 152.543 124.506 152.543C124.717 152.543 124.877 152.57 124.986 152.625V153.633ZM127.166 159H126.082V152.66H127.166V159ZM125.994 150.979C125.994 150.803 126.047 150.654 126.152 150.533C126.262 150.412 126.422 150.352 126.633 150.352C126.844 150.352 127.004 150.412 127.113 150.533C127.223 150.654 127.277 150.803 127.277 150.979C127.277 151.154 127.223 151.301 127.113 151.418C127.004 151.535 126.844 151.594 126.633 151.594C126.422 151.594 126.262 151.535 126.152 151.418C126.047 151.301 125.994 151.154 125.994 150.979ZM128.619 155.771C128.619 155.15 128.74 154.592 128.982 154.096C129.229 153.6 129.568 153.217 130.002 152.947C130.439 152.678 130.938 152.543 131.496 152.543C132.359 152.543 133.057 152.842 133.588 153.439C134.123 154.037 134.391 154.832 134.391 155.824V155.9C134.391 156.518 134.271 157.072 134.033 157.564C133.799 158.053 133.461 158.434 133.02 158.707C132.582 158.98 132.078 159.117 131.508 159.117C130.648 159.117 129.951 158.818 129.416 158.221C128.885 157.623 128.619 156.832 128.619 155.848V155.771ZM129.709 155.9C129.709 156.604 129.871 157.168 130.195 157.594C130.523 158.02 130.961 158.232 131.508 158.232C132.059 158.232 132.496 158.018 132.82 157.588C133.145 157.154 133.307 156.549 133.307 155.771C133.307 155.076 133.141 154.514 132.809 154.084C132.48 153.65 132.043 153.434 131.496 153.434C130.961 153.434 130.529 153.646 130.201 154.072C129.873 154.498 129.709 155.107 129.709 155.9ZM135.486 155.777C135.486 154.805 135.717 154.023 136.178 153.434C136.639 152.84 137.242 152.543 137.988 152.543C138.73 152.543 139.318 152.797 139.752 153.305V150H140.836V159H139.84L139.787 158.32C139.354 158.852 138.75 159.117 137.977 159.117C137.242 159.117 136.643 158.816 136.178 158.215C135.717 157.613 135.486 156.828 135.486 155.859V155.777ZM136.57 155.9C136.57 156.619 136.719 157.182 137.016 157.588C137.312 157.994 137.723 158.197 138.246 158.197C138.934 158.197 139.436 157.889 139.752 157.271V154.359C139.428 153.762 138.93 153.463 138.258 153.463C137.727 153.463 137.312 153.668 137.016 154.078C136.719 154.488 136.57 155.096 136.57 155.9ZM143.701 159H142.617V152.66H143.701V159ZM142.529 150.979C142.529 150.803 142.582 150.654 142.688 150.533C142.797 150.412 142.957 150.352 143.168 150.352C143.379 150.352 143.539 150.412 143.648 150.533C143.758 150.654 143.812 150.803 143.812 150.979C143.812 151.154 143.758 151.301 143.648 151.418C143.539 151.535 143.379 151.594 143.168 151.594C142.957 151.594 142.797 151.535 142.688 151.418C142.582 151.301 142.529 151.154 142.529 150.979ZM147.984 158.232C148.371 158.232 148.709 158.115 148.998 157.881C149.287 157.646 149.447 157.354 149.479 157.002H150.504C150.484 157.365 150.359 157.711 150.129 158.039C149.898 158.367 149.59 158.629 149.203 158.824C148.82 159.02 148.414 159.117 147.984 159.117C147.121 159.117 146.434 158.83 145.922 158.256C145.414 157.678 145.16 156.889 145.16 155.889V155.707C145.16 155.09 145.273 154.541 145.5 154.061C145.727 153.58 146.051 153.207 146.473 152.941C146.898 152.676 147.4 152.543 147.979 152.543C148.689 152.543 149.279 152.756 149.748 153.182C150.221 153.607 150.473 154.16 150.504 154.84H149.479C149.447 154.43 149.291 154.094 149.01 153.832C148.732 153.566 148.389 153.434 147.979 153.434C147.428 153.434 147 153.633 146.695 154.031C146.395 154.426 146.244 154.998 146.244 155.748V155.953C146.244 156.684 146.395 157.246 146.695 157.641C146.996 158.035 147.426 158.232 147.984 158.232ZM155.637 159C155.574 158.875 155.523 158.652 155.484 158.332C154.98 158.855 154.379 159.117 153.68 159.117C153.055 159.117 152.541 158.941 152.139 158.59C151.74 158.234 151.541 157.785 151.541 157.242C151.541 156.582 151.791 156.07 152.291 155.707C152.795 155.34 153.502 155.156 154.412 155.156H155.467V154.658C155.467 154.279 155.354 153.979 155.127 153.756C154.9 153.529 154.566 153.416 154.125 153.416C153.738 153.416 153.414 153.514 153.152 153.709C152.891 153.904 152.76 154.141 152.76 154.418H151.67C151.67 154.102 151.781 153.797 152.004 153.504C152.23 153.207 152.535 152.973 152.918 152.801C153.305 152.629 153.729 152.543 154.189 152.543C154.92 152.543 155.492 152.727 155.906 153.094C156.32 153.457 156.535 153.959 156.551 154.6V157.518C156.551 158.1 156.625 158.562 156.773 158.906V159H155.637ZM153.838 158.174C154.178 158.174 154.5 158.086 154.805 157.91C155.109 157.734 155.33 157.506 155.467 157.225V155.924H154.617C153.289 155.924 152.625 156.312 152.625 157.09C152.625 157.43 152.738 157.695 152.965 157.887C153.191 158.078 153.482 158.174 153.838 158.174ZM161.941 157.318C161.941 157.025 161.83 156.799 161.607 156.639C161.389 156.475 161.004 156.334 160.453 156.217C159.906 156.1 159.471 155.959 159.146 155.795C158.826 155.631 158.588 155.436 158.432 155.209C158.279 154.982 158.203 154.713 158.203 154.4C158.203 153.881 158.422 153.441 158.859 153.082C159.301 152.723 159.863 152.543 160.547 152.543C161.266 152.543 161.848 152.729 162.293 153.1C162.742 153.471 162.967 153.945 162.967 154.523H161.877C161.877 154.227 161.75 153.971 161.496 153.756C161.246 153.541 160.93 153.434 160.547 153.434C160.152 153.434 159.844 153.52 159.621 153.691C159.398 153.863 159.287 154.088 159.287 154.365C159.287 154.627 159.391 154.824 159.598 154.957C159.805 155.09 160.178 155.217 160.717 155.338C161.26 155.459 161.699 155.604 162.035 155.771C162.371 155.939 162.619 156.143 162.779 156.381C162.943 156.615 163.025 156.902 163.025 157.242C163.025 157.809 162.799 158.264 162.346 158.607C161.893 158.947 161.305 159.117 160.582 159.117C160.074 159.117 159.625 159.027 159.234 158.848C158.844 158.668 158.537 158.418 158.314 158.098C158.096 157.773 157.986 157.424 157.986 157.049H159.07C159.09 157.412 159.234 157.701 159.504 157.916C159.777 158.127 160.137 158.232 160.582 158.232C160.992 158.232 161.32 158.15 161.566 157.986C161.816 157.818 161.941 157.596 161.941 157.318Z" fill="white"/>
<path d="M61.8071 221H49.6245V218.583L55.374 212.455C56.1634 211.592 56.7453 210.84 57.1196 210.197C57.5021 209.554 57.6934 208.944 57.6934 208.366C57.6934 207.576 57.494 206.958 57.0952 206.51C56.6965 206.055 56.1268 205.827 55.3862 205.827C54.5887 205.827 53.958 206.103 53.4941 206.657C53.0384 207.202 52.8105 207.922 52.8105 208.817H49.2705C49.2705 207.735 49.5269 206.746 50.0396 205.851C50.5604 204.956 51.2928 204.256 52.2368 203.751C53.1808 203.239 54.251 202.982 55.4473 202.982C57.2783 202.982 58.6984 203.422 59.7075 204.301C60.7248 205.18 61.2334 206.421 61.2334 208.024C61.2334 208.903 61.0055 209.798 60.5498 210.709C60.0941 211.621 59.3128 212.683 58.2061 213.896L54.1655 218.156H61.8071V221ZM75.9429 213.651C75.9429 216.109 75.4342 217.989 74.417 219.291C73.3997 220.593 71.9105 221.244 69.9492 221.244C68.0124 221.244 66.5312 220.605 65.5059 219.328C64.4805 218.05 63.9556 216.219 63.9312 213.834V210.563C63.9312 208.081 64.4438 206.197 65.4692 204.911C66.5028 203.625 67.988 202.982 69.9248 202.982C71.8617 202.982 73.3428 203.621 74.3682 204.899C75.3936 206.168 75.9185 207.995 75.9429 210.38V213.651ZM72.415 210.062C72.415 208.59 72.2116 207.519 71.8047 206.852C71.4059 206.177 70.7793 205.839 69.9248 205.839C69.0947 205.839 68.4803 206.16 68.0815 206.803C67.6909 207.438 67.4834 208.435 67.459 209.794V214.115C67.459 215.564 67.6543 216.642 68.0449 217.35C68.4437 218.05 69.0785 218.4 69.9492 218.4C70.8118 218.4 71.4344 218.062 71.8169 217.387C72.1994 216.711 72.3988 215.678 72.415 214.286V210.062ZM78.2866 206.645C78.2866 205.554 78.6406 204.671 79.3486 203.996C80.0566 203.312 80.9844 202.97 82.1318 202.97C83.2956 202.97 84.2314 203.308 84.9395 203.983C85.6475 204.651 86.0015 205.558 86.0015 206.706V207.584C86.0015 208.683 85.6475 209.566 84.9395 210.233C84.2314 210.901 83.3037 211.234 82.1562 211.234C81.0007 211.234 80.0648 210.901 79.3486 210.233C78.6406 209.558 78.2866 208.651 78.2866 207.511V206.645ZM80.6304 207.584C80.6304 208.073 80.7687 208.467 81.0454 208.769C81.3302 209.062 81.7005 209.208 82.1562 209.208C82.612 209.208 82.9741 209.057 83.2427 208.756C83.5112 208.455 83.6455 208.052 83.6455 207.548V206.645C83.6455 206.156 83.5112 205.762 83.2427 205.46C82.9741 205.159 82.6038 205.009 82.1318 205.009C81.6842 205.009 81.3221 205.159 81.0454 205.46C80.7687 205.753 80.6304 206.164 80.6304 206.693V207.584ZM86.7827 216.642C86.7827 215.543 87.1408 214.66 87.8569 213.993C88.5731 213.318 89.5008 212.98 90.6401 212.98C91.7957 212.98 92.7275 213.314 93.4355 213.981C94.1517 214.64 94.5098 215.552 94.5098 216.715V217.594C94.5098 218.685 94.1598 219.568 93.46 220.243C92.7601 220.91 91.8283 221.244 90.6646 221.244C89.4927 221.244 88.5527 220.906 87.8447 220.231C87.1367 219.556 86.7827 218.66 86.7827 217.545V216.642ZM89.1265 217.594C89.1265 218.042 89.2729 218.424 89.5659 218.742C89.8589 219.059 90.2251 219.218 90.6646 219.218C91.6574 219.218 92.1538 218.668 92.1538 217.57V216.642C92.1538 216.154 92.0155 215.763 91.7388 215.47C91.4621 215.169 91.0959 215.019 90.6401 215.019C90.1844 215.019 89.8182 215.169 89.5415 215.47C89.2648 215.763 89.1265 216.166 89.1265 216.679V217.594ZM82.8521 219.669L81.1309 218.742L89.8101 204.85L91.5312 205.778L82.8521 219.669Z" fill="#A4DD00"/>
<path d="M112.119 208.549H110.115V212H108.984V203.469H111.809C112.77 203.469 113.508 203.688 114.023 204.125C114.543 204.562 114.803 205.199 114.803 206.035C114.803 206.566 114.658 207.029 114.369 207.424C114.084 207.818 113.686 208.113 113.174 208.309L115.178 211.93V212H113.971L112.119 208.549ZM110.115 207.629H111.844C112.402 207.629 112.846 207.484 113.174 207.195C113.506 206.906 113.672 206.52 113.672 206.035C113.672 205.508 113.514 205.104 113.197 204.822C112.885 204.541 112.432 204.398 111.838 204.395H110.115V207.629ZM118.846 212.117C117.986 212.117 117.287 211.836 116.748 211.273C116.209 210.707 115.939 209.951 115.939 209.006V208.807C115.939 208.178 116.059 207.617 116.297 207.125C116.539 206.629 116.875 206.242 117.305 205.965C117.738 205.684 118.207 205.543 118.711 205.543C119.535 205.543 120.176 205.814 120.633 206.357C121.09 206.9 121.318 207.678 121.318 208.689V209.141H117.023C117.039 209.766 117.221 210.271 117.568 210.658C117.92 211.041 118.365 211.232 118.904 211.232C119.287 211.232 119.611 211.154 119.877 210.998C120.143 210.842 120.375 210.635 120.574 210.377L121.236 210.893C120.705 211.709 119.908 212.117 118.846 212.117ZM118.711 206.434C118.273 206.434 117.906 206.594 117.609 206.914C117.312 207.23 117.129 207.676 117.059 208.25H120.234V208.168C120.203 207.617 120.055 207.191 119.789 206.891C119.523 206.586 119.164 206.434 118.711 206.434ZM122.314 208.777C122.314 207.805 122.545 207.023 123.006 206.434C123.467 205.84 124.07 205.543 124.816 205.543C125.559 205.543 126.146 205.797 126.58 206.305V203H127.664V212H126.668L126.615 211.32C126.182 211.852 125.578 212.117 124.805 212.117C124.07 212.117 123.471 211.816 123.006 211.215C122.545 210.613 122.314 209.828 122.314 208.859V208.777ZM123.398 208.9C123.398 209.619 123.547 210.182 123.844 210.588C124.141 210.994 124.551 211.197 125.074 211.197C125.762 211.197 126.264 210.889 126.58 210.271V207.359C126.256 206.762 125.758 206.463 125.086 206.463C124.555 206.463 124.141 206.668 123.844 207.078C123.547 207.488 123.398 208.096 123.398 208.9ZM129.064 208.771C129.064 208.15 129.186 207.592 129.428 207.096C129.674 206.6 130.014 206.217 130.447 205.947C130.885 205.678 131.383 205.543 131.941 205.543C132.805 205.543 133.502 205.842 134.033 206.439C134.568 207.037 134.836 207.832 134.836 208.824V208.9C134.836 209.518 134.717 210.072 134.479 210.564C134.244 211.053 133.906 211.434 133.465 211.707C133.027 211.98 132.523 212.117 131.953 212.117C131.094 212.117 130.396 211.818 129.861 211.221C129.33 210.623 129.064 209.832 129.064 208.848V208.771ZM130.154 208.9C130.154 209.604 130.316 210.168 130.641 210.594C130.969 211.02 131.406 211.232 131.953 211.232C132.504 211.232 132.941 211.018 133.266 210.588C133.59 210.154 133.752 209.549 133.752 208.771C133.752 208.076 133.586 207.514 133.254 207.084C132.926 206.65 132.488 206.434 131.941 206.434C131.406 206.434 130.975 206.646 130.646 207.072C130.318 207.498 130.154 208.107 130.154 208.9ZM137.221 205.66L137.256 206.457C137.74 205.848 138.373 205.543 139.154 205.543C140.494 205.543 141.17 206.299 141.182 207.811V212H140.098V207.805C140.094 207.348 139.988 207.01 139.781 206.791C139.578 206.572 139.26 206.463 138.826 206.463C138.475 206.463 138.166 206.557 137.9 206.744C137.635 206.932 137.428 207.178 137.279 207.482V212H136.195V205.66H137.221ZM142.553 208.777C142.553 207.805 142.783 207.023 143.244 206.434C143.705 205.84 144.309 205.543 145.055 205.543C145.797 205.543 146.385 205.797 146.818 206.305V203H147.902V212H146.906L146.854 211.32C146.42 211.852 145.816 212.117 145.043 212.117C144.309 212.117 143.709 211.816 143.244 211.215C142.783 210.613 142.553 209.828 142.553 208.859V208.777ZM143.637 208.9C143.637 209.619 143.785 210.182 144.082 210.588C144.379 210.994 144.789 211.197 145.312 211.197C146 211.197 146.502 210.889 146.818 210.271V207.359C146.494 206.762 145.996 206.463 145.324 206.463C144.793 206.463 144.379 206.668 144.082 207.078C143.785 207.488 143.637 208.096 143.637 208.9ZM152.221 212.117C151.361 212.117 150.662 211.836 150.123 211.273C149.584 210.707 149.314 209.951 149.314 209.006V208.807C149.314 208.178 149.434 207.617 149.672 207.125C149.914 206.629 150.25 206.242 150.68 205.965C151.113 205.684 151.582 205.543 152.086 205.543C152.91 205.543 153.551 205.814 154.008 206.357C154.465 206.9 154.693 207.678 154.693 208.689V209.141H150.398C150.414 209.766 150.596 210.271 150.943 210.658C151.295 211.041 151.74 211.232 152.279 211.232C152.662 211.232 152.986 211.154 153.252 210.998C153.518 210.842 153.75 210.635 153.949 210.377L154.611 210.893C154.08 211.709 153.283 212.117 152.221 212.117ZM152.086 206.434C151.648 206.434 151.281 206.594 150.984 206.914C150.688 207.23 150.504 207.676 150.434 208.25H153.609V208.168C153.578 207.617 153.43 207.191 153.164 206.891C152.898 206.586 152.539 206.434 152.086 206.434ZM155.666 208.771C155.666 208.15 155.787 207.592 156.029 207.096C156.275 206.6 156.615 206.217 157.049 205.947C157.486 205.678 157.984 205.543 158.543 205.543C159.406 205.543 160.104 205.842 160.635 206.439C161.17 207.037 161.438 207.832 161.438 208.824V208.9C161.438 209.518 161.318 210.072 161.08 210.564C160.846 211.053 160.508 211.434 160.066 211.707C159.629 211.98 159.125 212.117 158.555 212.117C157.695 212.117 156.998 211.818 156.463 211.221C155.932 210.623 155.666 209.832 155.666 208.848V208.771ZM156.756 208.9C156.756 209.604 156.918 210.168 157.242 210.594C157.57 211.02 158.008 211.232 158.555 211.232C159.105 211.232 159.543 211.018 159.867 210.588C160.191 210.154 160.354 209.549 160.354 208.771C160.354 208.076 160.188 207.514 159.855 207.084C159.527 206.65 159.09 206.434 158.543 206.434C158.008 206.434 157.576 206.646 157.248 207.072C156.92 207.498 156.756 208.107 156.756 208.9ZM165.51 208.777C165.51 207.805 165.74 207.023 166.201 206.434C166.662 205.84 167.266 205.543 168.012 205.543C168.754 205.543 169.342 205.797 169.775 206.305V203H170.859V212H169.863L169.811 211.32C169.377 211.852 168.773 212.117 168 212.117C167.266 212.117 166.666 211.816 166.201 211.215C165.74 210.613 165.51 209.828 165.51 208.859V208.777ZM166.594 208.9C166.594 209.619 166.742 210.182 167.039 210.588C167.336 210.994 167.746 211.197 168.27 211.197C168.957 211.197 169.459 210.889 169.775 210.271V207.359C169.451 206.762 168.953 206.463 168.281 206.463C167.75 206.463 167.336 206.668 167.039 207.078C166.742 207.488 166.594 208.096 166.594 208.9ZM175.178 212.117C174.318 212.117 173.619 211.836 173.08 211.273C172.541 210.707 172.271 209.951 172.271 209.006V208.807C172.271 208.178 172.391 207.617 172.629 207.125C172.871 206.629 173.207 206.242 173.637 205.965C174.07 205.684 174.539 205.543 175.043 205.543C175.867 205.543 176.508 205.814 176.965 206.357C177.422 206.9 177.65 207.678 177.65 208.689V209.141H173.355C173.371 209.766 173.553 210.271 173.9 210.658C174.252 211.041 174.697 211.232 175.236 211.232C175.619 211.232 175.943 211.154 176.209 210.998C176.475 210.842 176.707 210.635 176.906 210.377L177.568 210.893C177.037 211.709 176.24 212.117 175.178 212.117ZM175.043 206.434C174.605 206.434 174.238 206.594 173.941 206.914C173.645 207.23 173.461 207.676 173.391 208.25H176.566V208.168C176.535 207.617 176.387 207.191 176.121 206.891C175.855 206.586 175.496 206.434 175.043 206.434ZM109.998 226H108.914V217H109.998V226ZM115.652 226C115.59 225.875 115.539 225.652 115.5 225.332C114.996 225.855 114.395 226.117 113.695 226.117C113.07 226.117 112.557 225.941 112.154 225.59C111.756 225.234 111.557 224.785 111.557 224.242C111.557 223.582 111.807 223.07 112.307 222.707C112.811 222.34 113.518 222.156 114.428 222.156H115.482V221.658C115.482 221.279 115.369 220.979 115.143 220.756C114.916 220.529 114.582 220.416 114.141 220.416C113.754 220.416 113.43 220.514 113.168 220.709C112.906 220.904 112.775 221.141 112.775 221.418H111.686C111.686 221.102 111.797 220.797 112.02 220.504C112.246 220.207 112.551 219.973 112.934 219.801C113.32 219.629 113.744 219.543 114.205 219.543C114.936 219.543 115.508 219.727 115.922 220.094C116.336 220.457 116.551 220.959 116.566 221.6V224.518C116.566 225.1 116.641 225.562 116.789 225.906V226H115.652ZM113.854 225.174C114.193 225.174 114.516 225.086 114.82 224.91C115.125 224.734 115.346 224.506 115.482 224.225V222.924H114.633C113.305 222.924 112.641 223.312 112.641 224.09C112.641 224.43 112.754 224.695 112.98 224.887C113.207 225.078 113.498 225.174 113.854 225.174ZM121.957 224.318C121.957 224.025 121.846 223.799 121.623 223.639C121.404 223.475 121.02 223.334 120.469 223.217C119.922 223.1 119.486 222.959 119.162 222.795C118.842 222.631 118.604 222.436 118.447 222.209C118.295 221.982 118.219 221.713 118.219 221.4C118.219 220.881 118.438 220.441 118.875 220.082C119.316 219.723 119.879 219.543 120.562 219.543C121.281 219.543 121.863 219.729 122.309 220.1C122.758 220.471 122.982 220.945 122.982 221.523H121.893C121.893 221.227 121.766 220.971 121.512 220.756C121.262 220.541 120.945 220.434 120.562 220.434C120.168 220.434 119.859 220.52 119.637 220.691C119.414 220.863 119.303 221.088 119.303 221.365C119.303 221.627 119.406 221.824 119.613 221.957C119.82 222.09 120.193 222.217 120.732 222.338C121.275 222.459 121.715 222.604 122.051 222.771C122.387 222.939 122.635 223.143 122.795 223.381C122.959 223.615 123.041 223.902 123.041 224.242C123.041 224.809 122.814 225.264 122.361 225.607C121.908 225.947 121.32 226.117 120.598 226.117C120.09 226.117 119.641 226.027 119.25 225.848C118.859 225.668 118.553 225.418 118.33 225.098C118.111 224.773 118.002 224.424 118.002 224.049H119.086C119.105 224.412 119.25 224.701 119.52 224.916C119.793 225.127 120.152 225.232 120.598 225.232C121.008 225.232 121.336 225.15 121.582 224.986C121.832 224.818 121.957 224.596 121.957 224.318ZM129.973 225.232C130.359 225.232 130.697 225.115 130.986 224.881C131.275 224.646 131.436 224.354 131.467 224.002H132.492C132.473 224.365 132.348 224.711 132.117 225.039C131.887 225.367 131.578 225.629 131.191 225.824C130.809 226.02 130.402 226.117 129.973 226.117C129.109 226.117 128.422 225.83 127.91 225.256C127.402 224.678 127.148 223.889 127.148 222.889V222.707C127.148 222.09 127.262 221.541 127.488 221.061C127.715 220.58 128.039 220.207 128.461 219.941C128.887 219.676 129.389 219.543 129.967 219.543C130.678 219.543 131.268 219.756 131.736 220.182C132.209 220.607 132.461 221.16 132.492 221.84H131.467C131.436 221.43 131.279 221.094 130.998 220.832C130.721 220.566 130.377 220.434 129.967 220.434C129.416 220.434 128.988 220.633 128.684 221.031C128.383 221.426 128.232 221.998 128.232 222.748V222.953C128.232 223.684 128.383 224.246 128.684 224.641C128.984 225.035 129.414 225.232 129.973 225.232ZM133.424 222.771C133.424 222.15 133.545 221.592 133.787 221.096C134.033 220.6 134.373 220.217 134.807 219.947C135.244 219.678 135.742 219.543 136.301 219.543C137.164 219.543 137.861 219.842 138.393 220.439C138.928 221.037 139.195 221.832 139.195 222.824V222.9C139.195 223.518 139.076 224.072 138.838 224.564C138.604 225.053 138.266 225.434 137.824 225.707C137.387 225.98 136.883 226.117 136.312 226.117C135.453 226.117 134.756 225.818 134.221 225.221C133.689 224.623 133.424 223.832 133.424 222.848V222.771ZM134.514 222.9C134.514 223.604 134.676 224.168 135 224.594C135.328 225.02 135.766 225.232 136.312 225.232C136.863 225.232 137.301 225.018 137.625 224.588C137.949 224.154 138.111 223.549 138.111 222.771C138.111 222.076 137.945 221.514 137.613 221.084C137.285 220.65 136.848 220.434 136.301 220.434C135.766 220.434 135.334 220.646 135.006 221.072C134.678 221.498 134.514 222.107 134.514 222.9ZM141.574 219.66L141.604 220.363C142.068 219.816 142.695 219.543 143.484 219.543C144.371 219.543 144.975 219.883 145.295 220.562C145.506 220.258 145.779 220.012 146.115 219.824C146.455 219.637 146.855 219.543 147.316 219.543C148.707 219.543 149.414 220.279 149.438 221.752V226H148.354V221.816C148.354 221.363 148.25 221.025 148.043 220.803C147.836 220.576 147.488 220.463 147 220.463C146.598 220.463 146.264 220.584 145.998 220.826C145.732 221.064 145.578 221.387 145.535 221.793V226H144.445V221.846C144.445 220.924 143.994 220.463 143.092 220.463C142.381 220.463 141.895 220.766 141.633 221.371V226H140.549V219.66H141.574ZM156.434 222.9C156.434 223.865 156.213 224.643 155.771 225.232C155.33 225.822 154.732 226.117 153.979 226.117C153.209 226.117 152.604 225.873 152.162 225.385V228.438H151.078V219.66H152.068L152.121 220.363C152.562 219.816 153.176 219.543 153.961 219.543C154.723 219.543 155.324 219.83 155.766 220.404C156.211 220.979 156.434 221.777 156.434 222.801V222.9ZM155.35 222.777C155.35 222.062 155.197 221.498 154.893 221.084C154.588 220.67 154.17 220.463 153.639 220.463C152.982 220.463 152.49 220.754 152.162 221.336V224.365C152.486 224.943 152.982 225.232 153.65 225.232C154.17 225.232 154.582 225.027 154.887 224.617C155.195 224.203 155.35 223.59 155.35 222.777ZM160.881 220.633C160.717 220.605 160.539 220.592 160.348 220.592C159.637 220.592 159.154 220.895 158.9 221.5V226H157.816V219.66H158.871L158.889 220.393C159.244 219.826 159.748 219.543 160.4 219.543C160.611 219.543 160.771 219.57 160.881 219.625V220.633ZM165.562 226C165.5 225.875 165.449 225.652 165.41 225.332C164.906 225.855 164.305 226.117 163.605 226.117C162.98 226.117 162.467 225.941 162.064 225.59C161.666 225.234 161.467 224.785 161.467 224.242C161.467 223.582 161.717 223.07 162.217 222.707C162.721 222.34 163.428 222.156 164.338 222.156H165.393V221.658C165.393 221.279 165.279 220.979 165.053 220.756C164.826 220.529 164.492 220.416 164.051 220.416C163.664 220.416 163.34 220.514 163.078 220.709C162.816 220.904 162.686 221.141 162.686 221.418H161.596C161.596 221.102 161.707 220.797 161.93 220.504C162.156 220.207 162.461 219.973 162.844 219.801C163.23 219.629 163.654 219.543 164.115 219.543C164.846 219.543 165.418 219.727 165.832 220.094C166.246 220.457 166.461 220.959 166.477 221.6V224.518C166.477 225.1 166.551 225.562 166.699 225.906V226H165.562ZM163.764 225.174C164.104 225.174 164.426 225.086 164.73 224.91C165.035 224.734 165.256 224.506 165.393 224.225V222.924H164.543C163.215 222.924 162.551 223.312 162.551 224.09C162.551 224.43 162.664 224.695 162.891 224.887C163.117 225.078 163.408 225.174 163.764 225.174ZM171.867 224.318C171.867 224.025 171.756 223.799 171.533 223.639C171.314 223.475 170.93 223.334 170.379 223.217C169.832 223.1 169.396 222.959 169.072 222.795C168.752 222.631 168.514 222.436 168.357 222.209C168.205 221.982 168.129 221.713 168.129 221.4C168.129 220.881 168.348 220.441 168.785 220.082C169.227 219.723 169.789 219.543 170.473 219.543C171.191 219.543 171.773 219.729 172.219 220.1C172.668 220.471 172.893 220.945 172.893 221.523H171.803C171.803 221.227 171.676 220.971 171.422 220.756C171.172 220.541 170.855 220.434 170.473 220.434C170.078 220.434 169.77 220.52 169.547 220.691C169.324 220.863 169.213 221.088 169.213 221.365C169.213 221.627 169.316 221.824 169.523 221.957C169.73 222.09 170.104 222.217 170.643 222.338C171.186 222.459 171.625 222.604 171.961 222.771C172.297 222.939 172.545 223.143 172.705 223.381C172.869 223.615 172.951 223.902 172.951 224.242C172.951 224.809 172.725 225.264 172.271 225.607C171.818 225.947 171.23 226.117 170.508 226.117C170 226.117 169.551 226.027 169.16 225.848C168.77 225.668 168.463 225.418 168.24 225.098C168.021 224.773 167.912 224.424 167.912 224.049H168.996C169.016 224.412 169.16 224.701 169.43 224.916C169.703 225.127 170.062 225.232 170.508 225.232C170.918 225.232 171.246 225.15 171.492 224.986C171.742 224.818 171.867 224.596 171.867 224.318Z" fill="white"/>
<path d="M110.115 83.6602V87H108.99V78.4688H112.137C113.07 78.4688 113.801 78.707 114.328 79.1836C114.859 79.6602 115.125 80.291 115.125 81.0762C115.125 81.9043 114.865 82.543 114.346 82.9922C113.83 83.4375 113.09 83.6602 112.125 83.6602H110.115ZM110.115 82.7402H112.137C112.738 82.7402 113.199 82.5996 113.52 82.3184C113.84 82.0332 114 81.623 114 81.0879C114 80.5801 113.84 80.1738 113.52 79.8691C113.199 79.5645 112.76 79.4062 112.201 79.3945H110.115V82.7402ZM116.021 83.7715C116.021 83.1504 116.143 82.5918 116.385 82.0957C116.631 81.5996 116.971 81.2168 117.404 80.9473C117.842 80.6777 118.34 80.543 118.898 80.543C119.762 80.543 120.459 80.8418 120.99 81.4395C121.525 82.0371 121.793 82.832 121.793 83.8242V83.9004C121.793 84.5176 121.674 85.0723 121.436 85.5645C121.201 86.0527 120.863 86.4336 120.422 86.707C119.984 86.9805 119.48 87.1172 118.91 87.1172C118.051 87.1172 117.354 86.8184 116.818 86.2207C116.287 85.623 116.021 84.832 116.021 83.8477V83.7715ZM117.111 83.9004C117.111 84.6035 117.273 85.168 117.598 85.5938C117.926 86.0195 118.363 86.2324 118.91 86.2324C119.461 86.2324 119.898 86.0176 120.223 85.5879C120.547 85.1543 120.709 84.5488 120.709 83.7715C120.709 83.0762 120.543 82.5137 120.211 82.084C119.883 81.6504 119.445 81.4336 118.898 81.4336C118.363 81.4336 117.932 81.6465 117.604 82.0723C117.275 82.498 117.111 83.1074 117.111 83.9004ZM126.217 81.6328C126.053 81.6055 125.875 81.5918 125.684 81.5918C124.973 81.5918 124.49 81.8945 124.236 82.5V87H123.152V80.6602H124.207L124.225 81.3926C124.58 80.8262 125.084 80.543 125.736 80.543C125.947 80.543 126.107 80.5703 126.217 80.625V81.6328ZM129.645 86.2324C130.031 86.2324 130.369 86.1152 130.658 85.8809C130.947 85.6465 131.107 85.3535 131.139 85.002H132.164C132.145 85.3652 132.02 85.7109 131.789 86.0391C131.559 86.3672 131.25 86.6289 130.863 86.8242C130.48 87.0195 130.074 87.1172 129.645 87.1172C128.781 87.1172 128.094 86.8301 127.582 86.2559C127.074 85.6777 126.82 84.8887 126.82 83.8887V83.707C126.82 83.0898 126.934 82.541 127.16 82.0605C127.387 81.5801 127.711 81.207 128.133 80.9414C128.559 80.6758 129.061 80.543 129.639 80.543C130.35 80.543 130.939 80.7559 131.408 81.1816C131.881 81.6074 132.133 82.1602 132.164 82.8398H131.139C131.107 82.4297 130.951 82.0938 130.67 81.832C130.393 81.5664 130.049 81.4336 129.639 81.4336C129.088 81.4336 128.66 81.6328 128.355 82.0312C128.055 82.4258 127.904 82.998 127.904 83.748V83.9531C127.904 84.6836 128.055 85.2461 128.355 85.6406C128.656 86.0352 129.086 86.2324 129.645 86.2324ZM136.014 87.1172C135.154 87.1172 134.455 86.8359 133.916 86.2734C133.377 85.707 133.107 84.9512 133.107 84.0059V83.8066C133.107 83.1777 133.227 82.6172 133.465 82.125C133.707 81.6289 134.043 81.2422 134.473 80.9648C134.906 80.6836 135.375 80.543 135.879 80.543C136.703 80.543 137.344 80.8145 137.801 81.3574C138.258 81.9004 138.486 82.6777 138.486 83.6895V84.1406H134.191C134.207 84.7656 134.389 85.2715 134.736 85.6582C135.088 86.041 135.533 86.2324 136.072 86.2324C136.455 86.2324 136.779 86.1543 137.045 85.998C137.311 85.8418 137.543 85.6348 137.742 85.377L138.404 85.8926C137.873 86.709 137.076 87.1172 136.014 87.1172ZM135.879 81.4336C135.441 81.4336 135.074 81.5938 134.777 81.9141C134.48 82.2305 134.297 82.6758 134.227 83.25H137.402V83.168C137.371 82.6172 137.223 82.1914 136.957 81.8906C136.691 81.5859 136.332 81.4336 135.879 81.4336ZM140.771 80.6602L140.807 81.457C141.291 80.8477 141.924 80.543 142.705 80.543C144.045 80.543 144.721 81.2988 144.732 82.8105V87H143.648V82.8047C143.645 82.3477 143.539 82.0098 143.332 81.791C143.129 81.5723 142.811 81.4629 142.377 81.4629C142.025 81.4629 141.717 81.5566 141.451 81.7441C141.186 81.9316 140.979 82.1777 140.83 82.4824V87H139.746V80.6602H140.771ZM147.838 79.125V80.6602H149.021V81.498H147.838V85.4297C147.838 85.6836 147.891 85.875 147.996 86.0039C148.102 86.1289 148.281 86.1914 148.535 86.1914C148.66 86.1914 148.832 86.168 149.051 86.1211V87C148.766 87.0781 148.488 87.1172 148.219 87.1172C147.734 87.1172 147.369 86.9707 147.123 86.6777C146.877 86.3848 146.754 85.9688 146.754 85.4297V81.498H145.6V80.6602H146.754V79.125H147.838ZM154.207 87C154.145 86.875 154.094 86.6523 154.055 86.332C153.551 86.8555 152.949 87.1172 152.25 87.1172C151.625 87.1172 151.111 86.9414 150.709 86.5898C150.311 86.2344 150.111 85.7852 150.111 85.2422C150.111 84.582 150.361 84.0703 150.861 83.707C151.365 83.3398 152.072 83.1562 152.982 83.1562H154.037V82.6582C154.037 82.2793 153.924 81.9785 153.697 81.7559C153.471 81.5293 153.137 81.416 152.695 81.416C152.309 81.416 151.984 81.5137 151.723 81.709C151.461 81.9043 151.33 82.1406 151.33 82.418H150.24C150.24 82.1016 150.352 81.7969 150.574 81.5039C150.801 81.207 151.105 80.9727 151.488 80.8008C151.875 80.6289 152.299 80.543 152.76 80.543C153.49 80.543 154.062 80.7266 154.477 81.0938C154.891 81.457 155.105 81.959 155.121 82.5996V85.5176C155.121 86.0996 155.195 86.5625 155.344 86.9062V87H154.207ZM152.408 86.1738C152.748 86.1738 153.07 86.0859 153.375 85.9102C153.68 85.7344 153.9 85.5059 154.037 85.2246V83.9238H153.188C151.859 83.9238 151.195 84.3125 151.195 85.0898C151.195 85.4297 151.309 85.6953 151.535 85.8867C151.762 86.0781 152.053 86.1738 152.408 86.1738ZM157.939 80.6602V87.7324C157.939 88.9512 157.387 89.5605 156.281 89.5605C156.043 89.5605 155.822 89.5254 155.619 89.4551V88.5879C155.744 88.6191 155.908 88.6348 156.111 88.6348C156.354 88.6348 156.537 88.5684 156.662 88.4355C156.791 88.3066 156.855 88.0801 156.855 87.7559V80.6602H157.939ZM156.744 78.9785C156.744 78.8066 156.797 78.6602 156.902 78.5391C157.012 78.4141 157.17 78.3516 157.377 78.3516C157.588 78.3516 157.748 78.4121 157.857 78.5332C157.967 78.6543 158.021 78.8027 158.021 78.9785C158.021 79.1543 157.967 79.3008 157.857 79.418C157.748 79.5352 157.588 79.5938 157.377 79.5938C157.166 79.5938 157.008 79.5352 156.902 79.418C156.797 79.3008 156.744 79.1543 156.744 78.9785ZM162.322 87.1172C161.463 87.1172 160.764 86.8359 160.225 86.2734C159.686 85.707 159.416 84.9512 159.416 84.0059V83.8066C159.416 83.1777 159.535 82.6172 159.773 82.125C160.016 81.6289 160.352 81.2422 160.781 80.9648C161.215 80.6836 161.684 80.543 162.188 80.543C163.012 80.543 163.652 80.8145 164.109 81.3574C164.566 81.9004 164.795 82.6777 164.795 83.6895V84.1406H160.5C160.516 84.7656 160.697 85.2715 161.045 85.6582C161.396 86.041 161.842 86.2324 162.381 86.2324C162.764 86.2324 163.088 86.1543 163.354 85.998C163.619 85.8418 163.852 85.6348 164.051 85.377L164.713 85.8926C164.182 86.709 163.385 87.1172 162.322 87.1172ZM162.188 81.4336C161.75 81.4336 161.383 81.5938 161.086 81.9141C160.789 82.2305 160.605 82.6758 160.535 83.25H163.711V83.168C163.68 82.6172 163.531 82.1914 163.266 81.8906C163 81.5859 162.641 81.4336 162.188 81.4336ZM168.768 83.7773C168.768 82.8047 168.998 82.0234 169.459 81.4336C169.92 80.8398 170.523 80.543 171.27 80.543C172.012 80.543 172.6 80.7969 173.033 81.3047V78H174.117V87H173.121L173.068 86.3203C172.635 86.8516 172.031 87.1172 171.258 87.1172C170.523 87.1172 169.924 86.8164 169.459 86.2148C168.998 85.6133 168.768 84.8281 168.768 83.8594V83.7773ZM169.852 83.9004C169.852 84.6191 170 85.1816 170.297 85.5879C170.594 85.9941 171.004 86.1973 171.527 86.1973C172.215 86.1973 172.717 85.8887 173.033 85.2715V82.3594C172.709 81.7617 172.211 81.4629 171.539 81.4629C171.008 81.4629 170.594 81.668 170.297 82.0781C170 82.4883 169.852 83.0957 169.852 83.9004ZM178.436 87.1172C177.576 87.1172 176.877 86.8359 176.338 86.2734C175.799 85.707 175.529 84.9512 175.529 84.0059V83.8066C175.529 83.1777 175.648 82.6172 175.887 82.125C176.129 81.6289 176.465 81.2422 176.895 80.9648C177.328 80.6836 177.797 80.543 178.301 80.543C179.125 80.543 179.766 80.8145 180.223 81.3574C180.68 81.9004 180.908 82.6777 180.908 83.6895V84.1406H176.613C176.629 84.7656 176.811 85.2715 177.158 85.6582C177.51 86.041 177.955 86.2324 178.494 86.2324C178.877 86.2324 179.201 86.1543 179.467 85.998C179.732 85.8418 179.965 85.6348 180.164 85.377L180.826 85.8926C180.295 86.709 179.498 87.1172 178.436 87.1172ZM178.301 81.4336C177.863 81.4336 177.496 81.5938 177.199 81.9141C176.902 82.2305 176.719 82.6758 176.648 83.25H179.824V83.168C179.793 82.6172 179.645 82.1914 179.379 81.8906C179.113 81.5859 178.754 81.4336 178.301 81.4336ZM186.322 87H185.238V78H186.322V87ZM191.977 87C191.914 86.875 191.863 86.6523 191.824 86.332C191.32 86.8555 190.719 87.1172 190.02 87.1172C189.395 87.1172 188.881 86.9414 188.479 86.5898C188.08 86.2344 187.881 85.7852 187.881 85.2422C187.881 84.582 188.131 84.0703 188.631 83.707C189.135 83.3398 189.842 83.1562 190.752 83.1562H191.807V82.6582C191.807 82.2793 191.693 81.9785 191.467 81.7559C191.24 81.5293 190.906 81.416 190.465 81.416C190.078 81.416 189.754 81.5137 189.492 81.709C189.23 81.9043 189.1 82.1406 189.1 82.418H188.01C188.01 82.1016 188.121 81.7969 188.344 81.5039C188.57 81.207 188.875 80.9727 189.258 80.8008C189.645 80.6289 190.068 80.543 190.529 80.543C191.26 80.543 191.832 80.7266 192.246 81.0938C192.66 81.457 192.875 81.959 192.891 82.5996V85.5176C192.891 86.0996 192.965 86.5625 193.113 86.9062V87H191.977ZM190.178 86.1738C190.518 86.1738 190.84 86.0859 191.145 85.9102C191.449 85.7344 191.67 85.5059 191.807 85.2246V83.9238H190.957C189.629 83.9238 188.965 84.3125 188.965 85.0898C188.965 85.4297 189.078 85.6953 189.305 85.8867C189.531 86.0781 189.822 86.1738 190.178 86.1738ZM109.846 94.6602L109.881 95.457C110.365 94.8477 110.998 94.543 111.779 94.543C113.119 94.543 113.795 95.2988 113.807 96.8105V101H112.723V96.8047C112.719 96.3477 112.613 96.0098 112.406 95.791C112.203 95.5723 111.885 95.4629 111.451 95.4629C111.1 95.4629 110.791 95.5566 110.525 95.7441C110.26 95.9316 110.053 96.1777 109.904 96.4824V101H108.82V94.6602H109.846ZM115.154 97.7715C115.154 97.1504 115.275 96.5918 115.518 96.0957C115.764 95.5996 116.104 95.2168 116.537 94.9473C116.975 94.6777 117.473 94.543 118.031 94.543C118.895 94.543 119.592 94.8418 120.123 95.4395C120.658 96.0371 120.926 96.832 120.926 97.8242V97.9004C120.926 98.5176 120.807 99.0723 120.568 99.5645C120.334 100.053 119.996 100.434 119.555 100.707C119.117 100.98 118.613 101.117 118.043 101.117C117.184 101.117 116.486 100.818 115.951 100.221C115.42 99.623 115.154 98.832 115.154 97.8477V97.7715ZM116.244 97.9004C116.244 98.6035 116.406 99.168 116.73 99.5938C117.059 100.02 117.496 100.232 118.043 100.232C118.594 100.232 119.031 100.018 119.355 99.5879C119.68 99.1543 119.842 98.5488 119.842 97.7715C119.842 97.0762 119.676 96.5137 119.344 96.084C119.016 95.6504 118.578 95.4336 118.031 95.4336C117.496 95.4336 117.064 95.6465 116.736 96.0723C116.408 96.498 116.244 97.1074 116.244 97.9004ZM118.523 92H119.836L118.266 93.7227H117.393L118.523 92ZM123.305 94.6602L123.334 95.3633C123.799 94.8164 124.426 94.543 125.215 94.543C126.102 94.543 126.705 94.8828 127.025 95.5625C127.236 95.2578 127.51 95.0117 127.846 94.8242C128.186 94.6367 128.586 94.543 129.047 94.543C130.438 94.543 131.145 95.2793 131.168 96.752V101H130.084V96.8164C130.084 96.3633 129.98 96.0254 129.773 95.8027C129.566 95.5762 129.219 95.4629 128.73 95.4629C128.328 95.4629 127.994 95.584 127.729 95.8262C127.463 96.0645 127.309 96.3867 127.266 96.793V101H126.176V96.8457C126.176 95.9238 125.725 95.4629 124.822 95.4629C124.111 95.4629 123.625 95.7656 123.363 96.3711V101H122.279V94.6602H123.305ZM133.986 101H132.902V94.6602H133.986V101ZM132.814 92.9785C132.814 92.8027 132.867 92.6543 132.973 92.5332C133.082 92.4121 133.242 92.3516 133.453 92.3516C133.664 92.3516 133.824 92.4121 133.934 92.5332C134.043 92.6543 134.098 92.8027 134.098 92.9785C134.098 93.1543 134.043 93.3008 133.934 93.418C133.824 93.5352 133.664 93.5938 133.453 93.5938C133.242 93.5938 133.082 93.5352 132.973 93.418C132.867 93.3008 132.814 93.1543 132.814 92.9785ZM136.752 94.6602L136.787 95.457C137.271 94.8477 137.904 94.543 138.686 94.543C140.025 94.543 140.701 95.2988 140.713 96.8105V101H139.629V96.8047C139.625 96.3477 139.52 96.0098 139.312 95.791C139.109 95.5723 138.791 95.4629 138.357 95.4629C138.006 95.4629 137.697 95.5566 137.432 95.7441C137.166 95.9316 136.959 96.1777 136.811 96.4824V101H135.727V94.6602H136.752ZM146.262 101C146.199 100.875 146.148 100.652 146.109 100.332C145.605 100.855 145.004 101.117 144.305 101.117C143.68 101.117 143.166 100.941 142.764 100.59C142.365 100.234 142.166 99.7852 142.166 99.2422C142.166 98.582 142.416 98.0703 142.916 97.707C143.42 97.3398 144.127 97.1562 145.037 97.1562H146.092V96.6582C146.092 96.2793 145.979 95.9785 145.752 95.7559C145.525 95.5293 145.191 95.416 144.75 95.416C144.363 95.416 144.039 95.5137 143.777 95.709C143.516 95.9043 143.385 96.1406 143.385 96.418H142.295C142.295 96.1016 142.406 95.7969 142.629 95.5039C142.855 95.207 143.16 94.9727 143.543 94.8008C143.93 94.6289 144.354 94.543 144.814 94.543C145.545 94.543 146.117 94.7266 146.531 95.0938C146.945 95.457 147.16 95.959 147.176 96.5996V99.5176C147.176 100.1 147.25 100.562 147.398 100.906V101H146.262ZM144.463 100.174C144.803 100.174 145.125 100.086 145.43 99.9102C145.734 99.7344 145.955 99.5059 146.092 99.2246V97.9238H145.242C143.914 97.9238 143.25 98.3125 143.25 99.0898C143.25 99.4297 143.363 99.6953 143.59 99.8867C143.816 100.078 144.107 100.174 144.463 100.174Z" fill="white"/>
</g>
<defs>
<filter id="filter0_d" x="13" y="0" width="389" height="267" filterUnits="userSpaceOnUse" color-interpolation-filters="sRGB">
<feFlood flood-opacity="0" result="BackgroundImageFix"/>
<feColorMatrix in="SourceAlpha" type="matrix" values="0 0 0 0 0 0 0 0 0 0 0 0 0 0 0 0 0 0 127 0"/>
<feOffset dy="4"/>
<feGaussianBlur stdDeviation="2"/>
<feColorMatrix type="matrix" values="0 0 0 0 0 0 0 0 0 0 0 0 0 0 0 0 0 0 0.25 0"/>
<feBlend mode="normal" in2="BackgroundImageFix" result="effect1_dropShadow"/>
<feBlend mode="normal" in="SourceGraphic" in2="effect1_dropShadow" result="shape"/>
</filter>
</defs>
</svg>
