<svg width="24" height="24" viewBox="0 0 24 24" fill="none" xmlns="http://www.w3.org/2000/svg">
<path d="M20.437 7.10449C20.2643 6.91091 20.0724 6.7354 19.8642 6.58069C19.9497 5.91079 19.8906 5.23035 19.6909 4.58523C19.4912 3.9401 19.1555 3.34527 18.7065 2.84082C17.6225 1.61914 15.7749 1 13.2143 1H7.00047C6.55155 1.0012 6.11768 1.16195 5.77635 1.45354C5.43503 1.74514 5.20848 2.14858 5.13719 2.5918L2.54734 18.9981C2.5107 19.218 2.52246 19.4432 2.58179 19.6581C2.64113 19.873 2.74662 20.0724 2.8909 20.2423C3.03519 20.4123 3.2148 20.5487 3.41722 20.6421C3.61964 20.7355 3.84 20.7837 4.06294 20.7832H6.72703L6.64503 21.3037C6.61187 21.5131 6.62449 21.7272 6.68201 21.9312C6.73953 22.1352 6.84059 22.3244 6.97824 22.4856C7.11588 22.6468 7.28683 22.7763 7.47932 22.8651C7.67181 22.9539 7.88125 22.9999 8.09324 23H11.3276C11.7466 23.0033 12.1531 22.8572 12.474 22.5878C12.7949 22.3185 13.0093 21.9435 13.0786 21.5303L13.7193 17.499L13.73 17.4443H14.0288C18.0611 17.4443 20.5796 15.4512 21.314 11.6816C21.538 10.9035 21.5754 10.0835 21.423 9.28817C21.2706 8.49287 20.9328 7.74472 20.437 7.10449ZM7.84227 13.7041L7.12779 18.2394L7.04148 18.7832H4.60594L7.09715 3H13.2143C15.1499 3 16.5317 3.4043 17.2065 4.16406C17.525 4.53441 17.7472 4.97767 17.8532 5.4545C17.9593 5.93133 17.946 6.42696 17.8144 6.8974L17.7958 7.00964C17.7837 7.08612 17.7726 7.16083 17.7524 7.25586C17.5596 8.68478 16.8455 9.99202 15.7473 10.9264C14.5145 11.7837 13.0286 12.2005 11.5298 12.1094H9.70652C9.2563 12.1079 8.82049 12.268 8.47837 12.5607C8.13624 12.8533 7.91053 13.2591 7.84227 13.7041ZM19.3511 11.2988C18.8003 14.127 17.1089 15.4443 14.0288 15.4443H13.5454C13.126 15.4411 12.7192 15.5876 12.3982 15.8576C12.0772 16.1276 11.8631 16.5032 11.7944 16.917L11.145 20.9912L8.71727 21L9.19542 17.9661L9.80656 14.1133H11.5259C11.6827 14.1133 11.8213 14.0897 11.974 14.0844C12.3328 14.072 12.6906 14.0582 13.0267 14.0165C13.2319 13.9909 13.4203 13.9443 13.617 13.9078C13.8895 13.8574 14.1622 13.8076 14.4181 13.7365C14.6084 13.6835 14.7861 13.6153 14.9671 13.5509C15.2064 13.466 15.4419 13.3769 15.6647 13.2722C15.8327 13.1931 15.9928 13.1052 16.1513 13.015C16.3623 12.8954 16.5667 12.7647 16.7637 12.6232C16.9059 12.5206 17.0456 12.4153 17.1787 12.3022C17.3673 12.1396 17.5466 11.9663 17.7156 11.7833C17.8286 11.6628 17.9443 11.5458 18.0489 11.4161C18.2225 11.1949 18.3828 10.9636 18.5289 10.7234C18.6054 10.6012 18.6902 10.4882 18.7605 10.3596C18.9631 9.98894 19.1372 9.60341 19.2813 9.20634C19.2899 9.18248 19.3023 9.16234 19.3108 9.13834C19.3148 9.12711 19.3207 9.11777 19.3247 9.10648C19.5228 9.8227 19.5319 10.5781 19.3511 11.2988Z" fill="#33404F"/>
</svg>
