<svg width="24" height="24" viewBox="0 0 24 24" fill="none" xmlns="http://www.w3.org/2000/svg">
<circle cx="12" cy="12" r="9" fill="white"/>
<path d="M9.61224 11.3002C9.9459 11.3002 10.2721 11.2013 10.5495 11.0159C10.8269 10.8305 11.0432 10.5671 11.1709 10.2588C11.2986 9.95052 11.332 9.61131 11.2669 9.28406C11.2018 8.9568 11.0411 8.6562 10.8052 8.42026C10.5692 8.18433 10.2686 8.02365 9.94136 7.95855C9.61411 7.89346 9.2749 7.92687 8.96663 8.05456C8.65837 8.18225 8.39489 8.39848 8.20951 8.67591C8.02414 8.95334 7.92519 9.27952 7.92519 9.61318C7.92568 10.0605 8.10358 10.4893 8.41986 10.8056C8.73613 11.1218 9.16496 11.2997 9.61224 11.3002ZM9.61224 9.05084C9.72346 9.05084 9.83218 9.08382 9.92466 9.14561C10.0171 9.2074 10.0892 9.29523 10.1318 9.39798C10.1743 9.50074 10.1855 9.61381 10.1638 9.72289C10.1421 9.83198 10.0885 9.93218 10.0099 10.0108C9.93123 10.0895 9.83103 10.143 9.72195 10.1647C9.61286 10.1864 9.49979 10.1753 9.39704 10.1327C9.29428 10.0902 9.20645 10.0181 9.14466 9.92561C9.08287 9.83313 9.04989 9.72441 9.04989 9.61318C9.04999 9.46407 9.10927 9.32109 9.21471 9.21565C9.32015 9.11021 9.46312 9.05094 9.61224 9.05084ZM14.3834 12.6973C14.0497 12.6973 13.7236 12.7963 13.4461 12.9816C13.1687 13.167 12.9525 13.4305 12.8248 13.7388C12.6971 14.047 12.6637 14.3862 12.7288 14.7135C12.7939 15.0407 12.9546 15.3413 13.1905 15.5773C13.4264 15.8132 13.727 15.9739 14.0543 16.039C14.3815 16.1041 14.7208 16.0707 15.029 15.943C15.3373 15.8153 15.6008 15.5991 15.7861 15.3216C15.9715 15.0442 16.0705 14.718 16.0705 14.3844C16.07 13.9371 15.8921 13.5083 15.5758 13.192C15.2595 12.8757 14.8307 12.6978 14.3834 12.6973ZM14.3834 14.9467C14.2722 14.9467 14.1635 14.9137 14.071 14.8519C13.9785 14.7901 13.9064 14.7023 13.8639 14.5996C13.8213 14.4968 13.8102 14.3837 13.8319 14.2747C13.8536 14.1656 13.9071 14.0654 13.9858 13.9867C14.0644 13.9081 14.1646 13.8545 14.2737 13.8328C14.3828 13.8111 14.4959 13.8223 14.5986 13.8648C14.7014 13.9074 14.7892 13.9795 14.851 14.0719C14.9128 14.1644 14.9458 14.2731 14.9458 14.3844C14.9457 14.5335 14.8864 14.6765 14.7809 14.7819C14.6755 14.8873 14.5325 14.9466 14.3834 14.9467ZM16.3318 7.66475C16.2796 7.61252 16.2177 7.57109 16.1494 7.54282C16.0812 7.51455 16.0081 7.5 15.9342 7.5C15.8604 7.5 15.7873 7.51455 15.7191 7.54282C15.6508 7.57109 15.5889 7.61252 15.5366 7.66475L7.66377 15.5376C7.61102 15.5897 7.56909 15.6517 7.5404 15.7201C7.51171 15.7885 7.49682 15.8618 7.49658 15.936C7.49635 16.0101 7.51079 16.0835 7.53905 16.1521C7.56732 16.2206 7.60886 16.2829 7.66128 16.3353C7.71371 16.3877 7.77598 16.4293 7.84452 16.4575C7.91306 16.4858 7.98651 16.5002 8.06065 16.5C8.13479 16.4998 8.20815 16.4849 8.27651 16.4562C8.34487 16.4275 8.40688 16.3855 8.45897 16.3328L16.3318 8.45991C16.3841 8.40771 16.4255 8.34573 16.4538 8.27751C16.482 8.20929 16.4966 8.13618 16.4966 8.06233C16.4966 7.98849 16.482 7.91537 16.4538 7.84715C16.4255 7.77894 16.3841 7.71696 16.3318 7.66475Z" fill="#F19174"/>
</svg>
