<svg width="24" height="24" viewBox="0 0 24 24" fill="none" xmlns="http://www.w3.org/2000/svg">
<path d="M18.2433 12.1168H11.9667V5.89857C11.9667 5.36558 11.608 5.01025 11.07 5.01025C6.58666 5.01025 3 8.56352 3 13.0051C3 17.4467 6.58666 21 11.07 21C15.5533 21 19.14 17.4467 19.14 13.0051C19.14 12.4721 18.7813 12.1168 18.2433 12.1168ZM11.9667 19.1345C8.55932 19.6675 5.33133 17.269 4.883 13.8934C4.345 10.5178 6.76599 7.31988 10.1733 6.87572V13.0051C10.1733 13.5381 10.532 13.8934 11.07 13.8934H17.257C16.8983 16.6472 14.7463 18.7792 11.9667 19.1345ZM14.6566 3.23361C14.1186 3.23361 13.76 3.58894 13.76 4.12193V9.45184C13.76 9.98483 14.1186 10.3402 14.6566 10.3402H20.0366C20.5746 10.3402 20.9333 9.98483 20.9333 9.45184C20.9333 5.9874 18.1536 3.23361 14.6566 3.23361ZM15.5533 8.56352V5.09908C17.3466 5.45441 18.6916 6.78689 19.0503 8.56352H15.5533Z" fill="white"/>
<path d="M18.2433 12.1168H11.9667V5.89857C11.9667 5.36558 11.608 5.01025 11.07 5.01025C6.58666 5.01025 3 8.56352 3 13.0051C3 17.4467 6.58666 21 11.07 21C15.5533 21 19.14 17.4467 19.14 13.0051C19.14 12.4721 18.7813 12.1168 18.2433 12.1168ZM11.9667 19.1345C8.55932 19.6675 5.33133 17.269 4.883 13.8934C4.345 10.5178 6.76599 7.31988 10.1733 6.87572V13.0051C10.1733 13.5381 10.532 13.8934 11.07 13.8934H17.257C16.8983 16.6472 14.7463 18.7792 11.9667 19.1345ZM14.6566 3.23361C14.1186 3.23361 13.76 3.58894 13.76 4.12193V9.45184C13.76 9.98483 14.1186 10.3402 14.6566 10.3402H20.0366C20.5746 10.3402 20.9333 9.98483 20.9333 9.45184C20.9333 5.9874 18.1536 3.23361 14.6566 3.23361ZM15.5533 8.56352V5.09908C17.3466 5.45441 18.6916 6.78689 19.0503 8.56352H15.5533Z" fill="white"/>
<path d="M11.9667 19.1345C8.55932 19.6675 5.33133 17.269 4.883 13.8934C4.345 10.5178 6.76599 7.31988 10.1733 6.87572V13.0051C10.1733 13.5381 10.532 13.8934 11.07 13.8934H17.257C16.8983 16.6472 14.7463 18.7792 11.9667 19.1345Z" fill="white"/>
<path d="M14.7599 10.3402C14.2077 10.3402 13.7599 9.89248 13.7599 9.34019V3.94788C13.7599 3.52061 14.0318 3.12773 14.4532 3.05717C18.6081 2.36146 22.0123 8.20885 20.7232 10.0827C20.5941 10.2705 20.3607 10.3402 20.1329 10.3402H14.7599Z" fill="#F19174"/>
</svg>
