<svg width="24" height="24" viewBox="0 0 24 24" fill="none" xmlns="http://www.w3.org/2000/svg">
<path d="M12 5C11.1646 5 10.3634 5.3457 9.77261 5.96106C9.18187 6.57641 8.85 7.41101 8.85 8.28125H10.65C10.65 7.90829 10.7922 7.5506 11.0454 7.28688C11.2986 7.02316 11.642 6.875 12 6.875C12.358 6.875 12.7014 7.02316 12.9546 7.28688C13.2078 7.5506 13.35 7.90829 13.35 8.28125C13.35 8.65421 13.2078 9.0119 12.9546 9.27562C12.7014 9.53934 12.358 9.6875 12 9.6875C11.505 9.6875 11.1 10.1094 11.1 10.625V12.2656L3.36 18.3125C3.20888 18.4306 3.09726 18.5952 3.04094 18.783C2.98462 18.9708 2.98645 19.1723 3.04619 19.359C3.10592 19.5456 3.22052 19.708 3.37376 19.823C3.527 19.9381 3.71111 20 3.9 20H20.1C20.2889 20 20.473 19.9381 20.6262 19.823C20.7795 19.708 20.8941 19.5456 20.9538 19.359C21.0135 19.1723 21.0154 18.9708 20.9591 18.783C20.9027 18.5952 20.7911 18.4306 20.64 18.3125L12.9 12.2656V11.4219C13.5495 11.2202 14.1192 10.8057 14.5245 10.2399C14.9299 9.67409 15.1492 8.98721 15.15 8.28125C15.15 7.41101 14.8181 6.57641 14.2274 5.96106C13.6366 5.3457 12.8354 5 12 5ZM12 13.9062L17.4 18.125H6.6L12 13.9062Z" fill="#1F3044"/>
</svg>
