<svg width="24" height="24" viewBox="0 0 24 24" fill="none" xmlns="http://www.w3.org/2000/svg">
<path d="M20.4811 7.66534C20.3228 7.39105 20.0961 7.16247 19.8231 7.00189C19.5502 6.84132 19.2402 6.75424 18.9236 6.74914H7.1962L6.6648 4.67853C6.61111 4.47865 6.49133 4.30283 6.32496 4.17972C6.1586 4.05661 5.95545 3.99345 5.7486 4.00054H3.9162C3.67321 4.00054 3.44017 4.09707 3.26835 4.26889C3.09653 4.44071 3 4.67375 3 4.91674C3 5.15973 3.09653 5.39277 3.26835 5.56459C3.44017 5.73641 3.67321 5.83294 3.9162 5.83294H5.05229L7.58101 15.2332C7.6347 15.433 7.75448 15.6089 7.92085 15.732C8.08721 15.8551 8.29036 15.9182 8.49721 15.9112H16.743C16.9122 15.9106 17.078 15.8633 17.2219 15.7743C17.3658 15.6854 17.4823 15.5583 17.5584 15.4072L20.5636 9.39696C20.6938 9.12395 20.7545 8.82293 20.7401 8.52078C20.7257 8.21863 20.6367 7.92474 20.4811 7.66534Z" fill="#1F3044"/>
<path d="M8.03971 20.4918C8.79871 20.4918 9.41401 19.8765 9.41401 19.1175C9.41401 18.3585 8.79871 17.7432 8.03971 17.7432C7.2807 17.7432 6.66541 18.3585 6.66541 19.1175C6.66541 19.8765 7.2807 20.4918 8.03971 20.4918Z" fill="#1F3044"/>
<path d="M17.2018 20.4918C17.9608 20.4918 18.5761 19.8765 18.5761 19.1175C18.5761 18.3585 17.9608 17.7432 17.2018 17.7432C16.4428 17.7432 15.8275 18.3585 15.8275 19.1175C15.8275 19.8765 16.4428 20.4918 17.2018 20.4918Z" fill="#1F3044"/>
</svg>
