<svg width="100" height="100" viewBox="0 0 100 100" fill="none" xmlns="http://www.w3.org/2000/svg">
<path d="M29.1663 62.4999H41.6663C42.7714 62.4999 43.8312 62.0609 44.6126 61.2795C45.394 60.4981 45.833 59.4383 45.833 58.3333C45.833 57.2282 45.394 56.1684 44.6126 55.387C43.8312 54.6056 42.7714 54.1666 41.6663 54.1666H29.1663C28.0613 54.1666 27.0015 54.6056 26.2201 55.387C25.4387 56.1684 24.9997 57.2282 24.9997 58.3333C24.9997 59.4383 25.4387 60.4981 26.2201 61.2795C27.0015 62.0609 28.0613 62.4999 29.1663 62.4999ZM79.1663 20.8333H20.833C17.5178 20.8333 14.3384 22.1502 11.9942 24.4944C9.64997 26.8386 8.33301 30.018 8.33301 33.3333V70.8333C8.33301 74.1485 9.64997 77.3279 11.9942 79.6721C14.3384 82.0163 17.5178 83.3332 20.833 83.3332H79.1663C82.4816 83.3332 85.661 82.0163 88.0052 79.6721C90.3494 77.3279 91.6663 74.1485 91.6664 70.8333V33.3333C91.6663 30.018 90.3494 26.8386 88.0052 24.4944C85.661 22.1502 82.4816 20.8333 79.1663 20.8333ZM83.333 70.8333C83.333 71.9383 82.894 72.9981 82.1126 73.7795C81.3312 74.5609 80.2714 74.9999 79.1663 74.9999H20.833C19.7279 74.9999 18.6681 74.5609 17.8867 73.7795C17.1053 72.9981 16.6663 71.9383 16.6663 70.8333V45.8333H83.333V70.8333ZM83.333 37.4999H16.6663V33.3333C16.6663 32.2282 17.1053 31.1684 17.8867 30.387C18.6681 29.6056 19.7279 29.1666 20.833 29.1666H79.1663C80.2714 29.1666 81.3312 29.6056 82.1126 30.387C82.894 31.1684 83.333 32.2282 83.333 33.3333V37.4999Z" fill="white"/>
</svg>
