<svg width="414" height="46" viewBox="0 0 414 46" fill="none" xmlns="http://www.w3.org/2000/svg">
<path d="M391.251 17H372.068C370.372 17 368.998 18.3744 368.998 20.0698V26.9747C368.998 28.6701 370.372 30.0445 372.068 30.0445H391.251C392.946 30.0445 394.32 28.6701 394.32 26.9747V20.0698C394.32 18.3744 392.946 17 391.251 17Z" fill="white"/>
<path d="M391.251 17.5755H372.068C370.69 17.5755 369.574 18.6922 369.574 20.0697V26.9746C369.574 28.3522 370.69 29.4689 372.068 29.4689H391.251C392.628 29.4689 393.745 28.3522 393.745 26.9746V20.0697C393.745 18.6922 392.628 17.5755 391.251 17.5755Z" fill="white"/>
<path d="M395.471 21.2208V25.8248C395.924 25.6341 396.311 25.3139 396.583 24.9044C396.855 24.495 397 24.0143 397 23.5228C397 23.0313 396.855 22.5506 396.583 22.1411C396.311 21.7317 395.924 21.4115 395.471 21.2208Z" fill="white"/>
<path d="M390.484 19.302H372.834C371.987 19.302 371.3 19.989 371.3 20.8363V26.2081C371.3 27.0555 371.987 27.7424 372.834 27.7424H390.484C391.331 27.7424 392.018 27.0555 392.018 26.2081V20.8363C392.018 19.989 391.331 19.302 390.484 19.302Z" fill="white"/>
<path d="M354.5 29.4507C354.455 29.4504 354.409 29.4413 354.367 29.4239C354.325 29.4064 354.287 29.3809 354.254 29.3489L352.028 27.1425C351.995 27.1098 351.968 27.0705 351.95 27.0272C351.932 26.9839 351.923 26.9374 351.924 26.8906C351.925 26.8439 351.936 26.7978 351.956 26.7553C351.976 26.7128 352.004 26.6748 352.04 26.6435C352.727 26.0716 353.598 25.7578 354.499 25.7578C355.399 25.7578 356.27 26.0716 356.958 26.6435C356.992 26.675 357.02 26.7133 357.039 26.7558C357.059 26.7984 357.069 26.8443 357.069 26.8908C357.07 26.9376 357.061 26.984 357.043 27.0272C357.025 27.0705 356.998 27.1097 356.964 27.1425L354.739 29.3489C354.676 29.4122 354.59 29.4488 354.5 29.4507ZM358.405 25.5786C358.316 25.5786 358.231 25.5453 358.166 25.4856C357.163 24.5904 355.857 24.0945 354.502 24.0945C353.147 24.0945 351.841 24.5904 350.838 25.4856C350.773 25.5453 350.688 25.5786 350.599 25.5786C350.554 25.5788 350.509 25.5701 350.467 25.553C350.425 25.5359 350.387 25.5108 350.355 25.479L349.07 24.2018C349.036 24.169 349.009 24.1299 348.991 24.0868C348.973 24.0437 348.963 23.9974 348.963 23.9506C348.963 23.9039 348.973 23.8576 348.991 23.8145C349.009 23.7714 349.036 23.7323 349.07 23.6995C350.544 22.3506 352.483 21.6008 354.497 21.6008C356.511 21.6008 358.45 22.3506 359.924 23.6995C359.958 23.7318 359.986 23.7707 360.005 23.8137C360.024 23.8568 360.034 23.9031 360.035 23.9501C360.035 24.0443 359.998 24.1348 359.93 24.2018L358.648 25.479C358.616 25.5106 358.578 25.5356 358.537 25.5527C358.495 25.5698 358.45 25.5786 358.405 25.5786ZM361.359 22.6401C361.315 22.6405 361.272 22.6322 361.231 22.6159C361.19 22.5996 361.153 22.5754 361.121 22.5448C359.334 20.8736 356.962 19.9417 354.495 19.9417C352.029 19.9417 349.657 20.8736 347.869 22.5448C347.838 22.5754 347.801 22.5996 347.76 22.6159C347.719 22.6322 347.675 22.6405 347.631 22.6401C347.586 22.6403 347.541 22.6316 347.499 22.6145C347.457 22.5974 347.418 22.5722 347.386 22.5405L346.105 21.2644C346.072 21.2316 346.045 21.1927 346.027 21.1499C346.009 21.1071 346 21.0612 346 21.0148C346 20.9685 346.009 20.9226 346.027 20.8798C346.045 20.8369 346.072 20.798 346.105 20.7653C348.364 18.6382 351.37 17.4507 354.497 17.4507C357.624 17.4507 360.63 18.6382 362.889 20.7653C362.923 20.7977 362.951 20.8364 362.97 20.8792C362.989 20.922 362.999 20.9681 363 21.0148C363 21.0614 362.991 21.1075 362.973 21.1505C362.955 21.1936 362.929 21.2326 362.895 21.2655L361.608 22.5405C361.575 22.5727 361.537 22.5981 361.494 22.6152C361.451 22.6323 361.406 22.6408 361.359 22.6401Z" fill="white"/>
<path d="M338.824 29.4507H337.647C337.335 29.4507 337.036 29.3322 336.815 29.1212C336.595 28.9102 336.471 28.6241 336.471 28.3257V18.5756C336.471 18.2773 336.595 17.9912 336.815 17.7802C337.036 17.5692 337.335 17.4507 337.647 17.4507H338.824C339.136 17.4507 339.435 17.5692 339.655 17.7802C339.876 17.9912 340 18.2773 340 18.5756V28.3257C340 28.6241 339.876 28.9102 339.655 29.1212C339.435 29.3322 339.136 29.4507 338.824 29.4507ZM332.156 29.4507C331.844 29.4507 331.545 29.3322 331.325 29.1212C331.104 28.9102 330.98 28.6241 330.98 28.3257V21.2013C330.98 20.903 331.104 20.6168 331.325 20.4058C331.545 20.1949 331.844 20.0764 332.156 20.0764H333.333C333.645 20.0764 333.944 20.1949 334.165 20.4058C334.385 20.6168 334.509 20.903 334.509 21.2013V28.3257C334.509 28.6239 334.386 28.9099 334.165 29.1208C333.945 29.3317 333.646 29.4504 333.334 29.4507H332.156ZM327.842 29.4507H326.666C326.354 29.4507 326.055 29.3322 325.834 29.1212C325.613 28.9102 325.489 28.6241 325.489 28.3257V23.8259C325.489 23.5275 325.613 23.2414 325.834 23.0304C326.055 22.8194 326.354 22.7009 326.666 22.7009H327.842C328.154 22.7009 328.454 22.8194 328.674 23.0304C328.895 23.2414 329.019 23.5275 329.019 23.8259V28.3257C329.019 28.6241 328.895 28.9102 328.674 29.1212C328.454 29.3322 328.154 29.4507 327.842 29.4507ZM322.353 29.4507H321.176C320.864 29.4507 320.565 29.3322 320.345 29.1212C320.124 28.9102 320 28.6241 320 28.3257V26.0758C320 25.7774 320.124 25.4913 320.345 25.2803C320.565 25.0693 320.864 24.9508 321.176 24.9508H322.353C322.665 24.9508 322.964 25.0693 323.185 25.2803C323.405 25.4913 323.529 25.7774 323.529 26.0758V28.3257C323.529 28.6241 323.405 28.9102 323.185 29.1212C322.964 29.3322 322.665 29.4507 322.353 29.4507Z" fill="white"/>
<path d="M43.2656 26.4062C43.2656 26.7865 43.1927 27.1432 43.0469 27.4766C42.9062 27.8099 42.7109 28.1016 42.4609 28.3516C42.2109 28.6016 41.9193 28.7995 41.5859 28.9453C41.2526 29.0859 40.8958 29.1562 40.5156 29.1562H40.0312C39.651 29.1562 39.2943 29.0859 38.9609 28.9453C38.6276 28.7995 38.3359 28.6016 38.0859 28.3516C37.8359 28.1016 37.638 27.8099 37.4922 27.4766C37.3516 27.1432 37.2812 26.7865 37.2812 26.4062V26.1172L38.2891 25.9609V26.4062C38.2891 26.6562 38.3359 26.8906 38.4297 27.1094C38.5234 27.3229 38.651 27.513 38.8125 27.6797C38.974 27.8411 39.1615 27.9688 39.375 28.0625C39.5938 28.1562 39.8281 28.2031 40.0781 28.2031H40.4609C40.7109 28.2031 40.9427 28.1562 41.1562 28.0625C41.375 27.9688 41.5651 27.8411 41.7266 27.6797C41.8932 27.513 42.0234 27.3229 42.1172 27.1094C42.2109 26.8906 42.2578 26.6562 42.2578 26.4062V23.625C41.9974 23.9062 41.6901 24.1328 41.3359 24.3047C40.9818 24.4714 40.6016 24.5547 40.1953 24.5547H40.0312C39.651 24.5547 39.2943 24.4844 38.9609 24.3438C38.6276 24.1979 38.3359 24 38.0859 23.75C37.8359 23.5 37.638 23.2083 37.4922 22.875C37.3516 22.5365 37.2812 22.1771 37.2812 21.7969V20.3906C37.2812 20.0104 37.3516 19.6536 37.4922 19.3203C37.638 18.987 37.8359 18.6953 38.0859 18.4453C38.3359 18.1953 38.6276 18 38.9609 17.8594C39.2943 17.7135 39.651 17.6406 40.0312 17.6406H40.5156C40.8958 17.6406 41.2526 17.7135 41.5859 17.8594C41.9193 18 42.2109 18.1953 42.4609 18.4453C42.7109 18.6953 42.9062 18.987 43.0469 19.3203C43.1927 19.6536 43.2656 20.0104 43.2656 20.3906V26.4062ZM42.2578 20.3906C42.2578 20.1406 42.2109 19.9089 42.1172 19.6953C42.0234 19.4766 41.8932 19.2865 41.7266 19.125C41.5651 18.9635 41.375 18.8359 41.1562 18.7422C40.9427 18.6484 40.7109 18.6016 40.4609 18.6016H40.0781C39.8281 18.6016 39.5938 18.6484 39.375 18.7422C39.1615 18.8359 38.974 18.9635 38.8125 19.125C38.651 19.2865 38.5234 19.4766 38.4297 19.6953C38.3359 19.9089 38.2891 20.1406 38.2891 20.3906V21.7969C38.2891 22.0469 38.3359 22.2812 38.4297 22.5C38.5234 22.7135 38.651 22.9036 38.8125 23.0703C38.974 23.2318 39.1615 23.3594 39.375 23.4531C39.5938 23.5469 39.8281 23.5938 40.0781 23.5938H40.4609C40.7109 23.5938 40.9427 23.5469 41.1562 23.4531C41.375 23.3594 41.5651 23.2318 41.7266 23.0703C41.8932 22.9036 42.0234 22.7135 42.1172 22.5C42.2109 22.2812 42.2578 22.0469 42.2578 21.7969V20.3906Z" fill="white"/>
<path d="M45.3516 22.2031V21H46.5547V22.2031H45.3516ZM45.3516 29V27.7969H46.5547V29H45.3516Z" fill="white"/>
<path d="M53.6562 27.0625V29H52.6484V27.0625H48.1484V26.5859L53.125 17.7969H53.6562V26.1016H54.6172V27.0625H53.6562ZM52.6484 20.5547L49.5625 26.1016H52.6484V20.5547Z" fill="white"/>
<path d="M57.0156 29V28.0391H59.6875V18.7578L57.0156 19.8828V18.9219L59.6875 17.7969H60.6953V28.0391H63.3672V29H57.0156Z" fill="white"/>
</svg>
