<svg width="179" height="160" viewBox="0 0 179 160" fill="none" xmlns="http://www.w3.org/2000/svg">
<g filter="url(#filter0_d)">
<path d="M20 25C20 22.2386 22.2386 20 25 20H123.997C126.759 20 128.997 22.2386 128.997 25V105C128.997 107.761 126.759 110 123.997 110H25C22.2386 110 20 107.761 20 105V25Z" fill="white"/>
<path d="M68.2168 92H59.6123V90.5322L63.875 85.8828C64.4902 85.1973 64.9268 84.626 65.1846 84.1689C65.4482 83.7061 65.5801 83.2432 65.5801 82.7803C65.5801 82.1709 65.4072 81.6787 65.0615 81.3037C64.7217 80.9287 64.2617 80.7412 63.6816 80.7412C62.9902 80.7412 62.4541 80.9521 62.0732 81.374C61.6924 81.7959 61.502 82.373 61.502 83.1055H59.3662C59.3662 82.3262 59.542 81.626 59.8936 81.0049C60.251 80.3779 60.7578 79.8916 61.4141 79.5459C62.0762 79.2002 62.8379 79.0273 63.6992 79.0273C64.9414 79.0273 65.9199 79.3408 66.6348 79.9678C67.3555 80.5889 67.7158 81.4502 67.7158 82.5518C67.7158 83.1904 67.5342 83.8613 67.1709 84.5645C66.8135 85.2617 66.2246 86.0557 65.4043 86.9463L62.2754 90.2949H68.2168V92ZM70.4141 85.6543L71.1084 79.2031H77.9814V81.0488H72.8838L72.5322 84.1074C73.124 83.7676 73.792 83.5977 74.5361 83.5977C75.7549 83.5977 76.7012 83.9873 77.375 84.7666C78.0547 85.5459 78.3945 86.5947 78.3945 87.9131C78.3945 89.2139 78.0195 90.251 77.2695 91.0244C76.5195 91.792 75.4912 92.1758 74.1846 92.1758C73.0127 92.1758 72.04 91.8447 71.2666 91.1826C70.499 90.5146 70.083 89.6357 70.0186 88.5459H72.084C72.166 89.167 72.3887 89.6445 72.752 89.9785C73.1152 90.3066 73.5898 90.4707 74.1758 90.4707C74.832 90.4707 75.3418 90.2363 75.7051 89.7676C76.0742 89.2988 76.2588 88.6602 76.2588 87.8516C76.2588 87.0723 76.0566 86.457 75.6523 86.0059C75.248 85.5488 74.6914 85.3203 73.9824 85.3203C73.5957 85.3203 73.2676 85.373 72.998 85.4785C72.7285 85.5781 72.4355 85.7773 72.1191 86.0762L70.4141 85.6543ZM86.7969 87.3682H83.668C83.7031 88.3877 83.958 89.1494 84.4326 89.6533C84.9131 90.1572 85.5986 90.4092 86.4893 90.4092C87.1338 90.4092 87.7344 90.3125 88.291 90.1191L88.5371 91.9121C87.834 92.082 87.1074 92.167 86.3574 92.167C84.8574 92.167 83.6768 91.7451 82.8154 90.9014C81.9541 90.0576 81.5 88.8799 81.4531 87.3682H79.9414V86.1289H81.4531V85.0039H79.9414V83.7646H81.4619C81.5381 82.2705 82.0156 81.1104 82.8945 80.2842C83.7734 79.4521 84.9541 79.0361 86.4365 79.0361C87.0576 79.0361 87.7578 79.127 88.5371 79.3086L88.291 81.1104C87.6934 80.9111 87.0986 80.8115 86.5068 80.8115C85.6221 80.8115 84.9424 81.0635 84.4678 81.5674C83.9932 82.0713 83.7295 82.8037 83.6768 83.7646H86.7969V85.0039H83.668V86.1289H86.7969V87.3682Z" fill="#33404F"/>
<g clip-path="url(#clip0)">
<g filter="url(#filter1_i)">
<path d="M64.6493 52.4486C64.4633 52.2608 64.4633 51.979 64.6028 51.7912C64.7889 51.6034 65.1144 51.5564 65.3005 51.7442C66.8352 53.2469 68.2305 54.8435 69.5793 56.487C69.9513 54.7026 69.8583 52.7773 68.6491 51.3216C67.0678 49.4902 64.0912 49.0207 61.8588 48.9267C61.5797 51.6503 61.7193 53.8104 62.7425 55.2661C63.7657 56.6279 65.719 57.3792 69.0212 57.2853C67.6259 55.5478 66.2306 53.9513 64.6493 52.4486ZM85.5783 45.1231C82.2297 45.264 77.8113 45.9214 75.4859 48.645C74.3697 49.9129 73.7651 51.6503 73.8116 53.9043C73.8581 54.7495 73.9511 55.6887 74.1836 56.6748C76.137 54.233 78.2299 51.8381 80.6018 49.5372C80.7879 49.3963 81.0669 49.3963 81.253 49.5841C81.439 49.772 81.439 50.0537 81.253 50.2416C78.788 52.5425 76.6951 54.9843 74.6952 57.5201C79.7647 57.7549 82.6947 56.6748 84.2295 54.5617C85.8108 52.4486 85.9969 49.1615 85.5783 45.1231ZM86.4154 44.184C86.834 47.6119 87.1596 52.1668 84.9737 55.1252C83.2063 57.567 79.8112 58.788 73.9976 58.4123C72.7419 60.0558 71.4861 61.7463 70.2769 63.4838C70.1374 63.6716 69.8118 63.7186 69.6258 63.5777C69.4397 63.3899 69.3932 63.1081 69.5328 62.9203C70.1374 62.075 70.742 61.2298 71.3466 60.3845C70.835 59.6332 70.2769 58.9288 69.7188 58.1775C65.6725 58.4123 63.3006 57.567 61.9983 55.8296C60.4635 53.6695 60.7426 50.4764 61.0216 47.9876C63.8587 48.0345 67.3468 48.4102 69.3467 50.7111C70.9745 52.5895 70.8815 55.1722 70.3234 57.4262C70.8815 58.1775 71.3931 58.8819 71.9512 59.6332C72.4163 58.9288 72.9279 58.2714 73.4395 57.614C73.1139 56.2992 72.9279 55.0313 72.8814 53.9513C72.8349 51.4155 73.5325 49.4902 74.7882 48.0345C77.5323 44.8414 82.5087 44.2779 86.4154 44.184Z" fill="#039E77"/>
<path d="M64.6493 52.4486C64.4633 52.2608 64.4633 51.979 64.6028 51.7912C64.7889 51.6034 65.1144 51.5564 65.3005 51.7442C66.8352 53.2469 68.2305 54.8435 69.5793 56.487C69.9513 54.7026 69.8583 52.7773 68.6491 51.3216C67.0678 49.4902 64.0912 49.0207 61.8588 48.9267C61.5797 51.6503 61.7193 53.8104 62.7425 55.2661C63.7657 56.6279 65.719 57.3792 69.0212 57.2853C67.6259 55.5478 66.2306 53.9513 64.6493 52.4486Z" fill="#039E77"/>
<path d="M85.5783 45.1231C82.2297 45.264 77.8113 45.9214 75.4859 48.645C74.3697 49.9129 73.7651 51.6503 73.8116 53.9043C73.8581 54.7495 73.9511 55.6887 74.1836 56.6748C76.137 54.233 78.2299 51.8381 80.6018 49.5372C80.7879 49.3963 81.0669 49.3963 81.253 49.5841C81.439 49.772 81.439 50.0537 81.253 50.2416C78.788 52.5425 76.6951 54.9843 74.6952 57.5201C79.7647 57.7549 82.6947 56.6748 84.2295 54.5617C85.8108 52.4486 85.9969 49.1615 85.5783 45.1231Z" fill="#039E77"/>
</g>
<g filter="url(#filter2_i)">
<path d="M71.8081 53.221C79.6997 46.4781 79.0854 43.5933 71.7046 35.7593C67.2068 39.412 61.8284 48.3732 71.8081 53.221Z" fill="#039E77"/>
</g>
</g>
</g>
<defs>
<filter id="filter0_d" x="-30" y="-30" width="208.997" height="190" filterUnits="userSpaceOnUse" color-interpolation-filters="sRGB">
<feFlood flood-opacity="0" result="BackgroundImageFix"/>
<feColorMatrix in="SourceAlpha" type="matrix" values="0 0 0 0 0 0 0 0 0 0 0 0 0 0 0 0 0 0 127 0"/>
<feOffset/>
<feGaussianBlur stdDeviation="25"/>
<feColorMatrix type="matrix" values="0 0 0 0 0.2 0 0 0 0 0.25098 0 0 0 0 0.309804 0 0 0 0.15 0"/>
<feBlend mode="normal" in2="BackgroundImageFix" result="effect1_dropShadow"/>
<feBlend mode="normal" in="SourceGraphic" in2="effect1_dropShadow" result="shape"/>
</filter>
<filter id="filter1_i" x="60.8027" y="44.184" width="25.9169" height="23.4756" filterUnits="userSpaceOnUse" color-interpolation-filters="sRGB">
<feFlood flood-opacity="0" result="BackgroundImageFix"/>
<feBlend mode="normal" in="SourceGraphic" in2="BackgroundImageFix" result="shape"/>
<feColorMatrix in="SourceAlpha" type="matrix" values="0 0 0 0 0 0 0 0 0 0 0 0 0 0 0 0 0 0 127 0" result="hardAlpha"/>
<feOffset dy="4"/>
<feGaussianBlur stdDeviation="2"/>
<feComposite in2="hardAlpha" operator="arithmetic" k2="-1" k3="1"/>
<feColorMatrix type="matrix" values="0 0 0 0 0 0 0 0 0 0 0 0 0 0 0 0 0 0 0.25 0"/>
<feBlend mode="normal" in2="shape" result="effect1_innerShadow"/>
</filter>
<filter id="filter2_i" x="62.7593" y="35.4935" width="18.0308" height="22.4218" filterUnits="userSpaceOnUse" color-interpolation-filters="sRGB">
<feFlood flood-opacity="0" result="BackgroundImageFix"/>
<feBlend mode="normal" in="SourceGraphic" in2="BackgroundImageFix" result="shape"/>
<feColorMatrix in="SourceAlpha" type="matrix" values="0 0 0 0 0 0 0 0 0 0 0 0 0 0 0 0 0 0 127 0" result="hardAlpha"/>
<feOffset dy="4"/>
<feGaussianBlur stdDeviation="2"/>
<feComposite in2="hardAlpha" operator="arithmetic" k2="-1" k3="1"/>
<feColorMatrix type="matrix" values="0 0 0 0 0 0 0 0 0 0 0 0 0 0 0 0 0 0 0.25 0"/>
<feBlend mode="normal" in2="shape" result="effect1_innerShadow"/>
</filter>
<clipPath id="clip0">
<rect width="50" height="50" fill="white" transform="translate(49 25)"/>
</clipPath>
</defs>
</svg>
