<svg width="378" height="294" viewBox="0 0 378 294" fill="none" xmlns="http://www.w3.org/2000/svg">
<path d="M38.667 32.2334H42.0361V33H37.7246V25.8906H38.667V32.2334ZM46.0107 32.4775C45.6592 32.891 45.1432 33.0977 44.4629 33.0977C43.8997 33.0977 43.4701 32.9349 43.1738 32.6094C42.8809 32.2806 42.7327 31.7956 42.7295 31.1543V27.7168H43.6328V31.1299C43.6328 31.9307 43.9583 32.3311 44.6094 32.3311C45.2995 32.3311 45.7585 32.0739 45.9863 31.5596V27.7168H46.8896V33H46.0303L46.0107 32.4775ZM49.1211 27.7168L49.1504 28.3809C49.554 27.873 50.0814 27.6191 50.7324 27.6191C51.849 27.6191 52.4121 28.249 52.4219 29.5088V33H51.5186V29.5039C51.5153 29.123 51.4274 28.8415 51.2549 28.6592C51.0856 28.4769 50.8203 28.3857 50.459 28.3857C50.166 28.3857 49.9089 28.4639 49.6875 28.6201C49.4661 28.7764 49.2936 28.9814 49.1699 29.2354V33H48.2666V27.7168H49.1211Z" fill="white"/>
<path d="M86.2568 25.8906L88.5811 31.6914L90.9053 25.8906H92.1211V33H91.1836V30.2314L91.2715 27.2432L88.9375 33H88.2197L85.8906 27.2578L85.9834 30.2314V33H85.0459V25.8906H86.2568ZM96.8965 33C96.8444 32.8958 96.8021 32.7103 96.7695 32.4434C96.3496 32.8796 95.8483 33.0977 95.2656 33.0977C94.7448 33.0977 94.3167 32.9512 93.9814 32.6582C93.6494 32.362 93.4834 31.9876 93.4834 31.5352C93.4834 30.985 93.6917 30.5586 94.1084 30.2559C94.5283 29.9499 95.1175 29.7969 95.876 29.7969H96.7549V29.3818C96.7549 29.0661 96.6605 28.8154 96.4717 28.6299C96.2829 28.4411 96.0046 28.3467 95.6367 28.3467C95.3145 28.3467 95.0443 28.4281 94.8262 28.5908C94.6081 28.7536 94.499 28.9505 94.499 29.1816H93.5908C93.5908 28.918 93.6836 28.6641 93.8691 28.4199C94.0579 28.1725 94.3118 27.9772 94.6309 27.834C94.9531 27.6908 95.3063 27.6191 95.6904 27.6191C96.2992 27.6191 96.776 27.7721 97.1211 28.0781C97.4661 28.3809 97.6452 28.7992 97.6582 29.333V31.7646C97.6582 32.2497 97.7201 32.6354 97.8438 32.9219V33H96.8965ZM95.3975 32.3115C95.6807 32.3115 95.9492 32.2383 96.2031 32.0918C96.457 31.9453 96.641 31.7549 96.7549 31.5205V30.4365H96.0469C94.9401 30.4365 94.3867 30.7604 94.3867 31.4082C94.3867 31.6914 94.4811 31.9128 94.6699 32.0723C94.8587 32.2318 95.1012 32.3115 95.3975 32.3115ZM101.628 28.5273C101.491 28.5046 101.343 28.4932 101.184 28.4932C100.591 28.4932 100.189 28.7454 99.9775 29.25V33H99.0742V27.7168H99.9531L99.9678 28.3271C100.264 27.8551 100.684 27.6191 101.228 27.6191C101.403 27.6191 101.537 27.6419 101.628 27.6875V28.5273Z" fill="white"/>
<path d="M134.804 25.8906L137.128 31.6914L139.452 25.8906H140.668V33H139.73V30.2314L139.818 27.2432L137.484 33H136.767L134.438 27.2578L134.53 30.2314V33H133.593V25.8906H134.804ZM143.163 33H142.26V27.7168H143.163V33ZM142.187 26.3154C142.187 26.1689 142.23 26.0452 142.318 25.9443C142.41 25.8434 142.543 25.793 142.719 25.793C142.895 25.793 143.028 25.8434 143.119 25.9443C143.21 26.0452 143.256 26.1689 143.256 26.3154C143.256 26.4619 143.21 26.584 143.119 26.6816C143.028 26.7793 142.895 26.8281 142.719 26.8281C142.543 26.8281 142.41 26.7793 142.318 26.6816C142.23 26.584 142.187 26.4619 142.187 26.3154ZM146.806 33.0977C146.09 33.0977 145.507 32.8633 145.058 32.3945C144.608 31.9225 144.384 31.2926 144.384 30.5049V30.3389C144.384 29.8148 144.483 29.3477 144.682 28.9375C144.883 28.5241 145.163 28.2018 145.521 27.9707C145.883 27.7363 146.273 27.6191 146.693 27.6191C147.38 27.6191 147.914 27.8454 148.295 28.2979C148.676 28.7503 148.866 29.3981 148.866 30.2412V30.6172H145.287C145.3 31.138 145.451 31.5596 145.741 31.8818C146.034 32.2008 146.405 32.3604 146.854 32.3604C147.174 32.3604 147.444 32.2952 147.665 32.165C147.886 32.0348 148.08 31.8623 148.246 31.6475L148.798 32.0771C148.355 32.7575 147.691 33.0977 146.806 33.0977ZM146.693 28.3613C146.329 28.3613 146.023 28.4948 145.775 28.7617C145.528 29.0254 145.375 29.3965 145.316 29.875H147.963V29.8066C147.937 29.3477 147.813 28.9928 147.592 28.7422C147.37 28.4883 147.071 28.3613 146.693 28.3613Z" fill="white"/>
<path d="M184.635 25.8906H185.577V30.9248C185.577 31.6051 185.372 32.1374 184.962 32.5215C184.555 32.9056 184.011 33.0977 183.331 33.0977C182.625 33.0977 182.075 32.917 181.681 32.5557C181.287 32.1943 181.09 31.6882 181.09 31.0371H182.027C182.027 31.444 182.138 31.7614 182.359 31.9893C182.584 32.2171 182.908 32.3311 183.331 32.3311C183.718 32.3311 184.031 32.209 184.269 31.9648C184.509 31.7207 184.632 31.3789 184.635 30.9395V25.8906ZM190.294 32.4775C189.942 32.891 189.426 33.0977 188.746 33.0977C188.183 33.0977 187.753 32.9349 187.457 32.6094C187.164 32.2806 187.016 31.7956 187.013 31.1543V27.7168H187.916V31.1299C187.916 31.9307 188.242 32.3311 188.893 32.3311C189.583 32.3311 190.042 32.0739 190.27 31.5596V27.7168H191.173V33H190.313L190.294 32.4775ZM194.742 33.0977C194.026 33.0977 193.443 32.8633 192.994 32.3945C192.545 31.9225 192.32 31.2926 192.32 30.5049V30.3389C192.32 29.8148 192.42 29.3477 192.618 28.9375C192.82 28.5241 193.1 28.2018 193.458 27.9707C193.819 27.7363 194.21 27.6191 194.63 27.6191C195.317 27.6191 195.851 27.8454 196.231 28.2979C196.612 28.7503 196.803 29.3981 196.803 30.2412V30.6172H193.224C193.237 31.138 193.388 31.5596 193.678 31.8818C193.971 32.2008 194.342 32.3604 194.791 32.3604C195.11 32.3604 195.38 32.2952 195.602 32.165C195.823 32.0348 196.017 31.8623 196.183 31.6475L196.734 32.0771C196.292 32.7575 195.628 33.0977 194.742 33.0977ZM194.63 28.3613C194.265 28.3613 193.959 28.4948 193.712 28.7617C193.465 29.0254 193.312 29.3965 193.253 29.875H195.899V29.8066C195.873 29.3477 195.75 28.9928 195.528 28.7422C195.307 28.4883 195.007 28.3613 194.63 28.3613Z" fill="white"/>
<path d="M233.128 31.7549L235.159 25.8906H236.185L233.548 33H232.718L230.086 25.8906H231.106L233.128 31.7549ZM237.981 33H237.078V27.7168H237.981V33ZM237.005 26.3154C237.005 26.1689 237.049 26.0452 237.137 25.9443C237.228 25.8434 237.361 25.793 237.537 25.793C237.713 25.793 237.846 25.8434 237.938 25.9443C238.029 26.0452 238.074 26.1689 238.074 26.3154C238.074 26.4619 238.029 26.584 237.938 26.6816C237.846 26.7793 237.713 26.8281 237.537 26.8281C237.361 26.8281 237.228 26.7793 237.137 26.6816C237.049 26.584 237.005 26.4619 237.005 26.3154ZM241.624 33.0977C240.908 33.0977 240.325 32.8633 239.876 32.3945C239.427 31.9225 239.202 31.2926 239.202 30.5049V30.3389C239.202 29.8148 239.301 29.3477 239.5 28.9375C239.702 28.5241 239.982 28.2018 240.34 27.9707C240.701 27.7363 241.092 27.6191 241.512 27.6191C242.199 27.6191 242.732 27.8454 243.113 28.2979C243.494 28.7503 243.685 29.3981 243.685 30.2412V30.6172H240.105C240.118 31.138 240.27 31.5596 240.56 31.8818C240.853 32.2008 241.224 32.3604 241.673 32.3604C241.992 32.3604 242.262 32.2952 242.483 32.165C242.705 32.0348 242.898 31.8623 243.064 31.6475L243.616 32.0771C243.174 32.7575 242.509 33.0977 241.624 33.0977ZM241.512 28.3613C241.147 28.3613 240.841 28.4948 240.594 28.7617C240.346 29.0254 240.193 29.3965 240.135 29.875H242.781V29.8066C242.755 29.3477 242.632 28.9928 242.41 28.7422C242.189 28.4883 241.889 28.3613 241.512 28.3613Z" fill="white"/>
<path d="M279.424 29.8311C278.62 29.5999 278.034 29.3167 277.666 28.9814C277.301 28.6429 277.119 28.2262 277.119 27.7314C277.119 27.1715 277.342 26.7093 277.788 26.3447C278.237 25.9769 278.82 25.793 279.536 25.793C280.024 25.793 280.459 25.8874 280.84 26.0762C281.224 26.265 281.52 26.5254 281.729 26.8574C281.94 27.1895 282.046 27.5524 282.046 27.9463H281.104C281.104 27.5166 280.967 27.1797 280.693 26.9355C280.42 26.6882 280.034 26.5645 279.536 26.5645C279.074 26.5645 278.713 26.667 278.452 26.8721C278.195 27.0739 278.066 27.3555 278.066 27.7168C278.066 28.0065 278.188 28.2523 278.433 28.4541C278.68 28.6527 279.098 28.835 279.688 29.001C280.28 29.167 280.742 29.3509 281.074 29.5527C281.41 29.7513 281.657 29.984 281.816 30.251C281.979 30.5179 282.061 30.832 282.061 31.1934C282.061 31.7695 281.836 32.2318 281.387 32.5801C280.938 32.9251 280.337 33.0977 279.585 33.0977C279.097 33.0977 278.641 33.0049 278.218 32.8193C277.795 32.6305 277.467 32.3734 277.236 32.0479C277.008 31.7223 276.895 31.3529 276.895 30.9395H277.837C277.837 31.3691 277.995 31.7093 278.311 31.96C278.63 32.2074 279.054 32.3311 279.585 32.3311C280.08 32.3311 280.459 32.2301 280.723 32.0283C280.986 31.8265 281.118 31.5514 281.118 31.2031C281.118 30.8548 280.996 30.5863 280.752 30.3975C280.508 30.2054 280.065 30.0166 279.424 29.8311ZM286.387 33C286.335 32.8958 286.292 32.7103 286.26 32.4434C285.84 32.8796 285.339 33.0977 284.756 33.0977C284.235 33.0977 283.807 32.9512 283.472 32.6582C283.14 32.362 282.974 31.9876 282.974 31.5352C282.974 30.985 283.182 30.5586 283.599 30.2559C284.019 29.9499 284.608 29.7969 285.366 29.7969H286.245V29.3818C286.245 29.0661 286.151 28.8154 285.962 28.6299C285.773 28.4411 285.495 28.3467 285.127 28.3467C284.805 28.3467 284.535 28.4281 284.316 28.5908C284.098 28.7536 283.989 28.9505 283.989 29.1816H283.081C283.081 28.918 283.174 28.6641 283.359 28.4199C283.548 28.1725 283.802 27.9772 284.121 27.834C284.443 27.6908 284.797 27.6191 285.181 27.6191C285.789 27.6191 286.266 27.7721 286.611 28.0781C286.956 28.3809 287.135 28.7992 287.148 29.333V31.7646C287.148 32.2497 287.21 32.6354 287.334 32.9219V33H286.387ZM284.888 32.3115C285.171 32.3115 285.439 32.2383 285.693 32.0918C285.947 31.9453 286.131 31.7549 286.245 31.5205V30.4365H285.537C284.43 30.4365 283.877 30.7604 283.877 31.4082C283.877 31.6914 283.971 31.9128 284.16 32.0723C284.349 32.2318 284.591 32.3115 284.888 32.3115ZM293.037 30.417C293.037 31.2243 292.852 31.8737 292.48 32.3652C292.109 32.8535 291.611 33.0977 290.986 33.0977C290.319 33.0977 289.803 32.8617 289.438 32.3896L289.395 33H288.564V25.5H289.468V28.2979C289.832 27.8454 290.335 27.6191 290.977 27.6191C291.618 27.6191 292.121 27.8617 292.485 28.3467C292.853 28.8317 293.037 29.4958 293.037 30.3389V30.417ZM292.134 30.3145C292.134 29.6992 292.015 29.224 291.777 28.8887C291.54 28.5534 291.198 28.3857 290.752 28.3857C290.156 28.3857 289.728 28.6624 289.468 29.2158V31.501C289.744 32.0544 290.176 32.3311 290.762 32.3311C291.195 32.3311 291.532 32.1634 291.772 31.8281C292.013 31.4928 292.134 30.9883 292.134 30.3145Z" fill="white"/>
<path d="M323.308 33V25.8906H325.314C325.933 25.8906 326.48 26.0273 326.955 26.3008C327.43 26.5742 327.797 26.9632 328.054 27.4678C328.314 27.9723 328.446 28.5518 328.449 29.2061V29.6602C328.449 30.3307 328.319 30.9183 328.059 31.4229C327.801 31.9274 327.432 32.3148 326.95 32.585C326.472 32.8551 325.913 32.9935 325.275 33H323.308ZM324.245 26.6621V32.2334H325.231C325.954 32.2334 326.516 32.0088 326.916 31.5596C327.32 31.1104 327.521 30.4707 327.521 29.6406V29.2256C327.521 28.4183 327.331 27.7917 326.95 27.3457C326.573 26.8965 326.035 26.6686 325.339 26.6621H324.245ZM329.489 30.3096C329.489 29.792 329.59 29.3265 329.792 28.9131C329.997 28.4997 330.28 28.1807 330.642 27.9561C331.006 27.7314 331.421 27.6191 331.887 27.6191C332.606 27.6191 333.187 27.8682 333.63 28.3662C334.076 28.8643 334.299 29.5267 334.299 30.3535V30.417C334.299 30.9313 334.2 31.3936 334.001 31.8037C333.806 32.2106 333.524 32.528 333.156 32.7559C332.792 32.9837 332.372 33.0977 331.896 33.0977C331.18 33.0977 330.599 32.8486 330.153 32.3506C329.711 31.8525 329.489 31.1934 329.489 30.373V30.3096ZM330.397 30.417C330.397 31.0029 330.533 31.4733 330.803 31.8281C331.076 32.1829 331.441 32.3604 331.896 32.3604C332.355 32.3604 332.72 32.1813 332.99 31.8232C333.26 31.4619 333.396 30.9574 333.396 30.3096C333.396 29.7301 333.257 29.2614 332.98 28.9033C332.707 28.542 332.342 28.3613 331.887 28.3613C331.441 28.3613 331.081 28.5387 330.808 28.8936C330.534 29.2484 330.397 29.7562 330.397 30.417ZM336.281 27.7168L336.306 28.3027C336.693 27.847 337.215 27.6191 337.873 27.6191C338.612 27.6191 339.115 27.9023 339.382 28.4688C339.558 28.2148 339.785 28.0098 340.065 27.8535C340.349 27.6973 340.682 27.6191 341.066 27.6191C342.225 27.6191 342.814 28.2327 342.834 29.46V33H341.931V29.5137C341.931 29.1361 341.844 28.8545 341.672 28.6689C341.499 28.4801 341.21 28.3857 340.803 28.3857C340.467 28.3857 340.189 28.4867 339.968 28.6885C339.746 28.887 339.618 29.1556 339.582 29.4941V33H338.674V29.5381C338.674 28.7699 338.298 28.3857 337.546 28.3857C336.953 28.3857 336.548 28.638 336.33 29.1426V33H335.427V27.7168H336.281Z" fill="white"/>
<circle cx="45" cy="62" r="15.5" stroke="#EAEAEA" stroke-width="3"/>
<path d="M45 46.5C47.0355 46.5 49.051 46.9009 50.9316 47.6799C52.8121 48.4588 54.5208 49.6005 55.9602 51.0398C57.3995 52.4792 58.5412 54.1879 59.3201 56.0684C60.0991 57.949 60.5 59.9645 60.5 62C60.5 64.0355 60.0991 66.051 59.3201 67.9316C58.5412 69.8121 57.3995 71.5209 55.9602 72.9602C54.5208 74.3995 52.8121 75.5412 50.9316 76.3201C49.051 77.0991 47.0355 77.5 45 77.5C42.9645 77.5 40.9489 77.0991 39.0684 76.3201C37.1879 75.5412 35.4791 74.3995 34.0398 72.9602C32.6005 71.5208 31.4588 69.8121 30.6799 67.9316C29.9009 66.051 29.5 64.0355 29.5 62C29.5 59.9645 29.9009 57.9489 30.6799 56.0684C31.4588 54.1879 32.6005 52.4791 34.0399 51.0398C35.4792 49.6005 37.1879 48.4588 39.0684 47.6799C40.949 46.9009 42.9645 46.5 45 46.5L45 46.5Z" stroke="#00DDA3" stroke-width="3" stroke-linecap="round"/>
<path d="M45.4023 66H44.3125V58.7754L42.127 59.5781V58.5938L45.2324 57.4277H45.4023V66Z" fill="white"/>
<circle cx="93" cy="62" r="15.5" stroke="#EAEAEA" stroke-width="3"/>
<path d="M96.4297 66H90.8398V65.2207L93.793 61.9395C94.2305 61.4434 94.5312 61.041 94.6953 60.7324C94.8633 60.4199 94.9473 60.0977 94.9473 59.7656C94.9473 59.3203 94.8125 58.9551 94.543 58.6699C94.2734 58.3848 93.9141 58.2422 93.4648 58.2422C92.9258 58.2422 92.5059 58.3965 92.2051 58.7051C91.9082 59.0098 91.7598 59.4355 91.7598 59.9824H90.6758C90.6758 59.1973 90.9277 58.5625 91.4316 58.0781C91.9395 57.5938 92.6172 57.3516 93.4648 57.3516C94.2578 57.3516 94.8848 57.5605 95.3457 57.9785C95.8066 58.3926 96.0371 58.9453 96.0371 59.6367C96.0371 60.4766 95.502 61.4766 94.4316 62.6367L92.1465 65.1152H96.4297V66Z" fill="white"/>
<circle cx="141" cy="62" r="15.5" stroke="#EAEAEA" stroke-width="3"/>
<path d="M140.416 61.207H141.23C141.742 61.1992 142.145 61.0645 142.438 60.8027C142.73 60.541 142.877 60.1875 142.877 59.7422C142.877 58.7422 142.379 58.2422 141.383 58.2422C140.914 58.2422 140.539 58.377 140.258 58.6465C139.98 58.9121 139.842 59.2656 139.842 59.707H138.758C138.758 59.0312 139.004 58.4707 139.496 58.0254C139.992 57.5762 140.621 57.3516 141.383 57.3516C142.188 57.3516 142.818 57.5645 143.275 57.9902C143.732 58.416 143.961 59.0078 143.961 59.7656C143.961 60.1367 143.84 60.4961 143.598 60.8438C143.359 61.1914 143.033 61.4512 142.619 61.623C143.088 61.7715 143.449 62.0176 143.703 62.3613C143.961 62.7051 144.09 63.125 144.09 63.6211C144.09 64.3867 143.84 64.9941 143.34 65.4434C142.84 65.8926 142.189 66.1172 141.389 66.1172C140.588 66.1172 139.936 65.9004 139.432 65.4668C138.932 65.0332 138.682 64.4609 138.682 63.75H139.771C139.771 64.1992 139.918 64.5586 140.211 64.8281C140.504 65.0977 140.896 65.2324 141.389 65.2324C141.912 65.2324 142.312 65.0957 142.59 64.8223C142.867 64.5488 143.006 64.1562 143.006 63.6445C143.006 63.1484 142.854 62.7676 142.549 62.502C142.244 62.2363 141.805 62.0996 141.23 62.0918H140.416V61.207Z" fill="white"/>
<circle cx="189" cy="62" r="15.5" stroke="#EAEAEA" stroke-width="3"/>
<path d="M189 46.5C191.035 46.5 193.051 46.9009 194.932 47.6799C196.812 48.4588 198.521 49.6005 199.96 51.0398C201.399 52.4792 202.541 54.1879 203.32 56.0684C204.099 57.949 204.5 59.9645 204.5 62C204.5 64.0355 204.099 66.051 203.32 67.9316C202.541 69.8121 201.399 71.5209 199.96 72.9602C198.521 74.3995 196.812 75.5412 194.932 76.3201C193.051 77.0991 191.035 77.5 189 77.5C186.965 77.5 184.949 77.0991 183.068 76.3201C181.188 75.5412 179.479 74.3995 178.04 72.9602C176.601 71.5208 175.459 69.8121 174.68 67.9316C173.901 66.051 173.5 64.0355 173.5 62C173.5 59.9645 173.901 57.9489 174.68 56.0684C175.459 54.1879 176.601 52.4791 178.04 51.0398C179.479 49.6005 181.188 48.4588 183.068 47.6799C184.949 46.9009 186.965 46.5 189 46.5L189 46.5Z" stroke="#00DDA3" stroke-width="3" stroke-linecap="round"/>
<path d="M191.416 63.1348H192.6V64.0195H191.416V66H190.326V64.0195H186.441V63.3809L190.262 57.4688H191.416V63.1348ZM187.672 63.1348H190.326V58.9512L190.197 59.1855L187.672 63.1348Z" fill="white"/>
<circle cx="237" cy="62" r="15.5" stroke="#EAEAEA" stroke-width="3"/>
<path d="M237 46.5C239.035 46.5 241.051 46.9009 242.932 47.6799C244.812 48.4588 246.521 49.6005 247.96 51.0398C249.399 52.4792 250.541 54.1879 251.32 56.0684C252.099 57.949 252.5 59.9645 252.5 62C252.5 64.0355 252.099 66.051 251.32 67.9316C250.541 69.8121 249.399 71.5209 247.96 72.9602C246.521 74.3995 244.812 75.5412 242.932 76.3201C241.051 77.0991 239.035 77.5 237 77.5C234.965 77.5 232.949 77.0991 231.068 76.3201C229.188 75.5412 227.479 74.3995 226.04 72.9602C224.601 71.5208 223.459 69.8121 222.68 67.9316C221.901 66.051 221.5 64.0355 221.5 62C221.5 59.9645 221.901 57.9489 222.68 56.0684C223.459 54.1879 224.601 52.4791 226.04 51.0398C227.479 49.6005 229.188 48.4588 231.068 47.6799C232.949 46.9009 234.965 46.5 237 46.5L237 46.5Z" stroke="#00DDA3" stroke-width="3" stroke-linecap="round"/>
<path d="M234.338 61.7227L234.771 57.4688H239.143V58.4707H235.691L235.434 60.7969C235.852 60.5508 236.326 60.4277 236.857 60.4277C237.635 60.4277 238.252 60.6855 238.709 61.2012C239.166 61.7129 239.395 62.4062 239.395 63.2812C239.395 64.1602 239.156 64.8535 238.68 65.3613C238.207 65.8652 237.545 66.1172 236.693 66.1172C235.939 66.1172 235.324 65.9082 234.848 65.4902C234.371 65.0723 234.1 64.4941 234.033 63.7559H235.059C235.125 64.2441 235.299 64.6133 235.58 64.8633C235.861 65.1094 236.232 65.2324 236.693 65.2324C237.197 65.2324 237.592 65.0605 237.877 64.7168C238.166 64.373 238.311 63.8984 238.311 63.293C238.311 62.7227 238.154 62.2656 237.842 61.9219C237.533 61.5742 237.121 61.4004 236.605 61.4004C236.133 61.4004 235.762 61.5039 235.492 61.7109L235.205 61.9453L234.338 61.7227Z" fill="white"/>
<circle cx="285" cy="62" r="15.5" stroke="#EAEAEA" stroke-width="3"/>
<path d="M287.094 57.4629V58.3828H286.895C286.051 58.3984 285.379 58.6484 284.879 59.1328C284.379 59.6172 284.09 60.2988 284.012 61.1777C284.461 60.6621 285.074 60.4043 285.852 60.4043C286.594 60.4043 287.186 60.666 287.627 61.1895C288.072 61.7129 288.295 62.3887 288.295 63.2168C288.295 64.0957 288.055 64.7988 287.574 65.3262C287.098 65.8535 286.457 66.1172 285.652 66.1172C284.836 66.1172 284.174 65.8047 283.666 65.1797C283.158 64.5508 282.904 63.7422 282.904 62.7539V62.3379C282.904 60.7676 283.238 59.5684 283.906 58.7402C284.578 57.9082 285.576 57.4824 286.9 57.4629H287.094ZM285.67 61.3066C285.299 61.3066 284.957 61.418 284.645 61.6406C284.332 61.8633 284.115 62.1426 283.994 62.4785V62.877C283.994 63.5801 284.152 64.1465 284.469 64.5762C284.785 65.0059 285.18 65.2207 285.652 65.2207C286.141 65.2207 286.523 65.041 286.801 64.6816C287.082 64.3223 287.223 63.8516 287.223 63.2695C287.223 62.6836 287.08 62.2109 286.795 61.8516C286.514 61.4883 286.139 61.3066 285.67 61.3066Z" fill="white"/>
<path d="M336.348 58.0781L332.814 66H331.678L335.199 58.3594H330.582V57.4688H336.348V58.0781Z" fill="#B3B3B3"/>
<circle cx="333" cy="62" r="15.5" stroke="#00DDA3" stroke-width="3"/>
<circle cx="45" cy="110" r="15.5" stroke="#EAEAEA" stroke-width="3"/>
<path d="M47.0137 107.695C47.0137 108.121 46.9004 108.5 46.6738 108.832C46.4512 109.164 46.1484 109.424 45.7656 109.611C46.2109 109.803 46.5625 110.082 46.8203 110.449C47.082 110.816 47.2129 111.232 47.2129 111.697C47.2129 112.436 46.9629 113.023 46.4629 113.461C45.9668 113.898 45.3125 114.117 44.5 114.117C43.6797 114.117 43.0215 113.898 42.5254 113.461C42.0332 113.02 41.7871 112.432 41.7871 111.697C41.7871 111.236 41.9121 110.82 42.1621 110.449C42.416 110.078 42.7656 109.797 43.2109 109.605C42.832 109.418 42.5332 109.158 42.3145 108.826C42.0957 108.494 41.9863 108.117 41.9863 107.695C41.9863 106.977 42.2168 106.406 42.6777 105.984C43.1387 105.562 43.7461 105.352 44.5 105.352C45.25 105.352 45.8555 105.562 46.3164 105.984C46.7812 106.406 47.0137 106.977 47.0137 107.695ZM46.1289 111.674C46.1289 111.197 45.9766 110.809 45.6719 110.508C45.3711 110.207 44.9766 110.057 44.4883 110.057C44 110.057 43.6074 110.205 43.3105 110.502C43.0176 110.799 42.8711 111.189 42.8711 111.674C42.8711 112.158 43.0137 112.539 43.2988 112.816C43.5879 113.094 43.9883 113.232 44.5 113.232C45.0078 113.232 45.4062 113.094 45.6953 112.816C45.9844 112.535 46.1289 112.154 46.1289 111.674ZM44.5 106.242C44.0742 106.242 43.7285 106.375 43.4629 106.641C43.2012 106.902 43.0703 107.26 43.0703 107.713C43.0703 108.146 43.1992 108.498 43.457 108.768C43.7188 109.033 44.0664 109.166 44.5 109.166C44.9336 109.166 45.2793 109.033 45.5371 108.768C45.7988 108.498 45.9297 108.146 45.9297 107.713C45.9297 107.279 45.7949 106.926 45.5254 106.652C45.2559 106.379 44.9141 106.242 44.5 106.242Z" fill="white"/>
<circle cx="93" cy="110" r="15.5" stroke="#EAEAEA" stroke-width="3"/>
<path d="M94.9941 110.25C94.7676 110.52 94.4961 110.736 94.1797 110.9C93.8672 111.064 93.5234 111.146 93.1484 111.146C92.6562 111.146 92.2266 111.025 91.8594 110.783C91.4961 110.541 91.2148 110.201 91.0156 109.764C90.8164 109.322 90.7168 108.836 90.7168 108.305C90.7168 107.734 90.8242 107.221 91.0391 106.764C91.2578 106.307 91.5664 105.957 91.9648 105.715C92.3633 105.473 92.8281 105.352 93.3594 105.352C94.2031 105.352 94.8672 105.668 95.3516 106.301C95.8398 106.93 96.084 107.789 96.084 108.879V109.195C96.084 110.855 95.7559 112.068 95.0996 112.834C94.4434 113.596 93.4531 113.986 92.1289 114.006H91.918V113.092H92.1465C93.041 113.076 93.7285 112.844 94.209 112.395C94.6895 111.941 94.9512 111.227 94.9941 110.25ZM93.3242 110.25C93.6875 110.25 94.0215 110.139 94.3262 109.916C94.6348 109.693 94.8594 109.418 95 109.09V108.656C95 107.945 94.8457 107.367 94.5371 106.922C94.2285 106.477 93.8379 106.254 93.3652 106.254C92.8887 106.254 92.5059 106.438 92.2168 106.805C91.9277 107.168 91.7832 107.648 91.7832 108.246C91.7832 108.828 91.9219 109.309 92.1992 109.688C92.4805 110.062 92.8555 110.25 93.3242 110.25Z" fill="white"/>
<circle cx="141" cy="110" r="15.5" stroke="#00DDA3" stroke-width="3"/>
<path d="M138.533 114H137.443V106.775L135.258 107.578V106.594L138.363 105.428H138.533V114ZM147.059 110.361C147.059 111.631 146.842 112.574 146.408 113.191C145.975 113.809 145.297 114.117 144.375 114.117C143.465 114.117 142.791 113.816 142.354 113.215C141.916 112.609 141.689 111.707 141.674 110.508V109.061C141.674 107.807 141.891 106.875 142.324 106.266C142.758 105.656 143.438 105.352 144.363 105.352C145.281 105.352 145.957 105.646 146.391 106.236C146.824 106.822 147.047 107.729 147.059 108.955V110.361ZM145.975 108.879C145.975 107.961 145.846 107.293 145.588 106.875C145.33 106.453 144.922 106.242 144.363 106.242C143.809 106.242 143.404 106.451 143.15 106.869C142.896 107.287 142.766 107.93 142.758 108.797V110.531C142.758 111.453 142.891 112.135 143.156 112.576C143.426 113.014 143.832 113.232 144.375 113.232C144.91 113.232 145.307 113.025 145.564 112.611C145.826 112.197 145.963 111.545 145.975 110.654V108.879Z" fill="white"/>
<circle cx="189" cy="110" r="15.5" stroke="#00DDA3" stroke-width="3"/>
<path d="M186.533 114H185.443V106.775L183.258 107.578V106.594L186.363 105.428H186.533V114ZM193.271 114H192.182V106.775L189.996 107.578V106.594L193.102 105.428H193.271V114Z" fill="white"/>
<circle cx="237" cy="110" r="15.5" stroke="#EAEAEA" stroke-width="3"/>
<path d="M234.533 114H233.443V106.775L231.258 107.578V106.594L234.363 105.428H234.533V114ZM243.299 114H237.709V113.221L240.662 109.939C241.1 109.443 241.4 109.041 241.564 108.732C241.732 108.42 241.816 108.098 241.816 107.766C241.816 107.32 241.682 106.955 241.412 106.67C241.143 106.385 240.783 106.242 240.334 106.242C239.795 106.242 239.375 106.396 239.074 106.705C238.777 107.01 238.629 107.436 238.629 107.982H237.545C237.545 107.197 237.797 106.562 238.301 106.078C238.809 105.594 239.486 105.352 240.334 105.352C241.127 105.352 241.754 105.561 242.215 105.979C242.676 106.393 242.906 106.945 242.906 107.637C242.906 108.477 242.371 109.477 241.301 110.637L239.016 113.115H243.299V114Z" fill="white"/>
<circle cx="285" cy="110" r="15.5" stroke="#EAEAEA" stroke-width="3"/>
<path d="M282.533 114H281.443V106.775L279.258 107.578V106.594L282.363 105.428H282.533V114ZM287.285 109.207H288.1C288.611 109.199 289.014 109.064 289.307 108.803C289.6 108.541 289.746 108.188 289.746 107.742C289.746 106.742 289.248 106.242 288.252 106.242C287.783 106.242 287.408 106.377 287.127 106.646C286.85 106.912 286.711 107.266 286.711 107.707H285.627C285.627 107.031 285.873 106.471 286.365 106.025C286.861 105.576 287.49 105.352 288.252 105.352C289.057 105.352 289.688 105.564 290.145 105.99C290.602 106.416 290.83 107.008 290.83 107.766C290.83 108.137 290.709 108.496 290.467 108.844C290.229 109.191 289.902 109.451 289.488 109.623C289.957 109.771 290.318 110.018 290.572 110.361C290.83 110.705 290.959 111.125 290.959 111.621C290.959 112.387 290.709 112.994 290.209 113.443C289.709 113.893 289.059 114.117 288.258 114.117C287.457 114.117 286.805 113.9 286.301 113.467C285.801 113.033 285.551 112.461 285.551 111.75H286.641C286.641 112.199 286.787 112.559 287.08 112.828C287.373 113.098 287.766 113.232 288.258 113.232C288.781 113.232 289.182 113.096 289.459 112.822C289.736 112.549 289.875 112.156 289.875 111.645C289.875 111.148 289.723 110.768 289.418 110.502C289.113 110.236 288.674 110.1 288.1 110.092H287.285V109.207Z" fill="white"/>
<path d="M329.533 114H328.443V106.775L326.258 107.578V106.594L329.363 105.428H329.533V114ZM337.285 111.135H338.469V112.02H337.285V114H336.195V112.02H332.311V111.381L336.131 105.469H337.285V111.135ZM333.541 111.135H336.195V106.951L336.066 107.186L333.541 111.135Z" fill="#B3B3B3"/>
<circle cx="333" cy="110" r="15.5" stroke="#EAEAEA" stroke-width="3"/>
<circle cx="45" cy="158" r="15.5" stroke="#EAEAEA" stroke-width="3"/>
<path d="M41.5332 162H40.4434V154.775L38.2578 155.578V154.594L41.3633 153.428H41.5332V162ZM45.207 157.723L45.6406 153.469H50.0117V154.471H46.5605L46.3027 156.797C46.7207 156.551 47.1953 156.428 47.7266 156.428C48.5039 156.428 49.1211 156.686 49.5781 157.201C50.0352 157.713 50.2637 158.406 50.2637 159.281C50.2637 160.16 50.0254 160.854 49.5488 161.361C49.0762 161.865 48.4141 162.117 47.5625 162.117C46.8086 162.117 46.1934 161.908 45.7168 161.49C45.2402 161.072 44.9688 160.494 44.9023 159.756H45.9277C45.9941 160.244 46.168 160.613 46.4492 160.863C46.7305 161.109 47.1016 161.232 47.5625 161.232C48.0664 161.232 48.4609 161.061 48.7461 160.717C49.0352 160.373 49.1797 159.898 49.1797 159.293C49.1797 158.723 49.0234 158.266 48.7109 157.922C48.4023 157.574 47.9902 157.4 47.4746 157.4C47.002 157.4 46.6309 157.504 46.3613 157.711L46.0742 157.945L45.207 157.723Z" fill="white"/>
<circle cx="93" cy="158" r="15.5" stroke="#00DDA3" stroke-width="3"/>
<path d="M89.5332 162H88.4434V154.775L86.2578 155.578V154.594L89.3633 153.428H89.5332V162ZM96.9629 153.463V154.383H96.7637C95.9199 154.398 95.248 154.648 94.748 155.133C94.248 155.617 93.959 156.299 93.8809 157.178C94.3301 156.662 94.9434 156.404 95.7207 156.404C96.4629 156.404 97.0547 156.666 97.4961 157.189C97.9414 157.713 98.1641 158.389 98.1641 159.217C98.1641 160.096 97.9238 160.799 97.4434 161.326C96.9668 161.854 96.3262 162.117 95.5215 162.117C94.7051 162.117 94.043 161.805 93.5352 161.18C93.0273 160.551 92.7734 159.742 92.7734 158.754V158.338C92.7734 156.768 93.1074 155.568 93.7754 154.74C94.4473 153.908 95.4453 153.482 96.7695 153.463H96.9629ZM95.5391 157.307C95.168 157.307 94.8262 157.418 94.5137 157.641C94.2012 157.863 93.9844 158.143 93.8633 158.479V158.877C93.8633 159.58 94.0215 160.146 94.3379 160.576C94.6543 161.006 95.0488 161.221 95.5215 161.221C96.0098 161.221 96.3926 161.041 96.6699 160.682C96.9512 160.322 97.0918 159.852 97.0918 159.27C97.0918 158.684 96.9492 158.211 96.6641 157.852C96.3828 157.488 96.0078 157.307 95.5391 157.307Z" fill="white"/>
<circle cx="141" cy="158" r="15.5" stroke="#EAEAEA" stroke-width="3"/>
<path d="M137.533 162H136.443V154.775L134.258 155.578V154.594L137.363 153.428H137.533V162ZM146.217 154.078L142.684 162H141.547L145.068 154.359H140.451V153.469H146.217V154.078Z" fill="white"/>
<circle cx="189" cy="158" r="15.5" stroke="#00DDA3" stroke-width="3"/>
<path d="M185.533 162H184.443V154.775L182.258 155.578V154.594L185.363 153.428H185.533V162ZM193.883 155.695C193.883 156.121 193.77 156.5 193.543 156.832C193.32 157.164 193.018 157.424 192.635 157.611C193.08 157.803 193.432 158.082 193.689 158.449C193.951 158.816 194.082 159.232 194.082 159.697C194.082 160.436 193.832 161.023 193.332 161.461C192.836 161.898 192.182 162.117 191.369 162.117C190.549 162.117 189.891 161.898 189.395 161.461C188.902 161.02 188.656 160.432 188.656 159.697C188.656 159.236 188.781 158.82 189.031 158.449C189.285 158.078 189.635 157.797 190.08 157.605C189.701 157.418 189.402 157.158 189.184 156.826C188.965 156.494 188.855 156.117 188.855 155.695C188.855 154.977 189.086 154.406 189.547 153.984C190.008 153.562 190.615 153.352 191.369 153.352C192.119 153.352 192.725 153.562 193.186 153.984C193.65 154.406 193.883 154.977 193.883 155.695ZM192.998 159.674C192.998 159.197 192.846 158.809 192.541 158.508C192.24 158.207 191.846 158.057 191.357 158.057C190.869 158.057 190.477 158.205 190.18 158.502C189.887 158.799 189.74 159.189 189.74 159.674C189.74 160.158 189.883 160.539 190.168 160.816C190.457 161.094 190.857 161.232 191.369 161.232C191.877 161.232 192.275 161.094 192.564 160.816C192.854 160.535 192.998 160.154 192.998 159.674ZM191.369 154.242C190.943 154.242 190.598 154.375 190.332 154.641C190.07 154.902 189.939 155.26 189.939 155.713C189.939 156.146 190.068 156.498 190.326 156.768C190.588 157.033 190.936 157.166 191.369 157.166C191.803 157.166 192.148 157.033 192.406 156.768C192.668 156.498 192.799 156.146 192.799 155.713C192.799 155.279 192.664 154.926 192.395 154.652C192.125 154.379 191.783 154.242 191.369 154.242Z" fill="white"/>
<circle cx="237" cy="158" r="15.5" stroke="#EAEAEA" stroke-width="3"/>
<path d="M233.533 162H232.443V154.775L230.258 155.578V154.594L233.363 153.428H233.533V162ZM240.863 158.25C240.637 158.52 240.365 158.736 240.049 158.9C239.736 159.064 239.393 159.146 239.018 159.146C238.525 159.146 238.096 159.025 237.729 158.783C237.365 158.541 237.084 158.201 236.885 157.764C236.686 157.322 236.586 156.836 236.586 156.305C236.586 155.734 236.693 155.221 236.908 154.764C237.127 154.307 237.436 153.957 237.834 153.715C238.232 153.473 238.697 153.352 239.229 153.352C240.072 153.352 240.736 153.668 241.221 154.301C241.709 154.93 241.953 155.789 241.953 156.879V157.195C241.953 158.855 241.625 160.068 240.969 160.834C240.312 161.596 239.322 161.986 237.998 162.006H237.787V161.092H238.016C238.91 161.076 239.598 160.844 240.078 160.395C240.559 159.941 240.82 159.227 240.863 158.25ZM239.193 158.25C239.557 158.25 239.891 158.139 240.195 157.916C240.504 157.693 240.729 157.418 240.869 157.09V156.656C240.869 155.945 240.715 155.367 240.406 154.922C240.098 154.477 239.707 154.254 239.234 154.254C238.758 154.254 238.375 154.438 238.086 154.805C237.797 155.168 237.652 155.648 237.652 156.246C237.652 156.828 237.791 157.309 238.068 157.688C238.35 158.062 238.725 158.25 239.193 158.25Z" fill="white"/>
<circle cx="285" cy="158" r="15.5" stroke="#EAEAEA" stroke-width="3"/>
<path d="M283.561 161H277.971V160.221L280.924 156.939C281.361 156.443 281.662 156.041 281.826 155.732C281.994 155.42 282.078 155.098 282.078 154.766C282.078 154.32 281.943 153.955 281.674 153.67C281.404 153.385 281.045 153.242 280.596 153.242C280.057 153.242 279.637 153.396 279.336 153.705C279.039 154.01 278.891 154.436 278.891 154.982H277.807C277.807 154.197 278.059 153.562 278.562 153.078C279.07 152.594 279.748 152.352 280.596 152.352C281.389 152.352 282.016 152.561 282.477 152.979C282.938 153.393 283.168 153.945 283.168 154.637C283.168 155.477 282.633 156.477 281.562 157.637L279.277 160.115H283.561V161ZM290.059 157.361C290.059 158.631 289.842 159.574 289.408 160.191C288.975 160.809 288.297 161.117 287.375 161.117C286.465 161.117 285.791 160.816 285.354 160.215C284.916 159.609 284.689 158.707 284.674 157.508V156.061C284.674 154.807 284.891 153.875 285.324 153.266C285.758 152.656 286.438 152.352 287.363 152.352C288.281 152.352 288.957 152.646 289.391 153.236C289.824 153.822 290.047 154.729 290.059 155.955V157.361ZM288.975 155.879C288.975 154.961 288.846 154.293 288.588 153.875C288.33 153.453 287.922 153.242 287.363 153.242C286.809 153.242 286.404 153.451 286.15 153.869C285.896 154.287 285.766 154.93 285.758 155.797V157.531C285.758 158.453 285.891 159.135 286.156 159.576C286.426 160.014 286.832 160.232 287.375 160.232C287.91 160.232 288.307 160.025 288.564 159.611C288.826 159.197 288.963 158.545 288.975 157.654V155.879Z" fill="white"/>
<path d="M332.561 162H326.971V161.221L329.924 157.939C330.361 157.443 330.662 157.041 330.826 156.732C330.994 156.42 331.078 156.098 331.078 155.766C331.078 155.32 330.943 154.955 330.674 154.67C330.404 154.385 330.045 154.242 329.596 154.242C329.057 154.242 328.637 154.396 328.336 154.705C328.039 155.01 327.891 155.436 327.891 155.982H326.807C326.807 155.197 327.059 154.562 327.562 154.078C328.07 153.594 328.748 153.352 329.596 153.352C330.389 153.352 331.016 153.561 331.477 153.979C331.938 154.393 332.168 154.945 332.168 155.637C332.168 156.477 331.633 157.477 330.562 158.637L328.277 161.115H332.561V162ZM337.271 162H336.182V154.775L333.996 155.578V154.594L337.102 153.428H337.271V162Z" fill="#B3B3B3"/>
<circle cx="333" cy="158" r="15.5" stroke="#EAEAEA" stroke-width="3"/>
<circle cx="45" cy="206" r="15.5" stroke="#00DDA3" stroke-width="3"/>
<path d="M44.5605 210H38.9707V209.221L41.9238 205.939C42.3613 205.443 42.6621 205.041 42.8262 204.732C42.9941 204.42 43.0781 204.098 43.0781 203.766C43.0781 203.32 42.9434 202.955 42.6738 202.67C42.4043 202.385 42.0449 202.242 41.5957 202.242C41.0566 202.242 40.6367 202.396 40.3359 202.705C40.0391 203.01 39.8906 203.436 39.8906 203.982H38.8066C38.8066 203.197 39.0586 202.562 39.5625 202.078C40.0703 201.594 40.748 201.352 41.5957 201.352C42.3887 201.352 43.0156 201.561 43.4766 201.979C43.9375 202.393 44.168 202.945 44.168 203.637C44.168 204.477 43.6328 205.477 42.5625 206.637L40.2773 209.115H44.5605V210ZM51.2988 210H45.709V209.221L48.6621 205.939C49.0996 205.443 49.4004 205.041 49.5645 204.732C49.7324 204.42 49.8164 204.098 49.8164 203.766C49.8164 203.32 49.6816 202.955 49.4121 202.67C49.1426 202.385 48.7832 202.242 48.334 202.242C47.7949 202.242 47.375 202.396 47.0742 202.705C46.7773 203.01 46.6289 203.436 46.6289 203.982H45.5449C45.5449 203.197 45.7969 202.562 46.3008 202.078C46.8086 201.594 47.4863 201.352 48.334 201.352C49.127 201.352 49.7539 201.561 50.2148 201.979C50.6758 202.393 50.9062 202.945 50.9062 203.637C50.9062 204.477 50.3711 205.477 49.3008 206.637L47.0156 209.115H51.2988V210Z" fill="white"/>
<circle cx="93" cy="206" r="15.5" stroke="#EAEAEA" stroke-width="3"/>
<path d="M92.5605 210H86.9707V209.221L89.9238 205.939C90.3613 205.443 90.6621 205.041 90.8262 204.732C90.9941 204.42 91.0781 204.098 91.0781 203.766C91.0781 203.32 90.9434 202.955 90.6738 202.67C90.4043 202.385 90.0449 202.242 89.5957 202.242C89.0566 202.242 88.6367 202.396 88.3359 202.705C88.0391 203.01 87.8906 203.436 87.8906 203.982H86.8066C86.8066 203.197 87.0586 202.562 87.5625 202.078C88.0703 201.594 88.748 201.352 89.5957 201.352C90.3887 201.352 91.0156 201.561 91.4766 201.979C91.9375 202.393 92.168 202.945 92.168 203.637C92.168 204.477 91.6328 205.477 90.5625 206.637L88.2773 209.115H92.5605V210ZM95.2852 205.207H96.0996C96.6113 205.199 97.0137 205.064 97.3066 204.803C97.5996 204.541 97.7461 204.188 97.7461 203.742C97.7461 202.742 97.248 202.242 96.252 202.242C95.7832 202.242 95.4082 202.377 95.127 202.646C94.8496 202.912 94.7109 203.266 94.7109 203.707H93.627C93.627 203.031 93.873 202.471 94.3652 202.025C94.8613 201.576 95.4902 201.352 96.252 201.352C97.0566 201.352 97.6875 201.564 98.1445 201.99C98.6016 202.416 98.8301 203.008 98.8301 203.766C98.8301 204.137 98.709 204.496 98.4668 204.844C98.2285 205.191 97.9023 205.451 97.4883 205.623C97.957 205.771 98.3184 206.018 98.5723 206.361C98.8301 206.705 98.959 207.125 98.959 207.621C98.959 208.387 98.709 208.994 98.209 209.443C97.709 209.893 97.0586 210.117 96.2578 210.117C95.457 210.117 94.8047 209.9 94.3008 209.467C93.8008 209.033 93.5508 208.461 93.5508 207.75H94.6406C94.6406 208.199 94.7871 208.559 95.0801 208.828C95.373 209.098 95.7656 209.232 96.2578 209.232C96.7812 209.232 97.1816 209.096 97.459 208.822C97.7363 208.549 97.875 208.156 97.875 207.645C97.875 207.148 97.7227 206.768 97.418 206.502C97.1133 206.236 96.6738 206.1 96.0996 206.092H95.2852V205.207Z" fill="white"/>
<circle cx="141" cy="206" r="15.5" stroke="#00DDA3" stroke-width="3"/>
<path d="M140.561 210H134.971V209.221L137.924 205.939C138.361 205.443 138.662 205.041 138.826 204.732C138.994 204.42 139.078 204.098 139.078 203.766C139.078 203.32 138.943 202.955 138.674 202.67C138.404 202.385 138.045 202.242 137.596 202.242C137.057 202.242 136.637 202.396 136.336 202.705C136.039 203.01 135.891 203.436 135.891 203.982H134.807C134.807 203.197 135.059 202.562 135.562 202.078C136.07 201.594 136.748 201.352 137.596 201.352C138.389 201.352 139.016 201.561 139.477 201.979C139.938 202.393 140.168 202.945 140.168 203.637C140.168 204.477 139.633 205.477 138.562 206.637L136.277 209.115H140.561V210ZM146.285 207.135H147.469V208.02H146.285V210H145.195V208.02H141.311V207.381L145.131 201.469H146.285V207.135ZM142.541 207.135H145.195V202.951L145.066 203.186L142.541 207.135Z" fill="white"/>
<circle cx="189" cy="206" r="15.5" stroke="#EAEAEA" stroke-width="3"/>
<path d="M188.561 210H182.971V209.221L185.924 205.939C186.361 205.443 186.662 205.041 186.826 204.732C186.994 204.42 187.078 204.098 187.078 203.766C187.078 203.32 186.943 202.955 186.674 202.67C186.404 202.385 186.045 202.242 185.596 202.242C185.057 202.242 184.637 202.396 184.336 202.705C184.039 203.01 183.891 203.436 183.891 203.982H182.807C182.807 203.197 183.059 202.562 183.562 202.078C184.07 201.594 184.748 201.352 185.596 201.352C186.389 201.352 187.016 201.561 187.477 201.979C187.938 202.393 188.168 202.945 188.168 203.637C188.168 204.477 187.633 205.477 186.562 206.637L184.277 209.115H188.561V210ZM190.207 205.723L190.641 201.469H195.012V202.471H191.561L191.303 204.797C191.721 204.551 192.195 204.428 192.727 204.428C193.504 204.428 194.121 204.686 194.578 205.201C195.035 205.713 195.264 206.406 195.264 207.281C195.264 208.16 195.025 208.854 194.549 209.361C194.076 209.865 193.414 210.117 192.562 210.117C191.809 210.117 191.193 209.908 190.717 209.49C190.24 209.072 189.969 208.494 189.902 207.756H190.928C190.994 208.244 191.168 208.613 191.449 208.863C191.73 209.109 192.102 209.232 192.562 209.232C193.066 209.232 193.461 209.061 193.746 208.717C194.035 208.373 194.18 207.898 194.18 207.293C194.18 206.723 194.023 206.266 193.711 205.922C193.402 205.574 192.99 205.4 192.475 205.4C192.002 205.4 191.631 205.504 191.361 205.711L191.074 205.945L190.207 205.723Z" fill="white"/>
<circle cx="237" cy="206" r="15.5" stroke="#EAEAEA" stroke-width="3"/>
<path d="M236.561 210H230.971V209.221L233.924 205.939C234.361 205.443 234.662 205.041 234.826 204.732C234.994 204.42 235.078 204.098 235.078 203.766C235.078 203.32 234.943 202.955 234.674 202.67C234.404 202.385 234.045 202.242 233.596 202.242C233.057 202.242 232.637 202.396 232.336 202.705C232.039 203.01 231.891 203.436 231.891 203.982H230.807C230.807 203.197 231.059 202.562 231.562 202.078C232.07 201.594 232.748 201.352 233.596 201.352C234.389 201.352 235.016 201.561 235.477 201.979C235.938 202.393 236.168 202.945 236.168 203.637C236.168 204.477 235.633 205.477 234.562 206.637L232.277 209.115H236.561V210ZM241.963 201.463V202.383H241.764C240.92 202.398 240.248 202.648 239.748 203.133C239.248 203.617 238.959 204.299 238.881 205.178C239.33 204.662 239.943 204.404 240.721 204.404C241.463 204.404 242.055 204.666 242.496 205.189C242.941 205.713 243.164 206.389 243.164 207.217C243.164 208.096 242.924 208.799 242.443 209.326C241.967 209.854 241.326 210.117 240.521 210.117C239.705 210.117 239.043 209.805 238.535 209.18C238.027 208.551 237.773 207.742 237.773 206.754V206.338C237.773 204.768 238.107 203.568 238.775 202.74C239.447 201.908 240.445 201.482 241.77 201.463H241.963ZM240.539 205.307C240.168 205.307 239.826 205.418 239.514 205.641C239.201 205.863 238.984 206.143 238.863 206.479V206.877C238.863 207.58 239.021 208.146 239.338 208.576C239.654 209.006 240.049 209.221 240.521 209.221C241.01 209.221 241.393 209.041 241.67 208.682C241.951 208.322 242.092 207.852 242.092 207.27C242.092 206.684 241.949 206.211 241.664 205.852C241.383 205.488 241.008 205.307 240.539 205.307Z" fill="white"/>
<circle cx="285" cy="206" r="15.5" stroke="#EAEAEA" stroke-width="3"/>
<path d="M284.561 210H278.971V209.221L281.924 205.939C282.361 205.443 282.662 205.041 282.826 204.732C282.994 204.42 283.078 204.098 283.078 203.766C283.078 203.32 282.943 202.955 282.674 202.67C282.404 202.385 282.045 202.242 281.596 202.242C281.057 202.242 280.637 202.396 280.336 202.705C280.039 203.01 279.891 203.436 279.891 203.982H278.807C278.807 203.197 279.059 202.562 279.562 202.078C280.07 201.594 280.748 201.352 281.596 201.352C282.389 201.352 283.016 201.561 283.477 201.979C283.938 202.393 284.168 202.945 284.168 203.637C284.168 204.477 283.633 205.477 282.562 206.637L280.277 209.115H284.561V210ZM291.217 202.078L287.684 210H286.547L290.068 202.359H285.451V201.469H291.217V202.078Z" fill="white"/>
<path d="M330.207 202.201C330.02 202.201 329.844 202.236 329.68 202.307C329.52 202.377 329.379 202.473 329.258 202.594C329.137 202.715 329.041 202.857 328.971 203.021C328.9 203.182 328.865 203.355 328.865 203.543V203.883L328.109 203.76V203.543C328.109 203.258 328.162 202.99 328.268 202.74C328.377 202.49 328.525 202.271 328.713 202.084C328.9 201.896 329.119 201.75 329.369 201.645C329.619 201.535 329.887 201.48 330.172 201.48H330.529C330.814 201.48 331.082 201.531 331.332 201.633C331.586 201.734 331.807 201.881 331.994 202.072C332.182 202.264 332.328 202.494 332.434 202.764C332.543 203.029 332.598 203.33 332.598 203.666C332.598 203.998 332.547 204.332 332.445 204.668C332.348 205.004 332.217 205.334 332.053 205.658C331.893 205.982 331.707 206.297 331.496 206.602C331.289 206.906 331.076 207.193 330.857 207.463C330.346 208.092 329.766 208.697 329.117 209.279H332.656V210H327.928V209.402C328.658 208.801 329.311 208.178 329.885 207.533C330.131 207.256 330.371 206.961 330.605 206.648C330.84 206.336 331.049 206.016 331.232 205.688C331.416 205.355 331.562 205.02 331.672 204.68C331.785 204.336 331.842 203.998 331.842 203.666C331.842 203.42 331.805 203.205 331.73 203.021C331.656 202.838 331.557 202.686 331.432 202.564C331.307 202.443 331.162 202.354 330.998 202.295C330.838 202.232 330.67 202.201 330.494 202.201H330.207ZM338.703 208.055C338.703 208.34 338.648 208.607 338.539 208.857C338.434 209.107 338.287 209.326 338.1 209.514C337.912 209.701 337.693 209.85 337.443 209.959C337.193 210.064 336.926 210.117 336.641 210.117H336.283C335.998 210.117 335.729 210.064 335.475 209.959C335.225 209.85 335.006 209.701 334.818 209.514C334.631 209.326 334.482 209.107 334.373 208.857C334.268 208.607 334.215 208.34 334.215 208.055V207.357C334.215 207.002 334.297 206.678 334.461 206.385C334.629 206.088 334.848 205.846 335.117 205.658C334.848 205.471 334.629 205.229 334.461 204.932C334.297 204.635 334.215 204.309 334.215 203.953V203.543C334.215 203.258 334.268 202.99 334.373 202.74C334.482 202.49 334.631 202.271 334.818 202.084C335.006 201.896 335.225 201.75 335.475 201.645C335.729 201.535 335.998 201.48 336.283 201.48H336.641C336.926 201.48 337.193 201.535 337.443 201.645C337.693 201.75 337.912 201.896 338.1 202.084C338.287 202.271 338.434 202.49 338.539 202.74C338.648 202.99 338.703 203.258 338.703 203.543V203.953C338.703 204.309 338.621 204.635 338.457 204.932C338.293 205.229 338.076 205.471 337.807 205.658C338.076 205.846 338.293 206.088 338.457 206.385C338.621 206.678 338.703 207.002 338.703 207.357V208.055ZM337.947 203.543C337.947 203.355 337.912 203.182 337.842 203.021C337.771 202.857 337.676 202.715 337.555 202.594C337.434 202.473 337.291 202.377 337.127 202.307C336.967 202.236 336.793 202.201 336.605 202.201H336.318C336.131 202.201 335.955 202.236 335.791 202.307C335.631 202.377 335.488 202.473 335.363 202.594C335.242 202.715 335.146 202.857 335.076 203.021C335.006 203.182 334.971 203.355 334.971 203.543V203.953C334.971 204.141 335.006 204.316 335.076 204.48C335.146 204.641 335.242 204.781 335.363 204.902C335.488 205.023 335.631 205.119 335.791 205.189C335.955 205.26 336.131 205.295 336.318 205.295H336.605C336.793 205.295 336.967 205.26 337.127 205.189C337.291 205.119 337.434 205.023 337.555 204.902C337.676 204.781 337.771 204.641 337.842 204.48C337.912 204.316 337.947 204.141 337.947 203.953V203.543ZM337.947 207.357C337.947 207.17 337.912 206.996 337.842 206.836C337.771 206.672 337.676 206.529 337.555 206.408C337.434 206.287 337.291 206.191 337.127 206.121C336.967 206.051 336.793 206.016 336.605 206.016H336.318C336.131 206.016 335.955 206.051 335.791 206.121C335.631 206.191 335.488 206.287 335.363 206.408C335.242 206.529 335.146 206.672 335.076 206.836C335.006 206.996 334.971 207.17 334.971 207.357V208.055C334.971 208.242 335.006 208.418 335.076 208.582C335.146 208.742 335.242 208.885 335.363 209.01C335.488 209.131 335.631 209.227 335.791 209.297C335.955 209.367 336.131 209.402 336.318 209.402H336.605C336.793 209.402 336.967 209.367 337.127 209.297C337.291 209.227 337.434 209.131 337.555 209.01C337.676 208.885 337.771 208.742 337.842 208.582C337.912 208.418 337.947 208.242 337.947 208.055V207.357Z" fill="#B3B3B3"/>
<circle cx="333" cy="206" r="15.5" stroke="#EAEAEA" stroke-width="3"/>
<path d="M333 190.5C335.035 190.5 337.051 190.901 338.932 191.68C340.812 192.459 342.521 193.601 343.96 195.04C345.399 196.479 346.541 198.188 347.32 200.068C348.099 201.949 348.5 203.965 348.5 206C348.5 208.035 348.099 210.051 347.32 211.932C346.541 213.812 345.399 215.521 343.96 216.96C342.521 218.399 340.812 219.541 338.932 220.32C337.051 221.099 335.035 221.5 333 221.5C330.965 221.5 328.949 221.099 327.068 220.32C325.188 219.541 323.479 218.399 322.04 216.96C320.601 215.521 319.459 213.812 318.68 211.932C317.901 210.051 317.5 208.035 317.5 206C317.5 203.965 317.901 201.949 318.68 200.068C319.459 198.188 320.601 196.479 322.04 195.04C323.479 193.601 325.188 192.459 327.068 191.68C328.949 190.901 330.965 190.5 333 190.5L333 190.5Z" stroke="#00DDA3" stroke-width="3" stroke-linecap="round"/>
<circle cx="45" cy="254" r="15.5" stroke="#EAEAEA" stroke-width="3"/>
<path d="M44.5605 258H38.9707V257.221L41.9238 253.939C42.3613 253.443 42.6621 253.041 42.8262 252.732C42.9941 252.42 43.0781 252.098 43.0781 251.766C43.0781 251.32 42.9434 250.955 42.6738 250.67C42.4043 250.385 42.0449 250.242 41.5957 250.242C41.0566 250.242 40.6367 250.396 40.3359 250.705C40.0391 251.01 39.8906 251.436 39.8906 251.982H38.8066C38.8066 251.197 39.0586 250.562 39.5625 250.078C40.0703 249.594 40.748 249.352 41.5957 249.352C42.3887 249.352 43.0156 249.561 43.4766 249.979C43.9375 250.393 44.168 250.945 44.168 251.637C44.168 252.477 43.6328 253.477 42.5625 254.637L40.2773 257.115H44.5605V258ZM49.8633 254.25C49.6367 254.52 49.3652 254.736 49.0488 254.9C48.7363 255.064 48.3926 255.146 48.0176 255.146C47.5254 255.146 47.0957 255.025 46.7285 254.783C46.3652 254.541 46.084 254.201 45.8848 253.764C45.6855 253.322 45.5859 252.836 45.5859 252.305C45.5859 251.734 45.6934 251.221 45.9082 250.764C46.127 250.307 46.4355 249.957 46.834 249.715C47.2324 249.473 47.6973 249.352 48.2285 249.352C49.0723 249.352 49.7363 249.668 50.2207 250.301C50.709 250.93 50.9531 251.789 50.9531 252.879V253.195C50.9531 254.855 50.625 256.068 49.9688 256.834C49.3125 257.596 48.3223 257.986 46.998 258.006H46.7871V257.092H47.0156C47.9102 257.076 48.5977 256.844 49.0781 256.395C49.5586 255.941 49.8203 255.227 49.8633 254.25ZM48.1934 254.25C48.5566 254.25 48.8906 254.139 49.1953 253.916C49.5039 253.693 49.7285 253.418 49.8691 253.09V252.656C49.8691 251.945 49.7148 251.367 49.4062 250.922C49.0977 250.477 48.707 250.254 48.2344 250.254C47.7578 250.254 47.375 250.438 47.0859 250.805C46.7969 251.168 46.6523 251.648 46.6523 252.246C46.6523 252.828 46.791 253.309 47.0684 253.688C47.3496 254.062 47.7246 254.25 48.1934 254.25Z" fill="white"/>
<circle cx="93" cy="254" r="15.5" stroke="#EAEAEA" stroke-width="3"/>
<path d="M88.5469 253.207H89.3613C89.873 253.199 90.2754 253.064 90.5684 252.803C90.8613 252.541 91.0078 252.188 91.0078 251.742C91.0078 250.742 90.5098 250.242 89.5137 250.242C89.0449 250.242 88.6699 250.377 88.3887 250.646C88.1113 250.912 87.9727 251.266 87.9727 251.707H86.8887C86.8887 251.031 87.1348 250.471 87.627 250.025C88.123 249.576 88.752 249.352 89.5137 249.352C90.3184 249.352 90.9492 249.564 91.4062 249.99C91.8633 250.416 92.0918 251.008 92.0918 251.766C92.0918 252.137 91.9707 252.496 91.7285 252.844C91.4902 253.191 91.1641 253.451 90.75 253.623C91.2188 253.771 91.5801 254.018 91.834 254.361C92.0918 254.705 92.2207 255.125 92.2207 255.621C92.2207 256.387 91.9707 256.994 91.4707 257.443C90.9707 257.893 90.3203 258.117 89.5195 258.117C88.7188 258.117 88.0664 257.9 87.5625 257.467C87.0625 257.033 86.8125 256.461 86.8125 255.75H87.9023C87.9023 256.199 88.0488 256.559 88.3418 256.828C88.6348 257.098 89.0273 257.232 89.5195 257.232C90.043 257.232 90.4434 257.096 90.7207 256.822C90.998 256.549 91.1367 256.156 91.1367 255.645C91.1367 255.148 90.9844 254.768 90.6797 254.502C90.375 254.236 89.9355 254.1 89.3613 254.092H88.5469V253.207ZM99.0586 254.361C99.0586 255.631 98.8418 256.574 98.4082 257.191C97.9746 257.809 97.2969 258.117 96.375 258.117C95.4648 258.117 94.791 257.816 94.3535 257.215C93.916 256.609 93.6895 255.707 93.6738 254.508V253.061C93.6738 251.807 93.8906 250.875 94.3242 250.266C94.7578 249.656 95.4375 249.352 96.3633 249.352C97.2812 249.352 97.957 249.646 98.3906 250.236C98.8242 250.822 99.0469 251.729 99.0586 252.955V254.361ZM97.9746 252.879C97.9746 251.961 97.8457 251.293 97.5879 250.875C97.3301 250.453 96.9219 250.242 96.3633 250.242C95.8086 250.242 95.4043 250.451 95.1504 250.869C94.8965 251.287 94.7656 251.93 94.7578 252.797V254.531C94.7578 255.453 94.8906 256.135 95.1562 256.576C95.4258 257.014 95.832 257.232 96.375 257.232C96.9102 257.232 97.3066 257.025 97.5645 256.611C97.8262 256.197 97.9629 255.545 97.9746 254.654V252.879Z" fill="white"/>
<circle cx="141" cy="254" r="15.5" stroke="#EAEAEA" stroke-width="3"/>
<path d="M136.547 253.207H137.361C137.873 253.199 138.275 253.064 138.568 252.803C138.861 252.541 139.008 252.188 139.008 251.742C139.008 250.742 138.51 250.242 137.514 250.242C137.045 250.242 136.67 250.377 136.389 250.646C136.111 250.912 135.973 251.266 135.973 251.707H134.889C134.889 251.031 135.135 250.471 135.627 250.025C136.123 249.576 136.752 249.352 137.514 249.352C138.318 249.352 138.949 249.564 139.406 249.99C139.863 250.416 140.092 251.008 140.092 251.766C140.092 252.137 139.971 252.496 139.729 252.844C139.49 253.191 139.164 253.451 138.75 253.623C139.219 253.771 139.58 254.018 139.834 254.361C140.092 254.705 140.221 255.125 140.221 255.621C140.221 256.387 139.971 256.994 139.471 257.443C138.971 257.893 138.32 258.117 137.52 258.117C136.719 258.117 136.066 257.9 135.562 257.467C135.062 257.033 134.812 256.461 134.812 255.75H135.902C135.902 256.199 136.049 256.559 136.342 256.828C136.635 257.098 137.027 257.232 137.52 257.232C138.043 257.232 138.443 257.096 138.721 256.822C138.998 256.549 139.137 256.156 139.137 255.645C139.137 255.148 138.984 254.768 138.68 254.502C138.375 254.236 137.936 254.1 137.361 254.092H136.547V253.207ZM145.271 258H144.182V250.775L141.996 251.578V250.594L145.102 249.428H145.271V258Z" fill="white"/>
</svg>
