<svg width="382" height="120" viewBox="0 0 382 120" fill="none" xmlns="http://www.w3.org/2000/svg">
<path d="M0 8C0 3.58172 3.58172 0 8 0H374C378.418 0 382 3.58172 382 8V112C382 116.418 378.418 120 374 120H7.99999C3.58171 120 0 116.418 0 112V8Z" fill="#1F3044"/>
<path d="M0 8C0 3.58172 3.58172 0 8 0H374C378.418 0 382 3.58172 382 8V112C382 116.418 378.418 120 374 120H7.99999C3.58171 120 0 116.418 0 112V8Z" fill="#1F3044"/>
<path d="M29.374 18.9678L30.5029 19.6235C30.027 20.3761 29.7808 21.1398 29.7642 21.9146V23.3008H27.8633V22.0557C27.8633 21.5355 28.0072 20.9821 28.2949 20.3955C28.5882 19.8034 28.9479 19.3275 29.374 18.9678ZM32.0635 32V19.9141H35.7822C36.8447 19.9141 37.7938 20.1548 38.6294 20.6362C39.4705 21.1121 40.1263 21.7928 40.5967 22.6782C41.0671 23.5581 41.3022 24.5597 41.3022 25.6831V26.2393C41.3022 27.3626 41.0698 28.3615 40.605 29.2358C40.1457 30.1102 39.4954 30.7881 38.6543 31.2695C37.8132 31.751 36.8641 31.9945 35.8071 32H32.0635ZM34.5537 21.9312V29.9995H35.7573C36.7313 29.9995 37.4756 29.6813 37.9902 29.0449C38.5049 28.4085 38.7677 27.4982 38.7788 26.314V25.6748C38.7788 24.4463 38.5243 23.5166 38.0151 22.8857C37.506 22.2493 36.7617 21.9312 35.7822 21.9312H34.5537ZM48.167 32C48.0563 31.7842 47.9761 31.5158 47.9263 31.1948C47.3452 31.8423 46.5898 32.166 45.6602 32.166C44.7803 32.166 44.0498 31.9115 43.4688 31.4023C42.8932 30.8932 42.6055 30.2513 42.6055 29.4766C42.6055 28.5247 42.9569 27.7943 43.6597 27.2852C44.368 26.776 45.389 26.5187 46.7227 26.5132H47.8267V25.9985C47.8267 25.5835 47.7188 25.2515 47.5029 25.0024C47.2926 24.7534 46.9578 24.6289 46.4985 24.6289C46.0946 24.6289 45.7764 24.7257 45.5439 24.9194C45.3171 25.1131 45.2036 25.3787 45.2036 25.7163H42.8047C42.8047 25.1961 42.9652 24.7147 43.2861 24.272C43.6071 23.8293 44.0609 23.4834 44.6475 23.2344C45.234 22.9798 45.8926 22.8525 46.623 22.8525C47.7298 22.8525 48.6069 23.132 49.2544 23.6909C49.9074 24.2443 50.2339 25.0246 50.2339 26.0317V29.9248C50.2394 30.777 50.3584 31.4217 50.5908 31.8589V32H48.167ZM46.1831 30.3315C46.5373 30.3315 46.8638 30.2541 47.1626 30.0991C47.4614 29.9386 47.6828 29.7256 47.8267 29.46V27.916H46.9302C45.7293 27.916 45.0902 28.3311 45.0127 29.1611L45.0044 29.3022C45.0044 29.6011 45.1095 29.8473 45.3198 30.041C45.5301 30.2347 45.8179 30.3315 46.1831 30.3315ZM54.2847 23.0186L54.3594 24.0562C55.0013 23.2537 55.8618 22.8525 56.9409 22.8525C57.8927 22.8525 58.6011 23.132 59.0659 23.6909C59.5308 24.2498 59.7687 25.0854 59.7798 26.1978V32H57.3809V26.2559C57.3809 25.7467 57.2702 25.3787 57.0488 25.1519C56.8275 24.9194 56.4595 24.8032 55.9448 24.8032C55.2697 24.8032 54.7633 25.091 54.4258 25.6665V32H52.0269V23.0186H54.2847ZM61.2324 27.4429C61.2324 26.0428 61.5451 24.9277 62.1704 24.0977C62.8013 23.2676 63.6618 22.8525 64.752 22.8525C65.6263 22.8525 66.3485 23.179 66.9185 23.832V19.25H69.3257V32H67.1592L67.043 31.0454C66.4453 31.7925 65.6761 32.166 64.7354 32.166C63.6784 32.166 62.8289 31.751 62.187 30.9209C61.5506 30.0853 61.2324 28.9259 61.2324 27.4429ZM63.6313 27.6172C63.6313 28.4583 63.778 29.103 64.0713 29.5513C64.3646 29.9995 64.7907 30.2236 65.3496 30.2236C66.0911 30.2236 66.6141 29.911 66.9185 29.2856V25.7412C66.6196 25.1159 66.1022 24.8032 65.3662 24.8032C64.2096 24.8032 63.6313 25.7412 63.6313 27.6172ZM70.8115 27.4263C70.8115 26.5353 70.9831 25.7412 71.3262 25.0439C71.6693 24.3467 72.1618 23.8071 72.8037 23.4253C73.4512 23.0435 74.201 22.8525 75.0532 22.8525C76.2651 22.8525 77.2529 23.2233 78.0166 23.9648C78.7858 24.7064 79.2147 25.7135 79.3032 26.9863L79.3198 27.6006C79.3198 28.9785 78.9352 30.0853 78.166 30.9209C77.3968 31.751 76.3647 32.166 75.0698 32.166C73.7749 32.166 72.7401 31.751 71.9653 30.9209C71.1961 30.0908 70.8115 28.9619 70.8115 27.5342V27.4263ZM73.2104 27.6006C73.2104 28.4528 73.3709 29.1058 73.6919 29.5596C74.0129 30.0078 74.4722 30.2319 75.0698 30.2319C75.6509 30.2319 76.1047 30.0106 76.4312 29.5679C76.7576 29.1196 76.9209 28.4058 76.9209 27.4263C76.9209 26.5907 76.7576 25.9432 76.4312 25.4839C76.1047 25.0246 75.6453 24.7949 75.0532 24.7949C74.4666 24.7949 74.0129 25.0246 73.6919 25.4839C73.3709 25.9377 73.2104 26.6432 73.2104 27.6006ZM89.6543 29.0034L92.3936 19.9141H95.166L90.9575 32H88.3594L84.1675 19.9141H86.9316L89.6543 29.0034ZM95.3984 27.4263C95.3984 26.5353 95.57 25.7412 95.9131 25.0439C96.2562 24.3467 96.7487 23.8071 97.3906 23.4253C98.0381 23.0435 98.7879 22.8525 99.6401 22.8525C100.852 22.8525 101.84 23.2233 102.604 23.9648C103.373 24.7064 103.802 25.7135 103.89 26.9863L103.907 27.6006C103.907 28.9785 103.522 30.0853 102.753 30.9209C101.984 31.751 100.952 32.166 99.6567 32.166C98.3618 32.166 97.327 31.751 96.5522 30.9209C95.783 30.0908 95.3984 28.9619 95.3984 27.5342V27.4263ZM97.7974 27.6006C97.7974 28.4528 97.9578 29.1058 98.2788 29.5596C98.5998 30.0078 99.0591 30.2319 99.6567 30.2319C100.238 30.2319 100.692 30.0106 101.018 29.5679C101.345 29.1196 101.508 28.4058 101.508 27.4263C101.508 26.5907 101.345 25.9432 101.018 25.4839C100.692 25.0246 100.232 24.7949 99.6401 24.7949C99.0535 24.7949 98.5998 25.0246 98.2788 25.4839C97.9578 25.9377 97.7974 26.6432 97.7974 27.6006ZM108.007 30.0659H112.398V32H104.944V30.5391L109.169 24.9609H105.069V23.0186H112.266V24.438L108.007 30.0659ZM123.339 32C123.228 31.7842 123.148 31.5158 123.098 31.1948C122.517 31.8423 121.762 32.166 120.832 32.166C119.952 32.166 119.222 31.9115 118.641 31.4023C118.065 30.8932 117.777 30.2513 117.777 29.4766C117.777 28.5247 118.129 27.7943 118.832 27.2852C119.54 26.776 120.561 26.5187 121.895 26.5132H122.999V25.9985C122.999 25.5835 122.891 25.2515 122.675 25.0024C122.465 24.7534 122.13 24.6289 121.67 24.6289C121.266 24.6289 120.948 24.7257 120.716 24.9194C120.489 25.1131 120.375 25.3787 120.375 25.7163H117.977C117.977 25.1961 118.137 24.7147 118.458 24.272C118.779 23.8293 119.233 23.4834 119.819 23.2344C120.406 22.9798 121.064 22.8525 121.795 22.8525C122.902 22.8525 123.779 23.132 124.426 23.6909C125.079 24.2443 125.406 25.0246 125.406 26.0317V29.9248C125.411 30.777 125.53 31.4217 125.763 31.8589V32H123.339ZM121.355 30.3315C121.709 30.3315 122.036 30.2541 122.334 30.0991C122.633 29.9386 122.855 29.7256 122.999 29.46V27.916H122.102C120.901 27.916 120.262 28.3311 120.185 29.1611L120.176 29.3022C120.176 29.6011 120.281 29.8473 120.492 30.041C120.702 30.2347 120.99 30.3315 121.355 30.3315ZM134.014 32H131.606V19.25H134.014V32ZM141.202 32C141.091 31.7842 141.011 31.5158 140.961 31.1948C140.38 31.8423 139.625 32.166 138.695 32.166C137.815 32.166 137.085 31.9115 136.504 31.4023C135.928 30.8932 135.641 30.2513 135.641 29.4766C135.641 28.5247 135.992 27.7943 136.695 27.2852C137.403 26.776 138.424 26.5187 139.758 26.5132H140.862V25.9985C140.862 25.5835 140.754 25.2515 140.538 25.0024C140.328 24.7534 139.993 24.6289 139.534 24.6289C139.13 24.6289 138.812 24.7257 138.579 24.9194C138.352 25.1131 138.239 25.3787 138.239 25.7163H135.84C135.84 25.1961 136 24.7147 136.321 24.272C136.642 23.8293 137.096 23.4834 137.683 23.2344C138.269 22.9798 138.928 22.8525 139.658 22.8525C140.765 22.8525 141.642 23.132 142.29 23.6909C142.943 24.2443 143.269 25.0246 143.269 26.0317V29.9248C143.275 30.777 143.394 31.4217 143.626 31.8589V32H141.202ZM139.218 30.3315C139.572 30.3315 139.899 30.2541 140.198 30.0991C140.497 29.9386 140.718 29.7256 140.862 29.46V27.916H139.965C138.764 27.916 138.125 28.3311 138.048 29.1611L138.04 29.3022C138.04 29.6011 138.145 29.8473 138.355 30.041C138.565 30.2347 138.853 30.3315 139.218 30.3315ZM156.774 26.7622H151.993V29.9995H157.604V32H149.503V19.9141H157.588V21.9312H151.993V24.8115H156.774V26.7622ZM161.556 29.9995H166.843V32H159.065V19.9141H161.556V29.9995ZM175.269 29.5098H170.902L170.072 32H167.424L171.923 19.9141H174.231L178.755 32H176.107L175.269 29.5098ZM171.575 27.4927H174.596L173.077 22.9688L171.575 27.4927ZM179.419 23.6245L178.29 22.9688C178.766 22.2217 179.012 21.4497 179.029 20.6528V19.25H180.938V20.5366C180.938 21.0347 180.8 21.5742 180.523 22.1553C180.246 22.7363 179.878 23.2261 179.419 23.6245ZM191.53 27.7915H186.856V25.8574H191.53V27.7915ZM207.683 32H205.193V26.8203H200.337V32H197.847V19.9141H200.337V24.8115H205.193V19.9141H207.683V32ZM214.913 32C214.802 31.7842 214.722 31.5158 214.672 31.1948C214.091 31.8423 213.336 32.166 212.406 32.166C211.526 32.166 210.796 31.9115 210.215 31.4023C209.639 30.8932 209.352 30.2513 209.352 29.4766C209.352 28.5247 209.703 27.7943 210.406 27.2852C211.114 26.776 212.135 26.5187 213.469 26.5132H214.573V25.9985C214.573 25.5835 214.465 25.2515 214.249 25.0024C214.039 24.7534 213.704 24.6289 213.245 24.6289C212.841 24.6289 212.522 24.7257 212.29 24.9194C212.063 25.1131 211.95 25.3787 211.95 25.7163H209.551C209.551 25.1961 209.711 24.7147 210.032 24.272C210.353 23.8293 210.807 23.4834 211.394 23.2344C211.98 22.9798 212.639 22.8525 213.369 22.8525C214.476 22.8525 215.353 23.132 216 23.6909C216.653 24.2443 216.98 25.0246 216.98 26.0317V29.9248C216.986 30.777 217.104 31.4217 217.337 31.8589V32H214.913ZM212.929 30.3315C213.283 30.3315 213.61 30.2541 213.909 30.0991C214.208 29.9386 214.429 29.7256 214.573 29.46V27.916H213.676C212.475 27.916 211.836 28.3311 211.759 29.1611L211.75 29.3022C211.75 29.6011 211.856 29.8473 212.066 30.041C212.276 30.2347 212.564 30.3315 212.929 30.3315ZM222.558 30.2319C223.001 30.2319 223.361 30.1102 223.637 29.8667C223.914 29.6232 224.058 29.2995 224.069 28.8955H226.318C226.313 29.5042 226.147 30.0632 225.82 30.5723C225.494 31.0758 225.046 31.4688 224.476 31.751C223.911 32.0277 223.286 32.166 222.6 32.166C221.316 32.166 220.303 31.7593 219.562 30.9458C218.82 30.1268 218.449 28.9979 218.449 27.5591V27.4014C218.449 26.0179 218.817 24.9139 219.553 24.0894C220.289 23.2648 221.299 22.8525 222.583 22.8525C223.706 22.8525 224.606 23.1735 225.281 23.8154C225.961 24.4518 226.307 25.3013 226.318 26.3638H224.069C224.058 25.8989 223.914 25.5226 223.637 25.2349C223.361 24.9416 222.995 24.7949 222.542 24.7949C221.983 24.7949 221.559 24.9997 221.271 25.4092C220.989 25.8132 220.848 26.4717 220.848 27.3848V27.6338C220.848 28.5579 220.989 29.222 221.271 29.626C221.554 30.0299 221.983 30.2319 222.558 30.2319ZM231.822 32.166C230.505 32.166 229.431 31.762 228.601 30.9541C227.777 30.1462 227.364 29.0698 227.364 27.7251V27.4927C227.364 26.5907 227.539 25.7855 227.887 25.0771C228.236 24.3633 228.728 23.8154 229.365 23.4336C230.007 23.0462 230.737 22.8525 231.556 22.8525C232.785 22.8525 233.75 23.2399 234.453 24.0146C235.161 24.7894 235.516 25.8879 235.516 27.3101V28.2896H229.796C229.874 28.8761 230.106 29.3465 230.494 29.7007C230.887 30.0549 231.382 30.2319 231.979 30.2319C232.904 30.2319 233.626 29.8971 234.146 29.2275L235.325 30.5474C234.965 31.0565 234.478 31.4549 233.864 31.7427C233.25 32.0249 232.569 32.166 231.822 32.166ZM231.548 24.7949C231.072 24.7949 230.685 24.9554 230.386 25.2764C230.092 25.5973 229.904 26.0566 229.821 26.6543H233.158V26.4634C233.147 25.9321 233.003 25.5226 232.727 25.2349C232.45 24.9416 232.057 24.7949 231.548 24.7949ZM241.932 25.2681C241.606 25.2238 241.318 25.2017 241.069 25.2017C240.161 25.2017 239.566 25.5088 239.284 26.123V32H236.885V23.0186H239.151L239.218 24.0894C239.699 23.2648 240.366 22.8525 241.218 22.8525C241.484 22.8525 241.733 22.8885 241.965 22.9604L241.932 25.2681ZM249.859 32H247.452V19.25H249.859V32ZM257.048 32C256.937 31.7842 256.857 31.5158 256.807 31.1948C256.226 31.8423 255.471 32.166 254.541 32.166C253.661 32.166 252.931 31.9115 252.35 31.4023C251.774 30.8932 251.486 30.2513 251.486 29.4766C251.486 28.5247 251.838 27.7943 252.541 27.2852C253.249 26.776 254.27 26.5187 255.604 26.5132H256.708V25.9985C256.708 25.5835 256.6 25.2515 256.384 25.0024C256.174 24.7534 255.839 24.6289 255.379 24.6289C254.975 24.6289 254.657 24.7257 254.425 24.9194C254.198 25.1131 254.084 25.3787 254.084 25.7163H251.686C251.686 25.1961 251.846 24.7147 252.167 24.272C252.488 23.8293 252.942 23.4834 253.528 23.2344C254.115 22.9798 254.773 22.8525 255.504 22.8525C256.611 22.8525 257.488 23.132 258.135 23.6909C258.788 24.2443 259.115 25.0246 259.115 26.0317V29.9248C259.12 30.777 259.239 31.4217 259.472 31.8589V32H257.048ZM255.064 30.3315C255.418 30.3315 255.745 30.2541 256.043 30.0991C256.342 29.9386 256.564 29.7256 256.708 29.46V27.916H255.811C254.61 27.916 253.971 28.3311 253.894 29.1611L253.885 29.3022C253.885 29.6011 253.99 29.8473 254.201 30.041C254.411 30.2347 254.699 30.3315 255.064 30.3315ZM30.7935 40.8105V43.0186H32.3291V44.7783H30.7935V49.2607C30.7935 49.5928 30.8571 49.8307 30.9844 49.9746C31.1117 50.1185 31.3551 50.1904 31.7148 50.1904C31.9805 50.1904 32.2157 50.1711 32.4204 50.1323V51.9502C31.95 52.0941 31.4658 52.166 30.9678 52.166C29.2855 52.166 28.4277 51.3166 28.3945 49.6177V44.7783H27.083V43.0186H28.3945V40.8105H30.7935ZM37.7993 52.166C36.4823 52.166 35.4087 51.762 34.5786 50.9541C33.7541 50.1462 33.3418 49.0698 33.3418 47.7251V47.4927C33.3418 46.5907 33.5161 45.7855 33.8647 45.0771C34.2134 44.3633 34.7059 43.8154 35.3423 43.4336C35.9842 43.0462 36.7147 42.8525 37.5337 42.8525C38.7622 42.8525 39.7279 43.2399 40.4307 44.0146C41.139 44.7894 41.4932 45.8879 41.4932 47.3101V48.2896H35.7739C35.8514 48.8761 36.0838 49.3465 36.4712 49.7007C36.8641 50.0549 37.3594 50.2319 37.957 50.2319C38.8812 50.2319 39.6034 49.8971 40.1235 49.2275L41.3022 50.5474C40.9425 51.0565 40.4556 51.4549 39.8413 51.7427C39.2271 52.0249 38.5464 52.166 37.7993 52.166ZM37.5254 44.7949C37.0495 44.7949 36.6621 44.9554 36.3633 45.2764C36.07 45.5973 35.8818 46.0566 35.7988 46.6543H39.1357V46.4634C39.1247 45.9321 38.9808 45.5226 38.7041 45.2349C38.4274 44.9416 38.0345 44.7949 37.5254 44.7949ZM46.5981 50.2319C47.0409 50.2319 47.4006 50.1102 47.6772 49.8667C47.9539 49.6232 48.0978 49.2995 48.1089 48.8955H50.3584C50.3529 49.5042 50.1868 50.0632 49.8604 50.5723C49.5339 51.0758 49.0856 51.4688 48.5156 51.751C47.9512 52.0277 47.3258 52.166 46.6396 52.166C45.3558 52.166 44.3431 51.7593 43.6016 50.9458C42.86 50.1268 42.4893 48.9979 42.4893 47.5591V47.4014C42.4893 46.0179 42.8573 44.9139 43.5933 44.0894C44.3293 43.2648 45.3392 42.8525 46.623 42.8525C47.7464 42.8525 48.6457 43.1735 49.3208 43.8154C50.0015 44.4518 50.3473 45.3013 50.3584 46.3638H48.1089C48.0978 45.8989 47.9539 45.5226 47.6772 45.2349C47.4006 44.9416 47.0353 44.7949 46.5815 44.7949C46.0226 44.7949 45.5993 44.9997 45.3115 45.4092C45.0293 45.8132 44.8882 46.4717 44.8882 47.3848V47.6338C44.8882 48.5579 45.0293 49.222 45.3115 49.626C45.5938 50.0299 46.0226 50.2319 46.5981 50.2319ZM53.936 43.0186L54.0107 44.0562C54.6527 43.2537 55.5132 42.8525 56.5923 42.8525C57.5441 42.8525 58.2524 43.132 58.7173 43.6909C59.1821 44.2498 59.4201 45.0854 59.4312 46.1978V52H57.0322V46.2559C57.0322 45.7467 56.9215 45.3787 56.7002 45.1519C56.4788 44.9194 56.1108 44.8032 55.5962 44.8032C54.9211 44.8032 54.4147 45.091 54.0771 45.6665V52H51.6782V43.0186H53.936ZM60.8838 47.4263C60.8838 46.5353 61.0553 45.7412 61.3984 45.0439C61.7415 44.3467 62.234 43.8071 62.876 43.4253C63.5234 43.0435 64.2733 42.8525 65.1255 42.8525C66.3374 42.8525 67.3252 43.2233 68.0889 43.9648C68.8581 44.7064 69.2869 45.7135 69.3755 46.9863L69.3921 47.6006C69.3921 48.9785 69.0075 50.0853 68.2383 50.9209C67.4691 51.751 66.437 52.166 65.1421 52.166C63.8472 52.166 62.8123 51.751 62.0376 50.9209C61.2684 50.0908 60.8838 48.9619 60.8838 47.5342V47.4263ZM63.2827 47.6006C63.2827 48.4528 63.4432 49.1058 63.7642 49.5596C64.0851 50.0078 64.5444 50.2319 65.1421 50.2319C65.7231 50.2319 66.1769 50.0106 66.5034 49.5679C66.8299 49.1196 66.9932 48.4058 66.9932 47.4263C66.9932 46.5907 66.8299 45.9432 66.5034 45.4839C66.1769 45.0246 65.7176 44.7949 65.1255 44.7949C64.5389 44.7949 64.0851 45.0246 63.7642 45.4839C63.4432 45.9377 63.2827 46.6432 63.2827 47.6006ZM73.4014 52H70.9941V39.25H73.4014V52ZM75.0117 47.4263C75.0117 46.5353 75.1833 45.7412 75.5264 45.0439C75.8695 44.3467 76.362 43.8071 77.0039 43.4253C77.6514 43.0435 78.4012 42.8525 79.2534 42.8525C80.4653 42.8525 81.4531 43.2233 82.2168 43.9648C82.986 44.7064 83.4149 45.7135 83.5034 46.9863L83.52 47.6006C83.52 48.9785 83.1354 50.0853 82.3662 50.9209C81.597 51.751 80.5649 52.166 79.27 52.166C77.9751 52.166 76.9403 51.751 76.1655 50.9209C75.3963 50.0908 75.0117 48.9619 75.0117 47.5342V47.4263ZM77.4106 47.6006C77.4106 48.4528 77.5711 49.1058 77.8921 49.5596C78.2131 50.0078 78.6724 50.2319 79.27 50.2319C79.8511 50.2319 80.3049 50.0106 80.6313 49.5679C80.9578 49.1196 81.1211 48.4058 81.1211 47.4263C81.1211 46.5907 80.9578 45.9432 80.6313 45.4839C80.3049 45.0246 79.8455 44.7949 79.2534 44.7949C78.6668 44.7949 78.2131 45.0246 77.8921 45.4839C77.5711 45.9377 77.4106 46.6432 77.4106 47.6006ZM84.6489 47.4429C84.6489 46.0649 84.9754 44.9554 85.6284 44.1143C86.2869 43.2731 87.1724 42.8525 88.2847 42.8525C89.2697 42.8525 90.0361 43.1901 90.584 43.8652L90.6836 43.0186H92.8584V51.7012C92.8584 52.487 92.6785 53.1704 92.3188 53.7515C91.9647 54.3325 91.4639 54.7752 90.8164 55.0796C90.1689 55.384 89.4108 55.5361 88.542 55.5361C87.8835 55.5361 87.2415 55.4033 86.6162 55.1377C85.9909 54.8776 85.5177 54.54 85.1968 54.125L86.2593 52.6641C86.8569 53.3337 87.5819 53.6685 88.4341 53.6685C89.0705 53.6685 89.5658 53.4969 89.9199 53.1538C90.2741 52.8162 90.4512 52.3348 90.4512 51.7095V51.228C89.8978 51.8534 89.1701 52.166 88.2681 52.166C87.189 52.166 86.3146 51.7454 85.645 50.9043C84.981 50.0576 84.6489 48.937 84.6489 47.5425V47.4429ZM87.0479 47.6172C87.0479 48.4307 87.2111 49.0698 87.5376 49.5347C87.8641 49.994 88.3123 50.2236 88.8823 50.2236C89.6128 50.2236 90.1357 49.9497 90.4512 49.4019V45.625C90.1302 45.0771 89.6128 44.8032 88.8989 44.8032C88.3234 44.8032 87.8696 45.0384 87.5376 45.5088C87.2111 45.9792 87.0479 46.682 87.0479 47.6172ZM97.2993 52H94.9004V43.0186H97.2993V52ZM96.5938 39.3745H99.2085L96.9092 41.9478H94.9585L96.5938 39.3745ZM104.579 52C104.468 51.7842 104.388 51.5158 104.338 51.1948C103.757 51.8423 103.002 52.166 102.072 52.166C101.192 52.166 100.462 51.9115 99.8809 51.4023C99.3053 50.8932 99.0176 50.2513 99.0176 49.4766C99.0176 48.5247 99.369 47.7943 100.072 47.2852C100.78 46.776 101.801 46.5187 103.135 46.5132H104.239V45.9985C104.239 45.5835 104.131 45.2515 103.915 45.0024C103.705 44.7534 103.37 44.6289 102.911 44.6289C102.507 44.6289 102.188 44.7257 101.956 44.9194C101.729 45.1131 101.616 45.3787 101.616 45.7163H99.2168C99.2168 45.1961 99.3773 44.7147 99.6982 44.272C100.019 43.8293 100.473 43.4834 101.06 43.2344C101.646 42.9798 102.305 42.8525 103.035 42.8525C104.142 42.8525 105.019 43.132 105.667 43.6909C106.319 44.2443 106.646 45.0246 106.646 46.0317V49.9248C106.652 50.777 106.771 51.4217 107.003 51.8589V52H104.579ZM102.595 50.3315C102.949 50.3315 103.276 50.2541 103.575 50.0991C103.874 49.9386 104.095 49.7256 104.239 49.46V47.916H103.342C102.141 47.916 101.502 48.3311 101.425 49.1611L101.417 49.3022C101.417 49.6011 101.522 49.8473 101.732 50.041C101.942 50.2347 102.23 50.3315 102.595 50.3315ZM117.927 52C117.816 51.7842 117.736 51.5158 117.686 51.1948C117.105 51.8423 116.35 52.166 115.42 52.166C114.54 52.166 113.81 51.9115 113.229 51.4023C112.653 50.8932 112.365 50.2513 112.365 49.4766C112.365 48.5247 112.717 47.7943 113.419 47.2852C114.128 46.776 115.149 46.5187 116.482 46.5132H117.586V45.9985C117.586 45.5835 117.479 45.2515 117.263 45.0024C117.052 44.7534 116.718 44.6289 116.258 44.6289C115.854 44.6289 115.536 44.7257 115.304 44.9194C115.077 45.1131 114.963 45.3787 114.963 45.7163H112.564C112.564 45.1961 112.725 44.7147 113.046 44.272C113.367 43.8293 113.821 43.4834 114.407 43.2344C114.994 42.9798 115.652 42.8525 116.383 42.8525C117.49 42.8525 118.367 43.132 119.014 43.6909C119.667 44.2443 119.994 45.0246 119.994 46.0317V49.9248C119.999 50.777 120.118 51.4217 120.351 51.8589V52H117.927ZM115.943 50.3315C116.297 50.3315 116.624 50.2541 116.922 50.0991C117.221 49.9386 117.443 49.7256 117.586 49.46V47.916H116.69C115.489 47.916 114.85 48.3311 114.772 49.1611L114.764 49.3022C114.764 49.6011 114.869 49.8473 115.08 50.041C115.29 50.2347 115.578 50.3315 115.943 50.3315ZM125.572 50.2319C126.014 50.2319 126.374 50.1102 126.651 49.8667C126.928 49.6232 127.071 49.2995 127.083 48.8955H129.332C129.326 49.5042 129.16 50.0632 128.834 50.5723C128.507 51.0758 128.059 51.4688 127.489 51.751C126.925 52.0277 126.299 52.166 125.613 52.166C124.329 52.166 123.317 51.7593 122.575 50.9458C121.834 50.1268 121.463 48.9979 121.463 47.5591V47.4014C121.463 46.0179 121.831 44.9139 122.567 44.0894C123.303 43.2648 124.313 42.8525 125.597 42.8525C126.72 42.8525 127.619 43.1735 128.294 43.8154C128.975 44.4518 129.321 45.3013 129.332 46.3638H127.083C127.071 45.8989 126.928 45.5226 126.651 45.2349C126.374 44.9416 126.009 44.7949 125.555 44.7949C124.996 44.7949 124.573 44.9997 124.285 45.4092C124.003 45.8132 123.862 46.4717 123.862 47.3848V47.6338C123.862 48.5579 124.003 49.222 124.285 49.626C124.567 50.0299 124.996 50.2319 125.572 50.2319ZM134.437 50.2319C134.88 50.2319 135.239 50.1102 135.516 49.8667C135.793 49.6232 135.937 49.2995 135.948 48.8955H138.197C138.192 49.5042 138.026 50.0632 137.699 50.5723C137.373 51.0758 136.924 51.4688 136.354 51.751C135.79 52.0277 135.165 52.166 134.479 52.166C133.195 52.166 132.182 51.7593 131.44 50.9458C130.699 50.1268 130.328 48.9979 130.328 47.5591V47.4014C130.328 46.0179 130.696 44.9139 131.432 44.0894C132.168 43.2648 133.178 42.8525 134.462 42.8525C135.585 42.8525 136.485 43.1735 137.16 43.8154C137.84 44.4518 138.186 45.3013 138.197 46.3638H135.948C135.937 45.8989 135.793 45.5226 135.516 45.2349C135.239 44.9416 134.874 44.7949 134.42 44.7949C133.861 44.7949 133.438 44.9997 133.15 45.4092C132.868 45.8132 132.727 46.4717 132.727 47.3848V47.6338C132.727 48.5579 132.868 49.222 133.15 49.626C133.433 50.0299 133.861 50.2319 134.437 50.2319ZM143.701 52.166C142.384 52.166 141.31 51.762 140.48 50.9541C139.655 50.1462 139.243 49.0698 139.243 47.7251V47.4927C139.243 46.5907 139.417 45.7855 139.766 45.0771C140.115 44.3633 140.607 43.8154 141.244 43.4336C141.886 43.0462 142.616 42.8525 143.435 42.8525C144.664 42.8525 145.629 43.2399 146.332 44.0146C147.04 44.7894 147.395 45.8879 147.395 47.3101V48.2896H141.675C141.753 48.8761 141.985 49.3465 142.373 49.7007C142.765 50.0549 143.261 50.2319 143.858 50.2319C144.783 50.2319 145.505 49.8971 146.025 49.2275L147.204 50.5474C146.844 51.0565 146.357 51.4549 145.743 51.7427C145.128 52.0249 144.448 52.166 143.701 52.166ZM143.427 44.7949C142.951 44.7949 142.563 44.9554 142.265 45.2764C141.971 45.5973 141.783 46.0566 141.7 46.6543H145.037V46.4634C145.026 45.9321 144.882 45.5226 144.605 45.2349C144.329 44.9416 143.936 44.7949 143.427 44.7949ZM153.628 49.5181C153.628 49.2248 153.482 48.9951 153.188 48.8291C152.901 48.6576 152.436 48.5054 151.794 48.3726C149.658 47.9243 148.59 47.0168 148.59 45.6499C148.59 44.853 148.919 44.189 149.578 43.6577C150.242 43.1209 151.108 42.8525 152.176 42.8525C153.316 42.8525 154.226 43.1209 154.907 43.6577C155.593 44.1945 155.936 44.8918 155.936 45.7495H153.537C153.537 45.4064 153.426 45.1242 153.205 44.9028C152.984 44.6759 152.638 44.5625 152.167 44.5625C151.764 44.5625 151.451 44.6538 151.229 44.8364C151.008 45.019 150.897 45.2515 150.897 45.5337C150.897 45.7993 151.022 46.0151 151.271 46.1812C151.526 46.3416 151.952 46.4827 152.549 46.6045C153.147 46.7207 153.651 46.8535 154.06 47.0029C155.327 47.4678 155.961 48.2729 155.961 49.4185C155.961 50.2375 155.61 50.9015 154.907 51.4106C154.204 51.9142 153.296 52.166 152.184 52.166C151.431 52.166 150.762 52.0332 150.175 51.7676C149.594 51.4964 149.138 51.1284 148.806 50.6636C148.474 50.1932 148.308 49.6868 148.308 49.1445H150.582C150.604 49.5706 150.762 49.8971 151.055 50.124C151.348 50.3509 151.741 50.4644 152.234 50.4644C152.693 50.4644 153.039 50.3786 153.271 50.207C153.509 50.0299 153.628 49.8003 153.628 49.5181ZM160.045 52H157.638V43.0186H160.045V52ZM157.497 40.6943C157.497 40.3346 157.616 40.0386 157.854 39.8062C158.097 39.5737 158.426 39.4575 158.841 39.4575C159.251 39.4575 159.577 39.5737 159.821 39.8062C160.064 40.0386 160.186 40.3346 160.186 40.6943C160.186 41.0596 160.062 41.3584 159.812 41.5908C159.569 41.8232 159.245 41.9395 158.841 41.9395C158.437 41.9395 158.111 41.8232 157.862 41.5908C157.618 41.3584 157.497 41.0596 157.497 40.6943ZM170.122 47.5923C170.122 49.0311 169.815 50.1545 169.201 50.9624C168.586 51.7648 167.729 52.166 166.627 52.166C165.653 52.166 164.876 51.7925 164.295 51.0454L164.187 52H162.029V39.25H164.428V43.8237C164.981 43.1763 165.709 42.8525 166.611 42.8525C167.707 42.8525 168.564 43.2565 169.184 44.0645C169.809 44.8669 170.122 45.9985 170.122 47.4595V47.5923ZM167.723 47.418C167.723 46.5104 167.579 45.8491 167.292 45.4341C167.004 45.0135 166.575 44.8032 166.005 44.8032C165.241 44.8032 164.715 45.1159 164.428 45.7412V49.2856C164.721 49.9165 165.252 50.2319 166.021 50.2319C166.796 50.2319 167.305 49.8501 167.549 49.0864C167.665 48.7212 167.723 48.165 167.723 47.418ZM174.14 52H171.732V39.25H174.14V52ZM180.257 52.166C178.94 52.166 177.867 51.762 177.037 50.9541C176.212 50.1462 175.8 49.0698 175.8 47.7251V47.4927C175.8 46.5907 175.974 45.7855 176.323 45.0771C176.671 44.3633 177.164 43.8154 177.8 43.4336C178.442 43.0462 179.173 42.8525 179.992 42.8525C181.22 42.8525 182.186 43.2399 182.889 44.0146C183.597 44.7894 183.951 45.8879 183.951 47.3101V48.2896H178.232C178.309 48.8761 178.542 49.3465 178.929 49.7007C179.322 50.0549 179.817 50.2319 180.415 50.2319C181.339 50.2319 182.061 49.8971 182.582 49.2275L183.76 50.5474C183.401 51.0565 182.914 51.4549 182.299 51.7427C181.685 52.0249 181.004 52.166 180.257 52.166ZM179.983 44.7949C179.507 44.7949 179.12 44.9554 178.821 45.2764C178.528 45.5973 178.34 46.0566 178.257 46.6543H181.594V46.4634C181.583 45.9321 181.439 45.5226 181.162 45.2349C180.885 44.9416 180.493 44.7949 179.983 44.7949Z" fill="#FAFAFA"/>
<path d="M29.2578 77V67.0469H32.04C32.8558 67.0469 33.5872 67.2337 34.2344 67.6074C34.8815 67.9766 35.3851 68.5075 35.7451 69.2002C36.1097 69.8929 36.292 70.6813 36.292 71.5654V72.4814C36.292 73.3701 36.112 74.1585 35.752 74.8467C35.3919 75.5348 34.8838 76.0658 34.2275 76.4395C33.5758 76.8132 32.8262 77 31.9785 77H29.2578ZM30.0986 67.7646V76.2891H31.9854C33.0335 76.2891 33.8743 75.9427 34.5078 75.25C35.1413 74.5527 35.458 73.6117 35.458 72.4268V71.5518C35.458 70.4079 35.1458 69.4919 34.5215 68.8037C33.8971 68.1156 33.0745 67.7692 32.0537 67.7646H30.0986ZM39.1562 77H38.3359V69.6035H39.1562V77ZM38.1924 67.4639C38.1924 67.3089 38.2425 67.179 38.3428 67.0742C38.443 66.9648 38.5798 66.9102 38.7529 66.9102C38.9261 66.9102 39.0628 66.9648 39.1631 67.0742C39.2679 67.179 39.3203 67.3089 39.3203 67.4639C39.3203 67.6188 39.2679 67.7487 39.1631 67.8535C39.0628 67.9583 38.9261 68.0107 38.7529 68.0107C38.5798 68.0107 38.443 67.9583 38.3428 67.8535C38.2425 67.7487 38.1924 67.6188 38.1924 67.4639ZM45.8145 75.1201C45.8145 74.7145 45.6504 74.3887 45.3223 74.1426C44.9987 73.8965 44.5088 73.7051 43.8525 73.5684C43.1963 73.4271 42.6859 73.2676 42.3213 73.0898C41.9613 72.9076 41.6924 72.6865 41.5146 72.4268C41.3415 72.167 41.2549 71.8525 41.2549 71.4834C41.2549 70.9001 41.4987 70.4193 41.9863 70.041C42.474 69.6582 43.0983 69.4668 43.8594 69.4668C44.6842 69.4668 45.3451 69.6719 45.8418 70.082C46.3431 70.4876 46.5938 71.0186 46.5938 71.6748H45.7734C45.7734 71.2419 45.5911 70.8818 45.2266 70.5947C44.8665 70.3076 44.4108 70.1641 43.8594 70.1641C43.3216 70.1641 42.8887 70.2848 42.5605 70.5264C42.237 70.7633 42.0752 71.0732 42.0752 71.4561C42.0752 71.8252 42.2096 72.1123 42.4785 72.3174C42.752 72.5179 43.2464 72.7025 43.9619 72.8711C44.682 73.0397 45.2197 73.2197 45.5752 73.4111C45.9352 73.6025 46.2018 73.8327 46.375 74.1016C46.5482 74.3704 46.6348 74.6963 46.6348 75.0791C46.6348 75.7035 46.3818 76.2025 45.876 76.5762C45.3747 76.9499 44.7184 77.1367 43.9072 77.1367C43.0459 77.1367 42.3464 76.9294 41.8086 76.5146C41.2754 76.0954 41.0088 75.5667 41.0088 74.9287H41.8291C41.861 75.4072 42.0615 75.7809 42.4307 76.0498C42.8044 76.3141 43.2965 76.4463 43.9072 76.4463C44.4769 76.4463 44.9372 76.321 45.2881 76.0703C45.639 75.8197 45.8145 75.5029 45.8145 75.1201ZM54.4277 73.377C54.4277 74.5299 54.1725 75.446 53.6621 76.125C53.1517 76.7995 52.4681 77.1367 51.6113 77.1367C50.5996 77.1367 49.8249 76.7812 49.2871 76.0703V79.8438H48.4736V69.6035H49.2324L49.2734 70.6494C49.8066 69.861 50.5791 69.4668 51.5908 69.4668C52.4749 69.4668 53.1676 69.8018 53.6689 70.4717C54.1748 71.1416 54.4277 72.0713 54.4277 73.2607V73.377ZM53.6074 73.2334C53.6074 72.29 53.4137 71.5449 53.0264 70.998C52.639 70.4512 52.099 70.1777 51.4062 70.1777C50.9049 70.1777 50.4743 70.2985 50.1143 70.54C49.7542 70.7816 49.4785 71.1325 49.2871 71.5928V75.1406C49.4831 75.5645 49.7633 75.888 50.1279 76.1113C50.4925 76.3346 50.9232 76.4463 51.4199 76.4463C52.1081 76.4463 52.6436 76.1729 53.0264 75.626C53.4137 75.0745 53.6074 74.277 53.6074 73.2334ZM55.7949 73.1924C55.7949 72.4814 55.9316 71.8411 56.2051 71.2715C56.4831 70.7018 56.8727 70.2598 57.374 69.9453C57.8799 69.6263 58.4518 69.4668 59.0898 69.4668C60.0742 69.4668 60.8717 69.8132 61.4824 70.5059C62.0931 71.194 62.3984 72.1077 62.3984 73.2471V73.418C62.3984 74.1335 62.2594 74.7783 61.9814 75.3525C61.708 75.9222 61.3206 76.362 60.8193 76.6719C60.318 76.9818 59.7461 77.1367 59.1035 77.1367C58.1237 77.1367 57.3262 76.7926 56.7109 76.1045C56.1003 75.4118 55.7949 74.4958 55.7949 73.3564V73.1924ZM56.6152 73.418C56.6152 74.3021 56.8431 75.029 57.2988 75.5986C57.7591 76.1637 58.3607 76.4463 59.1035 76.4463C59.8418 76.4463 60.4388 76.1637 60.8945 75.5986C61.3548 75.029 61.585 74.2793 61.585 73.3496V73.1924C61.585 72.6273 61.4801 72.11 61.2705 71.6406C61.0609 71.1712 60.7669 70.8089 60.3887 70.5537C60.0104 70.2939 59.5775 70.1641 59.0898 70.1641C58.3607 70.1641 57.766 70.4512 57.3057 71.0254C56.8454 71.5951 56.6152 72.3424 56.6152 73.2676V73.418ZM68.5234 75.1201C68.5234 74.7145 68.3594 74.3887 68.0312 74.1426C67.7077 73.8965 67.2178 73.7051 66.5615 73.5684C65.9053 73.4271 65.3949 73.2676 65.0303 73.0898C64.6702 72.9076 64.4014 72.6865 64.2236 72.4268C64.0505 72.167 63.9639 71.8525 63.9639 71.4834C63.9639 70.9001 64.2077 70.4193 64.6953 70.041C65.1829 69.6582 65.8073 69.4668 66.5684 69.4668C67.3932 69.4668 68.054 69.6719 68.5508 70.082C69.0521 70.4876 69.3027 71.0186 69.3027 71.6748H68.4824C68.4824 71.2419 68.3001 70.8818 67.9355 70.5947C67.5755 70.3076 67.1198 70.1641 66.5684 70.1641C66.0306 70.1641 65.5977 70.2848 65.2695 70.5264C64.946 70.7633 64.7842 71.0732 64.7842 71.4561C64.7842 71.8252 64.9186 72.1123 65.1875 72.3174C65.4609 72.5179 65.9554 72.7025 66.6709 72.8711C67.391 73.0397 67.9287 73.2197 68.2842 73.4111C68.6442 73.6025 68.9108 73.8327 69.084 74.1016C69.2572 74.3704 69.3438 74.6963 69.3438 75.0791C69.3438 75.7035 69.0908 76.2025 68.585 76.5762C68.0837 76.9499 67.4274 77.1367 66.6162 77.1367C65.7549 77.1367 65.0553 76.9294 64.5176 76.5146C63.9844 76.0954 63.7178 75.5667 63.7178 74.9287H64.5381C64.57 75.4072 64.7705 75.7809 65.1396 76.0498C65.5133 76.3141 66.0055 76.4463 66.6162 76.4463C67.1859 76.4463 67.6462 76.321 67.9971 76.0703C68.348 75.8197 68.5234 75.5029 68.5234 75.1201ZM72.1055 77H71.2852V69.6035H72.1055V77ZM71.1416 67.4639C71.1416 67.3089 71.1917 67.179 71.292 67.0742C71.3923 66.9648 71.529 66.9102 71.7021 66.9102C71.8753 66.9102 72.012 66.9648 72.1123 67.0742C72.2171 67.179 72.2695 67.3089 72.2695 67.4639C72.2695 67.6188 72.2171 67.7487 72.1123 67.8535C72.012 67.9583 71.8753 68.0107 71.7021 68.0107C71.529 68.0107 71.3923 67.9583 71.292 67.8535C71.1917 67.7487 71.1416 67.6188 71.1416 67.4639ZM75.6055 67.71V69.6035H77.1367V70.2734H75.6055V75.2021C75.6055 75.6123 75.6784 75.9176 75.8242 76.1182C75.9746 76.3187 76.223 76.4189 76.5693 76.4189C76.7061 76.4189 76.9271 76.3962 77.2324 76.3506L77.2666 77.0205C77.0524 77.098 76.7607 77.1367 76.3916 77.1367C75.8311 77.1367 75.4232 76.9749 75.168 76.6514C74.9128 76.3232 74.7852 75.8424 74.7852 75.209V70.2734H73.4248V69.6035H74.7852V67.71H75.6055ZM79.748 77H78.9277V69.6035H79.748V77ZM78.7842 67.4639C78.7842 67.3089 78.8343 67.179 78.9346 67.0742C79.0348 66.9648 79.1715 66.9102 79.3447 66.9102C79.5179 66.9102 79.6546 66.9648 79.7549 67.0742C79.8597 67.179 79.9121 67.3089 79.9121 67.4639C79.9121 67.6188 79.8597 67.7487 79.7549 67.8535C79.6546 67.9583 79.5179 68.0107 79.3447 68.0107C79.1715 68.0107 79.0348 67.9583 78.9346 67.8535C78.8343 67.7487 78.7842 67.6188 78.7842 67.4639ZM84.2803 75.8721L86.5293 69.6035H87.3701L84.6084 77H83.9453L81.1699 69.6035H82.0107L84.2803 75.8721ZM88.1562 73.1924C88.1562 72.4814 88.293 71.8411 88.5664 71.2715C88.8444 70.7018 89.234 70.2598 89.7354 69.9453C90.2412 69.6263 90.8132 69.4668 91.4512 69.4668C92.4355 69.4668 93.2331 69.8132 93.8438 70.5059C94.4544 71.194 94.7598 72.1077 94.7598 73.2471V73.418C94.7598 74.1335 94.6208 74.7783 94.3428 75.3525C94.0693 75.9222 93.682 76.362 93.1807 76.6719C92.6794 76.9818 92.1074 77.1367 91.4648 77.1367C90.485 77.1367 89.6875 76.7926 89.0723 76.1045C88.4616 75.4118 88.1562 74.4958 88.1562 73.3564V73.1924ZM88.9766 73.418C88.9766 74.3021 89.2044 75.029 89.6602 75.5986C90.1204 76.1637 90.722 76.4463 91.4648 76.4463C92.2031 76.4463 92.8001 76.1637 93.2559 75.5986C93.7161 75.029 93.9463 74.2793 93.9463 73.3496V73.1924C93.9463 72.6273 93.8415 72.11 93.6318 71.6406C93.4222 71.1712 93.1283 70.8089 92.75 70.5537C92.3717 70.2939 91.9388 70.1641 91.4512 70.1641C90.722 70.1641 90.1273 70.4512 89.667 71.0254C89.2067 71.5951 88.9766 72.3424 88.9766 73.2676V73.418ZM100.885 75.1201C100.885 74.7145 100.721 74.3887 100.393 74.1426C100.069 73.8965 99.5791 73.7051 98.9229 73.5684C98.2666 73.4271 97.7562 73.2676 97.3916 73.0898C97.0316 72.9076 96.7627 72.6865 96.585 72.4268C96.4118 72.167 96.3252 71.8525 96.3252 71.4834C96.3252 70.9001 96.569 70.4193 97.0566 70.041C97.5443 69.6582 98.1686 69.4668 98.9297 69.4668C99.7546 69.4668 100.415 69.6719 100.912 70.082C101.413 70.4876 101.664 71.0186 101.664 71.6748H100.844C100.844 71.2419 100.661 70.8818 100.297 70.5947C99.9368 70.3076 99.4811 70.1641 98.9297 70.1641C98.3919 70.1641 97.959 70.2848 97.6309 70.5264C97.3073 70.7633 97.1455 71.0732 97.1455 71.4561C97.1455 71.8252 97.2799 72.1123 97.5488 72.3174C97.8223 72.5179 98.3167 72.7025 99.0322 72.8711C99.7523 73.0397 100.29 73.2197 100.646 73.4111C101.006 73.6025 101.272 73.8327 101.445 74.1016C101.618 74.3704 101.705 74.6963 101.705 75.0791C101.705 75.7035 101.452 76.2025 100.946 76.5762C100.445 76.9499 99.7887 77.1367 98.9775 77.1367C98.1162 77.1367 97.4167 76.9294 96.8789 76.5146C96.3457 76.0954 96.0791 75.5667 96.0791 74.9287H96.8994C96.9313 75.4072 97.1318 75.7809 97.501 76.0498C97.8747 76.3141 98.3669 76.4463 98.9775 76.4463C99.5472 76.4463 100.007 76.321 100.358 76.0703C100.709 75.8197 100.885 75.5029 100.885 75.1201ZM106.627 73.2334C106.627 72.085 106.882 71.1712 107.393 70.4922C107.908 69.8086 108.605 69.4668 109.484 69.4668C110.482 69.4668 111.243 69.861 111.768 70.6494V66.5H112.581V77H111.815L111.781 76.0156C111.257 76.763 110.487 77.1367 109.471 77.1367C108.618 77.1367 107.93 76.7949 107.406 76.1113C106.887 75.4232 106.627 74.4958 106.627 73.3291V73.2334ZM107.454 73.377C107.454 74.3203 107.643 75.0654 108.021 75.6123C108.4 76.1546 108.933 76.4258 109.621 76.4258C110.628 76.4258 111.344 75.9814 111.768 75.0928V71.6201C111.344 70.6585 110.633 70.1777 109.635 70.1777C108.947 70.1777 108.411 70.4489 108.028 70.9912C107.646 71.529 107.454 72.3242 107.454 73.377ZM117.599 77.1367C116.97 77.1367 116.4 76.9818 115.89 76.6719C115.384 76.362 114.99 75.9313 114.707 75.3799C114.424 74.8239 114.283 74.2018 114.283 73.5137V73.2197C114.283 72.5088 114.42 71.8685 114.693 71.2988C114.971 70.7292 115.356 70.2826 115.849 69.959C116.341 69.6309 116.874 69.4668 117.448 69.4668C118.346 69.4668 119.057 69.7744 119.581 70.3896C120.11 71.0003 120.374 71.8366 120.374 72.8984V73.3564H115.097V73.5137C115.097 74.3522 115.336 75.0518 115.814 75.6123C116.298 76.1683 116.904 76.4463 117.633 76.4463C118.07 76.4463 118.455 76.3665 118.788 76.207C119.125 76.0475 119.431 75.7923 119.704 75.4414L120.217 75.8311C119.615 76.7015 118.743 77.1367 117.599 77.1367ZM117.448 70.1641C116.833 70.1641 116.313 70.3896 115.89 70.8408C115.47 71.292 115.215 71.8981 115.124 72.6592H119.561V72.5703C119.538 71.8594 119.335 71.2806 118.952 70.834C118.569 70.3874 118.068 70.1641 117.448 70.1641ZM128.789 70.3008C128.616 70.2689 128.431 70.2529 128.235 70.2529C127.725 70.2529 127.292 70.3965 126.937 70.6836C126.586 70.9661 126.335 71.3786 126.185 71.9209V77H125.371V69.6035H126.171L126.185 70.7793C126.618 69.9043 127.312 69.4668 128.27 69.4668C128.497 69.4668 128.677 69.4964 128.81 69.5557L128.789 70.3008ZM132.815 77.1367C132.187 77.1367 131.617 76.9818 131.106 76.6719C130.601 76.362 130.206 75.9313 129.924 75.3799C129.641 74.8239 129.5 74.2018 129.5 73.5137V73.2197C129.5 72.5088 129.637 71.8685 129.91 71.2988C130.188 70.7292 130.573 70.2826 131.065 69.959C131.558 69.6309 132.091 69.4668 132.665 69.4668C133.563 69.4668 134.274 69.7744 134.798 70.3896C135.326 71.0003 135.591 71.8366 135.591 72.8984V73.3564H130.313V73.5137C130.313 74.3522 130.553 75.0518 131.031 75.6123C131.514 76.1683 132.12 76.4463 132.85 76.4463C133.287 76.4463 133.672 76.3665 134.005 76.207C134.342 76.0475 134.647 75.7923 134.921 75.4414L135.434 75.8311C134.832 76.7015 133.959 77.1367 132.815 77.1367ZM132.665 70.1641C132.05 70.1641 131.53 70.3896 131.106 70.8408C130.687 71.292 130.432 71.8981 130.341 72.6592H134.777V72.5703C134.755 71.8594 134.552 71.2806 134.169 70.834C133.786 70.3874 133.285 70.1641 132.665 70.1641ZM139.918 76.4463C140.488 76.4463 140.964 76.2868 141.347 75.9678C141.734 75.6442 141.944 75.2272 141.976 74.7168H142.762C142.739 75.168 142.598 75.5804 142.338 75.9541C142.078 76.3232 141.732 76.6126 141.299 76.8223C140.87 77.0319 140.41 77.1367 139.918 77.1367C138.947 77.1367 138.177 76.7995 137.607 76.125C137.042 75.4505 136.76 74.5436 136.76 73.4043V73.1582C136.76 72.429 136.887 71.7842 137.143 71.2236C137.398 70.6631 137.762 70.2301 138.236 69.9248C138.715 69.6195 139.273 69.4668 139.911 69.4668C140.722 69.4668 141.39 69.7083 141.914 70.1914C142.443 70.6745 142.725 71.3102 142.762 72.0986H141.976C141.939 71.5199 141.729 71.0527 141.347 70.6973C140.968 70.3418 140.49 70.1641 139.911 70.1641C139.173 70.1641 138.599 70.4307 138.188 70.9639C137.783 71.4971 137.58 72.2445 137.58 73.2061V73.4453C137.58 74.3887 137.783 75.1247 138.188 75.6533C138.599 76.182 139.175 76.4463 139.918 76.4463ZM143.951 73.1924C143.951 72.4814 144.088 71.8411 144.361 71.2715C144.639 70.7018 145.029 70.2598 145.53 69.9453C146.036 69.6263 146.608 69.4668 147.246 69.4668C148.23 69.4668 149.028 69.8132 149.639 70.5059C150.249 71.194 150.555 72.1077 150.555 73.2471V73.418C150.555 74.1335 150.416 74.7783 150.138 75.3525C149.864 75.9222 149.477 76.362 148.976 76.6719C148.474 76.9818 147.902 77.1367 147.26 77.1367C146.28 77.1367 145.482 76.7926 144.867 76.1045C144.257 75.4118 143.951 74.4958 143.951 73.3564V73.1924ZM144.771 73.418C144.771 74.3021 144.999 75.029 145.455 75.5986C145.915 76.1637 146.517 76.4463 147.26 76.4463C147.998 76.4463 148.595 76.1637 149.051 75.5986C149.511 75.029 149.741 74.2793 149.741 73.3496V73.1924C149.741 72.6273 149.636 72.11 149.427 71.6406C149.217 71.1712 148.923 70.8089 148.545 70.5537C148.167 70.2939 147.734 70.1641 147.246 70.1641C146.517 70.1641 145.922 70.4512 145.462 71.0254C145.002 71.5951 144.771 72.3424 144.771 73.2676V73.418ZM153.029 69.6035L153.057 70.8682C153.335 70.4124 153.681 70.0661 154.096 69.8291C154.51 69.5876 154.968 69.4668 155.47 69.4668C156.263 69.4668 156.853 69.6901 157.24 70.1367C157.628 70.5833 157.824 71.2533 157.828 72.1465V77H157.015V72.1396C157.01 71.4788 156.869 70.9867 156.591 70.6631C156.317 70.3395 155.878 70.1777 155.271 70.1777C154.766 70.1777 154.317 70.3372 153.925 70.6562C153.537 70.9707 153.25 71.3968 153.063 71.9346V77H152.25V69.6035H153.029ZM159.496 73.1924C159.496 72.4814 159.633 71.8411 159.906 71.2715C160.184 70.7018 160.574 70.2598 161.075 69.9453C161.581 69.6263 162.153 69.4668 162.791 69.4668C163.775 69.4668 164.573 69.8132 165.184 70.5059C165.794 71.194 166.1 72.1077 166.1 73.2471V73.418C166.1 74.1335 165.961 74.7783 165.683 75.3525C165.409 75.9222 165.022 76.362 164.521 76.6719C164.019 76.9818 163.447 77.1367 162.805 77.1367C161.825 77.1367 161.027 76.7926 160.412 76.1045C159.801 75.4118 159.496 74.4958 159.496 73.3564V73.1924ZM160.316 73.418C160.316 74.3021 160.544 75.029 161 75.5986C161.46 76.1637 162.062 76.4463 162.805 76.4463C163.543 76.4463 164.14 76.1637 164.596 75.5986C165.056 75.029 165.286 74.2793 165.286 73.3496V73.1924C165.286 72.6273 165.181 72.11 164.972 71.6406C164.762 71.1712 164.468 70.8089 164.09 70.5537C163.712 70.2939 163.279 70.1641 162.791 70.1641C162.062 70.1641 161.467 70.4512 161.007 71.0254C160.547 71.5951 160.316 72.3424 160.316 73.2676V73.418ZM170.529 76.4463C171.099 76.4463 171.575 76.2868 171.958 75.9678C172.345 75.6442 172.555 75.2272 172.587 74.7168H173.373C173.35 75.168 173.209 75.5804 172.949 75.9541C172.689 76.3232 172.343 76.6126 171.91 76.8223C171.482 77.0319 171.021 77.1367 170.529 77.1367C169.559 77.1367 168.788 76.7995 168.219 76.125C167.654 75.4505 167.371 74.5436 167.371 73.4043V73.1582C167.371 72.429 167.499 71.7842 167.754 71.2236C168.009 70.6631 168.374 70.2301 168.848 69.9248C169.326 69.6195 169.884 69.4668 170.522 69.4668C171.334 69.4668 172.001 69.7083 172.525 70.1914C173.054 70.6745 173.337 71.3102 173.373 72.0986H172.587C172.55 71.5199 172.341 71.0527 171.958 70.6973C171.58 70.3418 171.101 70.1641 170.522 70.1641C169.784 70.1641 169.21 70.4307 168.8 70.9639C168.394 71.4971 168.191 72.2445 168.191 73.2061V73.4453C168.191 74.3887 168.394 75.1247 168.8 75.6533C169.21 76.182 169.786 76.4463 170.529 76.4463ZM175.93 77H175.109V69.6035H175.93V77ZM174.966 67.4639C174.966 67.3089 175.016 67.179 175.116 67.0742C175.216 66.9648 175.353 66.9102 175.526 66.9102C175.7 66.9102 175.836 66.9648 175.937 67.0742C176.041 67.179 176.094 67.3089 176.094 67.4639C176.094 67.6188 176.041 67.7487 175.937 67.8535C175.836 67.9583 175.7 68.0107 175.526 68.0107C175.353 68.0107 175.216 67.9583 175.116 67.8535C175.016 67.7487 174.966 67.6188 174.966 67.4639ZM178.903 69.6035L178.931 70.8066C179.204 70.36 179.546 70.0251 179.956 69.8018C180.366 69.5785 180.822 69.4668 181.323 69.4668C182.49 69.4668 183.23 69.9453 183.545 70.9023C183.809 70.4421 184.162 70.0889 184.604 69.8428C185.047 69.5921 185.534 69.4668 186.067 69.4668C187.653 69.4668 188.462 70.3327 188.494 72.0645V77H187.674V72.126C187.669 71.4652 187.526 70.9753 187.243 70.6562C186.965 70.3372 186.509 70.1777 185.876 70.1777C185.288 70.1868 184.791 70.3783 184.386 70.752C183.98 71.1211 183.755 71.5723 183.709 72.1055V77H182.889V72.0645C182.884 71.431 182.734 70.9593 182.438 70.6494C182.146 70.335 181.695 70.1777 181.084 70.1777C180.569 70.1777 180.127 70.3258 179.758 70.6221C179.389 70.9137 179.115 71.349 178.938 71.9277V77H178.117V69.6035H178.903ZM191.488 77H190.668V69.6035H191.488V77ZM190.524 67.4639C190.524 67.3089 190.575 67.179 190.675 67.0742C190.775 66.9648 190.912 66.9102 191.085 66.9102C191.258 66.9102 191.395 66.9648 191.495 67.0742C191.6 67.179 191.652 67.3089 191.652 67.4639C191.652 67.6188 191.6 67.7487 191.495 67.8535C191.395 67.9583 191.258 68.0107 191.085 68.0107C190.912 68.0107 190.775 67.9583 190.675 67.8535C190.575 67.7487 190.524 67.6188 190.524 67.4639ZM196.581 77.1367C195.952 77.1367 195.382 76.9818 194.872 76.6719C194.366 76.362 193.972 75.9313 193.689 75.3799C193.407 74.8239 193.266 74.2018 193.266 73.5137V73.2197C193.266 72.5088 193.402 71.8685 193.676 71.2988C193.954 70.7292 194.339 70.2826 194.831 69.959C195.323 69.6309 195.856 69.4668 196.431 69.4668C197.328 69.4668 198.039 69.7744 198.563 70.3896C199.092 71.0003 199.356 71.8366 199.356 72.8984V73.3564H194.079V73.5137C194.079 74.3522 194.318 75.0518 194.797 75.6123C195.28 76.1683 195.886 76.4463 196.615 76.4463C197.053 76.4463 197.438 76.3665 197.771 76.207C198.108 76.0475 198.413 75.7923 198.687 75.4414L199.199 75.8311C198.598 76.7015 197.725 77.1367 196.581 77.1367ZM196.431 70.1641C195.815 70.1641 195.296 70.3896 194.872 70.8408C194.453 71.292 194.198 71.8981 194.106 72.6592H198.543V72.5703C198.52 71.8594 198.317 71.2806 197.935 70.834C197.552 70.3874 197.05 70.1641 196.431 70.1641ZM201.729 69.6035L201.756 70.8682C202.034 70.4124 202.38 70.0661 202.795 69.8291C203.21 69.5876 203.668 69.4668 204.169 69.4668C204.962 69.4668 205.552 69.6901 205.939 70.1367C206.327 70.5833 206.523 71.2533 206.527 72.1465V77H205.714V72.1396C205.709 71.4788 205.568 70.9867 205.29 70.6631C205.017 70.3395 204.577 70.1777 203.971 70.1777C203.465 70.1777 203.016 70.3372 202.624 70.6562C202.237 70.9707 201.95 71.3968 201.763 71.9346V77H200.949V69.6035H201.729ZM209.918 67.71V69.6035H211.449V70.2734H209.918V75.2021C209.918 75.6123 209.991 75.9176 210.137 76.1182C210.287 76.3187 210.535 76.4189 210.882 76.4189C211.019 76.4189 211.24 76.3962 211.545 76.3506L211.579 77.0205C211.365 77.098 211.073 77.1367 210.704 77.1367C210.144 77.1367 209.736 76.9749 209.48 76.6514C209.225 76.3232 209.098 75.8424 209.098 75.209V70.2734H207.737V69.6035H209.098V67.71H209.918ZM212.557 73.1924C212.557 72.4814 212.693 71.8411 212.967 71.2715C213.245 70.7018 213.634 70.2598 214.136 69.9453C214.642 69.6263 215.214 69.4668 215.852 69.4668C216.836 69.4668 217.633 69.8132 218.244 70.5059C218.855 71.194 219.16 72.1077 219.16 73.2471V73.418C219.16 74.1335 219.021 74.7783 218.743 75.3525C218.47 75.9222 218.082 76.362 217.581 76.6719C217.08 76.9818 216.508 77.1367 215.865 77.1367C214.885 77.1367 214.088 76.7926 213.473 76.1045C212.862 75.4118 212.557 74.4958 212.557 73.3564V73.1924ZM213.377 73.418C213.377 74.3021 213.605 75.029 214.061 75.5986C214.521 76.1637 215.122 76.4463 215.865 76.4463C216.604 76.4463 217.201 76.1637 217.656 75.5986C218.117 75.029 218.347 74.2793 218.347 73.3496V73.1924C218.347 72.6273 218.242 72.11 218.032 71.6406C217.823 71.1712 217.529 70.8089 217.15 70.5537C216.772 70.2939 216.339 70.1641 215.852 70.1641C215.122 70.1641 214.528 70.4512 214.067 71.0254C213.607 71.5951 213.377 72.3424 213.377 73.2676V73.418ZM226.604 75.8242L228.765 69.6035H229.646L226.488 78.2578L226.324 78.6406C225.919 79.5384 225.292 79.9873 224.444 79.9873C224.248 79.9873 224.039 79.9554 223.815 79.8916L223.809 79.2148L224.232 79.2559C224.633 79.2559 224.957 79.1556 225.203 78.9551C225.454 78.7591 225.666 78.4196 225.839 77.9365L226.201 76.9385L223.412 69.6035H224.308L226.604 75.8242ZM238.752 75.1201C238.752 74.7145 238.588 74.3887 238.26 74.1426C237.936 73.8965 237.446 73.7051 236.79 73.5684C236.134 73.4271 235.623 73.2676 235.259 73.0898C234.899 72.9076 234.63 72.6865 234.452 72.4268C234.279 72.167 234.192 71.8525 234.192 71.4834C234.192 70.9001 234.436 70.4193 234.924 70.041C235.411 69.6582 236.036 69.4668 236.797 69.4668C237.622 69.4668 238.283 69.6719 238.779 70.082C239.281 70.4876 239.531 71.0186 239.531 71.6748H238.711C238.711 71.2419 238.529 70.8818 238.164 70.5947C237.804 70.3076 237.348 70.1641 236.797 70.1641C236.259 70.1641 235.826 70.2848 235.498 70.5264C235.174 70.7633 235.013 71.0732 235.013 71.4561C235.013 71.8252 235.147 72.1123 235.416 72.3174C235.689 72.5179 236.184 72.7025 236.899 72.8711C237.619 73.0397 238.157 73.2197 238.513 73.4111C238.873 73.6025 239.139 73.8327 239.312 74.1016C239.486 74.3704 239.572 74.6963 239.572 75.0791C239.572 75.7035 239.319 76.2025 238.813 76.5762C238.312 76.9499 237.656 77.1367 236.845 77.1367C235.983 77.1367 235.284 76.9294 234.746 76.5146C234.213 76.0954 233.946 75.5667 233.946 74.9287H234.767C234.799 75.4072 234.999 75.7809 235.368 76.0498C235.742 76.3141 236.234 76.4463 236.845 76.4463C237.414 76.4463 237.875 76.321 238.226 76.0703C238.576 75.8197 238.752 75.5029 238.752 75.1201ZM244.282 77.1367C243.653 77.1367 243.084 76.9818 242.573 76.6719C242.067 76.362 241.673 75.9313 241.391 75.3799C241.108 74.8239 240.967 74.2018 240.967 73.5137V73.2197C240.967 72.5088 241.104 71.8685 241.377 71.2988C241.655 70.7292 242.04 70.2826 242.532 69.959C243.024 69.6309 243.558 69.4668 244.132 69.4668C245.03 69.4668 245.741 69.7744 246.265 70.3896C246.793 71.0003 247.058 71.8366 247.058 72.8984V73.3564H241.78V73.5137C241.78 74.3522 242.02 75.0518 242.498 75.6123C242.981 76.1683 243.587 76.4463 244.316 76.4463C244.754 76.4463 245.139 76.3665 245.472 76.207C245.809 76.0475 246.114 75.7923 246.388 75.4414L246.9 75.8311C246.299 76.7015 245.426 77.1367 244.282 77.1367ZM244.132 70.1641C243.517 70.1641 242.997 70.3896 242.573 70.8408C242.154 71.292 241.899 71.8981 241.808 72.6592H246.244V72.5703C246.221 71.8594 246.019 71.2806 245.636 70.834C245.253 70.3874 244.752 70.1641 244.132 70.1641ZM248.322 73.2334C248.322 72.0758 248.577 71.1598 249.088 70.4854C249.603 69.8063 250.3 69.4668 251.18 69.4668C252.187 69.4668 252.952 69.8678 253.477 70.6699L253.518 69.6035H254.283V76.8496C254.283 77.8021 254.017 78.5563 253.483 79.1123C252.95 79.6683 252.228 79.9463 251.316 79.9463C250.801 79.9463 250.309 79.8301 249.84 79.5977C249.375 79.3698 249.008 79.0645 248.739 78.6816L249.197 78.1895C249.776 78.9004 250.464 79.2559 251.262 79.2559C251.945 79.2559 252.479 79.0531 252.861 78.6475C253.244 78.2464 253.442 77.6882 253.456 76.9727V76.043C252.932 76.7721 252.169 77.1367 251.166 77.1367C250.309 77.1367 249.621 76.7949 249.102 76.1113C248.582 75.4277 248.322 74.5049 248.322 73.3428V73.2334ZM249.149 73.377C249.149 74.3203 249.339 75.0654 249.717 75.6123C250.095 76.1546 250.628 76.4258 251.316 76.4258C252.324 76.4258 253.037 75.9746 253.456 75.0723V71.6338C253.265 71.1598 252.989 70.7998 252.629 70.5537C252.269 70.3031 251.836 70.1777 251.33 70.1777C250.642 70.1777 250.106 70.4489 249.724 70.9912C249.341 71.529 249.149 72.3242 249.149 73.377ZM261.174 76.0635C260.682 76.779 259.896 77.1367 258.815 77.1367C258.027 77.1367 257.428 76.9089 257.018 76.4531C256.607 75.9928 256.398 75.3138 256.389 74.416V69.6035H257.202V74.3135C257.202 75.7217 257.772 76.4258 258.911 76.4258C260.096 76.4258 260.846 75.9359 261.16 74.9561V69.6035H261.98V77H261.188L261.174 76.0635ZM265.029 77H264.209V69.6035H265.029V77ZM264.065 67.4639C264.065 67.3089 264.116 67.179 264.216 67.0742C264.316 66.9648 264.453 66.9102 264.626 66.9102C264.799 66.9102 264.936 66.9648 265.036 67.0742C265.141 67.179 265.193 67.3089 265.193 67.4639C265.193 67.6188 265.141 67.7487 265.036 67.8535C264.936 67.9583 264.799 68.0107 264.626 68.0107C264.453 68.0107 264.316 67.9583 264.216 67.8535C264.116 67.7487 264.065 67.6188 264.065 67.4639ZM268.003 69.6035L268.03 70.8066C268.304 70.36 268.646 70.0251 269.056 69.8018C269.466 69.5785 269.922 69.4668 270.423 69.4668C271.59 69.4668 272.33 69.9453 272.645 70.9023C272.909 70.4421 273.262 70.0889 273.704 69.8428C274.146 69.5921 274.634 69.4668 275.167 69.4668C276.753 69.4668 277.562 70.3327 277.594 72.0645V77H276.773V72.126C276.769 71.4652 276.625 70.9753 276.343 70.6562C276.065 70.3372 275.609 70.1777 274.976 70.1777C274.388 70.1868 273.891 70.3783 273.485 70.752C273.08 71.1211 272.854 71.5723 272.809 72.1055V77H271.988V72.0645C271.984 71.431 271.833 70.9593 271.537 70.6494C271.245 70.335 270.794 70.1777 270.184 70.1777C269.669 70.1777 269.227 70.3258 268.857 70.6221C268.488 70.9137 268.215 71.349 268.037 71.9277V77H267.217V69.6035H268.003ZM280.588 77H279.768V69.6035H280.588V77ZM279.624 67.4639C279.624 67.3089 279.674 67.179 279.774 67.0742C279.875 66.9648 280.011 66.9102 280.185 66.9102C280.358 66.9102 280.494 66.9648 280.595 67.0742C280.7 67.179 280.752 67.3089 280.752 67.4639C280.752 67.6188 280.7 67.7487 280.595 67.8535C280.494 67.9583 280.358 68.0107 280.185 68.0107C280.011 68.0107 279.875 67.9583 279.774 67.8535C279.674 67.7487 279.624 67.6188 279.624 67.4639ZM285.681 77.1367C285.052 77.1367 284.482 76.9818 283.972 76.6719C283.466 76.362 283.072 75.9313 282.789 75.3799C282.507 74.8239 282.365 74.2018 282.365 73.5137V73.2197C282.365 72.5088 282.502 71.8685 282.775 71.2988C283.053 70.7292 283.438 70.2826 283.931 69.959C284.423 69.6309 284.956 69.4668 285.53 69.4668C286.428 69.4668 287.139 69.7744 287.663 70.3896C288.192 71.0003 288.456 71.8366 288.456 72.8984V73.3564H283.179V73.5137C283.179 74.3522 283.418 75.0518 283.896 75.6123C284.38 76.1683 284.986 76.4463 285.715 76.4463C286.152 76.4463 286.537 76.3665 286.87 76.207C287.207 76.0475 287.513 75.7923 287.786 75.4414L288.299 75.8311C287.697 76.7015 286.825 77.1367 285.681 77.1367ZM285.53 70.1641C284.915 70.1641 284.396 70.3896 283.972 70.8408C283.552 71.292 283.297 71.8981 283.206 72.6592H287.643V72.5703C287.62 71.8594 287.417 71.2806 287.034 70.834C286.651 70.3874 286.15 70.1641 285.53 70.1641ZM290.828 69.6035L290.855 70.8682C291.133 70.4124 291.48 70.0661 291.895 69.8291C292.309 69.5876 292.767 69.4668 293.269 69.4668C294.062 69.4668 294.652 69.6901 295.039 70.1367C295.426 70.5833 295.622 71.2533 295.627 72.1465V77H294.813V72.1396C294.809 71.4788 294.668 70.9867 294.39 70.6631C294.116 70.3395 293.676 70.1777 293.07 70.1777C292.564 70.1777 292.116 70.3372 291.724 70.6562C291.336 70.9707 291.049 71.3968 290.862 71.9346V77H290.049V69.6035H290.828ZM299.018 67.71V69.6035H300.549V70.2734H299.018V75.2021C299.018 75.6123 299.09 75.9176 299.236 76.1182C299.387 76.3187 299.635 76.4189 299.981 76.4189C300.118 76.4189 300.339 76.3962 300.645 76.3506L300.679 77.0205C300.465 77.098 300.173 77.1367 299.804 77.1367C299.243 77.1367 298.835 76.9749 298.58 76.6514C298.325 76.3232 298.197 75.8424 298.197 75.209V70.2734H296.837V69.6035H298.197V67.71H299.018ZM301.656 73.1924C301.656 72.4814 301.793 71.8411 302.066 71.2715C302.344 70.7018 302.734 70.2598 303.235 69.9453C303.741 69.6263 304.313 69.4668 304.951 69.4668C305.936 69.4668 306.733 69.8132 307.344 70.5059C307.954 71.194 308.26 72.1077 308.26 73.2471V73.418C308.26 74.1335 308.121 74.7783 307.843 75.3525C307.569 75.9222 307.182 76.362 306.681 76.6719C306.179 76.9818 305.607 77.1367 304.965 77.1367C303.985 77.1367 303.188 76.7926 302.572 76.1045C301.962 75.4118 301.656 74.4958 301.656 73.3564V73.1924ZM302.477 73.418C302.477 74.3021 302.704 75.029 303.16 75.5986C303.62 76.1637 304.222 76.4463 304.965 76.4463C305.703 76.4463 306.3 76.1637 306.756 75.5986C307.216 75.029 307.446 74.2793 307.446 73.3496V73.1924C307.446 72.6273 307.341 72.11 307.132 71.6406C306.922 71.1712 306.628 70.8089 306.25 70.5537C305.872 70.2939 305.439 70.1641 304.951 70.1641C304.222 70.1641 303.627 70.4512 303.167 71.0254C302.707 71.5951 302.477 72.3424 302.477 73.2676V73.418ZM313.031 73.2334C313.031 72.085 313.286 71.1712 313.797 70.4922C314.312 69.8086 315.009 69.4668 315.889 69.4668C316.887 69.4668 317.648 69.861 318.172 70.6494V66.5H318.985V77H318.22L318.186 76.0156C317.661 76.763 316.891 77.1367 315.875 77.1367C315.023 77.1367 314.335 76.7949 313.811 76.1113C313.291 75.4232 313.031 74.4958 313.031 73.3291V73.2334ZM313.858 73.377C313.858 74.3203 314.048 75.0654 314.426 75.6123C314.804 76.1546 315.337 76.4258 316.025 76.4258C317.033 76.4258 317.748 75.9814 318.172 75.0928V71.6201C317.748 70.6585 317.037 70.1777 316.039 70.1777C315.351 70.1777 314.815 70.4489 314.433 70.9912C314.05 71.529 313.858 72.3242 313.858 73.377ZM324.003 77.1367C323.374 77.1367 322.804 76.9818 322.294 76.6719C321.788 76.362 321.394 75.9313 321.111 75.3799C320.829 74.8239 320.688 74.2018 320.688 73.5137V73.2197C320.688 72.5088 320.824 71.8685 321.098 71.2988C321.376 70.7292 321.761 70.2826 322.253 69.959C322.745 69.6309 323.278 69.4668 323.853 69.4668C324.75 69.4668 325.461 69.7744 325.985 70.3896C326.514 71.0003 326.778 71.8366 326.778 72.8984V73.3564H321.501V73.5137C321.501 74.3522 321.74 75.0518 322.219 75.6123C322.702 76.1683 323.308 76.4463 324.037 76.4463C324.475 76.4463 324.86 76.3665 325.192 76.207C325.53 76.0475 325.835 75.7923 326.108 75.4414L326.621 75.8311C326.02 76.7015 325.147 77.1367 324.003 77.1367ZM323.853 70.1641C323.237 70.1641 322.718 70.3896 322.294 70.8408C321.875 71.292 321.619 71.8981 321.528 72.6592H325.965V72.5703C325.942 71.8594 325.739 71.2806 325.356 70.834C324.974 70.3874 324.472 70.1641 323.853 70.1641ZM329.287 77H328.467V66.5H329.287V77ZM335.836 77H335.016V69.6035H335.836V77ZM334.872 67.4639C334.872 67.3089 334.922 67.179 335.022 67.0742C335.123 66.9648 335.259 66.9102 335.433 66.9102C335.606 66.9102 335.743 66.9648 335.843 67.0742C335.948 67.179 336 67.3089 336 67.4639C336 67.6188 335.948 67.7487 335.843 67.8535C335.743 67.9583 335.606 68.0107 335.433 68.0107C335.259 68.0107 335.123 67.9583 335.022 67.8535C334.922 67.7487 334.872 67.6188 334.872 67.4639ZM341.482 70.3008C341.309 70.2689 341.125 70.2529 340.929 70.2529C340.418 70.2529 339.985 70.3965 339.63 70.6836C339.279 70.9661 339.028 71.3786 338.878 71.9209V77H338.064V69.6035H338.864L338.878 70.7793C339.311 69.9043 340.006 69.4668 340.963 69.4668C341.191 69.4668 341.371 69.4964 341.503 69.5557L341.482 70.3008ZM343.697 77H342.877V69.6035H343.697V77ZM342.733 67.4639C342.733 67.3089 342.784 67.179 342.884 67.0742C342.984 66.9648 343.121 66.9102 343.294 66.9102C343.467 66.9102 343.604 66.9648 343.704 67.0742C343.809 67.179 343.861 67.3089 343.861 67.4639C343.861 67.6188 343.809 67.7487 343.704 67.8535C343.604 67.9583 343.467 68.0107 343.294 68.0107C343.121 68.0107 342.984 67.9583 342.884 67.8535C342.784 67.7487 342.733 67.6188 342.733 67.4639ZM350.355 75.1201C350.355 74.7145 350.191 74.3887 349.863 74.1426C349.54 73.8965 349.05 73.7051 348.394 73.5684C347.737 73.4271 347.227 73.2676 346.862 73.0898C346.502 72.9076 346.233 72.6865 346.056 72.4268C345.882 72.167 345.796 71.8525 345.796 71.4834C345.796 70.9001 346.04 70.4193 346.527 70.041C347.015 69.6582 347.639 69.4668 348.4 69.4668C349.225 69.4668 349.886 69.6719 350.383 70.082C350.884 70.4876 351.135 71.0186 351.135 71.6748H350.314C350.314 71.2419 350.132 70.8818 349.768 70.5947C349.408 70.3076 348.952 70.1641 348.4 70.1641C347.863 70.1641 347.43 70.2848 347.102 70.5264C346.778 70.7633 346.616 71.0732 346.616 71.4561C346.616 71.8252 346.751 72.1123 347.02 72.3174C347.293 72.5179 347.787 72.7025 348.503 72.8711C349.223 73.0397 349.761 73.2197 350.116 73.4111C350.476 73.6025 350.743 73.8327 350.916 74.1016C351.089 74.3704 351.176 74.6963 351.176 75.0791C351.176 75.7035 350.923 76.2025 350.417 76.5762C349.916 76.9499 349.259 77.1367 348.448 77.1367C347.587 77.1367 346.887 76.9294 346.35 76.5146C345.816 76.0954 345.55 75.5667 345.55 74.9287H346.37C346.402 75.4072 346.603 75.7809 346.972 76.0498C347.345 76.3141 347.838 76.4463 348.448 76.4463C349.018 76.4463 349.478 76.321 349.829 76.0703C350.18 75.8197 350.355 75.5029 350.355 75.1201Z" fill="white"/>
<g filter="url(#filter0_d)">
<rect x="27" y="94" width="284" height="5.7542" rx="2.8771" fill="#1F3044"/>
<rect x="27" y="94" width="284" height="5" rx="2.5" fill="#00DDA3"/>
</g>
<path d="M327.339 100H325.977V90.9692L323.245 91.9727V90.7422L327.127 89.2847H327.339V100ZM337.996 95.4517C337.996 97.0386 337.725 98.2178 337.183 98.9893C336.641 99.7607 335.794 100.146 334.642 100.146C333.504 100.146 332.662 99.7705 332.115 99.0186C331.568 98.2617 331.285 97.1338 331.265 95.6348V93.8257C331.265 92.2583 331.536 91.0938 332.078 90.332C332.62 89.5703 333.47 89.1895 334.627 89.1895C335.774 89.1895 336.619 89.5581 337.161 90.2954C337.703 91.0278 337.981 92.1606 337.996 93.6938V95.4517ZM336.641 93.5986C336.641 92.4512 336.48 91.6162 336.158 91.0938C335.835 90.5664 335.325 90.3027 334.627 90.3027C333.934 90.3027 333.428 90.564 333.111 91.0864C332.793 91.6089 332.63 92.4121 332.62 93.4961V95.6641C332.62 96.8164 332.786 97.6685 333.118 98.2202C333.455 98.7671 333.963 99.0405 334.642 99.0405C335.311 99.0405 335.806 98.7817 336.128 98.2642C336.456 97.7466 336.626 96.9312 336.641 95.8179V93.5986ZM346.419 95.4517C346.419 97.0386 346.148 98.2178 345.606 98.9893C345.064 99.7607 344.217 100.146 343.064 100.146C341.927 100.146 341.084 99.7705 340.538 99.0186C339.991 98.2617 339.708 97.1338 339.688 95.6348V93.8257C339.688 92.2583 339.959 91.0938 340.501 90.332C341.043 89.5703 341.893 89.1895 343.05 89.1895C344.197 89.1895 345.042 89.5581 345.584 90.2954C346.126 91.0278 346.404 92.1606 346.419 93.6938V95.4517ZM345.064 93.5986C345.064 92.4512 344.903 91.6162 344.581 91.0938C344.258 90.5664 343.748 90.3027 343.05 90.3027C342.356 90.3027 341.851 90.564 341.534 91.0864C341.216 91.6089 341.053 92.4121 341.043 93.4961V95.6641C341.043 96.8164 341.209 97.6685 341.541 98.2202C341.878 98.7671 342.386 99.0405 343.064 99.0405C343.733 99.0405 344.229 98.7817 344.551 98.2642C344.878 97.7466 345.049 96.9312 345.064 95.8179V93.5986ZM348.038 91.3867C348.038 90.7471 348.24 90.2197 348.646 89.8047C349.056 89.3896 349.581 89.1821 350.22 89.1821C350.87 89.1821 351.395 89.3921 351.795 89.812C352.2 90.2271 352.403 90.7666 352.403 91.4307V91.9507C352.403 92.5952 352.198 93.1226 351.788 93.5327C351.382 93.938 350.865 94.1406 350.235 94.1406C349.6 94.1406 349.075 93.938 348.66 93.5327C348.245 93.1226 348.038 92.5781 348.038 91.8994V91.3867ZM349.048 91.9507C349.048 92.3315 349.156 92.6465 349.371 92.8955C349.585 93.1396 349.874 93.2617 350.235 93.2617C350.582 93.2617 350.86 93.1421 351.07 92.9028C351.285 92.6636 351.392 92.3364 351.392 91.9214V91.3867C351.392 91.0059 351.287 90.6909 351.077 90.4419C350.867 90.1929 350.582 90.0684 350.22 90.0684C349.859 90.0684 349.573 90.1929 349.363 90.4419C349.153 90.6909 349.048 91.0156 349.048 91.416V91.9507ZM353.23 97.3853C353.23 96.7456 353.433 96.2207 353.838 95.8105C354.249 95.3955 354.773 95.188 355.413 95.188C356.053 95.188 356.578 95.3931 356.988 95.8032C357.398 96.2134 357.603 96.7578 357.603 97.4365V97.9565C357.603 98.5962 357.398 99.1235 356.988 99.5386C356.583 99.9487 356.062 100.154 355.428 100.154C354.793 100.154 354.268 99.9512 353.853 99.5459C353.438 99.1357 353.23 98.5913 353.23 97.9126V97.3853ZM354.241 97.9565C354.241 98.3423 354.349 98.6597 354.563 98.9087C354.778 99.1528 355.066 99.2749 355.428 99.2749C355.779 99.2749 356.06 99.1553 356.27 98.916C356.48 98.6719 356.585 98.3423 356.585 97.9272V97.3853C356.585 96.9995 356.478 96.6846 356.263 96.4404C356.053 96.1963 355.77 96.0742 355.413 96.0742C355.066 96.0742 354.783 96.1963 354.563 96.4404C354.349 96.6797 354.241 97.0044 354.241 97.4146V97.9565ZM350.542 99.1943L349.773 98.7109L354.981 90.376L355.75 90.8594L350.542 99.1943Z" fill="#00DDA3"/>
<path d="M344.953 16.0425H347.53V17.1533H344.953V20.0732H343.772V17.1533H341.195V16.0425H343.772V13.3447H344.953V16.0425ZM353.465 21H352.29V14.1318H353.465V21ZM352.195 12.3101C352.195 12.1196 352.252 11.9588 352.367 11.8276C352.485 11.6965 352.659 11.6309 352.887 11.6309C353.116 11.6309 353.289 11.6965 353.408 11.8276C353.526 11.9588 353.585 12.1196 353.585 12.3101C353.585 12.5005 353.526 12.6592 353.408 12.7861C353.289 12.9131 353.116 12.9766 352.887 12.9766C352.659 12.9766 352.485 12.9131 352.367 12.7861C352.252 12.6592 352.195 12.5005 352.195 12.3101ZM356.461 14.1318L356.499 14.9951C357.024 14.335 357.709 14.0049 358.556 14.0049C360.007 14.0049 360.739 14.8237 360.752 16.4614V21H359.578V16.4551C359.573 15.96 359.459 15.5939 359.235 15.3569C359.015 15.12 358.67 15.0015 358.2 15.0015C357.819 15.0015 357.485 15.103 357.197 15.3062C356.909 15.5093 356.685 15.7759 356.524 16.106V21H355.35V14.1318H356.461ZM363.101 21V15.0396H362.015V14.1318H363.101V13.4272C363.101 12.6909 363.297 12.1217 363.691 11.7197C364.084 11.3177 364.641 11.1167 365.36 11.1167C365.631 11.1167 365.9 11.1527 366.166 11.2246L366.103 12.1768C365.904 12.1387 365.692 12.1196 365.468 12.1196C365.087 12.1196 364.793 12.2318 364.586 12.4561C364.379 12.6761 364.275 12.9935 364.275 13.4082V14.1318H365.741V15.0396H364.275V21H363.101ZM366.731 17.5024C366.731 16.8296 366.863 16.2244 367.125 15.687C367.392 15.1496 367.76 14.7349 368.229 14.4429C368.703 14.1509 369.243 14.0049 369.848 14.0049C370.783 14.0049 371.539 14.3286 372.114 14.9761C372.694 15.6235 372.984 16.4847 372.984 17.5596V17.6421C372.984 18.3107 372.855 18.9116 372.597 19.4448C372.343 19.9738 371.977 20.3864 371.498 20.6826C371.025 20.9788 370.479 21.127 369.861 21.127C368.93 21.127 368.174 20.8032 367.595 20.1558C367.019 19.5083 366.731 18.6514 366.731 17.585V17.5024ZM367.912 17.6421C367.912 18.4038 368.088 19.0153 368.439 19.4766C368.794 19.9378 369.268 20.1685 369.861 20.1685C370.457 20.1685 370.931 19.9357 371.283 19.4702C371.634 19.0005 371.809 18.3446 371.809 17.5024C371.809 16.7492 371.63 16.1398 371.27 15.6743C370.914 15.2046 370.441 14.9697 369.848 14.9697C369.268 14.9697 368.801 15.2004 368.445 15.6616C368.09 16.1229 367.912 16.783 367.912 17.6421Z" fill="white"/>
<path d="M340.7 22.2695H373.568V22.9043H340.7V22.2695Z" fill="white"/>
<defs>
<filter id="filter0_d" x="23" y="94" width="292" height="13.7542" filterUnits="userSpaceOnUse" color-interpolation-filters="sRGB">
<feFlood flood-opacity="0" result="BackgroundImageFix"/>
<feColorMatrix in="SourceAlpha" type="matrix" values="0 0 0 0 0 0 0 0 0 0 0 0 0 0 0 0 0 0 127 0"/>
<feOffset dy="4"/>
<feGaussianBlur stdDeviation="2"/>
<feColorMatrix type="matrix" values="0 0 0 0 0 0 0 0 0 0 0 0 0 0 0 0 0 0 0.25 0"/>
<feBlend mode="normal" in2="BackgroundImageFix" result="effect1_dropShadow"/>
<feBlend mode="normal" in="SourceGraphic" in2="effect1_dropShadow" result="shape"/>
</filter>
</defs>
</svg>
