<svg width="25" height="19" viewBox="0 0 25 19" fill="none" xmlns="http://www.w3.org/2000/svg">
<g filter="url(#filter0_i)">
<path d="M3.71051 8.0628C3.53105 7.87955 3.53105 7.60469 3.66564 7.42144C3.8451 7.23819 4.15914 7.19238 4.3386 7.37563C5.81909 8.84159 7.16499 10.3992 8.46603 12.0026C8.82494 10.2617 8.73521 8.38348 7.56876 6.96333C6.04341 5.17668 3.17215 4.71857 1.0187 4.62695C0.749523 7.28401 0.884114 9.39133 1.87111 10.8115C2.8581 12.14 4.74237 12.873 7.92767 12.7814C6.58177 11.0863 5.23586 9.52876 3.71051 8.0628ZM23.899 0.916227C20.6689 1.05366 16.4069 1.69502 14.1637 4.35208C13.087 5.58898 12.5037 7.28401 12.5486 9.48295C12.5935 10.3076 12.6832 11.2238 12.9075 12.1858C14.7918 9.80363 16.8106 7.46725 19.0987 5.22249C19.2781 5.08506 19.5473 5.08506 19.7267 5.26831C19.9062 5.45155 19.9062 5.72642 19.7267 5.90966C17.349 8.15442 15.3301 10.5366 13.401 13.0104C18.2911 13.2395 21.1175 12.1858 22.598 10.1243C24.1234 8.0628 24.3028 4.856 23.899 0.916227ZM24.7066 0C25.1104 3.34423 25.4244 7.78793 23.3158 10.674C21.611 13.0562 18.336 14.2473 12.7281 13.8808C11.5167 15.4842 10.3054 17.1334 9.13898 18.8285C9.00439 19.0117 8.69035 19.0575 8.51089 18.9201C8.33144 18.7368 8.28658 18.462 8.42117 18.2787C9.00439 17.4541 9.58761 16.6295 10.1708 15.8049C9.67734 15.0719 9.13898 14.3848 8.60062 13.6518C4.6975 13.8808 2.40947 13.0562 1.15329 11.3612C-0.327198 9.25389 -0.0580179 6.13872 0.211162 3.71072C2.94783 3.75653 6.31258 4.12302 8.24171 6.36778C9.81193 8.20023 9.7222 10.7199 9.18384 12.9188C9.7222 13.6518 10.2157 14.339 10.7541 15.0719C11.2027 14.3848 11.6962 13.7434 12.1897 13.102C11.8756 11.8193 11.6962 10.5824 11.6513 9.52876C11.6065 7.05495 12.2794 5.17668 13.4907 3.75653C16.1377 0.641359 20.9381 0.0916227 24.7066 0Z" fill="#04AA7F"/>
<path d="M3.71051 8.0628C3.53105 7.87955 3.53105 7.60469 3.66564 7.42144C3.8451 7.23819 4.15914 7.19238 4.3386 7.37563C5.81909 8.84159 7.16499 10.3992 8.46603 12.0026C8.82494 10.2617 8.73521 8.38348 7.56876 6.96333C6.04341 5.17668 3.17215 4.71857 1.0187 4.62695C0.749523 7.28401 0.884114 9.39133 1.87111 10.8115C2.8581 12.14 4.74237 12.873 7.92767 12.7814C6.58177 11.0863 5.23586 9.52876 3.71051 8.0628Z" fill="#04AA7F"/>
<path d="M23.899 0.916227C20.6689 1.05366 16.4069 1.69502 14.1637 4.35208C13.087 5.58898 12.5037 7.28401 12.5486 9.48295C12.5935 10.3076 12.6832 11.2238 12.9075 12.1858C14.7918 9.80363 16.8106 7.46725 19.0987 5.22249C19.2781 5.08506 19.5473 5.08506 19.7267 5.26831C19.9062 5.45155 19.9062 5.72642 19.7267 5.90966C17.349 8.15442 15.3301 10.5366 13.401 13.0104C18.2911 13.2395 21.1175 12.1858 22.598 10.1243C24.1234 8.0628 24.3028 4.856 23.899 0.916227Z" fill="#04AA7F"/>
</g>
<defs>
<filter id="filter0_i" x="0" y="0" width="25" height="23" filterUnits="userSpaceOnUse" color-interpolation-filters="sRGB">
<feFlood flood-opacity="0" result="BackgroundImageFix"/>
<feBlend mode="normal" in="SourceGraphic" in2="BackgroundImageFix" result="shape"/>
<feColorMatrix in="SourceAlpha" type="matrix" values="0 0 0 0 0 0 0 0 0 0 0 0 0 0 0 0 0 0 127 0" result="hardAlpha"/>
<feOffset dy="4"/>
<feGaussianBlur stdDeviation="2"/>
<feComposite in2="hardAlpha" operator="arithmetic" k2="-1" k3="1"/>
<feColorMatrix type="matrix" values="0 0 0 0 0 0 0 0 0 0 0 0 0 0 0 0 0 0 0.25 0"/>
<feBlend mode="normal" in2="shape" result="effect1_innerShadow"/>
</filter>
</defs>
</svg>
