<svg width="372" height="199" viewBox="0 0 372 199" fill="none" xmlns="http://www.w3.org/2000/svg">
<g clip-path="url(#clip0)">
<rect x="17" y="88" width="34" height="76" rx="4" fill="#EAEAEA"/>
<path d="M32.9375 177.714H29.8564V180.233H33.4355V181H28.9189V173.891H33.3867V174.662H29.8564V176.947H32.9375V177.714ZM40.0664 181H39.124L35.5449 175.521V181H34.6025V173.891H35.5449L39.1338 179.394V173.891H40.0664V181Z" fill="white"/>
<path d="M29.6367 101H28.7285V94.9795L26.9072 95.6484V94.8281L29.4951 93.8564H29.6367V101ZM32.6982 97.4355L33.0596 93.8906H36.7021V94.7256H33.8262L33.6113 96.6641C33.9596 96.459 34.3551 96.3564 34.7979 96.3564C35.4456 96.3564 35.96 96.5713 36.3408 97.001C36.7217 97.4274 36.9121 98.0052 36.9121 98.7344C36.9121 99.4668 36.7135 100.045 36.3164 100.468C35.9225 100.888 35.3708 101.098 34.6611 101.098C34.0329 101.098 33.5202 100.924 33.123 100.575C32.7259 100.227 32.4997 99.7451 32.4443 99.1299H33.2988C33.3542 99.5368 33.499 99.8444 33.7334 100.053C33.9678 100.258 34.277 100.36 34.6611 100.36C35.0811 100.36 35.4098 100.217 35.6475 99.9307C35.8883 99.6442 36.0088 99.2487 36.0088 98.7441C36.0088 98.2689 35.8786 97.888 35.6182 97.6016C35.361 97.3118 35.0176 97.167 34.5879 97.167C34.194 97.167 33.8848 97.2533 33.6602 97.4258L33.4209 97.6211L32.6982 97.4355ZM41.4531 98.3584H39.5781C39.5911 98.9932 39.7441 99.4814 40.0371 99.8232C40.3301 100.165 40.7451 100.336 41.2822 100.336C41.6598 100.336 42.0146 100.281 42.3467 100.17L42.4443 100.951C42.0537 101.049 41.6631 101.098 41.2725 101.098C40.4652 101.098 39.8288 100.86 39.3633 100.385C38.901 99.9062 38.6602 99.2308 38.6406 98.3584H37.7715V97.7529H38.6406V97.084H37.7715V96.4736H38.6406C38.6732 95.6208 38.9206 94.9616 39.3828 94.4961C39.8483 94.0273 40.4766 93.793 41.2676 93.793C41.6126 93.793 42.0049 93.8434 42.4443 93.9443L42.3467 94.7354C41.9919 94.6214 41.6354 94.5645 41.2773 94.5645C40.7435 94.5645 40.3317 94.7305 40.042 95.0625C39.7555 95.3913 39.6025 95.8617 39.583 96.4736H41.4531V97.084H39.5781V97.7529H41.4531V98.3584Z" fill="black"/>
<rect x="63" y="55" width="34" height="109" rx="4" fill="#EAEAEA"/>
<path d="M76.0254 177.86H73.042V181H72.1045V173.891H76.5088V174.662H73.042V177.094H76.0254V177.86ZM81.6504 177.714H78.5693V180.233H82.1484V181H77.6318V173.891H82.0996V174.662H78.5693V176.947H81.6504V177.714ZM83.3154 181V173.891H85.6396C86.4111 173.891 86.9906 174.05 87.3779 174.369C87.7686 174.688 87.9639 175.16 87.9639 175.785C87.9639 176.117 87.8695 176.412 87.6807 176.669C87.4919 176.923 87.2347 177.12 86.9092 177.26C87.2933 177.367 87.596 177.572 87.8174 177.875C88.042 178.174 88.1543 178.533 88.1543 178.949C88.1543 179.587 87.9476 180.089 87.5342 180.453C87.1208 180.818 86.5365 181 85.7812 181H83.3154ZM84.2529 177.675V180.233H85.8008C86.237 180.233 86.5804 180.121 86.8311 179.896C87.085 179.669 87.2119 179.356 87.2119 178.959C87.2119 178.103 86.7464 177.675 85.8154 177.675H84.2529ZM84.2529 176.923H85.6689C86.0791 176.923 86.4062 176.82 86.6504 176.615C86.8978 176.41 87.0215 176.132 87.0215 175.78C87.0215 175.39 86.9076 175.106 86.6797 174.931C86.4518 174.752 86.1051 174.662 85.6396 174.662H84.2529V176.923Z" fill="white"/>
<path d="M77.3262 67H72.668V66.3506L75.1289 63.6162C75.4935 63.2028 75.7441 62.8675 75.8809 62.6104C76.0208 62.3499 76.0908 62.0814 76.0908 61.8047C76.0908 61.4336 75.9785 61.1292 75.7539 60.8916C75.5293 60.654 75.2298 60.5352 74.8555 60.5352C74.4062 60.5352 74.0563 60.6637 73.8057 60.9209C73.5583 61.1748 73.4346 61.5296 73.4346 61.9854H72.5312C72.5312 61.3311 72.7412 60.8021 73.1611 60.3984C73.5843 59.9948 74.1491 59.793 74.8555 59.793C75.5163 59.793 76.0387 59.9671 76.4229 60.3154C76.807 60.6605 76.999 61.1211 76.999 61.6973C76.999 62.3971 76.5531 63.2305 75.6611 64.1973L73.7568 66.2627H77.3262V67ZM82.7412 63.9678C82.7412 65.0257 82.5605 65.8118 82.1992 66.3262C81.8379 66.8405 81.2731 67.0977 80.5049 67.0977C79.7464 67.0977 79.1849 66.847 78.8203 66.3457C78.4557 65.8411 78.2669 65.0892 78.2539 64.0898V62.8838C78.2539 61.8389 78.4346 61.0625 78.7959 60.5547C79.1572 60.0469 79.7236 59.793 80.4951 59.793C81.2601 59.793 81.8232 60.0387 82.1846 60.5303C82.5459 61.0186 82.7314 61.7738 82.7412 62.7959V63.9678ZM81.8379 62.7324C81.8379 61.9674 81.7305 61.4108 81.5156 61.0625C81.3008 60.7109 80.9606 60.5352 80.4951 60.5352C80.0329 60.5352 79.696 60.7093 79.4844 61.0576C79.2728 61.4059 79.1637 61.9414 79.1572 62.6641V64.1094C79.1572 64.8776 79.2679 65.4456 79.4893 65.8135C79.7139 66.1781 80.0524 66.3604 80.5049 66.3604C80.9508 66.3604 81.2812 66.1878 81.4961 65.8428C81.7142 65.4977 81.8281 64.9541 81.8379 64.2119V62.7324ZM87.4531 64.3584H85.5781C85.5911 64.9932 85.7441 65.4814 86.0371 65.8232C86.3301 66.165 86.7451 66.3359 87.2822 66.3359C87.6598 66.3359 88.0146 66.2806 88.3467 66.1699L88.4443 66.9512C88.0537 67.0488 87.6631 67.0977 87.2725 67.0977C86.4652 67.0977 85.8288 66.86 85.3633 66.3848C84.901 65.9062 84.6602 65.2308 84.6406 64.3584H83.7715V63.7529H84.6406V63.084H83.7715V62.4736H84.6406C84.6732 61.6208 84.9206 60.9616 85.3828 60.4961C85.8483 60.0273 86.4766 59.793 87.2676 59.793C87.6126 59.793 88.0049 59.8434 88.4443 59.9443L88.3467 60.7354C87.9919 60.6214 87.6354 60.5645 87.2773 60.5645C86.7435 60.5645 86.3317 60.7305 86.042 61.0625C85.7555 61.3913 85.6025 61.8617 85.583 62.4736H87.4531V63.084H85.5781V63.7529H87.4531V64.3584Z" fill="#33404F"/>
<rect x="109" y="117" width="34" height="47" rx="4" fill="#00DDA3"/>
<path d="M117.284 173.891L119.608 179.691L121.933 173.891H123.148V181H122.211V178.231L122.299 175.243L119.965 181H119.247L116.918 175.258L117.011 178.231V181H116.073V173.891H117.284ZM128.817 179.145H125.839L125.17 181H124.203L126.918 173.891H127.738L130.458 181H129.496L128.817 179.145ZM126.122 178.373H128.539L127.328 175.048L126.122 178.373ZM134.022 178.124H132.353V181H131.41V173.891H133.764C134.564 173.891 135.18 174.073 135.609 174.438C136.042 174.802 136.259 175.333 136.259 176.029C136.259 176.472 136.138 176.858 135.897 177.187C135.66 177.515 135.328 177.761 134.901 177.924L136.571 180.941V181H135.565L134.022 178.124ZM132.353 177.357H133.793C134.258 177.357 134.628 177.237 134.901 176.996C135.178 176.755 135.316 176.433 135.316 176.029C135.316 175.59 135.185 175.253 134.921 175.019C134.66 174.784 134.283 174.665 133.788 174.662H132.353V177.357Z" fill="#00DDA3"/>
<path d="M121.637 129H120.729V122.979L118.907 123.648V122.828L121.495 121.856H121.637V129ZM128.741 125.968C128.741 127.026 128.561 127.812 128.199 128.326C127.838 128.84 127.273 129.098 126.505 129.098C125.746 129.098 125.185 128.847 124.82 128.346C124.456 127.841 124.267 127.089 124.254 126.09V124.884C124.254 123.839 124.435 123.062 124.796 122.555C125.157 122.047 125.724 121.793 126.495 121.793C127.26 121.793 127.823 122.039 128.185 122.53C128.546 123.019 128.731 123.774 128.741 124.796V125.968ZM127.838 124.732C127.838 123.967 127.73 123.411 127.516 123.062C127.301 122.711 126.961 122.535 126.495 122.535C126.033 122.535 125.696 122.709 125.484 123.058C125.273 123.406 125.164 123.941 125.157 124.664V126.109C125.157 126.878 125.268 127.446 125.489 127.813C125.714 128.178 126.052 128.36 126.505 128.36C126.951 128.36 127.281 128.188 127.496 127.843C127.714 127.498 127.828 126.954 127.838 126.212V124.732ZM133.453 126.358H131.578C131.591 126.993 131.744 127.481 132.037 127.823C132.33 128.165 132.745 128.336 133.282 128.336C133.66 128.336 134.015 128.281 134.347 128.17L134.444 128.951C134.054 129.049 133.663 129.098 133.272 129.098C132.465 129.098 131.829 128.86 131.363 128.385C130.901 127.906 130.66 127.231 130.641 126.358H129.771V125.753H130.641V125.084H129.771V124.474H130.641C130.673 123.621 130.921 122.962 131.383 122.496C131.848 122.027 132.477 121.793 133.268 121.793C133.613 121.793 134.005 121.843 134.444 121.944L134.347 122.735C133.992 122.621 133.635 122.564 133.277 122.564C132.743 122.564 132.332 122.73 132.042 123.062C131.756 123.391 131.603 123.862 131.583 124.474H133.453V125.084H131.578V125.753H133.453V126.358Z" fill="black"/>
<rect x="155" y="158" width="34" height="6" rx="3" fill="#EAEAEA"/>
<path d="M167.793 179.145H164.814L164.146 181H163.179L165.894 173.891H166.714L169.434 181H168.472L167.793 179.145ZM165.098 178.373H167.515L166.304 175.048L165.098 178.373ZM170.391 181V173.891H172.715C173.486 173.891 174.066 174.05 174.453 174.369C174.844 174.688 175.039 175.16 175.039 175.785C175.039 176.117 174.945 176.412 174.756 176.669C174.567 176.923 174.31 177.12 173.984 177.26C174.368 177.367 174.671 177.572 174.893 177.875C175.117 178.174 175.229 178.533 175.229 178.949C175.229 179.587 175.023 180.089 174.609 180.453C174.196 180.818 173.612 181 172.856 181H170.391ZM171.328 177.675V180.233H172.876C173.312 180.233 173.656 180.121 173.906 179.896C174.16 179.669 174.287 179.356 174.287 178.959C174.287 178.103 173.822 177.675 172.891 177.675H171.328ZM171.328 176.923H172.744C173.154 176.923 173.481 176.82 173.726 176.615C173.973 176.41 174.097 176.132 174.097 175.78C174.097 175.39 173.983 175.106 173.755 174.931C173.527 174.752 173.18 174.662 172.715 174.662H171.328V176.923ZM179.229 178.124H177.559V181H176.616V173.891H178.97C179.771 173.891 180.386 174.073 180.815 174.438C181.248 174.802 181.465 175.333 181.465 176.029C181.465 176.472 181.344 176.858 181.104 177.187C180.866 177.515 180.534 177.761 180.107 177.924L181.777 180.941V181H180.771L179.229 178.124ZM177.559 177.357H178.999C179.465 177.357 179.834 177.237 180.107 176.996C180.384 176.755 180.522 176.433 180.522 176.029C180.522 175.59 180.391 175.253 180.127 175.019C179.867 174.784 179.489 174.665 178.994 174.662H177.559V177.357Z" fill="white"/>
<rect x="201" y="158" width="34" height="6" rx="3" fill="#EAEAEA"/>
<path d="M210.092 173.891L212.416 179.691L214.74 173.891H215.956V181H215.019V178.231L215.106 175.243L212.772 181H212.055L209.726 175.258L209.818 178.231V181H208.881V173.891H210.092ZM221.625 179.145H218.646L217.978 181H217.011L219.726 173.891H220.546L223.266 181H222.304L221.625 179.145ZM218.93 178.373H221.347L220.136 175.048L218.93 178.373ZM225.932 177.46L227.787 173.891H228.852L226.4 178.349V181H225.463V178.349L223.012 173.891H224.086L225.932 177.46Z" fill="white"/>
<rect x="247" y="158" width="34" height="6" rx="3" fill="#EAEAEA"/>
<path d="M258.238 173.891H259.181V178.925C259.181 179.605 258.976 180.137 258.565 180.521C258.159 180.906 257.615 181.098 256.935 181.098C256.228 181.098 255.678 180.917 255.284 180.556C254.89 180.194 254.693 179.688 254.693 179.037H255.631C255.631 179.444 255.742 179.761 255.963 179.989C256.188 180.217 256.511 180.331 256.935 180.331C257.322 180.331 257.634 180.209 257.872 179.965C258.113 179.721 258.235 179.379 258.238 178.939V173.891ZM265.782 173.891V178.725C265.779 179.395 265.567 179.944 265.147 180.37C264.731 180.797 264.164 181.036 263.448 181.088L263.199 181.098C262.421 181.098 261.801 180.888 261.339 180.468C260.877 180.048 260.642 179.47 260.636 178.734V173.891H261.563V178.705C261.563 179.219 261.705 179.62 261.988 179.906C262.271 180.189 262.675 180.331 263.199 180.331C263.73 180.331 264.135 180.189 264.415 179.906C264.698 179.623 264.84 179.224 264.84 178.71V173.891H265.782ZM272.726 181H271.783L268.204 175.521V181H267.262V173.891H268.204L271.793 179.394V173.891H272.726V181Z" fill="white"/>
<rect x="293" y="158" width="34" height="6" rx="3" fill="#EAEAEA"/>
<path d="M305.112 173.891H306.055V178.925C306.055 179.605 305.85 180.137 305.439 180.521C305.033 180.906 304.489 181.098 303.809 181.098C303.102 181.098 302.552 180.917 302.158 180.556C301.764 180.194 301.567 179.688 301.567 179.037H302.505C302.505 179.444 302.616 179.761 302.837 179.989C303.062 180.217 303.385 180.331 303.809 180.331C304.196 180.331 304.508 180.209 304.746 179.965C304.987 179.721 305.109 179.379 305.112 178.939V173.891ZM312.656 173.891V178.725C312.653 179.395 312.441 179.944 312.021 180.37C311.605 180.797 311.038 181.036 310.322 181.088L310.073 181.098C309.295 181.098 308.675 180.888 308.213 180.468C307.751 180.048 307.516 179.47 307.51 178.734V173.891H308.438V178.705C308.438 179.219 308.579 179.62 308.862 179.906C309.146 180.189 309.549 180.331 310.073 180.331C310.604 180.331 311.009 180.189 311.289 179.906C311.572 179.623 311.714 179.224 311.714 178.71V173.891H312.656ZM315.078 180.233H318.447V181H314.136V173.891H315.078V180.233Z" fill="white"/>
<rect x="339" y="158" width="34" height="6" rx="3" fill="#EAEAEA"/>
<path d="M351.173 179.145H348.194L347.525 181H346.559L349.273 173.891H350.094L352.813 181H351.852L351.173 179.145ZM348.478 178.373H350.895L349.684 175.048L348.478 178.373ZM358.961 180.067C358.72 180.412 358.383 180.671 357.95 180.844C357.521 181.013 357.019 181.098 356.446 181.098C355.867 181.098 355.353 180.963 354.903 180.692C354.454 180.419 354.106 180.032 353.858 179.53C353.614 179.029 353.489 178.448 353.482 177.787V177.167C353.482 176.096 353.731 175.266 354.229 174.677C354.731 174.088 355.434 173.793 356.339 173.793C357.081 173.793 357.678 173.983 358.131 174.364C358.583 174.742 358.86 175.279 358.961 175.976H358.023C357.848 175.035 357.288 174.564 356.344 174.564C355.715 174.564 355.239 174.786 354.913 175.229C354.591 175.668 354.428 176.306 354.425 177.143V177.724C354.425 178.521 354.607 179.156 354.972 179.628C355.336 180.097 355.829 180.331 356.451 180.331C356.803 180.331 357.11 180.292 357.374 180.214C357.638 180.136 357.856 180.004 358.028 179.818V178.222H356.383V177.46H358.961V180.067ZM365.997 177.675C365.997 178.371 365.88 178.98 365.646 179.501C365.411 180.019 365.079 180.414 364.649 180.688C364.22 180.961 363.718 181.098 363.146 181.098C362.586 181.098 362.089 180.961 361.656 180.688C361.223 180.411 360.886 180.019 360.646 179.511C360.408 179 360.286 178.409 360.279 177.738V177.226C360.279 176.542 360.398 175.938 360.636 175.414C360.873 174.89 361.209 174.49 361.642 174.213C362.078 173.933 362.576 173.793 363.136 173.793C363.705 173.793 364.207 173.931 364.64 174.208C365.076 174.481 365.411 174.88 365.646 175.404C365.88 175.925 365.997 176.532 365.997 177.226V177.675ZM365.064 177.216C365.064 176.373 364.895 175.727 364.557 175.277C364.218 174.825 363.744 174.599 363.136 174.599C362.543 174.599 362.076 174.825 361.734 175.277C361.396 175.727 361.222 176.352 361.212 177.152V177.675C361.212 178.492 361.383 179.135 361.725 179.604C362.07 180.069 362.543 180.302 363.146 180.302C363.751 180.302 364.22 180.082 364.552 179.643C364.884 179.2 365.055 178.567 365.064 177.743V177.216Z" fill="white"/>
<path d="M4.61426 12.1587C4.60449 12.7642 4.53369 13.2451 4.40186 13.6016C4.2749 13.9531 4.0332 14.3218 3.67676 14.7075L2.92236 15.4839C2.48291 15.9575 2.26318 16.4531 2.26318 16.9707C2.26318 17.4297 2.38281 17.7715 2.62207 17.9961C2.86133 18.2256 3.19824 18.3403 3.63281 18.3403C4.0625 18.3403 4.40674 18.2183 4.66553 17.9741C4.92432 17.73 5.05371 17.4053 5.05371 17H6.8335C6.82373 17.8643 6.52588 18.5503 5.93994 19.0581C5.35889 19.5659 4.59473 19.8198 3.64746 19.8198C2.6416 19.8198 1.86279 19.5732 1.31104 19.0801C0.759277 18.5918 0.483398 17.8984 0.483398 17C0.483398 16.1943 0.861816 15.3936 1.61865 14.5977L2.29248 13.9165C2.67334 13.5649 2.88818 13.1084 2.93701 12.5469L2.95166 12.1587H4.61426ZM4.76074 9.88086C4.76074 10.1543 4.67285 10.3838 4.49707 10.5693C4.32617 10.75 4.07959 10.8403 3.75732 10.8403C3.43506 10.8403 3.18604 10.75 3.01025 10.5693C2.83447 10.3838 2.74658 10.1543 2.74658 9.88086C2.74658 9.6123 2.83447 9.3877 3.01025 9.20703C3.18604 9.02148 3.43506 8.92871 3.75732 8.92871C4.07959 8.92871 4.32617 9.02148 4.49707 9.20703C4.67285 9.3877 4.76074 9.6123 4.76074 9.88086ZM16.5161 13.5283C16.4087 14.666 15.9888 15.5547 15.2563 16.1943C14.5239 16.8291 13.5498 17.1465 12.334 17.1465C11.4844 17.1465 10.7349 16.9463 10.0854 16.5459C9.44092 16.1406 8.94287 15.5669 8.59131 14.8247C8.23975 14.0825 8.05664 13.2207 8.04199 12.2393V11.2432C8.04199 10.2373 8.22021 9.35107 8.57666 8.58447C8.93311 7.81787 9.44336 7.22705 10.1074 6.81201C10.7764 6.39697 11.5479 6.18945 12.4219 6.18945C13.5986 6.18945 14.5459 6.50928 15.2637 7.14893C15.9814 7.78857 16.3989 8.69189 16.5161 9.85889H14.6704C14.5825 9.09229 14.3579 8.54053 13.9966 8.20361C13.6401 7.86182 13.1152 7.69092 12.4219 7.69092C11.6162 7.69092 10.9961 7.98633 10.5615 8.57715C10.1318 9.16309 9.91211 10.0249 9.90234 11.1626V12.1074C9.90234 13.2598 10.1074 14.1387 10.5176 14.7441C10.9326 15.3496 11.5381 15.6523 12.334 15.6523C13.0615 15.6523 13.6084 15.4888 13.9746 15.1616C14.3408 14.8345 14.5728 14.29 14.6704 13.5283H16.5161ZM22.8076 16.2236C22.2852 16.8389 21.543 17.1465 20.5811 17.1465C19.7217 17.1465 19.0698 16.895 18.6255 16.3921C18.186 15.8892 17.9663 15.1616 17.9663 14.2095V9.0752H19.7461V14.1875C19.7461 15.1934 20.1636 15.6963 20.9985 15.6963C21.8628 15.6963 22.4463 15.3862 22.749 14.7661V9.0752H24.5288V17H22.8516L22.8076 16.2236ZM21.7896 5.75H23.8184L21.7896 7.96924H20.3613L21.7896 5.75ZM31.0767 17C30.9985 16.8486 30.9302 16.6021 30.8716 16.2603C30.3052 16.8511 29.6118 17.1465 28.7915 17.1465C27.9956 17.1465 27.3462 16.9194 26.8433 16.4653C26.3403 16.0112 26.0889 15.4497 26.0889 14.7808C26.0889 13.936 26.4014 13.2891 27.0264 12.8398C27.6562 12.3857 28.5547 12.1587 29.7217 12.1587H30.813V11.6387C30.813 11.2285 30.6982 10.9014 30.4688 10.6572C30.2393 10.4082 29.8901 10.2837 29.4214 10.2837C29.0161 10.2837 28.6841 10.3862 28.4253 10.5913C28.1665 10.7915 28.0371 11.0479 28.0371 11.3604H26.2573C26.2573 10.9258 26.4014 10.5205 26.6895 10.1445C26.9775 9.76367 27.3682 9.46582 27.8613 9.25098C28.3594 9.03613 28.9136 8.92871 29.5239 8.92871C30.4517 8.92871 31.1914 9.16309 31.7432 9.63184C32.2949 10.0957 32.5781 10.75 32.5928 11.5947V15.1689C32.5928 15.8818 32.6929 16.4507 32.8931 16.8755V17H31.0767ZM29.1211 15.7183C29.4727 15.7183 29.8022 15.6328 30.1099 15.4619C30.4224 15.291 30.6567 15.0615 30.813 14.7734V13.2793H29.8535C29.1943 13.2793 28.6987 13.394 28.3667 13.6235C28.0347 13.853 27.8687 14.1777 27.8687 14.5977C27.8687 14.9395 27.981 15.2129 28.2056 15.418C28.4351 15.6182 28.7402 15.7183 29.1211 15.7183ZM36.1084 9.0752L36.1597 9.99072C36.7456 9.28271 37.5146 8.92871 38.4668 8.92871C40.1172 8.92871 40.957 9.87354 40.9863 11.7632V17H39.2065V11.8657C39.2065 11.3628 39.0967 10.9917 38.877 10.7524C38.6621 10.5083 38.3081 10.3862 37.8149 10.3862C37.0972 10.3862 36.5625 10.7109 36.2109 11.3604V17H34.4312V9.0752H36.1084ZM45.0366 7.14893V9.0752H46.4355V10.3936H45.0366V14.8174C45.0366 15.1201 45.0952 15.3398 45.2124 15.4766C45.3345 15.6084 45.5493 15.6743 45.8569 15.6743C46.062 15.6743 46.2695 15.6499 46.4795 15.6011V16.978C46.0742 17.0903 45.6836 17.1465 45.3076 17.1465C43.9404 17.1465 43.2568 16.3921 43.2568 14.8833V10.3936H41.9531V9.0752H43.2568V7.14893H45.0366ZM47.2485 12.9644C47.2485 12.188 47.4023 11.4897 47.71 10.8696C48.0176 10.2446 48.4497 9.76611 49.0063 9.43408C49.563 9.09717 50.2026 8.92871 50.9253 8.92871C51.9946 8.92871 52.8613 9.27295 53.5254 9.96143C54.1943 10.6499 54.5557 11.563 54.6094 12.7007L54.6167 13.1182C54.6167 13.8994 54.4653 14.5977 54.1626 15.2129C53.8647 15.8281 53.4351 16.3042 52.8735 16.6411C52.3169 16.978 51.6724 17.1465 50.9399 17.1465C49.8218 17.1465 48.9258 16.7754 48.252 16.0332C47.583 15.2861 47.2485 14.2925 47.2485 13.0522V12.9644ZM49.0283 13.1182C49.0283 13.9336 49.1968 14.5732 49.5337 15.0371C49.8706 15.4961 50.3394 15.7256 50.9399 15.7256C51.5405 15.7256 52.0068 15.4912 52.3389 15.0225C52.6758 14.5537 52.8442 13.8677 52.8442 12.9644C52.8442 12.1636 52.6709 11.5288 52.3242 11.0601C51.9824 10.5913 51.5161 10.3569 50.9253 10.3569C50.3442 10.3569 49.8828 10.5889 49.541 11.0527C49.1992 11.5117 49.0283 12.2002 49.0283 13.1182ZM59.5239 12.979C59.5239 11.7583 59.8071 10.7793 60.3735 10.042C60.9399 9.2998 61.6992 8.92871 62.6514 8.92871C63.4912 8.92871 64.1699 9.22168 64.6875 9.80762V5.75H66.4673V17H64.856L64.7681 16.1797C64.2358 16.8242 63.5254 17.1465 62.6367 17.1465C61.709 17.1465 60.957 16.7729 60.3809 16.0259C59.8096 15.2788 59.5239 14.2632 59.5239 12.979ZM61.3037 13.1328C61.3037 13.9385 61.4575 14.5684 61.7651 15.0225C62.0776 15.4717 62.5195 15.6963 63.0908 15.6963C63.8184 15.6963 64.3506 15.3716 64.6875 14.7222V11.3384C64.3604 10.7036 63.833 10.3862 63.1055 10.3862C62.5293 10.3862 62.085 10.6157 61.7725 11.0747C61.46 11.5288 61.3037 12.2148 61.3037 13.1328ZM67.9907 12.9644C67.9907 12.188 68.1445 11.4897 68.4521 10.8696C68.7598 10.2446 69.1919 9.76611 69.7485 9.43408C70.3052 9.09717 70.9448 8.92871 71.6675 8.92871C72.7368 8.92871 73.6035 9.27295 74.2676 9.96143C74.9365 10.6499 75.2979 11.563 75.3516 12.7007L75.3589 13.1182C75.3589 13.8994 75.2075 14.5977 74.9048 15.2129C74.6069 15.8281 74.1772 16.3042 73.6157 16.6411C73.0591 16.978 72.4146 17.1465 71.6821 17.1465C70.564 17.1465 69.668 16.7754 68.9941 16.0332C68.3252 15.2861 67.9907 14.2925 67.9907 13.0522V12.9644ZM69.7705 13.1182C69.7705 13.9336 69.939 14.5732 70.2759 15.0371C70.6128 15.4961 71.0815 15.7256 71.6821 15.7256C72.2827 15.7256 72.749 15.4912 73.0811 15.0225C73.418 14.5537 73.5864 13.8677 73.5864 12.9644C73.5864 12.1636 73.4131 11.5288 73.0664 11.0601C72.7246 10.5913 72.2583 10.3569 71.6675 10.3569C71.0864 10.3569 70.625 10.5889 70.2832 11.0527C69.9414 11.5117 69.7705 12.2002 69.7705 13.1182ZM78.5156 9.0752L78.5669 9.99072C79.1528 9.28271 79.9219 8.92871 80.874 8.92871C82.5244 8.92871 83.3643 9.87354 83.3936 11.7632V17H81.6138V11.8657C81.6138 11.3628 81.5039 10.9917 81.2842 10.7524C81.0693 10.5083 80.7153 10.3862 80.2222 10.3862C79.5044 10.3862 78.9697 10.7109 78.6182 11.3604V17H76.8384V9.0752H78.5156ZM89.9487 17C89.8706 16.8486 89.8022 16.6021 89.7437 16.2603C89.1772 16.8511 88.4839 17.1465 87.6636 17.1465C86.8677 17.1465 86.2183 16.9194 85.7153 16.4653C85.2124 16.0112 84.9609 15.4497 84.9609 14.7808C84.9609 13.936 85.2734 13.2891 85.8984 12.8398C86.5283 12.3857 87.4268 12.1587 88.5938 12.1587H89.6851V11.6387C89.6851 11.2285 89.5703 10.9014 89.3408 10.6572C89.1113 10.4082 88.7622 10.2837 88.2935 10.2837C87.8882 10.2837 87.5562 10.3862 87.2974 10.5913C87.0386 10.7915 86.9092 11.0479 86.9092 11.3604H85.1294C85.1294 10.9258 85.2734 10.5205 85.5615 10.1445C85.8496 9.76367 86.2402 9.46582 86.7334 9.25098C87.2314 9.03613 87.7856 8.92871 88.396 8.92871C89.3237 8.92871 90.0635 9.16309 90.6152 9.63184C91.167 10.0957 91.4502 10.75 91.4648 11.5947V15.1689C91.4648 15.8818 91.5649 16.4507 91.7651 16.8755V17H89.9487ZM87.9932 15.7183C88.3447 15.7183 88.6743 15.6328 88.9819 15.4619C89.2944 15.291 89.5288 15.0615 89.6851 14.7734V13.2793H88.7256C88.0664 13.2793 87.5708 13.394 87.2388 13.6235C86.9067 13.853 86.7407 14.1777 86.7407 14.5977C86.7407 14.9395 86.853 15.2129 87.0776 15.418C87.3071 15.6182 87.6123 15.7183 87.9932 15.7183ZM94.9805 9.0752L95.0317 9.99072C95.6177 9.28271 96.3867 8.92871 97.3389 8.92871C98.9893 8.92871 99.8291 9.87354 99.8584 11.7632V17H98.0786V11.8657C98.0786 11.3628 97.9688 10.9917 97.749 10.7524C97.5342 10.5083 97.1802 10.3862 96.687 10.3862C95.9692 10.3862 95.4346 10.7109 95.083 11.3604V17H93.3032V9.0752H94.9805ZM105.081 12.979C105.081 11.7583 105.364 10.7793 105.93 10.042C106.497 9.2998 107.256 8.92871 108.208 8.92871C109.048 8.92871 109.727 9.22168 110.244 9.80762V5.75H112.024V17H110.413L110.325 16.1797C109.792 16.8242 109.082 17.1465 108.193 17.1465C107.266 17.1465 106.514 16.7729 105.938 16.0259C105.366 15.2788 105.081 14.2632 105.081 12.979ZM106.86 13.1328C106.86 13.9385 107.014 14.5684 107.322 15.0225C107.634 15.4717 108.076 15.6963 108.647 15.6963C109.375 15.6963 109.907 15.3716 110.244 14.7222V11.3384C109.917 10.7036 109.39 10.3862 108.662 10.3862C108.086 10.3862 107.642 10.6157 107.329 11.0747C107.017 11.5288 106.86 12.2148 106.86 13.1328ZM117.371 17.1465C116.243 17.1465 115.327 16.7925 114.624 16.0845C113.926 15.3716 113.577 14.4243 113.577 13.2427V13.0229C113.577 12.2319 113.728 11.5264 114.031 10.9062C114.338 10.2812 114.768 9.79541 115.32 9.44873C115.872 9.10205 116.487 8.92871 117.166 8.92871C118.245 8.92871 119.077 9.27295 119.663 9.96143C120.254 10.6499 120.549 11.624 120.549 12.8838V13.6016H115.371C115.425 14.2559 115.642 14.7734 116.023 15.1543C116.409 15.5352 116.892 15.7256 117.473 15.7256C118.289 15.7256 118.953 15.396 119.465 14.7368L120.425 15.6523C120.107 16.126 119.683 16.4946 119.15 16.7583C118.623 17.0171 118.03 17.1465 117.371 17.1465ZM117.158 10.3569C116.67 10.3569 116.274 10.5278 115.972 10.8696C115.674 11.2114 115.483 11.6875 115.4 12.2979H118.792V12.166C118.752 11.5703 118.594 11.1211 118.315 10.8184C118.037 10.5107 117.651 10.3569 117.158 10.3569ZM127.346 9.0752L127.397 9.90283C127.954 9.25342 128.716 8.92871 129.683 8.92871C130.742 8.92871 131.467 9.33398 131.858 10.1445C132.434 9.33398 133.245 8.92871 134.29 8.92871C135.164 8.92871 135.813 9.17041 136.238 9.65381C136.667 10.1372 136.887 10.8501 136.897 11.7925V17H135.117V11.8438C135.117 11.3408 135.007 10.9722 134.788 10.7378C134.568 10.5034 134.204 10.3862 133.696 10.3862C133.291 10.3862 132.959 10.4961 132.7 10.7158C132.446 10.9307 132.268 11.2139 132.166 11.5654L132.173 17H130.393V11.7852C130.369 10.8525 129.893 10.3862 128.965 10.3862C128.252 10.3862 127.747 10.6768 127.449 11.2578V17H125.669V9.0752H127.346ZM142.214 17.1465C141.086 17.1465 140.171 16.7925 139.468 16.0845C138.77 15.3716 138.42 14.4243 138.42 13.2427V13.0229C138.42 12.2319 138.572 11.5264 138.875 10.9062C139.182 10.2812 139.612 9.79541 140.164 9.44873C140.715 9.10205 141.331 8.92871 142.009 8.92871C143.088 8.92871 143.921 9.27295 144.507 9.96143C145.098 10.6499 145.393 11.624 145.393 12.8838V13.6016H140.215C140.269 14.2559 140.486 14.7734 140.867 15.1543C141.252 15.5352 141.736 15.7256 142.317 15.7256C143.132 15.7256 143.796 15.396 144.309 14.7368L145.269 15.6523C144.951 16.126 144.526 16.4946 143.994 16.7583C143.467 17.0171 142.874 17.1465 142.214 17.1465ZM142.002 10.3569C141.514 10.3569 141.118 10.5278 140.815 10.8696C140.518 11.2114 140.327 11.6875 140.244 12.2979H143.635V12.166C143.596 11.5703 143.438 11.1211 143.159 10.8184C142.881 10.5107 142.495 10.3569 142.002 10.3569ZM146.448 12.979C146.448 11.7583 146.731 10.7793 147.297 10.042C147.864 9.2998 148.623 8.92871 149.575 8.92871C150.415 8.92871 151.094 9.22168 151.611 9.80762V5.75H153.391V17H151.78L151.692 16.1797C151.16 16.8242 150.449 17.1465 149.561 17.1465C148.633 17.1465 147.881 16.7729 147.305 16.0259C146.733 15.2788 146.448 14.2632 146.448 12.979ZM148.228 13.1328C148.228 13.9385 148.381 14.5684 148.689 15.0225C149.001 15.4717 149.443 15.6963 150.015 15.6963C150.742 15.6963 151.274 15.3716 151.611 14.7222V11.3384C151.284 10.7036 150.757 10.3862 150.029 10.3862C149.453 10.3862 149.009 10.6157 148.696 11.0747C148.384 11.5288 148.228 12.2148 148.228 13.1328ZM157.141 17H155.361V9.0752H157.141V17ZM155.251 7.01709C155.251 6.74365 155.337 6.5166 155.508 6.33594C155.684 6.15527 155.933 6.06494 156.255 6.06494C156.577 6.06494 156.826 6.15527 157.002 6.33594C157.178 6.5166 157.266 6.74365 157.266 7.01709C157.266 7.28564 157.178 7.51025 157.002 7.69092C156.826 7.8667 156.577 7.95459 156.255 7.95459C155.933 7.95459 155.684 7.8667 155.508 7.69092C155.337 7.51025 155.251 7.28564 155.251 7.01709ZM163.821 17C163.743 16.8486 163.674 16.6021 163.616 16.2603C163.049 16.8511 162.356 17.1465 161.536 17.1465C160.74 17.1465 160.09 16.9194 159.587 16.4653C159.084 16.0112 158.833 15.4497 158.833 14.7808C158.833 13.936 159.146 13.2891 159.771 12.8398C160.4 12.3857 161.299 12.1587 162.466 12.1587H163.557V11.6387C163.557 11.2285 163.442 10.9014 163.213 10.6572C162.983 10.4082 162.634 10.2837 162.166 10.2837C161.76 10.2837 161.428 10.3862 161.169 10.5913C160.911 10.7915 160.781 11.0479 160.781 11.3604H159.001C159.001 10.9258 159.146 10.5205 159.434 10.1445C159.722 9.76367 160.112 9.46582 160.605 9.25098C161.104 9.03613 161.658 8.92871 162.268 8.92871C163.196 8.92871 163.936 9.16309 164.487 9.63184C165.039 10.0957 165.322 10.75 165.337 11.5947V15.1689C165.337 15.8818 165.437 16.4507 165.637 16.8755V17H163.821ZM161.865 15.7183C162.217 15.7183 162.546 15.6328 162.854 15.4619C163.167 15.291 163.401 15.0615 163.557 14.7734V13.2793H162.598C161.938 13.2793 161.443 13.394 161.111 13.6235C160.779 13.853 160.613 14.1777 160.613 14.5977C160.613 14.9395 160.725 15.2129 160.95 15.418C161.179 15.6182 161.484 15.7183 161.865 15.7183ZM168.853 13.8652C168.853 13.2158 168.933 12.6982 169.094 12.3125C169.255 11.9268 169.573 11.5044 170.046 11.0454C170.525 10.5815 170.828 10.252 170.955 10.0566C171.15 9.75879 171.248 9.43652 171.248 9.08984C171.248 8.63086 171.133 8.28174 170.903 8.04248C170.679 7.79834 170.347 7.67627 169.907 7.67627C169.487 7.67627 169.148 7.7959 168.889 8.03516C168.635 8.26953 168.508 8.58936 168.508 8.99463H166.729C166.738 8.13037 167.031 7.44678 167.607 6.94385C168.188 6.44092 168.955 6.18945 169.907 6.18945C170.889 6.18945 171.653 6.43848 172.2 6.93652C172.751 7.43457 173.027 8.13037 173.027 9.02393C173.027 9.81982 172.656 10.6035 171.914 11.375L171.013 12.2612C170.691 12.6274 170.525 13.1621 170.515 13.8652H168.853ZM168.728 16.1431C168.728 15.855 168.818 15.623 168.999 15.4473C169.18 15.2666 169.424 15.1763 169.731 15.1763C170.044 15.1763 170.291 15.269 170.471 15.4546C170.652 15.6353 170.742 15.8647 170.742 16.1431C170.742 16.4116 170.654 16.6362 170.479 16.8169C170.303 16.9976 170.054 17.0879 169.731 17.0879C169.409 17.0879 169.16 16.9976 168.984 16.8169C168.813 16.6362 168.728 16.4116 168.728 16.1431Z" fill="white"/>
</g>
<defs>
<clipPath id="clip0">
<rect width="372" height="199" fill="white"/>
</clipPath>
</defs>
</svg>
