<svg width="372" height="220" viewBox="0 0 372 220" fill="none" xmlns="http://www.w3.org/2000/svg">
<g clip-path="url(#clip0)">
<rect x="16" y="108" width="34" height="76" rx="4" fill="#EAEAEA"/>
<path d="M31.9375 197.714H28.8564V200.233H32.4355V201H27.9189V193.891H32.3867V194.662H28.8564V196.947H31.9375V197.714ZM39.0664 201H38.124L34.5449 195.521V201H33.6025V193.891H34.5449L38.1338 199.394V193.891H39.0664V201Z" fill="white"/>
<path d="M30.6172 121H29.709V114.979L27.8877 115.648V114.828L30.4756 113.856H30.6172V121ZM35.3047 117.694L34.4355 118.598V121H33.498V113.891H34.4355V117.406L37.5947 113.891H38.7275L35.9297 117.03L38.9473 121H37.8242L35.3047 117.694Z" fill="black"/>
<rect x="62" y="51" width="34" height="133" rx="4" fill="#EAEAEA"/>
<path d="M75.0254 197.86H72.042V201H71.1045V193.891H75.5088V194.662H72.042V197.094H75.0254V197.86ZM80.6504 197.714H77.5693V200.233H81.1484V201H76.6318V193.891H81.0996V194.662H77.5693V196.947H80.6504V197.714ZM82.3154 201V193.891H84.6396C85.4111 193.891 85.9906 194.05 86.3779 194.369C86.7686 194.688 86.9639 195.16 86.9639 195.785C86.9639 196.117 86.8695 196.412 86.6807 196.669C86.4919 196.923 86.2347 197.12 85.9092 197.26C86.2933 197.367 86.596 197.572 86.8174 197.875C87.042 198.174 87.1543 198.533 87.1543 198.949C87.1543 199.587 86.9476 200.089 86.5342 200.453C86.1208 200.818 85.5365 201 84.7812 201H82.3154ZM83.2529 197.675V200.233H84.8008C85.237 200.233 85.5804 200.121 85.8311 199.896C86.085 199.669 86.2119 199.356 86.2119 198.959C86.2119 198.103 85.7464 197.675 84.8154 197.675H83.2529ZM83.2529 196.923H84.6689C85.0791 196.923 85.4062 196.82 85.6504 196.615C85.8978 196.41 86.0215 196.132 86.0215 195.78C86.0215 195.39 85.9076 195.106 85.6797 194.931C85.4518 194.752 85.1051 194.662 84.6396 194.662H83.2529V196.923Z" fill="white"/>
<path d="M78.3066 65H73.6484V64.3506L76.1094 61.6162C76.474 61.2028 76.7246 60.8675 76.8613 60.6104C77.0013 60.3499 77.0713 60.0814 77.0713 59.8047C77.0713 59.4336 76.959 59.1292 76.7344 58.8916C76.5098 58.654 76.2103 58.5352 75.8359 58.5352C75.3867 58.5352 75.0368 58.6637 74.7861 58.9209C74.5387 59.1748 74.415 59.5296 74.415 59.9854H73.5117C73.5117 59.3311 73.7217 58.8021 74.1416 58.3984C74.5648 57.9948 75.1296 57.793 75.8359 57.793C76.4967 57.793 77.0192 57.9671 77.4033 58.3154C77.7874 58.6605 77.9795 59.1211 77.9795 59.6973C77.9795 60.3971 77.5335 61.2305 76.6416 62.1973L74.7373 64.2627H78.3066V65ZM81.3047 61.6943L80.4355 62.5977V65H79.498V57.8906H80.4355V61.4062L83.5947 57.8906H84.7275L81.9297 61.0303L84.9473 65H83.8242L81.3047 61.6943Z" fill="#33404F"/>
<rect x="108" y="51" width="34" height="133" rx="4" fill="#00DDA3"/>
<path d="M116.284 193.891L118.608 199.691L120.933 193.891H122.148V201H121.211V198.231L121.299 195.243L118.965 201H118.247L115.918 195.258L116.011 198.231V201H115.073V193.891H116.284ZM127.817 199.145H124.839L124.17 201H123.203L125.918 193.891H126.738L129.458 201H128.496L127.817 199.145ZM125.122 198.373H127.539L126.328 195.048L125.122 198.373ZM133.022 198.124H131.353V201H130.41V193.891H132.764C133.564 193.891 134.18 194.073 134.609 194.438C135.042 194.802 135.259 195.333 135.259 196.029C135.259 196.472 135.138 196.858 134.897 197.187C134.66 197.515 134.328 197.761 133.901 197.924L135.571 200.941V201H134.565L133.022 198.124ZM131.353 197.357H132.793C133.258 197.357 133.628 197.237 133.901 196.996C134.178 196.755 134.316 196.433 134.316 196.029C134.316 195.59 134.185 195.253 133.921 195.019C133.66 194.784 133.283 194.665 132.788 194.662H131.353V197.357Z" fill="#00DDA3"/>
<path d="M124.307 64H119.648V63.3506L122.109 60.6162C122.474 60.2028 122.725 59.8675 122.861 59.6104C123.001 59.3499 123.071 59.0814 123.071 58.8047C123.071 58.4336 122.959 58.1292 122.734 57.8916C122.51 57.654 122.21 57.5352 121.836 57.5352C121.387 57.5352 121.037 57.6637 120.786 57.9209C120.539 58.1748 120.415 58.5296 120.415 58.9854H119.512C119.512 58.3311 119.722 57.8021 120.142 57.3984C120.565 56.9948 121.13 56.793 121.836 56.793C122.497 56.793 123.019 56.9671 123.403 57.3154C123.787 57.6605 123.979 58.1211 123.979 58.6973C123.979 59.3971 123.534 60.2305 122.642 61.1973L120.737 63.2627H124.307V64ZM127.305 60.6943L126.436 61.5977V64H125.498V56.8906H126.436V60.4062L129.595 56.8906H130.728L127.93 60.0303L130.947 64H129.824L127.305 60.6943Z" fill="black"/>
<rect x="154" y="178" width="34" height="6" rx="3" fill="#EAEAEA"/>
<path d="M166.793 199.145H163.814L163.146 201H162.179L164.894 193.891H165.714L168.434 201H167.472L166.793 199.145ZM164.098 198.373H166.515L165.304 195.048L164.098 198.373ZM169.391 201V193.891H171.715C172.486 193.891 173.066 194.05 173.453 194.369C173.844 194.688 174.039 195.16 174.039 195.785C174.039 196.117 173.945 196.412 173.756 196.669C173.567 196.923 173.31 197.12 172.984 197.26C173.368 197.367 173.671 197.572 173.893 197.875C174.117 198.174 174.229 198.533 174.229 198.949C174.229 199.587 174.023 200.089 173.609 200.453C173.196 200.818 172.612 201 171.856 201H169.391ZM170.328 197.675V200.233H171.876C172.312 200.233 172.656 200.121 172.906 199.896C173.16 199.669 173.287 199.356 173.287 198.959C173.287 198.103 172.822 197.675 171.891 197.675H170.328ZM170.328 196.923H171.744C172.154 196.923 172.481 196.82 172.726 196.615C172.973 196.41 173.097 196.132 173.097 195.78C173.097 195.39 172.983 195.106 172.755 194.931C172.527 194.752 172.18 194.662 171.715 194.662H170.328V196.923ZM178.229 198.124H176.559V201H175.616V193.891H177.97C178.771 193.891 179.386 194.073 179.815 194.438C180.248 194.802 180.465 195.333 180.465 196.029C180.465 196.472 180.344 196.858 180.104 197.187C179.866 197.515 179.534 197.761 179.107 197.924L180.777 200.941V201H179.771L178.229 198.124ZM176.559 197.357H177.999C178.465 197.357 178.834 197.237 179.107 196.996C179.384 196.755 179.522 196.433 179.522 196.029C179.522 195.59 179.391 195.253 179.127 195.019C178.867 194.784 178.489 194.665 177.994 194.662H176.559V197.357Z" fill="white"/>
<rect x="200" y="178" width="34" height="6" rx="3" fill="#EAEAEA"/>
<path d="M209.092 193.891L211.416 199.691L213.74 193.891H214.956V201H214.019V198.231L214.106 195.243L211.772 201H211.055L208.726 195.258L208.818 198.231V201H207.881V193.891H209.092ZM220.625 199.145H217.646L216.978 201H216.011L218.726 193.891H219.546L222.266 201H221.304L220.625 199.145ZM217.93 198.373H220.347L219.136 195.048L217.93 198.373ZM224.932 197.46L226.787 193.891H227.852L225.4 198.349V201H224.463V198.349L222.012 193.891H223.086L224.932 197.46Z" fill="white"/>
<rect x="246" y="178" width="34" height="6" rx="3" fill="#EAEAEA"/>
<path d="M257.238 193.891H258.181V198.925C258.181 199.605 257.976 200.137 257.565 200.521C257.159 200.906 256.615 201.098 255.935 201.098C255.228 201.098 254.678 200.917 254.284 200.556C253.89 200.194 253.693 199.688 253.693 199.037H254.631C254.631 199.444 254.742 199.761 254.963 199.989C255.188 200.217 255.511 200.331 255.935 200.331C256.322 200.331 256.634 200.209 256.872 199.965C257.113 199.721 257.235 199.379 257.238 198.939V193.891ZM264.782 193.891V198.725C264.779 199.395 264.567 199.944 264.147 200.37C263.731 200.797 263.164 201.036 262.448 201.088L262.199 201.098C261.421 201.098 260.801 200.888 260.339 200.468C259.877 200.048 259.642 199.47 259.636 198.734V193.891H260.563V198.705C260.563 199.219 260.705 199.62 260.988 199.906C261.271 200.189 261.675 200.331 262.199 200.331C262.73 200.331 263.135 200.189 263.415 199.906C263.698 199.623 263.84 199.224 263.84 198.71V193.891H264.782ZM271.726 201H270.783L267.204 195.521V201H266.262V193.891H267.204L270.793 199.394V193.891H271.726V201Z" fill="white"/>
<rect x="292" y="178" width="34" height="6" rx="3" fill="#EAEAEA"/>
<path d="M304.112 193.891H305.055V198.925C305.055 199.605 304.85 200.137 304.439 200.521C304.033 200.906 303.489 201.098 302.809 201.098C302.102 201.098 301.552 200.917 301.158 200.556C300.764 200.194 300.567 199.688 300.567 199.037H301.505C301.505 199.444 301.616 199.761 301.837 199.989C302.062 200.217 302.385 200.331 302.809 200.331C303.196 200.331 303.508 200.209 303.746 199.965C303.987 199.721 304.109 199.379 304.112 198.939V193.891ZM311.656 193.891V198.725C311.653 199.395 311.441 199.944 311.021 200.37C310.605 200.797 310.038 201.036 309.322 201.088L309.073 201.098C308.295 201.098 307.675 200.888 307.213 200.468C306.751 200.048 306.516 199.47 306.51 198.734V193.891H307.438V198.705C307.438 199.219 307.579 199.62 307.862 199.906C308.146 200.189 308.549 200.331 309.073 200.331C309.604 200.331 310.009 200.189 310.289 199.906C310.572 199.623 310.714 199.224 310.714 198.71V193.891H311.656ZM314.078 200.233H317.447V201H313.136V193.891H314.078V200.233Z" fill="white"/>
<rect x="338" y="178" width="34" height="6" rx="3" fill="#EAEAEA"/>
<path d="M350.173 199.145H347.194L346.525 201H345.559L348.273 193.891H349.094L351.813 201H350.852L350.173 199.145ZM347.478 198.373H349.895L348.684 195.048L347.478 198.373ZM357.961 200.067C357.72 200.412 357.383 200.671 356.95 200.844C356.521 201.013 356.019 201.098 355.446 201.098C354.867 201.098 354.353 200.963 353.903 200.692C353.454 200.419 353.106 200.032 352.858 199.53C352.614 199.029 352.489 198.448 352.482 197.787V197.167C352.482 196.096 352.731 195.266 353.229 194.677C353.731 194.088 354.434 193.793 355.339 193.793C356.081 193.793 356.678 193.983 357.131 194.364C357.583 194.742 357.86 195.279 357.961 195.976H357.023C356.848 195.035 356.288 194.564 355.344 194.564C354.715 194.564 354.239 194.786 353.913 195.229C353.591 195.668 353.428 196.306 353.425 197.143V197.724C353.425 198.521 353.607 199.156 353.972 199.628C354.336 200.097 354.829 200.331 355.451 200.331C355.803 200.331 356.11 200.292 356.374 200.214C356.638 200.136 356.856 200.004 357.028 199.818V198.222H355.383V197.46H357.961V200.067ZM364.997 197.675C364.997 198.371 364.88 198.98 364.646 199.501C364.411 200.019 364.079 200.414 363.649 200.688C363.22 200.961 362.718 201.098 362.146 201.098C361.586 201.098 361.089 200.961 360.656 200.688C360.223 200.411 359.886 200.019 359.646 199.511C359.408 199 359.286 198.409 359.279 197.738V197.226C359.279 196.542 359.398 195.938 359.636 195.414C359.873 194.89 360.209 194.49 360.642 194.213C361.078 193.933 361.576 193.793 362.136 193.793C362.705 193.793 363.207 193.931 363.64 194.208C364.076 194.481 364.411 194.88 364.646 195.404C364.88 195.925 364.997 196.532 364.997 197.226V197.675ZM364.064 197.216C364.064 196.373 363.895 195.727 363.557 195.277C363.218 194.825 362.744 194.599 362.136 194.599C361.543 194.599 361.076 194.825 360.734 195.277C360.396 195.727 360.222 196.352 360.212 197.152V197.675C360.212 198.492 360.383 199.135 360.725 199.604C361.07 200.069 361.543 200.302 362.146 200.302C362.751 200.302 363.22 200.082 363.552 199.643C363.884 199.2 364.055 198.567 364.064 197.743V197.216Z" fill="white"/>
<path d="M179.969 14H172.798V12.7769L176.351 8.90234C176.863 8.33105 177.227 7.85498 177.442 7.47412C177.662 7.08838 177.771 6.70264 177.771 6.31689C177.771 5.80908 177.627 5.39893 177.339 5.08643C177.056 4.77393 176.673 4.61768 176.189 4.61768C175.613 4.61768 175.167 4.79346 174.849 5.14502C174.532 5.49658 174.373 5.97754 174.373 6.58789H172.593C172.593 5.93848 172.74 5.35498 173.033 4.8374C173.331 4.31494 173.753 3.90967 174.3 3.62158C174.852 3.3335 175.486 3.18945 176.204 3.18945C177.239 3.18945 178.055 3.45068 178.65 3.97314C179.251 4.49072 179.551 5.2085 179.551 6.12646C179.551 6.65869 179.4 7.21777 179.097 7.80371C178.799 8.38477 178.309 9.04639 177.625 9.78857L175.018 12.5791H179.969V14ZM188.274 9.51025C188.274 11.0435 187.986 12.2007 187.41 12.9819C186.839 13.7583 185.967 14.1465 184.795 14.1465C183.643 14.1465 182.774 13.7681 182.188 13.0112C181.607 12.2495 181.309 11.124 181.294 9.63477V7.78906C181.294 6.25586 181.58 5.10596 182.151 4.33936C182.728 3.57275 183.604 3.18945 184.781 3.18945C185.948 3.18945 186.817 3.56299 187.388 4.31006C187.964 5.05713 188.26 6.17529 188.274 7.66455V9.51025ZM186.495 7.51807C186.495 6.51709 186.358 5.78467 186.084 5.3208C185.811 4.85205 185.376 4.61768 184.781 4.61768C184.2 4.61768 183.772 4.83984 183.499 5.28418C183.226 5.72363 183.082 6.41211 183.067 7.34961V9.7666C183.067 10.7627 183.206 11.5049 183.484 11.9932C183.763 12.4814 184.2 12.7256 184.795 12.7256C185.367 12.7256 185.789 12.501 186.062 12.0518C186.336 11.5977 186.48 10.8896 186.495 9.92773V7.51807ZM197.02 14H189.849V12.7769L193.401 8.90234C193.914 8.33105 194.278 7.85498 194.493 7.47412C194.712 7.08838 194.822 6.70264 194.822 6.31689C194.822 5.80908 194.678 5.39893 194.39 5.08643C194.107 4.77393 193.724 4.61768 193.24 4.61768C192.664 4.61768 192.217 4.79346 191.9 5.14502C191.583 5.49658 191.424 5.97754 191.424 6.58789H189.644C189.644 5.93848 189.791 5.35498 190.083 4.8374C190.381 4.31494 190.804 3.90967 191.351 3.62158C191.902 3.3335 192.537 3.18945 193.255 3.18945C194.29 3.18945 195.105 3.45068 195.701 3.97314C196.302 4.49072 196.602 5.2085 196.602 6.12646C196.602 6.65869 196.451 7.21777 196.148 7.80371C195.85 8.38477 195.359 9.04639 194.676 9.78857L192.068 12.5791H197.02V14ZM203.194 14H201.421V5.43799L198.807 6.33154V4.83008L202.967 3.29932H203.194V14Z" fill="white"/>
<path fill-rule="evenodd" clip-rule="evenodd" d="M149.167 8.19162L156.978 0.323355C157.433 -0.107783 158.129 -0.107783 158.557 0.323355C158.985 0.754493 158.985 1.45509 158.557 1.91318L151.521 9L158.557 16.0868C158.985 16.518 158.985 17.2455 158.557 17.6766C158.129 18.1078 157.433 18.1078 156.978 17.6766L149.167 9.78144C148.739 9.3503 148.739 8.6497 149.167 8.19162Z" fill="white"/>
<path fill-rule="evenodd" clip-rule="evenodd" d="M229.7 9.83003L221.912 17.722C221.459 18.1545 220.763 18.1566 220.334 17.7268C219.905 17.297 219.902 16.5964 220.329 16.137L227.343 9.0288L220.286 1.96339C219.857 1.53356 219.854 0.806015 220.281 0.373579C220.708 -0.0588586 221.403 -0.0609725 221.86 0.368782L229.695 8.24021C230.124 8.67005 230.127 9.37064 229.7 9.83003Z" fill="white"/>
</g>
<defs>
<clipPath id="clip0">
<rect width="372" height="220" fill="white"/>
</clipPath>
</defs>
</svg>
