<svg width="28" height="28" viewBox="0 0 28 28" fill="none" xmlns="http://www.w3.org/2000/svg">
<g clip-path="url(#clip0)">
<path d="M5.48192 15.0638C5.55354 9.54026 10.0882 5.12268 15.6107 5.19429C21.1333 5.2659 25.5519 9.79957 25.4802 15.3231C25.4086 20.8446 20.874 25.2642 15.3514 25.1926C9.82889 25.121 5.41033 20.5853 5.48192 15.0638Z" fill="#00DDA3"/>
<path fill-rule="evenodd" clip-rule="evenodd" d="M14.6186 14.5513C14.6249 14.0693 15.0229 13.6815 15.5049 13.6877C15.9868 13.694 16.3747 14.092 16.3685 14.574L16.3111 18.9936C16.3049 19.4756 15.9068 19.8634 15.4249 19.8572C14.9429 19.8509 14.555 19.4529 14.5613 18.9709L14.6186 14.5513ZM16.4046 11.4014C16.3983 11.8833 16.0023 12.2712 15.5233 12.265C15.0304 12.2586 14.6435 11.8606 14.6497 11.3786C14.656 10.8967 15.0531 10.5088 15.536 10.515C16.021 10.5213 16.4108 10.9194 16.4046 11.4014Z" fill="#1F3044"/>
</g>
<defs>
<clipPath id="clip0">
<rect width="27" height="27" fill="white" transform="translate(27.3242 27.3478) rotate(-179.257)"/>
</clipPath>
</defs>
</svg>
