<svg width="24" height="24" viewBox="0 0 24 24" fill="none" xmlns="http://www.w3.org/2000/svg">
<path fill-rule="evenodd" clip-rule="evenodd" d="M12.0333 6C7.47273 6 3.57797 8.8367 2 12.8409C3.57797 16.8451 7.47273 19.6818 12.0333 19.6818C16.5939 19.6818 20.4887 16.8451 22.0667 12.8409C20.4887 8.8367 16.5939 6 12.0333 6ZM12.0333 17.4015C9.51583 17.4015 7.47268 15.3584 7.47268 12.8409C7.47268 10.3235 9.51583 8.2803 12.0333 8.2803C14.5507 8.2803 16.5939 10.3235 16.5939 12.8409C16.5939 15.3584 14.5507 17.4015 12.0333 17.4015ZM12.0333 10.1045C10.5192 10.1045 9.29699 11.3268 9.29699 12.8409C9.29699 14.355 10.5192 15.5773 12.0333 15.5773C13.5475 15.5773 14.7697 14.355 14.7697 12.8409C14.7697 11.3268 13.5475 10.1045 12.0333 10.1045Z" fill="white"/>
</svg>
