<svg width="382" height="120" viewBox="0 0 382 120" fill="none" xmlns="http://www.w3.org/2000/svg">
<path d="M0 8C0 3.58172 3.58172 0 8 0H374C378.418 0 382 3.58172 382 8V112C382 116.418 378.418 120 374 120H7.99999C3.58171 120 0 116.418 0 112V8Z" fill="#1F3044"/>
<path d="M0 8C0 3.58172 3.58172 0 8 0H374C378.418 0 382 3.58172 382 8V112C382 116.418 378.418 120 374 120H7.99999C3.58171 120 0 116.418 0 112V8Z" fill="#44505E"/>
<path d="M31.333 19.9141L34.4375 28.6797L37.5254 19.9141H40.7959V32H38.2974V28.6963L38.5464 22.9937L35.2842 32H33.5742L30.3203 23.002L30.5693 28.6963V32H28.0791V19.9141H31.333ZM48.0176 32C47.9069 31.7842 47.8267 31.5158 47.7769 31.1948C47.1958 31.8423 46.4404 32.166 45.5107 32.166C44.6309 32.166 43.9004 31.9115 43.3193 31.4023C42.7438 30.8932 42.4561 30.2513 42.4561 29.4766C42.4561 28.5247 42.8075 27.7943 43.5103 27.2852C44.2186 26.776 45.2396 26.5187 46.5732 26.5132H47.6772V25.9985C47.6772 25.5835 47.5693 25.2515 47.3535 25.0024C47.1432 24.7534 46.8084 24.6289 46.3491 24.6289C45.9451 24.6289 45.627 24.7257 45.3945 24.9194C45.1676 25.1131 45.0542 25.3787 45.0542 25.7163H42.6553C42.6553 25.1961 42.8158 24.7147 43.1367 24.272C43.4577 23.8293 43.9115 23.4834 44.498 23.2344C45.0846 22.9798 45.7432 22.8525 46.4736 22.8525C47.5804 22.8525 48.4575 23.132 49.105 23.6909C49.758 24.2443 50.0845 25.0246 50.0845 26.0317V29.9248C50.09 30.777 50.209 31.4217 50.4414 31.8589V32H48.0176ZM46.0337 30.3315C46.3879 30.3315 46.7144 30.2541 47.0132 30.0991C47.312 29.9386 47.5334 29.7256 47.6772 29.46V27.916H46.7808C45.5799 27.916 44.9408 28.3311 44.8633 29.1611L44.855 29.3022C44.855 29.6011 44.9601 29.8473 45.1704 30.041C45.3807 30.2347 45.6685 30.3315 46.0337 30.3315ZM56.9741 25.2681C56.6476 25.2238 56.3599 25.2017 56.1108 25.2017C55.2033 25.2017 54.6084 25.5088 54.3262 26.123V32H51.9272V23.0186H54.1934L54.2598 24.0894C54.7412 23.2648 55.408 22.8525 56.2603 22.8525C56.5259 22.8525 56.7749 22.8885 57.0073 22.9604L56.9741 25.2681ZM61.7056 30.2319C62.1483 30.2319 62.508 30.1102 62.7847 29.8667C63.0614 29.6232 63.2052 29.2995 63.2163 28.8955H65.4658C65.4603 29.5042 65.2943 30.0632 64.9678 30.5723C64.6413 31.0758 64.193 31.4688 63.623 31.751C63.0586 32.0277 62.4333 32.166 61.7471 32.166C60.4632 32.166 59.4505 31.7593 58.709 30.9458C57.9674 30.1268 57.5967 28.9979 57.5967 27.5591V27.4014C57.5967 26.0179 57.9647 24.9139 58.7007 24.0894C59.4367 23.2648 60.4466 22.8525 61.7305 22.8525C62.8538 22.8525 63.7531 23.1735 64.4282 23.8154C65.1089 24.4518 65.4548 25.3013 65.4658 26.3638H63.2163C63.2052 25.8989 63.0614 25.5226 62.7847 25.2349C62.508 24.9416 62.1427 24.7949 61.689 24.7949C61.13 24.7949 60.7067 24.9997 60.4189 25.4092C60.1367 25.8132 59.9956 26.4717 59.9956 27.3848V27.6338C59.9956 28.5579 60.1367 29.222 60.4189 29.626C60.7012 30.0299 61.13 30.2319 61.7056 30.2319ZM72.04 32C71.9294 31.7842 71.8491 31.5158 71.7993 31.1948C71.2183 31.8423 70.4629 32.166 69.5332 32.166C68.6533 32.166 67.9229 31.9115 67.3418 31.4023C66.7663 30.8932 66.4785 30.2513 66.4785 29.4766C66.4785 28.5247 66.8299 27.7943 67.5327 27.2852C68.241 26.776 69.262 26.5187 70.5957 26.5132H71.6997V25.9985C71.6997 25.5835 71.5918 25.2515 71.376 25.0024C71.1657 24.7534 70.8309 24.6289 70.3716 24.6289C69.9676 24.6289 69.6494 24.7257 69.417 24.9194C69.1901 25.1131 69.0767 25.3787 69.0767 25.7163H66.6777C66.6777 25.1961 66.8382 24.7147 67.1592 24.272C67.4801 23.8293 67.9339 23.4834 68.5205 23.2344C69.1071 22.9798 69.7656 22.8525 70.4961 22.8525C71.6029 22.8525 72.48 23.132 73.1274 23.6909C73.7804 24.2443 74.1069 25.0246 74.1069 26.0317V29.9248C74.1125 30.777 74.2314 31.4217 74.4639 31.8589V32H72.04ZM70.0562 30.3315C70.4103 30.3315 70.7368 30.2541 71.0356 30.0991C71.3345 29.9386 71.5558 29.7256 71.6997 29.46V27.916H70.8032C69.6024 27.916 68.9632 28.3311 68.8857 29.1611L68.8774 29.3022C68.8774 29.6011 68.9826 29.8473 69.1929 30.041C69.4032 30.2347 69.6909 30.3315 70.0562 30.3315ZM75.5762 27.4429C75.5762 26.0428 75.8888 24.9277 76.5142 24.0977C77.145 23.2676 78.0055 22.8525 79.0957 22.8525C79.9701 22.8525 80.6922 23.179 81.2622 23.832V19.25H83.6694V32H81.5029L81.3867 31.0454C80.7891 31.7925 80.0199 32.166 79.0791 32.166C78.0221 32.166 77.1727 31.751 76.5308 30.9209C75.8944 30.0853 75.5762 28.9259 75.5762 27.4429ZM77.9751 27.6172C77.9751 28.4583 78.1217 29.103 78.415 29.5513C78.7083 29.9995 79.1344 30.2236 79.6934 30.2236C80.4349 30.2236 80.9578 29.911 81.2622 29.2856V25.7412C80.9634 25.1159 80.446 24.8032 79.71 24.8032C78.5534 24.8032 77.9751 25.7412 77.9751 27.6172ZM85.1553 27.4263C85.1553 26.5353 85.3268 25.7412 85.6699 25.0439C86.013 24.3467 86.5055 23.8071 87.1475 23.4253C87.7949 23.0435 88.5448 22.8525 89.397 22.8525C90.6089 22.8525 91.5967 23.2233 92.3604 23.9648C93.1296 24.7064 93.5584 25.7135 93.647 26.9863L93.6636 27.6006C93.6636 28.9785 93.279 30.0853 92.5098 30.9209C91.7406 31.751 90.7085 32.166 89.4136 32.166C88.1187 32.166 87.0838 31.751 86.3091 30.9209C85.5399 30.0908 85.1553 28.9619 85.1553 27.5342V27.4263ZM87.5542 27.6006C87.5542 28.4528 87.7147 29.1058 88.0356 29.5596C88.3566 30.0078 88.8159 30.2319 89.4136 30.2319C89.9946 30.2319 90.4484 30.0106 90.7749 29.5679C91.1014 29.1196 91.2646 28.4058 91.2646 27.4263C91.2646 26.5907 91.1014 25.9432 90.7749 25.4839C90.4484 25.0246 89.9891 24.7949 89.397 24.7949C88.8104 24.7949 88.3566 25.0246 88.0356 25.4839C87.7147 25.9377 87.5542 26.6432 87.5542 27.6006ZM100.188 25.2681C99.8615 25.2238 99.5737 25.2017 99.3247 25.2017C98.4172 25.2017 97.8223 25.5088 97.54 26.123V32H95.1411V23.0186H97.4072L97.4736 24.0894C97.9551 23.2648 98.6219 22.8525 99.4741 22.8525C99.7397 22.8525 99.9888 22.8885 100.221 22.9604L100.188 25.2681ZM105.318 32.166C104.001 32.166 102.927 31.762 102.097 30.9541C101.273 30.1462 100.86 29.0698 100.86 27.7251V27.4927C100.86 26.5907 101.035 25.7855 101.383 25.0771C101.732 24.3633 102.224 23.8154 102.861 23.4336C103.503 23.0462 104.233 22.8525 105.052 22.8525C106.281 22.8525 107.246 23.2399 107.949 24.0146C108.658 24.7894 109.012 25.8879 109.012 27.3101V28.2896H103.292C103.37 28.8761 103.602 29.3465 103.99 29.7007C104.383 30.0549 104.878 30.2319 105.476 30.2319C106.4 30.2319 107.122 29.8971 107.642 29.2275L108.821 30.5474C108.461 31.0565 107.974 31.4549 107.36 31.7427C106.746 32.0249 106.065 32.166 105.318 32.166ZM105.044 24.7949C104.568 24.7949 104.181 24.9554 103.882 25.2764C103.589 25.5973 103.4 26.0566 103.317 26.6543H106.654V26.4634C106.643 25.9321 106.499 25.5226 106.223 25.2349C105.946 24.9416 105.553 24.7949 105.044 24.7949ZM115.246 29.5181C115.246 29.2248 115.099 28.9951 114.806 28.8291C114.518 28.6576 114.053 28.5054 113.411 28.3726C111.275 27.9243 110.207 27.0168 110.207 25.6499C110.207 24.853 110.536 24.189 111.195 23.6577C111.859 23.1209 112.725 22.8525 113.793 22.8525C114.933 22.8525 115.843 23.1209 116.524 23.6577C117.21 24.1945 117.553 24.8918 117.553 25.7495H115.154C115.154 25.4064 115.044 25.1242 114.822 24.9028C114.601 24.6759 114.255 24.5625 113.785 24.5625C113.381 24.5625 113.068 24.6538 112.847 24.8364C112.625 25.019 112.515 25.2515 112.515 25.5337C112.515 25.7993 112.639 26.0151 112.888 26.1812C113.143 26.3416 113.569 26.4827 114.167 26.6045C114.764 26.7207 115.268 26.8535 115.677 27.0029C116.944 27.4678 117.578 28.2729 117.578 29.4185C117.578 30.2375 117.227 30.9015 116.524 31.4106C115.821 31.9142 114.914 32.166 113.801 32.166C113.049 32.166 112.379 32.0332 111.792 31.7676C111.211 31.4964 110.755 31.1284 110.423 30.6636C110.091 30.1932 109.925 29.6868 109.925 29.1445H112.199C112.221 29.5706 112.379 29.8971 112.672 30.124C112.966 30.3509 113.359 30.4644 113.851 30.4644C114.31 30.4644 114.656 30.3786 114.889 30.207C115.127 30.0299 115.246 29.8003 115.246 29.5181ZM133.433 26.231C133.433 27.3599 133.25 28.3421 132.885 29.1777C132.52 30.0078 132.013 30.6746 131.366 31.1782L133.375 32.7554L131.789 34.1582L129.216 32.0913C128.923 32.1411 128.618 32.166 128.303 32.166C127.301 32.166 126.407 31.9253 125.622 31.4438C124.836 30.9624 124.227 30.2762 123.795 29.3853C123.364 28.4888 123.145 27.4595 123.14 26.2974V25.6997C123.14 24.5099 123.353 23.464 123.779 22.562C124.21 21.6545 124.816 20.96 125.597 20.4785C126.382 19.9915 127.279 19.748 128.286 19.748C129.293 19.748 130.187 19.9915 130.967 20.4785C131.753 20.96 132.359 21.6545 132.785 22.562C133.217 23.464 133.433 24.5072 133.433 25.6914V26.231ZM130.909 25.6831C130.909 24.4159 130.682 23.453 130.229 22.7944C129.775 22.1359 129.127 21.8066 128.286 21.8066C127.451 21.8066 126.806 22.1331 126.352 22.7861C125.898 23.4336 125.669 24.3854 125.663 25.6416V26.231C125.663 27.465 125.89 28.4224 126.344 29.103C126.798 29.7837 127.451 30.124 128.303 30.124C129.138 30.124 129.78 29.7975 130.229 29.1445C130.677 28.486 130.904 27.5286 130.909 26.2725V25.6831ZM142.53 26.7622H137.749V29.9995H143.36V32H135.259V19.9141H143.344V21.9312H137.749V24.8115H142.53V26.7622ZM152.093 26.7622H147.312V29.9995H152.923V32H144.821V19.9141H152.906V21.9312H147.312V24.8115H152.093V26.7622ZM163.946 30.4727C163.498 31.0094 162.864 31.4272 162.045 31.7261C161.226 32.0194 160.319 32.166 159.323 32.166C158.277 32.166 157.358 31.9391 156.567 31.4854C155.781 31.026 155.172 30.362 154.741 29.4932C154.315 28.6243 154.096 27.6034 154.085 26.4302V25.6084C154.085 24.402 154.287 23.3589 154.691 22.479C155.1 21.5936 155.687 20.9185 156.451 20.4536C157.22 19.9832 158.119 19.748 159.148 19.748C160.582 19.748 161.702 20.0911 162.51 20.7773C163.318 21.458 163.797 22.4513 163.946 23.7573H161.522C161.412 23.0656 161.166 22.5592 160.784 22.2383C160.407 21.9173 159.887 21.7568 159.223 21.7568C158.376 21.7568 157.732 22.075 157.289 22.7114C156.846 23.3478 156.622 24.2941 156.617 25.5503V26.3223C156.617 27.5895 156.857 28.5469 157.339 29.1943C157.82 29.8418 158.526 30.1655 159.456 30.1655C160.391 30.1655 161.058 29.9663 161.456 29.5679V27.4844H159.19V25.6499H163.946V30.4727ZM169.674 27.4429C169.674 26.0428 169.986 24.9277 170.612 24.0977C171.243 23.2676 172.103 22.8525 173.193 22.8525C174.068 22.8525 174.79 23.179 175.36 23.832V19.25H177.767V32H175.601L175.484 31.0454C174.887 31.7925 174.118 32.166 173.177 32.166C172.12 32.166 171.27 31.751 170.628 30.9209C169.992 30.0853 169.674 28.9259 169.674 27.4429ZM172.073 27.6172C172.073 28.4583 172.219 29.103 172.513 29.5513C172.806 29.9995 173.232 30.2236 173.791 30.2236C174.533 30.2236 175.056 29.911 175.36 29.2856V25.7412C175.061 25.1159 174.544 24.8032 173.808 24.8032C172.651 24.8032 172.073 25.7412 172.073 27.6172ZM183.76 32.166C182.443 32.166 181.37 31.762 180.54 30.9541C179.715 30.1462 179.303 29.0698 179.303 27.7251V27.4927C179.303 26.5907 179.477 25.7855 179.826 25.0771C180.174 24.3633 180.667 23.8154 181.303 23.4336C181.945 23.0462 182.676 22.8525 183.495 22.8525C184.723 22.8525 185.689 23.2399 186.392 24.0146C187.1 24.7894 187.454 25.8879 187.454 27.3101V28.2896H181.735C181.812 28.8761 182.045 29.3465 182.432 29.7007C182.825 30.0549 183.32 30.2319 183.918 30.2319C184.842 30.2319 185.564 29.8971 186.084 29.2275L187.263 30.5474C186.903 31.0565 186.417 31.4549 185.802 31.7427C185.188 32.0249 184.507 32.166 183.76 32.166ZM183.486 24.7949C183.01 24.7949 182.623 24.9554 182.324 25.2764C182.031 25.5973 181.843 26.0566 181.76 26.6543H185.097V26.4634C185.086 25.9321 184.942 25.5226 184.665 25.2349C184.388 24.9416 183.995 24.7949 183.486 24.7949ZM195.589 32H193.182V19.25H195.589V32ZM197.199 27.4263C197.199 26.5353 197.371 25.7412 197.714 25.0439C198.057 24.3467 198.549 23.8071 199.191 23.4253C199.839 23.0435 200.589 22.8525 201.441 22.8525C202.653 22.8525 203.641 23.2233 204.404 23.9648C205.174 24.7064 205.602 25.7135 205.691 26.9863L205.708 27.6006C205.708 28.9785 205.323 30.0853 204.554 30.9209C203.785 31.751 202.752 32.166 201.458 32.166C200.163 32.166 199.128 31.751 198.353 30.9209C197.584 30.0908 197.199 28.9619 197.199 27.5342V27.4263ZM199.598 27.6006C199.598 28.4528 199.759 29.1058 200.08 29.5596C200.401 30.0078 200.86 30.2319 201.458 30.2319C202.039 30.2319 202.492 30.0106 202.819 29.5679C203.145 29.1196 203.309 28.4058 203.309 27.4263C203.309 26.5907 203.145 25.9432 202.819 25.4839C202.492 25.0246 202.033 24.7949 201.441 24.7949C200.854 24.7949 200.401 25.0246 200.08 25.4839C199.759 25.9377 199.598 26.6432 199.598 27.6006ZM212.049 29.5181C212.049 29.2248 211.903 28.9951 211.609 28.8291C211.322 28.6576 210.857 28.5054 210.215 28.3726C208.079 27.9243 207.011 27.0168 207.011 25.6499C207.011 24.853 207.34 24.189 207.999 23.6577C208.663 23.1209 209.529 22.8525 210.597 22.8525C211.737 22.8525 212.647 23.1209 213.328 23.6577C214.014 24.1945 214.357 24.8918 214.357 25.7495H211.958C211.958 25.4064 211.847 25.1242 211.626 24.9028C211.405 24.6759 211.059 24.5625 210.588 24.5625C210.184 24.5625 209.872 24.6538 209.65 24.8364C209.429 25.019 209.318 25.2515 209.318 25.5337C209.318 25.7993 209.443 26.0151 209.692 26.1812C209.946 26.3416 210.373 26.4827 210.97 26.6045C211.568 26.7207 212.071 26.8535 212.481 27.0029C213.748 27.4678 214.382 28.2729 214.382 29.4185C214.382 30.2375 214.03 30.9015 213.328 31.4106C212.625 31.9142 211.717 32.166 210.605 32.166C209.852 32.166 209.183 32.0332 208.596 31.7676C208.015 31.4964 207.559 31.1284 207.227 30.6636C206.895 30.1932 206.729 29.6868 206.729 29.1445H209.003C209.025 29.5706 209.183 29.8971 209.476 30.124C209.769 30.3509 210.162 30.4644 210.655 30.4644C211.114 30.4644 211.46 30.3786 211.692 30.207C211.93 30.0299 212.049 29.8003 212.049 29.5181ZM223.04 20.8105V23.0186H224.575V24.7783H223.04V29.2607C223.04 29.5928 223.103 29.8307 223.23 29.9746C223.358 30.1185 223.601 30.1904 223.961 30.1904C224.227 30.1904 224.462 30.1711 224.667 30.1323V31.9502C224.196 32.0941 223.712 32.166 223.214 32.166C221.532 32.166 220.674 31.3166 220.641 29.6177V24.7783H219.329V23.0186H220.641V20.8105H223.04ZM230.958 25.2681C230.632 25.2238 230.344 25.2017 230.095 25.2017C229.188 25.2017 228.593 25.5088 228.311 26.123V32H225.912V23.0186H228.178L228.244 24.0894C228.726 23.2648 229.392 22.8525 230.245 22.8525C230.51 22.8525 230.759 22.8885 230.992 22.9604L230.958 25.2681ZM237.076 32C236.965 31.7842 236.885 31.5158 236.835 31.1948C236.254 31.8423 235.499 32.166 234.569 32.166C233.689 32.166 232.959 31.9115 232.378 31.4023C231.802 30.8932 231.515 30.2513 231.515 29.4766C231.515 28.5247 231.866 27.7943 232.569 27.2852C233.277 26.776 234.298 26.5187 235.632 26.5132H236.736V25.9985C236.736 25.5835 236.628 25.2515 236.412 25.0024C236.202 24.7534 235.867 24.6289 235.408 24.6289C235.004 24.6289 234.686 24.7257 234.453 24.9194C234.226 25.1131 234.113 25.3787 234.113 25.7163H231.714C231.714 25.1961 231.874 24.7147 232.195 24.272C232.516 23.8293 232.97 23.4834 233.557 23.2344C234.143 22.9798 234.802 22.8525 235.532 22.8525C236.639 22.8525 237.516 23.132 238.164 23.6909C238.817 24.2443 239.143 25.0246 239.143 26.0317V29.9248C239.149 30.777 239.268 31.4217 239.5 31.8589V32H237.076ZM235.092 30.3315C235.446 30.3315 235.773 30.2541 236.072 30.0991C236.371 29.9386 236.592 29.7256 236.736 29.46V27.916H235.839C234.639 27.916 233.999 28.3311 233.922 29.1611L233.914 29.3022C233.914 29.6011 234.019 29.8473 234.229 30.041C234.439 30.2347 234.727 30.3315 235.092 30.3315ZM245.85 29.5181C245.85 29.2248 245.703 28.9951 245.41 28.8291C245.122 28.6576 244.658 28.5054 244.016 28.3726C241.88 27.9243 240.812 27.0168 240.812 25.6499C240.812 24.853 241.141 24.189 241.799 23.6577C242.463 23.1209 243.329 22.8525 244.397 22.8525C245.537 22.8525 246.448 23.1209 247.128 23.6577C247.815 24.1945 248.158 24.8918 248.158 25.7495H245.759C245.759 25.4064 245.648 25.1242 245.427 24.9028C245.205 24.6759 244.86 24.5625 244.389 24.5625C243.985 24.5625 243.673 24.6538 243.451 24.8364C243.23 25.019 243.119 25.2515 243.119 25.5337C243.119 25.7993 243.244 26.0151 243.493 26.1812C243.747 26.3416 244.173 26.4827 244.771 26.6045C245.369 26.7207 245.872 26.8535 246.282 27.0029C247.549 27.4678 248.183 28.2729 248.183 29.4185C248.183 30.2375 247.831 30.9015 247.128 31.4106C246.426 31.9142 245.518 32.166 244.406 32.166C243.653 32.166 242.984 32.0332 242.397 31.7676C241.816 31.4964 241.359 31.1284 241.027 30.6636C240.695 30.1932 240.529 29.6868 240.529 29.1445H242.804C242.826 29.5706 242.984 29.8971 243.277 30.124C243.57 30.3509 243.963 30.4644 244.456 30.4644C244.915 30.4644 245.261 30.3786 245.493 30.207C245.731 30.0299 245.85 29.8003 245.85 29.5181ZM252.607 20.8105V23.0186H254.143V24.7783H252.607V29.2607C252.607 29.5928 252.671 29.8307 252.798 29.9746C252.925 30.1185 253.169 30.1904 253.528 30.1904C253.794 30.1904 254.029 30.1711 254.234 30.1323V31.9502C253.764 32.0941 253.279 32.166 252.781 32.166C251.099 32.166 250.241 31.3166 250.208 29.6177V24.7783H248.896V23.0186H250.208V20.8105H252.607ZM254.856 27.4263C254.856 26.5353 255.028 25.7412 255.371 25.0439C255.714 24.3467 256.207 23.8071 256.849 23.4253C257.496 23.0435 258.246 22.8525 259.098 22.8525C260.31 22.8525 261.298 23.2233 262.062 23.9648C262.831 24.7064 263.26 25.7135 263.348 26.9863L263.365 27.6006C263.365 28.9785 262.98 30.0853 262.211 30.9209C261.442 31.751 260.41 32.166 259.115 32.166C257.82 32.166 256.785 31.751 256.01 30.9209C255.241 30.0908 254.856 28.9619 254.856 27.5342V27.4263ZM257.255 27.6006C257.255 28.4528 257.416 29.1058 257.737 29.5596C258.058 30.0078 258.517 30.2319 259.115 30.2319C259.696 30.2319 260.15 30.0106 260.476 29.5679C260.803 29.1196 260.966 28.4058 260.966 27.4263C260.966 26.5907 260.803 25.9432 260.476 25.4839C260.15 25.0246 259.69 24.7949 259.098 24.7949C258.512 24.7949 258.058 25.0246 257.737 25.4839C257.416 25.9377 257.255 26.6432 257.255 27.6006ZM269.889 25.2681C269.563 25.2238 269.275 25.2017 269.026 25.2017C268.118 25.2017 267.523 25.5088 267.241 26.123V32H264.842V23.0186H267.108L267.175 24.0894C267.656 23.2648 268.323 22.8525 269.175 22.8525C269.441 22.8525 269.69 22.8885 269.922 22.9604L269.889 25.2681ZM273.259 23.0186L273.334 24.0562C273.976 23.2537 274.836 22.8525 275.916 22.8525C276.867 22.8525 277.576 23.132 278.041 23.6909C278.505 24.2498 278.743 25.0854 278.754 26.1978V32H276.355V26.2559C276.355 25.7467 276.245 25.3787 276.023 25.1519C275.802 24.9194 275.434 24.8032 274.919 24.8032C274.244 24.8032 273.738 25.091 273.4 25.6665V32H271.001V23.0186H273.259ZM280.207 27.4263C280.207 26.5353 280.379 25.7412 280.722 25.0439C281.065 24.3467 281.557 23.8071 282.199 23.4253C282.847 23.0435 283.597 22.8525 284.449 22.8525C285.661 22.8525 286.648 23.2233 287.412 23.9648C288.181 24.7064 288.61 25.7135 288.699 26.9863L288.715 27.6006C288.715 28.9785 288.331 30.0853 287.562 30.9209C286.792 31.751 285.76 32.166 284.465 32.166C283.17 32.166 282.136 31.751 281.361 30.9209C280.592 30.0908 280.207 28.9619 280.207 27.5342V27.4263ZM282.606 27.6006C282.606 28.4528 282.766 29.1058 283.087 29.5596C283.408 30.0078 283.868 30.2319 284.465 30.2319C285.046 30.2319 285.5 30.0106 285.827 29.5679C286.153 29.1196 286.316 28.4058 286.316 27.4263C286.316 26.5907 286.153 25.9432 285.827 25.4839C285.5 25.0246 285.041 24.7949 284.449 24.7949C283.862 24.7949 283.408 25.0246 283.087 25.4839C282.766 25.9377 282.606 26.6432 282.606 27.6006ZM295.057 29.5181C295.057 29.2248 294.91 28.9951 294.617 28.8291C294.329 28.6576 293.865 28.5054 293.223 28.3726C291.087 27.9243 290.019 27.0168 290.019 25.6499C290.019 24.853 290.348 24.189 291.006 23.6577C291.67 23.1209 292.536 22.8525 293.604 22.8525C294.744 22.8525 295.655 23.1209 296.335 23.6577C297.022 24.1945 297.365 24.8918 297.365 25.7495H294.966C294.966 25.4064 294.855 25.1242 294.634 24.9028C294.412 24.6759 294.067 24.5625 293.596 24.5625C293.192 24.5625 292.88 24.6538 292.658 24.8364C292.437 25.019 292.326 25.2515 292.326 25.5337C292.326 25.7993 292.451 26.0151 292.7 26.1812C292.954 26.3416 293.38 26.4827 293.978 26.6045C294.576 26.7207 295.079 26.8535 295.489 27.0029C296.756 27.4678 297.39 28.2729 297.39 29.4185C297.39 30.2375 297.038 30.9015 296.335 31.4106C295.633 31.9142 294.725 32.166 293.613 32.166C292.86 32.166 292.191 32.0332 291.604 31.7676C291.023 31.4964 290.566 31.1284 290.234 30.6636C289.902 30.1932 289.736 29.6868 289.736 29.1445H292.011C292.033 29.5706 292.191 29.8971 292.484 30.124C292.777 30.3509 293.17 30.4644 293.663 30.4644C294.122 30.4644 294.468 30.3786 294.7 30.207C294.938 30.0299 295.057 29.8003 295.057 29.5181ZM31.6567 50.2319C32.0994 50.2319 32.4591 50.1102 32.7358 49.8667C33.0125 49.6232 33.1564 49.2995 33.1675 48.8955H35.417C35.4115 49.5042 35.2454 50.0632 34.9189 50.5723C34.5924 51.0758 34.1442 51.4688 33.5742 51.751C33.0098 52.0277 32.3844 52.166 31.6982 52.166C30.4144 52.166 29.4017 51.7593 28.6602 50.9458C27.9186 50.1268 27.5479 48.9979 27.5479 47.5591V47.4014C27.5479 46.0179 27.9159 44.9139 28.6519 44.0894C29.3879 43.2648 30.3978 42.8525 31.6816 42.8525C32.805 42.8525 33.7043 43.1735 34.3794 43.8154C35.0601 44.4518 35.4059 45.3013 35.417 46.3638H33.1675C33.1564 45.8989 33.0125 45.5226 32.7358 45.2349C32.4591 44.9416 32.0939 44.7949 31.6401 44.7949C31.0812 44.7949 30.6579 44.9997 30.3701 45.4092C30.0879 45.8132 29.9468 46.4717 29.9468 47.3848V47.6338C29.9468 48.5579 30.0879 49.222 30.3701 49.626C30.6523 50.0299 31.0812 50.2319 31.6567 50.2319ZM36.4131 47.4263C36.4131 46.5353 36.5846 45.7412 36.9277 45.0439C37.2708 44.3467 37.7633 43.8071 38.4053 43.4253C39.0527 43.0435 39.8026 42.8525 40.6548 42.8525C41.8667 42.8525 42.8545 43.2233 43.6182 43.9648C44.3874 44.7064 44.8162 45.7135 44.9048 46.9863L44.9214 47.6006C44.9214 48.9785 44.5368 50.0853 43.7676 50.9209C42.9984 51.751 41.9663 52.166 40.6714 52.166C39.3765 52.166 38.3416 51.751 37.5669 50.9209C36.7977 50.0908 36.4131 48.9619 36.4131 47.5342V47.4263ZM38.812 47.6006C38.812 48.4528 38.9725 49.1058 39.2935 49.5596C39.6144 50.0078 40.0737 50.2319 40.6714 50.2319C41.2524 50.2319 41.7062 50.0106 42.0327 49.5679C42.3592 49.1196 42.5225 48.4058 42.5225 47.4263C42.5225 46.5907 42.3592 45.9432 42.0327 45.4839C41.7062 45.0246 41.2469 44.7949 40.6548 44.7949C40.0682 44.7949 39.6144 45.0246 39.2935 45.4839C38.9725 45.9377 38.812 46.6432 38.812 47.6006ZM46.0503 47.4429C46.0503 46.0649 46.3768 44.9554 47.0298 44.1143C47.6883 43.2731 48.5737 42.8525 49.686 42.8525C50.6711 42.8525 51.4375 43.1901 51.9854 43.8652L52.085 43.0186H54.2598V51.7012C54.2598 52.487 54.0799 53.1704 53.7202 53.7515C53.366 54.3325 52.8652 54.7752 52.2178 55.0796C51.5703 55.384 50.8122 55.5361 49.9434 55.5361C49.2848 55.5361 48.6429 55.4033 48.0176 55.1377C47.3923 54.8776 46.9191 54.54 46.5981 54.125L47.6606 52.6641C48.2583 53.3337 48.9832 53.6685 49.8354 53.6685C50.4718 53.6685 50.9671 53.4969 51.3213 53.1538C51.6755 52.8162 51.8525 52.3348 51.8525 51.7095V51.228C51.2992 51.8534 50.5715 52.166 49.6694 52.166C48.5903 52.166 47.716 51.7454 47.0464 50.9043C46.3823 50.0576 46.0503 48.937 46.0503 47.5425V47.4429ZM48.4492 47.6172C48.4492 48.4307 48.6125 49.0698 48.939 49.5347C49.2655 49.994 49.7137 50.2236 50.2837 50.2236C51.0142 50.2236 51.5371 49.9497 51.8525 49.4019V45.625C51.5316 45.0771 51.0142 44.8032 50.3003 44.8032C49.7248 44.8032 49.271 45.0384 48.939 45.5088C48.6125 45.9792 48.4492 46.682 48.4492 47.6172ZM58.3188 43.0186L58.3936 44.0562C59.0355 43.2537 59.896 42.8525 60.9751 42.8525C61.9269 42.8525 62.6353 43.132 63.1001 43.6909C63.5649 44.2498 63.8029 45.0854 63.814 46.1978V52H61.415V46.2559C61.415 45.7467 61.3044 45.3787 61.083 45.1519C60.8617 44.9194 60.4937 44.8032 59.979 44.8032C59.3039 44.8032 58.7975 45.091 58.46 45.6665V52H56.061V43.0186H58.3188ZM68.1719 52H65.7646V43.0186H68.1719V52ZM65.6235 40.6943C65.6235 40.3346 65.7425 40.0386 65.9805 39.8062C66.224 39.5737 66.5532 39.4575 66.9683 39.4575C67.3778 39.4575 67.7043 39.5737 67.9478 39.8062C68.1912 40.0386 68.313 40.3346 68.313 40.6943C68.313 41.0596 68.1885 41.3584 67.9395 41.5908C67.696 41.8232 67.3722 41.9395 66.9683 41.9395C66.5643 41.9395 66.2378 41.8232 65.9888 41.5908C65.7453 41.3584 65.6235 41.0596 65.6235 40.6943ZM73.0278 40.8105V43.0186H74.5635V44.7783H73.0278V49.2607C73.0278 49.5928 73.0915 49.8307 73.2188 49.9746C73.346 50.1185 73.5895 50.1904 73.9492 50.1904C74.2148 50.1904 74.45 50.1711 74.6548 50.1323V51.9502C74.1844 52.0941 73.7002 52.166 73.2021 52.166C71.5199 52.166 70.6621 51.3166 70.6289 49.6177V44.7783H69.3174V43.0186H70.6289V40.8105H73.0278ZM78.4316 52H76.0244V43.0186H78.4316V52ZM75.8833 40.6943C75.8833 40.3346 76.0023 40.0386 76.2402 39.8062C76.4837 39.5737 76.813 39.4575 77.228 39.4575C77.6375 39.4575 77.964 39.5737 78.2075 39.8062C78.451 40.0386 78.5728 40.3346 78.5728 40.6943C78.5728 41.0596 78.4482 41.3584 78.1992 41.5908C77.9557 41.8232 77.632 41.9395 77.228 41.9395C76.8241 41.9395 76.4976 41.8232 76.2485 41.5908C76.005 41.3584 75.8833 41.0596 75.8833 40.6943ZM83.7773 49.0698L85.4458 43.0186H87.9526L84.9229 52H82.6318L79.6021 43.0186H82.1089L83.7773 49.0698ZM88.5088 47.4263C88.5088 46.5353 88.6803 45.7412 89.0234 45.0439C89.3665 44.3467 89.859 43.8071 90.501 43.4253C91.1484 43.0435 91.8983 42.8525 92.7505 42.8525C93.9624 42.8525 94.9502 43.2233 95.7139 43.9648C96.4831 44.7064 96.9119 45.7135 97.0005 46.9863L97.0171 47.6006C97.0171 48.9785 96.6325 50.0853 95.8633 50.9209C95.0941 51.751 94.062 52.166 92.7671 52.166C91.4722 52.166 90.4373 51.751 89.6626 50.9209C88.8934 50.0908 88.5088 48.9619 88.5088 47.5342V47.4263ZM90.9077 47.6006C90.9077 48.4528 91.0682 49.1058 91.3892 49.5596C91.7101 50.0078 92.1694 50.2319 92.7671 50.2319C93.3481 50.2319 93.8019 50.0106 94.1284 49.5679C94.4549 49.1196 94.6182 48.4058 94.6182 47.4263C94.6182 46.5907 94.4549 45.9432 94.1284 45.4839C93.8019 45.0246 93.3426 44.7949 92.7505 44.7949C92.1639 44.7949 91.7101 45.0246 91.3892 45.4839C91.0682 45.9377 90.9077 46.6432 90.9077 47.6006ZM103.359 49.5181C103.359 49.2248 103.212 48.9951 102.919 48.8291C102.631 48.6576 102.166 48.5054 101.524 48.3726C99.3883 47.9243 98.3203 47.0168 98.3203 45.6499C98.3203 44.853 98.6496 44.189 99.3081 43.6577C99.9722 43.1209 100.838 42.8525 101.906 42.8525C103.046 42.8525 103.957 43.1209 104.637 43.6577C105.323 44.1945 105.667 44.8918 105.667 45.7495H103.268C103.268 45.4064 103.157 45.1242 102.936 44.9028C102.714 44.6759 102.368 44.5625 101.898 44.5625C101.494 44.5625 101.181 44.6538 100.96 44.8364C100.739 45.019 100.628 45.2515 100.628 45.5337C100.628 45.7993 100.752 46.0151 101.001 46.1812C101.256 46.3416 101.682 46.4827 102.28 46.6045C102.877 46.7207 103.381 46.8535 103.791 47.0029C105.058 47.4678 105.691 48.2729 105.691 49.4185C105.691 50.2375 105.34 50.9015 104.637 51.4106C103.934 51.9142 103.027 52.166 101.915 52.166C101.162 52.166 100.492 52.0332 99.9058 51.7676C99.3247 51.4964 98.8682 51.1284 98.5361 50.6636C98.2041 50.1932 98.0381 49.6868 98.0381 49.1445H100.312C100.335 49.5706 100.492 49.8971 100.786 50.124C101.079 50.3509 101.472 50.4644 101.964 50.4644C102.424 50.4644 102.77 50.3786 103.002 50.207C103.24 50.0299 103.359 49.8003 103.359 49.5181ZM107.368 50.8213C107.368 50.4395 107.495 50.1296 107.75 49.8916C108.01 49.6536 108.334 49.5347 108.721 49.5347C109.114 49.5347 109.438 49.6536 109.692 49.8916C109.952 50.1296 110.083 50.4395 110.083 50.8213C110.083 51.1976 109.955 51.5047 109.701 51.7427C109.446 51.9751 109.12 52.0913 108.721 52.0913C108.328 52.0913 108.005 51.9751 107.75 51.7427C107.495 51.5047 107.368 51.1976 107.368 50.8213Z" fill="#FAFAFA"/>
<path d="M34.7539 72.2285H30.0986V76.2891H35.4512V77H29.2578V67.0469H35.417V67.7646H30.0986V71.5176H34.7539V72.2285ZM37.9531 77H37.1328V66.5H37.9531V77ZM49.5332 73.377C49.5332 74.5299 49.278 75.446 48.7676 76.125C48.2572 76.7995 47.5736 77.1367 46.7168 77.1367C45.7051 77.1367 44.9303 76.7812 44.3926 76.0703V79.8438H43.5791V69.6035H44.3379L44.3789 70.6494C44.9121 69.861 45.6846 69.4668 46.6963 69.4668C47.5804 69.4668 48.2731 69.8018 48.7744 70.4717C49.2803 71.1416 49.5332 72.0713 49.5332 73.2607V73.377ZM48.7129 73.2334C48.7129 72.29 48.5192 71.5449 48.1318 70.998C47.7445 70.4512 47.2044 70.1777 46.5117 70.1777C46.0104 70.1777 45.5798 70.2985 45.2197 70.54C44.8597 70.7816 44.584 71.1325 44.3926 71.5928V75.1406C44.5885 75.5645 44.8688 75.888 45.2334 76.1113C45.598 76.3346 46.0286 76.4463 46.5254 76.4463C47.2135 76.4463 47.749 76.1729 48.1318 75.626C48.5192 75.0745 48.7129 74.277 48.7129 73.2334ZM54.7695 70.3008C54.5964 70.2689 54.4118 70.2529 54.2158 70.2529C53.7054 70.2529 53.2725 70.3965 52.917 70.6836C52.5661 70.9661 52.3154 71.3786 52.165 71.9209V77H51.3516V69.6035H52.1514L52.165 70.7793C52.598 69.9043 53.293 69.4668 54.25 69.4668C54.4779 69.4668 54.6579 69.4964 54.79 69.5557L54.7695 70.3008ZM55.4805 73.1924C55.4805 72.4814 55.6172 71.8411 55.8906 71.2715C56.1686 70.7018 56.5583 70.2598 57.0596 69.9453C57.5654 69.6263 58.1374 69.4668 58.7754 69.4668C59.7598 69.4668 60.5573 69.8132 61.168 70.5059C61.7786 71.194 62.084 72.1077 62.084 73.2471V73.418C62.084 74.1335 61.945 74.7783 61.667 75.3525C61.3936 75.9222 61.0062 76.362 60.5049 76.6719C60.0036 76.9818 59.4316 77.1367 58.7891 77.1367C57.8092 77.1367 57.0117 76.7926 56.3965 76.1045C55.7858 75.4118 55.4805 74.4958 55.4805 73.3564V73.1924ZM56.3008 73.418C56.3008 74.3021 56.5286 75.029 56.9844 75.5986C57.4447 76.1637 58.0462 76.4463 58.7891 76.4463C59.5273 76.4463 60.1243 76.1637 60.5801 75.5986C61.0404 75.029 61.2705 74.2793 61.2705 73.3496V73.1924C61.2705 72.6273 61.1657 72.11 60.9561 71.6406C60.7464 71.1712 60.4525 70.8089 60.0742 70.5537C59.696 70.2939 59.263 70.1641 58.7754 70.1641C58.0462 70.1641 57.4515 70.4512 56.9912 71.0254C56.5309 71.5951 56.3008 72.3424 56.3008 73.2676V73.418ZM66.0146 75.8242L68.1748 69.6035H69.0566L65.8984 78.2578L65.7344 78.6406C65.3288 79.5384 64.7021 79.9873 63.8545 79.9873C63.6585 79.9873 63.4489 79.9554 63.2256 79.8916L63.2188 79.2148L63.6426 79.2559C64.0436 79.2559 64.3672 79.1556 64.6133 78.9551C64.8639 78.7591 65.0758 78.4196 65.249 77.9365L65.6113 76.9385L62.8223 69.6035H63.7178L66.0146 75.8242ZM73.0967 77.1367C72.4678 77.1367 71.8981 76.9818 71.3877 76.6719C70.8818 76.362 70.4876 75.9313 70.2051 75.3799C69.9225 74.8239 69.7812 74.2018 69.7812 73.5137V73.2197C69.7812 72.5088 69.918 71.8685 70.1914 71.2988C70.4694 70.7292 70.8545 70.2826 71.3467 69.959C71.8389 69.6309 72.3721 69.4668 72.9463 69.4668C73.8441 69.4668 74.555 69.7744 75.0791 70.3896C75.6077 71.0003 75.8721 71.8366 75.8721 72.8984V73.3564H70.5947V73.5137C70.5947 74.3522 70.834 75.0518 71.3125 75.6123C71.7956 76.1683 72.4017 76.4463 73.1309 76.4463C73.5684 76.4463 73.9535 76.3665 74.2861 76.207C74.6234 76.0475 74.9287 75.7923 75.2021 75.4414L75.7148 75.8311C75.1133 76.7015 74.2406 77.1367 73.0967 77.1367ZM72.9463 70.1641C72.3311 70.1641 71.8115 70.3896 71.3877 70.8408C70.9684 71.292 70.7132 71.8981 70.6221 72.6592H75.0586V72.5703C75.0358 71.8594 74.833 71.2806 74.4502 70.834C74.0674 70.3874 73.5661 70.1641 72.9463 70.1641ZM80.1992 76.4463C80.7689 76.4463 81.2451 76.2868 81.6279 75.9678C82.0153 75.6442 82.2249 75.2272 82.2568 74.7168H83.043C83.0202 75.168 82.8789 75.5804 82.6191 75.9541C82.3594 76.3232 82.013 76.6126 81.5801 76.8223C81.1517 77.0319 80.6914 77.1367 80.1992 77.1367C79.2285 77.1367 78.4583 76.7995 77.8887 76.125C77.3236 75.4505 77.041 74.5436 77.041 73.4043V73.1582C77.041 72.429 77.1686 71.7842 77.4238 71.2236C77.679 70.6631 78.0436 70.2301 78.5176 69.9248C78.9961 69.6195 79.5544 69.4668 80.1924 69.4668C81.0036 69.4668 81.6712 69.7083 82.1953 70.1914C82.724 70.6745 83.0065 71.3102 83.043 72.0986H82.2568C82.2204 71.5199 82.0107 71.0527 81.6279 70.6973C81.2497 70.3418 80.7712 70.1641 80.1924 70.1641C79.4541 70.1641 78.8799 70.4307 78.4697 70.9639C78.0641 71.4971 77.8613 72.2445 77.8613 73.2061V73.4453C77.8613 74.3887 78.0641 75.1247 78.4697 75.6533C78.8799 76.182 79.4564 76.4463 80.1992 76.4463ZM85.9551 67.71V69.6035H87.4863V70.2734H85.9551V75.2021C85.9551 75.6123 86.028 75.9176 86.1738 76.1182C86.3242 76.3187 86.5726 76.4189 86.9189 76.4189C87.0557 76.4189 87.2767 76.3962 87.582 76.3506L87.6162 77.0205C87.402 77.098 87.1104 77.1367 86.7412 77.1367C86.1807 77.1367 85.7728 76.9749 85.5176 76.6514C85.2624 76.3232 85.1348 75.8424 85.1348 75.209V70.2734H83.7744V69.6035H85.1348V67.71H85.9551ZM88.5938 73.1924C88.5938 72.4814 88.7305 71.8411 89.0039 71.2715C89.2819 70.7018 89.6715 70.2598 90.1729 69.9453C90.6787 69.6263 91.2507 69.4668 91.8887 69.4668C92.873 69.4668 93.6706 69.8132 94.2812 70.5059C94.8919 71.194 95.1973 72.1077 95.1973 73.2471V73.418C95.1973 74.1335 95.0583 74.7783 94.7803 75.3525C94.5068 75.9222 94.1195 76.362 93.6182 76.6719C93.1169 76.9818 92.5449 77.1367 91.9023 77.1367C90.9225 77.1367 90.125 76.7926 89.5098 76.1045C88.8991 75.4118 88.5938 74.4958 88.5938 73.3564V73.1924ZM89.4141 73.418C89.4141 74.3021 89.6419 75.029 90.0977 75.5986C90.5579 76.1637 91.1595 76.4463 91.9023 76.4463C92.6406 76.4463 93.2376 76.1637 93.6934 75.5986C94.1536 75.029 94.3838 74.2793 94.3838 73.3496V73.1924C94.3838 72.6273 94.279 72.11 94.0693 71.6406C93.8597 71.1712 93.5658 70.8089 93.1875 70.5537C92.8092 70.2939 92.3763 70.1641 91.8887 70.1641C91.1595 70.1641 90.5648 70.4512 90.1045 71.0254C89.6442 71.5951 89.4141 72.3424 89.4141 73.2676V73.418ZM106.244 73.377C106.244 74.5299 105.989 75.446 105.479 76.125C104.968 76.7995 104.285 77.1367 103.428 77.1367C102.416 77.1367 101.641 76.7812 101.104 76.0703V79.8438H100.29V69.6035H101.049L101.09 70.6494C101.623 69.861 102.396 69.4668 103.407 69.4668C104.291 69.4668 104.984 69.8018 105.485 70.4717C105.991 71.1416 106.244 72.0713 106.244 73.2607V73.377ZM105.424 73.2334C105.424 72.29 105.23 71.5449 104.843 70.998C104.455 70.4512 103.915 70.1777 103.223 70.1777C102.721 70.1777 102.291 70.2985 101.931 70.54C101.571 70.7816 101.295 71.1325 101.104 71.5928V75.1406C101.299 75.5645 101.58 75.888 101.944 76.1113C102.309 76.3346 102.74 76.4463 103.236 76.4463C103.924 76.4463 104.46 76.1729 104.843 75.626C105.23 75.0745 105.424 74.277 105.424 73.2334ZM111.48 70.3008C111.307 70.2689 111.123 70.2529 110.927 70.2529C110.416 70.2529 109.983 70.3965 109.628 70.6836C109.277 70.9661 109.026 71.3786 108.876 71.9209V77H108.062V69.6035H108.862L108.876 70.7793C109.309 69.9043 110.004 69.4668 110.961 69.4668C111.189 69.4668 111.369 69.4964 111.501 69.5557L111.48 70.3008ZM115.507 77.1367C114.878 77.1367 114.308 76.9818 113.798 76.6719C113.292 76.362 112.898 75.9313 112.615 75.3799C112.333 74.8239 112.191 74.2018 112.191 73.5137V73.2197C112.191 72.5088 112.328 71.8685 112.602 71.2988C112.88 70.7292 113.265 70.2826 113.757 69.959C114.249 69.6309 114.782 69.4668 115.356 69.4668C116.254 69.4668 116.965 69.7744 117.489 70.3896C118.018 71.0003 118.282 71.8366 118.282 72.8984V73.3564H113.005V73.5137C113.005 74.3522 113.244 75.0518 113.723 75.6123C114.206 76.1683 114.812 76.4463 115.541 76.4463C115.979 76.4463 116.364 76.3665 116.696 76.207C117.034 76.0475 117.339 75.7923 117.612 75.4414L118.125 75.8311C117.523 76.7015 116.651 77.1367 115.507 77.1367ZM115.356 70.1641C114.741 70.1641 114.222 70.3896 113.798 70.8408C113.379 71.292 113.123 71.8981 113.032 72.6592H117.469V72.5703C117.446 71.8594 117.243 71.2806 116.86 70.834C116.478 70.3874 115.976 70.1641 115.356 70.1641ZM121.146 67.71V69.6035H122.678V70.2734H121.146V75.2021C121.146 75.6123 121.219 75.9176 121.365 76.1182C121.516 76.3187 121.764 76.4189 122.11 76.4189C122.247 76.4189 122.468 76.3962 122.773 76.3506L122.808 77.0205C122.593 77.098 122.302 77.1367 121.933 77.1367C121.372 77.1367 120.964 76.9749 120.709 76.6514C120.454 76.3232 120.326 75.8424 120.326 75.209V70.2734H118.966V69.6035H120.326V67.71H121.146ZM127.237 77.1367C126.608 77.1367 126.039 76.9818 125.528 76.6719C125.022 76.362 124.628 75.9313 124.346 75.3799C124.063 74.8239 123.922 74.2018 123.922 73.5137V73.2197C123.922 72.5088 124.059 71.8685 124.332 71.2988C124.61 70.7292 124.995 70.2826 125.487 69.959C125.979 69.6309 126.513 69.4668 127.087 69.4668C127.985 69.4668 128.696 69.7744 129.22 70.3896C129.748 71.0003 130.013 71.8366 130.013 72.8984V73.3564H124.735V73.5137C124.735 74.3522 124.975 75.0518 125.453 75.6123C125.936 76.1683 126.542 76.4463 127.271 76.4463C127.709 76.4463 128.094 76.3665 128.427 76.207C128.764 76.0475 129.069 75.7923 129.343 75.4414L129.855 75.8311C129.254 76.7015 128.381 77.1367 127.237 77.1367ZM127.087 70.1641C126.472 70.1641 125.952 70.3896 125.528 70.8408C125.109 71.292 124.854 71.8981 124.763 72.6592H129.199V72.5703C129.176 71.8594 128.974 71.2806 128.591 70.834C128.208 70.3874 127.707 70.1641 127.087 70.1641ZM132.385 69.6035L132.412 70.8682C132.69 70.4124 133.036 70.0661 133.451 69.8291C133.866 69.5876 134.324 69.4668 134.825 69.4668C135.618 69.4668 136.208 69.6901 136.596 70.1367C136.983 70.5833 137.179 71.2533 137.184 72.1465V77H136.37V72.1396C136.366 71.4788 136.224 70.9867 135.946 70.6631C135.673 70.3395 135.233 70.1777 134.627 70.1777C134.121 70.1777 133.672 70.3372 133.28 70.6562C132.893 70.9707 132.606 71.3968 132.419 71.9346V77H131.605V69.6035H132.385ZM138.975 73.2334C138.975 72.085 139.23 71.1712 139.74 70.4922C140.255 69.8086 140.952 69.4668 141.832 69.4668C142.83 69.4668 143.591 69.861 144.115 70.6494V66.5H144.929V77H144.163L144.129 76.0156C143.605 76.763 142.835 77.1367 141.818 77.1367C140.966 77.1367 140.278 76.7949 139.754 76.1113C139.234 75.4232 138.975 74.4958 138.975 73.3291V73.2334ZM139.802 73.377C139.802 74.3203 139.991 75.0654 140.369 75.6123C140.747 76.1546 141.281 76.4258 141.969 76.4258C142.976 76.4258 143.691 75.9814 144.115 75.0928V71.6201C143.691 70.6585 142.98 70.1777 141.982 70.1777C141.294 70.1777 140.759 70.4489 140.376 70.9912C139.993 71.529 139.802 72.3242 139.802 73.377ZM149.946 77.1367C149.317 77.1367 148.748 76.9818 148.237 76.6719C147.731 76.362 147.337 75.9313 147.055 75.3799C146.772 74.8239 146.631 74.2018 146.631 73.5137V73.2197C146.631 72.5088 146.768 71.8685 147.041 71.2988C147.319 70.7292 147.704 70.2826 148.196 69.959C148.688 69.6309 149.222 69.4668 149.796 69.4668C150.694 69.4668 151.405 69.7744 151.929 70.3896C152.457 71.0003 152.722 71.8366 152.722 72.8984V73.3564H147.444V73.5137C147.444 74.3522 147.684 75.0518 148.162 75.6123C148.645 76.1683 149.251 76.4463 149.98 76.4463C150.418 76.4463 150.803 76.3665 151.136 76.207C151.473 76.0475 151.778 75.7923 152.052 75.4414L152.564 75.8311C151.963 76.7015 151.09 77.1367 149.946 77.1367ZM149.796 70.1641C149.181 70.1641 148.661 70.3896 148.237 70.8408C147.818 71.292 147.563 71.8981 147.472 72.6592H151.908V72.5703C151.885 71.8594 151.683 71.2806 151.3 70.834C150.917 70.3874 150.416 70.1641 149.796 70.1641ZM160.583 77.1367C159.954 77.1367 159.384 76.9818 158.874 76.6719C158.368 76.362 157.974 75.9313 157.691 75.3799C157.409 74.8239 157.268 74.2018 157.268 73.5137V73.2197C157.268 72.5088 157.404 71.8685 157.678 71.2988C157.956 70.7292 158.341 70.2826 158.833 69.959C159.325 69.6309 159.858 69.4668 160.433 69.4668C161.33 69.4668 162.041 69.7744 162.565 70.3896C163.094 71.0003 163.358 71.8366 163.358 72.8984V73.3564H158.081V73.5137C158.081 74.3522 158.32 75.0518 158.799 75.6123C159.282 76.1683 159.888 76.4463 160.617 76.4463C161.055 76.4463 161.44 76.3665 161.772 76.207C162.11 76.0475 162.415 75.7923 162.688 75.4414L163.201 75.8311C162.6 76.7015 161.727 77.1367 160.583 77.1367ZM160.433 70.1641C159.817 70.1641 159.298 70.3896 158.874 70.8408C158.455 71.292 158.2 71.8981 158.108 72.6592H162.545V72.5703C162.522 71.8594 162.319 71.2806 161.937 70.834C161.554 70.3874 161.052 70.1641 160.433 70.1641ZM169.381 75.1201C169.381 74.7145 169.217 74.3887 168.889 74.1426C168.565 73.8965 168.075 73.7051 167.419 73.5684C166.763 73.4271 166.252 73.2676 165.888 73.0898C165.528 72.9076 165.259 72.6865 165.081 72.4268C164.908 72.167 164.821 71.8525 164.821 71.4834C164.821 70.9001 165.065 70.4193 165.553 70.041C166.04 69.6582 166.665 69.4668 167.426 69.4668C168.251 69.4668 168.911 69.6719 169.408 70.082C169.91 70.4876 170.16 71.0186 170.16 71.6748H169.34C169.34 71.2419 169.158 70.8818 168.793 70.5947C168.433 70.3076 167.977 70.1641 167.426 70.1641C166.888 70.1641 166.455 70.2848 166.127 70.5264C165.803 70.7633 165.642 71.0732 165.642 71.4561C165.642 71.8252 165.776 72.1123 166.045 72.3174C166.318 72.5179 166.813 72.7025 167.528 72.8711C168.248 73.0397 168.786 73.2197 169.142 73.4111C169.502 73.6025 169.768 73.8327 169.941 74.1016C170.115 74.3704 170.201 74.6963 170.201 75.0791C170.201 75.7035 169.948 76.2025 169.442 76.5762C168.941 76.9499 168.285 77.1367 167.474 77.1367C166.612 77.1367 165.913 76.9294 165.375 76.5146C164.842 76.0954 164.575 75.5667 164.575 74.9287H165.396C165.427 75.4072 165.628 75.7809 165.997 76.0498C166.371 76.3141 166.863 76.4463 167.474 76.4463C168.043 76.4463 168.504 76.321 168.854 76.0703C169.205 75.8197 169.381 75.5029 169.381 75.1201ZM173.318 67.71V69.6035H174.85V70.2734H173.318V75.2021C173.318 75.6123 173.391 75.9176 173.537 76.1182C173.688 76.3187 173.936 76.4189 174.282 76.4189C174.419 76.4189 174.64 76.3962 174.945 76.3506L174.979 77.0205C174.765 77.098 174.474 77.1367 174.104 77.1367C173.544 77.1367 173.136 76.9749 172.881 76.6514C172.626 76.3232 172.498 75.8424 172.498 75.209V70.2734H171.138V69.6035H172.498V67.71H173.318ZM181.303 76.0635C180.811 76.779 180.024 77.1367 178.944 77.1367C178.156 77.1367 177.557 76.9089 177.146 76.4531C176.736 75.9928 176.527 75.3138 176.518 74.416V69.6035H177.331V74.3135C177.331 75.7217 177.901 76.4258 179.04 76.4258C180.225 76.4258 180.975 75.9359 181.289 74.9561V69.6035H182.109V77H181.316L181.303 76.0635ZM183.914 73.2334C183.914 72.085 184.169 71.1712 184.68 70.4922C185.195 69.8086 185.892 69.4668 186.771 69.4668C187.77 69.4668 188.531 69.861 189.055 70.6494V66.5H189.868V77H189.103L189.068 76.0156C188.544 76.763 187.774 77.1367 186.758 77.1367C185.906 77.1367 185.217 76.7949 184.693 76.1113C184.174 75.4232 183.914 74.4958 183.914 73.3291V73.2334ZM184.741 73.377C184.741 74.3203 184.93 75.0654 185.309 75.6123C185.687 76.1546 186.22 76.4258 186.908 76.4258C187.915 76.4258 188.631 75.9814 189.055 75.0928V71.6201C188.631 70.6585 187.92 70.1777 186.922 70.1777C186.234 70.1777 185.698 70.4489 185.315 70.9912C184.933 71.529 184.741 72.3242 184.741 73.377ZM192.938 77H192.117V69.6035H192.938V77ZM191.974 67.4639C191.974 67.3089 192.024 67.179 192.124 67.0742C192.224 66.9648 192.361 66.9102 192.534 66.9102C192.707 66.9102 192.844 66.9648 192.944 67.0742C193.049 67.179 193.102 67.3089 193.102 67.4639C193.102 67.6188 193.049 67.7487 192.944 67.8535C192.844 67.9583 192.707 68.0107 192.534 68.0107C192.361 68.0107 192.224 67.9583 192.124 67.8535C192.024 67.7487 191.974 67.6188 191.974 67.4639ZM199.835 77C199.753 76.7676 199.701 76.4235 199.678 75.9678C199.391 76.3415 199.024 76.6309 198.577 76.8359C198.135 77.0365 197.666 77.1367 197.169 77.1367C196.458 77.1367 195.882 76.9385 195.439 76.542C195.002 76.1455 194.783 75.6442 194.783 75.0381C194.783 74.318 195.082 73.7484 195.679 73.3291C196.28 72.9098 197.117 72.7002 198.188 72.7002H199.671V71.8594C199.671 71.3307 199.507 70.916 199.179 70.6152C198.855 70.3099 198.381 70.1572 197.757 70.1572C197.187 70.1572 196.715 70.3031 196.342 70.5947C195.968 70.8864 195.781 71.2373 195.781 71.6475L194.961 71.6406C194.961 71.0527 195.234 70.5446 195.781 70.1162C196.328 69.6833 197 69.4668 197.798 69.4668C198.623 69.4668 199.272 69.6742 199.746 70.0889C200.225 70.499 200.471 71.0732 200.484 71.8115V75.3115C200.484 76.027 200.56 76.5625 200.71 76.918V77H199.835ZM197.265 76.4121C197.812 76.4121 198.299 76.2799 198.728 76.0156C199.16 75.7513 199.475 75.3981 199.671 74.9561V73.3291H198.208C197.392 73.3382 196.754 73.4886 196.294 73.7803C195.834 74.0674 195.604 74.4639 195.604 74.9697C195.604 75.3844 195.756 75.7285 196.062 76.002C196.371 76.2754 196.772 76.4121 197.265 76.4121ZM206.09 70.3008C205.917 70.2689 205.732 70.2529 205.536 70.2529C205.026 70.2529 204.593 70.3965 204.237 70.6836C203.886 70.9661 203.636 71.3786 203.485 71.9209V77H202.672V69.6035H203.472L203.485 70.7793C203.918 69.9043 204.613 69.4668 205.57 69.4668C205.798 69.4668 205.978 69.4964 206.11 69.5557L206.09 70.3008ZM211.709 77H210.889V66.5H211.709V77ZM213.486 73.1924C213.486 72.4814 213.623 71.8411 213.896 71.2715C214.174 70.7018 214.564 70.2598 215.065 69.9453C215.571 69.6263 216.143 69.4668 216.781 69.4668C217.766 69.4668 218.563 69.8132 219.174 70.5059C219.785 71.194 220.09 72.1077 220.09 73.2471V73.418C220.09 74.1335 219.951 74.7783 219.673 75.3525C219.399 75.9222 219.012 76.362 218.511 76.6719C218.009 76.9818 217.438 77.1367 216.795 77.1367C215.815 77.1367 215.018 76.7926 214.402 76.1045C213.792 75.4118 213.486 74.4958 213.486 73.3564V73.1924ZM214.307 73.418C214.307 74.3021 214.535 75.029 214.99 75.5986C215.451 76.1637 216.052 76.4463 216.795 76.4463C217.533 76.4463 218.13 76.1637 218.586 75.5986C219.046 75.029 219.276 74.2793 219.276 73.3496V73.1924C219.276 72.6273 219.172 72.11 218.962 71.6406C218.752 71.1712 218.458 70.8089 218.08 70.5537C217.702 70.2939 217.269 70.1641 216.781 70.1641C216.052 70.1641 215.457 70.4512 214.997 71.0254C214.537 71.5951 214.307 72.3424 214.307 73.2676V73.418ZM226.215 75.1201C226.215 74.7145 226.051 74.3887 225.723 74.1426C225.399 73.8965 224.909 73.7051 224.253 73.5684C223.597 73.4271 223.086 73.2676 222.722 73.0898C222.362 72.9076 222.093 72.6865 221.915 72.4268C221.742 72.167 221.655 71.8525 221.655 71.4834C221.655 70.9001 221.899 70.4193 222.387 70.041C222.874 69.6582 223.499 69.4668 224.26 69.4668C225.085 69.4668 225.745 69.6719 226.242 70.082C226.743 70.4876 226.994 71.0186 226.994 71.6748H226.174C226.174 71.2419 225.992 70.8818 225.627 70.5947C225.267 70.3076 224.811 70.1641 224.26 70.1641C223.722 70.1641 223.289 70.2848 222.961 70.5264C222.637 70.7633 222.476 71.0732 222.476 71.4561C222.476 71.8252 222.61 72.1123 222.879 72.3174C223.152 72.5179 223.647 72.7025 224.362 72.8711C225.082 73.0397 225.62 73.2197 225.976 73.4111C226.336 73.6025 226.602 73.8327 226.775 74.1016C226.949 74.3704 227.035 74.6963 227.035 75.0791C227.035 75.7035 226.782 76.2025 226.276 76.5762C225.775 76.9499 225.119 77.1367 224.308 77.1367C223.446 77.1367 222.747 76.9294 222.209 76.5146C221.676 76.0954 221.409 75.5667 221.409 74.9287H222.229C222.261 75.4072 222.462 75.7809 222.831 76.0498C223.205 76.3141 223.697 76.4463 224.308 76.4463C224.877 76.4463 225.338 76.321 225.688 76.0703C226.039 75.8197 226.215 75.5029 226.215 75.1201ZM238.232 73.377C238.232 74.5299 237.977 75.446 237.467 76.125C236.956 76.7995 236.273 77.1367 235.416 77.1367C234.404 77.1367 233.63 76.7812 233.092 76.0703V79.8438H232.278V69.6035H233.037L233.078 70.6494C233.611 69.861 234.384 69.4668 235.396 69.4668C236.28 69.4668 236.972 69.8018 237.474 70.4717C237.979 71.1416 238.232 72.0713 238.232 73.2607V73.377ZM237.412 73.2334C237.412 72.29 237.218 71.5449 236.831 70.998C236.444 70.4512 235.904 70.1777 235.211 70.1777C234.71 70.1777 234.279 70.2985 233.919 70.54C233.559 70.7816 233.283 71.1325 233.092 71.5928V75.1406C233.288 75.5645 233.568 75.888 233.933 76.1113C234.297 76.3346 234.728 76.4463 235.225 76.4463C235.913 76.4463 236.448 76.1729 236.831 75.626C237.218 75.0745 237.412 74.277 237.412 73.2334ZM244.72 77C244.638 76.7676 244.585 76.4235 244.562 75.9678C244.275 76.3415 243.909 76.6309 243.462 76.8359C243.02 77.0365 242.55 77.1367 242.054 77.1367C241.343 77.1367 240.766 76.9385 240.324 76.542C239.887 76.1455 239.668 75.6442 239.668 75.0381C239.668 74.318 239.966 73.7484 240.563 73.3291C241.165 72.9098 242.001 72.7002 243.072 72.7002H244.556V71.8594C244.556 71.3307 244.392 70.916 244.063 70.6152C243.74 70.3099 243.266 70.1572 242.642 70.1572C242.072 70.1572 241.6 70.3031 241.227 70.5947C240.853 70.8864 240.666 71.2373 240.666 71.6475L239.846 71.6406C239.846 71.0527 240.119 70.5446 240.666 70.1162C241.213 69.6833 241.885 69.4668 242.683 69.4668C243.507 69.4668 244.157 69.6742 244.631 70.0889C245.109 70.499 245.355 71.0732 245.369 71.8115V75.3115C245.369 76.027 245.444 76.5625 245.595 76.918V77H244.72ZM242.149 76.4121C242.696 76.4121 243.184 76.2799 243.612 76.0156C244.045 75.7513 244.36 75.3981 244.556 74.9561V73.3291H243.093C242.277 73.3382 241.639 73.4886 241.179 73.7803C240.718 74.0674 240.488 74.4639 240.488 74.9697C240.488 75.3844 240.641 75.7285 240.946 76.002C241.256 76.2754 241.657 76.4121 242.149 76.4121ZM248.828 67.71V69.6035H250.359V70.2734H248.828V75.2021C248.828 75.6123 248.901 75.9176 249.047 76.1182C249.197 76.3187 249.446 76.4189 249.792 76.4189C249.929 76.4189 250.15 76.3962 250.455 76.3506L250.489 77.0205C250.275 77.098 249.983 77.1367 249.614 77.1367C249.054 77.1367 248.646 76.9749 248.391 76.6514C248.135 76.3232 248.008 75.8424 248.008 75.209V70.2734H246.647V69.6035H248.008V67.71H248.828ZM255.473 70.3008C255.299 70.2689 255.115 70.2529 254.919 70.2529C254.409 70.2529 253.976 70.3965 253.62 70.6836C253.269 70.9661 253.019 71.3786 252.868 71.9209V77H252.055V69.6035H252.854L252.868 70.7793C253.301 69.9043 253.996 69.4668 254.953 69.4668C255.181 69.4668 255.361 69.4964 255.493 69.5557L255.473 70.3008ZM256.184 73.1924C256.184 72.4814 256.32 71.8411 256.594 71.2715C256.872 70.7018 257.261 70.2598 257.763 69.9453C258.269 69.6263 258.84 69.4668 259.479 69.4668C260.463 69.4668 261.26 69.8132 261.871 70.5059C262.482 71.194 262.787 72.1077 262.787 73.2471V73.418C262.787 74.1335 262.648 74.7783 262.37 75.3525C262.097 75.9222 261.709 76.362 261.208 76.6719C260.707 76.9818 260.135 77.1367 259.492 77.1367C258.512 77.1367 257.715 76.7926 257.1 76.1045C256.489 75.4118 256.184 74.4958 256.184 73.3564V73.1924ZM257.004 73.418C257.004 74.3021 257.232 75.029 257.688 75.5986C258.148 76.1637 258.749 76.4463 259.492 76.4463C260.23 76.4463 260.827 76.1637 261.283 75.5986C261.743 75.029 261.974 74.2793 261.974 73.3496V73.1924C261.974 72.6273 261.869 72.11 261.659 71.6406C261.45 71.1712 261.156 70.8089 260.777 70.5537C260.399 70.2939 259.966 70.1641 259.479 70.1641C258.749 70.1641 258.155 70.4512 257.694 71.0254C257.234 71.5951 257.004 72.3424 257.004 73.2676V73.418ZM265.262 69.6035L265.289 70.8682C265.567 70.4124 265.913 70.0661 266.328 69.8291C266.743 69.5876 267.201 69.4668 267.702 69.4668C268.495 69.4668 269.085 69.6901 269.473 70.1367C269.86 70.5833 270.056 71.2533 270.061 72.1465V77H269.247V72.1396C269.243 71.4788 269.101 70.9867 268.823 70.6631C268.55 70.3395 268.11 70.1777 267.504 70.1777C266.998 70.1777 266.549 70.3372 266.157 70.6562C265.77 70.9707 265.483 71.3968 265.296 71.9346V77H264.482V69.6035H265.262ZM275.044 77.1367C274.415 77.1367 273.845 76.9818 273.335 76.6719C272.829 76.362 272.435 75.9313 272.152 75.3799C271.87 74.8239 271.729 74.2018 271.729 73.5137V73.2197C271.729 72.5088 271.865 71.8685 272.139 71.2988C272.417 70.7292 272.802 70.2826 273.294 69.959C273.786 69.6309 274.319 69.4668 274.894 69.4668C275.791 69.4668 276.502 69.7744 277.026 70.3896C277.555 71.0003 277.819 71.8366 277.819 72.8984V73.3564H272.542V73.5137C272.542 74.3522 272.781 75.0518 273.26 75.6123C273.743 76.1683 274.349 76.4463 275.078 76.4463C275.516 76.4463 275.901 76.3665 276.233 76.207C276.571 76.0475 276.876 75.7923 277.149 75.4414L277.662 75.8311C277.061 76.7015 276.188 77.1367 275.044 77.1367ZM274.894 70.1641C274.278 70.1641 273.759 70.3896 273.335 70.8408C272.916 71.292 272.66 71.8981 272.569 72.6592H277.006V72.5703C276.983 71.8594 276.78 71.2806 276.397 70.834C276.015 70.3874 275.513 70.1641 274.894 70.1641ZM283.842 75.1201C283.842 74.7145 283.678 74.3887 283.35 74.1426C283.026 73.8965 282.536 73.7051 281.88 73.5684C281.224 73.4271 280.713 73.2676 280.349 73.0898C279.989 72.9076 279.72 72.6865 279.542 72.4268C279.369 72.167 279.282 71.8525 279.282 71.4834C279.282 70.9001 279.526 70.4193 280.014 70.041C280.501 69.6582 281.126 69.4668 281.887 69.4668C282.712 69.4668 283.372 69.6719 283.869 70.082C284.37 70.4876 284.621 71.0186 284.621 71.6748H283.801C283.801 71.2419 283.618 70.8818 283.254 70.5947C282.894 70.3076 282.438 70.1641 281.887 70.1641C281.349 70.1641 280.916 70.2848 280.588 70.5264C280.264 70.7633 280.103 71.0732 280.103 71.4561C280.103 71.8252 280.237 72.1123 280.506 72.3174C280.779 72.5179 281.274 72.7025 281.989 72.8711C282.709 73.0397 283.247 73.2197 283.603 73.4111C283.963 73.6025 284.229 73.8327 284.402 74.1016C284.576 74.3704 284.662 74.6963 284.662 75.0791C284.662 75.7035 284.409 76.2025 283.903 76.5762C283.402 76.9499 282.746 77.1367 281.935 77.1367C281.073 77.1367 280.374 76.9294 279.836 76.5146C279.303 76.0954 279.036 75.5667 279.036 74.9287H279.856C279.888 75.4072 280.089 75.7809 280.458 76.0498C280.832 76.3141 281.324 76.4463 281.935 76.4463C282.504 76.4463 282.965 76.321 283.315 76.0703C283.666 75.8197 283.842 75.5029 283.842 75.1201ZM289.584 73.2334C289.584 72.085 289.839 71.1712 290.35 70.4922C290.865 69.8086 291.562 69.4668 292.441 69.4668C293.439 69.4668 294.201 69.861 294.725 70.6494V66.5H295.538V77H294.772L294.738 76.0156C294.214 76.763 293.444 77.1367 292.428 77.1367C291.576 77.1367 290.887 76.7949 290.363 76.1113C289.844 75.4232 289.584 74.4958 289.584 73.3291V73.2334ZM290.411 73.377C290.411 74.3203 290.6 75.0654 290.979 75.6123C291.357 76.1546 291.89 76.4258 292.578 76.4258C293.585 76.4258 294.301 75.9814 294.725 75.0928V71.6201C294.301 70.6585 293.59 70.1777 292.592 70.1777C291.904 70.1777 291.368 70.4489 290.985 70.9912C290.603 71.529 290.411 72.3242 290.411 73.377ZM300.556 77.1367C299.927 77.1367 299.357 76.9818 298.847 76.6719C298.341 76.362 297.947 75.9313 297.664 75.3799C297.382 74.8239 297.24 74.2018 297.24 73.5137V73.2197C297.24 72.5088 297.377 71.8685 297.65 71.2988C297.928 70.7292 298.313 70.2826 298.806 69.959C299.298 69.6309 299.831 69.4668 300.405 69.4668C301.303 69.4668 302.014 69.7744 302.538 70.3896C303.067 71.0003 303.331 71.8366 303.331 72.8984V73.3564H298.054V73.5137C298.054 74.3522 298.293 75.0518 298.771 75.6123C299.255 76.1683 299.861 76.4463 300.59 76.4463C301.027 76.4463 301.412 76.3665 301.745 76.207C302.082 76.0475 302.388 75.7923 302.661 75.4414L303.174 75.8311C302.572 76.7015 301.7 77.1367 300.556 77.1367ZM300.405 70.1641C299.79 70.1641 299.271 70.3896 298.847 70.8408C298.427 71.292 298.172 71.8981 298.081 72.6592H302.518V72.5703C302.495 71.8594 302.292 71.2806 301.909 70.834C301.526 70.3874 301.025 70.1641 300.405 70.1641ZM305.84 77H305.02V66.5H305.84V77ZM317.16 72.2285H312.505V76.2891H317.857V77H311.664V67.0469H317.823V67.7646H312.505V71.5176H317.16V72.2285ZM320.482 76.2891H325.397V77H319.635V67.0469H320.482V76.2891ZM332.527 74.2109H328.009L326.983 77H326.102L329.868 67.0469H330.668L334.435 77H333.56L332.527 74.2109ZM328.269 73.4932H332.261L330.265 68.0723L328.269 73.4932Z" fill="white"/>
<g filter="url(#filter0_d)">
<rect x="27" y="94" width="284" height="5.7542" rx="2.8771" fill="#1F3044"/>
<rect x="27" y="94" width="233" height="5" rx="2.5" fill="#F19174"/>
</g>
<path d="M329.354 92.1191C329.354 92.6514 329.212 93.125 328.929 93.54C328.65 93.9551 328.272 94.2798 327.793 94.5142C328.35 94.7534 328.79 95.1025 329.112 95.5615C329.439 96.0205 329.603 96.5405 329.603 97.1216C329.603 98.0444 329.29 98.7793 328.665 99.3262C328.045 99.873 327.227 100.146 326.211 100.146C325.186 100.146 324.363 99.873 323.743 99.3262C323.128 98.7744 322.82 98.0396 322.82 97.1216C322.82 96.5454 322.977 96.0254 323.289 95.5615C323.606 95.0977 324.043 94.7461 324.6 94.5068C324.126 94.2725 323.753 93.9478 323.479 93.5327C323.206 93.1177 323.069 92.6465 323.069 92.1191C323.069 91.2207 323.357 90.5078 323.934 89.9805C324.51 89.4531 325.269 89.1895 326.211 89.1895C327.149 89.1895 327.906 89.4531 328.482 89.9805C329.063 90.5078 329.354 91.2207 329.354 92.1191ZM328.248 97.0923C328.248 96.4966 328.057 96.0107 327.676 95.6348C327.3 95.2588 326.807 95.0708 326.197 95.0708C325.586 95.0708 325.096 95.2563 324.725 95.6274C324.358 95.9985 324.175 96.4868 324.175 97.0923C324.175 97.6978 324.354 98.1738 324.71 98.5205C325.071 98.8672 325.572 99.0405 326.211 99.0405C326.846 99.0405 327.344 98.8672 327.706 98.5205C328.067 98.1689 328.248 97.6929 328.248 97.0923ZM326.211 90.3027C325.679 90.3027 325.247 90.4688 324.915 90.8008C324.588 91.1279 324.424 91.5747 324.424 92.1411C324.424 92.6831 324.585 93.1226 324.908 93.4595C325.235 93.7915 325.669 93.9575 326.211 93.9575C326.753 93.9575 327.186 93.7915 327.508 93.4595C327.835 93.1226 327.999 92.6831 327.999 92.1411C327.999 91.5991 327.83 91.1572 327.493 90.8154C327.156 90.4736 326.729 90.3027 326.211 90.3027ZM337.996 95.4517C337.996 97.0386 337.725 98.2178 337.183 98.9893C336.641 99.7607 335.794 100.146 334.642 100.146C333.504 100.146 332.662 99.7705 332.115 99.0186C331.568 98.2617 331.285 97.1338 331.265 95.6348V93.8257C331.265 92.2583 331.536 91.0938 332.078 90.332C332.62 89.5703 333.47 89.1895 334.627 89.1895C335.774 89.1895 336.619 89.5581 337.161 90.2954C337.703 91.0278 337.981 92.1606 337.996 93.6938V95.4517ZM336.641 93.5986C336.641 92.4512 336.48 91.6162 336.158 91.0938C335.835 90.5664 335.325 90.3027 334.627 90.3027C333.934 90.3027 333.428 90.564 333.111 91.0864C332.793 91.6089 332.63 92.4121 332.62 93.4961V95.6641C332.62 96.8164 332.786 97.6685 333.118 98.2202C333.455 98.7671 333.963 99.0405 334.642 99.0405C335.311 99.0405 335.806 98.7817 336.128 98.2642C336.456 97.7466 336.626 96.9312 336.641 95.8179V93.5986ZM339.615 91.3867C339.615 90.7471 339.817 90.2197 340.223 89.8047C340.633 89.3896 341.158 89.1821 341.797 89.1821C342.447 89.1821 342.972 89.3921 343.372 89.812C343.777 90.2271 343.98 90.7666 343.98 91.4307V91.9507C343.98 92.5952 343.775 93.1226 343.365 93.5327C342.959 93.938 342.442 94.1406 341.812 94.1406C341.177 94.1406 340.652 93.938 340.237 93.5327C339.822 93.1226 339.615 92.5781 339.615 91.8994V91.3867ZM340.625 91.9507C340.625 92.3315 340.733 92.6465 340.948 92.8955C341.163 93.1396 341.451 93.2617 341.812 93.2617C342.159 93.2617 342.437 93.1421 342.647 92.9028C342.862 92.6636 342.969 92.3364 342.969 91.9214V91.3867C342.969 91.0059 342.864 90.6909 342.654 90.4419C342.444 90.1929 342.159 90.0684 341.797 90.0684C341.436 90.0684 341.15 90.1929 340.94 90.4419C340.73 90.6909 340.625 91.0156 340.625 91.416V91.9507ZM344.808 97.3853C344.808 96.7456 345.01 96.2207 345.416 95.8105C345.826 95.3955 346.351 95.188 346.99 95.188C347.63 95.188 348.155 95.3931 348.565 95.8032C348.975 96.2134 349.18 96.7578 349.18 97.4365V97.9565C349.18 98.5962 348.975 99.1235 348.565 99.5386C348.16 99.9487 347.64 100.154 347.005 100.154C346.37 100.154 345.845 99.9512 345.43 99.5459C345.015 99.1357 344.808 98.5913 344.808 97.9126V97.3853ZM345.818 97.9565C345.818 98.3423 345.926 98.6597 346.141 98.9087C346.355 99.1528 346.644 99.2749 347.005 99.2749C347.356 99.2749 347.637 99.1553 347.847 98.916C348.057 98.6719 348.162 98.3423 348.162 97.9272V97.3853C348.162 96.9995 348.055 96.6846 347.84 96.4404C347.63 96.1963 347.347 96.0742 346.99 96.0742C346.644 96.0742 346.36 96.1963 346.141 96.4404C345.926 96.6797 345.818 97.0044 345.818 97.4146V97.9565ZM342.12 99.1943L341.351 98.7109L346.558 90.376L347.327 90.8594L342.12 99.1943Z" fill="#F19174"/>
<path d="M344.953 16.0425H347.53V17.1533H344.953V20.0732H343.772V17.1533H341.195V16.0425H343.772V13.3447H344.953V16.0425ZM353.465 21H352.29V14.1318H353.465V21ZM352.195 12.3101C352.195 12.1196 352.252 11.9588 352.367 11.8276C352.485 11.6965 352.659 11.6309 352.887 11.6309C353.116 11.6309 353.289 11.6965 353.408 11.8276C353.526 11.9588 353.585 12.1196 353.585 12.3101C353.585 12.5005 353.526 12.6592 353.408 12.7861C353.289 12.9131 353.116 12.9766 352.887 12.9766C352.659 12.9766 352.485 12.9131 352.367 12.7861C352.252 12.6592 352.195 12.5005 352.195 12.3101ZM356.461 14.1318L356.499 14.9951C357.024 14.335 357.709 14.0049 358.556 14.0049C360.007 14.0049 360.739 14.8237 360.752 16.4614V21H359.578V16.4551C359.573 15.96 359.459 15.5939 359.235 15.3569C359.015 15.12 358.67 15.0015 358.2 15.0015C357.819 15.0015 357.485 15.103 357.197 15.3062C356.909 15.5093 356.685 15.7759 356.524 16.106V21H355.35V14.1318H356.461ZM363.101 21V15.0396H362.015V14.1318H363.101V13.4272C363.101 12.6909 363.297 12.1217 363.691 11.7197C364.084 11.3177 364.641 11.1167 365.36 11.1167C365.631 11.1167 365.9 11.1527 366.166 11.2246L366.103 12.1768C365.904 12.1387 365.692 12.1196 365.468 12.1196C365.087 12.1196 364.793 12.2318 364.586 12.4561C364.379 12.6761 364.275 12.9935 364.275 13.4082V14.1318H365.741V15.0396H364.275V21H363.101ZM366.731 17.5024C366.731 16.8296 366.863 16.2244 367.125 15.687C367.392 15.1496 367.76 14.7349 368.229 14.4429C368.703 14.1509 369.243 14.0049 369.848 14.0049C370.783 14.0049 371.539 14.3286 372.114 14.9761C372.694 15.6235 372.984 16.4847 372.984 17.5596V17.6421C372.984 18.3107 372.855 18.9116 372.597 19.4448C372.343 19.9738 371.977 20.3864 371.498 20.6826C371.025 20.9788 370.479 21.127 369.861 21.127C368.93 21.127 368.174 20.8032 367.595 20.1558C367.019 19.5083 366.731 18.6514 366.731 17.585V17.5024ZM367.912 17.6421C367.912 18.4038 368.088 19.0153 368.439 19.4766C368.794 19.9378 369.268 20.1685 369.861 20.1685C370.457 20.1685 370.931 19.9357 371.283 19.4702C371.634 19.0005 371.809 18.3446 371.809 17.5024C371.809 16.7492 371.63 16.1398 371.27 15.6743C370.914 15.2046 370.441 14.9697 369.848 14.9697C369.268 14.9697 368.801 15.2004 368.445 15.6616C368.09 16.1229 367.912 16.783 367.912 17.6421Z" fill="white"/>
<path d="M340.7 22.2695H373.568V22.9043H340.7V22.2695Z" fill="white"/>
<defs>
<filter id="filter0_d" x="23" y="94" width="292" height="13.7542" filterUnits="userSpaceOnUse" color-interpolation-filters="sRGB">
<feFlood flood-opacity="0" result="BackgroundImageFix"/>
<feColorMatrix in="SourceAlpha" type="matrix" values="0 0 0 0 0 0 0 0 0 0 0 0 0 0 0 0 0 0 127 0"/>
<feOffset dy="4"/>
<feGaussianBlur stdDeviation="2"/>
<feColorMatrix type="matrix" values="0 0 0 0 0 0 0 0 0 0 0 0 0 0 0 0 0 0 0.25 0"/>
<feBlend mode="normal" in2="BackgroundImageFix" result="effect1_dropShadow"/>
<feBlend mode="normal" in="SourceGraphic" in2="effect1_dropShadow" result="shape"/>
</filter>
</defs>
</svg>
