<svg width="24" height="24" viewBox="0 0 24 24" fill="none" xmlns="http://www.w3.org/2000/svg">
<path d="M20.904 15.712C20.904 16.192 20.736 16.576 20.4 16.888C19.896 17.368 18.864 17.656 17.712 17.752C17.736 17.584 17.76 17.344 17.76 17.104C17.76 15.352 17.184 13.408 16.2 11.92C15.768 11.272 15.288 10.72 14.76 10.312C15.384 9.90404 16.008 9.66404 16.584 9.66404C18.384 9.61604 20.904 11.944 20.904 15.712Z" fill="#00DDA3"/>
<path d="M18.888 6.28C18.888 6.784 18.72 7.216 18.456 7.6C18.36 7.696 18.312 7.768 18.24 7.84C17.832 8.272 17.232 8.536 16.608 8.536C16.104 8.536 15.648 8.392 15.264 8.104C15.432 7.624 15.552 7.168 15.552 6.64C15.552 5.944 15.336 5.248 15 4.672C15.408 4.264 15.96 4 16.608 4C17.856 4 18.888 5.008 18.888 6.28Z" fill="#00DDA3"/>
<path d="M16.6563 17.104C16.6563 17.368 16.6083 17.608 16.5123 17.8C16.4163 17.992 16.2723 18.208 16.1523 18.376C15.9603 18.544 15.7203 18.712 15.3843 18.856C13.6323 19.6 10.2243 19.6 8.4483 18.856C8.1363 18.736 7.8723 18.568 7.6563 18.376C7.4883 18.208 7.3203 18.016 7.2483 17.8C7.1523 17.584 7.1043 17.368 7.1043 17.104C7.1043 14.176 8.4723 12.016 9.9843 11.032C10.2963 10.792 10.6323 10.648 10.9443 10.528C11.2323 10.408 11.5683 10.36 11.8563 10.36C12.2163 10.36 12.5523 10.456 12.9363 10.6C13.2483 10.72 13.5843 10.888 13.8723 11.128C15.3603 12.184 16.6563 14.272 16.6563 17.104ZM14.4723 15.232C14.7363 14.704 14.7363 14.224 14.4483 13.768C14.1603 13.312 13.6803 13.024 13.0803 13.024C12.6483 13.024 12.2163 13.408 11.9283 13.696C11.6403 13.408 11.2323 13.048 10.8003 13.048C10.2243 13.048 9.7443 13.336 9.4563 13.768C9.3363 14.008 9.2643 14.248 9.2643 14.488C9.2643 14.728 9.3363 14.992 9.4563 15.256C9.6963 15.712 10.0803 16.12 10.3443 16.336C10.7043 16.696 11.6643 17.464 11.8323 17.632L11.9523 17.728L12.0723 17.632C12.2883 17.44 13.2483 16.648 13.5603 16.312C13.8963 16.024 14.2563 15.64 14.4723 15.232Z" fill="#00DDA3"/>
<path d="M14.4723 15.232C14.7363 14.704 14.7363 14.224 14.4483 13.768C14.1603 13.312 13.6803 13.024 13.0803 13.024C12.6483 13.024 12.2163 13.408 11.9283 13.696C11.6403 13.408 11.2323 13.048 10.8003 13.048C10.2243 13.048 9.7443 13.336 9.4563 13.768C9.3363 14.008 9.2643 14.248 9.2643 14.488C9.2643 14.728 9.3363 14.992 9.4563 15.256C9.6963 15.712 10.0803 16.12 10.3443 16.336C10.7043 16.696 11.6643 17.464 11.8323 17.632L11.9523 17.728L12.0723 17.632C12.2883 17.44 13.2483 16.648 13.5603 16.312C13.8963 16.024 14.2563 15.64 14.4723 15.232Z" fill="#00DDA3"/>
<path d="M11.8317 4.07196C13.1997 4.07196 14.3277 5.17596 14.3277 6.56796C14.3277 7.93597 13.1997 9.06397 11.8317 9.06397C10.4397 9.06397 9.3357 7.93597 9.3357 6.56796C9.3357 5.22396 10.4637 4.09596 11.8317 4.07196Z" fill="#00DDA3"/>
<path d="M8.78385 4.57599C8.37585 5.15199 8.13585 5.87199 8.13585 6.66399C8.13585 7.21599 8.25585 7.74399 8.44785 8.24799C8.13585 8.48799 7.70385 8.60799 7.27185 8.60799C6.62385 8.60799 6.04785 8.34399 5.61585 7.91199C5.56785 7.81599 5.49585 7.74399 5.39985 7.64799C5.11185 7.26399 4.96785 6.83199 4.96785 6.32799C4.96785 5.05599 5.99985 4.04799 7.24785 4.04799C7.87185 4.02399 8.37585 4.21599 8.78385 4.57599Z" fill="#00DDA3"/>
<path d="M7.296 9.59196C7.824 9.59196 8.448 9.80796 9 10.192C8.424 10.624 7.92 11.2 7.44 11.896C6.48 13.384 5.88 15.328 5.88 17.08C5.88 17.32 5.904 17.512 5.976 17.728C4.92 17.608 3.984 17.32 3.504 16.864C3.144 16.552 3 16.168 3 15.688C3 11.944 5.496 9.61596 7.296 9.59196Z" fill="#00DDA3"/>
</svg>
