<svg width="25" height="25" viewBox="0 0 25 25" fill="none" xmlns="http://www.w3.org/2000/svg">
<g filter="url(#filter0_i)">
<path d="M3.71051 14.9977C3.53105 14.8301 3.53105 14.5788 3.66564 14.4112C3.8451 14.2436 4.15914 14.2017 4.3386 14.3693C5.81909 15.7099 7.16499 17.1344 8.46603 18.6007C8.82493 17.0087 8.73521 15.291 7.56876 13.9922C6.0434 12.3583 3.17215 11.9394 1.0187 11.8556C0.749523 14.2855 0.884113 16.2127 1.87111 17.5114C2.8581 18.7264 4.74237 19.3967 7.92767 19.3129C6.58177 17.7628 5.23586 16.3384 3.71051 14.9977ZM23.899 8.46203C20.6689 8.58772 16.4069 9.17426 14.1637 11.6042C13.087 12.7354 12.5037 14.2855 12.5486 16.2965C12.5935 17.0506 12.6832 17.8885 12.9075 18.7683C14.7918 16.5897 16.8106 14.4531 19.0987 12.4002C19.2781 12.2745 19.5473 12.2745 19.7267 12.4421C19.9062 12.6097 19.9062 12.8611 19.7267 13.0286C17.349 15.0815 15.3301 17.2601 13.401 19.5224C18.2911 19.7319 21.1175 18.7683 22.598 16.883C24.1234 14.9977 24.3028 12.065 23.899 8.46203ZM24.7066 7.62413C25.1104 10.6825 25.4244 14.7463 23.3158 17.3858C21.611 19.5643 18.336 20.6536 12.7281 20.3184C11.5167 21.7848 10.3054 23.293 9.13898 24.8431C9.00439 25.0107 8.69035 25.0526 8.51089 24.9269C8.33144 24.7593 8.28657 24.508 8.42116 24.3404C9.00439 23.5863 9.58761 22.8322 10.1708 22.078C9.67734 21.4077 9.13898 20.7793 8.60062 20.109C4.6975 20.3184 2.40947 19.5643 1.15329 18.0142C-0.327198 16.087 -0.0580179 13.2381 0.211162 11.0177C2.94783 11.0595 6.31259 11.3947 8.24171 13.4476C9.81193 15.1234 9.7222 17.4276 9.18384 19.4386C9.7222 20.109 10.2157 20.7374 10.7541 21.4077C11.2027 20.7793 11.6962 20.1927 12.1897 19.6062C11.8756 18.4331 11.6962 17.302 11.6513 16.3384C11.6065 14.076 12.2794 12.3583 13.4907 11.0595C16.1377 8.21066 20.9381 7.70792 24.7066 7.62413Z" fill="#018C68"/>
<path d="M3.71051 14.9977C3.53105 14.8301 3.53105 14.5788 3.66564 14.4112C3.8451 14.2436 4.15914 14.2017 4.3386 14.3693C5.81909 15.7099 7.16499 17.1344 8.46603 18.6007C8.82493 17.0087 8.73521 15.291 7.56876 13.9922C6.0434 12.3583 3.17215 11.9394 1.0187 11.8556C0.749523 14.2855 0.884113 16.2127 1.87111 17.5114C2.8581 18.7264 4.74237 19.3967 7.92767 19.3129C6.58177 17.7628 5.23586 16.3384 3.71051 14.9977Z" fill="#018C68"/>
<path d="M23.899 8.46203C20.6689 8.58772 16.4069 9.17426 14.1637 11.6042C13.087 12.7354 12.5037 14.2855 12.5486 16.2965C12.5935 17.0506 12.6832 17.8885 12.9075 18.7683C14.7918 16.5897 16.8106 14.4531 19.0987 12.4002C19.2781 12.2745 19.5473 12.2745 19.7267 12.4421C19.9062 12.6097 19.9062 12.8611 19.7267 13.0286C17.349 15.0815 15.3301 17.2601 13.401 19.5224C18.2911 19.7319 21.1175 18.7683 22.598 16.883C24.1234 14.9977 24.3028 12.065 23.899 8.46203Z" fill="#018C68"/>
<path d="M10.2615 15.1291C1.09586 11.4012 0.860083 8.77881 5.49594 0.186322C10.6669 2.14851 18.1289 8.41845 10.2615 15.1291Z" fill="#018C68"/>
<path d="M15.7929 9.92599C12.9248 6.69719 13.1337 3.50967 19.8397 0C22.0928 2.9751 24.4377 9.12544 15.7929 9.92599Z" fill="#018C68"/>
</g>
<defs>
<filter id="filter0_i" x="0" y="0" width="25" height="29" filterUnits="userSpaceOnUse" color-interpolation-filters="sRGB">
<feFlood flood-opacity="0" result="BackgroundImageFix"/>
<feBlend mode="normal" in="SourceGraphic" in2="BackgroundImageFix" result="shape"/>
<feColorMatrix in="SourceAlpha" type="matrix" values="0 0 0 0 0 0 0 0 0 0 0 0 0 0 0 0 0 0 127 0" result="hardAlpha"/>
<feOffset dy="4"/>
<feGaussianBlur stdDeviation="2"/>
<feComposite in2="hardAlpha" operator="arithmetic" k2="-1" k3="1"/>
<feColorMatrix type="matrix" values="0 0 0 0 0 0 0 0 0 0 0 0 0 0 0 0 0 0 0.25 0"/>
<feBlend mode="normal" in2="shape" result="effect1_innerShadow"/>
</filter>
</defs>
</svg>
