<svg width="382" height="120" viewBox="0 0 382 120" fill="none" xmlns="http://www.w3.org/2000/svg">
<path d="M0 8C0 3.58172 3.58172 0 8 0H374C378.418 0 382 3.58172 382 8V112C382 116.418 378.418 120 374 120H7.99999C3.58171 120 0 116.418 0 112V8Z" fill="#1F3044"/>
<path d="M0 8C0 3.58172 3.58172 0 8 0H374C378.418 0 382 3.58172 382 8V112C382 116.418 378.418 120 374 120H7.99999C3.58171 120 0 116.418 0 112V8Z" fill="#44505E"/>
<path d="M37.5669 27.9741C37.4728 29.2746 36.9914 30.2983 36.1226 31.0454C35.2593 31.7925 34.1193 32.166 32.7026 32.166C31.1532 32.166 29.9329 31.6458 29.042 30.6055C28.1566 29.5596 27.7139 28.1263 27.7139 26.3057V25.5669C27.7139 24.4048 27.9186 23.381 28.3281 22.4956C28.7376 21.6102 29.3215 20.9323 30.0796 20.4619C30.8433 19.986 31.7287 19.748 32.7358 19.748C34.1304 19.748 35.2537 20.1216 36.106 20.8687C36.9582 21.6157 37.4507 22.6644 37.5835 24.0146H35.0933C35.0324 23.2344 34.8138 22.6699 34.4375 22.3213C34.0667 21.9671 33.4995 21.79 32.7358 21.79C31.9058 21.79 31.2832 22.0889 30.8682 22.6865C30.4587 23.2786 30.2484 24.2 30.2373 25.4507V26.3638C30.2373 27.6698 30.4338 28.6243 30.8267 29.2275C31.2251 29.8307 31.8504 30.1323 32.7026 30.1323C33.4718 30.1323 34.0446 29.958 34.4209 29.6094C34.8027 29.2552 35.0213 28.7101 35.0767 27.9741H37.5669ZM38.6709 27.4263C38.6709 26.5353 38.8424 25.7412 39.1855 25.0439C39.5286 24.3467 40.0212 23.8071 40.6631 23.4253C41.3105 23.0435 42.0604 22.8525 42.9126 22.8525C44.1245 22.8525 45.1123 23.2233 45.876 23.9648C46.6452 24.7064 47.0741 25.7135 47.1626 26.9863L47.1792 27.6006C47.1792 28.9785 46.7946 30.0853 46.0254 30.9209C45.2562 31.751 44.2241 32.166 42.9292 32.166C41.6343 32.166 40.5994 31.751 39.8247 30.9209C39.0555 30.0908 38.6709 28.9619 38.6709 27.5342V27.4263ZM41.0698 27.6006C41.0698 28.4528 41.2303 29.1058 41.5513 29.5596C41.8722 30.0078 42.3315 30.2319 42.9292 30.2319C43.5103 30.2319 43.964 30.0106 44.2905 29.5679C44.617 29.1196 44.7803 28.4058 44.7803 27.4263C44.7803 26.5907 44.617 25.9432 44.2905 25.4839C43.964 25.0246 43.5047 24.7949 42.9126 24.7949C42.326 24.7949 41.8722 25.0246 41.5513 25.4839C41.2303 25.9377 41.0698 26.6432 41.0698 27.6006ZM50.8647 23.0186L50.9395 24.0562C51.5814 23.2537 52.4419 22.8525 53.521 22.8525C54.4728 22.8525 55.1812 23.132 55.646 23.6909C56.1108 24.2498 56.3488 25.0854 56.3599 26.1978V32H53.9609V26.2559C53.9609 25.7467 53.8503 25.3787 53.6289 25.1519C53.4076 24.9194 53.0396 24.8032 52.5249 24.8032C51.8498 24.8032 51.3434 25.091 51.0059 25.6665V32H48.6069V23.0186H50.8647ZM61.5479 29.0698L63.2163 23.0186H65.7231L62.6934 32H60.4023L57.3726 23.0186H59.8794L61.5479 29.0698ZM66.2793 27.4263C66.2793 26.5353 66.4508 25.7412 66.7939 25.0439C67.137 24.3467 67.6296 23.8071 68.2715 23.4253C68.9189 23.0435 69.6688 22.8525 70.521 22.8525C71.7329 22.8525 72.7207 23.2233 73.4844 23.9648C74.2536 24.7064 74.6825 25.7135 74.771 26.9863L74.7876 27.6006C74.7876 28.9785 74.403 30.0853 73.6338 30.9209C72.8646 31.751 71.8325 32.166 70.5376 32.166C69.2427 32.166 68.2078 31.751 67.4331 30.9209C66.6639 30.0908 66.2793 28.9619 66.2793 27.5342V27.4263ZM68.6782 27.6006C68.6782 28.4528 68.8387 29.1058 69.1597 29.5596C69.4806 30.0078 69.9399 30.2319 70.5376 30.2319C71.1187 30.2319 71.5724 30.0106 71.8989 29.5679C72.2254 29.1196 72.3887 28.4058 72.3887 27.4263C72.3887 26.5907 72.2254 25.9432 71.8989 25.4839C71.5724 25.0246 71.1131 24.7949 70.521 24.7949C69.9344 24.7949 69.4806 25.0246 69.1597 25.4839C68.8387 25.9377 68.6782 26.6432 68.6782 27.6006ZM80.0005 30.2319C80.4432 30.2319 80.8029 30.1102 81.0796 29.8667C81.3563 29.6232 81.5002 29.2995 81.5112 28.8955H83.7607C83.7552 29.5042 83.5892 30.0632 83.2627 30.5723C82.9362 31.0758 82.488 31.4688 81.918 31.751C81.3535 32.0277 80.7282 32.166 80.042 32.166C78.7581 32.166 77.7454 31.7593 77.0039 30.9458C76.2624 30.1268 75.8916 28.9979 75.8916 27.5591V27.4014C75.8916 26.0179 76.2596 24.9139 76.9956 24.0894C77.7316 23.2648 78.7415 22.8525 80.0254 22.8525C81.1488 22.8525 82.048 23.1735 82.7231 23.8154C83.4038 24.4518 83.7497 25.3013 83.7607 26.3638H81.5112C81.5002 25.8989 81.3563 25.5226 81.0796 25.2349C80.8029 24.9416 80.4377 24.7949 79.9839 24.7949C79.425 24.7949 79.0016 24.9997 78.7139 25.4092C78.4316 25.8132 78.2905 26.4717 78.2905 27.3848V27.6338C78.2905 28.5579 78.4316 29.222 78.7139 29.626C78.9961 30.0299 79.425 30.2319 80.0005 30.2319ZM90.335 32C90.2243 31.7842 90.144 31.5158 90.0942 31.1948C89.5132 31.8423 88.7578 32.166 87.8281 32.166C86.9482 32.166 86.2178 31.9115 85.6367 31.4023C85.0612 30.8932 84.7734 30.2513 84.7734 29.4766C84.7734 28.5247 85.1248 27.7943 85.8276 27.2852C86.536 26.776 87.557 26.5187 88.8906 26.5132H89.9946V25.9985C89.9946 25.5835 89.8867 25.2515 89.6709 25.0024C89.4606 24.7534 89.1258 24.6289 88.6665 24.6289C88.2625 24.6289 87.9443 24.7257 87.7119 24.9194C87.485 25.1131 87.3716 25.3787 87.3716 25.7163H84.9727C84.9727 25.1961 85.1331 24.7147 85.4541 24.272C85.7751 23.8293 86.2288 23.4834 86.8154 23.2344C87.402 22.9798 88.0605 22.8525 88.791 22.8525C89.8978 22.8525 90.7749 23.132 91.4224 23.6909C92.0754 24.2443 92.4019 25.0246 92.4019 26.0317V29.9248C92.4074 30.777 92.5264 31.4217 92.7588 31.8589V32H90.335ZM88.3511 30.3315C88.7052 30.3315 89.0317 30.2541 89.3306 30.0991C89.6294 29.9386 89.8507 29.7256 89.9946 29.46V27.916H89.0981C87.8973 27.916 87.2581 28.3311 87.1807 29.1611L87.1724 29.3022C87.1724 29.6011 87.2775 29.8473 87.4878 30.041C87.6981 30.2347 87.9858 30.3315 88.3511 30.3315ZM97.1167 20.8105V23.0186H98.6523V24.7783H97.1167V29.2607C97.1167 29.5928 97.1803 29.8307 97.3076 29.9746C97.4349 30.1185 97.6784 30.1904 98.0381 30.1904C98.3037 30.1904 98.5389 30.1711 98.7437 30.1323V31.9502C98.2733 32.0941 97.7891 32.166 97.291 32.166C95.6087 32.166 94.751 31.3166 94.7178 29.6177V24.7783H93.4062V23.0186H94.7178V20.8105H97.1167ZM99.3662 27.4263C99.3662 26.5353 99.5378 25.7412 99.8809 25.0439C100.224 24.3467 100.716 23.8071 101.358 23.4253C102.006 23.0435 102.756 22.8525 103.608 22.8525C104.82 22.8525 105.808 23.2233 106.571 23.9648C107.34 24.7064 107.769 25.7135 107.858 26.9863L107.875 27.6006C107.875 28.9785 107.49 30.0853 106.721 30.9209C105.951 31.751 104.919 32.166 103.625 32.166C102.33 32.166 101.295 31.751 100.52 30.9209C99.7508 30.0908 99.3662 28.9619 99.3662 27.5342V27.4263ZM101.765 27.6006C101.765 28.4528 101.926 29.1058 102.247 29.5596C102.568 30.0078 103.027 30.2319 103.625 30.2319C104.206 30.2319 104.659 30.0106 104.986 29.5679C105.312 29.1196 105.476 28.4058 105.476 27.4263C105.476 26.5907 105.312 25.9432 104.986 25.4839C104.659 25.0246 104.2 24.7949 103.608 24.7949C103.021 24.7949 102.568 25.0246 102.247 25.4839C101.926 25.9377 101.765 26.6432 101.765 27.6006ZM114.399 25.2681C114.072 25.2238 113.785 25.2017 113.536 25.2017C112.628 25.2017 112.033 25.5088 111.751 26.123V32H109.352V23.0186H111.618L111.685 24.0894C112.166 23.2648 112.833 22.8525 113.685 22.8525C113.951 22.8525 114.2 22.8885 114.432 22.9604L114.399 25.2681ZM118.093 32H115.686V23.0186H118.093V32ZM115.544 20.6943C115.544 20.3346 115.663 20.0386 115.901 19.8062C116.145 19.5737 116.474 19.4575 116.889 19.4575C117.299 19.4575 117.625 19.5737 117.869 19.8062C118.112 20.0386 118.234 20.3346 118.234 20.6943C118.234 21.0596 118.109 21.3584 117.86 21.5908C117.617 21.8232 117.293 21.9395 116.889 21.9395C116.485 21.9395 116.159 21.8232 115.91 21.5908C115.666 21.3584 115.544 21.0596 115.544 20.6943ZM125.281 32C125.171 31.7842 125.09 31.5158 125.041 31.1948C124.459 31.8423 123.704 32.166 122.774 32.166C121.895 32.166 121.164 31.9115 120.583 31.4023C120.007 30.8932 119.72 30.2513 119.72 29.4766C119.72 28.5247 120.071 27.7943 120.774 27.2852C121.482 26.776 122.503 26.5187 123.837 26.5132H124.941V25.9985C124.941 25.5835 124.833 25.2515 124.617 25.0024C124.407 24.7534 124.072 24.6289 123.613 24.6289C123.209 24.6289 122.891 24.7257 122.658 24.9194C122.431 25.1131 122.318 25.3787 122.318 25.7163H119.919C119.919 25.1961 120.079 24.7147 120.4 24.272C120.721 23.8293 121.175 23.4834 121.762 23.2344C122.348 22.9798 123.007 22.8525 123.737 22.8525C124.844 22.8525 125.721 23.132 126.369 23.6909C127.022 24.2443 127.348 25.0246 127.348 26.0317V29.9248C127.354 30.777 127.473 31.4217 127.705 31.8589V32H125.281ZM123.297 30.3315C123.652 30.3315 123.978 30.2541 124.277 30.0991C124.576 29.9386 124.797 29.7256 124.941 29.46V27.916H124.044C122.844 27.916 122.204 28.3311 122.127 29.1611L122.119 29.3022C122.119 29.6011 122.224 29.8473 122.434 30.041C122.644 30.2347 122.932 30.3315 123.297 30.3315ZM133.051 27.4429C133.051 26.0428 133.363 24.9277 133.989 24.0977C134.62 23.2676 135.48 22.8525 136.57 22.8525C137.445 22.8525 138.167 23.179 138.737 23.832V19.25H141.144V32H138.978L138.861 31.0454C138.264 31.7925 137.494 32.166 136.554 32.166C135.497 32.166 134.647 31.751 134.005 30.9209C133.369 30.0853 133.051 28.9259 133.051 27.4429ZM135.45 27.6172C135.45 28.4583 135.596 29.103 135.89 29.5513C136.183 29.9995 136.609 30.2236 137.168 30.2236C137.91 30.2236 138.432 29.911 138.737 29.2856V25.7412C138.438 25.1159 137.921 24.8032 137.185 24.8032C136.028 24.8032 135.45 25.7412 135.45 27.6172ZM147.137 32.166C145.82 32.166 144.747 31.762 143.917 30.9541C143.092 30.1462 142.68 29.0698 142.68 27.7251V27.4927C142.68 26.5907 142.854 25.7855 143.203 25.0771C143.551 24.3633 144.044 23.8154 144.68 23.4336C145.322 23.0462 146.053 22.8525 146.872 22.8525C148.1 22.8525 149.066 23.2399 149.769 24.0146C150.477 24.7894 150.831 25.8879 150.831 27.3101V28.2896H145.112C145.189 28.8761 145.422 29.3465 145.809 29.7007C146.202 30.0549 146.697 30.2319 147.295 30.2319C148.219 30.2319 148.941 29.8971 149.461 29.2275L150.64 30.5474C150.28 31.0565 149.793 31.4549 149.179 31.7427C148.565 32.0249 147.884 32.166 147.137 32.166ZM146.863 24.7949C146.387 24.7949 146 24.9554 145.701 25.2764C145.408 25.5973 145.22 26.0566 145.137 26.6543H148.474V26.4634C148.463 25.9321 148.319 25.5226 148.042 25.2349C147.765 24.9416 147.372 24.7949 146.863 24.7949ZM164.519 27.5923C164.519 28.9757 164.204 30.0853 163.573 30.9209C162.947 31.751 162.101 32.166 161.033 32.166C160.125 32.166 159.392 31.8506 158.833 31.2197V35.4531H156.434V23.0186H158.659L158.742 23.8984C159.323 23.2012 160.081 22.8525 161.016 22.8525C162.123 22.8525 162.983 23.262 163.598 24.0811C164.212 24.9001 164.519 26.029 164.519 27.4678V27.5923ZM162.12 27.418C162.12 26.5824 161.971 25.9377 161.672 25.4839C161.379 25.0301 160.95 24.8032 160.385 24.8032C159.633 24.8032 159.115 25.091 158.833 25.6665V29.3438C159.126 29.9359 159.649 30.2319 160.402 30.2319C161.547 30.2319 162.12 29.2939 162.12 27.418ZM171.06 25.2681C170.734 25.2238 170.446 25.2017 170.197 25.2017C169.289 25.2017 168.694 25.5088 168.412 26.123V32H166.013V23.0186H168.279L168.346 24.0894C168.827 23.2648 169.494 22.8525 170.346 22.8525C170.612 22.8525 170.861 22.8885 171.093 22.9604L171.06 25.2681ZM171.55 27.4263C171.55 26.5353 171.721 25.7412 172.064 25.0439C172.408 24.3467 172.9 23.8071 173.542 23.4253C174.189 23.0435 174.939 22.8525 175.792 22.8525C177.003 22.8525 177.991 23.2233 178.755 23.9648C179.524 24.7064 179.953 25.7135 180.042 26.9863L180.058 27.6006C180.058 28.9785 179.674 30.0853 178.904 30.9209C178.135 31.751 177.103 32.166 175.808 32.166C174.513 32.166 173.478 31.751 172.704 30.9209C171.934 30.0908 171.55 28.9619 171.55 27.5342V27.4263ZM173.949 27.6006C173.949 28.4528 174.109 29.1058 174.43 29.5596C174.751 30.0078 175.21 30.2319 175.808 30.2319C176.389 30.2319 176.843 30.0106 177.169 29.5679C177.496 29.1196 177.659 28.4058 177.659 27.4263C177.659 26.5907 177.496 25.9432 177.169 25.4839C176.843 25.0246 176.384 24.7949 175.792 24.7949C175.205 24.7949 174.751 25.0246 174.43 25.4839C174.109 25.9377 173.949 26.6432 173.949 27.6006ZM184.756 28.605L186.417 23.0186H188.99L185.379 33.3945L185.18 33.8677C184.643 35.0409 183.757 35.6274 182.523 35.6274C182.175 35.6274 181.821 35.5749 181.461 35.4697V33.6519L181.826 33.6602C182.28 33.6602 182.618 33.591 182.839 33.4526C183.066 33.3143 183.243 33.0846 183.37 32.7637L183.652 32.0249L180.506 23.0186H183.088L184.756 28.605ZM193.954 32.166C192.637 32.166 191.563 31.762 190.733 30.9541C189.908 30.1462 189.496 29.0698 189.496 27.7251V27.4927C189.496 26.5907 189.67 25.7855 190.019 25.0771C190.368 24.3633 190.86 23.8154 191.497 23.4336C192.139 23.0462 192.869 22.8525 193.688 22.8525C194.917 22.8525 195.882 23.2399 196.585 24.0146C197.293 24.7894 197.647 25.8879 197.647 27.3101V28.2896H191.928C192.006 28.8761 192.238 29.3465 192.625 29.7007C193.018 30.0549 193.514 30.2319 194.111 30.2319C195.035 30.2319 195.758 29.8971 196.278 29.2275L197.457 30.5474C197.097 31.0565 196.61 31.4549 195.996 31.7427C195.381 32.0249 194.701 32.166 193.954 32.166ZM193.68 24.7949C193.204 24.7949 192.816 24.9554 192.518 25.2764C192.224 25.5973 192.036 26.0566 191.953 26.6543H195.29V26.4634C195.279 25.9321 195.135 25.5226 194.858 25.2349C194.582 24.9416 194.189 24.7949 193.68 24.7949ZM202.752 30.2319C203.195 30.2319 203.555 30.1102 203.832 29.8667C204.108 29.6232 204.252 29.2995 204.263 28.8955H206.513C206.507 29.5042 206.341 30.0632 206.015 30.5723C205.688 31.0758 205.24 31.4688 204.67 31.751C204.105 32.0277 203.48 32.166 202.794 32.166C201.51 32.166 200.497 31.7593 199.756 30.9458C199.014 30.1268 198.644 28.9979 198.644 27.5591V27.4014C198.644 26.0179 199.012 24.9139 199.748 24.0894C200.484 23.2648 201.493 22.8525 202.777 22.8525C203.901 22.8525 204.8 23.1735 205.475 23.8154C206.156 24.4518 206.502 25.3013 206.513 26.3638H204.263C204.252 25.8989 204.108 25.5226 203.832 25.2349C203.555 24.9416 203.19 24.7949 202.736 24.7949C202.177 24.7949 201.754 24.9997 201.466 25.4092C201.184 25.8132 201.042 26.4717 201.042 27.3848V27.6338C201.042 28.5579 201.184 29.222 201.466 29.626C201.748 30.0299 202.177 30.2319 202.752 30.2319ZM210.754 20.8105V23.0186H212.29V24.7783H210.754V29.2607C210.754 29.5928 210.818 29.8307 210.945 29.9746C211.073 30.1185 211.316 30.1904 211.676 30.1904C211.941 30.1904 212.177 30.1711 212.381 30.1323V31.9502C211.911 32.0941 211.427 32.166 210.929 32.166C209.246 32.166 208.389 31.3166 208.355 29.6177V24.7783H207.044V23.0186H208.355V20.8105H210.754ZM213.004 27.4263C213.004 26.5353 213.175 25.7412 213.519 25.0439C213.862 24.3467 214.354 23.8071 214.996 23.4253C215.644 23.0435 216.393 22.8525 217.246 22.8525C218.458 22.8525 219.445 23.2233 220.209 23.9648C220.978 24.7064 221.407 25.7135 221.496 26.9863L221.512 27.6006C221.512 28.9785 221.128 30.0853 220.358 30.9209C219.589 31.751 218.557 32.166 217.262 32.166C215.967 32.166 214.932 31.751 214.158 30.9209C213.389 30.0908 213.004 28.9619 213.004 27.5342V27.4263ZM215.403 27.6006C215.403 28.4528 215.563 29.1058 215.884 29.5596C216.205 30.0078 216.665 30.2319 217.262 30.2319C217.843 30.2319 218.297 30.0106 218.624 29.5679C218.95 29.1196 219.113 28.4058 219.113 27.4263C219.113 26.5907 218.95 25.9432 218.624 25.4839C218.297 25.0246 217.838 24.7949 217.246 24.7949C216.659 24.7949 216.205 25.0246 215.884 25.4839C215.563 25.9377 215.403 26.6432 215.403 27.6006ZM227.854 29.5181C227.854 29.2248 227.707 28.9951 227.414 28.8291C227.126 28.6576 226.661 28.5054 226.02 28.3726C223.883 27.9243 222.815 27.0168 222.815 25.6499C222.815 24.853 223.145 24.189 223.803 23.6577C224.467 23.1209 225.333 22.8525 226.401 22.8525C227.541 22.8525 228.452 23.1209 229.132 23.6577C229.819 24.1945 230.162 24.8918 230.162 25.7495H227.763C227.763 25.4064 227.652 25.1242 227.431 24.9028C227.209 24.6759 226.863 24.5625 226.393 24.5625C225.989 24.5625 225.676 24.6538 225.455 24.8364C225.234 25.019 225.123 25.2515 225.123 25.5337C225.123 25.7993 225.248 26.0151 225.497 26.1812C225.751 26.3416 226.177 26.4827 226.775 26.6045C227.373 26.7207 227.876 26.8535 228.286 27.0029C229.553 27.4678 230.187 28.2729 230.187 29.4185C230.187 30.2375 229.835 30.9015 229.132 31.4106C228.43 31.9142 227.522 32.166 226.41 32.166C225.657 32.166 224.987 32.0332 224.401 31.7676C223.82 31.4964 223.363 31.1284 223.031 30.6636C222.699 30.1932 222.533 29.6868 222.533 29.1445H224.808C224.83 29.5706 224.987 29.8971 225.281 30.124C225.574 30.3509 225.967 30.4644 226.459 30.4644C226.919 30.4644 227.265 30.3786 227.497 30.207C227.735 30.0299 227.854 29.8003 227.854 29.5181ZM235.599 27.4429C235.599 26.0428 235.911 24.9277 236.537 24.0977C237.167 23.2676 238.028 22.8525 239.118 22.8525C239.993 22.8525 240.715 23.179 241.285 23.832V19.25H243.692V32H241.525L241.409 31.0454C240.812 31.7925 240.042 32.166 239.102 32.166C238.045 32.166 237.195 31.751 236.553 30.9209C235.917 30.0853 235.599 28.9259 235.599 27.4429ZM237.998 27.6172C237.998 28.4583 238.144 29.103 238.438 29.5513C238.731 29.9995 239.157 30.2236 239.716 30.2236C240.457 30.2236 240.98 29.911 241.285 29.2856V25.7412C240.986 25.1159 240.468 24.8032 239.732 24.8032C238.576 24.8032 237.998 25.7412 237.998 27.6172ZM249.685 32.166C248.368 32.166 247.294 31.762 246.464 30.9541C245.64 30.1462 245.228 29.0698 245.228 27.7251V27.4927C245.228 26.5907 245.402 25.7855 245.75 25.0771C246.099 24.3633 246.592 23.8154 247.228 23.4336C247.87 23.0462 248.6 22.8525 249.419 22.8525C250.648 22.8525 251.614 23.2399 252.316 24.0146C253.025 24.7894 253.379 25.8879 253.379 27.3101V28.2896H247.66C247.737 28.8761 247.97 29.3465 248.357 29.7007C248.75 30.0549 249.245 30.2319 249.843 30.2319C250.767 30.2319 251.489 29.8971 252.009 29.2275L253.188 30.5474C252.828 31.0565 252.341 31.4549 251.727 31.7427C251.113 32.0249 250.432 32.166 249.685 32.166ZM249.411 24.7949C248.935 24.7949 248.548 24.9554 248.249 25.2764C247.956 25.5973 247.768 26.0566 247.685 26.6543H251.021V26.4634C251.01 25.9321 250.867 25.5226 250.59 25.2349C250.313 24.9416 249.92 24.7949 249.411 24.7949ZM30.4531 52H28.0459V43.0186H30.4531V52ZM27.9048 40.6943C27.9048 40.3346 28.0238 40.0386 28.2617 39.8062C28.5052 39.5737 28.8345 39.4575 29.2495 39.4575C29.659 39.4575 29.9855 39.5737 30.229 39.8062C30.4725 40.0386 30.5942 40.3346 30.5942 40.6943C30.5942 41.0596 30.4697 41.3584 30.2207 41.5908C29.9772 41.8232 29.6535 41.9395 29.2495 41.9395C28.8455 41.9395 28.519 41.8232 28.27 41.5908C28.0265 41.3584 27.9048 41.0596 27.9048 40.6943ZM34.645 43.0186L34.7197 44.0562C35.3617 43.2537 36.2222 42.8525 37.3013 42.8525C38.2531 42.8525 38.9614 43.132 39.4263 43.6909C39.8911 44.2498 40.1291 45.0854 40.1401 46.1978V52H37.7412V46.2559C37.7412 45.7467 37.6305 45.3787 37.4092 45.1519C37.1878 44.9194 36.8198 44.8032 36.3052 44.8032C35.63 44.8032 35.1237 45.091 34.7861 45.6665V52H32.3872V43.0186H34.645ZM45.3281 49.0698L46.9966 43.0186H49.5034L46.4736 52H44.1826L41.1528 43.0186H43.6597L45.3281 49.0698ZM54.5835 52.166C53.2664 52.166 52.1929 51.762 51.3628 50.9541C50.5382 50.1462 50.126 49.0698 50.126 47.7251V47.4927C50.126 46.5907 50.3003 45.7855 50.6489 45.0771C50.9976 44.3633 51.4901 43.8154 52.1265 43.4336C52.7684 43.0462 53.4989 42.8525 54.3179 42.8525C55.5464 42.8525 56.512 43.2399 57.2148 44.0146C57.9232 44.7894 58.2773 45.8879 58.2773 47.3101V48.2896H52.5581C52.6356 48.8761 52.868 49.3465 53.2554 49.7007C53.6483 50.0549 54.1436 50.2319 54.7412 50.2319C55.6654 50.2319 56.3875 49.8971 56.9077 49.2275L58.0864 50.5474C57.7267 51.0565 57.2397 51.4549 56.6255 51.7427C56.0112 52.0249 55.3306 52.166 54.5835 52.166ZM54.3096 44.7949C53.8337 44.7949 53.4463 44.9554 53.1475 45.2764C52.8542 45.5973 52.666 46.0566 52.583 46.6543H55.9199V46.4634C55.9089 45.9321 55.765 45.5226 55.4883 45.2349C55.2116 44.9416 54.8187 44.7949 54.3096 44.7949ZM64.5112 49.5181C64.5112 49.2248 64.3646 48.9951 64.0713 48.8291C63.7835 48.6576 63.3187 48.5054 62.6768 48.3726C60.5407 47.9243 59.4727 47.0168 59.4727 45.6499C59.4727 44.853 59.8019 44.189 60.4604 43.6577C61.1245 43.1209 61.9906 42.8525 63.0586 42.8525C64.1986 42.8525 65.1089 43.1209 65.7896 43.6577C66.4757 44.1945 66.8188 44.8918 66.8188 45.7495H64.4199C64.4199 45.4064 64.3092 45.1242 64.0879 44.9028C63.8665 44.6759 63.5207 44.5625 63.0503 44.5625C62.6463 44.5625 62.3337 44.6538 62.1123 44.8364C61.891 45.019 61.7803 45.2515 61.7803 45.5337C61.7803 45.7993 61.9048 46.0151 62.1538 46.1812C62.4084 46.3416 62.8345 46.4827 63.4321 46.6045C64.0298 46.7207 64.5334 46.8535 64.9429 47.0029C66.2101 47.4678 66.8438 48.2729 66.8438 49.4185C66.8438 50.2375 66.4924 50.9015 65.7896 51.4106C65.0868 51.9142 64.1792 52.166 63.0669 52.166C62.3143 52.166 61.6447 52.0332 61.0581 51.7676C60.4771 51.4964 60.0205 51.1284 59.6885 50.6636C59.3564 50.1932 59.1904 49.6868 59.1904 49.1445H61.4648C61.487 49.5706 61.6447 49.8971 61.938 50.124C62.2313 50.3509 62.6242 50.4644 63.1167 50.4644C63.576 50.4644 63.9219 50.3786 64.1543 50.207C64.3923 50.0299 64.5112 49.8003 64.5112 49.5181ZM71.2681 40.8105V43.0186H72.8037V44.7783H71.2681V49.2607C71.2681 49.5928 71.3317 49.8307 71.459 49.9746C71.5863 50.1185 71.8298 50.1904 72.1895 50.1904C72.4551 50.1904 72.6903 50.1711 72.895 50.1323V51.9502C72.4246 52.0941 71.9404 52.166 71.4424 52.166C69.7601 52.166 68.9023 51.3166 68.8691 49.6177V44.7783H67.5576V43.0186H68.8691V40.8105H71.2681ZM76.6719 52H74.2646V43.0186H76.6719V52ZM74.1235 40.6943C74.1235 40.3346 74.2425 40.0386 74.4805 39.8062C74.724 39.5737 75.0532 39.4575 75.4683 39.4575C75.8778 39.4575 76.2043 39.5737 76.4478 39.8062C76.6912 40.0386 76.813 40.3346 76.813 40.6943C76.813 41.0596 76.6885 41.3584 76.4395 41.5908C76.196 41.8232 75.8722 41.9395 75.4683 41.9395C75.0643 41.9395 74.7378 41.8232 74.4888 41.5908C74.2453 41.3584 74.1235 41.0596 74.1235 40.6943ZM78.3071 47.4429C78.3071 46.0649 78.6336 44.9554 79.2866 44.1143C79.9451 43.2731 80.8306 42.8525 81.9429 42.8525C82.9279 42.8525 83.6943 43.1901 84.2422 43.8652L84.3418 43.0186H86.5166V51.7012C86.5166 52.487 86.3368 53.1704 85.9771 53.7515C85.6229 54.3325 85.1221 54.7752 84.4746 55.0796C83.8271 55.384 83.069 55.5361 82.2002 55.5361C81.5417 55.5361 80.8997 55.4033 80.2744 55.1377C79.6491 54.8776 79.1759 54.54 78.855 54.125L79.9175 52.6641C80.5151 53.3337 81.2401 53.6685 82.0923 53.6685C82.7287 53.6685 83.224 53.4969 83.5781 53.1538C83.9323 52.8162 84.1094 52.3348 84.1094 51.7095V51.228C83.556 51.8534 82.8283 52.166 81.9263 52.166C80.8472 52.166 79.9728 51.7454 79.3032 50.9043C78.6392 50.0576 78.3071 48.937 78.3071 47.5425V47.4429ZM80.7061 47.6172C80.7061 48.4307 80.8693 49.0698 81.1958 49.5347C81.5223 49.994 81.9705 50.2236 82.5405 50.2236C83.271 50.2236 83.7939 49.9497 84.1094 49.4019V45.625C83.7884 45.0771 83.271 44.8032 82.5571 44.8032C81.9816 44.8032 81.5278 45.0384 81.1958 45.5088C80.8693 45.9792 80.7061 46.682 80.7061 47.6172ZM93.5723 52C93.4616 51.7842 93.3813 51.5158 93.3315 51.1948C92.7505 51.8423 91.9951 52.166 91.0654 52.166C90.1855 52.166 89.4551 51.9115 88.874 51.4023C88.2985 50.8932 88.0107 50.2513 88.0107 49.4766C88.0107 48.5247 88.3621 47.7943 89.0649 47.2852C89.7733 46.776 90.7943 46.5187 92.1279 46.5132H93.2319V45.9985C93.2319 45.5835 93.124 45.2515 92.9082 45.0024C92.6979 44.7534 92.3631 44.6289 91.9038 44.6289C91.4998 44.6289 91.1816 44.7257 90.9492 44.9194C90.7223 45.1131 90.6089 45.3787 90.6089 45.7163H88.21C88.21 45.1961 88.3704 44.7147 88.6914 44.272C89.0124 43.8293 89.4661 43.4834 90.0527 43.2344C90.6393 42.9798 91.2979 42.8525 92.0283 42.8525C93.1351 42.8525 94.0122 43.132 94.6597 43.6909C95.3127 44.2443 95.6392 45.0246 95.6392 46.0317V49.9248C95.6447 50.777 95.7637 51.4217 95.9961 51.8589V52H93.5723ZM91.5884 50.3315C91.9425 50.3315 92.269 50.2541 92.5679 50.0991C92.8667 49.9386 93.0881 49.7256 93.2319 49.46V47.916H92.3354C91.1346 47.916 90.4954 48.3311 90.418 49.1611L90.4097 49.3022C90.4097 49.6011 90.5148 49.8473 90.7251 50.041C90.9354 50.2347 91.2231 50.3315 91.5884 50.3315ZM101.217 50.2319C101.66 50.2319 102.02 50.1102 102.296 49.8667C102.573 49.6232 102.717 49.2995 102.728 48.8955H104.978C104.972 49.5042 104.806 50.0632 104.479 50.5723C104.153 51.0758 103.705 51.4688 103.135 51.751C102.57 52.0277 101.945 52.166 101.259 52.166C99.9749 52.166 98.9622 51.7593 98.2207 50.9458C97.4792 50.1268 97.1084 48.9979 97.1084 47.5591V47.4014C97.1084 46.0179 97.4764 44.9139 98.2124 44.0894C98.9484 43.2648 99.9583 42.8525 101.242 42.8525C102.366 42.8525 103.265 43.1735 103.94 43.8154C104.621 44.4518 104.966 45.3013 104.978 46.3638H102.728C102.717 45.8989 102.573 45.5226 102.296 45.2349C102.02 44.9416 101.654 44.7949 101.201 44.7949C100.642 44.7949 100.218 44.9997 99.9307 45.4092C99.6484 45.8132 99.5073 46.4717 99.5073 47.3848V47.6338C99.5073 48.5579 99.6484 49.222 99.9307 49.626C100.213 50.0299 100.642 50.2319 101.217 50.2319ZM108.879 52H106.472V43.0186H108.879V52ZM106.331 40.6943C106.331 40.3346 106.45 40.0386 106.688 39.8062C106.931 39.5737 107.26 39.4575 107.675 39.4575C108.085 39.4575 108.411 39.5737 108.655 39.8062C108.898 40.0386 109.02 40.3346 109.02 40.6943C109.02 41.0596 108.896 41.3584 108.646 41.5908C108.403 41.8232 108.079 41.9395 107.675 41.9395C107.271 41.9395 106.945 41.8232 106.696 41.5908C106.452 41.3584 106.331 41.0596 106.331 40.6943ZM110.489 47.4263C110.489 46.5353 110.661 45.7412 111.004 45.0439C111.347 44.3467 111.84 43.8071 112.481 43.4253C113.129 43.0435 113.879 42.8525 114.731 42.8525C115.943 42.8525 116.931 43.2233 117.694 43.9648C118.464 44.7064 118.892 45.7135 118.981 46.9863L118.998 47.6006C118.998 48.9785 118.613 50.0853 117.844 50.9209C117.075 51.751 116.042 52.166 114.748 52.166C113.453 52.166 112.418 51.751 111.643 50.9209C110.874 50.0908 110.489 48.9619 110.489 47.5342V47.4263ZM112.888 47.6006C112.888 48.4528 113.049 49.1058 113.37 49.5596C113.691 50.0078 114.15 50.2319 114.748 50.2319C115.329 50.2319 115.782 50.0106 116.109 49.5679C116.435 49.1196 116.599 48.4058 116.599 47.4263C116.599 46.5907 116.435 45.9432 116.109 45.4839C115.782 45.0246 115.323 44.7949 114.731 44.7949C114.144 44.7949 113.691 45.0246 113.37 45.4839C113.049 45.9377 112.888 46.6432 112.888 47.6006ZM115.204 39.25H117.819L115.52 41.8232H113.569L115.204 39.25ZM122.683 43.0186L122.758 44.0562C123.4 43.2537 124.26 42.8525 125.339 42.8525C126.291 42.8525 127 43.132 127.464 43.6909C127.929 44.2498 128.167 45.0854 128.178 46.1978V52H125.779V46.2559C125.779 45.7467 125.669 45.3787 125.447 45.1519C125.226 44.9194 124.858 44.8032 124.343 44.8032C123.668 44.8032 123.162 45.091 122.824 45.6665V52H120.425V43.0186H122.683ZM142.422 52H134.138V50.3564L138.048 46.1895C138.585 45.6029 138.98 45.091 139.235 44.6538C139.495 44.2166 139.625 43.8016 139.625 43.4087C139.625 42.8719 139.489 42.4513 139.218 42.147C138.947 41.8371 138.56 41.6821 138.056 41.6821C137.514 41.6821 137.085 41.8703 136.77 42.2466C136.46 42.6174 136.305 43.1071 136.305 43.7158H133.897C133.897 42.9798 134.072 42.3075 134.42 41.6987C134.775 41.09 135.273 40.6141 135.915 40.271C136.556 39.9224 137.284 39.748 138.098 39.748C139.343 39.748 140.308 40.0469 140.995 40.6445C141.686 41.2422 142.032 42.0861 142.032 43.1763C142.032 43.7739 141.877 44.3826 141.567 45.0024C141.257 45.6222 140.726 46.3444 139.974 47.1689L137.226 50.0659H142.422V52ZM152.035 47.0029C152.035 48.6742 151.689 49.9525 150.997 50.8379C150.305 51.7233 149.293 52.166 147.959 52.166C146.642 52.166 145.635 51.7316 144.938 50.8628C144.24 49.994 143.883 48.7489 143.867 47.1274V44.9028C143.867 43.215 144.215 41.9339 144.913 41.0596C145.615 40.1852 146.625 39.748 147.942 39.748C149.259 39.748 150.267 40.1825 150.964 41.0513C151.661 41.9146 152.018 43.1569 152.035 44.7783V47.0029ZM149.636 44.5625C149.636 43.5609 149.497 42.8332 149.221 42.3794C148.95 41.9201 148.523 41.6904 147.942 41.6904C147.378 41.6904 146.96 41.909 146.689 42.3462C146.423 42.7778 146.282 43.4557 146.266 44.3799V47.3184C146.266 48.3034 146.398 49.0366 146.664 49.5181C146.935 49.994 147.367 50.2319 147.959 50.2319C148.546 50.2319 148.969 50.0023 149.229 49.543C149.489 49.0837 149.625 48.3809 149.636 47.4346V44.5625ZM161.946 52H153.662V50.3564L157.571 46.1895C158.108 45.6029 158.504 45.091 158.758 44.6538C159.018 44.2166 159.148 43.8016 159.148 43.4087C159.148 42.8719 159.013 42.4513 158.742 42.147C158.471 41.8371 158.083 41.6821 157.58 41.6821C157.037 41.6821 156.608 41.8703 156.293 42.2466C155.983 42.6174 155.828 43.1071 155.828 43.7158H153.421C153.421 42.9798 153.595 42.3075 153.944 41.6987C154.298 41.09 154.796 40.6141 155.438 40.271C156.08 39.9224 156.808 39.748 157.621 39.748C158.866 39.748 159.832 40.0469 160.518 40.6445C161.21 41.2422 161.556 42.0861 161.556 43.1763C161.556 43.7739 161.401 44.3826 161.091 45.0024C160.781 45.6222 160.25 46.3444 159.497 47.1689L156.75 50.0659H161.946V52ZM169.25 52H166.852V42.7529L163.988 43.6411V41.6904L168.993 39.8975H169.25V52Z" fill="#FAFAFA"/>
<path d="M34.6309 74.2109H30.1123L29.0869 77H28.2051L31.9717 67.0469H32.7715L36.5381 77H35.6631L34.6309 74.2109ZM30.3721 73.4932H34.3643L32.3682 68.0723L30.3721 73.4932ZM43.7637 73.377C43.7637 74.5299 43.5085 75.446 42.998 76.125C42.4876 76.7995 41.804 77.1367 40.9473 77.1367C39.9355 77.1367 39.1608 76.7812 38.623 76.0703V79.8438H37.8096V69.6035H38.5684L38.6094 70.6494C39.1426 69.861 39.915 69.4668 40.9268 69.4668C41.8109 69.4668 42.5036 69.8018 43.0049 70.4717C43.5107 71.1416 43.7637 72.0713 43.7637 73.2607V73.377ZM42.9434 73.2334C42.9434 72.29 42.7497 71.5449 42.3623 70.998C41.9749 70.4512 41.4349 70.1777 40.7422 70.1777C40.2409 70.1777 39.8102 70.2985 39.4502 70.54C39.0902 70.7816 38.8145 71.1325 38.623 71.5928V75.1406C38.819 75.5645 39.0993 75.888 39.4639 76.1113C39.8285 76.3346 40.2591 76.4463 40.7559 76.4463C41.444 76.4463 41.9795 76.1729 42.3623 75.626C42.7497 75.0745 42.9434 74.277 42.9434 73.2334ZM45.1309 73.1924C45.1309 72.4814 45.2676 71.8411 45.541 71.2715C45.819 70.7018 46.2087 70.2598 46.71 69.9453C47.2158 69.6263 47.7878 69.4668 48.4258 69.4668C49.4102 69.4668 50.2077 69.8132 50.8184 70.5059C51.429 71.194 51.7344 72.1077 51.7344 73.2471V73.418C51.7344 74.1335 51.5954 74.7783 51.3174 75.3525C51.0439 75.9222 50.6566 76.362 50.1553 76.6719C49.654 76.9818 49.082 77.1367 48.4395 77.1367C47.4596 77.1367 46.6621 76.7926 46.0469 76.1045C45.4362 75.4118 45.1309 74.4958 45.1309 73.3564V73.1924ZM45.9512 73.418C45.9512 74.3021 46.179 75.029 46.6348 75.5986C47.0951 76.1637 47.6966 76.4463 48.4395 76.4463C49.1777 76.4463 49.7747 76.1637 50.2305 75.5986C50.6908 75.029 50.9209 74.2793 50.9209 73.3496V73.1924C50.9209 72.6273 50.8161 72.11 50.6064 71.6406C50.3968 71.1712 50.1029 70.8089 49.7246 70.5537C49.3464 70.2939 48.9134 70.1641 48.4258 70.1641C47.6966 70.1641 47.1019 70.4512 46.6416 71.0254C46.1813 71.5951 45.9512 72.3424 45.9512 73.2676V73.418ZM55.665 75.8242L57.8252 69.6035H58.707L55.5488 78.2578L55.3848 78.6406C54.9792 79.5384 54.3525 79.9873 53.5049 79.9873C53.3089 79.9873 53.0993 79.9554 52.876 79.8916L52.8691 79.2148L53.293 79.2559C53.694 79.2559 54.0176 79.1556 54.2637 78.9551C54.5143 78.7591 54.7262 78.4196 54.8994 77.9365L55.2617 76.9385L52.4727 69.6035H53.3682L55.665 75.8242ZM64.5381 77C64.4561 76.7676 64.4036 76.4235 64.3809 75.9678C64.0938 76.3415 63.7269 76.6309 63.2803 76.8359C62.8382 77.0365 62.3688 77.1367 61.8721 77.1367C61.1611 77.1367 60.5846 76.9385 60.1426 76.542C59.7051 76.1455 59.4863 75.6442 59.4863 75.0381C59.4863 74.318 59.7848 73.7484 60.3818 73.3291C60.9834 72.9098 61.8197 72.7002 62.8906 72.7002H64.374V71.8594C64.374 71.3307 64.21 70.916 63.8818 70.6152C63.5583 70.3099 63.0843 70.1572 62.46 70.1572C61.8903 70.1572 61.4186 70.3031 61.0449 70.5947C60.6712 70.8864 60.4844 71.2373 60.4844 71.6475L59.6641 71.6406C59.6641 71.0527 59.9375 70.5446 60.4844 70.1162C61.0312 69.6833 61.7035 69.4668 62.501 69.4668C63.3258 69.4668 63.9753 69.6742 64.4492 70.0889C64.9277 70.499 65.1738 71.0732 65.1875 71.8115V75.3115C65.1875 76.027 65.2627 76.5625 65.4131 76.918V77H64.5381ZM61.9678 76.4121C62.5146 76.4121 63.0023 76.2799 63.4307 76.0156C63.8636 75.7513 64.1781 75.3981 64.374 74.9561V73.3291H62.9111C62.0954 73.3382 61.4574 73.4886 60.9971 73.7803C60.5368 74.0674 60.3066 74.4639 60.3066 74.9697C60.3066 75.3844 60.4593 75.7285 60.7646 76.002C61.0745 76.2754 61.4756 76.4121 61.9678 76.4121ZM73.6436 77.1367C73.0146 77.1367 72.445 76.9818 71.9346 76.6719C71.4287 76.362 71.0345 75.9313 70.752 75.3799C70.4694 74.8239 70.3281 74.2018 70.3281 73.5137V73.2197C70.3281 72.5088 70.4648 71.8685 70.7383 71.2988C71.0163 70.7292 71.4014 70.2826 71.8936 69.959C72.3857 69.6309 72.9189 69.4668 73.4932 69.4668C74.391 69.4668 75.1019 69.7744 75.626 70.3896C76.1546 71.0003 76.4189 71.8366 76.4189 72.8984V73.3564H71.1416V73.5137C71.1416 74.3522 71.3809 75.0518 71.8594 75.6123C72.3424 76.1683 72.9486 76.4463 73.6777 76.4463C74.1152 76.4463 74.5003 76.3665 74.833 76.207C75.1702 76.0475 75.4756 75.7923 75.749 75.4414L76.2617 75.8311C75.6602 76.7015 74.7874 77.1367 73.6436 77.1367ZM73.4932 70.1641C72.8779 70.1641 72.3584 70.3896 71.9346 70.8408C71.5153 71.292 71.2601 71.8981 71.1689 72.6592H75.6055V72.5703C75.5827 71.8594 75.3799 71.2806 74.9971 70.834C74.6143 70.3874 74.113 70.1641 73.4932 70.1641ZM82.332 77H81.5117V69.6035H82.332V77ZM81.3682 67.4639C81.3682 67.3089 81.4183 67.179 81.5186 67.0742C81.6188 66.9648 81.7555 66.9102 81.9287 66.9102C82.1019 66.9102 82.2386 66.9648 82.3389 67.0742C82.4437 67.179 82.4961 67.3089 82.4961 67.4639C82.4961 67.6188 82.4437 67.7487 82.3389 67.8535C82.2386 67.9583 82.1019 68.0107 81.9287 68.0107C81.7555 68.0107 81.6188 67.9583 81.5186 67.8535C81.4183 67.7487 81.3682 67.6188 81.3682 67.4639ZM85.3057 69.6035L85.333 70.8066C85.6064 70.36 85.9482 70.0251 86.3584 69.8018C86.7686 69.5785 87.2243 69.4668 87.7256 69.4668C88.8923 69.4668 89.6328 69.9453 89.9473 70.9023C90.2116 70.4421 90.5648 70.0889 91.0068 69.8428C91.4489 69.5921 91.9365 69.4668 92.4697 69.4668C94.0557 69.4668 94.8646 70.3327 94.8965 72.0645V77H94.0762V72.126C94.0716 71.4652 93.9281 70.9753 93.6455 70.6562C93.3675 70.3372 92.9118 70.1777 92.2783 70.1777C91.6904 70.1868 91.1937 70.3783 90.7881 70.752C90.3825 71.1211 90.1569 71.5723 90.1113 72.1055V77H89.291V72.0645C89.2865 71.431 89.1361 70.9593 88.8398 70.6494C88.5482 70.335 88.097 70.1777 87.4863 70.1777C86.9714 70.1777 86.5293 70.3258 86.1602 70.6221C85.791 70.9137 85.5176 71.349 85.3398 71.9277V77H84.5195V69.6035H85.3057ZM102.922 73.377C102.922 74.5299 102.667 75.446 102.156 76.125C101.646 76.7995 100.962 77.1367 100.105 77.1367C99.0938 77.1367 98.319 76.7812 97.7812 76.0703V79.8438H96.9678V69.6035H97.7266L97.7676 70.6494C98.3008 69.861 99.0732 69.4668 100.085 69.4668C100.969 69.4668 101.662 69.8018 102.163 70.4717C102.669 71.1416 102.922 72.0713 102.922 73.2607V73.377ZM102.102 73.2334C102.102 72.29 101.908 71.5449 101.521 70.998C101.133 70.4512 100.593 70.1777 99.9004 70.1777C99.3991 70.1777 98.9684 70.2985 98.6084 70.54C98.2484 70.7816 97.9727 71.1325 97.7812 71.5928V75.1406C97.9772 75.5645 98.2575 75.888 98.6221 76.1113C98.9867 76.3346 99.4173 76.4463 99.9141 76.4463C100.602 76.4463 101.138 76.1729 101.521 75.626C101.908 75.0745 102.102 74.277 102.102 73.2334ZM109.498 76.0635C109.006 76.779 108.22 77.1367 107.14 77.1367C106.351 77.1367 105.752 76.9089 105.342 76.4531C104.932 75.9928 104.722 75.3138 104.713 74.416V69.6035H105.526V74.3135C105.526 75.7217 106.096 76.4258 107.235 76.4258C108.42 76.4258 109.17 75.9359 109.484 74.9561V69.6035H110.305V77H109.512L109.498 76.0635ZM113.354 77H112.533V66.5H113.354V77ZM120.012 75.1201C120.012 74.7145 119.848 74.3887 119.52 74.1426C119.196 73.8965 118.706 73.7051 118.05 73.5684C117.394 73.4271 116.883 73.2676 116.519 73.0898C116.159 72.9076 115.89 72.6865 115.712 72.4268C115.539 72.167 115.452 71.8525 115.452 71.4834C115.452 70.9001 115.696 70.4193 116.184 70.041C116.671 69.6582 117.296 69.4668 118.057 69.4668C118.882 69.4668 119.542 69.6719 120.039 70.082C120.54 70.4876 120.791 71.0186 120.791 71.6748H119.971C119.971 71.2419 119.788 70.8818 119.424 70.5947C119.064 70.3076 118.608 70.1641 118.057 70.1641C117.519 70.1641 117.086 70.2848 116.758 70.5264C116.434 70.7633 116.272 71.0732 116.272 71.4561C116.272 71.8252 116.407 72.1123 116.676 72.3174C116.949 72.5179 117.444 72.7025 118.159 72.8711C118.879 73.0397 119.417 73.2197 119.772 73.4111C120.132 73.6025 120.399 73.8327 120.572 74.1016C120.745 74.3704 120.832 74.6963 120.832 75.0791C120.832 75.7035 120.579 76.2025 120.073 76.5762C119.572 76.9499 118.916 77.1367 118.104 77.1367C117.243 77.1367 116.544 76.9294 116.006 76.5146C115.473 76.0954 115.206 75.5667 115.206 74.9287H116.026C116.058 75.4072 116.259 75.7809 116.628 76.0498C117.002 76.3141 117.494 76.4463 118.104 76.4463C118.674 76.4463 119.134 76.321 119.485 76.0703C119.836 75.8197 120.012 75.5029 120.012 75.1201ZM127.347 77C127.265 76.7676 127.212 76.4235 127.189 75.9678C126.902 76.3415 126.535 76.6309 126.089 76.8359C125.647 77.0365 125.177 77.1367 124.681 77.1367C123.97 77.1367 123.393 76.9385 122.951 76.542C122.514 76.1455 122.295 75.6442 122.295 75.0381C122.295 74.318 122.593 73.7484 123.19 73.3291C123.792 72.9098 124.628 72.7002 125.699 72.7002H127.183V71.8594C127.183 71.3307 127.019 70.916 126.69 70.6152C126.367 70.3099 125.893 70.1572 125.269 70.1572C124.699 70.1572 124.227 70.3031 123.854 70.5947C123.48 70.8864 123.293 71.2373 123.293 71.6475L122.473 71.6406C122.473 71.0527 122.746 70.5446 123.293 70.1162C123.84 69.6833 124.512 69.4668 125.31 69.4668C126.134 69.4668 126.784 69.6742 127.258 70.0889C127.736 70.499 127.982 71.0732 127.996 71.8115V75.3115C127.996 76.027 128.071 76.5625 128.222 76.918V77H127.347ZM124.776 76.4121C125.323 76.4121 125.811 76.2799 126.239 76.0156C126.672 75.7513 126.987 75.3981 127.183 74.9561V73.3291H125.72C124.904 73.3382 124.266 73.4886 123.806 73.7803C123.345 74.0674 123.115 74.4639 123.115 74.9697C123.115 75.3844 123.268 75.7285 123.573 76.002C123.883 76.2754 124.284 76.4121 124.776 76.4121ZM133.602 70.3008C133.428 70.2689 133.244 70.2529 133.048 70.2529C132.537 70.2529 132.104 70.3965 131.749 70.6836C131.398 70.9661 131.147 71.3786 130.997 71.9209V77H130.184V69.6035H130.983L130.997 70.7793C131.43 69.9043 132.125 69.4668 133.082 69.4668C133.31 69.4668 133.49 69.4964 133.622 69.5557L133.602 70.3008ZM139.221 77H138.4V66.5H139.221V77ZM146.118 77C146.036 76.7676 145.984 76.4235 145.961 75.9678C145.674 76.3415 145.307 76.6309 144.86 76.8359C144.418 77.0365 143.949 77.1367 143.452 77.1367C142.741 77.1367 142.165 76.9385 141.723 76.542C141.285 76.1455 141.066 75.6442 141.066 75.0381C141.066 74.318 141.365 73.7484 141.962 73.3291C142.563 72.9098 143.4 72.7002 144.471 72.7002H145.954V71.8594C145.954 71.3307 145.79 70.916 145.462 70.6152C145.138 70.3099 144.664 70.1572 144.04 70.1572C143.47 70.1572 142.999 70.3031 142.625 70.5947C142.251 70.8864 142.064 71.2373 142.064 71.6475L141.244 71.6406C141.244 71.0527 141.518 70.5446 142.064 70.1162C142.611 69.6833 143.284 69.4668 144.081 69.4668C144.906 69.4668 145.555 69.6742 146.029 70.0889C146.508 70.499 146.754 71.0732 146.768 71.8115V75.3115C146.768 76.027 146.843 76.5625 146.993 76.918V77H146.118ZM143.548 76.4121C144.095 76.4121 144.582 76.2799 145.011 76.0156C145.444 75.7513 145.758 75.3981 145.954 74.9561V73.3291H144.491C143.675 73.3382 143.037 73.4886 142.577 73.7803C142.117 74.0674 141.887 74.4639 141.887 74.9697C141.887 75.3844 142.039 75.7285 142.345 76.002C142.655 76.2754 143.056 76.4121 143.548 76.4121ZM153.275 77H152.455V69.6035H153.275V77ZM152.312 67.4639C152.312 67.3089 152.362 67.179 152.462 67.0742C152.562 66.9648 152.699 66.9102 152.872 66.9102C153.045 66.9102 153.182 66.9648 153.282 67.0742C153.387 67.179 153.439 67.3089 153.439 67.4639C153.439 67.6188 153.387 67.7487 153.282 67.8535C153.182 67.9583 153.045 68.0107 152.872 68.0107C152.699 68.0107 152.562 67.9583 152.462 67.8535C152.362 67.7487 152.312 67.6188 152.312 67.4639ZM156.283 69.6035L156.311 70.8682C156.589 70.4124 156.935 70.0661 157.35 69.8291C157.764 69.5876 158.222 69.4668 158.724 69.4668C159.517 69.4668 160.107 69.6901 160.494 70.1367C160.882 70.5833 161.077 71.2533 161.082 72.1465V77H160.269V72.1396C160.264 71.4788 160.123 70.9867 159.845 70.6631C159.571 70.3395 159.132 70.1777 158.525 70.1777C158.02 70.1777 157.571 70.3372 157.179 70.6562C156.791 70.9707 156.504 71.3968 156.317 71.9346V77H155.504V69.6035H156.283ZM165.505 75.8721L167.754 69.6035H168.595L165.833 77H165.17L162.395 69.6035H163.235L165.505 75.8721ZM172.71 77.1367C172.081 77.1367 171.511 76.9818 171.001 76.6719C170.495 76.362 170.101 75.9313 169.818 75.3799C169.536 74.8239 169.395 74.2018 169.395 73.5137V73.2197C169.395 72.5088 169.531 71.8685 169.805 71.2988C170.083 70.7292 170.468 70.2826 170.96 69.959C171.452 69.6309 171.985 69.4668 172.56 69.4668C173.457 69.4668 174.168 69.7744 174.692 70.3896C175.221 71.0003 175.485 71.8366 175.485 72.8984V73.3564H170.208V73.5137C170.208 74.3522 170.447 75.0518 170.926 75.6123C171.409 76.1683 172.015 76.4463 172.744 76.4463C173.182 76.4463 173.567 76.3665 173.899 76.207C174.237 76.0475 174.542 75.7923 174.815 75.4414L175.328 75.8311C174.727 76.7015 173.854 77.1367 172.71 77.1367ZM172.56 70.1641C171.944 70.1641 171.425 70.3896 171.001 70.8408C170.582 71.292 170.326 71.8981 170.235 72.6592H174.672V72.5703C174.649 71.8594 174.446 71.2806 174.063 70.834C173.681 70.3874 173.179 70.1641 172.56 70.1641ZM181.508 75.1201C181.508 74.7145 181.344 74.3887 181.016 74.1426C180.692 73.8965 180.202 73.7051 179.546 73.5684C178.89 73.4271 178.379 73.2676 178.015 73.0898C177.655 72.9076 177.386 72.6865 177.208 72.4268C177.035 72.167 176.948 71.8525 176.948 71.4834C176.948 70.9001 177.192 70.4193 177.68 70.041C178.167 69.6582 178.792 69.4668 179.553 69.4668C180.378 69.4668 181.038 69.6719 181.535 70.082C182.036 70.4876 182.287 71.0186 182.287 71.6748H181.467C181.467 71.2419 181.285 70.8818 180.92 70.5947C180.56 70.3076 180.104 70.1641 179.553 70.1641C179.015 70.1641 178.582 70.2848 178.254 70.5264C177.93 70.7633 177.769 71.0732 177.769 71.4561C177.769 71.8252 177.903 72.1123 178.172 72.3174C178.445 72.5179 178.94 72.7025 179.655 72.8711C180.375 73.0397 180.913 73.2197 181.269 73.4111C181.629 73.6025 181.895 73.8327 182.068 74.1016C182.242 74.3704 182.328 74.6963 182.328 75.0791C182.328 75.7035 182.075 76.2025 181.569 76.5762C181.068 76.9499 180.412 77.1367 179.601 77.1367C178.739 77.1367 178.04 76.9294 177.502 76.5146C176.969 76.0954 176.702 75.5667 176.702 74.9287H177.522C177.554 75.4072 177.755 75.7809 178.124 76.0498C178.498 76.3141 178.99 76.4463 179.601 76.4463C180.17 76.4463 180.631 76.321 180.981 76.0703C181.332 75.8197 181.508 75.5029 181.508 75.1201ZM185.445 67.71V69.6035H186.977V70.2734H185.445V75.2021C185.445 75.6123 185.518 75.9176 185.664 76.1182C185.814 76.3187 186.063 76.4189 186.409 76.4189C186.546 76.4189 186.767 76.3962 187.072 76.3506L187.106 77.0205C186.892 77.098 186.601 77.1367 186.231 77.1367C185.671 77.1367 185.263 76.9749 185.008 76.6514C184.753 76.3232 184.625 75.8424 184.625 75.209V70.2734H183.265V69.6035H184.625V67.71H185.445ZM189.588 77H188.768V69.6035H189.588V77ZM188.624 67.4639C188.624 67.3089 188.674 67.179 188.774 67.0742C188.875 66.9648 189.011 66.9102 189.185 66.9102C189.358 66.9102 189.494 66.9648 189.595 67.0742C189.7 67.179 189.752 67.3089 189.752 67.4639C189.752 67.6188 189.7 67.7487 189.595 67.8535C189.494 67.9583 189.358 68.0107 189.185 68.0107C189.011 68.0107 188.875 67.9583 188.774 67.8535C188.674 67.7487 188.624 67.6188 188.624 67.4639ZM191.488 73.2334C191.488 72.0758 191.743 71.1598 192.254 70.4854C192.769 69.8063 193.466 69.4668 194.346 69.4668C195.353 69.4668 196.118 69.8678 196.643 70.6699L196.684 69.6035H197.449V76.8496C197.449 77.8021 197.183 78.5563 196.649 79.1123C196.116 79.6683 195.394 79.9463 194.482 79.9463C193.967 79.9463 193.475 79.8301 193.006 79.5977C192.541 79.3698 192.174 79.0645 191.905 78.6816L192.363 78.1895C192.942 78.9004 193.63 79.2559 194.428 79.2559C195.111 79.2559 195.645 79.0531 196.027 78.6475C196.41 78.2464 196.608 77.6882 196.622 76.9727V76.043C196.098 76.7721 195.335 77.1367 194.332 77.1367C193.475 77.1367 192.787 76.7949 192.268 76.1113C191.748 75.4277 191.488 74.5049 191.488 73.3428V73.2334ZM192.315 73.377C192.315 74.3203 192.505 75.0654 192.883 75.6123C193.261 76.1546 193.794 76.4258 194.482 76.4258C195.49 76.4258 196.203 75.9746 196.622 75.0723V71.6338C196.431 71.1598 196.155 70.7998 195.795 70.5537C195.435 70.3031 195.002 70.1777 194.496 70.1777C193.808 70.1777 193.272 70.4489 192.89 70.9912C192.507 71.529 192.315 72.3242 192.315 73.377ZM204.251 77C204.169 76.7676 204.117 76.4235 204.094 75.9678C203.807 76.3415 203.44 76.6309 202.993 76.8359C202.551 77.0365 202.082 77.1367 201.585 77.1367C200.874 77.1367 200.298 76.9385 199.855 76.542C199.418 76.1455 199.199 75.6442 199.199 75.0381C199.199 74.318 199.498 73.7484 200.095 73.3291C200.696 72.9098 201.533 72.7002 202.604 72.7002H204.087V71.8594C204.087 71.3307 203.923 70.916 203.595 70.6152C203.271 70.3099 202.797 70.1572 202.173 70.1572C201.603 70.1572 201.132 70.3031 200.758 70.5947C200.384 70.8864 200.197 71.2373 200.197 71.6475L199.377 71.6406C199.377 71.0527 199.65 70.5446 200.197 70.1162C200.744 69.6833 201.416 69.4668 202.214 69.4668C203.039 69.4668 203.688 69.6742 204.162 70.0889C204.641 70.499 204.887 71.0732 204.9 71.8115V75.3115C204.9 76.027 204.976 76.5625 205.126 76.918V77H204.251ZM201.681 76.4121C202.228 76.4121 202.715 76.2799 203.144 76.0156C203.576 75.7513 203.891 75.3981 204.087 74.9561V73.3291H202.624C201.808 73.3382 201.17 73.4886 200.71 73.7803C200.25 74.0674 200.02 74.4639 200.02 74.9697C200.02 75.3844 200.172 75.7285 200.478 76.002C200.787 76.2754 201.188 76.4121 201.681 76.4121ZM209.822 76.4463C210.392 76.4463 210.868 76.2868 211.251 75.9678C211.638 75.6442 211.848 75.2272 211.88 74.7168H212.666C212.643 75.168 212.502 75.5804 212.242 75.9541C211.982 76.3232 211.636 76.6126 211.203 76.8223C210.775 77.0319 210.314 77.1367 209.822 77.1367C208.852 77.1367 208.081 76.7995 207.512 76.125C206.947 75.4505 206.664 74.5436 206.664 73.4043V73.1582C206.664 72.429 206.792 71.7842 207.047 71.2236C207.302 70.6631 207.667 70.2301 208.141 69.9248C208.619 69.6195 209.177 69.4668 209.815 69.4668C210.627 69.4668 211.294 69.7083 211.818 70.1914C212.347 70.6745 212.63 71.3102 212.666 72.0986H211.88C211.843 71.5199 211.634 71.0527 211.251 70.6973C210.873 70.3418 210.394 70.1641 209.815 70.1641C209.077 70.1641 208.503 70.4307 208.093 70.9639C207.687 71.4971 207.484 72.2445 207.484 73.2061V73.4453C207.484 74.3887 207.687 75.1247 208.093 75.6533C208.503 76.182 209.079 76.4463 209.822 76.4463ZM215.223 77H214.402V69.6035H215.223V77ZM214.259 67.4639C214.259 67.3089 214.309 67.179 214.409 67.0742C214.509 66.9648 214.646 66.9102 214.819 66.9102C214.993 66.9102 215.129 66.9648 215.229 67.0742C215.334 67.179 215.387 67.3089 215.387 67.4639C215.387 67.6188 215.334 67.7487 215.229 67.8535C215.129 67.9583 214.993 68.0107 214.819 68.0107C214.646 68.0107 214.509 67.9583 214.409 67.8535C214.309 67.7487 214.259 67.6188 214.259 67.4639ZM217 73.1924C217 72.4814 217.137 71.8411 217.41 71.2715C217.688 70.7018 218.078 70.2598 218.579 69.9453C219.085 69.6263 219.657 69.4668 220.295 69.4668C221.279 69.4668 222.077 69.8132 222.688 70.5059C223.298 71.194 223.604 72.1077 223.604 73.2471V73.418C223.604 74.1335 223.465 74.7783 223.187 75.3525C222.913 75.9222 222.526 76.362 222.024 76.6719C221.523 76.9818 220.951 77.1367 220.309 77.1367C219.329 77.1367 218.531 76.7926 217.916 76.1045C217.305 75.4118 217 74.4958 217 73.3564V73.1924ZM217.82 73.418C217.82 74.3021 218.048 75.029 218.504 75.5986C218.964 76.1637 219.566 76.4463 220.309 76.4463C221.047 76.4463 221.644 76.1637 222.1 75.5986C222.56 75.029 222.79 74.2793 222.79 73.3496V73.1924C222.79 72.6273 222.685 72.11 222.476 71.6406C222.266 71.1712 221.972 70.8089 221.594 70.5537C221.215 70.2939 220.783 70.1641 220.295 70.1641C219.566 70.1641 218.971 70.4512 218.511 71.0254C218.05 71.5951 217.82 72.3424 217.82 73.2676V73.418ZM221.108 66.5H222.1L220.521 68.4141H219.803L221.108 66.5ZM226.078 69.6035L226.105 70.8682C226.383 70.4124 226.73 70.0661 227.145 69.8291C227.559 69.5876 228.017 69.4668 228.519 69.4668C229.312 69.4668 229.902 69.6901 230.289 70.1367C230.676 70.5833 230.872 71.2533 230.877 72.1465V77H230.063V72.1396C230.059 71.4788 229.918 70.9867 229.64 70.6631C229.366 70.3395 228.926 70.1777 228.32 70.1777C227.814 70.1777 227.366 70.3372 226.974 70.6562C226.586 70.9707 226.299 71.3968 226.112 71.9346V77H225.299V69.6035H226.078ZM239.135 76.4463C239.704 76.4463 240.181 76.2868 240.563 75.9678C240.951 75.6442 241.16 75.2272 241.192 74.7168H241.979C241.956 75.168 241.814 75.5804 241.555 75.9541C241.295 76.3232 240.949 76.6126 240.516 76.8223C240.087 77.0319 239.627 77.1367 239.135 77.1367C238.164 77.1367 237.394 76.7995 236.824 76.125C236.259 75.4505 235.977 74.5436 235.977 73.4043V73.1582C235.977 72.429 236.104 71.7842 236.359 71.2236C236.615 70.6631 236.979 70.2301 237.453 69.9248C237.932 69.6195 238.49 69.4668 239.128 69.4668C239.939 69.4668 240.607 69.7083 241.131 70.1914C241.66 70.6745 241.942 71.3102 241.979 72.0986H241.192C241.156 71.5199 240.946 71.0527 240.563 70.6973C240.185 70.3418 239.707 70.1641 239.128 70.1641C238.39 70.1641 237.815 70.4307 237.405 70.9639C237 71.4971 236.797 72.2445 236.797 73.2061V73.4453C236.797 74.3887 237 75.1247 237.405 75.6533C237.815 76.182 238.392 76.4463 239.135 76.4463ZM244.535 77H243.715V69.6035H244.535V77ZM243.571 67.4639C243.571 67.3089 243.621 67.179 243.722 67.0742C243.822 66.9648 243.959 66.9102 244.132 66.9102C244.305 66.9102 244.442 66.9648 244.542 67.0742C244.647 67.179 244.699 67.3089 244.699 67.4639C244.699 67.6188 244.647 67.7487 244.542 67.8535C244.442 67.9583 244.305 68.0107 244.132 68.0107C243.959 68.0107 243.822 67.9583 243.722 67.8535C243.621 67.7487 243.571 67.6188 243.571 67.4639ZM249.628 77.1367C248.999 77.1367 248.429 76.9818 247.919 76.6719C247.413 76.362 247.019 75.9313 246.736 75.3799C246.454 74.8239 246.312 74.2018 246.312 73.5137V73.2197C246.312 72.5088 246.449 71.8685 246.723 71.2988C247.001 70.7292 247.386 70.2826 247.878 69.959C248.37 69.6309 248.903 69.4668 249.478 69.4668C250.375 69.4668 251.086 69.7744 251.61 70.3896C252.139 71.0003 252.403 71.8366 252.403 72.8984V73.3564H247.126V73.5137C247.126 74.3522 247.365 75.0518 247.844 75.6123C248.327 76.1683 248.933 76.4463 249.662 76.4463C250.1 76.4463 250.485 76.3665 250.817 76.207C251.155 76.0475 251.46 75.7923 251.733 75.4414L252.246 75.8311C251.645 76.7015 250.772 77.1367 249.628 77.1367ZM249.478 70.1641C248.862 70.1641 248.343 70.3896 247.919 70.8408C247.5 71.292 247.244 71.8981 247.153 72.6592H251.59V72.5703C251.567 71.8594 251.364 71.2806 250.981 70.834C250.599 70.3874 250.097 70.1641 249.478 70.1641ZM254.775 69.6035L254.803 70.8682C255.081 70.4124 255.427 70.0661 255.842 69.8291C256.257 69.5876 256.715 69.4668 257.216 69.4668C258.009 69.4668 258.599 69.6901 258.986 70.1367C259.374 70.5833 259.57 71.2533 259.574 72.1465V77H258.761V72.1396C258.756 71.4788 258.615 70.9867 258.337 70.6631C258.063 70.3395 257.624 70.1777 257.018 70.1777C256.512 70.1777 256.063 70.3372 255.671 70.6562C255.284 70.9707 254.996 71.3968 254.81 71.9346V77H253.996V69.6035H254.775ZM262.965 67.71V69.6035H264.496V70.2734H262.965V75.2021C262.965 75.6123 263.038 75.9176 263.184 76.1182C263.334 76.3187 263.582 76.4189 263.929 76.4189C264.065 76.4189 264.286 76.3962 264.592 76.3506L264.626 77.0205C264.412 77.098 264.12 77.1367 263.751 77.1367C263.19 77.1367 262.783 76.9749 262.527 76.6514C262.272 76.3232 262.145 75.8424 262.145 75.209V70.2734H260.784V69.6035H262.145V67.71H262.965ZM267.094 77H266.273V69.6035H267.094V77ZM267.518 66.582H268.509L266.93 68.4961H266.212L267.518 66.582ZM269.801 77V70.2734H268.57V69.6035H269.801V68.8447C269.801 68.0563 270.015 67.4456 270.443 67.0127C270.872 66.5752 271.476 66.3564 272.255 66.3564C272.866 66.3564 273.494 66.4909 274.142 66.7598L274.005 67.4639C273.449 67.2223 272.884 67.1016 272.31 67.1016C271.184 67.1016 270.621 67.6872 270.621 68.8584V69.6035H272.351V70.2734H270.621V77H269.801ZM274.586 77H273.766V69.6035H274.586V77ZM279.562 76.4463C280.132 76.4463 280.608 76.2868 280.991 75.9678C281.379 75.6442 281.588 75.2272 281.62 74.7168H282.406C282.383 75.168 282.242 75.5804 281.982 75.9541C281.723 76.3232 281.376 76.6126 280.943 76.8223C280.515 77.0319 280.055 77.1367 279.562 77.1367C278.592 77.1367 277.822 76.7995 277.252 76.125C276.687 75.4505 276.404 74.5436 276.404 73.4043V73.1582C276.404 72.429 276.532 71.7842 276.787 71.2236C277.042 70.6631 277.407 70.2301 277.881 69.9248C278.359 69.6195 278.918 69.4668 279.556 69.4668C280.367 69.4668 281.035 69.7083 281.559 70.1914C282.087 70.6745 282.37 71.3102 282.406 72.0986H281.62C281.584 71.5199 281.374 71.0527 280.991 70.6973C280.613 70.3418 280.134 70.1641 279.556 70.1641C278.817 70.1641 278.243 70.4307 277.833 70.9639C277.427 71.4971 277.225 72.2445 277.225 73.2061V73.4453C277.225 74.3887 277.427 75.1247 277.833 75.6533C278.243 76.182 278.82 76.4463 279.562 76.4463ZM288.716 77C288.634 76.7676 288.581 76.4235 288.559 75.9678C288.271 76.3415 287.905 76.6309 287.458 76.8359C287.016 77.0365 286.547 77.1367 286.05 77.1367C285.339 77.1367 284.762 76.9385 284.32 76.542C283.883 76.1455 283.664 75.6442 283.664 75.0381C283.664 74.318 283.963 73.7484 284.56 73.3291C285.161 72.9098 285.997 72.7002 287.068 72.7002H288.552V71.8594C288.552 71.3307 288.388 70.916 288.06 70.6152C287.736 70.3099 287.262 70.1572 286.638 70.1572C286.068 70.1572 285.596 70.3031 285.223 70.5947C284.849 70.8864 284.662 71.2373 284.662 71.6475L283.842 71.6406C283.842 71.0527 284.115 70.5446 284.662 70.1162C285.209 69.6833 285.881 69.4668 286.679 69.4668C287.504 69.4668 288.153 69.6742 288.627 70.0889C289.105 70.499 289.352 71.0732 289.365 71.8115V75.3115C289.365 76.027 289.44 76.5625 289.591 76.918V77H288.716ZM286.146 76.4121C286.692 76.4121 287.18 76.2799 287.608 76.0156C288.041 75.7513 288.356 75.3981 288.552 74.9561V73.3291H287.089C286.273 73.3382 285.635 73.4886 285.175 73.7803C284.715 74.0674 284.484 74.4639 284.484 74.9697C284.484 75.3844 284.637 75.7285 284.942 76.002C285.252 76.2754 285.653 76.4121 286.146 76.4121Z" fill="white"/>
<g filter="url(#filter0_d)">
<rect x="27" y="94" width="284" height="5.7542" rx="2.8771" fill="#1F3044"/>
<rect x="27" y="94" width="70" height="5" rx="2.5" fill="#F19174"/>
</g>
<path d="M329.874 100H322.886V99.0259L326.578 94.9243C327.125 94.3042 327.5 93.8013 327.706 93.4155C327.916 93.0249 328.021 92.6221 328.021 92.207C328.021 91.6504 327.852 91.1938 327.515 90.8374C327.178 90.481 326.729 90.3027 326.167 90.3027C325.494 90.3027 324.969 90.4956 324.593 90.8813C324.222 91.2622 324.036 91.7944 324.036 92.478H322.681C322.681 91.4966 322.996 90.7031 323.626 90.0977C324.261 89.4922 325.108 89.1895 326.167 89.1895C327.159 89.1895 327.942 89.4507 328.519 89.9731C329.095 90.4907 329.383 91.1816 329.383 92.0459C329.383 93.0957 328.714 94.3457 327.376 95.7959L324.52 98.894H329.874V100ZM337.996 95.4517C337.996 97.0386 337.725 98.2178 337.183 98.9893C336.641 99.7607 335.794 100.146 334.642 100.146C333.504 100.146 332.662 99.7705 332.115 99.0186C331.568 98.2617 331.285 97.1338 331.265 95.6348V93.8257C331.265 92.2583 331.536 91.0938 332.078 90.332C332.62 89.5703 333.47 89.1895 334.627 89.1895C335.774 89.1895 336.619 89.5581 337.161 90.2954C337.703 91.0278 337.981 92.1606 337.996 93.6938V95.4517ZM336.641 93.5986C336.641 92.4512 336.48 91.6162 336.158 91.0938C335.835 90.5664 335.325 90.3027 334.627 90.3027C333.934 90.3027 333.428 90.564 333.111 91.0864C332.793 91.6089 332.63 92.4121 332.62 93.4961V95.6641C332.62 96.8164 332.786 97.6685 333.118 98.2202C333.455 98.7671 333.963 99.0405 334.642 99.0405C335.311 99.0405 335.806 98.7817 336.128 98.2642C336.456 97.7466 336.626 96.9312 336.641 95.8179V93.5986ZM339.615 91.3867C339.615 90.7471 339.817 90.2197 340.223 89.8047C340.633 89.3896 341.158 89.1821 341.797 89.1821C342.447 89.1821 342.972 89.3921 343.372 89.812C343.777 90.2271 343.98 90.7666 343.98 91.4307V91.9507C343.98 92.5952 343.775 93.1226 343.365 93.5327C342.959 93.938 342.442 94.1406 341.812 94.1406C341.177 94.1406 340.652 93.938 340.237 93.5327C339.822 93.1226 339.615 92.5781 339.615 91.8994V91.3867ZM340.625 91.9507C340.625 92.3315 340.733 92.6465 340.948 92.8955C341.163 93.1396 341.451 93.2617 341.812 93.2617C342.159 93.2617 342.437 93.1421 342.647 92.9028C342.862 92.6636 342.969 92.3364 342.969 91.9214V91.3867C342.969 91.0059 342.864 90.6909 342.654 90.4419C342.444 90.1929 342.159 90.0684 341.797 90.0684C341.436 90.0684 341.15 90.1929 340.94 90.4419C340.73 90.6909 340.625 91.0156 340.625 91.416V91.9507ZM344.808 97.3853C344.808 96.7456 345.01 96.2207 345.416 95.8105C345.826 95.3955 346.351 95.188 346.99 95.188C347.63 95.188 348.155 95.3931 348.565 95.8032C348.975 96.2134 349.18 96.7578 349.18 97.4365V97.9565C349.18 98.5962 348.975 99.1235 348.565 99.5386C348.16 99.9487 347.64 100.154 347.005 100.154C346.37 100.154 345.845 99.9512 345.43 99.5459C345.015 99.1357 344.808 98.5913 344.808 97.9126V97.3853ZM345.818 97.9565C345.818 98.3423 345.926 98.6597 346.141 98.9087C346.355 99.1528 346.644 99.2749 347.005 99.2749C347.356 99.2749 347.637 99.1553 347.847 98.916C348.057 98.6719 348.162 98.3423 348.162 97.9272V97.3853C348.162 96.9995 348.055 96.6846 347.84 96.4404C347.63 96.1963 347.347 96.0742 346.99 96.0742C346.644 96.0742 346.36 96.1963 346.141 96.4404C345.926 96.6797 345.818 97.0044 345.818 97.4146V97.9565ZM342.12 99.1943L341.351 98.7109L346.558 90.376L347.327 90.8594L342.12 99.1943Z" fill="#F19174"/>
<path d="M344.953 16.0425H347.53V17.1533H344.953V20.0732H343.772V17.1533H341.195V16.0425H343.772V13.3447H344.953V16.0425ZM353.465 21H352.29V14.1318H353.465V21ZM352.195 12.3101C352.195 12.1196 352.252 11.9588 352.367 11.8276C352.485 11.6965 352.659 11.6309 352.887 11.6309C353.116 11.6309 353.289 11.6965 353.408 11.8276C353.526 11.9588 353.585 12.1196 353.585 12.3101C353.585 12.5005 353.526 12.6592 353.408 12.7861C353.289 12.9131 353.116 12.9766 352.887 12.9766C352.659 12.9766 352.485 12.9131 352.367 12.7861C352.252 12.6592 352.195 12.5005 352.195 12.3101ZM356.461 14.1318L356.499 14.9951C357.024 14.335 357.709 14.0049 358.556 14.0049C360.007 14.0049 360.739 14.8237 360.752 16.4614V21H359.578V16.4551C359.573 15.96 359.459 15.5939 359.235 15.3569C359.015 15.12 358.67 15.0015 358.2 15.0015C357.819 15.0015 357.485 15.103 357.197 15.3062C356.909 15.5093 356.685 15.7759 356.524 16.106V21H355.35V14.1318H356.461ZM363.101 21V15.0396H362.015V14.1318H363.101V13.4272C363.101 12.6909 363.297 12.1217 363.691 11.7197C364.084 11.3177 364.641 11.1167 365.36 11.1167C365.631 11.1167 365.9 11.1527 366.166 11.2246L366.103 12.1768C365.904 12.1387 365.692 12.1196 365.468 12.1196C365.087 12.1196 364.793 12.2318 364.586 12.4561C364.379 12.6761 364.275 12.9935 364.275 13.4082V14.1318H365.741V15.0396H364.275V21H363.101ZM366.731 17.5024C366.731 16.8296 366.863 16.2244 367.125 15.687C367.392 15.1496 367.76 14.7349 368.229 14.4429C368.703 14.1509 369.243 14.0049 369.848 14.0049C370.783 14.0049 371.539 14.3286 372.114 14.9761C372.694 15.6235 372.984 16.4847 372.984 17.5596V17.6421C372.984 18.3107 372.855 18.9116 372.597 19.4448C372.343 19.9738 371.977 20.3864 371.498 20.6826C371.025 20.9788 370.479 21.127 369.861 21.127C368.93 21.127 368.174 20.8032 367.595 20.1558C367.019 19.5083 366.731 18.6514 366.731 17.585V17.5024ZM367.912 17.6421C367.912 18.4038 368.088 19.0153 368.439 19.4766C368.794 19.9378 369.268 20.1685 369.861 20.1685C370.457 20.1685 370.931 19.9357 371.283 19.4702C371.634 19.0005 371.809 18.3446 371.809 17.5024C371.809 16.7492 371.63 16.1398 371.27 15.6743C370.914 15.2046 370.441 14.9697 369.848 14.9697C369.268 14.9697 368.801 15.2004 368.445 15.6616C368.09 16.1229 367.912 16.783 367.912 17.6421Z" fill="white"/>
<path d="M340.7 22.2695H373.568V22.9043H340.7V22.2695Z" fill="white"/>
<defs>
<filter id="filter0_d" x="23" y="94" width="292" height="13.7542" filterUnits="userSpaceOnUse" color-interpolation-filters="sRGB">
<feFlood flood-opacity="0" result="BackgroundImageFix"/>
<feColorMatrix in="SourceAlpha" type="matrix" values="0 0 0 0 0 0 0 0 0 0 0 0 0 0 0 0 0 0 127 0"/>
<feOffset dy="4"/>
<feGaussianBlur stdDeviation="2"/>
<feColorMatrix type="matrix" values="0 0 0 0 0 0 0 0 0 0 0 0 0 0 0 0 0 0 0.25 0"/>
<feBlend mode="normal" in2="BackgroundImageFix" result="effect1_dropShadow"/>
<feBlend mode="normal" in="SourceGraphic" in2="effect1_dropShadow" result="shape"/>
</filter>
</defs>
</svg>
