<svg width="32" height="32" viewBox="0 0 32 32" fill="none" xmlns="http://www.w3.org/2000/svg">
<path d="M27.2498 9.47257C27.0196 9.21446 26.7637 8.98046 26.4861 8.77417C26.6001 7.88098 26.5213 6.97372 26.255 6.11355C25.9887 5.25338 25.5412 4.46027 24.9425 3.78768C23.4972 2.15877 21.0337 1.33325 17.6196 1.33325H9.33445C8.73589 1.33485 8.15739 1.54918 7.70229 1.93798C7.24719 2.32677 6.94513 2.86469 6.85007 3.45565L3.39694 25.3307C3.34809 25.6239 3.36376 25.9242 3.44288 26.2107C3.52199 26.4972 3.66264 26.7631 3.85503 26.9897C4.04741 27.2163 4.28689 27.3982 4.55679 27.5227C4.82668 27.6473 5.12049 27.7115 5.41774 27.7109H8.96986L8.86053 28.4049C8.81631 28.684 8.83314 28.9695 8.90983 29.2415C8.98653 29.5136 9.12128 29.7657 9.3048 29.9807C9.48833 30.1957 9.71626 30.3683 9.97291 30.4867C10.2296 30.6051 10.5088 30.6665 10.7915 30.6666H15.104C15.6626 30.6711 16.2046 30.4762 16.6325 30.117C17.0604 29.7579 17.3462 29.2579 17.4386 28.7069L18.2928 23.3319L18.3071 23.259H18.7056C24.0819 23.259 27.44 20.6015 28.4191 15.5754C28.7178 14.5379 28.7676 13.4445 28.5645 12.3841C28.3613 11.3237 27.9109 10.3262 27.2498 9.47257ZM10.4568 18.2721L9.50421 24.3191L9.38913 25.0442H6.14174L9.46335 3.99992H17.6196C20.2003 3.99992 22.0428 4.53899 22.9425 5.552C23.3672 6.04579 23.6634 6.63681 23.8048 7.27258C23.9462 7.90835 23.9284 8.5692 23.7531 9.19645L23.7282 9.34611C23.712 9.44808 23.6973 9.54769 23.6704 9.6744C23.4132 11.5796 22.4611 13.3226 20.9969 14.5684C19.3531 15.7116 17.372 16.2673 15.3735 16.1458H12.9425C12.3422 16.1438 11.7611 16.3573 11.305 16.7475C10.8488 17.1377 10.5479 17.6787 10.4568 18.2721ZM25.8019 15.065C25.0675 18.8359 22.8123 20.5924 18.7055 20.5924H18.061C17.5018 20.588 16.9594 20.7834 16.5314 21.1434C16.1034 21.5033 15.8179 22.0042 15.7263 22.5559L14.8605 27.9882L11.6235 27.9999L12.261 23.9548L13.0759 18.8176H15.3683C15.5774 18.8176 15.7622 18.7862 15.9658 18.7791C16.4442 18.7625 16.9213 18.7441 17.3694 18.6886C17.643 18.6545 17.8942 18.5923 18.1565 18.5436C18.5198 18.4765 18.8834 18.4101 19.2246 18.3153C19.4784 18.2446 19.7152 18.1537 19.9567 18.0678C20.2757 17.9546 20.5897 17.8358 20.8868 17.6962C21.1108 17.5907 21.3242 17.4735 21.5355 17.3532C21.8169 17.1938 22.0894 17.0195 22.352 16.8309C22.5417 16.6941 22.7279 16.5537 22.9054 16.4029C23.1569 16.186 23.3959 15.955 23.6213 15.711C23.7719 15.5503 23.9262 15.3943 24.0657 15.2213C24.2971 14.9265 24.5108 14.6181 24.7057 14.2978C24.8076 14.1349 24.9207 13.9842 25.0145 13.8127C25.2846 13.3185 25.5167 12.8045 25.7088 12.275C25.7204 12.2432 25.7369 12.2164 25.7482 12.1844C25.7536 12.1694 25.7614 12.1569 25.7667 12.1419C26.0309 13.0968 26.043 14.104 25.8019 15.065Z" fill="#33404F"/>
</svg>
