<svg width="24" height="24" viewBox="0 0 24 24" fill="none" xmlns="http://www.w3.org/2000/svg">
<path d="M16.6344 11.8543C17.0014 11.8588 17.3656 11.7898 17.7055 11.6513C18.0454 11.5128 18.3541 11.3077 18.6134 11.048L21.2063 8.45515C21.3769 8.28348 21.4727 8.05127 21.4727 7.80922C21.4727 7.56718 21.3769 7.33496 21.2063 7.1633C21.1211 7.07743 21.0198 7.00927 20.9081 6.96275C20.7965 6.91624 20.6767 6.89229 20.5558 6.89229C20.4348 6.89229 20.3151 6.91624 20.2034 6.96275C20.0918 7.00927 19.9904 7.07743 19.9053 7.1633L17.2849 9.74699C17.1998 9.83286 17.0984 9.90102 16.9868 9.94754C16.8751 9.99405 16.7554 10.018 16.6344 10.018C16.5135 10.018 16.3937 9.99405 16.2821 9.94754C16.1704 9.90102 16.0691 9.83286 15.9839 9.74699L19.2273 6.5128C19.3127 6.42737 19.3805 6.32596 19.4267 6.21435C19.4729 6.10273 19.4967 5.98311 19.4967 5.8623C19.4967 5.74149 19.4729 5.62186 19.4267 5.51025C19.3805 5.39863 19.3127 5.29722 19.2273 5.21179C19.1419 5.12637 19.0404 5.05861 18.9288 5.01237C18.8172 4.96614 18.6976 4.94235 18.5768 4.94235C18.456 4.94235 18.3363 4.96614 18.2247 5.01237C18.1131 5.05861 18.0117 5.12637 17.9263 5.21179L14.6921 8.45515C14.5215 8.28348 14.4257 8.05127 14.4257 7.80922C14.4257 7.56718 14.5215 7.33496 14.6921 7.1633L17.2849 4.57045C17.3704 4.48503 17.4381 4.38361 17.4844 4.272C17.5306 4.16039 17.5544 4.04076 17.5544 3.91995C17.5544 3.79914 17.5306 3.67951 17.4844 3.5679C17.4381 3.45629 17.3704 3.35487 17.2849 3.26945C17.1995 3.18402 17.0981 3.11626 16.9865 3.07003C16.8749 3.0238 16.7552 3 16.6344 3C16.5136 3 16.394 3.0238 16.2824 3.07003C16.1708 3.11626 16.0694 3.18402 15.9839 3.26945L13.3911 5.8623C12.8764 6.37766 12.5872 7.07626 12.5872 7.80464C12.5872 8.53303 12.8764 9.23162 13.3911 9.74699L12.2 10.9289L4.62304 3.32442L4.53142 3.26945C4.48459 3.22858 4.43213 3.19465 4.37567 3.16867L4.21075 3.10453L4.10081 3.03123H4.03667H3.85343C3.79881 3.0225 3.74314 3.0225 3.68852 3.03123C3.63305 3.05142 3.58064 3.07917 3.53276 3.11369L3.38617 3.20531H3.32204L3.26706 3.29693C3.22829 3.34531 3.19452 3.39749 3.16628 3.45269C3.13945 3.50856 3.11798 3.56684 3.10215 3.62677C3.10215 3.62677 3.10215 3.6909 3.10215 3.72755C2.87982 5.27722 3.02157 6.85738 3.51616 8.34274C4.01075 9.8281 4.84458 11.1778 5.95153 12.2849L8.37031 14.6945L3.41366 19.642C3.32778 19.7271 3.25962 19.8285 3.21311 19.9401C3.16659 20.0518 3.14265 20.1715 3.14265 20.2925C3.14265 20.4134 3.16659 20.5332 3.21311 20.6448C3.25962 20.7565 3.32778 20.8578 3.41366 20.943C3.49927 21.0279 3.6008 21.0951 3.71242 21.1407C3.82405 21.1863 3.94358 21.2094 4.06416 21.2087C4.18474 21.2094 4.30427 21.1863 4.4159 21.1407C4.52752 21.0951 4.62905 21.0279 4.71466 20.943L10.276 15.4641L12.8689 12.8712L14.7013 11.0388C15.2125 11.5556 15.9076 11.8488 16.6344 11.8543ZM10.3296 10.7877L8.95531 9.41341C7.63456 8.07459 6.6648 7.1633 4.62304 6.21435L10.9265 12.1932L10.3296 10.7877ZM15.3426 14.044C15.1701 13.8702 13.1137 11.8551 12.8689 11.8543C10.7653 9.32878 11.4195 12.0207 11.2458 12.1932C11.0721 12.3658 11.2467 12.3753 11.2458 12.6201C11.245 12.865 13.8599 15.1712 14.0324 15.345L19.8045 21.117C19.9795 21.2763 20.2093 21.3616 20.4458 21.3553C20.5664 21.356 20.6859 21.3328 20.7976 21.2872C20.9092 21.2417 21.0107 21.1745 21.0963 21.0896C21.1822 21.0044 21.2504 20.9031 21.2969 20.7914C21.3434 20.6798 21.3673 20.56 21.3673 20.4391C21.3673 20.3181 21.3434 20.1984 21.2969 20.0867C21.2504 19.9751 21.1822 19.8737 21.0963 19.7886L15.3426 14.044Z" fill="#33404F"/>
</svg>
