<svg width="24" height="24" viewBox="0 0 24 24" fill="none" xmlns="http://www.w3.org/2000/svg">
<path d="M20.7192 10.8714C20.5752 10.7796 19.4394 10.101 18.9894 9.894L18.4314 8.544C18.597 8.0976 18.9156 6.8466 18.9714 6.6288C18.9937 6.52968 18.9906 6.42651 18.9623 6.32893C18.9339 6.23135 18.8813 6.14254 18.8094 6.0708L17.9292 5.196C17.8576 5.12376 17.7688 5.07097 17.6712 5.04262C17.5736 5.01427 17.4703 5.0113 17.3712 5.034C17.2056 5.0718 15.9312 5.394 15.456 5.574L14.106 5.016C13.9098 4.584 13.2492 3.477 13.1286 3.2862C13.0753 3.19888 13.0004 3.12671 12.9113 3.0766C12.8221 3.02649 12.7215 3.00011 12.6192 3H11.3808C11.2791 3.00005 11.1791 3.02582 11.09 3.07492C11.0009 3.12401 10.9257 3.19484 10.8714 3.2808C10.7796 3.4248 10.101 4.5606 9.89399 5.0106L8.54399 5.5686C8.09759 5.403 6.8466 5.0844 6.6288 5.0286C6.52968 5.00625 6.42651 5.00938 6.32893 5.03771C6.23135 5.06604 6.14254 5.11864 6.0708 5.1906L5.196 6.0708C5.12376 6.14234 5.07096 6.23114 5.04262 6.32878C5.01427 6.42643 5.0113 6.52969 5.034 6.6288C5.0718 6.7944 5.394 8.0688 5.574 8.544L5.016 9.894C4.584 10.0902 3.477 10.7508 3.2862 10.8714C3.19888 10.9247 3.12671 10.9995 3.0766 11.0887C3.02649 11.1779 3.00011 11.2785 3 11.3808V12.6174C3.00005 12.7191 3.02582 12.8191 3.07492 12.9082C3.12401 12.9973 3.19484 13.0725 3.2808 13.1268C3.4248 13.2186 4.5606 13.8972 5.0106 14.1042L5.5686 15.4542C5.403 15.9006 5.0844 17.1516 5.0286 17.3694C5.00625 17.4685 5.00938 17.5717 5.03771 17.6693C5.06604 17.7668 5.11864 17.8556 5.1906 17.9274L6.0654 18.8022C6.13694 18.8744 6.22574 18.9272 6.32338 18.9556C6.42103 18.9839 6.52429 18.9869 6.6234 18.9642C6.789 18.9264 8.0634 18.6042 8.53859 18.4242L9.88859 18.9822C10.0848 19.4142 10.7454 20.5212 10.866 20.712C10.9196 20.8004 10.9951 20.8735 11.0854 20.9239C11.1756 20.9744 11.2774 21.0006 11.3808 21H12.6174C12.7191 20.9999 12.8191 20.9742 12.9082 20.9251C12.9973 20.876 13.0724 20.8052 13.1268 20.7192C13.2186 20.5752 13.8972 19.4394 14.1042 18.9894L15.4542 18.4314C15.9006 18.597 17.1516 18.9156 17.3694 18.9714C17.4685 18.9937 17.5717 18.9906 17.6693 18.9623C17.7668 18.9339 17.8556 18.8813 17.9274 18.8094L18.8022 17.9346C18.8744 17.863 18.9272 17.7742 18.9556 17.6766C18.9839 17.579 18.9869 17.4757 18.9642 17.3766C18.9264 17.211 18.6042 15.9366 18.4242 15.4614L18.9822 14.1114C19.4142 13.9152 20.5212 13.2546 20.712 13.134C20.8004 13.0804 20.8734 13.0048 20.9239 12.9146C20.9744 12.8244 21.0006 12.7226 21 12.6192V11.3808C21.0008 11.2789 20.9754 11.1786 20.9262 11.0894C20.877 11.0002 20.8057 10.9251 20.7192 10.8714ZM12 15.9186C11.2243 15.9179 10.4661 15.6872 9.82154 15.2556C9.17694 14.824 8.67478 14.211 8.37858 13.494C8.08238 12.7771 8.00543 11.9884 8.15746 11.2277C8.3095 10.467 8.6837 9.76846 9.23273 9.22044C9.78176 8.67241 10.481 8.2995 11.2419 8.14886C12.0029 7.99822 12.7915 8.07662 13.5079 8.37414C14.2243 8.67166 14.8364 9.17494 15.2668 9.82033C15.6972 10.4657 15.9265 11.2243 15.9258 12C15.9234 13.0398 15.5088 14.0362 14.7729 14.7708C14.037 15.5053 13.0398 15.9181 12 15.9186Z" fill="white"/>
</svg>
