<svg width="24" height="24" viewBox="0 0 24 24" fill="none" xmlns="http://www.w3.org/2000/svg">
<path d="M19.4092 15.3779H15.2588C15.0158 15.3779 14.7827 15.4744 14.6109 15.6462C14.4391 15.818 14.3426 16.0511 14.3426 16.2941C14.3426 16.5371 14.4391 16.7701 14.6109 16.9419C14.7827 17.1138 15.0158 17.2103 15.2588 17.2103H17.4577C16.447 18.2664 15.1437 18.9962 13.7151 19.306C12.2865 19.6157 10.798 19.4913 9.44069 18.9485C8.0834 18.4058 6.91939 17.4697 6.09822 16.2603C5.27705 15.051 4.83623 13.6238 4.8324 12.162C4.8324 11.919 4.73587 11.686 4.56405 11.5142C4.39223 11.3423 4.15919 11.2458 3.9162 11.2458C3.67321 11.2458 3.44017 11.3423 3.26835 11.5142C3.09653 11.686 3 11.919 3 12.162C3.00484 13.9512 3.53343 15.6998 4.52053 17.192C5.50763 18.6842 6.91004 19.8548 8.55469 20.5592C10.1993 21.2636 12.0143 21.4711 13.7755 21.156C15.5367 20.8409 17.1671 20.0171 18.4655 18.7861V20.4078C18.4655 20.6508 18.562 20.8839 18.7338 21.0557C18.9056 21.2275 19.1387 21.324 19.3817 21.324C19.6247 21.324 19.8577 21.2275 20.0295 21.0557C20.2013 20.8839 20.2979 20.6508 20.2979 20.4078V16.2849C20.2956 16.0482 20.2018 15.8215 20.0361 15.6525C19.8705 15.4834 19.6458 15.385 19.4092 15.3779ZM14.9106 12.162C14.9106 11.6184 14.7494 11.087 14.4474 10.635C14.1454 10.183 13.7161 9.83067 13.2139 9.62263C12.7116 9.4146 12.159 9.36017 11.6258 9.46622C11.0926 9.57228 10.6029 9.83406 10.2185 10.2185C9.83406 10.6029 9.57228 11.0926 9.46622 11.6258C9.36017 12.159 9.4146 12.7116 9.62263 13.2139C9.83067 13.7161 10.183 14.1454 10.635 14.4474C11.087 14.7494 11.6184 14.9106 12.162 14.9106C12.891 14.9106 13.5901 14.621 14.1056 14.1056C14.621 13.5901 14.9106 12.891 14.9106 12.162ZM11.2458 12.162C11.2458 11.9808 11.2995 11.8037 11.4002 11.653C11.5009 11.5023 11.644 11.3849 11.8114 11.3156C11.9788 11.2462 12.163 11.2281 12.3408 11.2634C12.5185 11.2988 12.6817 11.386 12.8099 11.5142C12.938 11.6423 13.0253 11.8055 13.0606 11.9833C13.096 12.161 13.0778 12.3452 13.0085 12.5126C12.9391 12.68 12.8217 12.8231 12.671 12.9238C12.5204 13.0245 12.3432 13.0782 12.162 13.0782C11.919 13.0782 11.686 12.9817 11.5142 12.8099C11.3423 12.638 11.2458 12.405 11.2458 12.162ZM12.162 3C9.81322 3.0067 7.55672 3.91521 5.85855 5.53788V3.9162C5.85855 3.67321 5.76202 3.44017 5.5902 3.26835C5.41838 3.09653 5.18534 3 4.94235 3C4.69935 3 4.46632 3.09653 4.29449 3.26835C4.12267 3.44017 4.02615 3.67321 4.02615 3.9162V8.03911C4.02615 8.2821 4.12267 8.51514 4.29449 8.68696C4.46632 8.85878 4.69935 8.95531 4.94235 8.95531H9.06525C9.30824 8.95531 9.54128 8.85878 9.7131 8.68696C9.88492 8.51514 9.98145 8.2821 9.98145 8.03911C9.98145 7.79611 9.88492 7.56308 9.7131 7.39125C9.54128 7.21943 9.30824 7.1229 9.06525 7.1229H6.86637C7.87645 6.06732 9.17894 5.33769 10.6067 5.02765C12.0344 4.71762 13.5222 4.84133 14.8791 5.38291C16.236 5.9245 17.4001 6.85923 18.222 8.06714C19.0438 9.27506 19.486 10.701 19.4916 12.162C19.4916 12.405 19.5881 12.638 19.76 12.8099C19.9318 12.9817 20.1648 13.0782 20.4078 13.0782C20.6508 13.0782 20.8839 12.9817 21.0557 12.8099C21.2275 12.638 21.324 12.405 21.324 12.162C21.324 10.9588 21.087 9.76745 20.6266 8.65586C20.1662 7.54427 19.4913 6.53426 18.6405 5.68349C17.7898 4.83272 16.7797 4.15785 15.6682 3.69742C14.5566 3.23698 13.3652 3 12.162 3Z" fill="#33404F"/>
</svg>
